<?xml version="1.0" encoding="UTF-8"?>
<svg xmlns="http://www.w3.org/2000/svg" xmlns:xlink="http://www.w3.org/1999/xlink" width="429.31pt" height="99.81pt" viewBox="0 0 429.31 99.81" version="1.2">
<g id="surface1">
<path style=" stroke:none;fill-rule:nonzero;fill:rgb(50%,50%,50%);fill-opacity:1;" d="M 57.761719 49.808594 L 98.835938 49.808594 C 98.835938 42.335938 96.796875 35 92.9375 28.601562 "/>
<path style="fill:none;stroke-width:5;stroke-linecap:round;stroke-linejoin:round;stroke:rgb(0%,0%,0%);stroke-opacity:1;stroke-miterlimit:10;" d="M 125.423617 499.065898 L 1030.737464 499.065898 " transform="matrix(0.09981,0,0,-0.09981,0.0635,99.620361)"/>
<path style="fill:none;stroke-width:5;stroke-linecap:round;stroke-linejoin:round;stroke:rgb(0%,0%,0%);stroke-opacity:1;stroke-miterlimit:10;" d="M 578.080541 46.408975 L 578.080541 951.722821 " transform="matrix(0.09981,0,0,-0.09981,0.0635,99.620361)"/>
<path style="fill:none;stroke-width:5;stroke-linecap:round;stroke-linejoin:round;stroke:rgb(0%,0%,0%);stroke-opacity:1;stroke-miterlimit:10;" d="M 989.604624 499.065898 C 989.604624 726.333644 805.348287 910.550844 578.080541 910.550844 C 350.812794 910.550844 166.595594 726.333644 166.595594 499.065898 C 166.595594 271.798151 350.812794 87.541814 578.080541 87.541814 C 805.348287 87.541814 989.604624 271.798151 989.604624 499.065898 C 989.604624 512.763799 988.90016 526.500837 987.53037 540.159601 " transform="matrix(0.09981,0,0,-0.09981,0.0635,99.620361)"/>
<path style=" stroke:none;fill-rule:nonzero;fill:rgb(50%,50%,50%);fill-opacity:1;" d="M 162.128906 49.808594 L 203.203125 49.808594 C 203.203125 41.472656 200.664062 33.335938 195.929688 26.476562 "/>
<path style="fill:none;stroke-width:5;stroke-linecap:round;stroke-linejoin:round;stroke:rgb(0%,0%,0%);stroke-opacity:1;stroke-miterlimit:10;" d="M 1171.082244 499.065898 L 2076.39609 499.065898 " transform="matrix(0.09981,0,0,-0.09981,0.0635,99.620361)"/>
<path style="fill:none;stroke-width:5;stroke-linecap:round;stroke-linejoin:round;stroke:rgb(0%,0%,0%);stroke-opacity:1;stroke-miterlimit:10;" d="M 1623.739167 46.408975 L 1623.739167 951.722821 " transform="matrix(0.09981,0,0,-0.09981,0.0635,99.620361)"/>
<path style="fill:none;stroke-width:5;stroke-linecap:round;stroke-linejoin:round;stroke:rgb(0%,0%,0%);stroke-opacity:1;stroke-miterlimit:10;" d="M 2035.26325 499.065898 C 2035.26325 726.333644 1851.006913 910.550844 1623.739167 910.550844 C 1396.471421 910.550844 1212.215084 726.333644 1212.215084 499.065898 C 1212.215084 271.798151 1396.471421 87.541814 1623.739167 87.541814 C 1851.006913 87.541814 2035.26325 271.798151 2035.26325 499.065898 C 2035.26325 512.763799 2034.558787 526.500837 2033.188997 540.159601 " transform="matrix(0.09981,0,0,-0.09981,0.0635,99.620361)"/>
<path style=" stroke:none;fill-rule:nonzero;fill:rgb(50%,50%,50%);fill-opacity:1;" d="M 266.496094 49.808594 L 307.566406 49.808594 C 307.566406 32.058594 296.164062 16.320312 279.300781 10.785156 "/>
<path style="fill:none;stroke-width:5;stroke-linecap:round;stroke-linejoin:round;stroke:rgb(0%,0%,0%);stroke-opacity:1;stroke-miterlimit:10;" d="M 2216.74087 499.065898 L 3122.054716 499.065898 " transform="matrix(0.09981,0,0,-0.09981,0.0635,99.620361)"/>
<path style="fill:none;stroke-width:5;stroke-linecap:round;stroke-linejoin:round;stroke:rgb(0%,0%,0%);stroke-opacity:1;stroke-miterlimit:10;" d="M 2669.397793 46.408975 L 2669.397793 951.722821 " transform="matrix(0.09981,0,0,-0.09981,0.0635,99.620361)"/>
<path style="fill:none;stroke-width:5;stroke-linecap:round;stroke-linejoin:round;stroke:rgb(0%,0%,0%);stroke-opacity:1;stroke-miterlimit:10;" d="M 3080.88274 499.065898 C 3080.88274 726.333644 2896.66554 910.550844 2669.397793 910.550844 C 2442.130047 910.550844 2257.87371 726.333644 2257.87371 499.065898 C 2257.87371 271.798151 2442.130047 87.541814 2669.397793 87.541814 C 2896.66554 87.541814 3080.88274 271.798151 3080.88274 499.065898 C 3080.88274 512.763799 3080.217413 526.500837 3078.847623 540.159601 " transform="matrix(0.09981,0,0,-0.09981,0.0635,99.620361)"/>
<path style=" stroke:none;fill-rule:nonzero;fill:rgb(50%,50%,50%);fill-opacity:1;" d="M 370.859375 49.808594 L 411.933594 49.808594 C 411.933594 46.996094 411.644531 44.191406 411.070312 41.441406 "/>
<path style="fill:none;stroke-width:5;stroke-linecap:round;stroke-linejoin:round;stroke:rgb(0%,0%,0%);stroke-opacity:1;stroke-miterlimit:10;" d="M 3262.399497 499.065898 L 4167.674206 499.065898 " transform="matrix(0.09981,0,0,-0.09981,0.0635,99.620361)"/>
<path style="fill:none;stroke-width:5;stroke-linecap:round;stroke-linejoin:round;stroke:rgb(0%,0%,0%);stroke-opacity:1;stroke-miterlimit:10;" d="M 3715.017283 46.408975 L 3715.017283 951.722821 " transform="matrix(0.09981,0,0,-0.09981,0.0635,99.620361)"/>
<path style="fill:none;stroke-width:5;stroke-linecap:round;stroke-linejoin:round;stroke:rgb(0%,0%,0%);stroke-opacity:1;stroke-miterlimit:10;" d="M 4126.541366 499.065898 C 4126.541366 726.333644 3942.285029 910.550844 3715.017283 910.550844 C 3487.788673 910.550844 3303.532336 726.333644 3303.532336 499.065898 C 3303.532336 271.798151 3487.788673 87.541814 3715.017283 87.541814 C 3942.285029 87.541814 4126.541366 271.798151 4126.541366 499.065898 C 4126.541366 512.763799 4125.836903 526.500837 4124.467113 540.159601 " transform="matrix(0.09981,0,0,-0.09981,0.0635,99.620361)"/>
</g>
</svg>
