<svg version="1.1" xmlns="http://www.w3.org/2000/svg" viewBox="0 0 538.2614281843466 194.8808678013254" width="538.2614281843466" height="194.8808678013254">
  <!-- svg-source:excalidraw -->
  
  <defs>
    <style>
      @font-face {
        font-family: "Virgil";
        src: url("https://excalidraw.com/Virgil.woff2");
      }
      @font-face {
        font-family: "Cascadia";
        src: url("https://excalidraw.com/Cascadia.woff2");
      }
    </style>
  </defs>
  <rect x="0" y="0" width="538.2614281843466" height="194.8808678013254" fill="#ffffff"></rect><g stroke-linecap="round"><g transform="translate(10 96.6537768149353) rotate(0 137.7378813161995 -40.061076706068874)"><path d="M0 0 C9.4 -2.78, 31.55 -17.36, 56.43 -16.7 C81.31 -16.04, 112.77 15.61, 149.28 3.96 C185.79 -7.7, 254.44 -71.55, 275.48 -86.65 M0 0 C9.4 -2.78, 31.55 -17.36, 56.43 -16.7 C81.31 -16.04, 112.77 15.61, 149.28 3.96 C185.79 -7.7, 254.44 -71.55, 275.48 -86.65" stroke="#000000" stroke-width="1" fill="none"></path></g></g><g stroke-linecap="round"><g transform="translate(59.27772366840054 100.60903187272993) rotate(0 120 -30)"><path d="M0 0 C40 -10, 200 -50, 240 -60" stroke="#1864ab" stroke-width="2.5" fill="none" stroke-dasharray="8 10"></path></g></g><g stroke-linecap="round" transform="translate(94.82441608509635 85.95543075522801) rotate(0 3.919200441432963 4.266674701922568)"><path d="M7.84 4.27 C7.84 4.51, 7.82 4.76, 7.78 5.01 C7.74 5.25, 7.68 5.49, 7.6 5.73 C7.52 5.96, 7.43 6.19, 7.31 6.4 C7.2 6.61, 7.07 6.82, 6.92 7.01 C6.78 7.2, 6.61 7.38, 6.44 7.54 C6.26 7.69, 6.08 7.84, 5.88 7.96 C5.68 8.09, 5.47 8.19, 5.26 8.28 C5.05 8.36, 4.82 8.43, 4.6 8.47 C4.38 8.51, 4.15 8.53, 3.92 8.53 C3.69 8.53, 3.46 8.51, 3.24 8.47 C3.02 8.43, 2.79 8.36, 2.58 8.28 C2.37 8.19, 2.16 8.09, 1.96 7.96 C1.76 7.84, 1.57 7.69, 1.4 7.54 C1.23 7.38, 1.06 7.2, 0.92 7.01 C0.77 6.82, 0.64 6.61, 0.53 6.4 C0.41 6.19, 0.31 5.96, 0.24 5.73 C0.16 5.49, 0.1 5.25, 0.06 5.01 C0.02 4.76, 0 4.51, 0 4.27 C0 4.02, 0.02 3.77, 0.06 3.53 C0.1 3.28, 0.16 3.04, 0.24 2.81 C0.31 2.58, 0.41 2.35, 0.53 2.13 C0.64 1.92, 0.77 1.71, 0.92 1.52 C1.06 1.33, 1.23 1.16, 1.4 1 C1.57 0.84, 1.76 0.7, 1.96 0.57 C2.16 0.45, 2.37 0.34, 2.58 0.26 C2.79 0.17, 3.02 0.11, 3.24 0.06 C3.46 0.02, 3.69 0, 3.92 0 C4.15 0, 4.38 0.02, 4.6 0.06 C4.82 0.11, 5.05 0.17, 5.26 0.26 C5.47 0.34, 5.68 0.45, 5.88 0.57 C6.08 0.7, 6.26 0.84, 6.44 1 C6.61 1.16, 6.78 1.33, 6.92 1.52 C7.07 1.71, 7.2 1.92, 7.31 2.13 C7.43 2.35, 7.52 2.58, 7.6 2.81 C7.68 3.04, 7.74 3.28, 7.78 3.53 C7.82 3.77, 7.83 4.14, 7.84 4.27 C7.85 4.39, 7.85 4.14, 7.84 4.27" stroke="none" stroke-width="0" fill="#868e96"></path><path d="M7.84 4.27 C7.84 4.51, 7.82 4.76, 7.78 5.01 C7.74 5.25, 7.68 5.49, 7.6 5.73 C7.52 5.96, 7.43 6.19, 7.31 6.4 C7.2 6.61, 7.07 6.82, 6.92 7.01 C6.78 7.2, 6.61 7.38, 6.44 7.54 C6.26 7.69, 6.08 7.84, 5.88 7.96 C5.68 8.09, 5.47 8.19, 5.26 8.28 C5.05 8.36, 4.82 8.43, 4.6 8.47 C4.38 8.51, 4.15 8.53, 3.92 8.53 C3.69 8.53, 3.46 8.51, 3.24 8.47 C3.02 8.43, 2.79 8.36, 2.58 8.28 C2.37 8.19, 2.16 8.09, 1.96 7.96 C1.76 7.84, 1.57 7.69, 1.4 7.54 C1.23 7.38, 1.06 7.2, 0.92 7.01 C0.77 6.82, 0.64 6.61, 0.53 6.4 C0.41 6.19, 0.31 5.96, 0.24 5.73 C0.16 5.49, 0.1 5.25, 0.06 5.01 C0.02 4.76, 0 4.51, 0 4.27 C0 4.02, 0.02 3.77, 0.06 3.53 C0.1 3.28, 0.16 3.04, 0.24 2.81 C0.31 2.58, 0.41 2.35, 0.53 2.13 C0.64 1.92, 0.77 1.71, 0.92 1.52 C1.06 1.33, 1.23 1.16, 1.4 1 C1.57 0.84, 1.76 0.7, 1.96 0.57 C2.16 0.45, 2.37 0.34, 2.58 0.26 C2.79 0.17, 3.02 0.11, 3.24 0.06 C3.46 0.02, 3.69 0, 3.92 0 C4.15 0, 4.38 0.02, 4.6 0.06 C4.82 0.11, 5.05 0.17, 5.26 0.26 C5.47 0.34, 5.68 0.45, 5.88 0.57 C6.08 0.7, 6.26 0.84, 6.44 1 C6.61 1.16, 6.78 1.33, 6.92 1.52 C7.07 1.71, 7.2 1.92, 7.31 2.13 C7.43 2.35, 7.52 2.58, 7.6 2.81 C7.68 3.04, 7.74 3.28, 7.78 3.53 C7.82 3.77, 7.83 4.14, 7.84 4.27 C7.85 4.39, 7.85 4.14, 7.84 4.27" stroke="#495057" stroke-width="2" fill="none"></path></g><g stroke-linecap="round" transform="translate(221.0587951275038 54.82084782442314) rotate(0 3.919200441432963 4.266674701922568)"><path d="M7.84 4.27 C7.84 4.51, 7.82 4.76, 7.78 5.01 C7.74 5.25, 7.68 5.49, 7.6 5.73 C7.52 5.96, 7.43 6.19, 7.31 6.4 C7.2 6.61, 7.07 6.82, 6.92 7.01 C6.78 7.2, 6.61 7.38, 6.44 7.54 C6.26 7.69, 6.08 7.84, 5.88 7.96 C5.68 8.09, 5.47 8.19, 5.26 8.28 C5.05 8.36, 4.82 8.43, 4.6 8.47 C4.38 8.51, 4.15 8.53, 3.92 8.53 C3.69 8.53, 3.46 8.51, 3.24 8.47 C3.02 8.43, 2.79 8.36, 2.58 8.28 C2.37 8.19, 2.16 8.09, 1.96 7.96 C1.76 7.84, 1.57 7.69, 1.4 7.54 C1.23 7.38, 1.06 7.2, 0.92 7.01 C0.77 6.82, 0.64 6.61, 0.53 6.4 C0.41 6.19, 0.31 5.96, 0.24 5.73 C0.16 5.49, 0.1 5.25, 0.06 5.01 C0.02 4.76, 0 4.51, 0 4.27 C0 4.02, 0.02 3.77, 0.06 3.53 C0.1 3.28, 0.16 3.04, 0.24 2.81 C0.31 2.58, 0.41 2.35, 0.53 2.13 C0.64 1.92, 0.77 1.71, 0.92 1.52 C1.06 1.33, 1.23 1.16, 1.4 1 C1.57 0.84, 1.76 0.7, 1.96 0.57 C2.16 0.45, 2.37 0.34, 2.58 0.26 C2.79 0.17, 3.02 0.11, 3.24 0.06 C3.46 0.02, 3.69 0, 3.92 0 C4.15 0, 4.38 0.02, 4.6 0.06 C4.82 0.11, 5.05 0.17, 5.26 0.26 C5.47 0.34, 5.68 0.45, 5.88 0.57 C6.08 0.7, 6.26 0.84, 6.44 1 C6.61 1.16, 6.78 1.33, 6.92 1.52 C7.07 1.71, 7.2 1.92, 7.31 2.13 C7.43 2.35, 7.52 2.58, 7.6 2.81 C7.68 3.04, 7.74 3.28, 7.78 3.53 C7.82 3.77, 7.83 4.14, 7.84 4.27 C7.85 4.39, 7.85 4.14, 7.84 4.27" stroke="none" stroke-width="0" fill="#868e96"></path><path d="M7.84 4.27 C7.84 4.51, 7.82 4.76, 7.78 5.01 C7.74 5.25, 7.68 5.49, 7.6 5.73 C7.52 5.96, 7.43 6.19, 7.31 6.4 C7.2 6.61, 7.07 6.82, 6.92 7.01 C6.78 7.2, 6.61 7.38, 6.44 7.54 C6.26 7.69, 6.08 7.84, 5.88 7.96 C5.68 8.09, 5.47 8.19, 5.26 8.28 C5.05 8.36, 4.82 8.43, 4.6 8.47 C4.38 8.51, 4.15 8.53, 3.92 8.53 C3.69 8.53, 3.46 8.51, 3.24 8.47 C3.02 8.43, 2.79 8.36, 2.58 8.28 C2.37 8.19, 2.16 8.09, 1.96 7.96 C1.76 7.84, 1.57 7.69, 1.4 7.54 C1.23 7.38, 1.06 7.2, 0.92 7.01 C0.77 6.82, 0.64 6.61, 0.53 6.4 C0.41 6.19, 0.31 5.96, 0.24 5.73 C0.16 5.49, 0.1 5.25, 0.06 5.01 C0.02 4.76, 0 4.51, 0 4.27 C0 4.02, 0.02 3.77, 0.06 3.53 C0.1 3.28, 0.16 3.04, 0.24 2.81 C0.31 2.58, 0.41 2.35, 0.53 2.13 C0.64 1.92, 0.77 1.71, 0.92 1.52 C1.06 1.33, 1.23 1.16, 1.4 1 C1.57 0.84, 1.76 0.7, 1.96 0.57 C2.16 0.45, 2.37 0.34, 2.58 0.26 C2.79 0.17, 3.02 0.11, 3.24 0.06 C3.46 0.02, 3.69 0, 3.92 0 C4.15 0, 4.38 0.02, 4.6 0.06 C4.82 0.11, 5.05 0.17, 5.26 0.26 C5.47 0.34, 5.68 0.45, 5.88 0.57 C6.08 0.7, 6.26 0.84, 6.44 1 C6.61 1.16, 6.78 1.33, 6.92 1.52 C7.07 1.71, 7.2 1.92, 7.31 2.13 C7.43 2.35, 7.52 2.58, 7.6 2.81 C7.68 3.04, 7.74 3.28, 7.78 3.53 C7.82 3.77, 7.83 4.14, 7.84 4.27 C7.85 4.39, 7.85 4.14, 7.84 4.27" stroke="#495057" stroke-width="2" fill="none"></path></g><g transform="translate(111.33328270504694 46.080641582972476) rotate(0 43 10)"><text x="0" y="14" font-family="Virgil, Segoe UI Emoji" font-size="16px" fill="#1864ab" text-anchor="start" style="white-space: pre;" direction="ltr">secant line</text></g><g stroke-linecap="round"><g transform="translate(32.96391685547633 90.37575061843631) rotate(0 112.06862581935115 0)"><path d="M0 0 C37.36 0, 186.78 0, 224.14 0" stroke="#000000" stroke-width="1.5" fill="none" stroke-dasharray="8 9"></path></g></g><g stroke-linecap="round"><g transform="translate(225.2615813985758 21.235961226137988) rotate(0 0 69.22379885693059)"><path d="M0 0 C0 23.07, 0 115.37, 0 138.45" stroke="#000000" stroke-width="1.5" fill="none" stroke-dasharray="8 9"></path></g></g><g transform="translate(103.70993047939987 106.52691178366086) rotate(0 56.9858273315657 12.327950482675817)" stroke="none"><path fill="#000000" d="M 2.35,-1.24 Q 2.35,-1.24 2.88,-0.28 3.41,0.66 4.34,2.05 5.26,3.43 6.26,4.25 7.26,5.07 8.88,5.36 10.49,5.66 12.03,5.73 13.57,5.80 14.74,5.78 15.91,5.76 17.03,5.78 18.14,5.79 20.07,5.80 21.99,5.81 24.16,5.98 26.33,6.16 28.10,6.35 29.86,6.55 31.47,6.81 33.08,7.06 34.52,7.34 35.96,7.61 37.24,8.02 38.52,8.44 39.94,9.16 41.35,9.88 42.36,10.45 43.36,11.02 44.43,11.66 45.50,12.30 46.55,13.02 47.60,13.75 48.40,14.50 49.20,15.25 49.86,16.08 50.53,16.91 51.41,18.17 52.28,19.43 53.03,20.37 53.78,21.32 52.48,21.14 51.19,20.97 50.20,21.49 49.22,22.01 50.06,21.14 50.90,20.27 51.74,19.39 52.59,18.52 53.49,17.50 54.39,16.48 55.57,15.59 56.75,14.70 58.39,14.15 60.03,13.60 61.14,13.46 62.25,13.31 63.62,13.14 64.98,12.97 66.16,12.95 67.34,12.92 68.92,12.95 70.49,12.98 71.79,12.99 73.08,13.00 74.32,13.01 75.56,13.02 76.86,12.93 78.17,12.84 79.60,12.70 81.03,12.55 82.43,12.46 83.82,12.37 85.29,12.26 86.75,12.15 88.15,12.05 89.54,11.95 90.98,11.80 92.41,11.64 93.96,11.41 95.52,11.19 96.64,11.05 97.77,10.92 99.08,10.64 100.38,10.36 101.58,10.10 102.79,9.83 103.84,9.59 104.90,9.35 106.29,8.79 107.67,8.22 108.41,7.29 109.15,6.36 109.72,5.24 110.29,4.13 110.48,3.56 110.68,2.98 111.04,2.51 111.41,2.03 111.91,1.69 112.41,1.35 113.00,1.19 113.58,1.03 114.18,1.07 114.79,1.11 115.35,1.33 115.91,1.56 116.36,1.95 116.82,2.34 117.13,2.86 117.44,3.38 117.57,3.97 117.70,4.56 117.63,5.16 117.56,5.76 117.30,6.31 117.05,6.86 116.63,7.29 116.21,7.73 115.68,8.01 115.14,8.29 114.55,8.39 113.95,8.48 113.35,8.38 112.76,8.28 112.23,8.00 111.69,7.71 111.28,7.27 110.87,6.83 110.62,6.28 110.36,5.73 110.30,5.13 110.24,4.53 110.37,3.94 110.50,3.35 110.82,2.83 111.13,2.32 111.59,1.93 112.06,1.54 112.62,1.32 113.18,1.10 113.78,1.07 114.39,1.04 114.97,1.20 115.55,1.37 116.05,1.71 116.55,2.05 116.91,2.53 117.27,3.01 117.46,3.59 117.65,4.16 117.65,4.77 117.65,5.37 117.65,5.37 117.65,5.37 116.36,8.11 115.08,10.86 114.30,11.86 113.53,12.85 112.58,13.60 111.64,14.35 110.25,15.01 108.86,15.67 107.79,16.02 106.72,16.37 105.57,16.61 104.41,16.85 103.06,17.13 101.70,17.40 100.65,17.57 99.60,17.74 98.52,17.89 97.45,18.03 96.18,18.23 94.92,18.42 93.52,18.64 92.11,18.85 90.95,19.02 89.79,19.18 88.60,19.25 87.40,19.32 85.75,19.45 84.10,19.58 82.99,19.66 81.89,19.74 80.41,19.88 78.93,20.03 77.24,20.13 75.56,20.24 73.80,20.25 72.04,20.26 70.47,20.29 68.90,20.32 67.10,20.38 65.30,20.44 63.93,20.63 62.56,20.83 61.40,21.02 60.23,21.21 59.46,21.98 58.69,22.76 57.86,23.66 57.03,24.56 56.13,25.44 55.24,26.32 53.85,27.25 52.46,28.18 50.50,27.43 48.55,26.68 47.82,25.52 47.10,24.35 46.45,23.45 45.80,22.54 45.17,21.56 44.53,20.59 43.82,19.76 43.10,18.93 42.15,18.21 41.20,17.49 40.13,16.78 39.05,16.07 37.92,15.42 36.78,14.77 35.62,14.30 34.46,13.82 33.22,13.53 31.98,13.25 30.50,12.96 29.03,12.68 27.35,12.45 25.67,12.23 23.83,12.11 21.99,12.00 20.06,12.01 18.13,12.01 16.99,12.03 15.85,12.04 14.61,11.98 13.36,11.92 11.40,11.76 9.43,11.61 7.39,11.10 5.35,10.59 3.79,9.46 2.22,8.33 1.00,6.77 -0.20,5.20 -0.78,4.20 -1.36,3.20 -1.85,2.22 -2.35,1.24 -2.46,0.94 -2.58,0.64 -2.62,0.32 -2.66,0.00 -2.62,-0.30 -2.58,-0.62 -2.47,-0.92 -2.36,-1.22 -2.17,-1.49 -1.99,-1.75 -1.75,-1.97 -1.51,-2.18 -1.23,-2.33 -0.95,-2.48 -0.64,-2.56 -0.33,-2.64 -0.00,-2.64 0.31,-2.64 0.62,-2.56 0.93,-2.49 1.21,-2.34 1.50,-2.19 1.74,-1.98 1.98,-1.77 2.16,-1.50 2.35,-1.24 2.35,-1.24 L 2.35,-1.24 Z"></path></g><g transform="translate(269.0728004076618 57.215109852957625) rotate(0 5.099513653476265 17.03138540578506)" stroke="none"><path fill="#000000" d="M -1.41,-2.12 Q -1.41,-2.12 -0.40,-2.82 0.61,-3.52 2.16,-4.33 3.72,-5.14 5.14,-5.32 6.56,-5.50 7.80,-4.53 9.04,-3.56 9.43,-2.51 9.83,-1.46 10.06,-0.15 10.29,1.15 10.38,2.51 10.46,3.87 10.51,5.07 10.55,6.26 10.32,7.69 10.09,9.12 10.23,10.27 10.37,11.43 11.00,12.34 11.63,13.24 12.46,14.03 13.29,14.82 12.15,16.56 11.02,18.29 12.47,19.56 13.92,20.83 13.55,21.97 13.18,23.11 12.89,24.35 12.60,25.58 12.41,27.23 12.22,28.88 11.97,30.65 11.71,32.41 11.09,33.88 10.46,35.35 9.43,36.72 8.40,38.08 7.28,38.84 6.16,39.60 5.01,40.04 3.87,40.49 2.33,40.31 0.78,40.13 -0.21,39.68 -1.21,39.23 -3.15,38.54 -5.10,37.85 -5.64,37.59 -6.19,37.33 -6.62,36.91 -7.06,36.48 -7.33,35.95 -7.61,35.41 -7.70,34.81 -7.79,34.21 -7.69,33.62 -7.58,33.02 -7.30,32.49 -7.01,31.96 -6.56,31.55 -6.12,31.14 -5.57,30.89 -5.01,30.64 -4.41,30.58 -3.81,30.52 -3.22,30.66 -2.63,30.80 -2.12,31.12 -1.60,31.43 -1.22,31.90 -0.83,32.36 -0.61,32.93 -0.39,33.49 -0.37,34.10 -0.34,34.70 -0.51,35.28 -0.68,35.86 -1.02,36.36 -1.37,36.86 -1.86,37.22 -2.34,37.58 -2.92,37.77 -3.49,37.95 -4.10,37.95 -4.70,37.94 -5.27,37.74 -5.84,37.54 -6.32,37.17 -6.80,36.80 -7.13,36.29 -7.47,35.79 -7.62,35.20 -7.78,34.62 -7.74,34.01 -7.70,33.41 -7.47,32.85 -7.24,32.29 -6.84,31.84 -6.44,31.38 -5.92,31.07 -5.40,30.77 -4.81,30.64 -4.21,30.52 -3.61,30.59 -3.01,30.66 -3.01,30.66 -3.01,30.66 -0.71,32.15 1.58,33.63 2.86,32.66 4.14,31.69 4.48,30.61 4.83,29.53 4.97,28.39 5.11,27.24 5.24,25.81 5.36,24.38 5.63,23.02 5.90,21.66 6.36,20.49 6.83,19.33 8.03,18.09 9.23,16.85 10.28,16.05 11.33,15.25 12.82,15.01 14.31,14.76 15.85,16.14 17.38,17.51 17.08,19.02 16.77,20.53 15.54,21.25 14.31,21.98 12.97,21.85 11.62,21.73 10.37,21.15 9.12,20.57 7.96,19.51 6.81,18.45 6.06,17.46 5.31,16.47 4.63,15.22 3.95,13.97 3.58,12.41 3.22,10.84 3.33,9.52 3.43,8.19 3.69,6.47 3.95,4.74 3.99,3.29 4.03,1.83 4.80,0.94 5.57,0.04 4.53,0.41 3.48,0.79 2.45,1.45 1.41,2.12 1.14,2.26 0.86,2.40 0.56,2.47 0.26,2.54 -0.04,2.53 -0.34,2.53 -0.64,2.45 -0.94,2.37 -1.21,2.22 -1.48,2.08 -1.71,1.87 -1.94,1.66 -2.11,1.40 -2.28,1.15 -2.38,0.86 -2.49,0.57 -2.52,0.26 -2.55,-0.04 -2.51,-0.34 -2.47,-0.65 -2.35,-0.93 -2.24,-1.22 -2.06,-1.47 -1.88,-1.72 -1.65,-1.92 -1.41,-2.12 -1.41,-2.12 L -1.41,-2.12 Z"></path></g><g transform="translate(100.04598771094834 161.8808678013254) rotate(0 116 11.5)"><text x="0" y="17" font-family="Virgil, Segoe UI Emoji" font-size="16px" fill="#000000" text-anchor="start" style="white-space: pre;" direction="ltr">Δx = Delta x = "change in x"</text></g><g transform="translate(300.26142818434664 58.76803776389974) rotate(0 114 11.5)"><text x="0" y="17" font-family="Virgil, Segoe UI Emoji" font-size="16px" fill="#000000" text-anchor="start" style="white-space: pre;" direction="ltr">Δy = Delta y = "change in y"</text></g></svg>