<svg xmlns="http://www.w3.org/2000/svg" xmlns:xlink="http://www.w3.org/1999/xlink" viewBox="0 0 146.81 153.42"><defs><style>.cls-1,.cls-2,.cls-6,.cls-7{fill:none;}.cls-2,.cls-6{stroke:#00aeef;stroke-linecap:round;stroke-linejoin:round;}.cls-2{stroke-width:0.5px;}.cls-3{clip-path:url(#clip-path);}.cls-4{font-size:8px;fill:#231f20;font-family:TimesNewRomanPSMT, Times New Roman;}.cls-5{fill:#00aeef;}.cls-6{stroke-width:0.25px;}.cls-7{stroke:#231f20;stroke-miterlimit:3.86;stroke-width:0.4px;}.cls-8{letter-spacing:0.1em;}.cls-9{letter-spacing:0.08em;}.cls-10{letter-spacing:0.07em;}.cls-11{clip-path:url(#clip-path-9);}.cls-12{letter-spacing:0.05em;}.cls-13{letter-spacing:3.36em;}</style><clipPath id="clip-path" transform="translate(0 0.01)"><rect class="cls-1" width="154.17" height="161.14"/></clipPath><clipPath id="clip-path-9" transform="translate(0 0.01)"><rect class="cls-1" width="146.82" height="152.95"/></clipPath></defs><g id="Layer_2" data-name="Layer 2"><g id="Layer_1-2" data-name="Layer 1"><polygon class="cls-2" points="20.71 76.49 55.75 29.69 91.27 76.49 55.75 123.05 20.71 76.49"/><g class="cls-3"><text class="cls-4" transform="translate(35.59 6.65)">Chain Rule</text></g><text class="cls-4" transform="translate(54.79 130.49)">t</text><text class="cls-4" transform="translate(95.11 77.45)">z</text><text class="cls-4" transform="translate(59.28 77.45)">y</text><text class="cls-4" transform="translate(12.79 77.45)">x</text><g class="cls-3"><path class="cls-5" d="M57.5,29.68a1.75,1.75,0,1,1-1.75-1.75,1.75,1.75,0,0,1,1.75,1.75" transform="translate(0 0.01)"/><circle class="cls-6" cx="55.75" cy="29.69" r="1.75"/><path class="cls-5" d="M57.5,123a1.75,1.75,0,1,1-1.75-1.75A1.75,1.75,0,0,1,57.5,123" transform="translate(0 0.01)"/><circle class="cls-6" cx="55.75" cy="123.05" r="1.75"/><path class="cls-5" d="M93,76.48a1.75,1.75,0,1,1-1.75-1.75A1.75,1.75,0,0,1,93,76.48" transform="translate(0 0.01)"/><circle class="cls-6" cx="91.27" cy="76.49" r="1.75"/><path class="cls-5" d="M22.46,76.48a1.75,1.75,0,1,1-1.75-1.75,1.75,1.75,0,0,1,1.75,1.75" transform="translate(0 0.01)"/><circle class="cls-6" cx="20.71" cy="76.49" r="1.75"/><path class="cls-5" d="M57.51,76.48a1.75,1.75,0,1,1-1.75-1.75,1.75,1.75,0,0,1,1.75,1.75" transform="translate(0 0.01)"/><circle class="cls-6" cx="55.76" cy="76.49" r="1.75"/></g><text class="cls-4" transform="translate(53.46 25.96)">w</text><text class="cls-4" transform="translate(58.79 25.96)"> </text><text class="cls-4" transform="translate(60.79 25.96)">=</text><text class="cls-4" transform="translate(67.46 25.96)"> </text><text class="cls-4" transform="translate(69.46 25.96)">f</text><text class="cls-4" transform="translate(72.88 25.96)">(</text><text class="cls-4" transform="translate(75.54 25.96)">x</text><text class="cls-4" transform="translate(79.1 25.96)">, </text><text class="cls-4" transform="translate(83.1 25.96)">y</text><text class="cls-4" transform="translate(86.65 25.96)">, </text><text class="cls-4" transform="translate(90.65 25.96)">z</text><text class="cls-4" transform="translate(94.16 25.96)">)</text><text class="cls-4" transform="translate(77.87 47.07) scale(1 1.02)">∂</text><text class="cls-4" transform="translate(81.87 47.07)">w</text><text class="cls-4" transform="translate(78.98 55.6) scale(1 1.02)">∂</text><text class="cls-4" transform="translate(82.98 55.6)">z</text><g class="cls-3"><line class="cls-7" x1="77.95" y1="48.92" x2="87.15" y2="48.92"/></g><text class="cls-4" transform="translate(24.28 47.07) scale(1 1.02)">∂</text><text class="cls-4" transform="translate(28.28 47.07)">w</text><text class="cls-4" transform="translate(25.17 55.6) scale(1 1.02)">∂</text><text class="cls-4" transform="translate(29.17 55.6)">x</text><g class="cls-3"><line class="cls-7" x1="24.36" y1="48.92" x2="33.56" y2="48.92"/></g><text class="cls-4" transform="translate(43.5 57.59) scale(1 1.02)">∂</text><text class="cls-4" transform="translate(47.5 57.59)">w</text><text class="cls-4" transform="translate(44.39 66.11) scale(1 1.02)">∂</text><text class="cls-4" transform="translate(48.39 66.11)">y</text><g class="cls-3"><line class="cls-7" x1="43.57" y1="59.44" x2="52.78" y2="59.44"/></g><text class="cls-4" transform="translate(43.99 90.68)"><tspan class="cls-8">d</tspan><tspan x="4.79" y="0">y</tspan></text><text class="cls-4" transform="translate(44.75 100.89)"><tspan class="cls-9">d</tspan><tspan x="4.6" y="0">t</tspan></text><g class="cls-3"><line class="cls-7" x1="43.57" y1="94.03" x2="52.78" y2="94.03"/></g><text class="cls-4" transform="translate(78.68 101.91)"><tspan class="cls-9">d</tspan><tspan x="4.6" y="0">z</tspan></text><text class="cls-4" transform="translate(79.12 111.14)"><tspan class="cls-9">d</tspan><tspan x="4.6" y="0">t</tspan></text><g class="cls-3"><line class="cls-7" x1="77.95" y1="104.27" x2="87.15" y2="104.27"/></g><text class="cls-4" transform="translate(24.87 101.91)"><tspan class="cls-10">d</tspan><tspan x="4.59" y="0">x</tspan></text><text class="cls-4" transform="translate(25.54 111.14)"><tspan class="cls-10">d</tspan><tspan x="4.59" y="0">t</tspan></text><g class="cls-3"><line class="cls-7" x1="24.36" y1="104.27" x2="33.56" y2="104.27"/></g><text class="cls-4" transform="translate(0 141.42)"><tspan class="cls-10">d</tspan><tspan x="4.59" y="0">w</tspan></text><text class="cls-4" transform="translate(1.55 150.92)"><tspan class="cls-10">d</tspan><tspan x="4.59" y="0">t</tspan></text><g class="cls-11"><line class="cls-7" x1="0.37" y1="144.24" x2="9.58" y2="144.24"/></g><text class="cls-4" transform="translate(22.16 141.42) scale(1 1.02)">∂</text><text class="cls-4" transform="translate(26.16 141.42)">w</text><text class="cls-4" transform="translate(23.05 150.92) scale(1 1.02)">∂</text><text class="cls-4" transform="translate(27.05 150.92)">x</text><g class="cls-3"><line class="cls-7" x1="22.24" y1="144.24" x2="31.44" y2="144.24"/></g><text class="cls-4" transform="translate(34.61 141.42)"><tspan class="cls-10">d</tspan><tspan x="4.59" y="0">x</tspan></text><text class="cls-4" transform="translate(35.27 150.92)"><tspan class="cls-10">d</tspan><tspan x="4.59" y="0">t</tspan></text><g class="cls-3"><line class="cls-7" x1="34.09" y1="144.24" x2="43.3" y2="144.24"/></g><text class="cls-4" transform="translate(55.84 141.42) scale(1 1.02)">∂</text><text class="cls-4" transform="translate(59.84 141.42)">w</text><text class="cls-4" transform="translate(56.73 150.92) scale(1 1.02)">∂</text><text class="cls-4" transform="translate(60.73 150.92)">y</text><g class="cls-3"><line class="cls-7" x1="55.91" y1="144.24" x2="65.12" y2="144.24"/></g><text class="cls-4" transform="translate(68.39 141.42)"><tspan class="cls-12">d</tspan><tspan x="4.39" y="0">y</tspan></text><text class="cls-4" transform="translate(68.95 150.92)"><tspan class="cls-9">d</tspan><tspan x="4.6" y="0">t</tspan></text><g class="cls-3"><line class="cls-7" x1="67.77" y1="144.24" x2="76.98" y2="144.24"/></g><text class="cls-4" transform="translate(12.67 146.41)"><tspan class="cls-13">=</tspan><tspan x="31.4" y="0">+</tspan></text><text class="cls-4" transform="translate(89.67 141.42) scale(1 1.02)">∂</text><text class="cls-4" transform="translate(93.67 141.42)">w</text><text class="cls-4" transform="translate(90.78 150.92) scale(1 1.02)">∂</text><text class="cls-4" transform="translate(94.78 150.92)">z</text><g class="cls-3"><line class="cls-7" x1="89.74" y1="144.24" x2="98.95" y2="144.24"/></g><text class="cls-4" transform="translate(102.33 141.42)"><tspan class="cls-9">d</tspan><tspan x="4.6" y="0">z</tspan></text><text class="cls-4" transform="translate(102.78 150.92)"><tspan class="cls-9">d</tspan><tspan x="4.6" y="0">t</tspan></text><g class="cls-3"><line class="cls-7" x1="101.6" y1="144.24" x2="110.8" y2="144.24"/></g><text class="cls-4" transform="translate(80.06 146.41)">+</text><text class="cls-4" transform="translate(106.39 73.61)">Intermediate</text><text class="cls-4" transform="translate(106.39 83.21)">variables</text><text class="cls-4" transform="translate(106.39 26.05)">Dependent</text><text class="cls-4" transform="translate(106.39 35.65)">variable</text><text class="cls-4" transform="translate(106.39 121.17)">Independent</text><text class="cls-4" transform="translate(106.39 130.77)">variable</text><g class="cls-3"><line class="cls-2" x1="55.75" y1="123.05" x2="55.75" y2="29.69"/></g></g></g></svg>