<svg xmlns="http://www.w3.org/2000/svg" xmlns:xlink="http://www.w3.org/1999/xlink" viewBox="0 0 134.02 152.4"><defs><style>.cls-1,.cls-2,.cls-6,.cls-7{fill:none;}.cls-2,.cls-6{stroke:#00aeef;stroke-linecap:round;stroke-linejoin:round;}.cls-2{stroke-width:0.5px;}.cls-3{clip-path:url(#clip-path);}.cls-4{font-size:8px;fill:#231f20;font-family:TimesNewRomanPSMT, Times New Roman;}.cls-5{fill:#00aeef;}.cls-6{stroke-width:0.25px;}.cls-7{stroke:#231f20;stroke-miterlimit:3.86;stroke-width:0.4px;}.cls-8{letter-spacing:0.08em;}.cls-9{letter-spacing:0.07em;}.cls-10{letter-spacing:3.36em;}</style><clipPath id="clip-path" transform="translate(-0.22 0.01)"><rect class="cls-1" width="138.64" height="156.45"/></clipPath></defs><g id="Layer_2" data-name="Layer 2"><g id="Layer_1-2" data-name="Layer 1"><polygon class="cls-2" points="7.92 76.49 42.96 29.69 78.48 76.49 42.96 123.05 7.92 76.49"/><g class="cls-3"><text class="cls-4" transform="translate(22.8 6.65)">Chain Rule</text></g><text class="cls-4" transform="translate(42 130.49)">t</text><text class="cls-4" transform="translate(82.32 77.45)">y</text><text class="cls-4" transform="translate(0 77.45)">x</text><g class="cls-3"><path class="cls-5" d="M44.93,29.68a1.75,1.75,0,1,1-1.75-1.75,1.75,1.75,0,0,1,1.75,1.75" transform="translate(-0.22 0.01)"/><circle class="cls-6" cx="42.96" cy="29.69" r="1.75"/><path class="cls-5" d="M44.93,123a1.75,1.75,0,1,1-1.75-1.75A1.75,1.75,0,0,1,44.93,123" transform="translate(-0.22 0.01)"/><circle class="cls-6" cx="42.96" cy="123.05" r="1.75"/><path class="cls-5" d="M80.45,76.48a1.75,1.75,0,1,1-1.75-1.75,1.75,1.75,0,0,1,1.75,1.75" transform="translate(-0.22 0.01)"/><circle class="cls-6" cx="78.48" cy="76.49" r="1.75"/><path class="cls-5" d="M9.89,76.48a1.75,1.75,0,1,1-1.75-1.75,1.75,1.75,0,0,1,1.75,1.75" transform="translate(-0.22 0.01)"/><circle class="cls-6" cx="7.92" cy="76.49" r="1.75"/></g><text class="cls-4" transform="translate(40.66 25.96)">w</text><text class="cls-4" transform="translate(46 25.96)"> </text><text class="cls-4" transform="translate(48 25.96)">=</text><text class="cls-4" transform="translate(54.66 25.96)"> </text><text class="cls-4" transform="translate(56.66 25.96)">f</text><text class="cls-4" transform="translate(60.09 25.96)">(</text><text class="cls-4" transform="translate(62.75 25.96)">x</text><text class="cls-4" transform="translate(66.3 25.96)">, </text><text class="cls-4" transform="translate(70.3 25.96)">y</text><text class="cls-4" transform="translate(73.85 25.96)">)</text><text class="cls-4" transform="translate(65.08 47.07) scale(1 1.02)">∂</text><text class="cls-4" transform="translate(69.08 47.07)">w</text><text class="cls-4" transform="translate(65.97 55.93) scale(1 1.02)">∂</text><text class="cls-4" transform="translate(69.97 55.93)">y</text><g class="cls-3"><line class="cls-7" x1="65.15" y1="48.92" x2="74.36" y2="48.92"/></g><text class="cls-4" transform="translate(11.49 47.07) scale(1 1.02)">∂</text><text class="cls-4" transform="translate(15.49 47.07)">w</text><text class="cls-4" transform="translate(12.38 55.93) scale(1 1.02)">∂</text><text class="cls-4" transform="translate(16.38 55.93)">x</text><g class="cls-3"><line class="cls-7" x1="11.56" y1="48.92" x2="20.77" y2="48.92"/></g><text class="cls-4" transform="translate(65.67 101.47)"><tspan class="cls-8">d</tspan><tspan x="4.6" y="0">y</tspan></text><text class="cls-4" transform="translate(66.33 111.14)"><tspan class="cls-8">d</tspan><tspan x="4.6" y="0">t</tspan></text><g class="cls-3"><line class="cls-7" x1="65.15" y1="104.27" x2="74.36" y2="104.27"/></g><text class="cls-4" transform="translate(12.08 101.47)"><tspan class="cls-9">d</tspan><tspan x="4.59" y="0">x</tspan></text><text class="cls-4" transform="translate(12.74 111.14)"><tspan class="cls-8">d</tspan><tspan x="4.6" y="0">t</tspan></text><g class="cls-3"><line class="cls-7" x1="11.56" y1="104.27" x2="20.77" y2="104.27"/></g><text class="cls-4" transform="translate(5.34 140.16)"><tspan class="cls-9">d</tspan><tspan x="4.59" y="0">w</tspan></text><text class="cls-4" transform="translate(6.9 149.9)"><tspan class="cls-9">d</tspan><tspan x="4.59" y="0">t</tspan></text><g class="cls-3"><line class="cls-7" x1="5.71" y1="142.73" x2="14.92" y2="142.73"/></g><text class="cls-4" transform="translate(27.5 140.16) scale(1 1.02)">∂</text><text class="cls-4" transform="translate(31.5 140.16)">w</text><text class="cls-4" transform="translate(28.39 149.9) scale(1 1.02)">∂</text><text class="cls-4" transform="translate(32.39 149.9)">x</text><g class="cls-3"><line class="cls-7" x1="27.57" y1="142.73" x2="36.78" y2="142.73"/></g><text class="cls-4" transform="translate(39.95 140.16)"><tspan class="cls-8">d</tspan><tspan x="4.6" y="0">x</tspan></text><text class="cls-4" transform="translate(40.61 149.9)"><tspan class="cls-8">d</tspan><tspan x="4.6" y="0">t</tspan></text><g class="cls-3"><line class="cls-7" x1="39.43" y1="142.73" x2="48.64" y2="142.73"/></g><text class="cls-4" transform="translate(61.18 140.16) scale(1 1.02)">∂</text><text class="cls-4" transform="translate(65.18 140.16)">w</text><text class="cls-4" transform="translate(62.07 149.9) scale(1 1.02)">∂</text><text class="cls-4" transform="translate(66.07 149.9)">y</text><g class="cls-3"><line class="cls-7" x1="61.25" y1="142.73" x2="70.46" y2="142.73"/></g><text class="cls-4" transform="translate(73.63 140.16)"><tspan class="cls-8">d</tspan><tspan x="4.6" y="0">y</tspan></text><text class="cls-4" transform="translate(74.29 149.9)"><tspan class="cls-8">d</tspan><tspan x="4.6" y="0">t</tspan></text><g class="cls-3"><line class="cls-7" x1="73.11" y1="142.73" x2="82.32" y2="142.73"/></g><text class="cls-4" transform="translate(18.01 144.9)"><tspan class="cls-10">=</tspan><tspan x="31.4" y="0">+</tspan></text><text class="cls-4" transform="translate(93.6 73.61)">Intermediate</text><text class="cls-4" transform="translate(93.6 83.21)">variables</text><text class="cls-4" transform="translate(93.6 23.5)">Dependent</text><text class="cls-4" transform="translate(93.6 33.1)">variable</text><text class="cls-4" transform="translate(93.6 123.72)">Independent</text><text class="cls-4" transform="translate(93.6 133.32)">variable</text></g></g></svg>