<svg xmlns="http://www.w3.org/2000/svg" xmlns:xlink="http://www.w3.org/1999/xlink" viewBox="0 0 407.93 150.33"><defs><style>.cls-1,.cls-10,.cls-11,.cls-13,.cls-16,.cls-2,.cls-4,.cls-6{fill:none;}.cls-11,.cls-16,.cls-2{stroke:#ed1846;}.cls-10,.cls-13,.cls-2,.cls-4,.cls-6{stroke-miterlimit:3.86;}.cls-10,.cls-11,.cls-2,.cls-6{stroke-width:0.5px;}.cls-3{font-size:8px;font-family:TimesNewRomanPSMT, Times New Roman;}.cls-3,.cls-5{fill:#231f20;}.cls-10,.cls-13,.cls-4,.cls-6{stroke:#231f20;}.cls-16,.cls-4{stroke-width:0.25px;}.cls-5{fill-rule:evenodd;}.cls-7{fill:#fff;}.cls-8{letter-spacing:1.18em;}.cls-9{letter-spacing:2.59em;}.cls-10{stroke-dasharray:4 2;}.cls-11,.cls-16{stroke-linecap:round;stroke-linejoin:round;}.cls-12{letter-spacing:5.35em;}.cls-13{stroke-width:0.4px;}.cls-14{clip-path:url(#clip-path);}.cls-15{fill:#ed1846;}.cls-17{clip-path:url(#clip-path-14);}</style><clipPath id="clip-path" transform="translate(0)"><rect class="cls-1" y="0.01" width="411" height="156.01"/></clipPath><clipPath id="clip-path-14" transform="translate(0)"><rect class="cls-1" y="0.01" width="407.93" height="149.61"/></clipPath></defs><g id="Layer_2" data-name="Layer 2"><g id="Layer_1-2" data-name="Layer 1"><rect class="cls-2" x="84.12" y="9.9" width="12" height="12"/><text class="cls-3" transform="translate(87.48 17.82)">w</text><path class="cls-2" d="M108.12,52.86h12v12h-12Zm-24,0h12v12h-12Zm-24,0h12v12h-12Z" transform="translate(0)"/><line class="cls-4" x1="67.56" y1="68.7" x2="69" y2="71.1"/><polygon class="cls-5" points="67.56 68.94 66.36 69.66 65.64 65.82 68.76 68.22 67.56 68.94"/><line class="cls-4" x1="89.88" y1="68.94" x2="89.88" y2="71.1"/><polygon class="cls-5" points="89.88 69.18 88.44 69.18 89.88 65.34 91.32 69.18 89.88 69.18"/><line class="cls-4" x1="111.72" y1="68.46" x2="110.28" y2="70.86"/><polygon class="cls-5" points="111.48 68.7 110.28 67.98 113.64 65.58 112.92 69.42 111.48 68.7"/><path class="cls-6" d="M111.72,68.46,95.16,94.14m-5.28-25.2v25.2M67.56,68.7,84.84,94.38" transform="translate(0)"/><rect class="cls-7" x="77.88" y="93.9" width="24" height="12"/><rect class="cls-2" x="77.88" y="93.9" width="24" height="12"/><line class="cls-4" x1="89.64" y1="25.5" x2="89.64" y2="27.66"/><polygon class="cls-5" points="89.64 25.74 88.2 25.74 89.64 21.9 91.08 25.74 89.64 25.74"/><line class="cls-6" x1="89.64" y1="25.26" x2="89.64" y2="47.82"/><text class="cls-3" transform="translate(85.33 147.88)">(a)</text><text class="cls-3" transform="translate(68.28 81.66)">g</text><text class="cls-3" transform="translate(83.64 82.86)"><tspan class="cls-8">h</tspan><tspan x="13.44" y="0">k</tspan></text><text class="cls-3" transform="translate(92.76 38.22)">f</text><text class="cls-3" transform="translate(64.2 61.02)"><tspan class="cls-9">x</tspan><tspan x="24.69" y="0">y</tspan></text><text class="cls-3" transform="translate(112.68 61.02)">z</text><rect class="cls-10" x="54.36" y="47.58" width="71.76" height="24"/><text class="cls-3" transform="translate(85.06 101.83)">r</text><text class="cls-3" transform="translate(87.57 101.83)">,</text><text class="cls-3" transform="translate(89.57 101.83)"><tspan xml:space="preserve"> s</tspan></text><text class="cls-3" transform="translate(0 14.03)">Dependent</text><text class="cls-3" transform="translate(0 23.63)">variable</text><text class="cls-3" transform="translate(0 97.73)">Independent</text><text class="cls-3" transform="translate(0 107.33)">variables</text><text class="cls-3" transform="translate(0 58.19)">Intermediate</text><text class="cls-3" transform="translate(0 67.79)">variables</text><text class="cls-3" transform="translate(43.97 123.87)">w</text><text class="cls-3" transform="translate(49.3 124.37)"> </text><text class="cls-3" transform="translate(51.3 123.87)">=</text><text class="cls-3" transform="translate(57.97 123.87)"><tspan xml:space="preserve"> f</tspan></text><text class="cls-3" transform="translate(62.83 123.87)">(</text><text class="cls-3" transform="translate(66.7 123.87)">g</text><text class="cls-3" transform="translate(70.7 123.87)">(</text><text class="cls-3" transform="translate(73.36 123.87)">r</text><text class="cls-3" transform="translate(76.47 123.87)">,</text><text class="cls-3" transform="translate(78.47 123.87)"><tspan xml:space="preserve"> s</tspan></text><text class="cls-3" transform="translate(83.58 123.87)">),</text><text class="cls-3" transform="translate(88.25 123.87)"><tspan xml:space="preserve"> h</tspan></text><text class="cls-3" transform="translate(94.25 123.87)">(</text><text class="cls-3" transform="translate(96.91 123.87)">r</text><text class="cls-3" transform="translate(100.02 123.87)">,</text><text class="cls-3" transform="translate(102.02 123.87)"><tspan xml:space="preserve"> s</tspan></text><text class="cls-3" transform="translate(107.14 123.87)">),</text><text class="cls-3" transform="translate(111.8 123.87)"><tspan xml:space="preserve"> k</tspan></text><text class="cls-3" transform="translate(117.35 123.87)">(</text><text class="cls-3" transform="translate(120.02 123.87)">r</text><text class="cls-3" transform="translate(123.13 123.87)">,</text><text class="cls-3" transform="translate(125.13 123.87)"><tspan xml:space="preserve"> s</tspan></text><text class="cls-3" transform="translate(130.24 123.87)">))</text><text class="cls-3" transform="translate(215.05 147.72)">(b)</text><path class="cls-11" d="M214.18,105.21V11.61m-35,47,35-46.8,35.52,46.8-35.52,46.56Z" transform="translate(0)"/><text class="cls-3" transform="translate(213.22 112.65)">r</text><text class="cls-3" transform="translate(253.54 59.61)">z</text><text class="cls-3" transform="translate(171.22 59.61)"><tspan class="cls-12">x</tspan><tspan x="46.77" y="0">y</tspan></text><text class="cls-3" transform="translate(212.35 8.38)">w</text><text class="cls-3" transform="translate(217.68 8.38)"> </text><text class="cls-3" transform="translate(219.68 8.38)">=</text><text class="cls-3" transform="translate(226.35 8.38)"> </text><text class="cls-3" transform="translate(228.35 8.38)">f</text><text class="cls-3" transform="translate(231.77 8.38)">(</text><text class="cls-3" transform="translate(234.43 8.38)">x</text><text class="cls-3" transform="translate(237.99 8.38)">, </text><text class="cls-3" transform="translate(241.99 8.38)">y</text><text class="cls-3" transform="translate(245.54 8.38)">, </text><text class="cls-3" transform="translate(249.54 8.38)">z</text><text class="cls-3" transform="translate(252.65 8.38)">)</text><text class="cls-3" transform="translate(183.17 30.05) scale(1 1.02)">∂</text><text class="cls-3" transform="translate(187.17 30.05)">w</text><text class="cls-3" transform="translate(184.07 38.93) scale(1 1.02)">∂</text><text class="cls-3" transform="translate(188.07 38.93)">x</text><line class="cls-13" x1="183.25" y1="31.9" x2="192.45" y2="31.9"/><text class="cls-3" transform="translate(201.65 40.73) scale(1 1.02)">∂</text><text class="cls-3" transform="translate(205.65 40.73)">w</text><text class="cls-3" transform="translate(202.54 49.61) scale(1 1.02)">∂</text><text class="cls-3" transform="translate(206.54 49.61)">y</text><line class="cls-13" x1="201.72" y1="42.58" x2="210.93" y2="42.58"/><text class="cls-3" transform="translate(202.54 71.84) scale(1 1.02)">∂</text><text class="cls-3" transform="translate(206.54 71.84)">y</text><text class="cls-3" transform="translate(202.76 82.23) scale(1 1.02)">∂</text><text class="cls-3" transform="translate(206.76 82.23)">r</text><line class="cls-13" x1="201.72" y1="75.2" x2="210.93" y2="75.2"/><text class="cls-3" transform="translate(184.07 85.18) scale(1 1.02)">∂</text><text class="cls-3" transform="translate(188.07 85.18)">x</text><text class="cls-3" transform="translate(184.29 94.06) scale(1 1.02)">∂</text><text class="cls-3" transform="translate(188.29 94.06)">r</text><line class="cls-13" x1="183.25" y1="87.03" x2="192.45" y2="87.03"/><text class="cls-3" transform="translate(235.99 30.05) scale(1 1.02)">∂</text><text class="cls-3" transform="translate(239.99 30.05)">w</text><text class="cls-3" transform="translate(237.11 38.93) scale(1 1.02)">∂</text><text class="cls-3" transform="translate(241.11 38.93)">z</text><line class="cls-13" x1="236.07" y1="31.9" x2="245.27" y2="31.9"/><text class="cls-3" transform="translate(237.11 85.18) scale(1 1.02)">∂</text><text class="cls-3" transform="translate(241.11 85.18)">z</text><text class="cls-3" transform="translate(237.11 94.06) scale(1 1.02)">∂</text><text class="cls-3" transform="translate(241.11 94.06)">r</text><line class="cls-13" x1="236.07" y1="87.03" x2="245.27" y2="87.03"/><text class="cls-3" transform="translate(162.31 121.68) scale(1 1.02)">∂</text><text class="cls-3" transform="translate(166.31 121.68)">w</text><text class="cls-3" transform="translate(163.42 131.14) scale(1 1.02)">∂</text><text class="cls-3" transform="translate(167.42 131.14)">r</text><line class="cls-13" x1="162.39" y1="124.26" x2="171.59" y2="124.26"/><text class="cls-3" transform="translate(184.17 121.68) scale(1 1.02)">∂</text><text class="cls-3" transform="translate(188.17 121.68)">w</text><text class="cls-3" transform="translate(185.07 131.14) scale(1 1.02)">∂</text><text class="cls-3" transform="translate(189.07 131.14)">x</text><line class="cls-13" x1="184.25" y1="124.26" x2="193.46" y2="124.26"/><text class="cls-3" transform="translate(196.92 121.68) scale(1 1.02)">∂</text><text class="cls-3" transform="translate(200.92 121.68)">x</text><text class="cls-3" transform="translate(197.14 131.14) scale(1 1.02)">∂</text><text class="cls-3" transform="translate(201.14 131.14)">r</text><line class="cls-13" x1="196.1" y1="124.26" x2="205.31" y2="124.26"/><text class="cls-3" transform="translate(217.85 121.68) scale(1 1.02)">∂</text><text class="cls-3" transform="translate(221.85 121.68)">w</text><text class="cls-3" transform="translate(218.75 131.14) scale(1 1.02)">d</text><text class="cls-3" transform="translate(222.75 131.14)">y</text><line class="cls-13" x1="217.93" y1="124.26" x2="227.14" y2="124.26"/><text class="cls-3" transform="translate(230.6 121.68) scale(1 1.02)">∂</text><text class="cls-3" transform="translate(234.6 121.68)">y</text><text class="cls-3" transform="translate(230.82 131.14) scale(1 1.02)">∂</text><text class="cls-3" transform="translate(234.82 131.14)">r</text><line class="cls-13" x1="229.78" y1="124.26" x2="238.99" y2="124.26"/><text class="cls-3" transform="translate(174.68 126.43)">=</text><text class="cls-3" transform="translate(251.3 121.68) scale(1 1.02)">∂</text><text class="cls-3" transform="translate(255.3 121.68)">w</text><text class="cls-3" transform="translate(252.41 131.14) scale(1 1.02)">∂</text><text class="cls-3" transform="translate(256.41 131.14)">z</text><line class="cls-13" x1="251.37" y1="124.26" x2="260.58" y2="124.26"/><text class="cls-3" transform="translate(264.27 121.68) scale(1 1.02)">∂</text><text class="cls-3" transform="translate(268.27 121.68)">z</text><text class="cls-3" transform="translate(264.27 131.14) scale(1 1.02)">∂</text><text class="cls-3" transform="translate(268.27 131.14)">r</text><line class="cls-13" x1="263.23" y1="124.26" x2="272.44" y2="124.26"/><text class="cls-3" transform="translate(241.81 126.43)">+</text><text class="cls-3" transform="translate(208.25 126.43)">+</text><g class="cls-14"><path class="cls-15" d="M215.93,105.21a1.75,1.75,0,1,1-1.75-1.75,1.75,1.75,0,0,1,1.75,1.75" transform="translate(0)"/><circle class="cls-16" cx="214.18" cy="105.21" r="1.75"/><path class="cls-15" d="M215.93,11.85a1.75,1.75,0,1,1-1.75-1.75,1.75,1.75,0,0,1,1.75,1.75" transform="translate(0)"/><circle class="cls-16" cx="214.18" cy="11.85" r="1.75"/><path class="cls-15" d="M180.89,58.65a1.75,1.75,0,1,1-1.75-1.75,1.75,1.75,0,0,1,1.75,1.75" transform="translate(0)"/><circle class="cls-16" cx="179.14" cy="58.65" r="1.75"/><path class="cls-15" d="M215.92,58.65a1.75,1.75,0,1,1-1.75-1.75,1.75,1.75,0,0,1,1.75,1.75" transform="translate(0)"/><circle class="cls-16" cx="214.17" cy="58.65" r="1.75"/><path class="cls-15" d="M251.45,58.65a1.75,1.75,0,1,1-1.75-1.75,1.75,1.75,0,0,1,1.75,1.75" transform="translate(0)"/><circle class="cls-16" cx="249.7" cy="58.65" r="1.75"/><path class="cls-11" d="M348.58,103.78V10.18m-35,46.8,35-46.8L384.1,57l-35.52,46.8Z" transform="translate(0)"/></g><text class="cls-3" transform="translate(347.62 110.97)">s</text><text class="cls-3" transform="translate(387.94 57.93)">z</text><text class="cls-3" transform="translate(305.62 57.93)"><tspan class="cls-12">x</tspan><tspan x="46.77" y="0">y</tspan></text><text class="cls-3" transform="translate(345.29 147.55)">(c)</text><text class="cls-3" transform="translate(316.87 27.46) scale(1 1.02)">∂</text><text class="cls-3" transform="translate(320.87 27.46)">w</text><text class="cls-3" transform="translate(317.76 36.35) scale(1 1.02)">∂</text><text class="cls-3" transform="translate(321.76 36.35)">x</text><g class="cls-14"><line class="cls-13" x1="316.94" y1="29.31" x2="326.15" y2="29.31"/></g><text class="cls-3" transform="translate(335.34 40.73) scale(1 1.02)">∂</text><text class="cls-3" transform="translate(339.34 40.73)">w</text><text class="cls-3" transform="translate(336.24 49.61) scale(1 1.02)">∂</text><text class="cls-3" transform="translate(340.24 49.61)">y</text><g class="cls-14"><line class="cls-13" x1="335.42" y1="42.58" x2="344.62" y2="42.58"/></g><text class="cls-3" transform="translate(336.24 71.84) scale(1 1.02)">∂</text><text class="cls-3" transform="translate(340.24 71.84)">y</text><text class="cls-3" transform="translate(336.46 82.23) scale(1 1.02)">∂</text><text class="cls-3" transform="translate(340.46 82.23)">s</text><g class="cls-14"><line class="cls-13" x1="335.42" y1="75.2" x2="344.62" y2="75.2"/></g><text class="cls-3" transform="translate(317.76 82.59) scale(1 1.02)">∂</text><text class="cls-3" transform="translate(321.76 82.59)">x</text><text class="cls-3" transform="translate(317.98 91.47) scale(1 1.02)">∂</text><text class="cls-3" transform="translate(321.98 91.47)">s</text><g class="cls-14"><line class="cls-13" x1="316.94" y1="84.44" x2="326.15" y2="84.44"/></g><text class="cls-3" transform="translate(369.69 27.46) scale(1 1.02)">∂</text><text class="cls-3" transform="translate(373.69 27.46)">w</text><text class="cls-3" transform="translate(370.8 36.35) scale(1 1.02)">∂</text><text class="cls-3" transform="translate(374.8 36.35)">z</text><g class="cls-14"><line class="cls-13" x1="369.76" y1="29.31" x2="378.97" y2="29.31"/></g><text class="cls-3" transform="translate(370.8 82.59) scale(1 1.02)">∂</text><text class="cls-3" transform="translate(374.8 82.59)">z</text><text class="cls-3" transform="translate(370.8 91.47) scale(1 1.02)">∂</text><text class="cls-3" transform="translate(374.8 91.47)">s</text><g class="cls-14"><line class="cls-13" x1="369.76" y1="84.44" x2="378.97" y2="84.44"/></g><text class="cls-3" transform="translate(297.8 121.37) scale(1 1.02)">∂</text><text class="cls-3" transform="translate(301.8 121.37)">w</text><text class="cls-3" transform="translate(298.92 130.83) scale(1 1.02)">∂</text><text class="cls-3" transform="translate(302.92 130.83)">s</text><g class="cls-14"><line class="cls-13" x1="297.88" y1="123.95" x2="307.08" y2="123.95"/></g><text class="cls-3" transform="translate(319.67 121.37) scale(1 1.02)">∂</text><text class="cls-3" transform="translate(323.67 121.37)">w</text><text class="cls-3" transform="translate(320.56 130.83) scale(1 1.02)">∂</text><text class="cls-3" transform="translate(324.56 130.83)">x</text><g class="cls-14"><line class="cls-13" x1="319.74" y1="123.95" x2="328.95" y2="123.95"/></g><text class="cls-3" transform="translate(332.41 121.37) scale(1 1.02)">∂</text><text class="cls-3" transform="translate(336.41 121.37)">x</text><text class="cls-3" transform="translate(332.63 130.83) scale(1 1.02)">∂</text><text class="cls-3" transform="translate(336.63 130.83)">s</text><g class="cls-14"><line class="cls-13" x1="331.6" y1="123.95" x2="340.8" y2="123.95"/></g><text class="cls-3" transform="translate(353.34 121.37) scale(1 1.02)">∂</text><text class="cls-3" transform="translate(357.34 121.37)">w</text><text class="cls-3" transform="translate(354.24 130.83) scale(1 1.02)">∂</text><text class="cls-3" transform="translate(358.24 130.83)">y</text><g class="cls-14"><line class="cls-13" x1="353.42" y1="123.95" x2="362.63" y2="123.95"/></g><text class="cls-3" transform="translate(366.09 121.37) scale(1 1.02)">∂</text><text class="cls-3" transform="translate(370.09 121.37)">y</text><text class="cls-3" transform="translate(366.31 130.83) scale(1 1.02)">∂</text><text class="cls-3" transform="translate(370.31 130.83)">s</text><g class="cls-14"><line class="cls-13" x1="365.27" y1="123.95" x2="374.48" y2="123.95"/></g><text class="cls-3" transform="translate(310.17 126.12)">=</text><text class="cls-3" transform="translate(386.79 121.37) scale(1 1.02)">∂</text><text class="cls-3" transform="translate(390.79 121.37)">w</text><text class="cls-3" transform="translate(387.9 130.83) scale(1 1.02)">∂</text><text class="cls-3" transform="translate(391.9 130.83)">z</text><g class="cls-14"><line class="cls-13" x1="386.86" y1="123.95" x2="396.07" y2="123.95"/></g><text class="cls-3" transform="translate(399.76 121.37) scale(1 1.02)">∂</text><text class="cls-3" transform="translate(403.76 121.37)">z</text><text class="cls-3" transform="translate(399.76 130.83) scale(1 1.02)">∂</text><text class="cls-3" transform="translate(403.76 130.83)">s</text><g class="cls-17"><line class="cls-13" x1="398.72" y1="123.95" x2="407.93" y2="123.95"/></g><text class="cls-3" transform="translate(377.3 126.12)">+</text><text class="cls-3" transform="translate(343.74 126.12)">+</text><g class="cls-14"><path class="cls-15" d="M350.33,103.77a1.75,1.75,0,1,1-1.75-1.75,1.75,1.75,0,0,1,1.75,1.75" transform="translate(0)"/><circle class="cls-16" cx="348.58" cy="103.77" r="1.75"/><path class="cls-15" d="M350.33,10.18a1.75,1.75,0,1,1-1.75-1.75,1.75,1.75,0,0,1,1.75,1.75" transform="translate(0)"/><circle class="cls-16" cx="348.58" cy="10.18" r="1.75"/><path class="cls-15" d="M315.29,57a1.75,1.75,0,1,1-1.75-1.75A1.75,1.75,0,0,1,315.29,57" transform="translate(0)"/><circle class="cls-16" cx="313.54" cy="56.98" r="1.75"/><path class="cls-15" d="M350.32,57a1.75,1.75,0,1,1-1.75-1.75A1.75,1.75,0,0,1,350.32,57" transform="translate(0)"/><circle class="cls-16" cx="348.57" cy="56.98" r="1.75"/><path class="cls-15" d="M385.85,57a1.75,1.75,0,1,1-1.75-1.75A1.75,1.75,0,0,1,385.85,57" transform="translate(0)"/><circle class="cls-16" cx="384.1" cy="56.98" r="1.75"/></g><text class="cls-3" transform="translate(346.59 6.65)">w</text><g class="cls-14"><text class="cls-3" transform="translate(351.92 6.65)"> </text></g><text class="cls-3" transform="translate(353.92 6.65)">=</text><g class="cls-14"><text class="cls-3" transform="translate(360.59 6.65)"> </text></g><text class="cls-3" transform="translate(362.59 6.65)">f</text><g class="cls-14"><text class="cls-3" transform="translate(366.01 6.65)">(</text></g><text class="cls-3" transform="translate(368.68 6.65)">x</text><g class="cls-14"><text class="cls-3" transform="translate(372.23 6.65)">, </text></g><text class="cls-3" transform="translate(376.23 6.65)">y</text><g class="cls-14"><text class="cls-3" transform="translate(379.78 6.65)">, </text></g><text class="cls-3" transform="translate(383.78 6.65)">z</text><g class="cls-14"><text class="cls-3" transform="translate(386.89 6.65)">)</text></g></g></g></svg>