<svg xmlns="http://www.w3.org/2000/svg" xmlns:xlink="http://www.w3.org/1999/xlink" viewBox="0 0 80.15 178.73"><defs><style>.cls-1,.cls-2,.cls-6,.cls-8{fill:none;}.cls-2,.cls-6{stroke:#21b685;stroke-linecap:round;stroke-linejoin:round;}.cls-2{stroke-width:0.5px;}.cls-3{font-size:8px;fill:#231f20;font-family:TimesNewRomanPSMT, Times New Roman;}.cls-4{clip-path:url(#clip-path);}.cls-5{fill:#21b685;}.cls-6{stroke-width:0.25px;}.cls-7{letter-spacing:0.05em;}.cls-8{stroke:#231f20;stroke-miterlimit:3.86;stroke-width:0.4px;}.cls-9{letter-spacing:0.07em;}</style><clipPath id="clip-path" transform="translate(0 -0.39)"><rect class="cls-1" width="85.44" height="183"/></clipPath></defs><g id="Layer_2" data-name="Layer 2"><g id="Layer_1-2" data-name="Layer 1"><polyline class="cls-2" points="75.6 122.81 40.32 76.25 40.32 29.45"/><text class="cls-3" transform="translate(21.12 6.65)">Chain Rule</text><text class="cls-3" transform="translate(0 130.49)">r</text><text class="cls-3" transform="translate(44.64 77.21)">x</text><polyline class="cls-2" points="5.04 122.81 40.32 76.25 40.32 29.45"/><text class="cls-3" transform="translate(77.04 130.49)">s</text><g class="cls-4"><path class="cls-5" d="M42.07,29.84a1.75,1.75,0,1,1-1.75-1.75,1.75,1.75,0,0,1,1.75,1.75" transform="translate(0 -0.39)"/><circle class="cls-6" cx="40.32" cy="29.45" r="1.75"/><path class="cls-5" d="M42.07,76.64a1.75,1.75,0,1,1-1.75-1.75,1.75,1.75,0,0,1,1.75,1.75" transform="translate(0 -0.39)"/><circle class="cls-6" cx="40.32" cy="76.25" r="1.75"/><path class="cls-5" d="M6.79,123.2A1.75,1.75,0,1,1,5,121.45a1.75,1.75,0,0,1,1.75,1.75" transform="translate(0 -0.39)"/><circle class="cls-6" cx="5.04" cy="122.81" r="1.75"/><path class="cls-5" d="M77.35,123.2a1.75,1.75,0,1,1-1.75-1.75,1.75,1.75,0,0,1,1.75,1.75" transform="translate(0 -0.39)"/><circle class="cls-6" cx="75.6" cy="122.81" r="1.75"/></g><text class="cls-3" transform="translate(38.03 25.73)">w</text><text class="cls-3" transform="translate(43.37 25.73)"> </text><text class="cls-3" transform="translate(45.37 25.73)">=</text><text class="cls-3" transform="translate(52.03 25.73)"> </text><text class="cls-3" transform="translate(54.03 25.73)">f</text><text class="cls-3" transform="translate(57.45 25.73)">(</text><text class="cls-3" transform="translate(60.12 25.73)">x</text><text class="cls-3" transform="translate(63.67 25.73)">)</text><text class="cls-3" transform="translate(27.65 51.18)"><tspan class="cls-7">d</tspan><tspan x="4.4" y="0">w</tspan></text><text class="cls-3" transform="translate(28.54 59.82)"><tspan class="cls-7">d</tspan><tspan x="4.4" y="0">x</tspan></text><g class="cls-4"><line class="cls-8" x1="27.92" y1="53.03" x2="37.12" y2="53.03"/></g><text class="cls-3" transform="translate(10.39 92.86) scale(1 1.02)">∂</text><text class="cls-3" transform="translate(14.39 92.86)">x</text><text class="cls-3" transform="translate(10.61 102.52) scale(1 1.02)">∂</text><text class="cls-3" transform="translate(14.61 102.52)">r</text><g class="cls-4"><line class="cls-8" x1="9.57" y1="95.66" x2="18.78" y2="95.66"/></g><text class="cls-3" transform="translate(62.91 92.86) scale(1 1.02)">∂</text><text class="cls-3" transform="translate(66.91 92.86)">x</text><text class="cls-3" transform="translate(63.13 102.52) scale(1 1.02)">∂</text><text class="cls-3" transform="translate(67.13 102.52)">s</text><g class="cls-4"><line class="cls-8" x1="62.09" y1="95.66" x2="71.3" y2="95.66"/></g><text class="cls-3" transform="translate(20.02 142.55) scale(1 1.02)">∂</text><text class="cls-3" transform="translate(24.02 142.55)">w</text><text class="cls-3" transform="translate(21.13 152.04) scale(1 1.02)">∂</text><text class="cls-3" transform="translate(25.13 152.04)">r</text><g class="cls-4"><line class="cls-8" x1="20.09" y1="145.13" x2="29.3" y2="145.13"/></g><text class="cls-3" transform="translate(41.58 142.55)"><tspan class="cls-9">d</tspan><tspan x="4.59" y="0">w</tspan></text><text class="cls-3" transform="translate(42.47 152.04)"><tspan class="cls-9">d</tspan><tspan x="4.59" y="0">x</tspan></text><g class="cls-4"><line class="cls-8" x1="41.95" y1="145.13" x2="51.16" y2="145.13"/></g><text class="cls-3" transform="translate(54.63 142.55) scale(1 1.02)">∂</text><text class="cls-3" transform="translate(58.63 142.55)">x</text><text class="cls-3" transform="translate(54.85 152.04) scale(1 1.02)">∂</text><text class="cls-3" transform="translate(58.85 152.04)">r</text><g class="cls-4"><line class="cls-8" x1="53.81" y1="145.13" x2="63.02" y2="145.13"/></g><text class="cls-3" transform="translate(32.39 147.3)">=</text><text class="cls-3" transform="translate(20.02 166.75) scale(1 1.02)">∂</text><text class="cls-3" transform="translate(24.02 166.75)">w</text><text class="cls-3" transform="translate(21.13 176.24) scale(1 1.02)">∂</text><text class="cls-3" transform="translate(25.13 176.24)">s</text><g class="cls-4"><line class="cls-8" x1="20.09" y1="169.32" x2="29.3" y2="169.32"/></g><text class="cls-3" transform="translate(41.58 166.75)"><tspan class="cls-9">d</tspan><tspan x="4.59" y="0">w</tspan></text><text class="cls-3" transform="translate(42.57 176.24)"><tspan class="cls-7">d</tspan><tspan x="4.4" y="0">x</tspan></text><g class="cls-4"><line class="cls-8" x1="41.95" y1="169.32" x2="51.16" y2="169.32"/></g><text class="cls-3" transform="translate(54.63 166.75) scale(1 1.02)">∂</text><text class="cls-3" transform="translate(58.63 166.75)">x</text><text class="cls-3" transform="translate(54.85 176.24) scale(1 1.02)">∂</text><text class="cls-3" transform="translate(58.85 176.24)">s</text><g class="cls-4"><line class="cls-8" x1="53.81" y1="169.32" x2="63.02" y2="169.32"/></g><text class="cls-3" transform="translate(32.39 171.49)">=</text></g></g></svg>