<svg xmlns="http://www.w3.org/2000/svg" viewBox="0 0 110.51 135.78"><defs><style>.cls-1,.cls-4,.cls-6{fill:none;}.cls-1,.cls-4{stroke:#00aeef;stroke-linecap:round;stroke-linejoin:round;}.cls-1{stroke-width:0.5px;}.cls-2{font-size:8px;fill:#231f20;font-family:TimesNewRomanPSMT, Times New Roman;}.cls-3{fill:#00acee;}.cls-4{stroke-width:0.25px;}.cls-5{letter-spacing:0.07em;}.cls-6{stroke:#231f20;stroke-miterlimit:3.86;stroke-width:0.4px;}</style></defs><g id="Layer_2" data-name="Layer 2"><g id="Layer_1-2" data-name="Layer 1"><line class="cls-1" x1="19.45" y1="29.69" x2="19.45" y2="123.05"/><text class="cls-2" transform="translate(0 6.65)">Chain Rule</text><text class="cls-2" transform="translate(18.49 130.49)">t</text><text class="cls-2" transform="translate(11.53 78.13)">x</text><path class="cls-3" d="M21.2,29.69a1.75,1.75,0,1,1-1.75-1.75,1.75,1.75,0,0,1,1.75,1.75"/><circle class="cls-4" cx="19.45" cy="29.69" r="1.75"/><path class="cls-3" d="M21.2,123.05a1.75,1.75,0,1,1-1.75-1.75,1.75,1.75,0,0,1,1.75,1.75"/><circle class="cls-4" cx="19.45" cy="123.05" r="1.75"/><path class="cls-3" d="M21.2,76.37a1.75,1.75,0,1,1-1.75-1.75,1.75,1.75,0,0,1,1.75,1.75"/><circle class="cls-4" cx="19.45" cy="76.37" r="1.75"/><text class="cls-2" transform="translate(11.09 25.96)">w</text><text class="cls-2" transform="translate(18.42 25.96)">=</text><text class="cls-2" transform="translate(27.09 25.96)">f</text><text class="cls-2" transform="translate(30.51 25.96)">(</text><text class="cls-2" transform="translate(33.18 25.96)">x</text><text class="cls-2" transform="translate(36.73 25.96)">)</text><text class="cls-2" transform="translate(42.16 101.48)"><tspan class="cls-5">d</tspan><tspan x="4.59" y="0">x</tspan></text><text class="cls-2" transform="translate(42.82 111.14)"><tspan class="cls-5">d</tspan><tspan x="4.59" y="0">t</tspan></text><line class="cls-6" x1="41.64" y1="104.27" x2="50.85" y2="104.27"/><text class="cls-2" transform="translate(41.27 50.65)"><tspan class="cls-5">d</tspan><tspan x="4.59" y="0">w</tspan></text><text class="cls-2" transform="translate(42.16 60.31)"><tspan class="cls-5">d</tspan><tspan x="4.59" y="0">x</tspan></text><line class="cls-6" x1="41.64" y1="53.45" x2="50.85" y2="53.45"/><text class="cls-2" transform="translate(70.08 73.61)">Intermediate</text><text class="cls-2" transform="translate(70.08 83.21)">variable</text><text class="cls-2" transform="translate(70.08 23.5)">Dependent</text><text class="cls-2" transform="translate(70.08 33.1)">variable</text><text class="cls-2" transform="translate(70.08 123.72)">Independent</text><text class="cls-2" transform="translate(70.08 133.32)">variable</text></g></g></svg>