<?xml version="1.0" encoding="UTF-8" standalone="no"?>
<!DOCTYPE svg PUBLIC "-//W3C//DTD SVG 1.1//EN" "http://www.w3.org/Graphics/SVG/1.1/DTD/svg11.dtd">
<svg xmlns="http://www.w3.org/2000/svg" xmlns:xlink="http://www.w3.org/1999/xlink" version="1.1" width="101.6042pt" height="87.34302pt" viewBox="0 0 101.6042 87.34302">
<g enable-background="new">
<path transform="matrix(1,0,0,-1,-77.0448,488.772)" d="M 79.808 458.816 L 93.563999 458.816 L 93.563999 472.57203 L 79.808 472.57203 Z " fill="#ed1c24"/>
<path transform="matrix(1,0,0,-1,-77.0448,488.772)" d="M 107.32 458.816 L 121.076 458.816 L 121.076 472.57203 L 107.32 472.57203 Z " fill="#ed1c24"/>
<path transform="matrix(1,0,0,-1,-77.0448,488.772)" d="M 134.831 458.816 L 148.58699 458.816 L 148.58699 472.57203 L 134.831 472.57203 Z " fill="#ed1c24"/>
<path transform="matrix(1,0,0,-1,-77.0448,488.772)" d="M 162.343 458.816 L 176.099 458.816 L 176.099 472.57203 L 162.343 472.57203 Z " fill="#ed1c24"/>
<path transform="matrix(1,0,0,-1,-77.0448,488.772)" d="M 79.808 431.304 L 93.563999 431.304 L 93.563999 445.06 L 79.808 445.06 Z " fill="#ed1c24"/>
<path transform="matrix(1,0,0,-1,-77.0448,488.772)" d="M 107.32 431.304 L 121.076 431.304 L 121.076 445.06 L 107.32 445.06 Z " fill="#ed1c24"/>
<path transform="matrix(1,0,0,-1,-77.0448,488.772)" d="M 134.831 431.304 L 148.58699 431.304 L 148.58699 445.06 L 134.831 445.06 Z " fill="#ed1c24"/>
<path transform="matrix(1,0,0,-1,-77.0448,488.772)" d="M 162.343 431.304 L 176.099 431.304 L 176.099 445.06 L 162.343 445.06 Z " fill="#ed1c24"/>
<path transform="matrix(1,0,0,-1,-77.0448,488.772)" d="M 79.808 403.793 L 93.563999 403.793 L 93.563999 417.549 L 79.808 417.549 Z " fill="#ed1c24"/>
<path transform="matrix(1,0,0,-1,-77.0448,488.772)" d="M 107.32 403.793 L 121.076 403.793 L 121.076 417.549 L 107.32 417.549 Z " fill="#ed1c24"/>
<path transform="matrix(1,0,0,-1,-77.0448,488.772)" d="M 134.831 403.793 L 148.58699 403.793 L 148.58699 417.549 L 134.831 417.549 Z " fill="#ed1c24"/>
<path transform="matrix(1,0,0,-1,-77.0448,488.772)" d="M 162.343 403.793 L 176.099 403.793 L 176.099 417.549 L 162.343 417.549 Z " fill="#ed1c24"/>
<path transform="matrix(1,0,0,-1,-77.0448,488.772)" d="M 93.564 472.572 L 107.32 472.572 L 107.32 486.328 L 93.564 486.328 Z " fill="#21409a"/>
<path transform="matrix(1,0,0,-1,-77.0448,488.772)" d="M 121.076 472.572 L 134.832 472.572 L 134.832 486.328 L 121.076 486.328 Z " fill="#21409a"/>
<path transform="matrix(1,0,0,-1,-77.0448,488.772)" d="M 148.587 472.572 L 162.343 472.572 L 162.343 486.328 L 148.587 486.328 Z " fill="#21409a"/>
<path transform="matrix(1,0,0,-1,-77.0448,488.772)" d="M 93.564 445.06 L 107.32 445.06 L 107.32 458.816 L 93.564 458.816 Z " fill="#21409a"/>
<path transform="matrix(1,0,0,-1,-77.0448,488.772)" d="M 121.076 445.06 L 134.832 445.06 L 134.832 458.816 L 121.076 458.816 Z " fill="#21409a"/>
<path transform="matrix(1,0,0,-1,-77.0448,488.772)" d="M 148.587 445.06 L 162.343 445.06 L 162.343 458.816 L 148.587 458.816 Z " fill="#21409a"/>
<path transform="matrix(1,0,0,-1,-77.0448,488.772)" d="M 93.564 417.549 L 107.32 417.549 L 107.32 431.30503 L 93.564 431.30503 Z " fill="#21409a"/>
<path transform="matrix(1,0,0,-1,-77.0448,488.772)" d="M 121.076 417.549 L 134.832 417.549 L 134.832 431.30503 L 121.076 431.30503 Z " fill="#21409a"/>
<path transform="matrix(1,0,0,-1,-77.0448,488.772)" d="M 148.587 417.549 L 162.343 417.549 L 162.343 431.30503 L 148.587 431.30503 Z " fill="#21409a"/>
<path transform="matrix(1,0,0,-1,-77.0448,488.772)" d="M 79.808 472.572 L 93.563999 472.572 L 93.563999 486.328 L 79.808 486.328 Z " fill="#0ea14b"/>
<path transform="matrix(1,0,0,-1,-77.0448,488.772)" d="M 107.32 472.572 L 121.076 472.572 L 121.076 486.328 L 107.32 486.328 Z " fill="#0ea14b"/>
<path transform="matrix(1,0,0,-1,-77.0448,488.772)" d="M 134.831 472.572 L 148.58699 472.572 L 148.58699 486.328 L 134.831 486.328 Z " fill="#0ea14b"/>
<path transform="matrix(1,0,0,-1,-77.0448,488.772)" d="M 162.343 472.572 L 176.099 472.572 L 176.099 486.328 L 162.343 486.328 Z " fill="#0ea14b"/>
<path transform="matrix(1,0,0,-1,-77.0448,488.772)" d="M 93.564 458.816 L 107.32 458.816 L 107.32 472.57203 L 93.564 472.57203 Z " fill="#0ea14b"/>
<path transform="matrix(1,0,0,-1,-77.0448,488.772)" d="M 121.076 458.816 L 134.832 458.816 L 134.832 472.57203 L 121.076 472.57203 Z " fill="#0ea14b"/>
<path transform="matrix(1,0,0,-1,-77.0448,488.772)" d="M 148.587 458.816 L 162.343 458.816 L 162.343 472.57203 L 148.587 472.57203 Z " fill="#0ea14b"/>
<path transform="matrix(1,0,0,-1,-77.0448,488.772)" d="M 79.808 445.06 L 93.563999 445.06 L 93.563999 458.816 L 79.808 458.816 Z " fill="#0ea14b"/>
<path transform="matrix(1,0,0,-1,-77.0448,488.772)" d="M 107.32 445.06 L 121.076 445.06 L 121.076 458.816 L 107.32 458.816 Z " fill="#0ea14b"/>
<path transform="matrix(1,0,0,-1,-77.0448,488.772)" d="M 134.831 445.06 L 148.58699 445.06 L 148.58699 458.816 L 134.831 458.816 Z " fill="#0ea14b"/>
<path transform="matrix(1,0,0,-1,-77.0448,488.772)" d="M 162.343 445.06 L 176.099 445.06 L 176.099 458.816 L 162.343 458.816 Z " fill="#0ea14b"/>
<path transform="matrix(1,0,0,-1,-77.0448,488.772)" d="M 93.564 431.304 L 107.32 431.304 L 107.32 445.06 L 93.564 445.06 Z " fill="#0ea14b"/>
<path transform="matrix(1,0,0,-1,-77.0448,488.772)" d="M 121.076 431.304 L 134.832 431.304 L 134.832 445.06 L 121.076 445.06 Z " fill="#0ea14b"/>
<path transform="matrix(1,0,0,-1,-77.0448,488.772)" d="M 148.587 431.304 L 162.343 431.304 L 162.343 445.06 L 148.587 445.06 Z " fill="#0ea14b"/>
<path transform="matrix(1,0,0,-1,-77.0448,488.772)" d="M 79.808 417.549 L 93.563999 417.549 L 93.563999 431.30503 L 79.808 431.30503 Z " fill="#0ea14b"/>
<path transform="matrix(1,0,0,-1,-77.0448,488.772)" d="M 107.32 417.549 L 121.076 417.549 L 121.076 431.30503 L 107.32 431.30503 Z " fill="#0ea14b"/>
<path transform="matrix(1,0,0,-1,-77.0448,488.772)" d="M 134.831 417.549 L 148.58699 417.549 L 148.58699 431.30503 L 134.831 431.30503 Z " fill="#0ea14b"/>
<path transform="matrix(1,0,0,-1,-77.0448,488.772)" d="M 162.343 417.549 L 176.099 417.549 L 176.099 431.30503 L 162.343 431.30503 Z " fill="#0ea14b"/>
<path transform="matrix(1,0,0,-1,-77.0448,488.772)" d="M 93.564 403.793 L 107.32 403.793 L 107.32 417.549 L 93.564 417.549 Z " fill="#0ea14b"/>
<path transform="matrix(1,0,0,-1,-77.0448,488.772)" d="M 121.076 403.793 L 134.832 403.793 L 134.832 417.549 L 121.076 417.549 Z " fill="#0ea14b"/>
<path transform="matrix(1,0,0,-1,-77.0448,488.772)" d="M 148.587 403.793 L 162.343 403.793 L 162.343 417.549 L 148.587 417.549 Z " fill="#0ea14b"/>
<path transform="matrix(1,0,0,-1,85.2982,16.200013)" stroke-width=".3" stroke-linecap="butt" stroke-miterlimit="4" stroke-linejoin="miter" fill="none" stroke="#231f20" d="M 0 0 L -13.756 0 L -13.756 13.756 L 0 13.756 Z "/>
<path transform="matrix(1,0,0,-1,99.0542,16.200013)" stroke-width=".3" stroke-linecap="butt" stroke-miterlimit="4" stroke-linejoin="miter" fill="none" stroke="#231f20" d="M 0 0 L -13.756 0 L -13.756 13.756 L 0 13.756 Z "/>
<path transform="matrix(1,0,0,-1,85.2982,43.712007)" stroke-width=".3" stroke-linecap="butt" stroke-miterlimit="4" stroke-linejoin="miter" fill="none" stroke="#231f20" d="M 0 0 L -13.756 0 L -13.756 13.756 L 0 13.756 Z "/>
<path transform="matrix(1,0,0,-1,99.0542,43.712007)" stroke-width=".3" stroke-linecap="butt" stroke-miterlimit="4" stroke-linejoin="miter" fill="none" stroke="#231f20" d="M 0 0 L -13.756 0 L -13.756 13.756 L 0 13.756 Z "/>
<path transform="matrix(1,0,0,-1,85.2982,29.956025)" stroke-width=".3" stroke-linecap="butt" stroke-miterlimit="4" stroke-linejoin="miter" fill="none" stroke="#231f20" d="M 0 0 L -13.756 0 L -13.756 13.756 L 0 13.756 Z "/>
<path transform="matrix(1,0,0,-1,99.0542,29.956025)" stroke-width=".3" stroke-linecap="butt" stroke-miterlimit="4" stroke-linejoin="miter" fill="none" stroke="#231f20" d="M 0 0 L -13.756 0 L -13.756 13.756 L 0 13.756 Z "/>
<path transform="matrix(1,0,0,-1,85.2982,71.22299)" stroke-width=".3" stroke-linecap="butt" stroke-miterlimit="4" stroke-linejoin="miter" fill="none" stroke="#231f20" d="M 0 0 L -13.756 0 L -13.756 13.756 L 0 13.756 Z "/>
<path transform="matrix(1,0,0,-1,99.0542,71.22299)" stroke-width=".3" stroke-linecap="butt" stroke-miterlimit="4" stroke-linejoin="miter" fill="none" stroke="#231f20" d="M 0 0 L -13.756 0 L -13.756 13.756 L 0 13.756 Z "/>
<path transform="matrix(1,0,0,-1,85.2982,57.46701)" stroke-width=".3" stroke-linecap="butt" stroke-miterlimit="4" stroke-linejoin="miter" fill="none" stroke="#231f20" d="M 0 0 L -13.756 0 L -13.756 13.756 L 0 13.756 Z "/>
<path transform="matrix(1,0,0,-1,99.0542,57.46701)" stroke-width=".3" stroke-linecap="butt" stroke-miterlimit="4" stroke-linejoin="miter" fill="none" stroke="#231f20" d="M 0 0 L -13.756 0 L -13.756 13.756 L 0 13.756 Z "/>
<path transform="matrix(1,0,0,-1,57.7872,16.200013)" stroke-width=".3" stroke-linecap="butt" stroke-miterlimit="4" stroke-linejoin="miter" fill="none" stroke="#231f20" d="M 0 0 L -13.756 0 L -13.756 13.756 L 0 13.756 Z "/>
<path transform="matrix(1,0,0,-1,71.5432,16.200013)" stroke-width=".3" stroke-linecap="butt" stroke-miterlimit="4" stroke-linejoin="miter" fill="none" stroke="#231f20" d="M 0 0 L -13.756 0 L -13.756 13.756 L 0 13.756 Z "/>
<path transform="matrix(1,0,0,-1,57.7872,43.712007)" stroke-width=".3" stroke-linecap="butt" stroke-miterlimit="4" stroke-linejoin="miter" fill="none" stroke="#231f20" d="M 0 0 L -13.756 0 L -13.756 13.756 L 0 13.756 Z "/>
<path transform="matrix(1,0,0,-1,71.5432,43.712007)" stroke-width=".3" stroke-linecap="butt" stroke-miterlimit="4" stroke-linejoin="miter" fill="none" stroke="#231f20" d="M 0 0 L -13.756 0 L -13.756 13.756 L 0 13.756 Z "/>
<path transform="matrix(1,0,0,-1,57.7872,29.956025)" stroke-width=".3" stroke-linecap="butt" stroke-miterlimit="4" stroke-linejoin="miter" fill="none" stroke="#231f20" d="M 0 0 L -13.756 0 L -13.756 13.756 L 0 13.756 Z "/>
<path transform="matrix(1,0,0,-1,71.5432,29.956025)" stroke-width=".3" stroke-linecap="butt" stroke-miterlimit="4" stroke-linejoin="miter" fill="none" stroke="#231f20" d="M 0 0 L -13.756 0 L -13.756 13.756 L 0 13.756 Z "/>
<path transform="matrix(1,0,0,-1,57.7872,71.22299)" stroke-width=".3" stroke-linecap="butt" stroke-miterlimit="4" stroke-linejoin="miter" fill="none" stroke="#231f20" d="M 0 0 L -13.756 0 L -13.756 13.756 L 0 13.756 Z "/>
<path transform="matrix(1,0,0,-1,71.5432,71.22299)" stroke-width=".3" stroke-linecap="butt" stroke-miterlimit="4" stroke-linejoin="miter" fill="none" stroke="#231f20" d="M 0 0 L -13.756 0 L -13.756 13.756 L 0 13.756 Z "/>
<path transform="matrix(1,0,0,-1,57.7872,57.46701)" stroke-width=".3" stroke-linecap="butt" stroke-miterlimit="4" stroke-linejoin="miter" fill="none" stroke="#231f20" d="M 0 0 L -13.756 0 L -13.756 13.756 L 0 13.756 Z "/>
<path transform="matrix(1,0,0,-1,71.5432,57.46701)" stroke-width=".3" stroke-linecap="butt" stroke-miterlimit="4" stroke-linejoin="miter" fill="none" stroke="#231f20" d="M 0 0 L -13.756 0 L -13.756 13.756 L 0 13.756 Z "/>
<path transform="matrix(1,0,0,-1,30.2762,16.200013)" stroke-width=".3" stroke-linecap="butt" stroke-miterlimit="4" stroke-linejoin="miter" fill="none" stroke="#231f20" d="M 0 0 L -13.756 0 L -13.756 13.756 L 0 13.756 Z "/>
<path transform="matrix(1,0,0,-1,44.032197,16.200013)" stroke-width=".3" stroke-linecap="butt" stroke-miterlimit="4" stroke-linejoin="miter" fill="none" stroke="#231f20" d="M 0 0 L -13.756 0 L -13.756 13.756 L 0 13.756 Z "/>
<path transform="matrix(1,0,0,-1,30.2762,43.712007)" stroke-width=".3" stroke-linecap="butt" stroke-miterlimit="4" stroke-linejoin="miter" fill="none" stroke="#231f20" d="M 0 0 L -13.756 0 L -13.756 13.756 L 0 13.756 Z "/>
<path transform="matrix(1,0,0,-1,44.032197,43.712007)" stroke-width=".3" stroke-linecap="butt" stroke-miterlimit="4" stroke-linejoin="miter" fill="none" stroke="#231f20" d="M 0 0 L -13.756 0 L -13.756 13.756 L 0 13.756 Z "/>
<path transform="matrix(1,0,0,-1,30.2762,29.956025)" stroke-width=".3" stroke-linecap="butt" stroke-miterlimit="4" stroke-linejoin="miter" fill="none" stroke="#231f20" d="M 0 0 L -13.756 0 L -13.756 13.756 L 0 13.756 Z "/>
<path transform="matrix(1,0,0,-1,44.032197,29.956025)" stroke-width=".3" stroke-linecap="butt" stroke-miterlimit="4" stroke-linejoin="miter" fill="none" stroke="#231f20" d="M 0 0 L -13.756 0 L -13.756 13.756 L 0 13.756 Z "/>
<path transform="matrix(1,0,0,-1,30.2762,71.22299)" stroke-width=".3" stroke-linecap="butt" stroke-miterlimit="4" stroke-linejoin="miter" fill="none" stroke="#231f20" d="M 0 0 L -13.756 0 L -13.756 13.756 L 0 13.756 Z "/>
<path transform="matrix(1,0,0,-1,44.032197,71.22299)" stroke-width=".3" stroke-linecap="butt" stroke-miterlimit="4" stroke-linejoin="miter" fill="none" stroke="#231f20" d="M 0 0 L -13.756 0 L -13.756 13.756 L 0 13.756 Z "/>
<path transform="matrix(1,0,0,-1,30.2762,57.46701)" stroke-width=".3" stroke-linecap="butt" stroke-miterlimit="4" stroke-linejoin="miter" fill="none" stroke="#231f20" d="M 0 0 L -13.756 0 L -13.756 13.756 L 0 13.756 Z "/>
<path transform="matrix(1,0,0,-1,44.032197,57.46701)" stroke-width=".3" stroke-linecap="butt" stroke-miterlimit="4" stroke-linejoin="miter" fill="none" stroke="#231f20" d="M 0 0 L -13.756 0 L -13.756 13.756 L 0 13.756 Z "/>
<clipPath id="cp0">
<path transform="matrix(1,0,0,-1,-77.0448,488.772)" d="M 176.226 486.455 L 79.681 486.455 L 79.681 402.94499 L 176.226 402.94499 Z "/>
</clipPath>
<g clip-path="url(#cp0)">
<path transform="matrix(1,0,0,-1,16.519196,16.200013)" stroke-width=".3" stroke-linecap="butt" stroke-miterlimit="4" stroke-linejoin="miter" fill="none" stroke="#231f20" d="M 0 0 L -13.756 0 L -13.756 13.756 L 0 13.756 Z "/>
</g>
<clipPath id="cp1">
<path transform="matrix(1,0,0,-1,-77.0448,488.772)" d="M 176.226 486.455 L 79.681 486.455 L 79.681 402.94499 L 176.226 402.94499 Z "/>
</clipPath>
<g clip-path="url(#cp1)">
<path transform="matrix(1,0,0,-1,16.519196,43.712007)" stroke-width=".3" stroke-linecap="butt" stroke-miterlimit="4" stroke-linejoin="miter" fill="none" stroke="#231f20" d="M 0 0 L -13.756 0 L -13.756 13.756 L 0 13.756 Z "/>
</g>
<clipPath id="cp2">
<path transform="matrix(1,0,0,-1,-77.0448,488.772)" d="M 176.226 486.455 L 79.681 486.455 L 79.681 402.94499 L 176.226 402.94499 Z "/>
</clipPath>
<g clip-path="url(#cp2)">
<path transform="matrix(1,0,0,-1,16.519196,29.956025)" stroke-width=".3" stroke-linecap="butt" stroke-miterlimit="4" stroke-linejoin="miter" fill="none" stroke="#231f20" d="M 0 0 L -13.756 0 L -13.756 13.756 L 0 13.756 Z "/>
</g>
<clipPath id="cp3">
<path transform="matrix(1,0,0,-1,-77.0448,488.772)" d="M 176.226 486.455 L 79.681 486.455 L 79.681 402.94499 L 176.226 402.94499 Z "/>
</clipPath>
<g clip-path="url(#cp3)">
<path transform="matrix(1,0,0,-1,16.519196,71.22299)" stroke-width=".3" stroke-linecap="butt" stroke-miterlimit="4" stroke-linejoin="miter" fill="none" stroke="#231f20" d="M 0 0 L -13.756 0 L -13.756 13.756 L 0 13.756 Z "/>
</g>
<clipPath id="cp4">
<path transform="matrix(1,0,0,-1,-77.0448,488.772)" d="M 176.226 486.455 L 79.681 486.455 L 79.681 402.94499 L 176.226 402.94499 Z "/>
</clipPath>
<g clip-path="url(#cp4)">
<path transform="matrix(1,0,0,-1,16.519196,57.46701)" stroke-width=".3" stroke-linecap="butt" stroke-miterlimit="4" stroke-linejoin="miter" fill="none" stroke="#231f20" d="M 0 0 L -13.756 0 L -13.756 13.756 L 0 13.756 Z "/>
</g>
<path transform="matrix(1,0,0,-1,85.2982,84.979007)" stroke-width=".3" stroke-linecap="butt" stroke-miterlimit="4" stroke-linejoin="miter" fill="none" stroke="#231f20" d="M 0 0 L -13.756 0 L -13.756 13.756 L 0 13.756 Z "/>
<path transform="matrix(1,0,0,-1,99.0542,84.979007)" stroke-width=".3" stroke-linecap="butt" stroke-miterlimit="4" stroke-linejoin="miter" fill="none" stroke="#231f20" d="M 0 0 L -13.756 0 L -13.756 13.756 L 0 13.756 Z "/>
<path transform="matrix(1,0,0,-1,57.7872,84.979007)" stroke-width=".3" stroke-linecap="butt" stroke-miterlimit="4" stroke-linejoin="miter" fill="none" stroke="#231f20" d="M 0 0 L -13.756 0 L -13.756 13.756 L 0 13.756 Z "/>
<path transform="matrix(1,0,0,-1,71.5432,84.979007)" stroke-width=".3" stroke-linecap="butt" stroke-miterlimit="4" stroke-linejoin="miter" fill="none" stroke="#231f20" d="M 0 0 L -13.756 0 L -13.756 13.756 L 0 13.756 Z "/>
<path transform="matrix(1,0,0,-1,30.2762,84.979007)" stroke-width=".3" stroke-linecap="butt" stroke-miterlimit="4" stroke-linejoin="miter" fill="none" stroke="#231f20" d="M 0 0 L -13.756 0 L -13.756 13.756 L 0 13.756 Z "/>
<path transform="matrix(1,0,0,-1,44.032197,84.979007)" stroke-width=".3" stroke-linecap="butt" stroke-miterlimit="4" stroke-linejoin="miter" fill="none" stroke="#231f20" d="M 0 0 L -13.756 0 L -13.756 13.756 L 0 13.756 Z "/>
<clipPath id="cp5">
<path transform="matrix(1,0,0,-1,-77.0448,488.772)" d="M 176.226 486.455 L 79.681 486.455 L 79.681 402.94499 L 176.226 402.94499 Z "/>
</clipPath>
<g clip-path="url(#cp5)">
<path transform="matrix(1,0,0,-1,-77.0448,488.772)" stroke-width=".3" stroke-linecap="butt" stroke-miterlimit="4" stroke-linejoin="miter" fill="none" stroke="#231f20" d="M 93.564 403.793 L 79.80801 403.793 L 79.80801 417.549 L 93.564 417.549 Z "/>
</g>
<text fill="#231f20" xml:space="preserve" transform="matrix(1 0 -0 1 -77.0448 488.772)" font-size="8.1516" font-family="WarnockPro"><tspan y="-476.5784" x="83.2806 83.2806 83.2806 83.2806 83.2806 83.2806 97.69182">GGGGGGB</tspan><tspan y="-449.06675" x="83.2806 83.2806 83.2806 97.69182 83.2806 83.2806 83.2806">GGGBGGG</tspan><tspan y="-421.55509" x="97.69263 83.2806 83.2806 83.2806 83.2806 83.2806 83.2806">BGGGGGG</tspan><tspan y="-462.81849" x="83.786 83.786 83.786 83.786 83.786 83.786 97.12528">RRRRRRG</tspan><tspan y="-435.05415" x="83.786 83.786 83.786 83.786 83.786 83.786 97.12528">RRRRRRG</tspan><tspan y="-407.2898" x="83.786 83.786 83.786 83.786 83.786 83.786 97.12528">RRRRRRG</tspan><tspan y="-476.5784" x="110.66183">G</tspan><tspan y="-449.06675" x="110.66183">G</tspan><tspan y="-421.55509" x="110.66183">G</tspan><tspan y="-462.81849" x="111.16723">R</tspan><tspan y="-435.05415" x="111.16723">R</tspan><tspan y="-407.2898" x="111.16723">R</tspan><tspan y="-476.5784" x="137.9697">G</tspan><tspan y="-449.06675" x="137.9697">G</tspan><tspan y="-421.55509" x="137.9697">G</tspan><tspan y="-462.81849" x="138.4751">R</tspan><tspan y="-435.05415" x="138.4751">R</tspan><tspan y="-407.2898" x="138.4751">R</tspan><tspan y="-476.5784" x="165.57102">G</tspan><tspan y="-449.06675" x="165.57102">G</tspan><tspan y="-421.55509" x="165.57102">G</tspan><tspan y="-462.81849" x="166.07642">R</tspan><tspan y="-435.05415" x="166.07642">R</tspan><tspan y="-407.2898" x="166.07642">R</tspan><tspan y="-476.5784" x="125.2206">B</tspan><tspan y="-449.06675" x="125.2206">B</tspan><tspan y="-421.55509" x="125.2206">B</tspan><tspan y="-462.81849" x="124.64999">G</tspan><tspan y="-435.05415" x="124.64999">G</tspan><tspan y="-407.2898" x="124.64999">G</tspan><tspan y="-476.5784" x="152.7078">B</tspan><tspan y="-449.06675" x="152.7078">B</tspan><tspan y="-421.55509" x="152.7078">B</tspan><tspan y="-462.81849" x="152.13718">G</tspan><tspan y="-435.05415" x="152.13718">G</tspan><tspan y="-407.2898" x="152.13718">G</tspan></text>
</g>
</svg>
