<svg version="1.1" xmlns="http://www.w3.org/2000/svg" viewBox="0 0 600.0942599232831 384.5149405534819" width="600.0942599232831" height="384.5149405534819">
  <!-- svg-source:excalidraw -->
  
  <defs>
    <style>
      @font-face {
        font-family: "Virgil";
        src: url("https://excalidraw.com/Virgil.woff2");
      }
      @font-face {
        font-family: "Cascadia";
        src: url("https://excalidraw.com/Cascadia.woff2");
      }
    </style>
  </defs>
  <rect x="0" y="0" width="600.0942599232831" height="384.5149405534819" fill="#ffffff"></rect><g stroke-linecap="round" transform="translate(10 42.76546755925938) rotate(0 50.39014818018268 65.6022683855208)"><path d="M-1.16 -1.7 C21.23 -1.31, 41.42 0.95, 100.65 -0.58 M0.92 -0.97 C28.68 0.74, 56.83 -1.2, 101.23 0.51 M102.05 0.31 C103.08 47.3, 100.17 98.36, 102.01 130.76 M100.92 0.61 C101.53 50.68, 100.71 101.3, 100.71 131.49 M100 129.29 C64.39 130.13, 24.78 129.55, -0.49 129.23 M100.73 130.67 C65.4 130.55, 32.59 131.21, 0.81 130.95 M-1.41 131.31 C0.8 79.17, 0.51 26.02, 0.75 0.03 M-0.49 130.61 C0.6 90.15, 0.31 48.97, -0.42 -0.8" stroke="#000000" stroke-width="2" fill="none"></path></g><g transform="translate(11.787515574157396 52.24376847298754) rotate(0 48.27649462530701 24.757176730926687)"><text x="0" y="2.5013048601684877" font-family="Virgil, Segoe UI Emoji" font-size="3.6010438881347895px" fill="#000000" text-anchor="start" style="white-space: pre;" direction="ltr">#include "std_lib_facilities.h"</text><text x="0" y="7.0026097203369755" font-family="Virgil, Segoe UI Emoji" font-size="3.6010438881347895px" fill="#000000" text-anchor="start" style="white-space: pre;" direction="ltr">// C++ programs start by executing the function main</text><text x="0" y="11.503914580505462" font-family="Virgil, Segoe UI Emoji" font-size="3.6010438881347895px" fill="#000000" text-anchor="start" style="white-space: pre;" direction="ltr">int main()</text><text x="0" y="16.00521944067395" font-family="Virgil, Segoe UI Emoji" font-size="3.6010438881347895px" fill="#000000" text-anchor="start" style="white-space: pre;" direction="ltr">{</text><text x="0" y="20.50652430084244" font-family="Virgil, Segoe UI Emoji" font-size="3.6010438881347895px" fill="#000000" text-anchor="start" style="white-space: pre;" direction="ltr">    // output “Hello, World!”</text><text x="0" y="25.007829161010925" font-family="Virgil, Segoe UI Emoji" font-size="3.6010438881347895px" fill="#000000" text-anchor="start" style="white-space: pre;" direction="ltr">    cout &lt;&lt; "Hello, World!\n";</text><text x="0" y="29.509134021179413" font-family="Virgil, Segoe UI Emoji" font-size="3.6010438881347895px" fill="#000000" text-anchor="start" style="white-space: pre;" direction="ltr"></text><text x="0" y="34.0104388813479" font-family="Virgil, Segoe UI Emoji" font-size="3.6010438881347895px" fill="#000000" text-anchor="start" style="white-space: pre;" direction="ltr">    // wait for a character to be entered</text><text x="0" y="38.51174374151639" font-family="Virgil, Segoe UI Emoji" font-size="3.6010438881347895px" fill="#000000" text-anchor="start" style="white-space: pre;" direction="ltr">    keep_window_open(); </text><text x="0" y="43.01304860168488" font-family="Virgil, Segoe UI Emoji" font-size="3.6010438881347895px" fill="#000000" text-anchor="start" style="white-space: pre;" direction="ltr">    return 0;</text><text x="0" y="47.51435346185337" font-family="Virgil, Segoe UI Emoji" font-size="3.6010438881347895px" fill="#000000" text-anchor="start" style="white-space: pre;" direction="ltr">}</text></g><g stroke-linecap="round" transform="translate(246.8755406114385 42.76546755925938) rotate(0 50.39014818018268 65.6022683855208)"><path d="M-1.95 -0.04 C19.05 0.05, 43.68 1.17, 101.39 -1.76 M-0.17 0.76 C20.92 0.13, 40.83 0.63, 101.42 0.83 M99.57 1.54 C99.04 28.24, 101.3 57.23, 100.97 131.54 M101.11 -0.88 C101.94 47.5, 101.96 97.09, 100.23 132.07 M101.11 129.24 C71.49 130, 42.3 130.41, -0.51 129.59 M100.35 130.47 C67.06 131.51, 34.06 130.91, 0.63 130.75 M1.06 129.89 C0.22 85.21, 1.25 37.69, -1.78 0.14 M0.93 130.64 C1.65 93.36, 1.56 52.91, 0.8 0.2" stroke="#000000" stroke-width="2" fill="none"></path></g><g transform="translate(249.75297431724334 51.84929382013968) rotate(0 45.62756817940897 55.22645139870832)"><text x="0" y="4.2596620379722205" font-family="Virgil, Segoe UI Emoji" font-size="4.207729630377776px" fill="#000000" text-anchor="start" style="white-space: pre;" direction="ltr">1011001001011001100010000011001111110000</text><text x="0" y="9.519324075944441" font-family="Virgil, Segoe UI Emoji" font-size="4.207729630377776px" fill="#000000" text-anchor="start" style="white-space: pre;" direction="ltr">0110100000111100011100011000001101111011</text><text x="0" y="14.778986113916663" font-family="Virgil, Segoe UI Emoji" font-size="4.207729630377776px" fill="#000000" text-anchor="start" style="white-space: pre;" direction="ltr">1101001110010101001101001010001111100101</text><text x="0" y="20.038648151888882" font-family="Virgil, Segoe UI Emoji" font-size="4.207729630377776px" fill="#000000" text-anchor="start" style="white-space: pre;" direction="ltr">1111010100001001111001111110010100011010</text><text x="0" y="25.298310189861102" font-family="Virgil, Segoe UI Emoji" font-size="4.207729630377776px" fill="#000000" text-anchor="start" style="white-space: pre;" direction="ltr">1010111000000101110110011011011001101110</text><text x="0" y="30.557972227833325" font-family="Virgil, Segoe UI Emoji" font-size="4.207729630377776px" fill="#000000" text-anchor="start" style="white-space: pre;" direction="ltr">1100100011001010101100111010111001001110</text><text x="0" y="35.817634265805545" font-family="Virgil, Segoe UI Emoji" font-size="4.207729630377776px" fill="#000000" text-anchor="start" style="white-space: pre;" direction="ltr">0010011110100010011110111110011011010101</text><text x="0" y="41.077296303777764" font-family="Virgil, Segoe UI Emoji" font-size="4.207729630377776px" fill="#000000" text-anchor="start" style="white-space: pre;" direction="ltr">1101111100011111000000111101101101100010</text><text x="0" y="46.336958341749984" font-family="Virgil, Segoe UI Emoji" font-size="4.207729630377776px" fill="#000000" text-anchor="start" style="white-space: pre;" direction="ltr">1001010100110011001000101001101001110010</text><text x="0" y="51.596620379722204" font-family="Virgil, Segoe UI Emoji" font-size="4.207729630377776px" fill="#000000" text-anchor="start" style="white-space: pre;" direction="ltr">0011010111100001001011000001000110010001</text><text x="0" y="56.85628241769442" font-family="Virgil, Segoe UI Emoji" font-size="4.207729630377776px" fill="#000000" text-anchor="start" style="white-space: pre;" direction="ltr">0111001011111000001000110011101101011001</text><text x="0" y="62.11594445566665" font-family="Virgil, Segoe UI Emoji" font-size="4.207729630377776px" fill="#000000" text-anchor="start" style="white-space: pre;" direction="ltr">1000001110011111101100111010011011110111</text><text x="0" y="67.37560649363887" font-family="Virgil, Segoe UI Emoji" font-size="4.207729630377776px" fill="#000000" text-anchor="start" style="white-space: pre;" direction="ltr">0111110011111100100100110111000001010000</text><text x="0" y="72.63526853161109" font-family="Virgil, Segoe UI Emoji" font-size="4.207729630377776px" fill="#000000" text-anchor="start" style="white-space: pre;" direction="ltr">1001000000001001101100011000001000010111</text><text x="0" y="77.89493056958331" font-family="Virgil, Segoe UI Emoji" font-size="4.207729630377776px" fill="#000000" text-anchor="start" style="white-space: pre;" direction="ltr">0110000011110101001111000000001100011011</text><text x="0" y="83.15459260755553" font-family="Virgil, Segoe UI Emoji" font-size="4.207729630377776px" fill="#000000" text-anchor="start" style="white-space: pre;" direction="ltr">1001111100111010111010011111100001010010</text><text x="0" y="88.41425464552775" font-family="Virgil, Segoe UI Emoji" font-size="4.207729630377776px" fill="#000000" text-anchor="start" style="white-space: pre;" direction="ltr">1011111011010001110011000001011111011101</text><text x="0" y="93.67391668349997" font-family="Virgil, Segoe UI Emoji" font-size="4.207729630377776px" fill="#000000" text-anchor="start" style="white-space: pre;" direction="ltr">1110111110001001000000000101001000110011</text><text x="0" y="98.93357872147219" font-family="Virgil, Segoe UI Emoji" font-size="4.207729630377776px" fill="#000000" text-anchor="start" style="white-space: pre;" direction="ltr">0100111111001011110101011011001001011110</text><text x="0" y="104.19324075944441" font-family="Virgil, Segoe UI Emoji" font-size="4.207729630377776px" fill="#000000" text-anchor="start" style="white-space: pre;" direction="ltr">1111110000111100011000100111110100101110</text><text x="0" y="109.45290279741663" font-family="Virgil, Segoe UI Emoji" font-size="4.207729630377776px" fill="#000000" text-anchor="start" style="white-space: pre;" direction="ltr"></text></g><g stroke-linecap="round" transform="translate(245.42231643590821 243.3104037824403) rotate(0 50.39014818018268 65.6022683855208)"><path d="M1.57 0.9 C31.49 2.33, 62.21 0.44, 101.43 -0.17 M-0.19 -0.99 C37.01 0.33, 75.69 1.47, 100.43 0.09 M101.76 0.59 C100.09 34.44, 100.64 73.58, 99.08 129.44 M100.3 0.47 C101.43 33.53, 100.19 65.29, 101.54 131.29 M99.58 130.6 C72.42 130.98, 47.81 133.1, -1.1 132.03 M101.41 130.38 C66.86 131.97, 34.54 132.38, 0.78 130.89 M-1.07 132.7 C2.38 98.97, -0.69 66.25, -1.77 -0.48 M0.2 131.98 C-1.21 89.98, -1.61 48.01, 0.19 -1" stroke="#000000" stroke-width="2" fill="none"></path></g><g transform="translate(248.66305618559568 251.66761795555544) rotate(0 43.918178017068044 55.226451398708264)"><text x="0" y="4.2596620379722205" font-family="Virgil, Segoe UI Emoji" font-size="4.207729630377776px" fill="#000000" text-anchor="start" style="white-space: pre;" direction="ltr">0010000000111010000101110100100101111010</text><text x="0" y="9.519324075944441" font-family="Virgil, Segoe UI Emoji" font-size="4.207729630377776px" fill="#000000" text-anchor="start" style="white-space: pre;" direction="ltr">0000110001110000010101111000000110111000</text><text x="0" y="14.778986113916663" font-family="Virgil, Segoe UI Emoji" font-size="4.207729630377776px" fill="#000000" text-anchor="start" style="white-space: pre;" direction="ltr">1000101000101000101110000110110001011010</text><text x="0" y="20.038648151888882" font-family="Virgil, Segoe UI Emoji" font-size="4.207729630377776px" fill="#000000" text-anchor="start" style="white-space: pre;" direction="ltr">0010110101011010011110001101111000000111</text><text x="0" y="25.298310189861102" font-family="Virgil, Segoe UI Emoji" font-size="4.207729630377776px" fill="#000000" text-anchor="start" style="white-space: pre;" direction="ltr">0001111100110011110011111111010110111001</text><text x="0" y="30.557972227833325" font-family="Virgil, Segoe UI Emoji" font-size="4.207729630377776px" fill="#000000" text-anchor="start" style="white-space: pre;" direction="ltr">1100000000110010101101010111101000110010</text><text x="0" y="35.817634265805545" font-family="Virgil, Segoe UI Emoji" font-size="4.207729630377776px" fill="#000000" text-anchor="start" style="white-space: pre;" direction="ltr">0000010010010001111010110000001111101001</text><text x="0" y="41.077296303777764" font-family="Virgil, Segoe UI Emoji" font-size="4.207729630377776px" fill="#000000" text-anchor="start" style="white-space: pre;" direction="ltr">0101000011011011010010000111111001110111</text><text x="0" y="46.336958341749984" font-family="Virgil, Segoe UI Emoji" font-size="4.207729630377776px" fill="#000000" text-anchor="start" style="white-space: pre;" direction="ltr">0010011110111100111001001100101001010111</text><text x="0" y="51.596620379722204" font-family="Virgil, Segoe UI Emoji" font-size="4.207729630377776px" fill="#000000" text-anchor="start" style="white-space: pre;" direction="ltr">0000101001101110000111111010010011010010</text><text x="0" y="56.85628241769442" font-family="Virgil, Segoe UI Emoji" font-size="4.207729630377776px" fill="#000000" text-anchor="start" style="white-space: pre;" direction="ltr">1010011011001001001101010011111010010011</text><text x="0" y="62.11594445566665" font-family="Virgil, Segoe UI Emoji" font-size="4.207729630377776px" fill="#000000" text-anchor="start" style="white-space: pre;" direction="ltr">1100000110110110101011010111110001000101</text><text x="0" y="67.37560649363887" font-family="Virgil, Segoe UI Emoji" font-size="4.207729630377776px" fill="#000000" text-anchor="start" style="white-space: pre;" direction="ltr">1101100010011011101000101001001000001111</text><text x="0" y="72.63526853161109" font-family="Virgil, Segoe UI Emoji" font-size="4.207729630377776px" fill="#000000" text-anchor="start" style="white-space: pre;" direction="ltr">1111010111111110101010001011111011101100</text><text x="0" y="77.89493056958331" font-family="Virgil, Segoe UI Emoji" font-size="4.207729630377776px" fill="#000000" text-anchor="start" style="white-space: pre;" direction="ltr">0101011110011000010011001010001000110000</text><text x="0" y="83.15459260755553" font-family="Virgil, Segoe UI Emoji" font-size="4.207729630377776px" fill="#000000" text-anchor="start" style="white-space: pre;" direction="ltr">0101111101011011110010111011101011111110</text><text x="0" y="88.41425464552775" font-family="Virgil, Segoe UI Emoji" font-size="4.207729630377776px" fill="#000000" text-anchor="start" style="white-space: pre;" direction="ltr">1111101011110010100001001110000100001100</text><text x="0" y="93.67391668349997" font-family="Virgil, Segoe UI Emoji" font-size="4.207729630377776px" fill="#000000" text-anchor="start" style="white-space: pre;" direction="ltr">0111010001011111011100100110001110001010</text><text x="0" y="98.93357872147219" font-family="Virgil, Segoe UI Emoji" font-size="4.207729630377776px" fill="#000000" text-anchor="start" style="white-space: pre;" direction="ltr">1001011001010111001001010010110011101111</text><text x="0" y="104.19324075944441" font-family="Virgil, Segoe UI Emoji" font-size="4.207729630377776px" fill="#000000" text-anchor="start" style="white-space: pre;" direction="ltr">1010100000010010110001010111111110000011</text><text x="0" y="109.45290279741663" font-family="Virgil, Segoe UI Emoji" font-size="4.207729630377776px" fill="#000000" text-anchor="start" style="white-space: pre;" direction="ltr"></text></g><g transform="translate(494.01570986602746 47.12631524966628) rotate(0 46.54800903605417 55.22645139870832)"><text x="0" y="4.2596620379722205" font-family="Virgil, Segoe UI Emoji" font-size="4.207729630377776px" fill="#000000" text-anchor="start" style="white-space: pre;" direction="ltr">1001100011000000010101010000001000011100</text><text x="0" y="9.519324075944441" font-family="Virgil, Segoe UI Emoji" font-size="4.207729630377776px" fill="#000000" text-anchor="start" style="white-space: pre;" direction="ltr">0100010101111010011001110000101010010100</text><text x="0" y="14.778986113916663" font-family="Virgil, Segoe UI Emoji" font-size="4.207729630377776px" fill="#000000" text-anchor="start" style="white-space: pre;" direction="ltr">1101110010100011101010000110111111010110</text><text x="0" y="20.038648151888882" font-family="Virgil, Segoe UI Emoji" font-size="4.207729630377776px" fill="#000000" text-anchor="start" style="white-space: pre;" direction="ltr">1010101001001000010100011000010010011101</text><text x="0" y="25.298310189861102" font-family="Virgil, Segoe UI Emoji" font-size="4.207729630377776px" fill="#000000" text-anchor="start" style="white-space: pre;" direction="ltr">1110000000010100001101011011010100111000</text><text x="0" y="30.557972227833325" font-family="Virgil, Segoe UI Emoji" font-size="4.207729630377776px" fill="#000000" text-anchor="start" style="white-space: pre;" direction="ltr">1110001101111000101100110001110100101111</text><text x="0" y="35.817634265805545" font-family="Virgil, Segoe UI Emoji" font-size="4.207729630377776px" fill="#000000" text-anchor="start" style="white-space: pre;" direction="ltr">0101010111101010101001001000111001010010</text><text x="0" y="41.077296303777764" font-family="Virgil, Segoe UI Emoji" font-size="4.207729630377776px" fill="#000000" text-anchor="start" style="white-space: pre;" direction="ltr">0011111101010010100001001010001110111101</text><text x="0" y="46.336958341749984" font-family="Virgil, Segoe UI Emoji" font-size="4.207729630377776px" fill="#000000" text-anchor="start" style="white-space: pre;" direction="ltr">1000110101110010001111011010000111100001</text><text x="0" y="51.596620379722204" font-family="Virgil, Segoe UI Emoji" font-size="4.207729630377776px" fill="#000000" text-anchor="start" style="white-space: pre;" direction="ltr">1101000111011101100011001100100001101000</text><text x="0" y="56.85628241769442" font-family="Virgil, Segoe UI Emoji" font-size="4.207729630377776px" fill="#000000" text-anchor="start" style="white-space: pre;" direction="ltr">1111111111001000101000101000001100100110</text><text x="0" y="62.11594445566665" font-family="Virgil, Segoe UI Emoji" font-size="4.207729630377776px" fill="#000000" text-anchor="start" style="white-space: pre;" direction="ltr">1101011011001100001000010101011000111111</text><text x="0" y="67.37560649363887" font-family="Virgil, Segoe UI Emoji" font-size="4.207729630377776px" fill="#000000" text-anchor="start" style="white-space: pre;" direction="ltr">0001000100110001110111101011011100001111</text><text x="0" y="72.63526853161109" font-family="Virgil, Segoe UI Emoji" font-size="4.207729630377776px" fill="#000000" text-anchor="start" style="white-space: pre;" direction="ltr">1110010110011100000110100101111101101010</text><text x="0" y="77.89493056958331" font-family="Virgil, Segoe UI Emoji" font-size="4.207729630377776px" fill="#000000" text-anchor="start" style="white-space: pre;" direction="ltr">0011000000001001011001011011110100011010</text><text x="0" y="83.15459260755553" font-family="Virgil, Segoe UI Emoji" font-size="4.207729630377776px" fill="#000000" text-anchor="start" style="white-space: pre;" direction="ltr">0001010101011100000011110110010110010111</text><text x="0" y="88.41425464552775" font-family="Virgil, Segoe UI Emoji" font-size="4.207729630377776px" fill="#000000" text-anchor="start" style="white-space: pre;" direction="ltr">1110000111101010110101101111011011101100</text><text x="0" y="93.67391668349997" font-family="Virgil, Segoe UI Emoji" font-size="4.207729630377776px" fill="#000000" text-anchor="start" style="white-space: pre;" direction="ltr">1111100110010101111010011110010010001110</text><text x="0" y="98.93357872147219" font-family="Virgil, Segoe UI Emoji" font-size="4.207729630377776px" fill="#000000" text-anchor="start" style="white-space: pre;" direction="ltr">0111100110011000001101100100110100110010</text><text x="0" y="104.19324075944441" font-family="Virgil, Segoe UI Emoji" font-size="4.207729630377776px" fill="#000000" text-anchor="start" style="white-space: pre;" direction="ltr">1000111000001111001011011111101100100101</text><text x="0" y="109.45290279741663" font-family="Virgil, Segoe UI Emoji" font-size="4.207729630377776px" fill="#000000" text-anchor="start" style="white-space: pre;" direction="ltr"></text></g><g stroke-linecap="round" transform="translate(144.1228175586714 74.03633606409835) rotate(0 31.425972795842654 31.42597279584271)"><path d="M35.21 0.64 C41.55 1.06, 49.26 5.13, 53.84 10.07 C58.42 15.02, 62.28 23.69, 62.67 30.31 C63.07 36.93, 60.36 44.52, 56.19 49.8 C52.03 55.07, 44.04 60.25, 37.67 61.96 C31.3 63.68, 23.79 63.21, 17.98 60.08 C12.17 56.95, 5.45 49.56, 2.79 43.18 C0.14 36.8, 0.2 28.01, 2.08 21.81 C3.95 15.61, 7.8 9.34, 14.02 5.97 C20.23 2.6, 34.28 2.08, 39.37 1.6 C44.46 1.11, 44.73 2.76, 44.56 3.06 M16.65 4.03 C22.5 0.47, 32.36 -1.97, 38.87 -0.4 C45.38 1.17, 51.84 7.75, 55.69 13.43 C59.55 19.11, 62.13 27.26, 61.99 33.69 C61.84 40.12, 59 47.25, 54.81 52.01 C50.62 56.77, 43.46 61.32, 36.86 62.23 C30.26 63.15, 21 60.93, 15.21 57.48 C9.42 54.04, 4.33 47.7, 2.13 41.58 C-0.06 35.46, -0.37 27.16, 2.05 20.77 C4.46 14.39, 13.88 5.79, 16.63 3.26 C19.38 0.74, 18.37 5.23, 18.54 5.63" stroke="#000000" stroke-width="2" fill="none"></path></g><g transform="translate(146.9514455122262 94.05889864009771) rotate(0 29.5 10)"><text x="0" y="14" font-family="Virgil, Segoe UI Emoji" font-size="16px" fill="#000000" text-anchor="start" style="white-space: pre;" direction="ltr">compiler</text></g><g stroke-linecap="round" transform="translate(393.317487303525 174.19702759003803) rotate(0 31.425972795842654 31.425972795842654)"><path d="M24.27 1.68 C30.5 -0.23, 39.21 0.85, 45.36 3.72 C51.51 6.6, 58.49 12.83, 61.16 18.91 C63.84 24.98, 63.31 33.74, 61.4 40.2 C59.49 46.65, 55.23 53.97, 49.71 57.63 C44.2 61.3, 35.18 62.84, 28.31 62.18 C21.44 61.52, 13.14 58.52, 8.52 53.67 C3.9 48.82, 0.87 39.92, 0.57 33.07 C0.27 26.22, 1.58 18.17, 6.7 12.59 C11.82 7.01, 25.91 1.51, 31.29 -0.4 C36.67 -2.31, 38.85 0.4, 38.98 1.13 M16.21 2.53 C21.87 -0.8, 32.55 -1.08, 39.27 0.64 C45.99 2.37, 52.59 7.7, 56.53 12.89 C60.48 18.09, 63.33 24.99, 62.94 31.82 C62.55 38.64, 58.95 48.59, 54.18 53.83 C49.42 59.07, 40.72 62.79, 34.35 63.26 C27.98 63.74, 21.51 60.62, 15.93 56.69 C10.36 52.76, 3.25 45.99, 0.9 39.69 C-1.45 33.4, -0.57 24.72, 1.81 18.9 C4.19 13.09, 12.59 7.35, 15.18 4.8 C17.77 2.25, 17.08 3.42, 17.34 3.59" stroke="#000000" stroke-width="2" fill="none"></path></g><g transform="translate(407.4367466339711 197.689682883405) rotate(0 20 10)"><text x="0" y="14" font-family="Virgil, Segoe UI Emoji" font-size="16px" fill="#000000" text-anchor="start" style="white-space: pre;" direction="ltr">linker</text></g><g stroke-linecap="round" transform="translate(489.3139635629177 42.76546755925938) rotate(0 50.39014818018268 65.6022683855208)"><path d="M1.77 -0.96 C41.84 -0.88, 78.32 1.27, 100.56 -1.96 M0.45 0.3 C31.79 0.5, 62.39 0.34, 100.67 0.39 M99.39 0.86 C102.86 39.98, 103.33 83.16, 102.76 132.83 M100.26 0.29 C100.03 38.39, 99.88 74.77, 100.75 130.31 M99.75 129.49 C64.04 128.53, 25.55 128.55, 1.99 129.57 M101.75 130.3 C63.45 130.12, 26.39 131.32, -0.47 131.58 M1.88 131.8 C-1.48 86.4, 1.71 45.24, 1.26 -1.2 M-0.22 131.63 C-0.06 92.35, -0.69 53.71, -0.43 -0.35" stroke="#000000" stroke-width="2" fill="none"></path></g><g stroke-linecap="round"><g transform="translate(112.42258844938692 104.58800450423848) rotate(0 14.279313575335095 -0.47091922921663354)"><path d="M-1.07 -0.42 C3.68 -0.43, 24.71 0.84, 29.63 0.86 M0.57 -1.69 C5.14 -2.11, 24.69 -1.24, 29.19 -0.81" stroke="#000000" stroke-width="1" fill="none"></path></g><g transform="translate(112.42258844938692 104.58800450423848) rotate(0 14.279313575335095 -0.47091922921663354)"><path d="M14.93 4.39 C21.86 1.5, 25.94 0.77, 29.78 -1.46 M15.62 2.66 C20.37 1.25, 24.3 -0.25, 29.65 -1.31" stroke="#000000" stroke-width="1" fill="none"></path></g><g transform="translate(112.42258844938692 104.58800450423848) rotate(0 14.279313575335095 -0.47091922921663354)"><path d="M15.55 -5.4 C22.31 -4.43, 26.14 -1.29, 29.78 -1.46 M16.24 -7.12 C20.77 -5.2, 24.49 -3.38, 29.65 -1.31" stroke="#000000" stroke-width="1" fill="none"></path></g></g><g stroke-linecap="round"><g transform="translate(206.38959763715047 104.58800450423826) rotate(0 20.40159411024183 -0.46885997463664353)"><path d="M-0.93 0.65 C5.95 0.55, 34.72 0.2, 41.73 0.11 M0.79 -0.05 C7.43 -0.55, 33.45 -1.29, 40.58 -1.59" stroke="#000000" stroke-width="1" fill="none"></path></g><g transform="translate(206.38959763715047 104.58800450423826) rotate(0 20.40159411024183 -0.46885997463664353)"><path d="M22.14 5.66 C28.96 2.18, 35.53 0.98, 40.48 -3.53 M20.22 6.4 C29.44 3.51, 35.76 1.12, 40.14 -1.97" stroke="#000000" stroke-width="1" fill="none"></path></g><g transform="translate(206.38959763715047 104.58800450423826) rotate(0 20.40159411024183 -0.46885997463664353)"><path d="M21.63 -8.73 C28.71 -7.34, 35.45 -3.69, 40.48 -3.53 M19.71 -8 C29.13 -5.24, 35.66 -1.97, 40.14 -1.97" stroke="#000000" stroke-width="1" fill="none"></path></g></g><g stroke-linecap="round"><g transform="translate(347.25163024253516 107.7733268495864) rotate(0 26.558372612082053 38.478828879304785)"><path d="M1 -0.36 C9.86 12.66, 44.22 63.96, 53.04 77.06 M0.07 -1.59 C8.74 11.72, 42.99 65.54, 51.89 78.55" stroke="#000000" stroke-width="1" fill="none"></path></g><g transform="translate(347.25163024253516 107.7733268495864) rotate(0 26.558372612082053 38.478828879304785)"><path d="M27.24 59.95 C34.6 66.5, 43.68 69.94, 52.56 76.81 M26.98 59.96 C35.24 66.33, 44.93 73.14, 51.37 78.47" stroke="#000000" stroke-width="1" fill="none"></path></g><g transform="translate(347.25163024253516 107.7733268495864) rotate(0 26.558372612082053 38.478828879304785)"><path d="M44.4 48.69 C46.61 58.7, 50.63 65.46, 52.56 76.81 M44.14 48.71 C46.38 58.91, 50.1 69.64, 51.37 78.47" stroke="#000000" stroke-width="1" fill="none"></path></g></g><g stroke-linecap="round"><g transform="translate(345.4820067173421 308.44863460650413) rotate(0 29.232400713236416 -39.2518425914418)"><path d="M1.03 -1.19 C10.34 -14.29, 46.87 -64.48, 55.98 -77.41 M0.11 0.79 C9.81 -12.16, 48.69 -66.17, 58.35 -79.3" stroke="#000000" stroke-width="1" fill="none"></path></g><g transform="translate(345.4820067173421 308.44863460650413) rotate(0 29.232400713236416 -39.2518425914418)"><path d="M48.08 -51.54 C53.11 -61.03, 53.4 -67.11, 58.1 -80.17 M49.99 -51.26 C50.8 -57.14, 54.08 -61.15, 58.97 -79.4" stroke="#000000" stroke-width="1" fill="none"></path></g><g transform="translate(345.4820067173421 308.44863460650413) rotate(0 29.232400713236416 -39.2518425914418)"><path d="M31.48 -63.61 C41.77 -69.5, 47.2 -71.85, 58.1 -80.17 M33.4 -63.33 C37.6 -66.64, 44.25 -68.2, 58.97 -79.4" stroke="#000000" stroke-width="1" fill="none"></path></g></g><g stroke-linecap="round"><g transform="translate(436.9715429698342 174.66509610189235) rotate(0 23.511675495288046 -30.68313388281598)"><path d="M0.64 -1.06 C8.51 -11.28, 39.96 -52.35, 47.5 -62.36 M-0.48 1 C7.23 -8.96, 38.67 -50.38, 46.78 -61.05" stroke="#000000" stroke-width="1" fill="none"></path></g><g transform="translate(436.9715429698342 174.66509610189235) rotate(0 23.511675495288046 -30.68313388281598)"><path d="M36.13 -31.68 C40.35 -43.8, 45.32 -50.75, 47.21 -60.02 M36.92 -32.72 C39.14 -40.19, 42.03 -47.17, 46.41 -61.68" stroke="#000000" stroke-width="1" fill="none"></path></g><g transform="translate(436.9715429698342 174.66509610189235) rotate(0 23.511675495288046 -30.68313388281598)"><path d="M19.79 -44.1 C29.26 -52.23, 39.59 -55.1, 47.21 -60.02 M20.58 -45.13 C26.88 -49.7, 33.8 -53.62, 46.41 -61.68" stroke="#000000" stroke-width="1" fill="none"></path></g></g><g transform="translate(11.429798031578457 12.123548230231904) rotate(0 42 10)"><text x="0" y="14" font-family="Virgil, Segoe UI Emoji" font-size="16px" fill="#000000" text-anchor="start" style="white-space: pre;" direction="ltr">source file</text></g><g transform="translate(253.51429627801895 10) rotate(0 40.5 10)"><text x="0" y="14" font-family="Virgil, Segoe UI Emoji" font-size="16px" fill="#000000" text-anchor="start" style="white-space: pre;" direction="ltr">object file</text></g><g transform="translate(254.92999509817378 212.09100657707256) rotate(0 40.5 10.000000000000057)"><text x="0" y="14" font-family="Virgil, Segoe UI Emoji" font-size="16px" fill="#000000" text-anchor="start" style="white-space: pre;" direction="ltr">library file</text></g><g transform="translate(496.3066439345373 14.247096460463922) rotate(0 42.5 10)"><text x="0" y="14" font-family="Virgil, Segoe UI Emoji" font-size="16px" fill="#000000" text-anchor="start" style="white-space: pre;" direction="ltr">executable</text></g></svg>