<svg xmlns="http://www.w3.org/2000/svg" xmlns:xlink="http://www.w3.org/1999/xlink" viewBox="0 0 155.62 120.81"><defs><style>.cls-1,.cls-10,.cls-13,.cls-16,.cls-3,.cls-4,.cls-7,.cls-8{fill:none;}.cls-2{fill:#fcd5c5;}.cls-13,.cls-16,.cls-3,.cls-4{stroke:#231f20;}.cls-3,.cls-4{stroke-linecap:round;stroke-linejoin:round;}.cls-16,.cls-3{stroke-width:0.5px;}.cls-4{stroke-width:0.25px;}.cls-5{clip-path:url(#clip-path);}.cls-6{fill:#dadac9;}.cls-7{stroke:#fff;stroke-width:0.75px;}.cls-10,.cls-13,.cls-16,.cls-7,.cls-8{stroke-miterlimit:3.86;}.cls-8{stroke:#ed1846;}.cls-9{fill:#ed1846;}.cls-10{stroke:#00aeef;}.cls-11{fill:#fff;}.cls-12{fill:#00aeef;}.cls-13{stroke-width:0.3px;}.cls-14,.cls-15{fill:#231f20;}.cls-15{font-size:8px;font-family:Roboto-Regular, Roboto;}</style><clipPath id="clip-path" transform="translate(0 -1.5)"><rect class="cls-1" width="158.67" height="122.29"/></clipPath></defs><g id="Layer_2" data-name="Layer 2"><g id="Layer_1-2" data-name="Layer 1"><path class="cls-2" d="M84,40.63a14.12,14.12,0,0,1-3.6.24c-1.4.07-5-.23-6.72-.24-1.68.21-3.88,0-4.8.48l-.43,0a2,2,0,0,1-1.26.93,25,25,0,0,1-3.59.72c-1.3.35-3.3.75-4.32-.24l-.23-.2A8,8,0,0,1,58,43,9.34,9.34,0,0,0,55.39,45c-1.13,1.09-2.24,1-3.59,1s-2.44-1-3.84-1.2a1.64,1.64,0,0,1-1.2-2.16l.05-.31a6.86,6.86,0,0,1-3.66-2.09c-1.09-1-.79-2.31-.47-3.6l.06-.22a3.86,3.86,0,0,1-1.5-2.18,3.21,3.21,0,0,1,0-3.12l0,0a5.43,5.43,0,0,1-.51-.46c-.7-1.11-.4-2.21-.48-3.36.08-1.05.87-1.45,1.92-2.16a21.24,21.24,0,0,1,3.12-2.16c1.54-.83,2.94-1.13,4.56-1.92s2.88-.51,5-.72c2-.39,2.94-.59,3.84-1.44.7-.75.2-1.95.24-3.12s-.14-4.23-.24-5l.48.24a4,4,0,0,1-1-2.64,13.29,13.29,0,0,1,.48-4.8c.5-1,.7-1.69,1.68-1.68a2.74,2.74,0,0,1,3.12,2.4,48.92,48.92,0,0,1,1.68,6.48c0,1.51-.68,1.81.72,4.08,1.19,2.13,2.3,4,2.4,5a6.19,6.19,0,0,1,0,.77c.89.77,1.68,1.73,2.37,2.35.5.77,2.7,1.27,4.32,1.44,1.78,0,8.08,0,9.84,0" transform="translate(0 -1.5)"/><path class="cls-3" d="M56.84,22.39a2.73,2.73,0,0,1,1-2.16,4.34,4.34,0,0,0,1.44-1.68M50.12,29.11a2.82,2.82,0,0,0,1.2-3.36m7.44-15.12c.1.81.2,3.81.24,5s.46,2.37-.24,3.12c-.9.85-1.8,1.05-3.84,1.44-2.16.21-3.46-.09-5,.72s-3,1.09-4.56,1.92A21.8,21.8,0,0,0,42.2,25c-1,.71-1.84,1.11-1.92,2.16.08,1.15-.22,2.25.48,3.36a12.1,12.1,0,0,0,3.6,2.16,16.08,16.08,0,0,0,5.52,1.68c1.58,0,2.58-.55,4.08-.72a4.42,4.42,0,0,0,3.36-1.44,1.78,1.78,0,0,0-1-2.4A11.17,11.17,0,0,0,52,29.11c-.68.13-2.58.13-2.64.24.06-.11.06-.41-1-1.44s-3.58-1.77-4.8-1.2m24.72-6.24c.9.77,1.7,1.77,2.4,2.4.5.77,2.7,1.27,4.32,1.44,1.78,0,8.08,0,9.84,0M59.24,10.87a4,4,0,0,1-1-2.64,13.52,13.52,0,0,1,.48-4.8c.5-1,.7-1.69,1.68-1.68a2.74,2.74,0,0,1,3.12,2.4,48.92,48.92,0,0,1,1.68,6.48c0,1.51-.68,1.81.72,4.08,1.2,2.13,2.3,4,2.4,5s0,2.69-.48,2.88" transform="translate(0 -1.5)"/><path class="cls-4" d="M70.76,25.27a14.62,14.62,0,0,1-.24,5.28C70,31.64,69.26,33,68.84,33.67" transform="translate(0 -1.5)"/><path class="cls-3" d="M60.44,11.35a2.81,2.81,0,0,0,1.44.24" transform="translate(0 -1.5)"/><path class="cls-4" d="M69.56,36.31c.6-.67,1.6-1.87,2.88-1.44a37,37,0,0,0,5,.48" transform="translate(0 -1.5)"/><path class="cls-3" d="M68.84,41.11c.92-.47,3.12-.27,4.8-.48,1.72,0,5.32.31,6.72.24a14.12,14.12,0,0,0,3.6-.24m-14.4-2.4c-.3,1.21-1,3.61-2.4,3.84a25.41,25.41,0,0,1-3.6.72c-1.3.35-3.3.75-4.32-.24" transform="translate(0 -1.5)"/><path class="cls-4" d="M70.52,34.39c.74-.55.94-.65,2.88-.72" transform="translate(0 -1.5)"/><path class="cls-3" d="M46.76,42.55c-.1.69-.2,1.79,1.2,2.16s2.6,1.23,3.84,1.2,2.46.13,3.6-1A9.31,9.31,0,0,1,58,43,4.07,4.07,0,0,0,60,41.11a1.27,1.27,0,0,0-.24-1.68,1.81,1.81,0,0,0-1-.72M42.68,36.55c-.32,1.29-.62,2.59.48,3.6a6.75,6.75,0,0,0,4.08,2.16,11.12,11.12,0,0,0,4.8-.48c1.32-.69,1.52-.29,3.36-1.44s2.16-1,3.12-1.68a2.16,2.16,0,0,0,1-1.68c.18-.69-.82-1.39-.72-1.44M41.24,31a3.24,3.24,0,0,0,0,3.12,4.26,4.26,0,0,0,2.16,2.64A11.54,11.54,0,0,0,48,38.47,6,6,0,0,0,52,38.23,26.43,26.43,0,0,0,55.88,37a8.2,8.2,0,0,0,2.88-1.68c1.1-1,.6-1.61.48-2.4a2.12,2.12,0,0,0-1.68-1.68" transform="translate(0 -1.5)"/><path class="cls-4" d="M58,40.63a1.85,1.85,0,0,0,1.68,1.2m-3.36-4.08c0,.59-.2.79.48,1.2m0-5.28c-.48.47-.58.47-.48,1.2s.3,1.07.72,1m-1.92-5.28c-.7.09-1.4-.31-1.2.72s-.4,1.57.72,1.92m5,1a5.79,5.79,0,0,0,3.12.48" transform="translate(0 -1.5)"/><path class="cls-3" d="M51.08,40.39l.24,1m-1.2-.72.48,1.2m-.24-6L50.6,37m-1.2-.72.48,1.2m-.24-6.24v1" transform="translate(0 -1.5)"/><g class="cls-5"><polyline class="cls-6" points="106.74 120.81 0 91.53 66.4 48.42 155.62 60.87"/></g><line class="cls-7" x1="53.96" y1="26.89" x2="53.96" y2="4.93"/><line class="cls-8" x1="53.96" y1="26.89" x2="53.96" y2="4.93"/><path class="cls-9" d="M54,3.43l-2.5,5a3.34,3.34,0,0,1,5,0" transform="translate(0 -1.5)"/><line class="cls-7" x1="53.96" y1="77.29" x2="53.96" y2="45.1"/><line class="cls-8" x1="53.96" y1="77.29" x2="53.96" y2="45.1"/><polygon class="cls-3" points="55.64 76.57 55.64 61.93 58.28 61.45 53.72 57.85 48.68 63.13 51.56 62.65 51.56 77.53 55.64 76.57"/><path class="cls-7" d="M54,78.79l5.28-1m-5.28,1,44.71,27M62.12,77.11,112,67.37" transform="translate(0 -1.5)"/><line class="cls-10" x1="62.12" y1="75.61" x2="111.97" y2="65.87"/><path class="cls-11" d="M114.73,66.85l-4.85-1.38a3.05,3.05,0,0,1,.86,4.46" transform="translate(0 -1.5)"/><path class="cls-11" d="M101,107.26l-2.59-4.18a3,3,0,0,1-2.33,3.79" transform="translate(0 -1.5)"/><path class="cls-12" d="M114.92,66.79l-5.39-1.5a3.35,3.35,0,0,1,1,4.91" transform="translate(0 -1.5)"/><line class="cls-10" x1="53.96" y1="77.29" x2="98.67" y2="104.3"/><path class="cls-12" d="M101.24,107.35l-3-4.73a3.34,3.34,0,0,1-2.58,4.28" transform="translate(0 -1.5)"/><polyline class="cls-13" points="62.84 74.65 62.84 66.97 53.96 68.65 60.68 73.45 60.68 80.41"/><line class="cls-10" x1="53.96" y1="77.29" x2="59.24" y2="76.33"/><path class="cls-14" d="M82.17,73.25A8.17,8.17,0,0,1,81,77l.17,0,1.21-2.36,2,1.76.18,0a7.93,7.93,0,0,1-2.41-3.11" transform="translate(0 -1.5)"/><text class="cls-15" transform="translate(88.76 67.21)">v</text><text class="cls-15" transform="translate(77 100.75)">u</text><text class="cls-15" transform="translate(45.56 73.45)">n</text><text class="cls-15" transform="translate(85.11 84.88)">θ</text><text class="cls-15" transform="translate(30.59 16.74)">u</text><text class="cls-15" transform="translate(37.04 16.74)">×</text><text class="cls-15" transform="translate(45.7 16.74)">v</text><path class="cls-16" d="M82.44,74.62a27.81,27.81,0,0,1,.3,4.11,28.13,28.13,0,0,1-4.28,15" transform="translate(0 -1.5)"/></g></g></svg>