<svg version="1.1" xmlns="http://www.w3.org/2000/svg" viewBox="0 0 1040.428571428572 512.7941264748573" width="1040.428571428572" height="512.7941264748573">
  <!-- svg-source:excalidraw -->
  
  <defs>
    <style>
      @font-face {
        font-family: "Virgil";
        src: url("https://excalidraw.com/Virgil.woff2");
      }
      @font-face {
        font-family: "Cascadia";
        src: url("https://excalidraw.com/Cascadia.woff2");
      }
    </style>
  </defs>
  <rect x="0" y="0" width="1040.428571428572" height="512.7941264748573" fill="#ffffff"></rect><g stroke-opacity="0.2" fill-opacity="0.2" stroke-linecap="round" transform="translate(87.50000000000034 156.9695277322084) rotate(0 77.25 19.00000000000003)"><path d="M-0.3 -1.38 L153.26 -0.11 L152.53 37.69 L-0.7 38.64" stroke="none" stroke-width="0" fill="#15aabf"></path><path d="M-0.91 -0.15 C58.71 1.57, 116.09 -1.94, 155.26 0.21 M0.56 0.29 C50.44 0.22, 99.93 1.61, 155.15 -0.82 M153.48 -1.1 C155.26 15.27, 154.32 27.43, 155.35 38.98 M154.22 0.04 C153.46 9.64, 153.76 17.44, 155.31 38.38 M153.65 38.71 C108.34 35.63, 60.52 38.63, 0.92 39.61 M153.93 37.02 C120.66 37.88, 87.71 36.48, -0.78 37.05 M0.91 37.54 C-1.2 28.94, 0.75 19.56, 1.39 -1.3 M-0.18 38.83 C-0.91 29.24, 0.01 21.28, 0.28 -0.97" stroke="#000000" stroke-width="1" fill="none"></path></g><g transform="translate(123.50000000000011 163.96952773220835) rotate(0 18.5 10)"><text x="0" y="14" font-family="Virgil, Segoe UI Emoji" font-size="16px" fill="#000000" text-anchor="start" style="white-space: pre;" direction="ltr">text</text></g><g stroke-opacity="0.2" fill-opacity="0.2" stroke-linecap="round" transform="translate(87.00000000000034 196.96952773220846) rotate(0 77.25 19.000000000000057)"><path d="M-1.97 -0.31 L153.8 0.64 L156.29 39.19 L0.1 38.69" stroke="none" stroke-width="0" fill="#fab005"></path><path d="M-1.91 -1.9 C45.97 -1.03, 90.83 -0.35, 153.46 1.12 M0.82 0.81 C51.55 0.08, 102.36 1.39, 155.05 -0.51 M154.14 0.4 C155.46 10.29, 153.32 17.66, 153.16 37.44 M153.94 -0.48 C154.99 11.93, 154.19 23.29, 153.79 37.57 M153.76 39.72 C103.57 38.62, 49.12 37.93, -1.02 36.87 M154.58 37.26 C122.59 38.08, 91.79 39.25, -0.19 38.46 M0.83 39.09 C1.61 26.18, -1.38 18.52, -1.98 -0.35 M0.31 38.04 C0.51 22.46, 0.08 8.17, -0.62 -0.06" stroke="#000000" stroke-width="1" fill="none"></path></g><g transform="translate(123.00000000000011 203.96952773220846) rotate(0 20 10)"><text x="0" y="14" font-family="Virgil, Segoe UI Emoji" font-size="16px" fill="#000000" text-anchor="start" style="white-space: pre;" direction="ltr">data</text></g><g stroke-opacity="0.2" fill-opacity="0.2" stroke-linecap="round" transform="translate(90.50000000000034 275.96952773220846) rotate(0 77.25 19.000000000000057)"><path d="M1.79 1.19 L154.6 0.69 L154.65 36.47 L1.12 36.89" stroke="none" stroke-width="0" fill="#15aabf"></path><path d="M0.41 0.9 C30.66 0.96, 63.99 1.61, 153.33 1.64 M0.56 0.48 C59.38 0.76, 117.12 1.56, 155.38 -0.18 M153.22 -0.96 C153.32 11.6, 154.74 22.6, 155.87 36.87 M154.52 0.21 C154.1 9.16, 155.17 19.4, 153.86 37.63 M152.83 38.92 C93.81 38.11, 33.18 38.43, 1.33 38.15 M154.07 38.22 C119.33 36.99, 84.3 35.98, 0.35 38.42 M-1.59 39.57 C-2.25 24.18, 1.4 9.83, -0.75 0.61 M-0.15 37.31 C-0.72 26.38, -1.09 14.71, -0.35 0.32" stroke="#000000" stroke-width="1" fill="none"></path></g><g transform="translate(126.50000000000011 282.96952773220846) rotate(0 18.5 10)"><text x="0" y="14" font-family="Virgil, Segoe UI Emoji" font-size="16px" fill="#000000" text-anchor="start" style="white-space: pre;" direction="ltr">text</text></g><g stroke-opacity="0.2" fill-opacity="0.2" stroke-linecap="round" transform="translate(90.00000000000034 315.96952773220846) rotate(0 77.25 19.000000000000057)"><path d="M0.15 -1.53 L155.62 -1.11 L153.86 36.38 L-1.65 36.54" stroke="none" stroke-width="0" fill="#fab005"></path><path d="M0.59 1.78 C52.12 0.78, 108.21 0.44, 152.85 1.11 M-0.55 0.29 C54.68 0.61, 107.8 1.21, 154.99 -0.64 M154.58 -1.71 C155.61 8.45, 153.29 20.79, 155.27 38.04 M154.86 0.23 C153.59 11.82, 155.09 24.85, 155.3 37.16 M152.53 37.19 C102.34 37.28, 46.04 35.57, -1.9 37.14 M154.27 37.44 C105.05 39.12, 55.43 39.4, -0.65 37.21 M1.67 36.78 C-0.38 24.23, 0.46 9.79, -1.94 -0.3 M-0.98 37.84 C-0.11 29.54, 1.13 21.04, 0.05 0.35" stroke="#000000" stroke-width="1" fill="none"></path></g><g transform="translate(126.00000000000011 322.96952773220846) rotate(0 20 10)"><text x="0" y="14" font-family="Virgil, Segoe UI Emoji" font-size="16px" fill="#000000" text-anchor="start" style="white-space: pre;" direction="ltr">data</text></g><g stroke-opacity="0.2" fill-opacity="0.2" stroke-linecap="round" transform="translate(344.50000000000034 152.96952773220846) rotate(0 77.25 19.00000000000003)"><path d="M-0.64 -1.62 L152.85 -1.46 L155.15 39.2 L1.82 39.43" stroke="none" stroke-width="0" fill="#15aabf"></path><path d="M1.62 1.31 C58.43 -0.16, 121.12 -0.18, 153.48 -1.1 M0.2 0.42 C51.26 -0.36, 101.07 -0.39, 154.22 0.04 M153.54 1.63 C155.53 8.18, 155.18 14.88, 153.65 38.71 M155.36 0.46 C155.06 11.45, 154.72 24.06, 153.93 37.02 M153.03 36.45 C112.48 37.26, 74.7 37.74, 0.91 37.54 M155.05 38.7 C116.14 37.85, 79.86 37.65, -0.18 38.83 M0.09 38.55 C-1.8 28.62, -1.24 18.6, -0.11 -1.97 M0.89 38.59 C0.18 27.54, 0.21 15.62, 0.56 -0.56" stroke="#000000" stroke-width="1" fill="none"></path></g><g transform="translate(380.5000000000001 159.96952773220846) rotate(0 18.5 10)"><text x="0" y="14" font-family="Virgil, Segoe UI Emoji" font-size="16px" fill="#000000" text-anchor="start" style="white-space: pre;" direction="ltr">text</text></g><g stroke-opacity="0.2" fill-opacity="0.2" stroke-linecap="round" transform="translate(344.00000000000034 192.46952773220846) rotate(0 77.25 19.000000000000057)"><path d="M0.65 1.2 L156.32 1.43 L152.83 36.69 L1.57 39.82" stroke="none" stroke-width="0" fill="#fab005"></path><path d="M0.96 1.09 C55.43 -1.96, 113.47 0.9, 154.14 0.4 M-0.48 -0.67 C52.62 1.03, 104.93 1.67, 153.94 -0.48 M154.92 -1.41 C153.8 15.21, 155.11 27.7, 153.76 39.72 M154.96 -0.51 C154.24 12.16, 154.4 26.96, 154.58 37.26 M154.95 37.63 C121.07 36.88, 84.69 38.05, 0.83 39.09 M155.28 37.01 C97.21 37.61, 39.66 36.4, 0.31 38.04 M-1.38 36.76 C0.26 23.58, 0.06 12.4, 0.64 1.79 M0.08 37.24 C0.54 23.79, -0.34 9.87, -0.82 -0.73" stroke="#000000" stroke-width="1" fill="none"></path></g><g transform="translate(380.0000000000001 199.96952773220846) rotate(0 20 10)"><text x="0" y="14" font-family="Virgil, Segoe UI Emoji" font-size="16px" fill="#000000" text-anchor="start" style="white-space: pre;" direction="ltr">data</text></g><g transform="translate(10.5 182.46952773220835) rotate(0 15.5 12.5)"><text x="0" y="18" font-family="Virgil, Segoe UI Emoji" font-size="20px" fill="#000000" text-anchor="start" style="white-space: pre;" direction="ltr">a.o</text></g><g transform="translate(10 303.96952773220835) rotate(0 14 12.5)"><text x="0" y="18" font-family="Virgil, Segoe UI Emoji" font-size="20px" fill="#000000" text-anchor="start" style="white-space: pre;" direction="ltr">b.o</text></g><g stroke-linecap="round"><g stroke-opacity="0.2" fill-opacity="0.2" transform="translate(250.5000000000001 294.46952773220835) rotate(0 46.16328891031435 -62.88101021163169)"><path d="M0.24 0.51 C15.41 -20.5, 76.97 -105.14, 92.09 -126.27" stroke="#000000" stroke-width="1.5" fill="none" stroke-dasharray="8 9"></path></g><g stroke-opacity="0.2" fill-opacity="0.2" transform="translate(250.5000000000001 294.46952773220835) rotate(0 46.16328891031435 -62.88101021163169)"><path d="M84.75 -96.43 C85.85 -109.58, 88.97 -120.38, 92.16 -127.98" stroke="#000000" stroke-width="1.5" fill="none"></path></g><g stroke-opacity="0.2" fill-opacity="0.2" transform="translate(250.5000000000001 294.46952773220835) rotate(0 46.16328891031435 -62.88101021163169)"><path d="M68.11 -108.44 C75.64 -116.97, 85.22 -123.1, 92.16 -127.98" stroke="#000000" stroke-width="1.5" fill="none"></path></g></g><g stroke-linecap="round"><g stroke-opacity="0.2" fill-opacity="0.2" transform="translate(249.0000000000001 336.96952773220835) rotate(0 47.75607432834795 -61.78609631173316)"><path d="M0.59 -0.77 C16.37 -21.32, 79.16 -102.6, 94.92 -122.8" stroke="#000000" stroke-width="1.5" fill="none" stroke-dasharray="8 9"></path></g><g stroke-opacity="0.2" fill-opacity="0.2" transform="translate(249.0000000000001 336.96952773220835) rotate(0 47.75607432834795 -61.78609631173316)"><path d="M84.47 -95.2 C87.23 -103.98, 91.58 -114.27, 96.29 -123.93" stroke="#000000" stroke-width="1.5" fill="none"></path></g><g stroke-opacity="0.2" fill-opacity="0.2" transform="translate(249.0000000000001 336.96952773220835) rotate(0 47.75607432834795 -61.78609631173316)"><path d="M68.25 -107.78 C76.26 -112.61, 85.79 -118.88, 96.29 -123.93" stroke="#000000" stroke-width="1.5" fill="none"></path></g></g><g stroke-linecap="round"><g stroke-opacity="0.2" fill-opacity="0.2" transform="translate(244.5000000000001 171.96952773220835) rotate(0 50.0449363302439 -1.628402794525016)"><path d="M-0.58 -0.8 C16.1 -1.08, 83.91 -2.31, 100.67 -2.45" stroke="#000000" stroke-width="1.5" fill="none" stroke-dasharray="8 9"></path></g><g stroke-opacity="0.2" fill-opacity="0.2" transform="translate(244.5000000000001 171.96952773220835) rotate(0 50.0449363302439 -1.628402794525016)"><path d="M71.29 7.64 C82.55 2.91, 93.63 -0.23, 99.71 -0.83" stroke="#000000" stroke-width="1.5" fill="none"></path></g><g stroke-opacity="0.2" fill-opacity="0.2" transform="translate(244.5000000000001 171.96952773220835) rotate(0 50.0449363302439 -1.628402794525016)"><path d="M71 -12.87 C82.23 -10.45, 93.41 -6.42, 99.71 -0.83" stroke="#000000" stroke-width="1.5" fill="none"></path></g></g><g stroke-linecap="round"><g stroke-opacity="0.2" fill-opacity="0.2" transform="translate(242.50000000000034 214.83357212513454) rotate(0 49.31870548240829 2.654307829375398)"><path d="M-0.33 0.05 C16.26 1.06, 82.36 4.63, 98.97 5.26" stroke="#000000" stroke-width="1.5" fill="none" stroke-dasharray="8 9"></path></g><g stroke-opacity="0.2" fill-opacity="0.2" transform="translate(242.50000000000034 214.83357212513454) rotate(0 49.31870548240829 2.654307829375398)"><path d="M70.4 12.46 C78.97 10.88, 83.87 11.39, 99.74 5.3" stroke="#000000" stroke-width="1.5" fill="none"></path></g><g stroke-opacity="0.2" fill-opacity="0.2" transform="translate(242.50000000000034 214.83357212513454) rotate(0 49.31870548240829 2.654307829375398)"><path d="M71.38 -8.04 C79.56 -4.45, 84.22 1.22, 99.74 5.3" stroke="#000000" stroke-width="1.5" fill="none"></path></g></g><g stroke-opacity="0.2" fill-opacity="0.2" stroke-linecap="round" transform="translate(344.50000000000034 231.46952773220846) rotate(0 77.25 19.000000000000057)"><path d="M1.37 -1.13 C41.08 2.95, 84.84 1.36, 154.92 -1.41 M-0.64 -0.37 C40.65 0.1, 80.37 -1.19, 154.96 -0.51 M155.83 0.15 C152.65 7.7, 152.23 17.64, 154.95 37.63 M154.85 0.42 C154.96 13.83, 153.76 25.47, 155.28 37.01 M153.75 38.61 C110.96 37.61, 65.29 36.75, -1.38 36.76 M154.15 38.32 C109.92 38.35, 63.6 38.11, 0.08 37.24 M-1.62 36.35 C-1.25 25.13, 1.41 12.76, 1.43 -1.67 M0.86 38.05 C0.55 29.28, 0.28 19.23, -0.84 -0.8" stroke="#000000" stroke-width="1" fill="none"></path></g><g stroke-opacity="0.2" fill-opacity="0.2" stroke-linecap="round" transform="translate(344.50000000000034 374.96952773220846) rotate(0 77.25 19.000000000000057)"><path d="M-0.96 1.63 C33.89 0.9, 66.66 -0.54, 153.65 0.71 M0.86 0.46 C50.74 -0.27, 100.34 0.06, 153.93 -0.98 M153.03 -1.55 C152.86 9.01, 155.2 19.36, 155.41 37.54 M155.05 0.7 C153.99 8.48, 155.42 17.56, 154.32 38.83 M154.59 38.55 C115.65 38.17, 79.3 37.23, -0.11 36.03 M155.39 38.59 C110.59 38.84, 66.67 37.73, 0.56 37.44 M-1.46 38.65 C1.5 29.64, 1.74 15.98, -1.31 1.57 M0.85 38.2 C0.25 22.22, -1.16 7.5, -0.98 -0.52" stroke="#000000" stroke-width="1" fill="none"></path></g><g transform="translate(398.5000000000001 110.46952773220835) rotate(0 21.5 12.5)"><text x="0" y="18" font-family="Virgil, Segoe UI Emoji" font-size="20px" fill="#000000" text-anchor="start" style="white-space: pre;" direction="ltr">RAM</text></g><g transform="translate(398.5000000000001 343.96952773220835) rotate(0 26 12.5)"><text x="0" y="18" font-family="Virgil, Segoe UI Emoji" font-size="20px" fill="#000000" text-anchor="start" style="white-space: pre;" direction="ltr">Flash</text></g><g transform="translate(194.21428571428567 49.25524201792257) rotate(0 91.5 23)"><text x="0" y="32" font-family="Virgil, Segoe UI Emoji" font-size="36px" fill="#000000" text-anchor="start" style="white-space: pre;" direction="ltr">Unscripted</text></g><g stroke-opacity="0.2" fill-opacity="0.2" stroke-linecap="round" transform="translate(618.2142857142863 156.9695277322084) rotate(0 77.25 19.00000000000003)"><path d="M-0.61 -1.21 L154.24 0.2 L153.79 39.5 L1.81 38.49" stroke="none" stroke-width="0" fill="#15aabf"></path><path d="M0.99 0.68 C31.99 1.27, 64.93 0.39, 152.55 0.68 M0.25 0.55 C52.7 -0.18, 105.29 1.26, 154.33 -0.24 M155.27 -1.21 C155.14 7.72, 153.34 20.02, 153.76 38.73 M154.8 -0.03 C153.56 12.52, 154.85 25.56, 153.74 38.44 M152.54 37.68 C121.08 38.9, 86.72 39.36, 1.81 36.43 M154.61 38.06 C108.51 38.85, 60.86 37.47, 0.21 37.47 M-0.83 38.96 C1.92 22.31, 1.36 10.17, 1.56 1.39 M-0.8 37.34 C-0.58 27.15, 1.31 15.73, 0.3 0.8" stroke="#000000" stroke-width="1" fill="none"></path></g><g transform="translate(654.2142857142859 163.96952773220835) rotate(0 18.5 10)"><text x="0" y="14" font-family="Virgil, Segoe UI Emoji" font-size="16px" fill="#000000" text-anchor="start" style="white-space: pre;" direction="ltr">text</text></g><g stroke-opacity="0.2" fill-opacity="0.2" stroke-linecap="round" transform="translate(617.7142857142863 196.96952773220846) rotate(0 77.25 19.000000000000057)"><path d="M-0.71 1.5 L156.31 0.49 L155.62 38.22 L-0.93 40" stroke="none" stroke-width="0" fill="#fab005"></path><path d="M-1.99 0.02 C49.64 -0.01, 103.99 -0.49, 153.53 0.5 M0 0.52 C54.72 1.19, 109.22 1.05, 155.39 0.39 M153.49 1.53 C153.91 9.84, 155.35 17.06, 153.19 38.59 M155.07 0.09 C153.47 11.72, 153.45 22.75, 154.75 37.02 M155.48 38.97 C112.46 36.82, 66.86 39.93, 0.29 38.23 M154.45 37.25 C107.4 38.43, 60.62 38.43, -0.87 37.58 M1.15 38.49 C1.23 26.17, -0.72 9.74, 1.63 -1.6 M0.96 37.02 C0.65 29.89, 0.05 19.59, -0.13 0.1" stroke="#000000" stroke-width="1" fill="none"></path></g><g transform="translate(653.7142857142859 203.96952773220846) rotate(0 20 10)"><text x="0" y="14" font-family="Virgil, Segoe UI Emoji" font-size="16px" fill="#000000" text-anchor="start" style="white-space: pre;" direction="ltr">data</text></g><g stroke-opacity="0.2" fill-opacity="0.2" stroke-linecap="round" transform="translate(621.2142857142863 275.96952773220846) rotate(0 77.25 19.000000000000057)"><path d="M-1.56 -1.79 L155.31 -1.84 L156.01 39.04 L0.04 39.99" stroke="none" stroke-width="0" fill="#15aabf"></path><path d="M0.61 0.54 C41.22 -1.15, 80.26 2.46, 156.37 -0.81 M-0.18 -0.07 C43.59 -2.16, 87.29 -2.33, 154.47 0.98 M155.19 1.55 C153.51 16.04, 153.24 26.73, 156.46 39.84 M154.2 -0.81 C155.1 8.32, 154.51 16.75, 154.83 38.78 M154.25 36.6 C118.09 37.71, 83.95 37.63, 0.37 38.65 M154.28 38.3 C99.69 38.44, 45.73 38.09, 0.86 38.06 M-1.62 36.43 C0.86 23.56, 0.71 12.92, 1.63 -1.61 M-0.39 37.17 C0.44 26.78, -0.46 15.19, -0.48 -0.95" stroke="#000000" stroke-width="1" fill="none"></path></g><g transform="translate(657.2142857142859 282.96952773220846) rotate(0 18.5 10)"><text x="0" y="14" font-family="Virgil, Segoe UI Emoji" font-size="16px" fill="#000000" text-anchor="start" style="white-space: pre;" direction="ltr">text</text></g><g stroke-opacity="0.2" fill-opacity="0.2" stroke-linecap="round" transform="translate(620.7142857142863 315.96952773220846) rotate(0 77.25 19.000000000000057)"><path d="M1.51 1.04 L154.54 1.99 L153.63 36.16 L1.78 38.63" stroke="none" stroke-width="0" fill="#fab005"></path><path d="M-0.94 1.61 C52.37 0.73, 100.67 0.72, 156.24 -0.36 M-0.49 -0.99 C45.29 2.23, 91.37 1.06, 154.45 0.34 M153.31 -1.65 C156.29 16.2, 152.94 30.09, 153.28 37.4 M154.25 -0.77 C154.96 9.11, 153.92 16.26, 153.66 37.88 M154.85 38.93 C119.3 39.43, 84.42 39.21, -0.34 37.56 M154.78 38.36 C104.44 39.15, 53.14 39.19, -0.71 37.19 M0.75 39.26 C1.46 27.98, -0.31 19.3, 0.3 -0.78 M-0.82 37.45 C-0.51 28.8, -0.82 20.6, 0.4 -0.92" stroke="#000000" stroke-width="1" fill="none"></path></g><g transform="translate(656.7142857142859 322.96952773220846) rotate(0 20 10)"><text x="0" y="14" font-family="Virgil, Segoe UI Emoji" font-size="16px" fill="#000000" text-anchor="start" style="white-space: pre;" direction="ltr">data</text></g><g stroke-opacity="0.2" fill-opacity="0.2" stroke-linecap="round" transform="translate(875.2142857142863 152.96952773220846) rotate(0 77.25 19.00000000000003)"><path d="M0.66 1.3 L153.88 0.66 L156.48 36.37 L0.67 37.84" stroke="none" stroke-width="0" fill="#15aabf"></path><path d="M-0.68 0.26 C35.49 -1.4, 67.88 1.8, 155.3 -1.21 M0.57 0.42 C33.26 0.03, 65.91 0.78, 153.96 0.77 M155.77 -0.15 C155.85 8.57, 154.78 20.31, 154.88 39.87 M154.17 -0.14 C155.72 11.58, 155.68 24.11, 153.51 38.28 M154.09 37.99 C103.95 37.6, 55.7 37.47, -1.2 37.34 M154.15 37.68 C106.05 36.17, 55.86 36.15, -0.78 37.8 M-1.76 37.12 C0.14 29.45, 1.5 19.56, -0.08 0.73 M0.12 38.46 C0.79 25.92, 1.02 14.55, 0.66 0.18" stroke="#000000" stroke-width="1" fill="none"></path></g><g transform="translate(911.2142857142859 159.96952773220846) rotate(0 18.5 10)"><text x="0" y="14" font-family="Virgil, Segoe UI Emoji" font-size="16px" fill="#000000" text-anchor="start" style="white-space: pre;" direction="ltr">text</text></g><g stroke-opacity="0.2" fill-opacity="0.2" stroke-linecap="round" transform="translate(874.7142857142863 192.46952773220846) rotate(0 77.25 13.285714285714334)"><path d="M1.74 -1.44 L152.8 1.18 L155.56 27.55 L0.99 28.26" stroke="none" stroke-width="0" fill="#fab005"></path><path d="M0.93 -0.47 C32.41 -0.85, 63.47 -2.07, 156.15 -1.55 M-0.57 -0.94 C50.09 -0.16, 101.95 -0.43, 154.97 -0.68 M156.34 -0.25 C152.77 6.56, 155.82 15.78, 156.17 25.76 M155.09 0.27 C154.48 6.45, 153.25 14.83, 154.18 27.15 M153.23 25.23 C105.82 26.89, 54.2 27.56, -0.91 27.5 M153.65 27.07 C106.46 26.23, 58.3 25.39, -0.6 27.24 M-1.26 26.81 C-1.89 20.87, 1.25 17.14, 1.19 1.57 M0.81 25.66 C-0.77 18.53, -0.34 9.79, 0.71 -0.71" stroke="#000000" stroke-width="1" fill="none"></path></g><g transform="translate(910.7142857142859 196.96952773220846) rotate(0 20 10)"><text x="0" y="14" font-family="Virgil, Segoe UI Emoji" font-size="16px" fill="#000000" text-anchor="start" style="white-space: pre;" direction="ltr">data</text></g><g transform="translate(541.2142857142859 182.46952773220835) rotate(0 15.5 12.5)"><text x="0" y="18" font-family="Virgil, Segoe UI Emoji" font-size="20px" fill="#000000" text-anchor="start" style="white-space: pre;" direction="ltr">a.o</text></g><g transform="translate(540.7142857142859 303.96952773220835) rotate(0 14 12.5)"><text x="0" y="18" font-family="Virgil, Segoe UI Emoji" font-size="20px" fill="#000000" text-anchor="start" style="white-space: pre;" direction="ltr">b.o</text></g><g stroke-linecap="round"><g stroke-opacity="0.2" fill-opacity="0.2" transform="translate(781.2142857142859 294.46952773220835) rotate(0 45.64734326116741 -62.093440188094974)"><path d="M-0.71 0.64 C14.43 -20.09, 76.45 -103.93, 92 -124.83" stroke="#000000" stroke-width="1.5" fill="none" stroke-dasharray="8 9"></path></g><g stroke-opacity="0.2" fill-opacity="0.2" transform="translate(781.2142857142859 294.46952773220835) rotate(0 45.64734326116741 -62.093440188094974)"><path d="M84.52 -95.24 C88.06 -105.58, 91.55 -120.2, 93.53 -124" stroke="#000000" stroke-width="1.5" fill="none"></path></g><g stroke-opacity="0.2" fill-opacity="0.2" transform="translate(781.2142857142859 294.46952773220835) rotate(0 45.64734326116741 -62.093440188094974)"><path d="M68.04 -107.46 C78.06 -112.87, 88.08 -122.64, 93.53 -124" stroke="#000000" stroke-width="1.5" fill="none"></path></g></g><g stroke-linecap="round"><g stroke-opacity="0.2" fill-opacity="0.2" transform="translate(779.7142857142859 336.96952773220835) rotate(0 46.91102172673811 24.922628519098737)"><path d="M1.01 -0.62 C16.33 7.63, 77.41 42.17, 92.81 50.46" stroke="#000000" stroke-width="1.5" fill="none" stroke-dasharray="8 9"></path></g><g stroke-opacity="0.2" fill-opacity="0.2" transform="translate(779.7142857142859 336.96952773220835) rotate(0 46.91102172673811 24.922628519098737)"><path d="M62.15 46.08 C74.87 48.59, 83.75 49.05, 92.98 51.41" stroke="#000000" stroke-width="1.5" fill="none"></path></g><g stroke-opacity="0.2" fill-opacity="0.2" transform="translate(779.7142857142859 336.96952773220835) rotate(0 46.91102172673811 24.922628519098737)"><path d="M72.08 28.12 C81.23 37.46, 86.37 44.66, 92.98 51.41" stroke="#000000" stroke-width="1.5" fill="none"></path></g></g><g stroke-linecap="round"><g stroke-opacity="0.2" fill-opacity="0.2" transform="translate(775.2142857142859 171.96952773220835) rotate(0 50.44977320320902 -1.747707896307105)"><path d="M-0.85 -1 C16.24 -1.57, 84.79 -2.15, 101.75 -2.49" stroke="#000000" stroke-width="1.5" fill="none" stroke-dasharray="8 9"></path></g><g stroke-opacity="0.2" fill-opacity="0.2" transform="translate(775.2142857142859 171.96952773220835) rotate(0 50.44977320320902 -1.747707896307105)"><path d="M72.04 9.41 C80.21 5.75, 85.8 4.27, 101.61 -1.51" stroke="#000000" stroke-width="1.5" fill="none"></path></g><g stroke-opacity="0.2" fill-opacity="0.2" transform="translate(775.2142857142859 171.96952773220835) rotate(0 50.44977320320902 -1.747707896307105)"><path d="M71.75 -11.11 C80.15 -9.96, 85.81 -6.63, 101.61 -1.51" stroke="#000000" stroke-width="1.5" fill="none"></path></g></g><g stroke-linecap="round"><g stroke-opacity="0.2" fill-opacity="0.2" transform="translate(773.2142857142863 213.03177827019647) rotate(0 46.36808848039493 0.1663742050245105)"><path d="M1.12 -0.2 C16.25 0.02, 76.44 0.34, 91.61 0.54" stroke="#000000" stroke-width="1.5" fill="none" stroke-dasharray="8 9"></path></g><g stroke-opacity="0.2" fill-opacity="0.2" transform="translate(773.2142857142863 213.03177827019647) rotate(0 46.36808848039493 0.1663742050245105)"><path d="M62.99 10.29 C72.95 7.25, 84.17 3.54, 93.3 -0.31" stroke="#000000" stroke-width="1.5" fill="none"></path></g><g stroke-opacity="0.2" fill-opacity="0.2" transform="translate(773.2142857142863 213.03177827019647) rotate(0 46.36808848039493 0.1663742050245105)"><path d="M63.17 -10.23 C72.92 -5.66, 84.08 -1.76, 93.3 -0.31" stroke="#000000" stroke-width="1.5" fill="none"></path></g></g><g stroke-opacity="0.2" fill-opacity="0.2" stroke-linecap="round" transform="translate(875.2142857142863 220.75524201792268) rotate(0 77.25 19.000000000000057)"><path d="M-1.41 1.59 C58.42 -0.05, 120.54 -0.71, 153.92 1.57 M0.1 -0.44 C33.13 0.61, 64.39 0.15, 154.83 -0.38 M154.17 -0.1 C152.68 10.53, 153.8 21.77, 153.55 36.99 M155.01 0.48 C153.76 8.54, 154.2 18.09, 155.06 37.33 M153.8 36.34 C106.94 37.64, 55.96 39.36, 1.8 36.2 M155.35 38.82 C93.19 37.38, 32.86 37.9, -0.61 37.51 M-0.18 36.05 C-1.55 24.93, -1.4 10.11, -1.5 -0.66 M-0.1 38.09 C-0.19 27.46, -0.14 16.8, 0.17 0.57" stroke="#000000" stroke-width="1" fill="none"></path></g><g stroke-opacity="0.2" fill-opacity="0.2" stroke-linecap="round" transform="translate(875.9285714285721 398.540956303637) rotate(0 77.25 19.000000000000057)"><path d="M1.57 -0.61 C58.76 1.81, 118.9 1.89, 156.37 0.13 M0.4 -0.42 C31.86 -0.68, 61.41 -1.38, 155.03 -0.01 M152.71 0.89 C155.67 14.74, 154.87 25.48, 156.11 36.81 M154.09 0.06 C155.24 10.64, 154.11 22.45, 153.73 38.06 M154.34 36.12 C119.18 37.06, 81.3 38.53, 0.09 37.03 M154.17 37.92 C115.22 36.09, 76.03 37.35, 0.61 38.26 M-0.07 39.93 C0.81 26.12, -1.62 12.54, 1.39 -1.52 M0.78 38.36 C-1.05 26.28, -0.86 12.67, -0.65 -0.22" stroke="#000000" stroke-width="1" fill="none"></path></g><g transform="translate(929.2142857142859 110.46952773220835) rotate(0 21.5 12.5)"><text x="0" y="18" font-family="Virgil, Segoe UI Emoji" font-size="20px" fill="#000000" text-anchor="start" style="white-space: pre;" direction="ltr">RAM</text></g><g transform="translate(929.2142857142859 343.96952773220835) rotate(0 26 12.5)"><text x="0" y="18" font-family="Virgil, Segoe UI Emoji" font-size="20px" fill="#000000" text-anchor="start" style="white-space: pre;" direction="ltr">Flash</text></g><g transform="translate(724.9285714285717 49.25524201792257) rotate(0 71.5 23)"><text x="0" y="32" font-family="Virgil, Segoe UI Emoji" font-size="36px" fill="#000000" text-anchor="start" style="white-space: pre;" direction="ltr">Scripted</text></g><g stroke-opacity="0.2" fill-opacity="0.2" stroke-linecap="round" transform="translate(875.4285714285721 377.46952773220846) rotate(0 77.25 10.071428571428612)"><path d="M-0.82 0.13 L156.3 -1.8 L156.43 19.78 L-0.71 21.85" stroke="none" stroke-width="0" fill="#fab005"></path><path d="M1.87 -1.08 C59.34 -1.11, 121.93 0.83, 155.91 0.68 M0.96 -0.14 C54.76 1.47, 108.52 2.28, 154.54 0.44 M152.83 1.14 C156.44 7.91, 152.82 14.1, 156.17 18.8 M153.73 0.87 C154.74 5.19, 153.79 10.39, 153.83 20.42 M156.07 18.35 C99.61 18.95, 46.42 18.81, 1.28 20.21 M154.12 20.1 C116.19 20.2, 79.55 20.61, -0.73 19.78 M-1.01 19.13 C0.63 15.45, 1.09 9.72, -1.69 -1.87 M-0.67 20.31 C-0.24 15.73, -0.18 8.88, 0.65 -0.8" stroke="#000000" stroke-width="1" fill="none"></path></g><g stroke-linecap="round"><g stroke-opacity="0.2" fill-opacity="0.2" transform="translate(512.7142857142863 10.469527732208348) rotate(0 1.1618534346899878 245.9275355052203)"><path d="M1.07 -0.47 C1.43 81.47, 1.32 410.18, 1.03 492.32" stroke="#000000" stroke-width="2.5" fill="none" stroke-dasharray="8 10"></path></g></g></svg>