<svg version="1.1" xmlns="http://www.w3.org/2000/svg" xmlns:xlink="http://www.w3.org/1999/xlink" width="320" height="320"><defs/><g transform="scale(2,2)"><g id="background-2e9f7b6c"><rect fill="white" stroke="none" x="0" y="0" width="160" height="160" class="dcg-svg-background"/></g><g id="background-images-2e9f7b6c"/><g id="graphpaper-2e9f7b6c"><g id="grid-2e9f7b6c"><g><path fill="none" stroke="rgb(0,0,0)" class="dcg-svg-minor-gridline" paint-order="fill stroke markers" d=" M 16.5 0 L 16.5 160" stroke-opacity="0.2" stroke-miterlimit="10" stroke-dasharray=""/><path fill="none" stroke="rgb(0,0,0)" class="dcg-svg-minor-gridline" paint-order="fill stroke markers" d=" M 32.5 0 L 32.5 160" stroke-opacity="0.2" stroke-miterlimit="10" stroke-dasharray=""/><path fill="none" stroke="rgb(0,0,0)" class="dcg-svg-minor-gridline" paint-order="fill stroke markers" d=" M 48.5 0 L 48.5 160" stroke-opacity="0.2" stroke-miterlimit="10" stroke-dasharray=""/><path fill="none" stroke="rgb(0,0,0)" class="dcg-svg-minor-gridline" paint-order="fill stroke markers" d=" M 64.5 0 L 64.5 160" stroke-opacity="0.2" stroke-miterlimit="10" stroke-dasharray=""/><path fill="none" stroke="rgb(0,0,0)" class="dcg-svg-minor-gridline" paint-order="fill stroke markers" d=" M 96.5 0 L 96.5 160" stroke-opacity="0.2" stroke-miterlimit="10" stroke-dasharray=""/><path fill="none" stroke="rgb(0,0,0)" class="dcg-svg-minor-gridline" paint-order="fill stroke markers" d=" M 112.5 0 L 112.5 160" stroke-opacity="0.2" stroke-miterlimit="10" stroke-dasharray=""/><path fill="none" stroke="rgb(0,0,0)" class="dcg-svg-minor-gridline" paint-order="fill stroke markers" d=" M 128.5 0 L 128.5 160" stroke-opacity="0.2" stroke-miterlimit="10" stroke-dasharray=""/><path fill="none" stroke="rgb(0,0,0)" class="dcg-svg-minor-gridline" paint-order="fill stroke markers" d=" M 144.5 0 L 144.5 160" stroke-opacity="0.2" stroke-miterlimit="10" stroke-dasharray=""/><path fill="none" stroke="rgb(0,0,0)" class="dcg-svg-minor-gridline" paint-order="fill stroke markers" d=" M 0 144.5 L 160 144.5" stroke-opacity="0.2" stroke-miterlimit="10" stroke-dasharray=""/><path fill="none" stroke="rgb(0,0,0)" class="dcg-svg-minor-gridline" paint-order="fill stroke markers" d=" M 0 128.5 L 160 128.5" stroke-opacity="0.2" stroke-miterlimit="10" stroke-dasharray=""/><path fill="none" stroke="rgb(0,0,0)" class="dcg-svg-minor-gridline" paint-order="fill stroke markers" d=" M 0 112.5 L 160 112.5" stroke-opacity="0.2" stroke-miterlimit="10" stroke-dasharray=""/><path fill="none" stroke="rgb(0,0,0)" class="dcg-svg-minor-gridline" paint-order="fill stroke markers" d=" M 0 96.5 L 160 96.5" stroke-opacity="0.2" stroke-miterlimit="10" stroke-dasharray=""/><path fill="none" stroke="rgb(0,0,0)" class="dcg-svg-minor-gridline" paint-order="fill stroke markers" d=" M 0 64.5 L 160 64.5" stroke-opacity="0.2" stroke-miterlimit="10" stroke-dasharray=""/><path fill="none" stroke="rgb(0,0,0)" class="dcg-svg-minor-gridline" paint-order="fill stroke markers" d=" M 0 48.5 L 160 48.5" stroke-opacity="0.2" stroke-miterlimit="10" stroke-dasharray=""/><path fill="none" stroke="rgb(0,0,0)" class="dcg-svg-minor-gridline" paint-order="fill stroke markers" d=" M 0 32.5 L 160 32.5" stroke-opacity="0.2" stroke-miterlimit="10" stroke-dasharray=""/><path fill="none" stroke="rgb(0,0,0)" class="dcg-svg-minor-gridline" paint-order="fill stroke markers" d=" M 0 16.5 L 160 16.5" stroke-opacity="0.2" stroke-miterlimit="10" stroke-dasharray=""/><path fill="none" stroke="rgb(0,0,0)" class="dcg-svg-major-gridline" paint-order="fill stroke markers" d=" M 0 160 L 160 160" stroke-opacity="0.2500000000000001" stroke-miterlimit="10" stroke-dasharray=""/><path fill="none" stroke="rgb(0,0,0)" class="dcg-svg-major-gridline" paint-order="fill stroke markers" d=" M 0 0 L 160 0" stroke-opacity="0.2500000000000001" stroke-miterlimit="10" stroke-dasharray=""/></g></g><g id="axis-2e9f7b6c"><g id="yaxis-2e9f7b6c"><title>Y axis</title><g><path fill="none" stroke="rgb(0,0,0)" class="dcg-svg-axis-line" paint-order="fill stroke markers" d=" M 80 0 L 80 160" stroke-opacity="0.9" stroke-miterlimit="10" stroke-width="1.5" stroke-dasharray=""/></g></g><g id="xaxis-2e9f7b6c"><title>X axis</title><g><path fill="none" stroke="rgb(0,0,0)" class="dcg-svg-axis-line" paint-order="fill stroke markers" d=" M 0 80 L 160 80" stroke-opacity="0.9" stroke-miterlimit="10" stroke-width="1.5" stroke-dasharray=""/></g></g><g><g class="dcg-svg-axis-value"><text fill="none" stroke="#ffffff" font-family="Arial" font-size="10px" font-style="normal" font-weight="normal" text-decoration="normal" x="72" y="92.72" text-anchor="middle" stroke-miterlimit="2" stroke-width="3" stroke-dasharray="">0</text><text fill="#000000" stroke="none" font-family="Arial" font-size="10px" font-style="normal" font-weight="normal" text-decoration="normal" x="72" y="92.72" text-anchor="middle">0</text></g><g class="dcg-svg-axis-value dcg-svg-offcenter-axis-value"><text fill="none" stroke="#ffffff" font-family="Arial" font-size="10px" font-style="normal" font-weight="normal" text-decoration="normal" x="10.5" y="92.72" text-anchor="middle" stroke-miterlimit="2" stroke-width="3" stroke-dasharray="">-10</text><text fill="#000000" stroke="none" font-family="Arial" font-size="10px" font-style="normal" font-weight="normal" text-decoration="normal" x="10.5" y="92.72" text-anchor="middle">-10</text></g><g class="dcg-svg-axis-value dcg-svg-offcenter-axis-value"><text fill="none" stroke="#ffffff" font-family="Arial" font-size="10px" font-style="normal" font-weight="normal" text-decoration="normal" x="151" y="92.72" text-anchor="middle" stroke-miterlimit="2" stroke-width="3" stroke-dasharray="">10</text><text fill="#000000" stroke="none" font-family="Arial" font-size="10px" font-style="normal" font-weight="normal" text-decoration="normal" x="151" y="92.72" text-anchor="middle">10</text></g><g class="dcg-svg-axis-value dcg-svg-offcenter-axis-value"><text fill="none" stroke="#ffffff" font-family="Arial" font-size="10px" font-style="normal" font-weight="normal" text-decoration="normal" x="67.5" y="154.72" text-anchor="middle" stroke-miterlimit="2" stroke-width="3" stroke-dasharray="">-10</text><text fill="#000000" stroke="none" font-family="Arial" font-size="10px" font-style="normal" font-weight="normal" text-decoration="normal" x="67.5" y="154.72" text-anchor="middle">-10</text></g><g class="dcg-svg-axis-value dcg-svg-offcenter-axis-value"><text fill="none" stroke="#ffffff" font-family="Arial" font-size="10px" font-style="normal" font-weight="normal" text-decoration="normal" x="69" y="10.72" text-anchor="middle" stroke-miterlimit="2" stroke-width="3" stroke-dasharray="">10</text><text fill="#000000" stroke="none" font-family="Arial" font-size="10px" font-style="normal" font-weight="normal" text-decoration="normal" x="69" y="10.72" text-anchor="middle">10</text></g></g></g></g><g id="expressions-2e9f7b6c"><g id="sketch-2e9f7b6c"><title>Expression 1</title><path fill="#c74440" stroke="none" paint-order="stroke fill markers" d="" fill-opacity="0.4"/><g><path fill="none" stroke="#c74440" class="dcg-svg-curve" paint-order="fill stroke markers" d=" M 0 79.27272727272727 L 0 79.27272727272727 L 20.584110075454944 79.05066891393659 L 34.645361739902356 78.80047916943964 L 44.6444740346205 78.52383292383293 L 52.065690190856635 78.21897233201581 L 57.690190856635596 77.88847235238988 L 62.10386151797603 77.52858905800082 L 65.61917443408788 77.14040932889101 L 68.4704837993786 76.72290909090908 L 70.81402574345317 76.27603305785124 L 72.76697736351531 75.79860139860139 L 74.4074567243675 75.29153605015674 L 75.8526409232135 74.73136509792458 L 77.10252996005326 74.12707722385142 L 78.19618286728806 73.47193045997827 L 79.17265867731913 72.74979887369268 L 80.03195739014647 71.96791443850267 L 80.77407900577009 71.14299754299755 L 81.43808255659121 70.24675324675324 L 82.02396804260985 69.29055258467024 L 82.53173546382601 68.2961038961039 L 83.00044385264093 67.19886363636364 L 83.46915224145583 65.87460815047022 L 83.89880159786951 64.3948051948052 L 84.28939192188193 62.75215311004784 L 84.64092321349312 60.94714587737843 L 84.9924545051043 58.72018890200708 L 85.30492676431425 56.25296442687747 L 85.61739902352419 53.13859910581223 L 85.89081225033289 49.65656565656565 L 86.16422547714158 45.13733075435202 L 86.39857967154904 40.035476718403544 L 86.6329338659565 33.184415584415575 L 86.82822902796272 25.381818181818204 L 87.02352418996892 14.458181818181856 L 87.21881935197514 -1.9272727272727082 L 87.24607225873713 -5.5" stroke-linecap="round" stroke-linejoin="round" stroke-miterlimit="10" stroke-width="2.5" stroke-opacity="0.9" stroke-dasharray=""/></g></g><g id="sketch-2e9f7b6c"><title>Expression 2</title><path fill="#2d70b3" stroke="none" paint-order="stroke fill markers" d="" fill-opacity="0.4"/><g><path fill="none" stroke="#2d70b3" class="dcg-svg-curve" paint-order="fill stroke markers" d=" M 88 160 L 88 155.6 M 88 152.79999999999998 L 88 148.39999999999998 M 88 145.59999999999997 L 88 141.19999999999996 M 88 138.39999999999995 L 88 133.99999999999994 M 88 131.19999999999993 L 88 126.79999999999993 M 88 123.99999999999993 L 88 119.59999999999992 M 88 116.79999999999993 L 88 112.39999999999992 M 88 109.59999999999992 L 88 105.19999999999992 M 88 102.39999999999992 L 88 97.99999999999991 M 88 95.19999999999992 L 88 90.79999999999991 M 88 87.99999999999991 L 88 83.59999999999991 M 88 80.79999999999991 L 88 76.3999999999999 M 88 73.59999999999991 L 88 69.1999999999999 M 88 66.3999999999999 L 88 61.99999999999991 M 88 59.19999999999991 L 88 54.79999999999991 M 88 51.999999999999915 L 88 47.599999999999916 M 88 44.79999999999992 L 88 40.39999999999992 M 88 37.59999999999992 L 88 33.199999999999925 M 88 30.399999999999924 L 88 25.999999999999922 M 88 23.19999999999992 L 88 18.79999999999992 M 88 15.999999999999918 L 88 11.599999999999918 M 88 8.799999999999917 L 88 4.399999999999917 M 88 1.5999999999999166 L 88 0" stroke-linecap="round" stroke-linejoin="round" stroke-miterlimit="10" stroke-opacity="0.9" stroke-dasharray=""/></g></g><g id="sketch-2e9f7b6c"><title>"x" equals 1</title></g></g><g id="labels-2e9f7b6c"><g transform="rotate(0,0,0) translate(88,64)"><g class="dcg-svg-label"><g transform="translate(-8.150459289550781,-5.932868957519531)"><g><text fill="none" stroke="#FFF" font-family="arial, sans-serif" font-size="9.9px" font-style="normal" font-weight="400" text-decoration="normal" x="0" y="9.594652416992187" text-anchor="start" stroke-linecap="round" stroke-linejoin="round" stroke-miterlimit="2" stroke-width="3" stroke-opacity="0.9" stroke-dasharray="">x=1</text></g></g><g transform="translate(-8.150459289550781,-5.932868957519531)"><g><text fill="rgb(56, 140, 70)" stroke="none" font-family="arial, sans-serif" font-size="9.9px" font-style="normal" font-weight="400" text-decoration="normal" x="0" y="9.594652416992187" text-anchor="start" fill-opacity="0.9">x=1</text></g></g></g></g></g></g></svg>