<svg version="1.1" xmlns="http://www.w3.org/2000/svg" viewBox="0 0 844.4067216984708 189.42629837322056" width="844.4067216984708" height="189.42629837322056">
  <!-- svg-source:excalidraw -->
  
  <defs>
    <style class="style-fonts">
      @font-face {
        font-family: "Virgil";
        src: url("https://excalidraw.com/Virgil.woff2");
      }
      @font-face {
        font-family: "Cascadia";
        src: url("https://excalidraw.com/Cascadia.woff2");
      }
    </style>
  </defs>
  <g stroke-linecap="round" transform="translate(121.61087143278564 125.61459219793414) rotate(0 52.70029727996257 25.520225839552495)"><path d="M12.76 0 M12.76 0 C34.54 0.35, 56.78 -1.76, 92.64 0 M12.76 0 C34.93 0.78, 58.24 0.31, 92.64 0 M92.64 0 C102.53 -0.34, 105.33 3.28, 105.4 12.76 M92.64 0 C100.92 1.11, 106.31 4.48, 105.4 12.76 M105.4 12.76 C105.64 23.81, 103.61 32.11, 105.4 38.28 M105.4 12.76 C106.32 19.55, 106.25 25.24, 105.4 38.28 M105.4 38.28 C104.94 45.3, 101.04 49.07, 92.64 51.04 M105.4 38.28 C107.61 47.73, 101.23 50.63, 92.64 51.04 M92.64 51.04 C76.07 51.28, 60.72 52.76, 12.76 51.04 M92.64 51.04 C62 50.13, 29.82 50.42, 12.76 51.04 M12.76 51.04 C4 49.73, 1.61 45.42, 0 38.28 M12.76 51.04 C2.47 51.6, 0.12 48.34, 0 38.28 M0 38.28 C-1.2 29.18, 0.59 19.88, 0 12.76 M0 38.28 C1 31.99, 0.31 25.21, 0 12.76 M0 12.76 C1.88 3.1, 3.76 1.9, 12.76 0 M0 12.76 C-0.03 2.94, 3.3 -0.6, 12.76 0" stroke="#000000" stroke-width="2" fill="none"></path></g><g stroke-linecap="round"><g transform="translate(174.3111544661242 125.19963079771969) rotate(0 0.021791524719446898 25.99885261902591)"><path d="M-0.35 0.24 C-0.29 8.84, -0.47 42.97, -0.44 51.68 M1.66 -0.68 C1.6 8.03, -1.17 43.61, -1.62 52.68" stroke="#000000" stroke-width="2" fill="none"></path></g></g><g stroke-linecap="round"><g transform="translate(227.84138879313832 151.13481091417452) rotate(0 -53.50687895592773 -0.21514376331106178)"><path d="M0.24 -0.44 C-17.65 -0.41, -89.48 -0.18, -107.25 -0.17 M-1.09 -1.71 C-18.63 -1.46, -87.38 0.86, -105.08 1.28" stroke="#000000" stroke-width="2" fill="none"></path></g></g><g transform="translate(128.49843781992604 129.40363134337986) rotate(0 20.5 10)"><text x="20.5" y="14" font-family="Virgil, Segoe UI Emoji" font-size="16px" fill="#000000" text-anchor="middle" style="white-space: pre;" direction="ltr">data</text></g><g transform="translate(181.9351313406969 129.40363134337986) rotate(0 18 10)"><text x="18" y="14" font-family="Virgil, Segoe UI Emoji" font-size="16px" fill="#000000" text-anchor="middle" style="white-space: pre;" direction="ltr">next</text></g><g stroke-linecap="round" transform="translate(174.72613011296198 151.5497865610123) rotate(0 25.72770653965972 11.826442645981842)"><path d="M1.57 1.37 C1.57 1.37, 1.57 1.37, 1.57 1.37 M1.57 1.37 C1.57 1.37, 1.57 1.37, 1.57 1.37 M4.99 9.64 C7.58 6.84, 8.59 5.61, 10.24 3.6 M4.99 9.64 C6.68 7.68, 8.62 5.85, 10.24 3.6 M3.81 23.19 C8.61 15.6, 14.38 8.88, 20.87 3.56 M3.81 23.19 C10.3 14.5, 17.75 8.47, 20.87 3.56 M13.78 23.91 C20.32 19.41, 25.95 10.4, 31.5 3.53 M13.78 23.91 C20.43 15.93, 26.84 9.04, 31.5 3.53 M24.41 23.87 C28.62 20.64, 34.31 15.79, 41.47 4.25 M24.41 23.87 C28.75 20.14, 31.9 14.65, 41.47 4.25 M35.04 23.84 C41.71 17.25, 49.45 7.98, 52.1 4.21 M35.04 23.84 C38.98 18.02, 43.99 13.28, 52.1 4.21 M45.67 23.8 C47.22 22.14, 49.8 20.32, 52.23 16.26 M45.67 23.8 C47.03 21.21, 49.19 19.12, 52.23 16.26" stroke="#ced4da" stroke-width="1" fill="none"></path><path d="M5.91 0 M5.91 0 C17.64 2.19, 25.3 -0.64, 45.54 0 M5.91 0 C14.38 0.03, 24.62 0.92, 45.54 0 M45.54 0 C48.13 -0.81, 50.79 3.23, 51.46 5.91 M45.54 0 C48.17 -0.76, 50.54 4.04, 51.46 5.91 M51.46 5.91 C51.73 8.77, 52.4 14.71, 51.46 17.74 M51.46 5.91 C51.55 9.04, 51.61 11.79, 51.46 17.74 M51.46 17.74 C51.41 21.12, 48.05 24.62, 45.54 23.65 M51.46 17.74 C51.15 23.27, 48.65 22.45, 45.54 23.65 M45.54 23.65 C31.66 25.7, 20.17 25.75, 5.91 23.65 M45.54 23.65 C31.38 24.4, 14.73 24, 5.91 23.65 M5.91 23.65 C2.49 22.63, -1.91 19.87, 0 17.74 M5.91 23.65 C1.73 23.48, -0.46 22.7, 0 17.74 M0 17.74 C-0.8 12.56, -0.02 8.96, 0 5.91 M0 17.74 C0.27 14.43, -0.23 11.07, 0 5.91 M0 5.91 C1.84 1.5, 1.08 -1.57, 5.91 0 M0 5.91 C1.59 3.89, 0.95 -0.62, 5.91 0" stroke="#000000" stroke-width="2" fill="none"></path></g><g transform="translate(135.49031568005375 155.8411297434177) rotate(0 12.5 10)"><text x="12.5" y="14" font-family="Virgil, Segoe UI Emoji" font-size="16px" fill="#000000" text-anchor="middle" style="white-space: pre;" direction="ltr">20</text></g><g stroke-linecap="round" transform="translate(279.44903975111947 125.61459219793414) rotate(0 52.70029727996257 25.520225839552495)"><path d="M12.76 0 M12.76 0 C41.65 -1.23, 67.98 0.3, 92.64 0 M12.76 0 C36.7 -1.47, 60.55 -0.13, 92.64 0 M92.64 0 C103.13 1.75, 104.04 2.55, 105.4 12.76 M92.64 0 C103.18 1.52, 104.19 2.19, 105.4 12.76 M105.4 12.76 C106.02 21.58, 105.8 26.02, 105.4 38.28 M105.4 12.76 C105.71 19.06, 105.77 24.42, 105.4 38.28 M105.4 38.28 C103.44 46.65, 101.76 49.8, 92.64 51.04 M105.4 38.28 C103.88 47.15, 101.93 49.61, 92.64 51.04 M92.64 51.04 C63.9 49.15, 34.82 50.78, 12.76 51.04 M92.64 51.04 C71.58 51.16, 50.84 51.48, 12.76 51.04 M12.76 51.04 C4.01 51.71, 1.75 45.89, 0 38.28 M12.76 51.04 C3.44 52.47, 0.45 47.33, 0 38.28 M0 38.28 C0.52 29.39, -0.89 18.45, 0 12.76 M0 38.28 C0.2 34.09, 0.81 27.93, 0 12.76 M0 12.76 C-1.65 4.64, 4.79 0.25, 12.76 0 M0 12.76 C1.07 3.29, 4.01 -0.01, 12.76 0" stroke="#000000" stroke-width="2" fill="none"></path></g><g stroke-linecap="round"><g transform="translate(332.14932278445804 125.19963079771969) rotate(0 -0.37691202344717567 27.087162234820426)"><path d="M-1.12 0.65 C-0.99 9.25, -0.32 43.89, -0.2 52.69 M0.5 -0.05 C0.53 9.27, -0.93 45.63, -1.25 54.23" stroke="#000000" stroke-width="2" fill="none"></path></g></g><g stroke-linecap="round"><g transform="translate(385.67955711147215 151.13481091417452) rotate(0 -54.0141966639319 -0.21862176939953315)"><path d="M-0.2 -0.01 C-17.79 0.01, -88.99 0.95, -106.66 0.76 M-1.77 -1.06 C-19.45 -1.43, -90.3 -1.06, -107.83 -0.96" stroke="#000000" stroke-width="2" fill="none"></path></g></g><g transform="translate(286.33660613825987 129.40363134337986) rotate(0 20.5 10)"><text x="20.5" y="14" font-family="Virgil, Segoe UI Emoji" font-size="16px" fill="#000000" text-anchor="middle" style="white-space: pre;" direction="ltr">data</text></g><g transform="translate(339.7732996590307 129.40363134337986) rotate(0 18 10)"><text x="18" y="14" font-family="Virgil, Segoe UI Emoji" font-size="16px" fill="#000000" text-anchor="middle" style="white-space: pre;" direction="ltr">next</text></g><g stroke-linecap="round" transform="translate(332.5642984312958 151.5497865610123) rotate(0 25.72770653965972 11.826442645981842)"><path d="M1.57 1.37 C1.57 1.37, 1.57 1.37, 1.57 1.37 M1.57 1.37 C1.57 1.37, 1.57 1.37, 1.57 1.37 M4.99 9.64 C6.43 7.57, 7.11 7.16, 10.24 3.6 M4.99 9.64 C6.88 7.64, 8.28 5.33, 10.24 3.6 M3.81 23.19 C9.88 17.49, 13.97 11.32, 20.87 3.56 M3.81 23.19 C7.31 17.82, 12.01 13.9, 20.87 3.56 M13.78 23.91 C18.47 17.99, 23.54 13.53, 31.5 3.53 M13.78 23.91 C19.16 17.81, 25.62 10.62, 31.5 3.53 M24.41 23.87 C30.93 16.94, 35.53 8.08, 41.47 4.25 M24.41 23.87 C28.11 20.8, 32.19 15.84, 41.47 4.25 M35.04 23.84 C38.96 20.45, 41.59 15.04, 52.1 4.21 M35.04 23.84 C40.2 17.08, 45.94 12.62, 52.1 4.21 M45.67 23.8 C48.11 22.81, 49.19 20.77, 52.23 16.26 M45.67 23.8 C46.66 22.71, 48.15 20.64, 52.23 16.26" stroke="#ced4da" stroke-width="1" fill="none"></path><path d="M5.91 0 M5.91 0 C17.05 2.2, 29.99 -1.02, 45.54 0 M5.91 0 C16.38 0.24, 28.31 0.24, 45.54 0 M45.54 0 C49.74 -0.03, 50.79 1.4, 51.46 5.91 M45.54 0 C50.85 1.97, 49.88 2.43, 51.46 5.91 M51.46 5.91 C51.44 9.58, 52.09 11.45, 51.46 17.74 M51.46 5.91 C51.17 8.23, 51.34 11.53, 51.46 17.74 M51.46 17.74 C49.64 23.2, 49.09 24.69, 45.54 23.65 M51.46 17.74 C53.07 20.28, 47.92 23.44, 45.54 23.65 M45.54 23.65 C34.07 23.28, 21.6 22.86, 5.91 23.65 M45.54 23.65 C33.03 24.12, 19.95 24.29, 5.91 23.65 M5.91 23.65 C3.32 24.95, 0.65 21.65, 0 17.74 M5.91 23.65 C2.08 23.67, -0.38 19.71, 0 17.74 M0 17.74 C-0.6 14.56, -0.37 12.09, 0 5.91 M0 17.74 C-0.31 12.75, 0.33 9.02, 0 5.91 M0 5.91 C-0.83 0.64, 3.48 -0.09, 5.91 0 M0 5.91 C1.71 0.67, 2.8 -1.76, 5.91 0" stroke="#000000" stroke-width="2" fill="none"></path></g><g transform="translate(293.3595161608041 155.8411297434177) rotate(0 12 10)"><text x="12" y="14" font-family="Virgil, Segoe UI Emoji" font-size="16px" fill="#000000" text-anchor="middle" style="white-space: pre;" direction="ltr">30</text></g><g stroke-linecap="round"><g transform="translate(244.26823418866888 164.03313292558596) rotate(0 17.385077280021278 -0.6196876022977449)"><path d="M-0.05 0.27 C5.8 0.19, 30.44 -1.29, 36.31 -1.51 M-1.54 -0.63 C4.1 -0.5, 29.7 -0.58, 35.64 -0.47" stroke="#000000" stroke-width="1" fill="none"></path></g><g transform="translate(244.26823418866888 164.03313292558596) rotate(0 17.385077280021278 -0.6196876022977449)"><path d="M19.2 6.35 C24.15 2.28, 31.54 1.2, 35.48 1.07 M18.59 4.88 C24.05 2.88, 30.3 2.22, 35.67 -0.63" stroke="#000000" stroke-width="1" fill="none"></path></g><g transform="translate(244.26823418866888 164.03313292558596) rotate(0 17.385077280021278 -0.6196876022977449)"><path d="M19.27 -5.89 C24.09 -5.08, 31.45 -1.29, 35.48 1.07 M18.66 -7.35 C24.19 -5.47, 30.42 -2.24, 35.67 -0.63" stroke="#000000" stroke-width="1" fill="none"></path></g></g><g transform="translate(10 155.8411297434177) rotate(0 13.5 10)"><text x="13.5" y="14" font-family="Virgil, Segoe UI Emoji" font-size="16px" fill="#000000" text-anchor="middle" style="white-space: pre;" direction="ltr">list</text></g><g stroke-linecap="round"><g transform="translate(44.44131606279552 164.68844077996346) rotate(0 30.095189891749442 -0.2066115813329361)"><path d="M-0.59 -0.49 C9.45 -0.35, 50.43 -0.22, 60.78 -0.1 M1.3 -1.79 C11.16 -1.37, 49.99 0.81, 59.98 1.38" stroke="#000000" stroke-width="1" fill="none"></path></g><g transform="translate(44.44131606279552 164.68844077996346) rotate(0 30.095189891749442 -0.2066115813329361)"><path d="M30.45 10.52 C41.05 8.91, 51.47 5.79, 58.47 0.92 M32.22 10.45 C37.78 8.19, 43.31 6.93, 60.81 1.44" stroke="#000000" stroke-width="1" fill="none"></path></g><g transform="translate(44.44131606279552 164.68844077996346) rotate(0 30.095189891749442 -0.2066115813329361)"><path d="M31.6 -9.97 C41.64 -4.52, 51.66 -0.59, 58.47 0.92 M33.37 -10.04 C38.66 -7.69, 43.94 -4.33, 60.81 1.44" stroke="#000000" stroke-width="1" fill="none"></path></g></g><g stroke-linecap="round"><g transform="translate(332.5946571662498 177.12670866083408) rotate(0 24.75650034133264 -11.899587884752236)"><path d="M-0.82 -1.02 C7.37 -5.05, 42.09 -19.15, 50.33 -23.15 M0.96 1.06 C8.98 -2.8, 42.17 -20.64, 49.94 -24.86" stroke="#000000" stroke-width="1" fill="none"></path></g></g><g transform="translate(13.521082120941628 117.77750914990702) rotate(0 21 10)"><text x="21" y="14" font-family="Virgil, Segoe UI Emoji" font-size="16px" fill="#000000" text-anchor="middle" style="white-space: pre;" direction="ltr">front</text></g><g stroke-linecap="round" transform="translate(279.44903975111947 11.643202005937383) rotate(0 52.70029727996257 25.520225839552495)"><path d="M12.76 0 M12.76 0 C41.28 -0.17, 72.71 0.82, 92.64 0 M12.76 0 C37.46 0.91, 62.7 -0.1, 92.64 0 M92.64 0 C100.17 -0.81, 105.89 4.08, 105.4 12.76 M92.64 0 C103.12 0.4, 107.22 2.52, 105.4 12.76 M105.4 12.76 C103.24 21.75, 106.03 26.97, 105.4 38.28 M105.4 12.76 C105.99 20.03, 104.96 27.91, 105.4 38.28 M105.4 38.28 C106.46 48.67, 102.41 50.16, 92.64 51.04 M105.4 38.28 C107.33 45.49, 101.47 50.42, 92.64 51.04 M92.64 51.04 C68.31 50.13, 47.2 51.78, 12.76 51.04 M92.64 51.04 C62.54 50.93, 34.35 51.82, 12.76 51.04 M12.76 51.04 C5.86 50.32, -0.48 48.24, 0 38.28 M12.76 51.04 C6.42 52.06, 0.57 47.71, 0 38.28 M0 38.28 C2.05 28.2, -1 17.35, 0 12.76 M0 38.28 C-0.57 32.22, -0.25 24.66, 0 12.76 M0 12.76 C1.37 5.23, 3.75 0.88, 12.76 0 M0 12.76 C1.91 2.34, 2.12 -0.24, 12.76 0" stroke="#000000" stroke-width="2" fill="none"></path></g><g stroke-linecap="round"><g transform="translate(332.14932278445804 11.228240605722931) rotate(0 0.3657652560664246 25.972011565240336)"><path d="M-0.58 -0.12 C-0.45 8.75, 0.46 44.17, 0.58 53.17 M1.31 -1.23 C1.35 7.28, 0.25 42.4, -0.06 51.3" stroke="#000000" stroke-width="2" fill="none"></path></g></g><g stroke-linecap="round"><g transform="translate(385.67955711147215 37.16342072217776) rotate(0 -53.289309587464686 0.7783823560566816)"><path d="M-0.12 0.58 C-17.74 0.7, -88.27 0.39, -105.76 0.12 M-1.64 -0.16 C-19.37 0.22, -89.2 1.73, -106.46 1.72" stroke="#000000" stroke-width="2" fill="none"></path></g></g><g transform="translate(286.33660613825987 15.432241151383096) rotate(0 20.5 10)"><text x="20.5" y="14" font-family="Virgil, Segoe UI Emoji" font-size="16px" fill="#000000" text-anchor="middle" style="white-space: pre;" direction="ltr">data</text></g><g transform="translate(339.7732996590307 15.432241151383096) rotate(0 18 10)"><text x="18" y="14" font-family="Virgil, Segoe UI Emoji" font-size="16px" fill="#000000" text-anchor="middle" style="white-space: pre;" direction="ltr">next</text></g><g stroke-linecap="round" transform="translate(332.5642984312958 37.578396369015536) rotate(0 25.72770653965972 11.826442645981842)"><path d="M1.57 1.37 C1.57 1.37, 1.57 1.37, 1.57 1.37 M1.57 1.37 C1.57 1.37, 1.57 1.37, 1.57 1.37 M4.99 9.64 C6.42 7.16, 8.23 5.05, 10.24 3.6 M4.99 9.64 C6.97 6.88, 9.33 5.18, 10.24 3.6 M3.81 23.19 C10.14 18.92, 15.57 10.15, 20.87 3.56 M3.81 23.19 C10.2 15.51, 16.36 8.9, 20.87 3.56 M13.78 23.91 C18.15 20.5, 23.99 15.47, 31.5 3.53 M13.78 23.91 C18.27 20, 21.57 14.33, 31.5 3.53 M24.41 23.87 C31.08 17.28, 38.82 8.01, 41.47 4.25 M24.41 23.87 C28.35 18.06, 33.36 13.31, 41.47 4.25 M35.04 23.84 C39.18 19.3, 45.35 14.49, 52.1 4.21 M35.04 23.84 C38.81 17.38, 44.23 11.94, 52.1 4.21 M45.67 23.8 C48.21 22.87, 48.7 19.55, 52.23 16.26 M45.67 23.8 C46.77 22.02, 48.78 20.7, 52.23 16.26" stroke="#ced4da" stroke-width="1" fill="none"></path><path d="M5.91 0 M5.91 0 C16.37 -1.01, 23.66 -0.67, 45.54 0 M5.91 0 C21.63 0.72, 35.91 1.29, 45.54 0 M45.54 0 C51.09 -0.89, 51.78 2.1, 51.46 5.91 M45.54 0 C49.78 0.39, 51.98 1.31, 51.46 5.91 M51.46 5.91 C52 9.27, 52.24 12.52, 51.46 17.74 M51.46 5.91 C51.98 8.4, 51.97 11.58, 51.46 17.74 M51.46 17.74 C53.21 23.26, 51.44 24.55, 45.54 23.65 M51.46 17.74 C53.4 22.98, 47.66 24.03, 45.54 23.65 M45.54 23.65 C30.82 23.07, 19.57 22.87, 5.91 23.65 M45.54 23.65 C31.46 23.31, 17.7 23.97, 5.91 23.65 M5.91 23.65 C2.46 23.75, 0.83 23.14, 0 17.74 M5.91 23.65 C3.2 24.8, -0.7 23.77, 0 17.74 M0 17.74 C-0.9 13.92, 1.01 7.95, 0 5.91 M0 17.74 C-0.37 15.1, -0.39 11.31, 0 5.91 M0 5.91 C1.44 3.95, 2.3 1.88, 5.91 0 M0 5.91 C1.12 2.35, 0.37 -2.11, 5.91 0" stroke="#000000" stroke-width="2" fill="none"></path></g><g transform="translate(296.3595161608041 41.869739551420935) rotate(0 9 10)"><text x="9" y="14" font-family="Virgil, Segoe UI Emoji" font-size="16px" fill="#000000" text-anchor="middle" style="white-space: pre;" direction="ltr">10</text></g><g transform="translate(36.15782470328759 15.53160309371924) rotate(0 19 10)"><text x="19" y="14" font-family="Virgil, Segoe UI Emoji" font-size="16px" fill="#000000" text-anchor="middle" style="white-space: pre;" direction="ltr">temp</text></g><g stroke-linecap="round"><g transform="translate(79.16973768379876 23.29071037194717) rotate(0 96.64965365985586 0.5514869075525439)"><path d="M-0.31 -0.58 C31.92 -0.78, 161.41 -0.35, 193.61 -0.28 M1.73 1.73 C33.78 1.61, 160.34 1.13, 192.61 1" stroke="#000000" stroke-width="1" fill="none"></path></g><g transform="translate(79.16973768379876 23.29071037194717) rotate(0 96.64965365985586 0.5514869075525439)"><path d="M163.49 11.2 C172.54 6.72, 181.66 6.21, 191.26 0.15 M164.79 12.17 C170.73 8.82, 177.52 7.35, 192.47 0.42" stroke="#000000" stroke-width="1" fill="none"></path></g><g transform="translate(79.16973768379876 23.29071037194717) rotate(0 96.64965365985586 0.5514869075525439)"><path d="M163.41 -9.32 C172.64 -7.26, 181.79 -1.22, 191.26 0.15 M164.71 -8.35 C170.55 -7.17, 177.37 -4.12, 192.47 0.42" stroke="#000000" stroke-width="1" fill="none"></path></g></g><g stroke-linecap="round"><g transform="translate(360.5804552058785 61.30287624834364) rotate(0 -106.56214095228484 32.252529580025566)"><path d="M0.19 -0.72 C0.47 2.65, 5.87 15.32, 1.18 20.85 C-3.52 26.39, -7.3 30.92, -27.97 32.49 C-48.65 34.06, -95.8 31.16, -122.86 30.28 C-149.91 29.39, -175.02 27.6, -190.31 27.18 C-205.6 26.76, -210.76 21.41, -214.57 27.75 C-218.38 34.09, -213.05 58.93, -213.16 65.22 M-1.16 1.52 C-0.99 4.93, 4.98 16.9, 0.36 21.77 C-4.27 26.63, -8.45 29.21, -28.9 30.71 C-49.35 32.21, -95.25 31.26, -122.35 30.78 C-149.45 30.3, -176.24 28.48, -191.48 27.81 C-206.71 27.14, -209.76 20.74, -213.77 26.75 C-217.78 32.77, -215.67 57.46, -215.55 63.89" stroke="#000000" stroke-width="1" fill="none"></path></g><g transform="translate(360.5804552058785 61.30287624834364) rotate(0 -106.56214095228484 32.252529580025566)"><path d="M-223.86 46.93 C-222.62 50.62, -217.21 56.4, -217.34 64.8 M-221.81 46.58 C-221.17 52.65, -218.21 57.6, -215.73 63.55" stroke="#000000" stroke-width="1" fill="none"></path></g><g transform="translate(360.5804552058785 61.30287624834364) rotate(0 -106.56214095228484 32.252529580025566)"><path d="M-211.03 46.37 C-213.15 50.22, -211.1 56.16, -217.34 64.8 M-208.98 46.02 C-212.67 52.28, -214.04 57.43, -215.73 63.55" stroke="#000000" stroke-width="1" fill="none"></path></g></g><g transform="translate(489.40672169847085 15.998278408970691) rotate(0 172.5 60)"><text x="0" y="14" font-family="Virgil, Segoe UI Emoji" font-size="16px" fill="#495057" text-anchor="start" style="white-space: pre;" direction="ltr">void addFront(ListNode*&amp;  front, int value)</text><text x="0" y="34" font-family="Virgil, Segoe UI Emoji" font-size="16px" fill="#495057" text-anchor="start" style="white-space: pre;" direction="ltr">{</text><text x="0" y="54" font-family="Virgil, Segoe UI Emoji" font-size="16px" fill="#495057" text-anchor="start" style="white-space: pre;" direction="ltr">    ListNode* temp = new ListNode(value);</text><text x="0" y="74" font-family="Virgil, Segoe UI Emoji" font-size="16px" fill="#495057" text-anchor="start" style="white-space: pre;" direction="ltr">    temp-&gt;next = front;</text><text x="0" y="94" font-family="Virgil, Segoe UI Emoji" font-size="16px" fill="#495057" text-anchor="start" style="white-space: pre;" direction="ltr">    front = temp;</text><text x="0" y="114" font-family="Virgil, Segoe UI Emoji" font-size="16px" fill="#495057" text-anchor="start" style="white-space: pre;" direction="ltr">}</text></g><g stroke-linecap="round"><g transform="translate(35.55109128213462 109.25995822124196) rotate(0 119.3485769858894 -31.784985293453474)"><path d="M-0.69 -0.2 C-0.43 -4.68, 0.78 -17.82, 1.3 -27.4 C1.81 -36.98, -12.68 -52.77, 2.39 -57.7 C17.46 -62.63, 60.51 -56.09, 91.72 -56.99 C122.93 -57.88, 164.56 -62.33, 189.64 -63.06 C214.71 -63.78, 233.46 -61.33, 242.17 -61.34 M1.15 -1.35 C1.79 -5.6, 3.34 -16.71, 3.46 -25.97 C3.59 -35.22, -12.79 -51.35, 1.9 -56.89 C16.59 -62.42, 60.47 -58.11, 91.61 -59.17 C122.75 -60.24, 163.48 -62.78, 188.74 -63.27 C214 -63.75, 234.3 -62.39, 243.18 -62.08" stroke="#c92a2a" stroke-width="1" fill="none"></path></g><g transform="translate(35.55109128213462 109.25995822124196) rotate(0 119.3485769858894 -31.784985293453474)"><path d="M216.9 -55.67 C224.12 -55.17, 230.05 -59.42, 244.35 -60.26 M216.34 -54.91 C222.06 -56.28, 228.64 -56.81, 242.55 -62.38" stroke="#c92a2a" stroke-width="1" fill="none"></path></g><g transform="translate(35.55109128213462 109.25995822124196) rotate(0 119.3485769858894 -31.784985293453474)"><path d="M217.73 -74.26 C224.64 -68.62, 230.35 -67.71, 244.35 -60.26 M217.17 -73.5 C222.6 -71.06, 229.01 -67.8, 242.55 -62.38" stroke="#c92a2a" stroke-width="1" fill="none"></path></g></g></svg>