<svg xmlns="http://www.w3.org/2000/svg" xmlns:xlink="http://www.w3.org/1999/xlink" viewBox="0 0 128.37 64.95"><defs><style>.cls-1,.cls-10,.cls-4,.cls-6,.cls-7{fill:none;}.cls-2{fill:#d8d9c9;}.cls-3{font-size:8px;fill:#231f20;font-family:Roboto-Regular, Roboto;}.cls-4{stroke:#ed1846;stroke-dasharray:3.9 2;}.cls-10,.cls-4,.cls-6,.cls-7{stroke-miterlimit:3.86;}.cls-10,.cls-4{stroke-width:0.5px;}.cls-5{clip-path:url(#clip-path);}.cls-6{stroke:#fff;stroke-width:0.75px;}.cls-7{stroke:#00aeef;}.cls-8{fill:#fff;}.cls-9{fill:#00aeef;}.cls-10{stroke:#231f20;}</style><clipPath id="clip-path" transform="translate(0 -30.59)"><rect class="cls-1" width="130.43" height="93.56"/></clipPath></defs><g id="Layer_2" data-name="Layer 2"><g id="Layer_1-2" data-name="Layer 1"><polyline class="cls-2" points="90.93 56.64 0.93 56.64 38.37 0 128.37 0"/><text class="cls-3" transform="translate(20.97 18.72)">v</text><text class="cls-3" transform="translate(60.45 62.78)">u</text><line class="cls-4" x1="38.37" x2="38.37" y2="56.64"/><g class="cls-5"><polyline class="cls-6" points="87.93 56.64 0.93 56.64 36.72 2.5"/><polyline class="cls-7" points="87.93 56.64 0.93 56.64 36.72 2.5"/></g><path class="cls-8" d="M38.22,30.82l-4.28,2.43a3,3,0,0,1,3.73,2.52" transform="translate(0 -30.59)"/><path class="cls-9" d="M38.37,30.59l-4.84,2.79a3.35,3.35,0,0,1,4.17,2.76" transform="translate(0 -30.59)"/><path class="cls-8" d="M90.68,87.23,86.3,85a3,3,0,0,1-.07,4.49" transform="translate(0 -30.59)"/><path class="cls-9" d="M90.93,87.23l-5-2.5a3.34,3.34,0,0,1,0,5" transform="translate(0 -30.59)"/><path class="cls-10" d="M8.85,75.47a13.81,13.81,0,0,1,6.48,11.76" transform="translate(0 -30.59)"/><text class="cls-3" transform="translate(15.59 50.75)">θ</text><text class="cls-3" transform="translate(41.06 32.46)">h</text><text class="cls-3" transform="translate(47.06 32.46)">= |v| |sinθ|</text></g></g></svg>