<svg xmlns="http://www.w3.org/2000/svg" xmlns:xlink="http://www.w3.org/1999/xlink" viewBox="0 0 150.07 171.56"><defs><style>.cls-1,.cls-10,.cls-11,.cls-3,.cls-5,.cls-7,.cls-8,.cls-9{fill:none;}.cls-2{clip-path:url(#clip-path);}.cls-3{stroke:#00aeef;}.cls-10,.cls-11,.cls-3,.cls-5,.cls-7,.cls-8,.cls-9{stroke-miterlimit:3.86;}.cls-3,.cls-5,.cls-7,.cls-8{stroke-width:0.5px;}.cls-4{font-size:8px;font-family:TimesNewRomanPSMT, Times New Roman;}.cls-4,.cls-6{fill:#231f20;}.cls-11,.cls-5{stroke:#231f20;}.cls-7,.cls-8{stroke:#939598;}.cls-7{stroke-dasharray:4 2;}.cls-8{stroke-dasharray:4 1;}.cls-9{stroke:#fff;stroke-width:0.75px;}.cls-10{stroke:#ed1846;}.cls-11{stroke-width:0.3px;}.cls-12{fill:#fff;}.cls-13{letter-spacing:0.05em;}</style><clipPath id="clip-path" transform="translate(0)"><rect class="cls-1" y="0.01" width="150.08" height="170.85"/></clipPath></defs><g id="Layer_2" data-name="Layer 2"><g id="Layer_1-2" data-name="Layer 1"><g class="cls-2"><path class="cls-3" d="M136.13,91.74C125.22,57.08,79.6,62.63,71.64,14.23L.27,85.13c7.85,48.51,53.46,43,64.26,77.74Zm-135-1.59L72.54,19M2.74,95.4,74.12,24.27M4.32,100.42,75.92,29.3M6.81,104.76,78.19,33.87M9.31,109.1,80.68,38.2M12,113.21l71.6-71.12M15.44,116.65l71.37-70.9m-68,74.33L90.45,49m-68,74.1L94.09,52.16M26.35,126,98,54.91M30.44,128.78l71.38-70.9M34.54,131.53l71.6-71.12M38.86,134.05,110,63.15M43,136.8l71.37-71.12M46.82,139.55l71.61-70.89M50.69,142.53l71.38-70.67M54.1,146l71.6-71.12M57.51,149.39,128.88,78.5M60.46,153.28l71.37-70.9M62.72,157.84l71.6-71.12" transform="translate(0)"/></g><text class="cls-4" transform="translate(134.16 124.1)">y</text><text class="cls-4" transform="translate(57.6 6.65)">z</text><line class="cls-5" x1="114.53" y1="117.9" x2="130.14" y2="122.18"/><polyline class="cls-6" points="128.35 123.53 132.17 122.7 129.22 120.14 130.14 122.18"/><line class="cls-5" x1="32.9" y1="129.97" x2="13.69" y2="148.78"/><polyline class="cls-6" points="13.44 146.55 12.22 150.27 15.92 149.01 13.7 148.78"/><line class="cls-5" x1="59.04" y1="26.28" x2="59.04" y2="11.15"/><polyline class="cls-6" points="60.79 12.55 59.04 9.05 57.29 12.55 59.04 11.15"/><text class="cls-4" transform="translate(7.66 155.31)">x</text><line class="cls-7" x1="34.1" y1="128.77" x2="71.28" y2="91.39"/><line class="cls-8" x1="44.38" y1="99.63" x2="111.28" y2="117.05"/><line class="cls-7" x1="59.04" y1="117.07" x2="59.04" y2="28.17"/><path class="cls-9" d="M62.72,23.1c7.83,48.52,53.45,43,64.26,77.73" transform="translate(0)"/><path class="cls-10" d="M62.72,23.1c7.83,48.52,53.45,43,64.26,77.73" transform="translate(0)"/><line class="cls-11" x1="113.76" y1="141.31" x2="103.44" y2="128.11"/><polyline class="cls-12" points="81.12 38.35 84.48 35.48 87.12 38.83 83.52 41.72"/><line class="cls-11" x1="104.16" y1="22.03" x2="73.43" y2="48.9"/><text class="cls-4" transform="translate(96.54 149.91)">Lines through</text><text class="cls-4" transform="translate(96.54 159.51)">generating curve</text><text class="cls-4" transform="translate(96.54 169.11)">parallel to </text><text class="cls-4" transform="translate(130.76 169.11)">x</text><text class="cls-4" transform="translate(134.31 169.11)">-axis</text><text class="cls-4" transform="translate(86.92 6.68)">Generating curve</text><text class="cls-4" transform="translate(86.92 16.28)">(in the </text><text class="cls-4" transform="translate(108.59 16.28)"><tspan class="cls-13">y</tspan><tspan x="4.4" y="0">z</tspan></text><text class="cls-4" transform="translate(116.65 16.28)">-plane)</text></g></g></svg>