<svg version="1.1" xmlns="http://www.w3.org/2000/svg" viewBox="0 0 479.87885376291524 200" width="479.87885376291524" height="200">
  <!-- svg-source:excalidraw -->
  
  <defs>
    <style>
      @font-face {
        font-family: "Virgil";
        src: url("https://excalidraw.com/Virgil.woff2");
      }
      @font-face {
        font-family: "Cascadia";
        src: url("https://excalidraw.com/Cascadia.woff2");
      }
    </style>
  </defs>
  <rect x="0" y="0" width="479.87885376291524" height="200" fill="#ffffff"></rect><g stroke-linecap="round"><g transform="translate(49.87885376291524 190) rotate(0 200 -90)"><path d="M0 0 C16.67 -20, 53.33 -106.67, 100 -120 C146.67 -133.33, 230 -70, 280 -80 C330 -90, 380 -163.33, 400 -180 M0 0 C16.67 -20, 53.33 -106.67, 100 -120 C146.67 -133.33, 230 -70, 280 -80 C330 -90, 380 -163.33, 400 -180" stroke="#000000" stroke-width="1" fill="none"></path></g></g><g stroke-linecap="round"><g transform="translate(10 130) rotate(0 140 -60)"><path d="M0 0 C46.67 -20, 233.33 -100, 280 -120" stroke="#c92a2a" stroke-width="2.5" fill="none" stroke-dasharray="8 10"></path></g></g><g stroke-linecap="round"><g transform="translate(229.87885376291524 110) rotate(0 120 -30)"><path d="M0 0 C40 -10, 200 -50, 240 -60" stroke="#1864ab" stroke-width="2.5" fill="none" stroke-dasharray="8 10"></path></g></g><g stroke-linecap="round" transform="translate(265.42554617961105 95.34639888249808) rotate(0 3.919200441432963 4.266674701922568)"><path d="M7.84 4.27 C7.84 4.51, 7.82 4.76, 7.78 5.01 C7.74 5.25, 7.68 5.49, 7.6 5.73 C7.52 5.96, 7.43 6.19, 7.31 6.4 C7.2 6.61, 7.07 6.82, 6.92 7.01 C6.78 7.2, 6.61 7.38, 6.44 7.54 C6.26 7.69, 6.08 7.84, 5.88 7.96 C5.68 8.09, 5.47 8.19, 5.26 8.28 C5.05 8.36, 4.82 8.43, 4.6 8.47 C4.38 8.51, 4.15 8.53, 3.92 8.53 C3.69 8.53, 3.46 8.51, 3.24 8.47 C3.02 8.43, 2.79 8.36, 2.58 8.28 C2.37 8.19, 2.16 8.09, 1.96 7.96 C1.76 7.84, 1.57 7.69, 1.4 7.54 C1.23 7.38, 1.06 7.2, 0.92 7.01 C0.77 6.82, 0.64 6.61, 0.53 6.4 C0.41 6.19, 0.31 5.96, 0.24 5.73 C0.16 5.49, 0.1 5.25, 0.06 5.01 C0.02 4.76, 0 4.51, 0 4.27 C0 4.02, 0.02 3.77, 0.06 3.53 C0.1 3.28, 0.16 3.04, 0.24 2.81 C0.31 2.58, 0.41 2.35, 0.53 2.13 C0.64 1.92, 0.77 1.71, 0.92 1.52 C1.06 1.33, 1.23 1.16, 1.4 1 C1.57 0.84, 1.76 0.7, 1.96 0.57 C2.16 0.45, 2.37 0.34, 2.58 0.26 C2.79 0.17, 3.02 0.11, 3.24 0.06 C3.46 0.02, 3.69 0, 3.92 0 C4.15 0, 4.38 0.02, 4.6 0.06 C4.82 0.11, 5.05 0.17, 5.26 0.26 C5.47 0.34, 5.68 0.45, 5.88 0.57 C6.08 0.7, 6.26 0.84, 6.44 1 C6.61 1.16, 6.78 1.33, 6.92 1.52 C7.07 1.71, 7.2 1.92, 7.31 2.13 C7.43 2.35, 7.52 2.58, 7.6 2.81 C7.68 3.04, 7.74 3.28, 7.78 3.53 C7.82 3.77, 7.83 4.14, 7.84 4.27 C7.85 4.39, 7.85 4.14, 7.84 4.27" stroke="none" stroke-width="0" fill="#868e96"></path><path d="M7.84 4.27 C7.84 4.51, 7.82 4.76, 7.78 5.01 C7.74 5.25, 7.68 5.49, 7.6 5.73 C7.52 5.96, 7.43 6.19, 7.31 6.4 C7.2 6.61, 7.07 6.82, 6.92 7.01 C6.78 7.2, 6.61 7.38, 6.44 7.54 C6.26 7.69, 6.08 7.84, 5.88 7.96 C5.68 8.09, 5.47 8.19, 5.26 8.28 C5.05 8.36, 4.82 8.43, 4.6 8.47 C4.38 8.51, 4.15 8.53, 3.92 8.53 C3.69 8.53, 3.46 8.51, 3.24 8.47 C3.02 8.43, 2.79 8.36, 2.58 8.28 C2.37 8.19, 2.16 8.09, 1.96 7.96 C1.76 7.84, 1.57 7.69, 1.4 7.54 C1.23 7.38, 1.06 7.2, 0.92 7.01 C0.77 6.82, 0.64 6.61, 0.53 6.4 C0.41 6.19, 0.31 5.96, 0.24 5.73 C0.16 5.49, 0.1 5.25, 0.06 5.01 C0.02 4.76, 0 4.51, 0 4.27 C0 4.02, 0.02 3.77, 0.06 3.53 C0.1 3.28, 0.16 3.04, 0.24 2.81 C0.31 2.58, 0.41 2.35, 0.53 2.13 C0.64 1.92, 0.77 1.71, 0.92 1.52 C1.06 1.33, 1.23 1.16, 1.4 1 C1.57 0.84, 1.76 0.7, 1.96 0.57 C2.16 0.45, 2.37 0.34, 2.58 0.26 C2.79 0.17, 3.02 0.11, 3.24 0.06 C3.46 0.02, 3.69 0, 3.92 0 C4.15 0, 4.38 0.02, 4.6 0.06 C4.82 0.11, 5.05 0.17, 5.26 0.26 C5.47 0.34, 5.68 0.45, 5.88 0.57 C6.08 0.7, 6.26 0.84, 6.44 1 C6.61 1.16, 6.78 1.33, 6.92 1.52 C7.07 1.71, 7.2 1.92, 7.31 2.13 C7.43 2.35, 7.52 2.58, 7.6 2.81 C7.68 3.04, 7.74 3.28, 7.78 3.53 C7.82 3.77, 7.83 4.14, 7.84 4.27 C7.85 4.39, 7.85 4.14, 7.84 4.27" stroke="#495057" stroke-width="2" fill="none"></path></g><g stroke-linecap="round" transform="translate(391.6599252220185 64.21181595169321) rotate(0 3.919200441432963 4.266674701922568)"><path d="M7.84 4.27 C7.84 4.51, 7.82 4.76, 7.78 5.01 C7.74 5.25, 7.68 5.49, 7.6 5.73 C7.52 5.96, 7.43 6.19, 7.31 6.4 C7.2 6.61, 7.07 6.82, 6.92 7.01 C6.78 7.2, 6.61 7.38, 6.44 7.54 C6.26 7.69, 6.08 7.84, 5.88 7.96 C5.68 8.09, 5.47 8.19, 5.26 8.28 C5.05 8.36, 4.82 8.43, 4.6 8.47 C4.38 8.51, 4.15 8.53, 3.92 8.53 C3.69 8.53, 3.46 8.51, 3.24 8.47 C3.02 8.43, 2.79 8.36, 2.58 8.28 C2.37 8.19, 2.16 8.09, 1.96 7.96 C1.76 7.84, 1.57 7.69, 1.4 7.54 C1.23 7.38, 1.06 7.2, 0.92 7.01 C0.77 6.82, 0.64 6.61, 0.53 6.4 C0.41 6.19, 0.31 5.96, 0.24 5.73 C0.16 5.49, 0.1 5.25, 0.06 5.01 C0.02 4.76, 0 4.51, 0 4.27 C0 4.02, 0.02 3.77, 0.06 3.53 C0.1 3.28, 0.16 3.04, 0.24 2.81 C0.31 2.58, 0.41 2.35, 0.53 2.13 C0.64 1.92, 0.77 1.71, 0.92 1.52 C1.06 1.33, 1.23 1.16, 1.4 1 C1.57 0.84, 1.76 0.7, 1.96 0.57 C2.16 0.45, 2.37 0.34, 2.58 0.26 C2.79 0.17, 3.02 0.11, 3.24 0.06 C3.46 0.02, 3.69 0, 3.92 0 C4.15 0, 4.38 0.02, 4.6 0.06 C4.82 0.11, 5.05 0.17, 5.26 0.26 C5.47 0.34, 5.68 0.45, 5.88 0.57 C6.08 0.7, 6.26 0.84, 6.44 1 C6.61 1.16, 6.78 1.33, 6.92 1.52 C7.07 1.71, 7.2 1.92, 7.31 2.13 C7.43 2.35, 7.52 2.58, 7.6 2.81 C7.68 3.04, 7.74 3.28, 7.78 3.53 C7.82 3.77, 7.83 4.14, 7.84 4.27 C7.85 4.39, 7.85 4.14, 7.84 4.27" stroke="none" stroke-width="0" fill="#868e96"></path><path d="M7.84 4.27 C7.84 4.51, 7.82 4.76, 7.78 5.01 C7.74 5.25, 7.68 5.49, 7.6 5.73 C7.52 5.96, 7.43 6.19, 7.31 6.4 C7.2 6.61, 7.07 6.82, 6.92 7.01 C6.78 7.2, 6.61 7.38, 6.44 7.54 C6.26 7.69, 6.08 7.84, 5.88 7.96 C5.68 8.09, 5.47 8.19, 5.26 8.28 C5.05 8.36, 4.82 8.43, 4.6 8.47 C4.38 8.51, 4.15 8.53, 3.92 8.53 C3.69 8.53, 3.46 8.51, 3.24 8.47 C3.02 8.43, 2.79 8.36, 2.58 8.28 C2.37 8.19, 2.16 8.09, 1.96 7.96 C1.76 7.84, 1.57 7.69, 1.4 7.54 C1.23 7.38, 1.06 7.2, 0.92 7.01 C0.77 6.82, 0.64 6.61, 0.53 6.4 C0.41 6.19, 0.31 5.96, 0.24 5.73 C0.16 5.49, 0.1 5.25, 0.06 5.01 C0.02 4.76, 0 4.51, 0 4.27 C0 4.02, 0.02 3.77, 0.06 3.53 C0.1 3.28, 0.16 3.04, 0.24 2.81 C0.31 2.58, 0.41 2.35, 0.53 2.13 C0.64 1.92, 0.77 1.71, 0.92 1.52 C1.06 1.33, 1.23 1.16, 1.4 1 C1.57 0.84, 1.76 0.7, 1.96 0.57 C2.16 0.45, 2.37 0.34, 2.58 0.26 C2.79 0.17, 3.02 0.11, 3.24 0.06 C3.46 0.02, 3.69 0, 3.92 0 C4.15 0, 4.38 0.02, 4.6 0.06 C4.82 0.11, 5.05 0.17, 5.26 0.26 C5.47 0.34, 5.68 0.45, 5.88 0.57 C6.08 0.7, 6.26 0.84, 6.44 1 C6.61 1.16, 6.78 1.33, 6.92 1.52 C7.07 1.71, 7.2 1.92, 7.31 2.13 C7.43 2.35, 7.52 2.58, 7.6 2.81 C7.68 3.04, 7.74 3.28, 7.78 3.53 C7.82 3.77, 7.83 4.14, 7.84 4.27 C7.85 4.39, 7.85 4.14, 7.84 4.27" stroke="#495057" stroke-width="2" fill="none"></path></g><g stroke-linecap="round" transform="translate(139.19116713720405 66.63474069339009) rotate(0 3.919200441432963 4.266674701922568)"><path d="M7.84 4.27 C7.84 4.51, 7.82 4.76, 7.78 5.01 C7.74 5.25, 7.68 5.49, 7.6 5.73 C7.52 5.96, 7.43 6.19, 7.31 6.4 C7.2 6.61, 7.07 6.82, 6.92 7.01 C6.78 7.2, 6.61 7.38, 6.44 7.54 C6.26 7.69, 6.08 7.84, 5.88 7.96 C5.68 8.09, 5.47 8.19, 5.26 8.28 C5.05 8.36, 4.82 8.43, 4.6 8.47 C4.38 8.51, 4.15 8.53, 3.92 8.53 C3.69 8.53, 3.46 8.51, 3.24 8.47 C3.02 8.43, 2.79 8.36, 2.58 8.28 C2.37 8.19, 2.16 8.09, 1.96 7.96 C1.76 7.84, 1.57 7.69, 1.4 7.54 C1.23 7.38, 1.06 7.2, 0.92 7.01 C0.77 6.82, 0.64 6.61, 0.53 6.4 C0.41 6.19, 0.31 5.96, 0.24 5.73 C0.16 5.49, 0.1 5.25, 0.06 5.01 C0.02 4.76, 0 4.51, 0 4.27 C0 4.02, 0.02 3.77, 0.06 3.53 C0.1 3.28, 0.16 3.04, 0.24 2.81 C0.31 2.58, 0.41 2.35, 0.53 2.13 C0.64 1.92, 0.77 1.71, 0.92 1.52 C1.06 1.33, 1.23 1.16, 1.4 1 C1.57 0.84, 1.76 0.7, 1.96 0.57 C2.16 0.45, 2.37 0.34, 2.58 0.26 C2.79 0.17, 3.02 0.11, 3.24 0.06 C3.46 0.02, 3.69 0, 3.92 0 C4.15 0, 4.38 0.02, 4.6 0.06 C4.82 0.11, 5.05 0.17, 5.26 0.26 C5.47 0.34, 5.68 0.45, 5.88 0.57 C6.08 0.7, 6.26 0.84, 6.44 1 C6.61 1.16, 6.78 1.33, 6.92 1.52 C7.07 1.71, 7.2 1.92, 7.31 2.13 C7.43 2.35, 7.52 2.58, 7.6 2.81 C7.68 3.04, 7.74 3.28, 7.78 3.53 C7.82 3.77, 7.83 4.14, 7.84 4.27 C7.85 4.39, 7.85 4.14, 7.84 4.27" stroke="none" stroke-width="0" fill="#868e96"></path><path d="M7.84 4.27 C7.84 4.51, 7.82 4.76, 7.78 5.01 C7.74 5.25, 7.68 5.49, 7.6 5.73 C7.52 5.96, 7.43 6.19, 7.31 6.4 C7.2 6.61, 7.07 6.82, 6.92 7.01 C6.78 7.2, 6.61 7.38, 6.44 7.54 C6.26 7.69, 6.08 7.84, 5.88 7.96 C5.68 8.09, 5.47 8.19, 5.26 8.28 C5.05 8.36, 4.82 8.43, 4.6 8.47 C4.38 8.51, 4.15 8.53, 3.92 8.53 C3.69 8.53, 3.46 8.51, 3.24 8.47 C3.02 8.43, 2.79 8.36, 2.58 8.28 C2.37 8.19, 2.16 8.09, 1.96 7.96 C1.76 7.84, 1.57 7.69, 1.4 7.54 C1.23 7.38, 1.06 7.2, 0.92 7.01 C0.77 6.82, 0.64 6.61, 0.53 6.4 C0.41 6.19, 0.31 5.96, 0.24 5.73 C0.16 5.49, 0.1 5.25, 0.06 5.01 C0.02 4.76, 0 4.51, 0 4.27 C0 4.02, 0.02 3.77, 0.06 3.53 C0.1 3.28, 0.16 3.04, 0.24 2.81 C0.31 2.58, 0.41 2.35, 0.53 2.13 C0.64 1.92, 0.77 1.71, 0.92 1.52 C1.06 1.33, 1.23 1.16, 1.4 1 C1.57 0.84, 1.76 0.7, 1.96 0.57 C2.16 0.45, 2.37 0.34, 2.58 0.26 C2.79 0.17, 3.02 0.11, 3.24 0.06 C3.46 0.02, 3.69 0, 3.92 0 C4.15 0, 4.38 0.02, 4.6 0.06 C4.82 0.11, 5.05 0.17, 5.26 0.26 C5.47 0.34, 5.68 0.45, 5.88 0.57 C6.08 0.7, 6.26 0.84, 6.44 1 C6.61 1.16, 6.78 1.33, 6.92 1.52 C7.07 1.71, 7.2 1.92, 7.31 2.13 C7.43 2.35, 7.52 2.58, 7.6 2.81 C7.68 3.04, 7.74 3.28, 7.78 3.53 C7.82 3.77, 7.83 4.14, 7.84 4.27 C7.85 4.39, 7.85 4.14, 7.84 4.27" stroke="#495057" stroke-width="2" fill="none"></path></g><g transform="translate(79.24783434292021 40.76419358640453) rotate(0 46.5 10)"><text x="0" y="14" font-family="Virgil, Segoe UI Emoji" font-size="16px" fill="#c92a2a" text-anchor="start" style="white-space: pre;" direction="ltr">tangent line</text></g><g transform="translate(281.93441279956164 55.47160971024255) rotate(0 43 10)"><text x="0" y="14" font-family="Virgil, Segoe UI Emoji" font-size="16px" fill="#1864ab" text-anchor="start" style="white-space: pre;" direction="ltr">secant line</text></g></svg>