<?xml version="1.0" encoding="UTF-8" standalone="no"?>
<!-- Created with Inkscape (http://www.inkscape.org/) -->
<svg
   xmlns:svg="http://www.w3.org/2000/svg"
   xmlns="http://www.w3.org/2000/svg"
   xmlns:xlink="http://www.w3.org/1999/xlink"
   version="1.0"
   width="365.66818"
   height="255.97897"
   id="svg13031"
   style="display:inline">
  <desc
     id="desc13033">Produced by GNUPLOT 4.2 patchlevel 4  </desc>
  <defs
     id="defs13035">
    <marker
       refX="0"
       refY="0"
       orient="auto"
       id="Arrow1Mstart"
       style="overflow:visible">
      <path
         d="M 0,0 L 5,-5 L -12.5,0 L 5,5 L 0,0 z"
         transform="matrix(0.4,0,0,0.4,4,0)"
         id="path5830"
         style="fill-rule:evenodd;stroke:#000000;stroke-width:1pt;marker-start:none" />
    </marker>
    <marker
       refX="0"
       refY="0"
       orient="auto"
       id="Arrow1Mend"
       style="overflow:visible">
      <path
         d="M 0,0 L 5,-5 L -12.5,0 L 5,5 L 0,0 z"
         transform="matrix(-0.4,0,0,-0.4,-4,0)"
         id="path5833"
         style="fill-rule:evenodd;stroke:#000000;stroke-width:1pt;marker-start:none" />
    </marker>
    <circle
       cx="0"
       cy="0"
       r="1"
       id="gpDot" />
    <path
       d="M -1,0 L 1,0 M 0,-1 L 0,1"
       id="gpPt0"
       style="stroke-width:0.222" />
    <path
       d="M -1,-1 L 1,1 M 1,-1 L -1,1"
       id="gpPt1"
       style="stroke-width:0.222" />
    <path
       d="M -1,0 L 1,0 M 0,-1 L 0,1 M -1,-1 L 1,1 M -1,1 L 1,-1"
       id="gpPt2"
       style="stroke-width:0.222" />
    <rect
       width="2"
       height="2"
       x="-1"
       y="-1"
       id="gpPt3"
       style="stroke-width:0.222" />
    <use
       id="gpPt4"
       style="stroke:none"
       x="0"
       y="0"
       width="600"
       height="480"
       xlink:href="#gpPt3" />
    <circle
       cx="0"
       cy="0"
       r="1"
       id="gpPt5"
       style="stroke-width:0.222" />
    <use
       id="gpPt6"
       style="stroke:none"
       x="0"
       y="0"
       width="600"
       height="480"
       xlink:href="#gpPt5" />
    <path
       d="M 0,-1.33 L -1.33,0.67 L 1.33,0.67 L 0,-1.33 z"
       id="gpPt7"
       style="stroke-width:0.222" />
    <use
       id="gpPt8"
       style="stroke:none"
       x="0"
       y="0"
       width="600"
       height="480"
       xlink:href="#gpPt7" />
    <use
       transform="scale(-1,-1)"
       id="gpPt9"
       x="0"
       y="0"
       width="600"
       height="480"
       xlink:href="#gpPt7" />
    <use
       id="gpPt10"
       style="stroke:none"
       x="0"
       y="0"
       width="600"
       height="480"
       xlink:href="#gpPt9" />
    <use
       transform="matrix(0.7071068,0.7071068,-0.7071068,0.7071068,0,0)"
       id="gpPt11"
       x="0"
       y="0"
       width="600"
       height="480"
       xlink:href="#gpPt3" />
    <use
       id="gpPt12"
       style="stroke:none"
       x="0"
       y="0"
       width="600"
       height="480"
       xlink:href="#gpPt11" />
    <use
       id="use13987"
       style="stroke:none"
       x="0"
       y="0"
       width="600"
       height="480"
       xlink:href="#gpPt11" />
    <use
       transform="matrix(0.7071068,0.7071068,-0.7071068,0.7071068,0,0)"
       id="use13985"
       x="0"
       y="0"
       width="600"
       height="480"
       xlink:href="#gpPt3" />
    <use
       id="use13983"
       style="stroke:none"
       x="0"
       y="0"
       width="600"
       height="480"
       xlink:href="#gpPt9" />
    <use
       transform="scale(-1,-1)"
       id="use13981"
       x="0"
       y="0"
       width="600"
       height="480"
       xlink:href="#gpPt7" />
    <use
       id="use13979"
       style="stroke:none"
       x="0"
       y="0"
       width="600"
       height="480"
       xlink:href="#gpPt7" />
    <path
       d="M 0,-1.33 L -1.33,0.67 L 1.33,0.67 L 0,-1.33 z"
       id="path13977"
       style="stroke-width:0.222" />
    <use
       id="use13975"
       style="stroke:none"
       x="0"
       y="0"
       width="600"
       height="480"
       xlink:href="#gpPt5" />
    <circle
       cx="0"
       cy="0"
       r="1"
       id="circle13973"
       style="stroke-width:0.222" />
    <use
       id="use13971"
       style="stroke:none"
       x="0"
       y="0"
       width="600"
       height="480"
       xlink:href="#gpPt3" />
    <rect
       width="2"
       height="2"
       x="-1"
       y="-1"
       id="rect13969"
       style="stroke-width:0.222" />
    <path
       d="M -1,0 L 1,0 M 0,-1 L 0,1 M -1,-1 L 1,1 M -1,1 L 1,-1"
       id="path13967"
       style="stroke-width:0.222" />
    <path
       d="M -1,-1 L 1,1 M 1,-1 L -1,1"
       id="path13965"
       style="stroke-width:0.222" />
    <path
       d="M -1,0 L 1,0 M 0,-1 L 0,1"
       id="path13963"
       style="stroke-width:0.222" />
    <circle
       cx="0"
       cy="0"
       r="1"
       id="circle13961" />
  </defs>
  <g
     transform="translate(-145.13666,-55.849628)"
     id="g13051"
     style="fill:none;stroke-width:1;stroke-linecap:butt;stroke-linejoin:miter" />
  <g
     transform="translate(-145.13666,-55.849628)"
     id="g13053"
     style="fill:none;stroke-width:1;stroke-linecap:butt;stroke-linejoin:miter" />
  <g
     transform="translate(-145.13666,-55.849628)"
     id="g13107"
     style="fill:none;stroke-width:1;stroke-linecap:butt;stroke-linejoin:miter">
    <path
       d=""
       id="path13109"
       style="stroke:#000000" />
  </g>
  <g
     transform="translate(-145.13666,-55.849628)"
     id="g13123"
     style="fill:none;stroke-width:1;stroke-linecap:butt;stroke-linejoin:miter">
    <path
       d=""
       id="path13125"
       style="stroke:#000000" />
  </g>
  <g
     transform="translate(-145.13666,-55.849628)"
     id="g13127"
     style="fill:none;stroke-width:1;stroke-linecap:butt;stroke-linejoin:miter">
    <path
       d=""
       id="path13129"
       style="stroke:#ff0000" />
  </g>
  <g
     transform="translate(-145.13666,-55.849628)"
     id="g13151"
     style="fill:none;stroke-width:1;stroke-linecap:butt;stroke-linejoin:miter">
    <path
       d=""
       id="path13153"
       style="stroke:#ff0000" />
  </g>
  <g
     transform="translate(-145.13666,-55.849628)"
     id="g13159"
     style="fill:none;stroke-width:1;stroke-linecap:butt;stroke-linejoin:miter">
    <path
       d=""
       id="path13161"
       style="stroke:#000000" />
  </g>
  <g
     transform="translate(-145.13666,-55.849628)"
     id="g13167"
     style="fill:none;stroke-width:1;stroke-linecap:butt;stroke-linejoin:miter">
    <path
       d=""
       id="path13169"
       style="stroke:#000000" />
  </g>
  <g
     transform="translate(-145.13666,-55.849628)"
     id="g13183"
     style="fill:none;stroke-width:1;stroke-linecap:butt;stroke-linejoin:miter">
    <path
       d=""
       id="path13185"
       style="stroke:#000000" />
  </g>
  <g
     transform="translate(-145.13666,-55.849628)"
     id="g13203"
     style="fill:none;stroke-width:1;stroke-linecap:butt;stroke-linejoin:miter">
    <path
       d=""
       id="path13205"
       style="stroke:#ff0000" />
  </g>
  <g
     transform="translate(-145.13666,-55.849628)"
     id="g13263"
     style="fill:none;stroke-width:1;stroke-linecap:butt;stroke-linejoin:miter">
    <path
       d=""
       id="path13265"
       style="stroke:#000000" />
  </g>
  <g
     transform="translate(-145.13666,-55.849628)"
     id="g13351"
     style="fill:none;stroke-width:1;stroke-linecap:butt;stroke-linejoin:miter" />
  <g
     transform="translate(-145.13666,-55.849628)"
     id="g13353"
     style="fill:none;stroke-width:1;stroke-linecap:butt;stroke-linejoin:miter" />
  <g
     transform="translate(-145.13666,-55.849628)"
     id="g13355"
     style="fill:none;stroke-width:1;stroke-linecap:butt;stroke-linejoin:miter" />
  <g
     transform="translate(305.37859,-8.0474344)"
     id="g13781"
     style="fill:none;stroke-width:1;stroke-linecap:butt;stroke-linejoin:miter" />
  <g
     transform="translate(305.37859,-8.0474344)"
     id="g13951"
     style="fill:none;stroke-width:1;stroke-linecap:butt;stroke-linejoin:miter">
    <path
       d="M 464.1,329.4 L 285.7,425.7 M 135.9,311 L 285.7,425.7"
       id="path13953" />
  </g>
  <g
     transform="translate(-145.13666,-55.849628)"
     id="layer4"
     style="display:inline">
    <path
       d="M 299.87452,221.32075 L 292.47452,240.72075 L 289.47452,246.32075 L 286.87452,250.02075 L 284.97452,252.12075 L 282.97452,253.82075 L 281.37452,254.62075 L 279.87452,255.12075 L 278.17452,255.32075 L 277.04015,254.93225 L 229.7,241.1 L 229.7,241.1 L 196.4,215.6 L 196.4,215.6 L 183.6,183.3 L 183.6,183.3 L 193.9,150.7 L 193.9,150.7 L 225.2,124.1 L 225.2,124.1 L 271.3,108.9 L 271.3,108.9 L 323,108.1 L 370.3,121.8 L 403.6,147.3 L 416.4,179.6 L 406.03726,212.41037 L 399.97452,215.12075 L 393.47452,217.62075 L 386.57452,220.02075 L 378.97452,222.32075 L 370.57452,224.22075 L 361.17452,225.92075 L 349.87452,227.02075 L 335.17452,227.22075 L 299.87452,221.32075 z M 321.69219,112.35469 L 322.99219,108.15469 M 272.93125,113.17812 L 271.33125,108.97812 M 320.3,116.7 L 321.7,112.3 M 274.7,117.5 L 272.9,113.1 M 318.8,121.5 L 320.3,116.7 M 276.6,122.2 L 274.7,117.5 M 317.2,126.8 L 318.8,121.5 M 366.25313,125.23906 L 370.25313,121.83906 M 278.6,127.4 L 276.6,122.2 M 229.43906,127.43906 L 225.23906,124.13906 M 362,128.8 L 366.3,125.2 M 315.3,132.5 L 317.2,126.8 M 280.9,133.1 L 278.6,127.4 M 234,130.9 L 229.4,127.4 M 357.4,132.7 L 362,128.8 M 238.9,134.6 L 234,130.9 M 313.3,139.1 L 315.3,132.5 M 352.4,137 L 357.4,132.7 M 283.5,139.6 L 280.9,133.1 M 244.2,138.7 L 238.9,134.6 M 346.8,141.7 L 352.4,137 M 250.1,143.2 L 244.2,138.7 M 310.8,146.9 L 313.3,139.1 M 286.5,147.3 L 283.5,139.6 M 340.6,147 L 346.8,141.7 M 256.8,148.4 L 250.1,143.2 M 307.6,157 L 310.8,146.9 M 333.1,153.3 L 340.6,147 M 290.5,157.3 L 286.5,147.3 M 397.62969,149.32344 L 403.52969,147.32344 M 264.7,154.4 L 256.8,148.4 M 391.4,151.3 L 397.7,149.3 M 199.95524,152.4221 L 193.95524,150.7221 M 384.6,153.6 L 391.4,151.3 M 206.4,154.3 L 199.9,152.4 M 323.4,161.6 L 333.1,153.3 M 377.2,156 L 384.6,153.6 M 213.3,156.3 L 206.4,154.3 M 275.1,162.3 L 264.7,154.4 M 369.1,158.7 L 377.2,156 M 220.9,158.5 L 213.3,156.3 M 300,181.5 L 307.6,157 M 300,181.5 L 290.5,157.3 M 229.3,160.9 L 220.9,158.5 M 359.8,161.7 L 369.1,158.7 M 238.7,163.7 L 229.3,160.9 M 300,181.5 L 323.4,161.6 M 348.8,165.4 L 359.8,161.7 M 300,181.5 L 275.1,162.3 M 250,167 L 238.7,163.7 M 334.5,170.1 L 348.8,165.4 M 264.7,171.2 L 250,167 M 300,181.5 L 334.5,170.1 M 300,181.5 L 264.7,171.2 M 409.76094,179.7 L 416.36094,179.6 M 402.7,179.8 L 409.8,179.7 M 395,179.9 L 402.7,179.8 M 386.8,180.1 L 395,179.9 M 377.6,180.2 L 386.8,180.1 M 367.2,180.4 L 377.6,180.2 M 354.9,180.6 L 367.2,180.4 M 338.8,180.8 L 354.9,180.6 M 300,181.5 L 338.8,180.8 M 405.97452,212.52075 L 300,181.5 M 261.2,182.1 L 300,181.5 M 265.5,192.9 L 300,181.5 M 276.6,201.4 L 300,181.5 M 277,254.8 L 300,181.5 M 245.1,182.3 L 261.2,182.1 M 232.8,182.5 L 245.1,182.3 M 222.4,182.7 L 232.8,182.5 M 213.2,182.9 L 222.4,182.7 M 205,183 L 213.2,182.9 M 197.3,183.1 L 205,183 M 190.2,183.2 L 197.3,183.1 M 183.67734,183.3 L 190.27734,183.2 M 251.2,197.6 L 265.5,192.9 M 240.2,201.2 L 251.2,197.6 M 230.9,204.2 L 240.2,201.2 M 266.9,209.6 L 276.6,201.4 M 222.8,206.9 L 230.9,204.2 M 299.90185,212.6442 L 289.17452,246.72075 M 215.4,209.4 L 222.8,206.9 M 208.6,211.6 L 215.4,209.4 M 259.4,215.9 L 266.9,209.6 M 202.3,213.7 L 208.6,211.6 M 196.4625,215.57656 L 202.3625,213.67656 M 253.2,221.3 L 259.4,215.9 M 247.6,226 L 253.2,221.3 M 242.6,230.2 L 247.6,226 M 238,234 L 242.6,230.2 M 233.7,237.6 L 238,234 M 229.72734,241.07266 L 233.7,237.6 M 299.98547,186.11076 L 399.97452,215.12075 M 299.97234,190.27774 L 393.47452,217.62075 M 299.95814,194.78244 L 386.57452,220.02075 M 299.94398,199.27796 L 378.97452,222.32075 M 299.9296,203.83982 L 370.57452,224.22075 M 299.91578,208.22553 L 361.17452,225.92075 M 299.98547,186.11076 L 278.17452,255.32075 M 299.90185,212.6442 L 349.87452,227.02075 M 299.88812,217.0022 L 335.17452,227.22075 M 299.97234,190.27774 L 279.87452,255.12075 M 299.9296,203.83982 L 284.77452,252.32075 M 299.95814,194.78244 L 281.27452,254.72075 M 299.94398,199.27796 L 282.77452,253.92075 M 299.91578,208.22553 L 286.67452,250.22075 M 299.88812,217.0022 L 292.47452,240.72075"
       id="path14232"
       style="fill:#ffffff;stroke:#ff0000;stroke-width:1;stroke-linecap:butt;stroke-linejoin:miter" />
    <path
       d="M 405.84904,252.3415 L 299.87452,221.32075"
       id="path15720"
       style="stroke:#000000;stroke-width:1.5;stroke-linecap:butt;stroke-linejoin:miter;marker-start:url(#Arrow1Mstart);marker-end:none;stroke-miterlimit:4;stroke-dasharray:none;display:inline" />
    <path
       d="M 300,147.5 L 299.87452,221.32075"
       id="path15684"
       style="fill:none;fill-rule:evenodd;stroke:#000000;stroke-width:1.5;stroke-linecap:butt;stroke-linejoin:miter;marker-start:url(#Arrow1Mstart);marker-end:none;stroke-miterlimit:4;stroke-dasharray:none;stroke-opacity:1;display:inline" />
    <path
       d="M 405.97452,212.52075 L 399.97452,215.12075 L 393.47452,217.62075 L 386.57452,220.02075 L 378.97452,222.32075 L 370.57452,224.22075 L 361.17452,225.92075 L 349.87452,227.02075 L 335.17452,227.22075 L 299.87452,221.32075"
       id="path15665"
       style="fill:none;fill-rule:evenodd;stroke:#000000;stroke-width:1.5;stroke-linecap:butt;stroke-linejoin:miter;stroke-miterlimit:4;stroke-dasharray:none;stroke-opacity:1" />
    <g
       transform="translate(217.56137,38.780994)"
       id="g19564">
      <g
         transform="matrix(0.6857143,0,0,-0.6857143,-120,450)"
         id="content"
         xml:space="preserve"
         style="font-style:normal;font-variant:normal;font-weight:normal;font-stretch:normal;letter-spacing:normal;word-spacing:normal;text-anchor:start;fill:none;fill-opacity:1;stroke:#000000;stroke-linecap:butt;stroke-linejoin:miter;stroke-miterlimit:10.43299961;stroke-dasharray:none;stroke-dashoffset:0;stroke-opacity:1"><path
           d="M 474.28,425.93 L 478.57,425.93 C 479.56,425.93 480.06,425.93 480.06,426.92 C 480.06,427.47 479.56,427.47 478.71,427.47 L 474.58,427.47 C 475.13,430.36 475.08,430.26 475.62,433.15 C 475.82,434.2 476.52,437.73 476.82,438.33 C 477.27,439.27 478.12,440.02 479.16,440.02 C 479.36,440.02 480.66,440.02 481.61,439.12 C 479.41,438.93 478.91,437.18 478.91,436.44 C 478.91,435.29 479.81,434.69 480.76,434.69 C 482.05,434.69 483.5,435.79 483.5,437.68 C 483.5,439.97 481.21,441.12 479.16,441.12 C 477.47,441.12 474.33,440.22 472.84,435.29 C 472.54,434.24 472.39,433.75 471.19,427.47 L 467.76,427.47 C 466.81,427.47 466.26,427.47 466.26,426.52 C 466.26,425.93 466.71,425.93 467.66,425.93 L 470.95,425.93 L 467.21,406.25 C 466.31,401.42 465.46,396.88 462.88,396.88 C 462.68,396.88 461.43,396.88 460.48,397.78 C 462.77,397.93 463.22,399.72 463.22,400.47 C 463.22,401.62 462.33,402.21 461.38,402.21 C 460.09,402.21 458.64,401.12 458.64,399.23 C 458.64,396.98 460.83,395.79 462.88,395.79 C 465.61,395.79 467.61,398.73 468.5,400.62 C 470.1,403.76 471.24,409.79 471.29,410.13 L 474.28,425.93 z"
           id="path19567"
           style="fill:#000000;stroke-width:0" /><path
           d="M 501.49,394.04 L 501.49,394.07 L 501.49,394.1 L 501.48,394.11 L 501.48,394.13 L 501.48,394.14 L 501.47,394.16 L 501.47,394.18 L 501.46,394.19 L 501.45,394.21 L 501.44,394.23 L 501.43,394.26 L 501.42,394.28 L 501.4,394.3 L 501.38,394.33 L 501.36,394.36 L 501.34,394.39 L 501.31,394.42 L 501.28,394.46 L 501.27,394.48 L 501.25,394.5 L 501.23,394.52 L 501.21,394.54 L 501.19,394.56 L 501.17,394.59 L 501.15,394.61 L 501.13,394.63 L 501.11,394.66 L 501.08,394.68 L 501.06,394.71 L 501.03,394.74 L 501.01,394.77 L 500.98,394.8 L 500.95,394.83 L 500.92,394.86 L 500.89,394.89 L 500.86,394.92 L 500.82,394.96 L 500.79,394.99 L 500.75,395.03 L 500.72,395.06 L 500.68,395.1 L 500.64,395.14 C 494.41,401.42 492.82,410.83 492.82,418.45 C 492.82,427.12 494.71,435.79 500.84,442.02 C 501.49,442.61 501.49,442.71 501.49,442.86 C 501.49,443.21 501.29,443.36 500.99,443.36 C 500.49,443.36 496.01,439.97 493.07,433.64 C 490.53,428.17 489.93,422.64 489.93,418.45 C 489.93,414.57 490.48,408.54 493.22,402.91 C 496.21,396.79 500.49,393.55 500.99,393.55 C 501.29,393.55 501.49,393.7 501.49,394.04 z"
           id="path19569"
           style="fill:#000000;stroke-width:0" /><path
           d="M 529.21,424.98 L 529.22,425.01 L 529.23,425.04 L 529.24,425.07 L 529.25,425.1 L 529.26,425.16 L 529.28,425.21 L 529.29,425.27 L 529.3,425.31 L 529.32,425.36 L 529.33,425.4 L 529.34,425.44 L 529.35,425.48 L 529.35,425.52 L 529.36,425.56 L 529.37,425.59 L 529.37,425.62 L 529.38,425.65 L 529.39,425.68 L 529.39,425.71 L 529.39,425.74 L 529.4,425.77 L 529.4,425.79 L 529.4,425.85 L 529.41,425.9 L 529.41,425.95 L 529.41,426 L 529.41,426.03 L 529.41,426.06 L 529.41,426.09 L 529.41,426.12 C 529.41,427.02 528.71,427.47 527.97,427.47 C 527.47,427.47 526.67,427.17 526.22,426.42 C 526.12,426.18 525.72,424.63 525.52,423.73 C 525.18,422.44 524.82,421.09 524.53,419.75 L 522.28,410.78 C 522.09,410.04 519.95,406.55 516.66,406.55 C 514.12,406.55 513.57,408.74 513.57,410.58 C 513.57,412.88 514.41,415.96 516.11,420.35 C 516.91,422.39 517.1,422.94 517.1,423.93 C 517.1,426.18 515.51,428.02 513.02,428.02 C 508.29,428.02 506.45,420.79 506.45,420.35 C 506.45,419.85 506.94,419.85 507.04,419.85 C 507.54,419.85 507.59,419.95 507.84,420.75 C 509.18,425.43 511.18,426.92 512.87,426.92 C 513.27,426.92 514.12,426.92 514.12,425.33 C 514.12,424.08 513.62,422.79 513.27,421.84 C 511.28,416.56 510.38,413.72 510.38,411.38 C 510.38,406.95 513.52,405.45 516.46,405.45 C 518.4,405.45 520.09,406.3 521.49,407.7 C 520.84,405.1 520.24,402.66 518.25,400.02 C 516.96,398.33 515.06,396.88 512.77,396.88 C 512.07,396.88 509.83,397.04 508.98,398.98 C 509.78,398.98 510.43,398.98 511.13,399.57 C 511.62,400.02 512.12,400.67 512.12,401.62 C 512.12,403.16 510.78,403.36 510.28,403.36 C 509.13,403.36 507.49,402.56 507.49,400.12 C 507.49,397.63 509.68,395.79 512.77,395.79 C 517.9,395.79 523.03,400.32 524.43,405.95 L 529.21,424.98 z"
           id="path19571"
           style="fill:#000000;stroke-width:0" /><path
           d="M 545.4,418.45 L 545.39,418.82 L 545.39,419.21 L 545.38,419.6 L 545.37,420.01 L 545.33,420.85 L 545.27,421.73 L 545.18,422.65 L 545.08,423.59 L 544.94,424.57 L 544.78,425.57 L 544.58,426.59 L 544.35,427.63 L 544.08,428.68 L 543.78,429.74 L 543.43,430.8 L 543.04,431.87 L 542.82,432.4 L 542.6,432.94 L 542.36,433.47 L 542.11,434 C 539.12,440.12 534.84,443.36 534.34,443.36 C 534.04,443.36 533.84,443.16 533.84,442.86 C 533.84,442.71 533.84,442.61 534.78,441.71 C 539.67,436.79 542.51,428.86 542.51,418.45 C 542.51,409.93 540.66,401.17 534.49,394.89 C 533.84,394.29 533.84,394.2 533.84,394.04 C 533.84,393.75 534.04,393.55 534.34,393.55 C 534.84,393.55 539.32,396.93 542.26,403.26 C 544.8,408.74 545.4,414.27 545.4,418.45 z"
           id="path19573"
           style="fill:#000000;stroke-width:0" /></g>    </g>
    <g
       transform="translate(116.27057,-17.001828)"
       id="g20015">
      <g
         transform="matrix(0.6857143,0,0,-0.6857143,-120,450)"
         id="g20017"
         xml:space="preserve"
         style="font-style:normal;font-variant:normal;font-weight:normal;font-stretch:normal;letter-spacing:normal;word-spacing:normal;text-anchor:start;fill:none;fill-opacity:1;stroke:#000000;stroke-linecap:butt;stroke-linejoin:miter;stroke-miterlimit:10.43299961;stroke-dasharray:none;stroke-dashoffset:0;stroke-opacity:1"><path
           d="M 480.21,424.98 L 480.22,425.01 L 480.23,425.04 L 480.24,425.07 L 480.25,425.1 L 480.26,425.16 L 480.28,425.21 L 480.29,425.27 L 480.3,425.31 L 480.32,425.36 L 480.33,425.4 L 480.34,425.44 L 480.35,425.48 L 480.35,425.52 L 480.36,425.56 L 480.37,425.59 L 480.37,425.62 L 480.38,425.65 L 480.39,425.68 L 480.39,425.71 L 480.39,425.74 L 480.4,425.77 L 480.4,425.79 L 480.4,425.85 L 480.41,425.9 L 480.41,425.95 L 480.41,426 L 480.41,426.03 L 480.41,426.06 L 480.41,426.09 L 480.41,426.12 C 480.41,427.02 479.71,427.47 478.96,427.47 C 478.46,427.47 477.67,427.17 477.22,426.42 C 477.12,426.18 476.72,424.63 476.52,423.73 C 476.18,422.44 475.82,421.09 475.53,419.75 L 473.29,410.78 C 473.09,410.04 470.95,406.55 467.66,406.55 C 465.12,406.55 464.57,408.74 464.57,410.58 C 464.57,412.88 465.41,415.96 467.11,420.35 C 467.91,422.39 468.11,422.94 468.11,423.93 C 468.11,426.18 466.51,428.02 464.02,428.02 C 459.29,428.02 457.45,420.79 457.45,420.35 C 457.45,419.85 457.94,419.85 458.04,419.85 C 458.54,419.85 458.59,419.95 458.84,420.75 C 460.18,425.43 462.18,426.92 463.87,426.92 C 464.27,426.92 465.12,426.92 465.12,425.33 C 465.12,424.08 464.62,422.79 464.27,421.84 C 462.28,416.56 461.38,413.72 461.38,411.38 C 461.38,406.95 464.52,405.45 467.46,405.45 C 469.4,405.45 471.09,406.3 472.49,407.7 C 471.84,405.1 471.24,402.66 469.25,400.02 C 467.96,398.33 466.06,396.88 463.77,396.88 C 463.07,396.88 460.83,397.04 459.98,398.98 C 460.78,398.98 461.43,398.98 462.13,399.57 C 462.62,400.02 463.12,400.67 463.12,401.62 C 463.12,403.16 461.78,403.36 461.28,403.36 C 460.13,403.36 458.49,402.56 458.49,400.12 C 458.49,397.63 460.68,395.79 463.77,395.79 C 468.9,395.79 474.03,400.32 475.43,405.95 L 480.21,424.98 z"
           id="path20019"
           style="fill:#000000;stroke-width:0" /></g>    </g>
  </g>
</svg>
