<svg xmlns="http://www.w3.org/2000/svg" xmlns:xlink="http://www.w3.org/1999/xlink" viewBox="0 0 131.12 93.82"><defs><style>.cls-1,.cls-11,.cls-13,.cls-14,.cls-2,.cls-3,.cls-4,.cls-5,.cls-7,.cls-9{fill:none;}.cls-2,.cls-7{stroke:#ed1846;}.cls-11,.cls-2,.cls-3,.cls-4,.cls-5,.cls-7,.cls-9{stroke-miterlimit:3.86;}.cls-13,.cls-2,.cls-3,.cls-7{stroke-width:0.5px;}.cls-2{stroke-dasharray:4 2;}.cls-13,.cls-14,.cls-3,.cls-4{stroke:#231f20;}.cls-5{stroke:#00acee;}.cls-6{clip-path:url(#clip-path);}.cls-8{fill:#ec1846;}.cls-9{stroke:#ec1846;}.cls-11,.cls-9{stroke-width:0.25px;}.cls-10{fill:#00acee;}.cls-11{stroke:#00aeef;}.cls-12{font-size:8px;font-family:TimesNewRomanPS-BoldMT, Times New Roman;font-weight:700;}.cls-12,.cls-15{fill:#231f20;}.cls-14{stroke-width:0.35px;}.cls-16{fill:#00aeef;}</style><clipPath id="clip-path" transform="translate(0)"><rect class="cls-1" y="0.01" width="131.12" height="92.93"/></clipPath></defs><g id="Layer_2" data-name="Layer 2"><g id="Layer_1-2" data-name="Layer 1"><line class="cls-2" x1="70.46" y1="68.49" x2="57.11" y2="13.64"/><polyline class="cls-3" points="62.29 70.52 60.39 62.82 68.09 60.92"/><line class="cls-4" x1="57.56" y1="83.3" x2="92.56" y2="74.49"/><line class="cls-5" x1="17.06" y1="81.99" x2="54.28" y2="15.72"/><g class="cls-6"><path class="cls-3" d="M26,66.49a17.53,17.53,0,0,1,8.3,10.81" transform="translate(0)"/><line class="cls-7" x1="0.06" y1="85.99" x2="131.06" y2="53.3"/></g><path class="cls-8" d="M58.31,11.8a1.75,1.75,0,1,1-1.75-1.75,1.75,1.75,0,0,1,1.75,1.75" transform="translate(0)"/><circle class="cls-9" cx="56.56" cy="11.8" r="1.75"/><path class="cls-10" d="M18.91,81.84a1.75,1.75,0,1,1-1.75-1.75,1.75,1.75,0,0,1,1.75,1.75" transform="translate(0)"/><circle class="cls-11" cx="17.16" cy="81.84" r="1.75"/><text class="cls-12" transform="translate(54.98 6.65)">S</text><text class="cls-12" transform="translate(14.76 91.2)">P</text><text class="cls-12" transform="translate(73.02 85.96)">v</text><text class="cls-12" transform="translate(33.76 70.14)">θ</text><path class="cls-13" d="M59.18,11.4s1.91-.62,2.33,1,5.55,23.94,5.55,23.94a2.41,2.41,0,0,0,3.12,1.85,2.41,2.41,0,0,0-1.85,3.12s5.13,22.3,5.55,23.94-1.55,2-1.55,2" transform="translate(0)"/><text class="cls-12" transform="translate(74.68 36.68)">||PS|| sinθ</text><line class="cls-14" x1="78.3" y1="30.46" x2="84.69" y2="30.46"/><path class="cls-15" d="M84.36,30.63h3.51a12.31,12.31,0,0,1-3.07-1.46c-.29-.22-.44,1.46-.44,1.46" transform="translate(0)"/><path class="cls-16" d="M55.58,13.26,51,16.44a3.34,3.34,0,0,1,4.38,2.41" transform="translate(0)"/><path class="cls-15" d="M95.67,73.57,90.2,72.42a3.36,3.36,0,0,1,1.28,4.84" transform="translate(0)"/></g></g></svg>