<svg version="1.1" xmlns="http://www.w3.org/2000/svg" xmlns:xlink="http://www.w3.org/1999/xlink" width="2000" height="2000"><defs/><g transform="scale(2,2)"><g id="background-37d6525c"><rect fill="white" stroke="none" x="0" y="0" width="1000" height="1000" class="dcg-svg-background"/></g><g id="background-images-37d6525c"/><g id="graphpaper-37d6525c"><g id="grid-37d6525c"><g><path fill="none" stroke="rgb(0,0,0)" class="dcg-svg-minor-gridline" paint-order="fill stroke markers" d=" M 2.5 0 L 2.5 1000" stroke-opacity="0.2" stroke-miterlimit="10" stroke-dasharray=""/><path fill="none" stroke="rgb(0,0,0)" class="dcg-svg-minor-gridline" paint-order="fill stroke markers" d=" M 31.5 0 L 31.5 1000" stroke-opacity="0.2" stroke-miterlimit="10" stroke-dasharray=""/><path fill="none" stroke="rgb(0,0,0)" class="dcg-svg-minor-gridline" paint-order="fill stroke markers" d=" M 60.5 0 L 60.5 1000" stroke-opacity="0.2" stroke-miterlimit="10" stroke-dasharray=""/><path fill="none" stroke="rgb(0,0,0)" class="dcg-svg-minor-gridline" paint-order="fill stroke markers" d=" M 89.5 0 L 89.5 1000" stroke-opacity="0.2" stroke-miterlimit="10" stroke-dasharray=""/><path fill="none" stroke="rgb(0,0,0)" class="dcg-svg-minor-gridline" paint-order="fill stroke markers" d=" M 118.5 0 L 118.5 1000" stroke-opacity="0.2" stroke-miterlimit="10" stroke-dasharray=""/><path fill="none" stroke="rgb(0,0,0)" class="dcg-svg-minor-gridline" paint-order="fill stroke markers" d=" M 147.5 0 L 147.5 1000" stroke-opacity="0.2" stroke-miterlimit="10" stroke-dasharray=""/><path fill="none" stroke="rgb(0,0,0)" class="dcg-svg-minor-gridline" paint-order="fill stroke markers" d=" M 176.5 0 L 176.5 1000" stroke-opacity="0.2" stroke-miterlimit="10" stroke-dasharray=""/><path fill="none" stroke="rgb(0,0,0)" class="dcg-svg-minor-gridline" paint-order="fill stroke markers" d=" M 205.5 0 L 205.5 1000" stroke-opacity="0.2" stroke-miterlimit="10" stroke-dasharray=""/><path fill="none" stroke="rgb(0,0,0)" class="dcg-svg-minor-gridline" paint-order="fill stroke markers" d=" M 234.5 0 L 234.5 1000" stroke-opacity="0.2" stroke-miterlimit="10" stroke-dasharray=""/><path fill="none" stroke="rgb(0,0,0)" class="dcg-svg-minor-gridline" paint-order="fill stroke markers" d=" M 263.5 0 L 263.5 1000" stroke-opacity="0.2" stroke-miterlimit="10" stroke-dasharray=""/><path fill="none" stroke="rgb(0,0,0)" class="dcg-svg-minor-gridline" paint-order="fill stroke markers" d=" M 292.5 0 L 292.5 1000" stroke-opacity="0.2" stroke-miterlimit="10" stroke-dasharray=""/><path fill="none" stroke="rgb(0,0,0)" class="dcg-svg-minor-gridline" paint-order="fill stroke markers" d=" M 321.5 0 L 321.5 1000" stroke-opacity="0.2" stroke-miterlimit="10" stroke-dasharray=""/><path fill="none" stroke="rgb(0,0,0)" class="dcg-svg-minor-gridline" paint-order="fill stroke markers" d=" M 350.5 0 L 350.5 1000" stroke-opacity="0.2" stroke-miterlimit="10" stroke-dasharray=""/><path fill="none" stroke="rgb(0,0,0)" class="dcg-svg-minor-gridline" paint-order="fill stroke markers" d=" M 379.5 0 L 379.5 1000" stroke-opacity="0.2" stroke-miterlimit="10" stroke-dasharray=""/><path fill="none" stroke="rgb(0,0,0)" class="dcg-svg-minor-gridline" paint-order="fill stroke markers" d=" M 408.5 0 L 408.5 1000" stroke-opacity="0.2" stroke-miterlimit="10" stroke-dasharray=""/><path fill="none" stroke="rgb(0,0,0)" class="dcg-svg-minor-gridline" paint-order="fill stroke markers" d=" M 437.5 0 L 437.5 1000" stroke-opacity="0.2" stroke-miterlimit="10" stroke-dasharray=""/><path fill="none" stroke="rgb(0,0,0)" class="dcg-svg-minor-gridline" paint-order="fill stroke markers" d=" M 466.5 0 L 466.5 1000" stroke-opacity="0.2" stroke-miterlimit="10" stroke-dasharray=""/><path fill="none" stroke="rgb(0,0,0)" class="dcg-svg-minor-gridline" paint-order="fill stroke markers" d=" M 495.5 0 L 495.5 1000" stroke-opacity="0.2" stroke-miterlimit="10" stroke-dasharray=""/><path fill="none" stroke="rgb(0,0,0)" class="dcg-svg-minor-gridline" paint-order="fill stroke markers" d=" M 524.5 0 L 524.5 1000" stroke-opacity="0.2" stroke-miterlimit="10" stroke-dasharray=""/><path fill="none" stroke="rgb(0,0,0)" class="dcg-svg-minor-gridline" paint-order="fill stroke markers" d=" M 553.5 0 L 553.5 1000" stroke-opacity="0.2" stroke-miterlimit="10" stroke-dasharray=""/><path fill="none" stroke="rgb(0,0,0)" class="dcg-svg-minor-gridline" paint-order="fill stroke markers" d=" M 611.5 0 L 611.5 1000" stroke-opacity="0.2" stroke-miterlimit="10" stroke-dasharray=""/><path fill="none" stroke="rgb(0,0,0)" class="dcg-svg-minor-gridline" paint-order="fill stroke markers" d=" M 640.5 0 L 640.5 1000" stroke-opacity="0.2" stroke-miterlimit="10" stroke-dasharray=""/><path fill="none" stroke="rgb(0,0,0)" class="dcg-svg-minor-gridline" paint-order="fill stroke markers" d=" M 669.5 0 L 669.5 1000" stroke-opacity="0.2" stroke-miterlimit="10" stroke-dasharray=""/><path fill="none" stroke="rgb(0,0,0)" class="dcg-svg-minor-gridline" paint-order="fill stroke markers" d=" M 698.5 0 L 698.5 1000" stroke-opacity="0.2" stroke-miterlimit="10" stroke-dasharray=""/><path fill="none" stroke="rgb(0,0,0)" class="dcg-svg-minor-gridline" paint-order="fill stroke markers" d=" M 727.5 0 L 727.5 1000" stroke-opacity="0.2" stroke-miterlimit="10" stroke-dasharray=""/><path fill="none" stroke="rgb(0,0,0)" class="dcg-svg-minor-gridline" paint-order="fill stroke markers" d=" M 756.5 0 L 756.5 1000" stroke-opacity="0.2" stroke-miterlimit="10" stroke-dasharray=""/><path fill="none" stroke="rgb(0,0,0)" class="dcg-svg-minor-gridline" paint-order="fill stroke markers" d=" M 785.5 0 L 785.5 1000" stroke-opacity="0.2" stroke-miterlimit="10" stroke-dasharray=""/><path fill="none" stroke="rgb(0,0,0)" class="dcg-svg-minor-gridline" paint-order="fill stroke markers" d=" M 814.5 0 L 814.5 1000" stroke-opacity="0.2" stroke-miterlimit="10" stroke-dasharray=""/><path fill="none" stroke="rgb(0,0,0)" class="dcg-svg-minor-gridline" paint-order="fill stroke markers" d=" M 843.5 0 L 843.5 1000" stroke-opacity="0.2" stroke-miterlimit="10" stroke-dasharray=""/><path fill="none" stroke="rgb(0,0,0)" class="dcg-svg-minor-gridline" paint-order="fill stroke markers" d=" M 872.5 0 L 872.5 1000" stroke-opacity="0.2" stroke-miterlimit="10" stroke-dasharray=""/><path fill="none" stroke="rgb(0,0,0)" class="dcg-svg-minor-gridline" paint-order="fill stroke markers" d=" M 901.5 0 L 901.5 1000" stroke-opacity="0.2" stroke-miterlimit="10" stroke-dasharray=""/><path fill="none" stroke="rgb(0,0,0)" class="dcg-svg-minor-gridline" paint-order="fill stroke markers" d=" M 930.5 0 L 930.5 1000" stroke-opacity="0.2" stroke-miterlimit="10" stroke-dasharray=""/><path fill="none" stroke="rgb(0,0,0)" class="dcg-svg-minor-gridline" paint-order="fill stroke markers" d=" M 959.5 0 L 959.5 1000" stroke-opacity="0.2" stroke-miterlimit="10" stroke-dasharray=""/><path fill="none" stroke="rgb(0,0,0)" class="dcg-svg-minor-gridline" paint-order="fill stroke markers" d=" M 987.5 0 L 987.5 1000" stroke-opacity="0.2" stroke-miterlimit="10" stroke-dasharray=""/><path fill="none" stroke="rgb(0,0,0)" class="dcg-svg-minor-gridline" paint-order="fill stroke markers" d=" M 0 998.5 L 1000 998.5" stroke-opacity="0.2" stroke-miterlimit="10" stroke-dasharray=""/><path fill="none" stroke="rgb(0,0,0)" class="dcg-svg-minor-gridline" paint-order="fill stroke markers" d=" M 0 969.5 L 1000 969.5" stroke-opacity="0.2" stroke-miterlimit="10" stroke-dasharray=""/><path fill="none" stroke="rgb(0,0,0)" class="dcg-svg-minor-gridline" paint-order="fill stroke markers" d=" M 0 940.5 L 1000 940.5" stroke-opacity="0.2" stroke-miterlimit="10" stroke-dasharray=""/><path fill="none" stroke="rgb(0,0,0)" class="dcg-svg-minor-gridline" paint-order="fill stroke markers" d=" M 0 911.5 L 1000 911.5" stroke-opacity="0.2" stroke-miterlimit="10" stroke-dasharray=""/><path fill="none" stroke="rgb(0,0,0)" class="dcg-svg-minor-gridline" paint-order="fill stroke markers" d=" M 0 882.5 L 1000 882.5" stroke-opacity="0.2" stroke-miterlimit="10" stroke-dasharray=""/><path fill="none" stroke="rgb(0,0,0)" class="dcg-svg-minor-gridline" paint-order="fill stroke markers" d=" M 0 853.5 L 1000 853.5" stroke-opacity="0.2" stroke-miterlimit="10" stroke-dasharray=""/><path fill="none" stroke="rgb(0,0,0)" class="dcg-svg-minor-gridline" paint-order="fill stroke markers" d=" M 0 824.5 L 1000 824.5" stroke-opacity="0.2" stroke-miterlimit="10" stroke-dasharray=""/><path fill="none" stroke="rgb(0,0,0)" class="dcg-svg-minor-gridline" paint-order="fill stroke markers" d=" M 0 795.5 L 1000 795.5" stroke-opacity="0.2" stroke-miterlimit="10" stroke-dasharray=""/><path fill="none" stroke="rgb(0,0,0)" class="dcg-svg-minor-gridline" paint-order="fill stroke markers" d=" M 0 766.5 L 1000 766.5" stroke-opacity="0.2" stroke-miterlimit="10" stroke-dasharray=""/><path fill="none" stroke="rgb(0,0,0)" class="dcg-svg-minor-gridline" paint-order="fill stroke markers" d=" M 0 737.5 L 1000 737.5" stroke-opacity="0.2" stroke-miterlimit="10" stroke-dasharray=""/><path fill="none" stroke="rgb(0,0,0)" class="dcg-svg-minor-gridline" paint-order="fill stroke markers" d=" M 0 709.5 L 1000 709.5" stroke-opacity="0.2" stroke-miterlimit="10" stroke-dasharray=""/><path fill="none" stroke="rgb(0,0,0)" class="dcg-svg-minor-gridline" paint-order="fill stroke markers" d=" M 0 680.5 L 1000 680.5" stroke-opacity="0.2" stroke-miterlimit="10" stroke-dasharray=""/><path fill="none" stroke="rgb(0,0,0)" class="dcg-svg-minor-gridline" paint-order="fill stroke markers" d=" M 0 651.5 L 1000 651.5" stroke-opacity="0.2" stroke-miterlimit="10" stroke-dasharray=""/><path fill="none" stroke="rgb(0,0,0)" class="dcg-svg-minor-gridline" paint-order="fill stroke markers" d=" M 0 622.5 L 1000 622.5" stroke-opacity="0.2" stroke-miterlimit="10" stroke-dasharray=""/><path fill="none" stroke="rgb(0,0,0)" class="dcg-svg-minor-gridline" paint-order="fill stroke markers" d=" M 0 593.5 L 1000 593.5" stroke-opacity="0.2" stroke-miterlimit="10" stroke-dasharray=""/><path fill="none" stroke="rgb(0,0,0)" class="dcg-svg-minor-gridline" paint-order="fill stroke markers" d=" M 0 564.5 L 1000 564.5" stroke-opacity="0.2" stroke-miterlimit="10" stroke-dasharray=""/><path fill="none" stroke="rgb(0,0,0)" class="dcg-svg-minor-gridline" paint-order="fill stroke markers" d=" M 0 535.5 L 1000 535.5" stroke-opacity="0.2" stroke-miterlimit="10" stroke-dasharray=""/><path fill="none" stroke="rgb(0,0,0)" class="dcg-svg-minor-gridline" paint-order="fill stroke markers" d=" M 0 477.5 L 1000 477.5" stroke-opacity="0.2" stroke-miterlimit="10" stroke-dasharray=""/><path fill="none" stroke="rgb(0,0,0)" class="dcg-svg-minor-gridline" paint-order="fill stroke markers" d=" M 0 448.5 L 1000 448.5" stroke-opacity="0.2" stroke-miterlimit="10" stroke-dasharray=""/><path fill="none" stroke="rgb(0,0,0)" class="dcg-svg-minor-gridline" paint-order="fill stroke markers" d=" M 0 419.5 L 1000 419.5" stroke-opacity="0.2" stroke-miterlimit="10" stroke-dasharray=""/><path fill="none" stroke="rgb(0,0,0)" class="dcg-svg-minor-gridline" paint-order="fill stroke markers" d=" M 0 390.5 L 1000 390.5" stroke-opacity="0.2" stroke-miterlimit="10" stroke-dasharray=""/><path fill="none" stroke="rgb(0,0,0)" class="dcg-svg-minor-gridline" paint-order="fill stroke markers" d=" M 0 361.5 L 1000 361.5" stroke-opacity="0.2" stroke-miterlimit="10" stroke-dasharray=""/><path fill="none" stroke="rgb(0,0,0)" class="dcg-svg-minor-gridline" paint-order="fill stroke markers" d=" M 0 332.5 L 1000 332.5" stroke-opacity="0.2" stroke-miterlimit="10" stroke-dasharray=""/><path fill="none" stroke="rgb(0,0,0)" class="dcg-svg-minor-gridline" paint-order="fill stroke markers" d=" M 0 303.5 L 1000 303.5" stroke-opacity="0.2" stroke-miterlimit="10" stroke-dasharray=""/><path fill="none" stroke="rgb(0,0,0)" class="dcg-svg-minor-gridline" paint-order="fill stroke markers" d=" M 0 274.5 L 1000 274.5" stroke-opacity="0.2" stroke-miterlimit="10" stroke-dasharray=""/><path fill="none" stroke="rgb(0,0,0)" class="dcg-svg-minor-gridline" paint-order="fill stroke markers" d=" M 0 245.5 L 1000 245.5" stroke-opacity="0.2" stroke-miterlimit="10" stroke-dasharray=""/><path fill="none" stroke="rgb(0,0,0)" class="dcg-svg-minor-gridline" paint-order="fill stroke markers" d=" M 0 216.5 L 1000 216.5" stroke-opacity="0.2" stroke-miterlimit="10" stroke-dasharray=""/><path fill="none" stroke="rgb(0,0,0)" class="dcg-svg-minor-gridline" paint-order="fill stroke markers" d=" M 0 187.5 L 1000 187.5" stroke-opacity="0.2" stroke-miterlimit="10" stroke-dasharray=""/><path fill="none" stroke="rgb(0,0,0)" class="dcg-svg-minor-gridline" paint-order="fill stroke markers" d=" M 0 158.5 L 1000 158.5" stroke-opacity="0.2" stroke-miterlimit="10" stroke-dasharray=""/><path fill="none" stroke="rgb(0,0,0)" class="dcg-svg-minor-gridline" paint-order="fill stroke markers" d=" M 0 129.5 L 1000 129.5" stroke-opacity="0.2" stroke-miterlimit="10" stroke-dasharray=""/><path fill="none" stroke="rgb(0,0,0)" class="dcg-svg-minor-gridline" paint-order="fill stroke markers" d=" M 0 100.5 L 1000 100.5" stroke-opacity="0.2" stroke-miterlimit="10" stroke-dasharray=""/><path fill="none" stroke="rgb(0,0,0)" class="dcg-svg-minor-gridline" paint-order="fill stroke markers" d=" M 0 71.5 L 1000 71.5" stroke-opacity="0.2" stroke-miterlimit="10" stroke-dasharray=""/><path fill="none" stroke="rgb(0,0,0)" class="dcg-svg-minor-gridline" paint-order="fill stroke markers" d=" M 0 42.5 L 1000 42.5" stroke-opacity="0.2" stroke-miterlimit="10" stroke-dasharray=""/><path fill="none" stroke="rgb(0,0,0)" class="dcg-svg-minor-gridline" paint-order="fill stroke markers" d=" M 0 13.5 L 1000 13.5" stroke-opacity="0.2" stroke-miterlimit="10" stroke-dasharray=""/><path fill="none" stroke="rgb(0,0,0)" class="dcg-svg-major-gridline" paint-order="fill stroke markers" d=" M 2.5 0 L 2.5 1000" stroke-opacity="0.2500000000000001" stroke-miterlimit="10" stroke-dasharray=""/><path fill="none" stroke="rgb(0,0,0)" class="dcg-svg-major-gridline" paint-order="fill stroke markers" d=" M 147.5 0 L 147.5 1000" stroke-opacity="0.2500000000000001" stroke-miterlimit="10" stroke-dasharray=""/><path fill="none" stroke="rgb(0,0,0)" class="dcg-svg-major-gridline" paint-order="fill stroke markers" d=" M 292.5 0 L 292.5 1000" stroke-opacity="0.2500000000000001" stroke-miterlimit="10" stroke-dasharray=""/><path fill="none" stroke="rgb(0,0,0)" class="dcg-svg-major-gridline" paint-order="fill stroke markers" d=" M 437.5 0 L 437.5 1000" stroke-opacity="0.2500000000000001" stroke-miterlimit="10" stroke-dasharray=""/><path fill="none" stroke="rgb(0,0,0)" class="dcg-svg-major-gridline" paint-order="fill stroke markers" d=" M 727.5 0 L 727.5 1000" stroke-opacity="0.2500000000000001" stroke-miterlimit="10" stroke-dasharray=""/><path fill="none" stroke="rgb(0,0,0)" class="dcg-svg-major-gridline" paint-order="fill stroke markers" d=" M 872.5 0 L 872.5 1000" stroke-opacity="0.2500000000000001" stroke-miterlimit="10" stroke-dasharray=""/><path fill="none" stroke="rgb(0,0,0)" class="dcg-svg-major-gridline" paint-order="fill stroke markers" d=" M 0 941 L 1000 941" stroke-opacity="0.2500000000000001" stroke-miterlimit="10" stroke-dasharray=""/><path fill="none" stroke="rgb(0,0,0)" class="dcg-svg-major-gridline" paint-order="fill stroke markers" d=" M 0 796 L 1000 796" stroke-opacity="0.2500000000000001" stroke-miterlimit="10" stroke-dasharray=""/><path fill="none" stroke="rgb(0,0,0)" class="dcg-svg-major-gridline" paint-order="fill stroke markers" d=" M 0 651 L 1000 651" stroke-opacity="0.2500000000000001" stroke-miterlimit="10" stroke-dasharray=""/><path fill="none" stroke="rgb(0,0,0)" class="dcg-svg-major-gridline" paint-order="fill stroke markers" d=" M 0 361 L 1000 361" stroke-opacity="0.2500000000000001" stroke-miterlimit="10" stroke-dasharray=""/><path fill="none" stroke="rgb(0,0,0)" class="dcg-svg-major-gridline" paint-order="fill stroke markers" d=" M 0 216 L 1000 216" stroke-opacity="0.2500000000000001" stroke-miterlimit="10" stroke-dasharray=""/><path fill="none" stroke="rgb(0,0,0)" class="dcg-svg-major-gridline" paint-order="fill stroke markers" d=" M 0 72 L 1000 72" stroke-opacity="0.2500000000000001" stroke-miterlimit="10" stroke-dasharray=""/></g></g><g id="axis-37d6525c"><g id="yaxis-37d6525c"><title>Y axis</title><path fill="none" stroke="rgb(0,0,0)" class="dcg-svg-axis-line" paint-order="fill stroke markers" d=" M 582 0 L 582 1000" stroke-opacity="0.9" stroke-miterlimit="10" stroke-width="1.5" stroke-dasharray=""/></g><g id="xaxis-37d6525c"><title>X axis</title><path fill="none" stroke="rgb(0,0,0)" class="dcg-svg-axis-line" paint-order="fill stroke markers" d=" M 0 506 L 1000 506" stroke-opacity="0.9" stroke-miterlimit="10" stroke-width="1.5" stroke-dasharray=""/></g><g><g class="dcg-svg-axis-value"><text fill="none" stroke="#ffffff" font-family="Arial" font-size="14px" font-style="normal" font-weight="normal" text-decoration="normal" x="573.4661782228085" y="522.0139480180678" text-anchor="middle" stroke-miterlimit="2" stroke-width="3" stroke-dasharray="">0</text><text fill="#000000" stroke="none" font-family="Arial" font-size="14px" font-style="normal" font-weight="normal" text-decoration="normal" x="573.4661782228085" y="522.0139480180678" text-anchor="middle">0</text></g><g class="dcg-svg-axis-value dcg-svg-offcenter-axis-value"><text fill="none" stroke="#ffffff" font-family="Arial" font-size="14px" font-style="normal" font-weight="normal" text-decoration="normal" x="13.1171875" y="522.0139480180678" text-anchor="middle" stroke-miterlimit="2" stroke-width="3" stroke-dasharray="">-20</text><text fill="#000000" stroke="none" font-family="Arial" font-size="14px" font-style="normal" font-weight="normal" text-decoration="normal" x="13.1171875" y="522.0139480180678" text-anchor="middle">-20</text></g><g class="dcg-svg-axis-value"><text fill="none" stroke="#ffffff" font-family="Arial" font-size="14px" font-style="normal" font-weight="normal" text-decoration="normal" x="145.41708909008298" y="522.0139480180678" text-anchor="middle" stroke-miterlimit="2" stroke-width="3" stroke-dasharray="">-15</text><text fill="#000000" stroke="none" font-family="Arial" font-size="14px" font-style="normal" font-weight="normal" text-decoration="normal" x="145.41708909008298" y="522.0139480180678" text-anchor="middle">-15</text></g><g class="dcg-svg-axis-value"><text fill="none" stroke="#ffffff" font-family="Arial" font-size="14px" font-style="normal" font-weight="normal" text-decoration="normal" x="290.2874560405748" y="522.0139480180678" text-anchor="middle" stroke-miterlimit="2" stroke-width="3" stroke-dasharray="">-10</text><text fill="#000000" stroke="none" font-family="Arial" font-size="14px" font-style="normal" font-weight="normal" text-decoration="normal" x="290.2874560405748" y="522.0139480180678" text-anchor="middle">-10</text></g><g class="dcg-svg-axis-value"><text fill="none" stroke="#ffffff" font-family="Arial" font-size="14px" font-style="normal" font-weight="normal" text-decoration="normal" x="435.1578229910666" y="522.0139480180678" text-anchor="middle" stroke-miterlimit="2" stroke-width="3" stroke-dasharray="">-5</text><text fill="#000000" stroke="none" font-family="Arial" font-size="14px" font-style="normal" font-weight="normal" text-decoration="normal" x="435.1578229910666" y="522.0139480180678" text-anchor="middle">-5</text></g><g class="dcg-svg-axis-value"><text fill="none" stroke="#ffffff" font-family="Arial" font-size="14px" font-style="normal" font-weight="normal" text-decoration="normal" x="727.2296115795504" y="522.0139480180678" text-anchor="middle" stroke-miterlimit="2" stroke-width="3" stroke-dasharray="">5</text><text fill="#000000" stroke="none" font-family="Arial" font-size="14px" font-style="normal" font-weight="normal" text-decoration="normal" x="727.2296115795504" y="522.0139480180678" text-anchor="middle">5</text></g><g class="dcg-svg-axis-value"><text fill="none" stroke="#ffffff" font-family="Arial" font-size="14px" font-style="normal" font-weight="normal" text-decoration="normal" x="872.0999785300421" y="522.0139480180678" text-anchor="middle" stroke-miterlimit="2" stroke-width="3" stroke-dasharray="">10</text><text fill="#000000" stroke="none" font-family="Arial" font-size="14px" font-style="normal" font-weight="normal" text-decoration="normal" x="872.0999785300421" y="522.0139480180678" text-anchor="middle">10</text></g><g class="dcg-svg-axis-value"><text fill="none" stroke="#ffffff" font-family="Arial" font-size="14px" font-style="normal" font-weight="normal" text-decoration="normal" x="567.2420571290585" y="944.6250488695432" text-anchor="middle" stroke-miterlimit="2" stroke-width="3" stroke-dasharray="">-15</text><text fill="#000000" stroke="none" font-family="Arial" font-size="14px" font-style="normal" font-weight="normal" text-decoration="normal" x="567.2420571290585" y="944.6250488695432" text-anchor="middle">-15</text></g><g class="dcg-svg-axis-value"><text fill="none" stroke="#ffffff" font-family="Arial" font-size="14px" font-style="normal" font-weight="normal" text-decoration="normal" x="567.2420571290585" y="799.7546819190514" text-anchor="middle" stroke-miterlimit="2" stroke-width="3" stroke-dasharray="">-10</text><text fill="#000000" stroke="none" font-family="Arial" font-size="14px" font-style="normal" font-weight="normal" text-decoration="normal" x="567.2420571290585" y="799.7546819190514" text-anchor="middle">-10</text></g><g class="dcg-svg-axis-value"><text fill="none" stroke="#ffffff" font-family="Arial" font-size="14px" font-style="normal" font-weight="normal" text-decoration="normal" x="571.1351235353085" y="654.8843149685596" text-anchor="middle" stroke-miterlimit="2" stroke-width="3" stroke-dasharray="">-5</text><text fill="#000000" stroke="none" font-family="Arial" font-size="14px" font-style="normal" font-weight="normal" text-decoration="normal" x="571.1351235353085" y="654.8843149685596" text-anchor="middle">-5</text></g><g class="dcg-svg-axis-value"><text fill="none" stroke="#ffffff" font-family="Arial" font-size="14px" font-style="normal" font-weight="normal" text-decoration="normal" x="573.4661782228085" y="365.14358106757595" text-anchor="middle" stroke-miterlimit="2" stroke-width="3" stroke-dasharray="">5</text><text fill="#000000" stroke="none" font-family="Arial" font-size="14px" font-style="normal" font-weight="normal" text-decoration="normal" x="573.4661782228085" y="365.14358106757595" text-anchor="middle">5</text></g><g class="dcg-svg-axis-value"><text fill="none" stroke="#ffffff" font-family="Arial" font-size="14px" font-style="normal" font-weight="normal" text-decoration="normal" x="569.5731118165585" y="220.27321411708408" text-anchor="middle" stroke-miterlimit="2" stroke-width="3" stroke-dasharray="">10</text><text fill="#000000" stroke="none" font-family="Arial" font-size="14px" font-style="normal" font-weight="normal" text-decoration="normal" x="569.5731118165585" y="220.27321411708408" text-anchor="middle">10</text></g><g class="dcg-svg-axis-value"><text fill="none" stroke="#ffffff" font-family="Arial" font-size="14px" font-style="normal" font-weight="normal" text-decoration="normal" x="569.5731118165585" y="75.40284716659228" text-anchor="middle" stroke-miterlimit="2" stroke-width="3" stroke-dasharray="">15</text><text fill="#000000" stroke="none" font-family="Arial" font-size="14px" font-style="normal" font-weight="normal" text-decoration="normal" x="569.5731118165585" y="75.40284716659228" text-anchor="middle">15</text></g></g></g></g><g id="expressions-37d6525c"><g id="sketch-37d6525c"><title>Expression 1</title><path fill="#c74440" stroke="none" paint-order="stroke fill markers" d="" fill-opacity="0.4"/><g><path fill="none" stroke="#c74440" class="dcg-svg-curve" paint-order="fill stroke markers" d=" M 524.4110978488617 1000 L 524.4110978488617 989 M 524.4110978488617 982 L 524.4110978488617 971 M 524.4110978488617 964 L 524.4110978488617 953 M 524.4110978488617 946 L 524.4110978488617 935 M 524.4110978488617 928 L 524.4110978488617 917 M 524.4110978488617 910 L 524.4110978488617 899 M 524.4110978488617 892 L 524.4110978488617 881 M 524.4110978488617 874 L 524.4110978488617 863 M 524.4110978488617 856 L 524.4110978488617 845 M 524.4110978488617 838 L 524.4110978488617 827 M 524.4110978488617 820 L 524.4110978488617 809 M 524.4110978488617 802 L 524.4110978488617 791 M 524.4110978488617 784 L 524.4110978488617 773 M 524.4110978488617 766 L 524.4110978488617 755 M 524.4110978488617 748 L 524.4110978488617 737 M 524.4110978488617 730 L 524.4110978488617 719 M 524.4110978488617 712 L 524.4110978488617 701 M 524.4110978488617 694 L 524.4110978488617 683 M 524.4110978488617 676 L 524.4110978488617 665 M 524.4110978488617 658 L 524.4110978488617 647 M 524.4110978488617 640 L 524.4110978488617 629 M 524.4110978488617 622 L 524.4110978488617 611 M 524.4110978488617 604 L 524.4110978488617 593 M 524.4110978488617 586 L 524.4110978488617 575 M 524.4110978488617 568 L 524.4110978488617 557 M 524.4110978488617 550 L 524.4110978488617 539 M 524.4110978488617 532 L 524.4110978488617 521 M 524.4110978488617 514 L 524.4110978488617 503 M 524.4110978488617 496 L 524.4110978488617 485 M 524.4110978488617 478 L 524.4110978488617 467 M 524.4110978488617 460 L 524.4110978488617 449 M 524.4110978488617 442 L 524.4110978488617 431 M 524.4110978488617 424 L 524.4110978488617 413 M 524.4110978488617 406 L 524.4110978488617 395 M 524.4110978488617 388 L 524.4110978488617 377 M 524.4110978488617 370 L 524.4110978488617 359 M 524.4110978488617 352 L 524.4110978488617 341 M 524.4110978488617 334 L 524.4110978488617 323 M 524.4110978488617 316 L 524.4110978488617 305 M 524.4110978488617 298 L 524.4110978488617 287 M 524.4110978488617 280 L 524.4110978488617 269 M 524.4110978488617 262 L 524.4110978488617 251 M 524.4110978488617 244 L 524.4110978488617 233 M 524.4110978488617 226 L 524.4110978488617 215 M 524.4110978488617 208 L 524.4110978488617 197 M 524.4110978488617 190 L 524.4110978488617 179 M 524.4110978488617 172 L 524.4110978488617 161 M 524.4110978488617 154 L 524.4110978488617 143 M 524.4110978488617 136 L 524.4110978488617 125 M 524.4110978488617 118 L 524.4110978488617 107 M 524.4110978488617 100 L 524.4110978488617 89 M 524.4110978488617 82 L 524.4110978488617 71 M 524.4110978488617 64 L 524.4110978488617 53 M 524.4110978488617 46 L 524.4110978488617 35 M 524.4110978488617 28 L 524.4110978488617 17 M 524.4110978488617 10 L 524.4110978488617 0" stroke-linecap="round" stroke-linejoin="round" stroke-miterlimit="10" stroke-width="2.5" stroke-opacity="0.9" stroke-dasharray=""/></g></g><g id="sketch-37d6525c"><title>Expression 2</title><path fill="#2d70b3" stroke="none" paint-order="stroke fill markers" d="" fill-opacity="0.4"/><g><path fill="none" stroke="#2d70b3" class="dcg-svg-curve" paint-order="fill stroke markers" d=" M 0 477.23187462796943 L 11 477.23187462796943 M 18 477.23187462796943 L 29 477.23187462796943 M 36 477.23187462796943 L 47 477.23187462796943 M 54 477.23187462796943 L 65 477.23187462796943 M 72 477.23187462796943 L 83 477.23187462796943 M 90 477.23187462796943 L 101 477.23187462796943 M 108 477.23187462796943 L 119 477.23187462796943 M 126 477.23187462796943 L 137 477.23187462796943 M 144 477.23187462796943 L 155 477.23187462796943 M 162 477.23187462796943 L 173 477.23187462796943 M 180 477.23187462796943 L 191 477.23187462796943 M 198 477.23187462796943 L 209 477.23187462796943 M 216 477.23187462796943 L 227 477.23187462796943 M 234 477.23187462796943 L 245 477.23187462796943 M 252 477.23187462796943 L 263 477.23187462796943 M 270 477.23187462796943 L 281 477.23187462796943 M 288 477.23187462796943 L 299 477.23187462796943 M 306 477.23187462796943 L 317 477.23187462796943 M 324 477.23187462796943 L 335 477.23187462796943 M 342 477.23187462796943 L 353 477.23187462796943 M 360 477.23187462796943 L 371 477.23187462796943 M 378 477.23187462796943 L 389 477.23187462796943 M 396 477.23187462796943 L 407 477.23187462796943 M 414 477.23187462796943 L 425 477.23187462796943 M 432 477.23187462796943 L 443 477.23187462796943 M 450 477.23187462796943 L 461 477.23187462796943 M 468 477.23187462796943 L 479 477.23187462796943 M 486 477.23187462796943 L 497 477.23187462796943 M 504 477.23187462796943 L 515 477.23187462796943 M 522 477.23187462796943 L 533 477.23187462796943 M 540 477.23187462796943 L 551 477.23187462796943 M 558 477.23187462796943 L 569 477.23187462796943 M 576 477.23187462796943 L 587 477.23187462796943 M 594 477.23187462796943 L 605 477.23187462796943 M 612 477.23187462796943 L 623 477.23187462796943 M 630 477.23187462796943 L 641 477.23187462796943 M 648 477.23187462796943 L 659 477.23187462796943 M 666 477.23187462796943 L 677 477.23187462796943 M 684 477.23187462796943 L 695 477.23187462796943 M 702 477.23187462796943 L 713 477.23187462796943 M 720 477.23187462796943 L 731 477.23187462796943 M 738 477.23187462796943 L 749 477.23187462796943 M 756 477.23187462796943 L 767 477.23187462796943 M 774 477.23187462796943 L 785 477.23187462796943 M 792 477.23187462796943 L 803 477.23187462796943 M 810 477.23187462796943 L 821 477.23187462796943 M 828 477.23187462796943 L 839 477.23187462796943 M 846 477.23187462796943 L 857 477.23187462796943 M 864 477.23187462796943 L 875 477.23187462796943 M 882 477.23187462796943 L 893 477.23187462796943 M 900 477.23187462796943 L 911 477.23187462796943 M 918 477.23187462796943 L 929 477.23187462796943 M 936 477.23187462796943 L 947 477.23187462796943 M 954 477.23187462796943 L 965 477.23187462796943 M 972 477.23187462796943 L 983 477.23187462796943 M 990 477.23187462796943 L 1000 477.23187462796943" stroke-linecap="round" stroke-linejoin="round" stroke-miterlimit="10" stroke-width="2.5" stroke-opacity="0.9" stroke-dasharray=""/></g></g><g id="sketch-37d6525c"><title>Expression 3</title><path fill="#388c46" stroke="none" paint-order="stroke fill markers" d="" fill-opacity="0.4"/><g><path fill="none" stroke="#388c46" class="dcg-svg-curve" paint-order="fill stroke markers" d=" M -4.882812499999999 475.645805125939 L -4.882812499999999 475.645805125939 L 187.65306472778326 474.7389959250196 L 289.7143363952637 473.6549316671234 L 350.5666575082715 472.4028623962863" stroke-linecap="round" stroke-linejoin="round" stroke-miterlimit="10" stroke-width="5" stroke-opacity="0.9" stroke-dasharray=""/></g><g><path fill="none" stroke="#388c46" class="dcg-svg-curve" paint-order="fill stroke markers" d=" M 495.43702445876335 448.25780123787104 L 495.43702445876335 448.25780123787104 L 499.013900756836 444.17716682801324 L 501.9721984863282 439.81930303738045 L 504.43744659423834 435.2016560108058 L 506.6561698913575 429.94940010460846 L 508.62836837768555 424.041016205922 L 510.60056686401373 416.4451510953372 L 512.3262405395508 407.76502803409153 L 514.0519142150879 396.1929666895279 L 515.531063079834 382.6943023492154 L 517.0102119445801 363.79992341667844 L 518.2428359985352 341.13244351021297 L 519.4754600524902 307.14303029827147 L 520.4615592956544 264.6761753974715 L 521.4476585388184 193.94720401916834 L 522.1872329711914 99.73729874606965 L 522.6108508278382 -8" stroke-linecap="round" stroke-linejoin="round" stroke-miterlimit="10" stroke-width="5" stroke-opacity="0.9" stroke-dasharray=""/></g><g><path fill="none" stroke="#388c46" class="dcg-svg-curve" paint-order="fill stroke markers" d=" M 526.0790629304714 1008 L 526.0790629304714 1008 L 526.3781547546387 904.0100356203259 L 527.1177291870117 787.3948868498719 L 528.1038284301758 704.569588639067 L 529.0899276733398 656.6564231385445 L 530.3225517272949 619.243796919632 L 531.801700592041 590.8216531598447 L 533.2808494567871 571.8790491964985 L 535.0065231323242 556.4638928203024 L 536.7321968078612 545.3667813930531 L 538.7043952941895 535.9654826023299 L 540.6765937805176 528.8440069811538 L 542.8953170776367 522.648828323689 L 545.3605651855469 517.3043459382418 L 548.0723381042482 512.7117108391631 L 551.2771606445312 508.4793609157675 L 553.3851712389601 506.2059480180678" stroke-linecap="round" stroke-linejoin="round" stroke-miterlimit="10" stroke-width="5" stroke-opacity="0.9" stroke-dasharray=""/></g><g><path fill="none" stroke="#388c46" class="dcg-svg-curve" paint-order="fill stroke markers" d=" M 814.1518317498454 480.1292819669793 L 814.1518317498454 480.1292819669793 L 929.6927452087402 479.30326605238633 L 1004.8828125 478.9791094874124" stroke-linecap="round" stroke-linejoin="round" stroke-miterlimit="10" stroke-width="5" stroke-opacity="0.9" stroke-dasharray=""/></g></g></g><g id="labels-37d6525c"/></g></svg>