<svg version="1.1" xmlns="http://www.w3.org/2000/svg" xmlns:xlink="http://www.w3.org/1999/xlink" width="800" height="800"><defs/><g transform="scale(2,2)"><g id="background-a4351b15"><rect fill="white" stroke="none" x="0" y="0" width="400" height="400" class="dcg-svg-background"/></g><g id="background-images-a4351b15"/><g id="graphpaper-a4351b15"><g id="grid-a4351b15"><g><path fill="none" stroke="rgb(0,0,0)" class="dcg-svg-minor-gridline" paint-order="fill stroke markers" d=" M 1.5 0 L 1.5 400" stroke-opacity="0.2" stroke-miterlimit="10" stroke-dasharray=""/><path fill="none" stroke="rgb(0,0,0)" class="dcg-svg-minor-gridline" paint-order="fill stroke markers" d=" M 18.5 0 L 18.5 400" stroke-opacity="0.2" stroke-miterlimit="10" stroke-dasharray=""/><path fill="none" stroke="rgb(0,0,0)" class="dcg-svg-minor-gridline" paint-order="fill stroke markers" d=" M 36.5 0 L 36.5 400" stroke-opacity="0.2" stroke-miterlimit="10" stroke-dasharray=""/><path fill="none" stroke="rgb(0,0,0)" class="dcg-svg-minor-gridline" paint-order="fill stroke markers" d=" M 54.5 0 L 54.5 400" stroke-opacity="0.2" stroke-miterlimit="10" stroke-dasharray=""/><path fill="none" stroke="rgb(0,0,0)" class="dcg-svg-minor-gridline" paint-order="fill stroke markers" d=" M 71.5 0 L 71.5 400" stroke-opacity="0.2" stroke-miterlimit="10" stroke-dasharray=""/><path fill="none" stroke="rgb(0,0,0)" class="dcg-svg-minor-gridline" paint-order="fill stroke markers" d=" M 89.5 0 L 89.5 400" stroke-opacity="0.2" stroke-miterlimit="10" stroke-dasharray=""/><path fill="none" stroke="rgb(0,0,0)" class="dcg-svg-minor-gridline" paint-order="fill stroke markers" d=" M 107.5 0 L 107.5 400" stroke-opacity="0.2" stroke-miterlimit="10" stroke-dasharray=""/><path fill="none" stroke="rgb(0,0,0)" class="dcg-svg-minor-gridline" paint-order="fill stroke markers" d=" M 125.5 0 L 125.5 400" stroke-opacity="0.2" stroke-miterlimit="10" stroke-dasharray=""/><path fill="none" stroke="rgb(0,0,0)" class="dcg-svg-minor-gridline" paint-order="fill stroke markers" d=" M 142.5 0 L 142.5 400" stroke-opacity="0.2" stroke-miterlimit="10" stroke-dasharray=""/><path fill="none" stroke="rgb(0,0,0)" class="dcg-svg-minor-gridline" paint-order="fill stroke markers" d=" M 160.5 0 L 160.5 400" stroke-opacity="0.2" stroke-miterlimit="10" stroke-dasharray=""/><path fill="none" stroke="rgb(0,0,0)" class="dcg-svg-minor-gridline" paint-order="fill stroke markers" d=" M 178.5 0 L 178.5 400" stroke-opacity="0.2" stroke-miterlimit="10" stroke-dasharray=""/><path fill="none" stroke="rgb(0,0,0)" class="dcg-svg-minor-gridline" paint-order="fill stroke markers" d=" M 213.5 0 L 213.5 400" stroke-opacity="0.2" stroke-miterlimit="10" stroke-dasharray=""/><path fill="none" stroke="rgb(0,0,0)" class="dcg-svg-minor-gridline" paint-order="fill stroke markers" d=" M 231.5 0 L 231.5 400" stroke-opacity="0.2" stroke-miterlimit="10" stroke-dasharray=""/><path fill="none" stroke="rgb(0,0,0)" class="dcg-svg-minor-gridline" paint-order="fill stroke markers" d=" M 249.5 0 L 249.5 400" stroke-opacity="0.2" stroke-miterlimit="10" stroke-dasharray=""/><path fill="none" stroke="rgb(0,0,0)" class="dcg-svg-minor-gridline" paint-order="fill stroke markers" d=" M 266.5 0 L 266.5 400" stroke-opacity="0.2" stroke-miterlimit="10" stroke-dasharray=""/><path fill="none" stroke="rgb(0,0,0)" class="dcg-svg-minor-gridline" paint-order="fill stroke markers" d=" M 284.5 0 L 284.5 400" stroke-opacity="0.2" stroke-miterlimit="10" stroke-dasharray=""/><path fill="none" stroke="rgb(0,0,0)" class="dcg-svg-minor-gridline" paint-order="fill stroke markers" d=" M 302.5 0 L 302.5 400" stroke-opacity="0.2" stroke-miterlimit="10" stroke-dasharray=""/><path fill="none" stroke="rgb(0,0,0)" class="dcg-svg-minor-gridline" paint-order="fill stroke markers" d=" M 320.5 0 L 320.5 400" stroke-opacity="0.2" stroke-miterlimit="10" stroke-dasharray=""/><path fill="none" stroke="rgb(0,0,0)" class="dcg-svg-minor-gridline" paint-order="fill stroke markers" d=" M 337.5 0 L 337.5 400" stroke-opacity="0.2" stroke-miterlimit="10" stroke-dasharray=""/><path fill="none" stroke="rgb(0,0,0)" class="dcg-svg-minor-gridline" paint-order="fill stroke markers" d=" M 355.5 0 L 355.5 400" stroke-opacity="0.2" stroke-miterlimit="10" stroke-dasharray=""/><path fill="none" stroke="rgb(0,0,0)" class="dcg-svg-minor-gridline" paint-order="fill stroke markers" d=" M 373.5 0 L 373.5 400" stroke-opacity="0.2" stroke-miterlimit="10" stroke-dasharray=""/><path fill="none" stroke="rgb(0,0,0)" class="dcg-svg-minor-gridline" paint-order="fill stroke markers" d=" M 390.5 0 L 390.5 400" stroke-opacity="0.2" stroke-miterlimit="10" stroke-dasharray=""/><path fill="none" stroke="rgb(0,0,0)" class="dcg-svg-minor-gridline" paint-order="fill stroke markers" d=" M 0 387.5 L 400 387.5" stroke-opacity="0.2" stroke-miterlimit="10" stroke-dasharray=""/><path fill="none" stroke="rgb(0,0,0)" class="dcg-svg-minor-gridline" paint-order="fill stroke markers" d=" M 0 370.5 L 400 370.5" stroke-opacity="0.2" stroke-miterlimit="10" stroke-dasharray=""/><path fill="none" stroke="rgb(0,0,0)" class="dcg-svg-minor-gridline" paint-order="fill stroke markers" d=" M 0 352.5 L 400 352.5" stroke-opacity="0.2" stroke-miterlimit="10" stroke-dasharray=""/><path fill="none" stroke="rgb(0,0,0)" class="dcg-svg-minor-gridline" paint-order="fill stroke markers" d=" M 0 334.5 L 400 334.5" stroke-opacity="0.2" stroke-miterlimit="10" stroke-dasharray=""/><path fill="none" stroke="rgb(0,0,0)" class="dcg-svg-minor-gridline" paint-order="fill stroke markers" d=" M 0 317.5 L 400 317.5" stroke-opacity="0.2" stroke-miterlimit="10" stroke-dasharray=""/><path fill="none" stroke="rgb(0,0,0)" class="dcg-svg-minor-gridline" paint-order="fill stroke markers" d=" M 0 299.5 L 400 299.5" stroke-opacity="0.2" stroke-miterlimit="10" stroke-dasharray=""/><path fill="none" stroke="rgb(0,0,0)" class="dcg-svg-minor-gridline" paint-order="fill stroke markers" d=" M 0 281.5 L 400 281.5" stroke-opacity="0.2" stroke-miterlimit="10" stroke-dasharray=""/><path fill="none" stroke="rgb(0,0,0)" class="dcg-svg-minor-gridline" paint-order="fill stroke markers" d=" M 0 263.5 L 400 263.5" stroke-opacity="0.2" stroke-miterlimit="10" stroke-dasharray=""/><path fill="none" stroke="rgb(0,0,0)" class="dcg-svg-minor-gridline" paint-order="fill stroke markers" d=" M 0 246.5 L 400 246.5" stroke-opacity="0.2" stroke-miterlimit="10" stroke-dasharray=""/><path fill="none" stroke="rgb(0,0,0)" class="dcg-svg-minor-gridline" paint-order="fill stroke markers" d=" M 0 228.5 L 400 228.5" stroke-opacity="0.2" stroke-miterlimit="10" stroke-dasharray=""/><path fill="none" stroke="rgb(0,0,0)" class="dcg-svg-minor-gridline" paint-order="fill stroke markers" d=" M 0 210.5 L 400 210.5" stroke-opacity="0.2" stroke-miterlimit="10" stroke-dasharray=""/><path fill="none" stroke="rgb(0,0,0)" class="dcg-svg-minor-gridline" paint-order="fill stroke markers" d=" M 0 193.5 L 400 193.5" stroke-opacity="0.2" stroke-miterlimit="10" stroke-dasharray=""/><path fill="none" stroke="rgb(0,0,0)" class="dcg-svg-minor-gridline" paint-order="fill stroke markers" d=" M 0 157.5 L 400 157.5" stroke-opacity="0.2" stroke-miterlimit="10" stroke-dasharray=""/><path fill="none" stroke="rgb(0,0,0)" class="dcg-svg-minor-gridline" paint-order="fill stroke markers" d=" M 0 139.5 L 400 139.5" stroke-opacity="0.2" stroke-miterlimit="10" stroke-dasharray=""/><path fill="none" stroke="rgb(0,0,0)" class="dcg-svg-minor-gridline" paint-order="fill stroke markers" d=" M 0 122.5 L 400 122.5" stroke-opacity="0.2" stroke-miterlimit="10" stroke-dasharray=""/><path fill="none" stroke="rgb(0,0,0)" class="dcg-svg-minor-gridline" paint-order="fill stroke markers" d=" M 0 104.5 L 400 104.5" stroke-opacity="0.2" stroke-miterlimit="10" stroke-dasharray=""/><path fill="none" stroke="rgb(0,0,0)" class="dcg-svg-minor-gridline" paint-order="fill stroke markers" d=" M 0 86.5 L 400 86.5" stroke-opacity="0.2" stroke-miterlimit="10" stroke-dasharray=""/><path fill="none" stroke="rgb(0,0,0)" class="dcg-svg-minor-gridline" paint-order="fill stroke markers" d=" M 0 69.5 L 400 69.5" stroke-opacity="0.2" stroke-miterlimit="10" stroke-dasharray=""/><path fill="none" stroke="rgb(0,0,0)" class="dcg-svg-minor-gridline" paint-order="fill stroke markers" d=" M 0 51.5 L 400 51.5" stroke-opacity="0.2" stroke-miterlimit="10" stroke-dasharray=""/><path fill="none" stroke="rgb(0,0,0)" class="dcg-svg-minor-gridline" paint-order="fill stroke markers" d=" M 0 33.5 L 400 33.5" stroke-opacity="0.2" stroke-miterlimit="10" stroke-dasharray=""/><path fill="none" stroke="rgb(0,0,0)" class="dcg-svg-minor-gridline" paint-order="fill stroke markers" d=" M 0 15.5 L 400 15.5" stroke-opacity="0.2" stroke-miterlimit="10" stroke-dasharray=""/><path fill="none" stroke="rgb(0,0,0)" class="dcg-svg-major-gridline" paint-order="fill stroke markers" d=" M 18.5 0 L 18.5 400" stroke-opacity="0.2500000000000001" stroke-miterlimit="10" stroke-dasharray=""/><path fill="none" stroke="rgb(0,0,0)" class="dcg-svg-major-gridline" paint-order="fill stroke markers" d=" M 107.5 0 L 107.5 400" stroke-opacity="0.2500000000000001" stroke-miterlimit="10" stroke-dasharray=""/><path fill="none" stroke="rgb(0,0,0)" class="dcg-svg-major-gridline" paint-order="fill stroke markers" d=" M 284.5 0 L 284.5 400" stroke-opacity="0.2500000000000001" stroke-miterlimit="10" stroke-dasharray=""/><path fill="none" stroke="rgb(0,0,0)" class="dcg-svg-major-gridline" paint-order="fill stroke markers" d=" M 373.5 0 L 373.5 400" stroke-opacity="0.2500000000000001" stroke-miterlimit="10" stroke-dasharray=""/><path fill="none" stroke="rgb(0,0,0)" class="dcg-svg-major-gridline" paint-order="fill stroke markers" d=" M 0 352 L 400 352" stroke-opacity="0.2500000000000001" stroke-miterlimit="10" stroke-dasharray=""/><path fill="none" stroke="rgb(0,0,0)" class="dcg-svg-major-gridline" paint-order="fill stroke markers" d=" M 0 264 L 400 264" stroke-opacity="0.2500000000000001" stroke-miterlimit="10" stroke-dasharray=""/><path fill="none" stroke="rgb(0,0,0)" class="dcg-svg-major-gridline" paint-order="fill stroke markers" d=" M 0 87 L 400 87" stroke-opacity="0.2500000000000001" stroke-miterlimit="10" stroke-dasharray=""/></g></g><g id="axis-a4351b15"><g id="yaxis-a4351b15"><title>Y axis</title><path fill="none" stroke="rgb(0,0,0)" class="dcg-svg-axis-line" paint-order="fill stroke markers" d=" M 196 0 L 196 400" stroke-opacity="0.9" stroke-miterlimit="10" stroke-width="1.5" stroke-dasharray=""/></g><g id="xaxis-a4351b15"><title>X axis</title><path fill="none" stroke="rgb(0,0,0)" class="dcg-svg-axis-line" paint-order="fill stroke markers" d=" M 0 175 L 400 175" stroke-opacity="0.9" stroke-miterlimit="10" stroke-width="1.5" stroke-dasharray=""/></g><g><g class="dcg-svg-axis-value"><text fill="none" stroke="#ffffff" font-family="Arial" font-size="14px" font-style="normal" font-weight="normal" text-decoration="normal" x="187.01252419540893" y="191.11985243063398" text-anchor="middle" stroke-miterlimit="2" stroke-width="3" stroke-dasharray="">0</text><text fill="#000000" stroke="none" font-family="Arial" font-size="14px" font-style="normal" font-weight="normal" text-decoration="normal" x="187.01252419540893" y="191.11985243063398" text-anchor="middle">0</text></g><g class="dcg-svg-axis-value"><text fill="none" stroke="#ffffff" font-family="Arial" font-size="14px" font-style="normal" font-weight="normal" text-decoration="normal" x="16.349894437623476" y="191.11985243063398" text-anchor="middle" stroke-miterlimit="2" stroke-width="3" stroke-dasharray="">-10</text><text fill="#000000" stroke="none" font-family="Arial" font-size="14px" font-style="normal" font-weight="normal" text-decoration="normal" x="16.349894437623476" y="191.11985243063398" text-anchor="middle">-10</text></g><g class="dcg-svg-axis-value"><text fill="none" stroke="#ffffff" font-family="Arial" font-size="14px" font-style="normal" font-weight="normal" text-decoration="normal" x="104.9312093165162" y="191.11985243063398" text-anchor="middle" stroke-miterlimit="2" stroke-width="3" stroke-dasharray="">-5</text><text fill="#000000" stroke="none" font-family="Arial" font-size="14px" font-style="normal" font-weight="normal" text-decoration="normal" x="104.9312093165162" y="191.11985243063398" text-anchor="middle">-5</text></g><g class="dcg-svg-axis-value"><text fill="none" stroke="#ffffff" font-family="Arial" font-size="14px" font-style="normal" font-weight="normal" text-decoration="normal" x="284.5938390743016" y="191.11985243063398" text-anchor="middle" stroke-miterlimit="2" stroke-width="3" stroke-dasharray="">5</text><text fill="#000000" stroke="none" font-family="Arial" font-size="14px" font-style="normal" font-weight="normal" text-decoration="normal" x="284.5938390743016" y="191.11985243063398" text-anchor="middle">5</text></g><g class="dcg-svg-axis-value"><text fill="none" stroke="#ffffff" font-family="Arial" font-size="14px" font-style="normal" font-weight="normal" text-decoration="normal" x="373.17515395319435" y="191.11985243063398" text-anchor="middle" stroke-miterlimit="2" stroke-width="3" stroke-dasharray="">10</text><text fill="#000000" stroke="none" font-family="Arial" font-size="14px" font-style="normal" font-weight="normal" text-decoration="normal" x="373.17515395319435" y="191.11985243063398" text-anchor="middle">10</text></g><g class="dcg-svg-axis-value"><text fill="none" stroke="#ffffff" font-family="Arial" font-size="14px" font-style="normal" font-weight="normal" text-decoration="normal" x="180.51252419540893" y="356.2824821884194" text-anchor="middle" stroke-miterlimit="2" stroke-width="3" stroke-dasharray="">-10</text><text fill="#000000" stroke="none" font-family="Arial" font-size="14px" font-style="normal" font-weight="normal" text-decoration="normal" x="180.51252419540893" y="356.2824821884194" text-anchor="middle">-10</text></g><g class="dcg-svg-axis-value"><text fill="none" stroke="#ffffff" font-family="Arial" font-size="14px" font-style="normal" font-weight="normal" text-decoration="normal" x="184.51252419540893" y="267.7011673095267" text-anchor="middle" stroke-miterlimit="2" stroke-width="3" stroke-dasharray="">-5</text><text fill="#000000" stroke="none" font-family="Arial" font-size="14px" font-style="normal" font-weight="normal" text-decoration="normal" x="184.51252419540893" y="267.7011673095267" text-anchor="middle">-5</text></g><g class="dcg-svg-axis-value"><text fill="none" stroke="#ffffff" font-family="Arial" font-size="14px" font-style="normal" font-weight="normal" text-decoration="normal" x="187.01252419540893" y="90.53853755174127" text-anchor="middle" stroke-miterlimit="2" stroke-width="3" stroke-dasharray="">5</text><text fill="#000000" stroke="none" font-family="Arial" font-size="14px" font-style="normal" font-weight="normal" text-decoration="normal" x="187.01252419540893" y="90.53853755174127" text-anchor="middle">5</text></g></g></g></g><g id="expressions-a4351b15"><g id="sketch-a4351b15"><title>Expression 1</title><path fill="#c74440" stroke="none" paint-order="stroke fill markers" d="" fill-opacity="0.4"/><g><path fill="none" stroke="#c74440" class="dcg-svg-curve" paint-order="fill stroke markers" d=" M 213.72878717118746 400 L 213.72878717118746 389 M 213.72878717118746 382 L 213.72878717118746 371 M 213.72878717118746 364 L 213.72878717118746 353 M 213.72878717118746 346 L 213.72878717118746 335 M 213.72878717118746 328 L 213.72878717118746 317 M 213.72878717118746 310 L 213.72878717118746 299 M 213.72878717118746 292 L 213.72878717118746 281 M 213.72878717118746 274 L 213.72878717118746 263 M 213.72878717118746 256 L 213.72878717118746 245 M 213.72878717118746 238 L 213.72878717118746 227 M 213.72878717118746 220 L 213.72878717118746 209 M 213.72878717118746 202 L 213.72878717118746 191 M 213.72878717118746 184 L 213.72878717118746 173 M 213.72878717118746 166 L 213.72878717118746 155 M 213.72878717118746 148 L 213.72878717118746 137 M 213.72878717118746 130 L 213.72878717118746 119 M 213.72878717118746 112 L 213.72878717118746 101 M 213.72878717118746 94 L 213.72878717118746 83 M 213.72878717118746 76 L 213.72878717118746 65 M 213.72878717118746 58 L 213.72878717118746 47 M 213.72878717118746 40 L 213.72878717118746 29 M 213.72878717118746 22 L 213.72878717118746 11 M 213.72878717118746 4 L 213.72878717118746 0" stroke-linecap="round" stroke-linejoin="round" stroke-miterlimit="10" stroke-width="2.5" stroke-opacity="0.9" stroke-dasharray=""/></g></g><g id="sketch-a4351b15"><title>Expression 2</title><path fill="#c74440" stroke="none" paint-order="stroke fill markers" d="" fill-opacity="0.4"/><g><path fill="none" stroke="#c74440" class="dcg-svg-curve" paint-order="fill stroke markers" d=" M 178.29626121963037 400 L 178.29626121963037 389 M 178.29626121963037 382 L 178.29626121963037 371 M 178.29626121963037 364 L 178.29626121963037 353 M 178.29626121963037 346 L 178.29626121963037 335 M 178.29626121963037 328 L 178.29626121963037 317 M 178.29626121963037 310 L 178.29626121963037 299 M 178.29626121963037 292 L 178.29626121963037 281 M 178.29626121963037 274 L 178.29626121963037 263 M 178.29626121963037 256 L 178.29626121963037 245 M 178.29626121963037 238 L 178.29626121963037 227 M 178.29626121963037 220 L 178.29626121963037 209 M 178.29626121963037 202 L 178.29626121963037 191 M 178.29626121963037 184 L 178.29626121963037 173 M 178.29626121963037 166 L 178.29626121963037 155 M 178.29626121963037 148 L 178.29626121963037 137 M 178.29626121963037 130 L 178.29626121963037 119 M 178.29626121963037 112 L 178.29626121963037 101 M 178.29626121963037 94 L 178.29626121963037 83 M 178.29626121963037 76 L 178.29626121963037 65 M 178.29626121963037 58 L 178.29626121963037 47 M 178.29626121963037 40 L 178.29626121963037 29 M 178.29626121963037 22 L 178.29626121963037 11 M 178.29626121963037 4 L 178.29626121963037 0" stroke-linecap="round" stroke-linejoin="round" stroke-miterlimit="10" stroke-width="2.5" stroke-opacity="0.9" stroke-dasharray=""/></g></g><g id="sketch-a4351b15"><title>Expression 3</title><path fill="none" stroke="#388c46" class="dcg-svg-point" paint-order="fill stroke markers" d=" M 195.91252419540893 192.92811540641253 L 195.91252419540893 193.12811540641252 L 196.11252419540892 193.12811540641252 L 196.11252419540892 192.92811540641253" stroke-linecap="round" stroke-linejoin="round" stroke-miterlimit="10" stroke-width="7.5" stroke-opacity="0.9" stroke-dasharray=""/></g><g id="sketch-a4351b15"><title>Expression 4</title><path fill="#6042a6" stroke="none" paint-order="stroke fill markers" d="" fill-opacity="0.4"/><g><path fill="none" stroke="#6042a6" class="dcg-svg-curve" paint-order="fill stroke markers" d=" M 0 139.8793264790769 L 11 139.8793264790769 M 18 139.8793264790769 L 29 139.8793264790769 M 36 139.8793264790769 L 47 139.8793264790769 M 54 139.8793264790769 L 65 139.8793264790769 M 72 139.8793264790769 L 83 139.8793264790769 M 90 139.8793264790769 L 101 139.8793264790769 M 108 139.8793264790769 L 119 139.8793264790769 M 126 139.8793264790769 L 137 139.8793264790769 M 144 139.8793264790769 L 155 139.8793264790769 M 162 139.8793264790769 L 173 139.8793264790769 M 180 139.8793264790769 L 191 139.8793264790769 M 198 139.8793264790769 L 209 139.8793264790769 M 216 139.8793264790769 L 227 139.8793264790769 M 234 139.8793264790769 L 245 139.8793264790769 M 252 139.8793264790769 L 263 139.8793264790769 M 270 139.8793264790769 L 281 139.8793264790769 M 288 139.8793264790769 L 299 139.8793264790769 M 306 139.8793264790769 L 317 139.8793264790769 M 324 139.8793264790769 L 335 139.8793264790769 M 342 139.8793264790769 L 353 139.8793264790769 M 360 139.8793264790769 L 371 139.8793264790769 M 378 139.8793264790769 L 389 139.8793264790769 M 396 139.8793264790769 L 400 139.8793264790769" stroke-linecap="round" stroke-linejoin="round" stroke-miterlimit="10" stroke-width="2.5" stroke-opacity="0.9" stroke-dasharray=""/></g></g><g id="sketch-a4351b15"><title>Expression 5</title><path fill="#000000" stroke="none" paint-order="stroke fill markers" d="" fill-opacity="0.4"/><g><path fill="none" stroke="#000000" class="dcg-svg-curve" paint-order="fill stroke markers" d=" M 0 139.4415702327541 L 0 139.4415702327541 L 49.80468749999999 139.08733564740015 L 78.61328125000003 138.64078257781807 L 97.46093750000001 138.10441463665921 L 110.83984375 137.47581816168076 L 120.80078125 136.75715115085006 L 128.515625 135.9468106015167 L 134.66796875000003 135.04308377249265 L 139.6484375 134.05280244573208 L 143.84765624999997 132.94976032476558 L 147.36328124999997 131.75338969228278 L 150.390625 130.44132104026153 L 153.12499999999997 128.94397193150064 L 155.56640625 127.26108691918262 L 157.71484375 125.40940484444508 L 159.57031249999997 123.43078647777685 L 161.23046875 121.2599232779811 L 162.69531249999997 118.9270381786879 L 163.96484374999997 116.48914051510388 L 165.13671875 113.79188827759828 L 166.30859375 110.53395571936989 L 167.3828125 106.89834487295946 L 168.359375 102.8774166926492 L 169.3359375 97.94198605453448 L 170.21484375 92.4418449053361 L 171.09375 85.55591695423675 L 171.875 77.80921716340816 L 172.65624999999997 67.86712131515662 L 173.33984375 56.54820278269165 L 174.0234375 41.552140912299365 L 174.609375 24.21869635606089 L 175.19531249999997 0.27307933128543027 L 175.2952106590495 -5.5" stroke-linecap="round" stroke-linejoin="round" stroke-miterlimit="10" stroke-width="2.5" stroke-opacity="0.9" stroke-dasharray=""/></g><g><path fill="none" stroke="#000000" class="dcg-svg-curve" paint-order="fill stroke markers" d=" M 180.18666768773514 405.5 L 180.18666768773514 405.5 L 180.56640625 361.46327776553574 L 181.0546875 324.9649123667881 L 181.640625 295.32522020017115 L 182.22656249999997 274.61125989934396 L 182.91015625 257.1951403338544 L 183.59375 244.37440395070183 L 184.375 233.3682130164633 L 185.15625 224.9863491271092 L 186.03515625 217.71501176909277 L 186.9140625 212.06778894649653 L 187.79296875 207.60675539446535 L 188.76953125 203.69445882212753 L 189.74609375 200.6285203144138 L 190.72265625 198.23040221407118 L 191.69921875 196.3770538877564 L 192.67578125 194.9828165728567 L 193.65234375 193.98843672888447 L 194.72656249999997 193.30962905940717 L 195.703125 193.04433051923374 L 196.58203125 193.08309434735256 L 197.4609375 193.38575594935875 L 198.4375 194.04290959105225 L 199.4140625 195.06240326313457 L 200.390625 196.4850199934491 L 201.3671875 198.3715193012333 L 202.24609375 200.53778348205293 L 203.125 203.24031549024792 L 204.00390625000003 206.60470138490805 L 204.8828125 210.8093186847506 L 205.76171875 216.1139437686166 L 206.54296875 222.06451152791362 L 207.32421875 229.60800272308168 L 208.0078125 238.0184685076176 L 208.69140625 248.8296681262705 L 209.375 263.16341477346987 L 209.9609375 279.6992273408824 L 210.546875 302.4384829997581 L 211.03515625000003 329.04202596611674 L 211.5234375 367.52883374089265 L 211.847378141874 405.5" stroke-linecap="round" stroke-linejoin="round" stroke-miterlimit="10" stroke-width="2.5" stroke-opacity="0.9" stroke-dasharray=""/></g><g><path fill="none" stroke="#000000" class="dcg-svg-curve" paint-order="fill stroke markers" d=" M 216.74212678864916 -5.5 L 216.74212678864916 -5.5 L 217.08984375 11.940636880102147 L 217.67578125 32.5543712512013 L 218.359375 49.959226106200276 L 219.04296875000003 62.84067045537262 L 219.82421875 73.97823964850892 L 220.60546875 82.54380016790998 L 221.484375 90.07596550056087 L 222.36328125 96.03766237106646 L 223.33984375 101.34626186064617 L 224.4140625 106.02740704611648 L 225.48828125 109.81991979973037 L 226.66015625 113.20632848900095 L 227.9296875 116.2120941645145 L 229.29687500000003 118.86928385056171 L 230.76171875 121.21231721578317 L 232.32421875 123.27532370453554 L 234.08203125000003 125.18733944313976 L 236.1328125 127.00545510258036 L 238.4765625 128.67857691247173 L 241.11328125000003 130.18192095090302 L 244.04296875000003 131.50947498009248 L 247.36328125 132.69837501188198 L 251.171875 133.76591360467557 L 255.6640625 134.7377315825218 L 261.03515625000006 135.6173771996859 L 267.578125 136.4096099545563 L 275.68359375000006 137.1145493171465 L 285.93750000000006 137.73313078722492 L 299.4140625 138.27192843854607 L 317.77343749999994 138.7298113065679 L 344.140625 139.10803261302505 L 384.765625 139.4069455769199 L 400 139.47538462920767" stroke-linecap="round" stroke-linejoin="round" stroke-miterlimit="10" stroke-width="2.5" stroke-opacity="0.9" stroke-dasharray=""/></g></g></g><g id="labels-a4351b15"/></g></svg>