<svg version="1.1" xmlns="http://www.w3.org/2000/svg" xmlns:xlink="http://www.w3.org/1999/xlink" width="800" height="800"><defs/><g transform="scale(2,2)"><g id="background-9c82e8a6"><rect fill="white" stroke="none" x="0" y="0" width="400" height="400" class="dcg-svg-background"/></g><g id="background-images-9c82e8a6"/><g id="graphpaper-9c82e8a6"><g id="grid-9c82e8a6"><g><path fill="none" stroke="rgb(0,0,0)" class="dcg-svg-minor-gridline" paint-order="fill stroke markers" d=" M 1.5 0 L 1.5 400" stroke-opacity="0.2" stroke-miterlimit="10" stroke-dasharray=""/><path fill="none" stroke="rgb(0,0,0)" class="dcg-svg-minor-gridline" paint-order="fill stroke markers" d=" M 24.5 0 L 24.5 400" stroke-opacity="0.2" stroke-miterlimit="10" stroke-dasharray=""/><path fill="none" stroke="rgb(0,0,0)" class="dcg-svg-minor-gridline" paint-order="fill stroke markers" d=" M 47.5 0 L 47.5 400" stroke-opacity="0.2" stroke-miterlimit="10" stroke-dasharray=""/><path fill="none" stroke="rgb(0,0,0)" class="dcg-svg-minor-gridline" paint-order="fill stroke markers" d=" M 70.5 0 L 70.5 400" stroke-opacity="0.2" stroke-miterlimit="10" stroke-dasharray=""/><path fill="none" stroke="rgb(0,0,0)" class="dcg-svg-minor-gridline" paint-order="fill stroke markers" d=" M 93.5 0 L 93.5 400" stroke-opacity="0.2" stroke-miterlimit="10" stroke-dasharray=""/><path fill="none" stroke="rgb(0,0,0)" class="dcg-svg-minor-gridline" paint-order="fill stroke markers" d=" M 117.5 0 L 117.5 400" stroke-opacity="0.2" stroke-miterlimit="10" stroke-dasharray=""/><path fill="none" stroke="rgb(0,0,0)" class="dcg-svg-minor-gridline" paint-order="fill stroke markers" d=" M 140.5 0 L 140.5 400" stroke-opacity="0.2" stroke-miterlimit="10" stroke-dasharray=""/><path fill="none" stroke="rgb(0,0,0)" class="dcg-svg-minor-gridline" paint-order="fill stroke markers" d=" M 163.5 0 L 163.5 400" stroke-opacity="0.2" stroke-miterlimit="10" stroke-dasharray=""/><path fill="none" stroke="rgb(0,0,0)" class="dcg-svg-minor-gridline" paint-order="fill stroke markers" d=" M 186.5 0 L 186.5 400" stroke-opacity="0.2" stroke-miterlimit="10" stroke-dasharray=""/><path fill="none" stroke="rgb(0,0,0)" class="dcg-svg-minor-gridline" paint-order="fill stroke markers" d=" M 209.5 0 L 209.5 400" stroke-opacity="0.2" stroke-miterlimit="10" stroke-dasharray=""/><path fill="none" stroke="rgb(0,0,0)" class="dcg-svg-minor-gridline" paint-order="fill stroke markers" d=" M 256.5 0 L 256.5 400" stroke-opacity="0.2" stroke-miterlimit="10" stroke-dasharray=""/><path fill="none" stroke="rgb(0,0,0)" class="dcg-svg-minor-gridline" paint-order="fill stroke markers" d=" M 279.5 0 L 279.5 400" stroke-opacity="0.2" stroke-miterlimit="10" stroke-dasharray=""/><path fill="none" stroke="rgb(0,0,0)" class="dcg-svg-minor-gridline" paint-order="fill stroke markers" d=" M 302.5 0 L 302.5 400" stroke-opacity="0.2" stroke-miterlimit="10" stroke-dasharray=""/><path fill="none" stroke="rgb(0,0,0)" class="dcg-svg-minor-gridline" paint-order="fill stroke markers" d=" M 325.5 0 L 325.5 400" stroke-opacity="0.2" stroke-miterlimit="10" stroke-dasharray=""/><path fill="none" stroke="rgb(0,0,0)" class="dcg-svg-minor-gridline" paint-order="fill stroke markers" d=" M 348.5 0 L 348.5 400" stroke-opacity="0.2" stroke-miterlimit="10" stroke-dasharray=""/><path fill="none" stroke="rgb(0,0,0)" class="dcg-svg-minor-gridline" paint-order="fill stroke markers" d=" M 372.5 0 L 372.5 400" stroke-opacity="0.2" stroke-miterlimit="10" stroke-dasharray=""/><path fill="none" stroke="rgb(0,0,0)" class="dcg-svg-minor-gridline" paint-order="fill stroke markers" d=" M 395.5 0 L 395.5 400" stroke-opacity="0.2" stroke-miterlimit="10" stroke-dasharray=""/><path fill="none" stroke="rgb(0,0,0)" class="dcg-svg-minor-gridline" paint-order="fill stroke markers" d=" M 0 387.5 L 400 387.5" stroke-opacity="0.2" stroke-miterlimit="10" stroke-dasharray=""/><path fill="none" stroke="rgb(0,0,0)" class="dcg-svg-minor-gridline" paint-order="fill stroke markers" d=" M 0 364.5 L 400 364.5" stroke-opacity="0.2" stroke-miterlimit="10" stroke-dasharray=""/><path fill="none" stroke="rgb(0,0,0)" class="dcg-svg-minor-gridline" paint-order="fill stroke markers" d=" M 0 341.5 L 400 341.5" stroke-opacity="0.2" stroke-miterlimit="10" stroke-dasharray=""/><path fill="none" stroke="rgb(0,0,0)" class="dcg-svg-minor-gridline" paint-order="fill stroke markers" d=" M 0 318.5 L 400 318.5" stroke-opacity="0.2" stroke-miterlimit="10" stroke-dasharray=""/><path fill="none" stroke="rgb(0,0,0)" class="dcg-svg-minor-gridline" paint-order="fill stroke markers" d=" M 0 295.5 L 400 295.5" stroke-opacity="0.2" stroke-miterlimit="10" stroke-dasharray=""/><path fill="none" stroke="rgb(0,0,0)" class="dcg-svg-minor-gridline" paint-order="fill stroke markers" d=" M 0 272.5 L 400 272.5" stroke-opacity="0.2" stroke-miterlimit="10" stroke-dasharray=""/><path fill="none" stroke="rgb(0,0,0)" class="dcg-svg-minor-gridline" paint-order="fill stroke markers" d=" M 0 248.5 L 400 248.5" stroke-opacity="0.2" stroke-miterlimit="10" stroke-dasharray=""/><path fill="none" stroke="rgb(0,0,0)" class="dcg-svg-minor-gridline" paint-order="fill stroke markers" d=" M 0 225.5 L 400 225.5" stroke-opacity="0.2" stroke-miterlimit="10" stroke-dasharray=""/><path fill="none" stroke="rgb(0,0,0)" class="dcg-svg-minor-gridline" paint-order="fill stroke markers" d=" M 0 179.5 L 400 179.5" stroke-opacity="0.2" stroke-miterlimit="10" stroke-dasharray=""/><path fill="none" stroke="rgb(0,0,0)" class="dcg-svg-minor-gridline" paint-order="fill stroke markers" d=" M 0 156.5 L 400 156.5" stroke-opacity="0.2" stroke-miterlimit="10" stroke-dasharray=""/><path fill="none" stroke="rgb(0,0,0)" class="dcg-svg-minor-gridline" paint-order="fill stroke markers" d=" M 0 132.5 L 400 132.5" stroke-opacity="0.2" stroke-miterlimit="10" stroke-dasharray=""/><path fill="none" stroke="rgb(0,0,0)" class="dcg-svg-minor-gridline" paint-order="fill stroke markers" d=" M 0 109.5 L 400 109.5" stroke-opacity="0.2" stroke-miterlimit="10" stroke-dasharray=""/><path fill="none" stroke="rgb(0,0,0)" class="dcg-svg-minor-gridline" paint-order="fill stroke markers" d=" M 0 86.5 L 400 86.5" stroke-opacity="0.2" stroke-miterlimit="10" stroke-dasharray=""/><path fill="none" stroke="rgb(0,0,0)" class="dcg-svg-minor-gridline" paint-order="fill stroke markers" d=" M 0 63.5 L 400 63.5" stroke-opacity="0.2" stroke-miterlimit="10" stroke-dasharray=""/><path fill="none" stroke="rgb(0,0,0)" class="dcg-svg-minor-gridline" paint-order="fill stroke markers" d=" M 0 40.5 L 400 40.5" stroke-opacity="0.2" stroke-miterlimit="10" stroke-dasharray=""/><path fill="none" stroke="rgb(0,0,0)" class="dcg-svg-minor-gridline" paint-order="fill stroke markers" d=" M 0 17.5 L 400 17.5" stroke-opacity="0.2" stroke-miterlimit="10" stroke-dasharray=""/><path fill="none" stroke="rgb(0,0,0)" class="dcg-svg-major-gridline" paint-order="fill stroke markers" d=" M 1.5 0 L 1.5 400" stroke-opacity="0.2500000000000001" stroke-miterlimit="10" stroke-dasharray=""/><path fill="none" stroke="rgb(0,0,0)" class="dcg-svg-major-gridline" paint-order="fill stroke markers" d=" M 117.5 0 L 117.5 400" stroke-opacity="0.2500000000000001" stroke-miterlimit="10" stroke-dasharray=""/><path fill="none" stroke="rgb(0,0,0)" class="dcg-svg-major-gridline" paint-order="fill stroke markers" d=" M 348.5 0 L 348.5 400" stroke-opacity="0.2500000000000001" stroke-miterlimit="10" stroke-dasharray=""/><path fill="none" stroke="rgb(0,0,0)" class="dcg-svg-major-gridline" paint-order="fill stroke markers" d=" M 0 318 L 400 318" stroke-opacity="0.2500000000000001" stroke-miterlimit="10" stroke-dasharray=""/><path fill="none" stroke="rgb(0,0,0)" class="dcg-svg-major-gridline" paint-order="fill stroke markers" d=" M 0 87 L 400 87" stroke-opacity="0.2500000000000001" stroke-miterlimit="10" stroke-dasharray=""/></g></g><g id="axis-9c82e8a6"><g id="yaxis-9c82e8a6"><title>Y axis</title><path fill="none" stroke="rgb(0,0,0)" class="dcg-svg-axis-line" paint-order="fill stroke markers" d=" M 233 0 L 233 400" stroke-opacity="0.9" stroke-miterlimit="10" stroke-width="1.5" stroke-dasharray=""/></g><g id="xaxis-9c82e8a6"><title>X axis</title><path fill="none" stroke="rgb(0,0,0)" class="dcg-svg-axis-line" paint-order="fill stroke markers" d=" M 0 202 L 400 202" stroke-opacity="0.9" stroke-miterlimit="10" stroke-width="1.5" stroke-dasharray=""/></g><g><g class="dcg-svg-axis-value"><text fill="none" stroke="#ffffff" font-family="Arial" font-size="14px" font-style="normal" font-weight="normal" text-decoration="normal" x="224.0506314453734" y="218.2903792072271" text-anchor="middle" stroke-miterlimit="2" stroke-width="3" stroke-dasharray="">0</text><text fill="#000000" stroke="none" font-family="Arial" font-size="14px" font-style="normal" font-weight="normal" text-decoration="normal" x="224.0506314453734" y="218.2903792072271" text-anchor="middle">0</text></g><g class="dcg-svg-axis-value dcg-svg-offcenter-axis-value"><text fill="none" stroke="#ffffff" font-family="Arial" font-size="14px" font-style="normal" font-weight="normal" text-decoration="normal" x="13.1171875" y="218.2903792072271" text-anchor="middle" stroke-miterlimit="2" stroke-width="3" stroke-dasharray="">-20</text><text fill="#000000" stroke="none" font-family="Arial" font-size="14px" font-style="normal" font-weight="normal" text-decoration="normal" x="13.1171875" y="218.2903792072271" text-anchor="middle">-20</text></g><g class="dcg-svg-axis-value"><text fill="none" stroke="#ffffff" font-family="Arial" font-size="14px" font-style="normal" font-weight="normal" text-decoration="normal" x="114.71634960372992" y="218.2903792072271" text-anchor="middle" stroke-miterlimit="2" stroke-width="3" stroke-dasharray="">-10</text><text fill="#000000" stroke="none" font-family="Arial" font-size="14px" font-style="normal" font-weight="normal" text-decoration="normal" x="114.71634960372992" y="218.2903792072271" text-anchor="middle">-10</text></g><g class="dcg-svg-axis-value"><text fill="none" stroke="#ffffff" font-family="Arial" font-size="14px" font-style="normal" font-weight="normal" text-decoration="normal" x="348.83999141201684" y="218.2903792072271" text-anchor="middle" stroke-miterlimit="2" stroke-width="3" stroke-dasharray="">10</text><text fill="#000000" stroke="none" font-family="Arial" font-size="14px" font-style="normal" font-weight="normal" text-decoration="normal" x="348.83999141201684" y="218.2903792072271" text-anchor="middle">10</text></g><g class="dcg-svg-axis-value"><text fill="none" stroke="#ffffff" font-family="Arial" font-size="14px" font-style="normal" font-weight="normal" text-decoration="normal" x="217.8265103516234" y="322.18667276762056" text-anchor="middle" stroke-miterlimit="2" stroke-width="3" stroke-dasharray="">-10</text><text fill="#000000" stroke="none" font-family="Arial" font-size="14px" font-style="normal" font-weight="normal" text-decoration="normal" x="217.8265103516234" y="322.18667276762056" text-anchor="middle">-10</text></g><g class="dcg-svg-axis-value"><text fill="none" stroke="#ffffff" font-family="Arial" font-size="14px" font-style="normal" font-weight="normal" text-decoration="normal" x="220.1575650391234" y="90.39408564683363" text-anchor="middle" stroke-miterlimit="2" stroke-width="3" stroke-dasharray="">10</text><text fill="#000000" stroke="none" font-family="Arial" font-size="14px" font-style="normal" font-weight="normal" text-decoration="normal" x="220.1575650391234" y="90.39408564683363" text-anchor="middle">10</text></g></g></g></g><g id="expressions-9c82e8a6"><g id="sketch-9c82e8a6"><title>Expression 1</title><path fill="#c74440" stroke="none" paint-order="stroke fill markers" d="" fill-opacity="0.4"/><g><path fill="none" stroke="#c74440" class="dcg-svg-curve" paint-order="fill stroke markers" d=" M 209.7644391395447 400 L 209.7644391395447 389 M 209.7644391395447 382 L 209.7644391395447 371 M 209.7644391395447 364 L 209.7644391395447 353 M 209.7644391395447 346 L 209.7644391395447 335 M 209.7644391395447 328 L 209.7644391395447 317 M 209.7644391395447 310 L 209.7644391395447 299 M 209.7644391395447 292 L 209.7644391395447 281 M 209.7644391395447 274 L 209.7644391395447 263 M 209.7644391395447 256 L 209.7644391395447 245 M 209.7644391395447 238 L 209.7644391395447 227 M 209.7644391395447 220 L 209.7644391395447 209 M 209.7644391395447 202 L 209.7644391395447 191 M 209.7644391395447 184 L 209.7644391395447 173 M 209.7644391395447 166 L 209.7644391395447 155 M 209.7644391395447 148 L 209.7644391395447 137 M 209.7644391395447 130 L 209.7644391395447 119 M 209.7644391395447 112 L 209.7644391395447 101 M 209.7644391395447 94 L 209.7644391395447 83 M 209.7644391395447 76 L 209.7644391395447 65 M 209.7644391395447 58 L 209.7644391395447 47 M 209.7644391395447 40 L 209.7644391395447 29 M 209.7644391395447 22 L 209.7644391395447 11 M 209.7644391395447 4 L 209.7644391395447 0" stroke-linecap="round" stroke-linejoin="round" stroke-miterlimit="10" stroke-width="2.5" stroke-opacity="0.9" stroke-dasharray=""/></g></g><g id="sketch-9c82e8a6"><title>Expression 2</title><path fill="#2d70b3" stroke="none" paint-order="stroke fill markers" d="" fill-opacity="0.4"/><g><path fill="none" stroke="#2d70b3" class="dcg-svg-curve" paint-order="fill stroke markers" d=" M 0 190.89274985118777 L 11 190.89274985118777 M 18 190.89274985118777 L 29 190.89274985118777 M 36 190.89274985118777 L 47 190.89274985118777 M 54 190.89274985118777 L 65 190.89274985118777 M 72 190.89274985118777 L 83 190.89274985118777 M 90 190.89274985118777 L 101 190.89274985118777 M 108 190.89274985118777 L 119 190.89274985118777 M 126 190.89274985118777 L 137 190.89274985118777 M 144 190.89274985118777 L 155 190.89274985118777 M 162 190.89274985118777 L 173 190.89274985118777 M 180 190.89274985118777 L 191 190.89274985118777 M 198 190.89274985118777 L 209 190.89274985118777 M 216 190.89274985118777 L 227 190.89274985118777 M 234 190.89274985118777 L 245 190.89274985118777 M 252 190.89274985118777 L 263 190.89274985118777 M 270 190.89274985118777 L 281 190.89274985118777 M 288 190.89274985118777 L 299 190.89274985118777 M 306 190.89274985118777 L 317 190.89274985118777 M 324 190.89274985118777 L 335 190.89274985118777 M 342 190.89274985118777 L 353 190.89274985118777 M 360 190.89274985118777 L 371 190.89274985118777 M 378 190.89274985118777 L 389 190.89274985118777 M 396 190.89274985118777 L 400 190.89274985118777" stroke-linecap="round" stroke-linejoin="round" stroke-miterlimit="10" stroke-width="2.5" stroke-opacity="0.9" stroke-dasharray=""/></g></g><g id="sketch-9c82e8a6"><title>Expression 3</title><path fill="#388c46" stroke="none" paint-order="stroke fill markers" d="" fill-opacity="0.4"/><g><path fill="none" stroke="#388c46" class="dcg-svg-curve" paint-order="fill stroke markers" d=" M -1.9531249999999998 190.25832205037557 L -1.9531249999999998 190.25832205037557 L 75.06122589111331 189.89559837000783 L 115.88573455810548 189.46197266684933 L 140.34099578857422 188.95796381743665 L 156.21719360351562 188.38432001010486 L 167.16289520263672 187.73982401335206 L 175.05168914794925 187.02329241428373 L 180.8696746826172 186.24417385014112 L 185.40573120117188 185.3785202397406 L 188.9556884765625 184.43779679870502 L 191.81537628173828 183.40937817465755 L 194.18201446533203 182.27281351787408 L 196.2528228759766 180.95171052693314 L 198.02780151367188 179.44828740018147 L 199.506950378418 177.7979747324076 L 200.69026947021484 176.09034770255246 L 201.77497863769534 174.0806624043223 L 202.662467956543 171.97976004184338 L 203.45134735107422 169.6164064823688 L 204.2402267456055 166.57806043813488 L 204.9304962158203 163.1060112136366 L 205.62076568603516 158.47718667581117 L 206.2124252319336 153.07772093968617 L 206.80408477783203 145.51996936667135 L 207.29713439941403 136.45297740408517 L 207.7901840209961 122.8572121193086 L 208.18462371826175 105.87047015898861 L 208.57906341552737 77.57888160766731 L 208.8748931884766 39.89491949842784 L 209.06321369937058 -8" stroke-linecap="round" stroke-linejoin="round" stroke-miterlimit="10" stroke-width="5" stroke-opacity="0.9" stroke-dasharray=""/></g><g><path fill="none" stroke="#388c46" class="dcg-svg-curve" paint-order="fill stroke markers" d=" M 210.41781960196295 408 L 210.41781960196295 408 L 210.55126190185547 361.60401424813034 L 210.8470916748047 314.9579547399488 L 211.2415313720703 281.82783545562677 L 211.63597106933597 262.6625692554178 L 212.12902069091797 247.6975187678528 L 212.7206802368164 236.32866126393787 L 213.31233978271484 228.75161967859935 L 214.0026092529297 222.58555712812094 L 214.6928787231445 218.1467125572212 L 215.48175811767578 214.38619304093194 L 216.27063751220706 211.53760279246154 L 217.15812683105472 209.0595313294756 L 218.14422607421875 206.9217383752967 L 219.22893524169925 205.0846843356652 L 220.51086425781253 203.391744366307 L 221.9900131225586 201.8795148731811 L 223.7649917602539 200.4866217681925 L 225.93441009521487 199.1994752608131 L 228.39965820312503 198.10058079495573 L 231.35795593261722 197.11311265255696 L 234.90791320800784 196.2348719558989 L 239.34535980224612 195.4334979280295 L 244.9661254882813 194.70846218041228 L 252.16464996337893 194.06064703850234 L 261.8284225463867 193.47264289472923 L 275.04215240478516 192.95041244216415 L 293.77803802490234 192.49153279100275 L 321.6846466064453 192.09288619519955 L 365.46745300292974 191.75541464666966 L 401.953125 191.59164379496494" stroke-linecap="round" stroke-linejoin="round" stroke-miterlimit="10" stroke-width="5" stroke-opacity="0.9" stroke-dasharray=""/></g></g></g><g id="labels-9c82e8a6"/></g></svg>