<?xml version="1.0" encoding="UTF-8"?>
<svg xmlns="http://www.w3.org/2000/svg" xmlns:xlink="http://www.w3.org/1999/xlink" width="175.31pt" height="175.31pt" viewBox="0 0 175.31 175.31" version="1.2">
<defs>
<clipPath id="clip1">
  <path d="M 0 87 L 174.621094 87 L 174.621094 88 L 0 88 Z M 0 87 "/>
</clipPath>
<clipPath id="clip2">
  <path d="M 87 0 L 88 0 L 88 174.621094 L 87 174.621094 Z M 87 0 "/>
</clipPath>
<clipPath id="clip3">
  <path d="M 114 139 L 150 139 L 150 174.621094 L 114 174.621094 Z M 114 139 "/>
</clipPath>
<clipPath id="clip4">
  <path d="M 135 164 L 146 164 L 146 174.621094 L 135 174.621094 Z M 135 164 "/>
</clipPath>
</defs>
<g id="surface1">
<g clip-path="url(#clip1)" clip-rule="nonzero">
<path style="fill:none;stroke-width:2.5;stroke-linecap:round;stroke-linejoin:round;stroke:rgb(0%,0%,0%);stroke-opacity:1;stroke-miterlimit:10;" d="M 0 876.577697 L 1753.123039 876.577697 " transform="matrix(0.099608,0,0,-0.099608,0,174.622705)"/>
</g>
<g clip-path="url(#clip2)" clip-rule="nonzero">
<path style="fill:none;stroke-width:2.5;stroke-linecap:round;stroke-linejoin:round;stroke:rgb(0%,0%,0%);stroke-opacity:1;stroke-miterlimit:10;" d="M 876.56152 0.0161771 L 876.56152 1753.139216 " transform="matrix(0.099608,0,0,-0.099608,0,174.622705)"/>
</g>
<path style="fill:none;stroke-width:5;stroke-linecap:round;stroke-linejoin:round;stroke:rgb(100%,0%,0%);stroke-opacity:1;stroke-miterlimit:10;" d="M 876.56152 876.577697 L 930.640722 879.911078 L 979.700245 888.734733 L 1035.701044 905.636935 L 1087.348839 927.990195 L 1133.114198 953.676835 L 1172.918687 981.167423 L 1250.488421 1052.776288 L 1282.214363 1092.698426 L 1305.783327 1130.032291 L 1324.45026 1169.366186 L 1336.332782 1208.464782 L 1339.274 1226.308174 L 1340.372055 1244.347647 L 1337.273972 1273.014722 L 1328.960128 1295.642496 L 1317.5482 1311.995671 L 1302.449946 1324.937032 L 1292.998831 1330.270441 L 1283.822229 1334.113633 L 1266.253351 1338.662717 L 1247.115823 1340.388232 L 1229.860675 1339.68234 L 1214.017312 1337.447014 L 1196.997462 1333.603822 L 1179.428584 1328.19198 L 1143.310422 1312.819212 L 1113.153129 1295.877794 L 1066.838743 1262.465552 L 1001.112315 1197.758747 L 965.464748 1151.091415 L 924.679853 1080.619822 L 908.483543 1043.325173 L 898.561833 1015.128692 L 888.914637 980.57918 L 884.60085 960.42203 L 882.09101 946.068884 L 880.640009 936.225606 L 879.698819 929.088249 L 879.032143 923.166596 L 878.561548 918.578296 L 878.208602 914.617455 L 877.934088 911.440939 L 877.738007 908.852667 L 877.581142 906.460476 L 877.463493 904.499663 L 877.345845 902.813365 L 877.267412 901.283931 L 877.18898 899.911363 L 877.110547 898.656443 " transform="matrix(0.099608,0,0,-0.099608,0,174.622705)"/>
<path style="fill:none;stroke-width:5;stroke-linecap:round;stroke-linejoin:round;stroke:rgb(100%,0%,0%);stroke-opacity:1;stroke-miterlimit:10;" d="M 877.110547 898.656443 L 877.071331 897.558388 L 876.992898 896.577982 L 876.992898 895.676008 L 876.953682 894.852467 L 876.914466 894.107358 " transform="matrix(0.099608,0,0,-0.099608,0,174.622705)"/>
<path style="fill:none;stroke-width:5;stroke-linecap:round;stroke-linejoin:round;stroke:rgb(100%,0%,0%);stroke-opacity:1;stroke-miterlimit:10;" d="M 0 1474.899954 L 51.451714 1425.056106 L 153.061006 1328.348845 L 242.042667 1245.563351 L 314.435856 1180.229086 L 374.98574 1127.561668 L 432.202242 1080.149227 L 481.928441 1041.325144 L 530.438937 1006.069739 L 574.008185 977.167366 L 613.695026 953.441538 L 654.244624 932.1079 L 692.009868 915.048833 L 731.304546 900.538823 L 768.638412 889.832788 L 785.658263 885.989596 L 804.285979 882.538566 L 822.678398 879.871861 L 832.678541 878.773806 L 842.051224 877.911049 L 846.521876 877.597319 L 851.345474 877.283589 L 855.580828 877.087508 L 860.129913 876.891427 L 864.169186 876.734562 L 866.482944 876.695345 L 868.639838 876.656129 L 870.639867 876.616913 L 872.443814 876.577697 L 876.56152 876.577697 " transform="matrix(0.099608,0,0,-0.099608,0,174.622705)"/>
<path style="fill:none;stroke-width:5;stroke-linecap:round;stroke-linejoin:round;stroke:rgb(100%,0%,0%);stroke-opacity:1;stroke-miterlimit:10;" d="M 876.914466 859.048035 L 876.953682 858.302926 L 876.992898 857.440169 L 876.992898 856.577411 L 877.071331 855.636222 L 877.110547 854.538167 L 877.18898 853.361679 L 877.228196 851.989111 L 877.345845 850.459677 L 877.424277 848.812595 L 877.541926 846.851783 L 877.698791 844.655673 L 877.894872 842.224266 L 878.169386 839.204615 L 878.483116 835.714369 L 878.914494 831.243717 L 879.502738 825.871091 L 880.287063 819.361194 L 881.581199 810.302242 L 883.502795 798.380503 L 887.189122 779.948868 L 894.404911 751.360225 L 911.385546 701.202647 L 931.856426 654.652963 L 983.033626 564.808545 L 1149.585021 349.393708 " transform="matrix(0.099608,0,0,-0.099608,0,174.622705)"/>
<g clip-path="url(#clip3)" clip-rule="nonzero">
<path style="fill:none;stroke-width:5;stroke-linecap:round;stroke-linejoin:round;stroke:rgb(100%,0%,0%);stroke-opacity:1;stroke-miterlimit:10;" d="M 1149.585021 349.393708 L 1498.962552 0.0161771 " transform="matrix(0.099608,0,0,-0.099608,0,174.622705)"/>
</g>
<path style="fill:none;stroke-width:5;stroke-linecap:round;stroke-linejoin:round;stroke:rgb(0%,0%,100%);stroke-opacity:1;stroke-dasharray:52.5938;stroke-miterlimit:10;" d="M 0 1460.938971 L 512.987707 947.951263 L 638.362044 822.53771 L 759.108864 701.830107 L 1366.01948 94.919491 " transform="matrix(0.099608,0,0,-0.099608,0,174.622705)"/>
<g clip-path="url(#clip4)" clip-rule="nonzero">
<path style="fill:none;stroke-width:5;stroke-linecap:round;stroke-linejoin:round;stroke:rgb(0%,0%,100%);stroke-opacity:1;stroke-dasharray:52.5938;stroke-miterlimit:10;" d="M 1366.01948 94.919491 L 1460.922794 0.0161771 " transform="matrix(0.099608,0,0,-0.099608,0,174.622705)"/>
</g>
</g>
</svg>
