<svg version="1.1" xmlns="http://www.w3.org/2000/svg" xmlns:xlink="http://www.w3.org/1999/xlink" width="800" height="800"><defs/><g transform="scale(2,2)"><g id="background-e1e19ad0"><rect fill="white" stroke="none" x="0" y="0" width="400" height="400" class="dcg-svg-background"/></g><g id="background-images-e1e19ad0"/><g id="graphpaper-e1e19ad0"><g id="grid-e1e19ad0"><g><path fill="none" stroke="rgb(0,0,0)" class="dcg-svg-minor-gridline" paint-order="fill stroke markers" d=" M 17.5 0 L 17.5 400" stroke-opacity="0.2" stroke-miterlimit="10" stroke-dasharray=""/><path fill="none" stroke="rgb(0,0,0)" class="dcg-svg-minor-gridline" paint-order="fill stroke markers" d=" M 52.5 0 L 52.5 400" stroke-opacity="0.2" stroke-miterlimit="10" stroke-dasharray=""/><path fill="none" stroke="rgb(0,0,0)" class="dcg-svg-minor-gridline" paint-order="fill stroke markers" d=" M 87.5 0 L 87.5 400" stroke-opacity="0.2" stroke-miterlimit="10" stroke-dasharray=""/><path fill="none" stroke="rgb(0,0,0)" class="dcg-svg-minor-gridline" paint-order="fill stroke markers" d=" M 157.5 0 L 157.5 400" stroke-opacity="0.2" stroke-miterlimit="10" stroke-dasharray=""/><path fill="none" stroke="rgb(0,0,0)" class="dcg-svg-minor-gridline" paint-order="fill stroke markers" d=" M 192.5 0 L 192.5 400" stroke-opacity="0.2" stroke-miterlimit="10" stroke-dasharray=""/><path fill="none" stroke="rgb(0,0,0)" class="dcg-svg-minor-gridline" paint-order="fill stroke markers" d=" M 227.5 0 L 227.5 400" stroke-opacity="0.2" stroke-miterlimit="10" stroke-dasharray=""/><path fill="none" stroke="rgb(0,0,0)" class="dcg-svg-minor-gridline" paint-order="fill stroke markers" d=" M 262.5 0 L 262.5 400" stroke-opacity="0.2" stroke-miterlimit="10" stroke-dasharray=""/><path fill="none" stroke="rgb(0,0,0)" class="dcg-svg-minor-gridline" paint-order="fill stroke markers" d=" M 297.5 0 L 297.5 400" stroke-opacity="0.2" stroke-miterlimit="10" stroke-dasharray=""/><path fill="none" stroke="rgb(0,0,0)" class="dcg-svg-minor-gridline" paint-order="fill stroke markers" d=" M 332.5 0 L 332.5 400" stroke-opacity="0.2" stroke-miterlimit="10" stroke-dasharray=""/><path fill="none" stroke="rgb(0,0,0)" class="dcg-svg-minor-gridline" paint-order="fill stroke markers" d=" M 367.5 0 L 367.5 400" stroke-opacity="0.2" stroke-miterlimit="10" stroke-dasharray=""/><path fill="none" stroke="rgb(0,0,0)" class="dcg-svg-minor-gridline" paint-order="fill stroke markers" d=" M 0 384.5 L 400 384.5" stroke-opacity="0.2" stroke-miterlimit="10" stroke-dasharray=""/><path fill="none" stroke="rgb(0,0,0)" class="dcg-svg-minor-gridline" paint-order="fill stroke markers" d=" M 0 349.5 L 400 349.5" stroke-opacity="0.2" stroke-miterlimit="10" stroke-dasharray=""/><path fill="none" stroke="rgb(0,0,0)" class="dcg-svg-minor-gridline" paint-order="fill stroke markers" d=" M 0 314.5 L 400 314.5" stroke-opacity="0.2" stroke-miterlimit="10" stroke-dasharray=""/><path fill="none" stroke="rgb(0,0,0)" class="dcg-svg-minor-gridline" paint-order="fill stroke markers" d=" M 0 278.5 L 400 278.5" stroke-opacity="0.2" stroke-miterlimit="10" stroke-dasharray=""/><path fill="none" stroke="rgb(0,0,0)" class="dcg-svg-minor-gridline" paint-order="fill stroke markers" d=" M 0 243.5 L 400 243.5" stroke-opacity="0.2" stroke-miterlimit="10" stroke-dasharray=""/><path fill="none" stroke="rgb(0,0,0)" class="dcg-svg-minor-gridline" paint-order="fill stroke markers" d=" M 0 173.5 L 400 173.5" stroke-opacity="0.2" stroke-miterlimit="10" stroke-dasharray=""/><path fill="none" stroke="rgb(0,0,0)" class="dcg-svg-minor-gridline" paint-order="fill stroke markers" d=" M 0 138.5 L 400 138.5" stroke-opacity="0.2" stroke-miterlimit="10" stroke-dasharray=""/><path fill="none" stroke="rgb(0,0,0)" class="dcg-svg-minor-gridline" paint-order="fill stroke markers" d=" M 0 103.5 L 400 103.5" stroke-opacity="0.2" stroke-miterlimit="10" stroke-dasharray=""/><path fill="none" stroke="rgb(0,0,0)" class="dcg-svg-minor-gridline" paint-order="fill stroke markers" d=" M 0 68.5 L 400 68.5" stroke-opacity="0.2" stroke-miterlimit="10" stroke-dasharray=""/><path fill="none" stroke="rgb(0,0,0)" class="dcg-svg-minor-gridline" paint-order="fill stroke markers" d=" M 0 33.5 L 400 33.5" stroke-opacity="0.2" stroke-miterlimit="10" stroke-dasharray=""/><path fill="none" stroke="rgb(0,0,0)" class="dcg-svg-major-gridline" paint-order="fill stroke markers" d=" M 297.5 0 L 297.5 400" stroke-opacity="0.2500000000000001" stroke-miterlimit="10" stroke-dasharray=""/><path fill="none" stroke="rgb(0,0,0)" class="dcg-svg-major-gridline" paint-order="fill stroke markers" d=" M 0 349 L 400 349" stroke-opacity="0.2500000000000001" stroke-miterlimit="10" stroke-dasharray=""/><path fill="none" stroke="rgb(0,0,0)" class="dcg-svg-major-gridline" paint-order="fill stroke markers" d=" M 0 69 L 400 69" stroke-opacity="0.2500000000000001" stroke-miterlimit="10" stroke-dasharray=""/></g></g><g id="axis-e1e19ad0"><g id="yaxis-e1e19ad0"><title>Y axis</title><path fill="none" stroke="rgb(0,0,0)" class="dcg-svg-axis-line" paint-order="fill stroke markers" d=" M 122 0 L 122 400" stroke-opacity="0.9" stroke-miterlimit="10" stroke-width="1.5" stroke-dasharray=""/></g><g id="xaxis-e1e19ad0"><title>X axis</title><path fill="none" stroke="rgb(0,0,0)" class="dcg-svg-axis-line" paint-order="fill stroke markers" d=" M 0 209 L 400 209" stroke-opacity="0.9" stroke-miterlimit="10" stroke-width="1.5" stroke-dasharray=""/></g><g><g class="dcg-svg-axis-value"><text fill="none" stroke="#ffffff" font-family="Arial" font-size="14px" font-style="normal" font-weight="normal" text-decoration="normal" x="113.56680670570908" y="224.72587401356893" text-anchor="middle" stroke-miterlimit="2" stroke-width="3" stroke-dasharray="">0</text><text fill="#000000" stroke="none" font-family="Arial" font-size="14px" font-style="normal" font-weight="normal" text-decoration="normal" x="113.56680670570908" y="224.72587401356893" text-anchor="middle">0</text></g><g class="dcg-svg-axis-value"><text fill="none" stroke="#ffffff" font-family="Arial" font-size="14px" font-style="normal" font-weight="normal" text-decoration="normal" x="297.6348123902096" y="224.72587401356893" text-anchor="middle" stroke-miterlimit="2" stroke-width="3" stroke-dasharray="">5</text><text fill="#000000" stroke="none" font-family="Arial" font-size="14px" font-style="normal" font-weight="normal" text-decoration="normal" x="297.6348123902096" y="224.72587401356893" text-anchor="middle">5</text></g><g class="dcg-svg-axis-value"><text fill="none" stroke="#ffffff" font-family="Arial" font-size="14px" font-style="normal" font-weight="normal" text-decoration="normal" x="111.23575201820908" y="352.8658254361694" text-anchor="middle" stroke-miterlimit="2" stroke-width="3" stroke-dasharray="">-2</text><text fill="#000000" stroke="none" font-family="Arial" font-size="14px" font-style="normal" font-weight="normal" text-decoration="normal" x="111.23575201820908" y="352.8658254361694" text-anchor="middle">-2</text></g><g class="dcg-svg-axis-value"><text fill="none" stroke="#ffffff" font-family="Arial" font-size="14px" font-style="normal" font-weight="normal" text-decoration="normal" x="113.56680670570908" y="72.58592259096845" text-anchor="middle" stroke-miterlimit="2" stroke-width="3" stroke-dasharray="">2</text><text fill="#000000" stroke="none" font-family="Arial" font-size="14px" font-style="normal" font-weight="normal" text-decoration="normal" x="113.56680670570908" y="72.58592259096845" text-anchor="middle">2</text></g></g></g></g><g id="expressions-e1e19ad0"><g id="sketch-e1e19ad0"><title>Expression 1</title><path fill="#388c46" stroke="none" paint-order="stroke fill markers" d="" fill-opacity="0.4"/><g><path fill="none" stroke="#388c46" class="dcg-svg-curve" paint-order="fill stroke markers" d=" M 0 119.50431531969764 L 0 119.50431531969764 L 2.636718750000003 115.51379217040079 L 5.175781250000006 111.27078252152916 L 7.61718750000001 106.75843424866406 L 10.058593749999998 101.74858616155012 L 12.402343749999988 96.38741696974051 L 14.648437500000007 90.6489188196449 L 16.894531249999996 84.21023975188217 L 19.042968749999986 77.26684760594492 L 21.093749999999993 69.77695240875312 L 23.046875 61.69766038808797 L 24.90234374999999 52.986101696501635 L 26.660156249999996 43.60108486111693 L 28.320312500000004 33.505436084897156 L 29.882812499999996 22.669205313869554 L 31.347656250000007 11.073933258418265 L 32.8125 -2.2295132625343967 L 33.124732413610424 -5.5" stroke-linecap="round" stroke-linejoin="round" stroke-miterlimit="10" stroke-width="2.5" stroke-opacity="0.9" stroke-dasharray=""/></g><g><path fill="none" stroke="#388c46" class="dcg-svg-curve" paint-order="fill stroke markers" d=" M 68.681613111973 405.5 L 68.681613111973 405.5 L 69.04296875 400.21953815345876 L 70.41015625 383.10932508234845 L 71.875 367.3810591777858 L 73.33984375 353.79207619038334 L 74.90234375 341.18225425582153 L 76.5625 329.50026244239075 L 78.22265625 319.249149959754 L 79.98046875 309.664337558626 L 81.83593750000001 300.7060111101688 L 83.88671875 291.9356991357454 L 86.03515624999999 283.78644424694886 L 88.28125 276.1922540484531 L 90.72265625 268.8107949468281 L 93.359375 261.66670038046743 L 96.09375 254.99040942142597 L 98.92578124999999 248.70750843977294 L 101.953125 242.55940885148095 L 105.27343750000001 236.34770560288857 L 108.98437499999999 229.90741970427916 L 113.28125 222.92617668587718 L 118.74999999999999 214.498326810143 L 132.91015625 192.88584996544918 L 137.109375 185.9392220474376 L 140.72265625 179.52714884085253 L 143.9453125 173.3451326883743 L 146.87499999999997 167.23439774016447 L 149.609375 160.99980947572033 L 152.24609375000003 154.38409057668173 L 154.78515625 147.32055787766248 L 157.2265625 139.73633834784425 L 159.47265624999997 131.91243233913553 L 161.5234375 123.89861527712588 L 163.4765625 115.32159064936519 L 165.33203125 106.13032893356808 L 167.08984375 96.2756061355903 L 168.75 85.71229349460395 L 170.3125 74.40257322363249 L 171.77734375 62.32029573315282 L 173.24218749999997 48.47027346814184 L 174.609375 33.56396726417273 L 175.87890625 17.58742606988801 L 177.1484375 -0.9689838019213539 L 177.41368203488514 -5.5" stroke-linecap="round" stroke-linejoin="round" stroke-miterlimit="10" stroke-width="2.5" stroke-opacity="0.9" stroke-dasharray=""/></g><g><path fill="none" stroke="#388c46" class="dcg-svg-curve" paint-order="fill stroke markers" d=" M 213.74177467917505 405.5 L 213.74177467917505 405.5 L 214.94140624999997 395.877216061283 L 216.50390624999997 384.95296265703695 L 218.1640625 374.7807886135351 L 219.921875 365.32936195764034 L 221.77734375 356.56022380671675 L 223.73046875 348.4310172293717 L 225.78124999999997 340.897834146114 L 227.92968749999997 333.9168678097136 L 230.2734375 327.1810785504569 L 232.6171875 321.20778935989665 L 235.05859375 315.6615004798683 L 237.49999999999997 310.694974919879 L 240.0390625 306.0496156000754 L 242.67578125000003 301.7022500612973 L 245.41015625 297.63099558535157 L 248.2421875 293.815340611261 L 251.26953124999997 290.12267655157063 L 254.39453125 286.6695875765481 L 257.71484375 283.3429134305087 L 261.23046875 280.15019850197035 L 264.94140625000006 277.0954713242719 L 268.9453125 274.1106314084495 L 273.14453125 271.27703366768696 L 277.63671875000006 268.53332355652594 L 282.51953125 265.8387810892818 L 287.79296875 263.21515280507776 L 293.45703124999994 260.678310743616 L 299.609375 258.20188018818317 L 306.25 255.80412315584323 L 313.4765625 253.46787761109977 L 321.38671875 251.18413820381772 L 329.98046875000006 248.9736347771251 L 339.35546875 246.82966378774762 L 349.70703125 244.7311638062171 L 361.03515625 242.7015922525227 L 373.53515625 240.72806890241932 L 387.40234375 238.80576615099898 L 400 237.2600351078428" stroke-linecap="round" stroke-linejoin="round" stroke-miterlimit="10" stroke-width="2.5" stroke-opacity="0.9" stroke-dasharray=""/></g></g><g id="sketch-e1e19ad0"><title>Expression 2</title><path fill="#6042a6" stroke="none" paint-order="stroke fill markers" d="" fill-opacity="0.4"/><g><path fill="none" stroke="#6042a6" class="dcg-svg-curve" paint-order="fill stroke markers" d=" M 192.52984882325933 400 L 192.52984882325933 389 M 192.52984882325933 382 L 192.52984882325933 371 M 192.52984882325933 364 L 192.52984882325933 353 M 192.52984882325933 346 L 192.52984882325933 335 M 192.52984882325933 328 L 192.52984882325933 317 M 192.52984882325933 310 L 192.52984882325933 299 M 192.52984882325933 292 L 192.52984882325933 281 M 192.52984882325933 274 L 192.52984882325933 263 M 192.52984882325933 256 L 192.52984882325933 245 M 192.52984882325933 238 L 192.52984882325933 227 M 192.52984882325933 220 L 192.52984882325933 209 M 192.52984882325933 202 L 192.52984882325933 191 M 192.52984882325933 184 L 192.52984882325933 173 M 192.52984882325933 166 L 192.52984882325933 155 M 192.52984882325933 148 L 192.52984882325933 137 M 192.52984882325933 130 L 192.52984882325933 119 M 192.52984882325933 112 L 192.52984882325933 101 M 192.52984882325933 94 L 192.52984882325933 83 M 192.52984882325933 76 L 192.52984882325933 65 M 192.52984882325933 58 L 192.52984882325933 47 M 192.52984882325933 40 L 192.52984882325933 29 M 192.52984882325933 22 L 192.52984882325933 11 M 192.52984882325933 4 L 192.52984882325933 0" stroke-linecap="round" stroke-linejoin="round" stroke-miterlimit="10" stroke-width="2.5" stroke-opacity="0.3" stroke-dasharray=""/></g></g><g id="sketch-e1e19ad0"><title>"x" equals 2</title></g></g><g id="labels-e1e19ad0"><g transform="rotate(0,0,0) translate(203.04034517995433,138.84789830226867)"><g class="dcg-svg-label"><g transform="translate(-12.634095179954329,-9.004148302268675)"><g><text fill="none" stroke="#FFF" font-family="arial, sans-serif" font-size="15.4px" font-style="normal" font-weight="400" text-decoration="normal" x="0" y="13.9888" text-anchor="start" stroke-linecap="round" stroke-linejoin="round" stroke-miterlimit="2" stroke-width="3" stroke-opacity="0.9" stroke-dasharray="">x=2</text></g></g><g transform="translate(-12.634095179954329,-9.004148302268675)"><g><text fill="rgb(0, 0, 0)" stroke="none" font-family="arial, sans-serif" font-size="15.4px" font-style="normal" font-weight="400" text-decoration="normal" x="0" y="13.9888" text-anchor="start" fill-opacity="0.9">x=2</text></g></g></g></g></g></g></svg>