<svg version="1.1" xmlns="http://www.w3.org/2000/svg" viewBox="0 0 2599.1626741923983 754" width="2599.1626741923983" height="754">
  <!-- svg-source:excalidraw -->
  
  <defs>
    <style class="style-fonts">
      @font-face {
        font-family: "Virgil";
        src: url("https://excalidraw.com/Virgil.woff2");
      }
      @font-face {
        font-family: "Cascadia";
        src: url("https://excalidraw.com/Cascadia.woff2");
      }
    </style>
  </defs>
  <g transform="translate(1227.1626741923983 10) rotate(0 681 367)"><text x="0" y="32.875" font-family="Virgil, Segoe UI Emoji" font-size="36px" fill="#000000" text-anchor="start" style="white-space: pre;" direction="ltr">class lambda32xzj</text><text x="0" y="78.75" font-family="Virgil, Segoe UI Emoji" font-size="36px" fill="#000000" text-anchor="start" style="white-space: pre;" direction="ltr">{</text><text x="0" y="124.625" font-family="Virgil, Segoe UI Emoji" font-size="36px" fill="#000000" text-anchor="start" style="white-space: pre;" direction="ltr">private:</text><text x="0" y="170.5" font-family="Virgil, Segoe UI Emoji" font-size="36px" fill="#000000" text-anchor="start" style="white-space: pre;" direction="ltr">&nbsp; &nbsp; int m_min{0};</text><text x="0" y="216.375" font-family="Virgil, Segoe UI Emoji" font-size="36px" fill="#000000" text-anchor="start" style="white-space: pre;" direction="ltr">&nbsp; &nbsp; int m_max{0};</text><text x="0" y="262.25" font-family="Virgil, Segoe UI Emoji" font-size="36px" fill="#000000" text-anchor="start" style="white-space: pre;" direction="ltr">public:</text><text x="0" y="308.125" font-family="Virgil, Segoe UI Emoji" font-size="36px" fill="#000000" text-anchor="start" style="white-space: pre;" direction="ltr">&nbsp; &nbsp; lambda32xzj(int min, int max)  //👈capture clause, behavior parameters</text><text x="0" y="354" font-family="Virgil, Segoe UI Emoji" font-size="36px" fill="#000000" text-anchor="start" style="white-space: pre;" direction="ltr">&nbsp; &nbsp; &nbsp; &nbsp; :m_min{min}, m_max{max}</text><text x="0" y="399.875" font-family="Virgil, Segoe UI Emoji" font-size="36px" fill="#000000" text-anchor="start" style="white-space: pre;" direction="ltr">&nbsp; &nbsp; &nbsp; &nbsp; {}</text><text x="0" y="445.75" font-family="Virgil, Segoe UI Emoji" font-size="36px" fill="#000000" text-anchor="start" style="white-space: pre;" direction="ltr"></text><text x="0" y="491.625" font-family="Virgil, Segoe UI Emoji" font-size="36px" fill="#000000" text-anchor="start" style="white-space: pre;" direction="ltr"></text><text x="0" y="537.5" font-family="Virgil, Segoe UI Emoji" font-size="36px" fill="#000000" text-anchor="start" style="white-space: pre;" direction="ltr">&nbsp; &nbsp; bool operator() (int num) const noexcept  //👈call parameters</text><text x="0" y="583.375" font-family="Virgil, Segoe UI Emoji" font-size="36px" fill="#000000" text-anchor="start" style="white-space: pre;" direction="ltr">&nbsp; &nbsp; {</text><text x="0" y="629.25" font-family="Virgil, Segoe UI Emoji" font-size="36px" fill="#000000" text-anchor="start" style="white-space: pre;" direction="ltr">&nbsp; &nbsp; &nbsp; &nbsp; return (m_min &lt;= num) &amp;&amp; (num &lt;= m_max);</text><text x="0" y="675.125" font-family="Virgil, Segoe UI Emoji" font-size="36px" fill="#000000" text-anchor="start" style="white-space: pre;" direction="ltr">&nbsp; &nbsp; }</text><text x="0" y="721" font-family="Virgil, Segoe UI Emoji" font-size="36px" fill="#000000" text-anchor="start" style="white-space: pre;" direction="ltr">};</text></g><g transform="translate(99.52383858816972 113.7698122054826) rotate(0 485 90)"><text x="0" y="32" font-family="Virgil, Segoe UI Emoji" font-size="36px" fill="#000000" text-anchor="start" style="white-space: pre;" direction="ltr">auto inRange = [MIN, MAX] (int num) noexcept -&gt; bool</text><text x="0" y="77" font-family="Virgil, Segoe UI Emoji" font-size="36px" fill="#000000" text-anchor="start" style="white-space: pre;" direction="ltr">&nbsp; &nbsp; {</text><text x="0" y="122" font-family="Virgil, Segoe UI Emoji" font-size="36px" fill="#000000" text-anchor="start" style="white-space: pre;" direction="ltr">&nbsp; &nbsp; &nbsp; &nbsp; return (MIN &lt;= num) &amp;&amp; (num &lt;= MAX);</text><text x="0" y="167" font-family="Virgil, Segoe UI Emoji" font-size="36px" fill="#000000" text-anchor="start" style="white-space: pre;" direction="ltr">&nbsp; &nbsp; };</text></g><g stroke-linecap="round"><g transform="translate(396.34926932198664 95.64283292255823) rotate(0 95.63494001116067 0)"><path d="M0 0 C31.88 0, 159.39 0, 191.27 0" stroke="#000000" stroke-width="2.5" fill="none" stroke-dasharray="8 10"></path></g></g><mask></mask><g stroke-linecap="round"><g transform="translate(620.1587350027901 95.64283292255823) rotate(0 63.492082868303555 0)"><path d="M0 0 C21.16 0, 105.82 0, 126.98 0" stroke="#000000" stroke-width="2.5" fill="none" stroke-dasharray="8 10"></path></g></g><mask></mask><g stroke-linecap="round"><g transform="translate(779.3651035853794 94.8491797068773) rotate(0 63.492082868303555 0)"><path d="M0 0 C21.16 0, 105.82 0, 126.98 0" stroke="#000000" stroke-width="2.5" fill="none" stroke-dasharray="8 10"></path></g></g><mask></mask><g stroke-linecap="round"><g transform="translate(80.47624860491067 160.72222222222376) rotate(0 -5.684341886080802e-14 63.095223563058084)"><path d="M0 0 C0 21.03, 0 105.16, 0 126.19" stroke="#000000" stroke-width="2.5" fill="none" stroke-dasharray="8 10"></path></g></g><mask></mask><g stroke-linecap="round"><g transform="translate(1274.9207850864957 568.658754379031) rotate(0 0 66.26983642578125)"><path d="M0 0 C0 22.09, 0 110.45, 0 132.54" stroke="#000000" stroke-width="2.5" fill="none" stroke-dasharray="8 10"></path></g></g><mask></mask><g stroke-linecap="round"><g transform="translate(1589.20649937221 506.75393434554917) rotate(0 68.25395856584817 0)"><path d="M0 0 C22.75 0, 113.76 0, 136.51 0" stroke="#000000" stroke-width="2.5" fill="none" stroke-dasharray="8 10"></path></g></g><mask></mask><g stroke-linecap="round"><g transform="translate(1878.8891165597097 506.75393434554894) rotate(0 59.12693568638383 0)"><path d="M0 0 C19.71 0, 98.54 0, 118.25 0" stroke="#000000" stroke-width="2.5" fill="none" stroke-dasharray="8 10"></path></g></g><mask></mask><g stroke-linecap="round"><g transform="translate(1528.0953107561384 273.4206300765759) rotate(0 138.88889857700894 0)"><path d="M0 0 C46.3 0, 231.48 0, 277.78 0" stroke="#000000" stroke-width="2.5" fill="none" stroke-dasharray="8 10"></path></g></g><mask></mask><g stroke-linecap="round" transform="translate(453.49212646484375 28.182527572390654) rotate(0 28.571428571428555 28.571428571428555)"><path d="M57.14 28.57 C57.14 30.23, 57 31.9, 56.71 33.53 C56.42 35.16, 55.99 36.79, 55.42 38.34 C54.85 39.9, 54.14 41.42, 53.32 42.86 C52.49 44.29, 51.52 45.67, 50.46 46.94 C49.4 48.2, 48.2 49.4, 46.94 50.46 C45.67 51.52, 44.29 52.49, 42.86 53.32 C41.42 54.14, 39.9 54.85, 38.34 55.42 C36.79 55.99, 35.16 56.42, 33.53 56.71 C31.9 57, 30.23 57.14, 28.57 57.14 C26.92 57.14, 25.24 57, 23.61 56.71 C21.98 56.42, 20.35 55.99, 18.8 55.42 C17.25 54.85, 15.72 54.14, 14.29 53.32 C12.85 52.49, 11.47 51.52, 10.21 50.46 C8.94 49.4, 7.75 48.2, 6.68 46.94 C5.62 45.67, 4.65 44.29, 3.83 42.86 C3 41.42, 2.29 39.9, 1.72 38.34 C1.16 36.79, 0.72 35.16, 0.43 33.53 C0.15 31.9, 0 30.23, 0 28.57 C0 26.92, 0.15 25.24, 0.43 23.61 C0.72 21.98, 1.16 20.35, 1.72 18.8 C2.29 17.25, 3 15.72, 3.83 14.29 C4.65 12.85, 5.62 11.47, 6.68 10.21 C7.75 8.94, 8.94 7.75, 10.21 6.68 C11.47 5.62, 12.85 4.65, 14.29 3.83 C15.72 3, 17.25 2.29, 18.8 1.72 C20.35 1.16, 21.98 0.72, 23.61 0.43 C25.24 0.15, 26.92 0, 28.57 0 C30.23 0, 31.9 0.15, 33.53 0.43 C35.16 0.72, 36.79 1.16, 38.34 1.72 C39.9 2.29, 41.42 3, 42.86 3.83 C44.29 4.65, 45.67 5.62, 46.94 6.68 C48.2 7.75, 49.4 8.94, 50.46 10.21 C51.52 11.47, 52.49 12.85, 53.32 14.29 C54.14 15.72, 54.85 17.25, 55.42 18.8 C55.99 20.35, 56.42 21.98, 56.71 23.61 C57 25.24, 57.07 27.74, 57.14 28.57 C57.22 29.4, 57.22 27.74, 57.14 28.57" stroke="#862e9c" stroke-width="4" fill="none"></path></g><g transform="translate(476.0635550362723 34.253956143819096) rotate(0 6 22.5)"><text x="6" y="32" font-family="Virgil, Segoe UI Emoji" font-size="36px" fill="#862e9c" text-anchor="middle" style="white-space: pre;" direction="ltr">1</text></g><g stroke-linecap="round" transform="translate(653.6508178710938 25.960281129868008) rotate(0 28.571428571428555 28.571428571428555)"><path d="M57.14 28.57 C57.14 30.23, 57 31.9, 56.71 33.53 C56.42 35.16, 55.99 36.79, 55.42 38.34 C54.85 39.9, 54.14 41.42, 53.32 42.86 C52.49 44.29, 51.52 45.67, 50.46 46.94 C49.4 48.2, 48.2 49.4, 46.94 50.46 C45.67 51.52, 44.29 52.49, 42.86 53.32 C41.42 54.14, 39.9 54.85, 38.34 55.42 C36.79 55.99, 35.16 56.42, 33.53 56.71 C31.9 57, 30.23 57.14, 28.57 57.14 C26.92 57.14, 25.24 57, 23.61 56.71 C21.98 56.42, 20.35 55.99, 18.8 55.42 C17.25 54.85, 15.72 54.14, 14.29 53.32 C12.85 52.49, 11.47 51.52, 10.21 50.46 C8.94 49.4, 7.75 48.2, 6.68 46.94 C5.62 45.67, 4.65 44.29, 3.83 42.86 C3 41.42, 2.29 39.9, 1.72 38.34 C1.16 36.79, 0.72 35.16, 0.43 33.53 C0.15 31.9, 0 30.23, 0 28.57 C0 26.92, 0.15 25.24, 0.43 23.61 C0.72 21.98, 1.16 20.35, 1.72 18.8 C2.29 17.25, 3 15.72, 3.83 14.29 C4.65 12.85, 5.62 11.47, 6.68 10.21 C7.75 8.94, 8.94 7.75, 10.21 6.68 C11.47 5.62, 12.85 4.65, 14.29 3.83 C15.72 3, 17.25 2.29, 18.8 1.72 C20.35 1.16, 21.98 0.72, 23.61 0.43 C25.24 0.15, 26.92 0, 28.57 0 C30.23 0, 31.9 0.15, 33.53 0.43 C35.16 0.72, 36.79 1.16, 38.34 1.72 C39.9 2.29, 41.42 3, 42.86 3.83 C44.29 4.65, 45.67 5.62, 46.94 6.68 C48.2 7.75, 49.4 8.94, 50.46 10.21 C51.52 11.47, 52.49 12.85, 53.32 14.29 C54.14 15.72, 54.85 17.25, 55.42 18.8 C55.99 20.35, 56.42 21.98, 56.71 23.61 C57 25.24, 57.07 27.74, 57.14 28.57 C57.22 29.4, 57.22 27.74, 57.14 28.57" stroke="#087f5b" stroke-width="4" fill="none"></path></g><g transform="translate(668.2222464425223 32.031709701296904) rotate(0 14 22.5)"><text x="14" y="32" font-family="Virgil, Segoe UI Emoji" font-size="36px" fill="#087f5b" text-anchor="middle" style="white-space: pre;" direction="ltr">2</text></g><g stroke-linecap="round" transform="translate(814.7619192940847 25.166627914187075) rotate(0 28.571428571428555 28.571428571428555)"><path d="M57.14 28.57 C57.14 30.23, 57 31.9, 56.71 33.53 C56.42 35.16, 55.99 36.79, 55.42 38.34 C54.85 39.9, 54.14 41.42, 53.32 42.86 C52.49 44.29, 51.52 45.67, 50.46 46.94 C49.4 48.2, 48.2 49.4, 46.94 50.46 C45.67 51.52, 44.29 52.49, 42.86 53.32 C41.42 54.14, 39.9 54.85, 38.34 55.42 C36.79 55.99, 35.16 56.42, 33.53 56.71 C31.9 57, 30.23 57.14, 28.57 57.14 C26.92 57.14, 25.24 57, 23.61 56.71 C21.98 56.42, 20.35 55.99, 18.8 55.42 C17.25 54.85, 15.72 54.14, 14.29 53.32 C12.85 52.49, 11.47 51.52, 10.21 50.46 C8.94 49.4, 7.75 48.2, 6.68 46.94 C5.62 45.67, 4.65 44.29, 3.83 42.86 C3 41.42, 2.29 39.9, 1.72 38.34 C1.16 36.79, 0.72 35.16, 0.43 33.53 C0.15 31.9, 0 30.23, 0 28.57 C0 26.92, 0.15 25.24, 0.43 23.61 C0.72 21.98, 1.16 20.35, 1.72 18.8 C2.29 17.25, 3 15.72, 3.83 14.29 C4.65 12.85, 5.62 11.47, 6.68 10.21 C7.75 8.94, 8.94 7.75, 10.21 6.68 C11.47 5.62, 12.85 4.65, 14.29 3.83 C15.72 3, 17.25 2.29, 18.8 1.72 C20.35 1.16, 21.98 0.72, 23.61 0.43 C25.24 0.15, 26.92 0, 28.57 0 C30.23 0, 31.9 0.15, 33.53 0.43 C35.16 0.72, 36.79 1.16, 38.34 1.72 C39.9 2.29, 41.42 3, 42.86 3.83 C44.29 4.65, 45.67 5.62, 46.94 6.68 C48.2 7.75, 49.4 8.94, 50.46 10.21 C51.52 11.47, 52.49 12.85, 53.32 14.29 C54.14 15.72, 54.85 17.25, 55.42 18.8 C55.99 20.35, 56.42 21.98, 56.71 23.61 C57 25.24, 57.07 27.74, 57.14 28.57 C57.22 29.4, 57.22 27.74, 57.14 28.57" stroke="#e67700" stroke-width="4" fill="none"></path></g><g transform="translate(830.8333478655132 31.23805648561597) rotate(0 12.5 22.5)"><text x="12.5" y="32" font-family="Virgil, Segoe UI Emoji" font-size="36px" fill="#e67700" text-anchor="middle" style="white-space: pre;" direction="ltr">4</text></g><g stroke-linecap="round" transform="translate(10 187.07140435113) rotate(0 28.571428571428555 28.571428571428555)"><path d="M57.14 28.57 C57.14 30.23, 57 31.9, 56.71 33.53 C56.42 35.16, 55.99 36.79, 55.42 38.34 C54.85 39.9, 54.14 41.42, 53.32 42.86 C52.49 44.29, 51.52 45.67, 50.46 46.94 C49.4 48.2, 48.2 49.4, 46.94 50.46 C45.67 51.52, 44.29 52.49, 42.86 53.32 C41.42 54.14, 39.9 54.85, 38.34 55.42 C36.79 55.99, 35.16 56.42, 33.53 56.71 C31.9 57, 30.23 57.14, 28.57 57.14 C26.92 57.14, 25.24 57, 23.61 56.71 C21.98 56.42, 20.35 55.99, 18.8 55.42 C17.25 54.85, 15.72 54.14, 14.29 53.32 C12.85 52.49, 11.47 51.52, 10.21 50.46 C8.94 49.4, 7.75 48.2, 6.68 46.94 C5.62 45.67, 4.65 44.29, 3.83 42.86 C3 41.42, 2.29 39.9, 1.72 38.34 C1.16 36.79, 0.72 35.16, 0.43 33.53 C0.15 31.9, 0 30.23, 0 28.57 C0 26.92, 0.15 25.24, 0.43 23.61 C0.72 21.98, 1.16 20.35, 1.72 18.8 C2.29 17.25, 3 15.72, 3.83 14.29 C4.65 12.85, 5.62 11.47, 6.68 10.21 C7.75 8.94, 8.94 7.75, 10.21 6.68 C11.47 5.62, 12.85 4.65, 14.29 3.83 C15.72 3, 17.25 2.29, 18.8 1.72 C20.35 1.16, 21.98 0.72, 23.61 0.43 C25.24 0.15, 26.92 0, 28.57 0 C30.23 0, 31.9 0.15, 33.53 0.43 C35.16 0.72, 36.79 1.16, 38.34 1.72 C39.9 2.29, 41.42 3, 42.86 3.83 C44.29 4.65, 45.67 5.62, 46.94 6.68 C48.2 7.75, 49.4 8.94, 50.46 10.21 C51.52 11.47, 52.49 12.85, 53.32 14.29 C54.14 15.72, 54.85 17.25, 55.42 18.8 C55.99 20.35, 56.42 21.98, 56.71 23.61 C57 25.24, 57.07 27.74, 57.14 28.57 C57.22 29.4, 57.22 27.74, 57.14 28.57" stroke="#1864ab" stroke-width="4" fill="none"></path></g><g transform="translate(26.071428571428555 193.14283292255845) rotate(0 12.5 22.5)"><text x="12.5" y="32" font-family="Virgil, Segoe UI Emoji" font-size="36px" fill="#1864ab" text-anchor="middle" style="white-space: pre;" direction="ltr">6</text></g><g stroke-linecap="round" transform="translate(1171.1111014229914 602.1507936507942) rotate(0 28.571428571428555 28.57142857142844)"><path d="M57.14 28.57 C57.14 30.23, 57 31.9, 56.71 33.53 C56.42 35.16, 55.99 36.79, 55.42 38.34 C54.85 39.9, 54.14 41.42, 53.32 42.86 C52.49 44.29, 51.52 45.67, 50.46 46.94 C49.4 48.2, 48.2 49.4, 46.94 50.46 C45.67 51.52, 44.29 52.49, 42.86 53.32 C41.42 54.14, 39.9 54.85, 38.34 55.42 C36.79 55.99, 35.16 56.42, 33.53 56.71 C31.9 57, 30.23 57.14, 28.57 57.14 C26.92 57.14, 25.24 57, 23.61 56.71 C21.98 56.42, 20.35 55.99, 18.8 55.42 C17.25 54.85, 15.72 54.14, 14.29 53.32 C12.85 52.49, 11.47 51.52, 10.21 50.46 C8.94 49.4, 7.75 48.2, 6.68 46.94 C5.62 45.67, 4.65 44.29, 3.83 42.86 C3 41.42, 2.29 39.9, 1.72 38.34 C1.16 36.79, 0.72 35.16, 0.43 33.53 C0.15 31.9, 0 30.23, 0 28.57 C0 26.92, 0.15 25.24, 0.43 23.61 C0.72 21.98, 1.16 20.35, 1.72 18.8 C2.29 17.25, 3 15.72, 3.83 14.29 C4.65 12.85, 5.62 11.47, 6.68 10.21 C7.75 8.94, 8.94 7.75, 10.21 6.68 C11.47 5.62, 12.85 4.65, 14.29 3.83 C15.72 3, 17.25 2.29, 18.8 1.72 C20.35 1.16, 21.98 0.72, 23.61 0.43 C25.24 0.15, 26.92 0, 28.57 0 C30.23 0, 31.9 0.15, 33.53 0.43 C35.16 0.72, 36.79 1.16, 38.34 1.72 C39.9 2.29, 41.42 3, 42.86 3.83 C44.29 4.65, 45.67 5.62, 46.94 6.68 C48.2 7.75, 49.4 8.94, 50.46 10.21 C51.52 11.47, 52.49 12.85, 53.32 14.29 C54.14 15.72, 54.85 17.25, 55.42 18.8 C55.99 20.35, 56.42 21.98, 56.71 23.61 C57 25.24, 57.07 27.74, 57.14 28.57 C57.22 29.4, 57.22 27.74, 57.14 28.57" stroke="#1864ab" stroke-width="4" fill="none"></path></g><g transform="translate(1187.1825299944198 608.2222222222226) rotate(0 12.5 22.5)"><text x="12.5" y="32" font-family="Virgil, Segoe UI Emoji" font-size="36px" fill="#1864ab" text-anchor="middle" style="white-space: pre;" direction="ltr">6</text></g><g stroke-linecap="round" transform="translate(1633.8096400669642 444.2142178974466) rotate(0 28.571428571428555 28.571428571428555)"><path d="M57.14 28.57 C57.14 30.23, 57 31.9, 56.71 33.53 C56.42 35.16, 55.99 36.79, 55.42 38.34 C54.85 39.9, 54.14 41.42, 53.32 42.86 C52.49 44.29, 51.52 45.67, 50.46 46.94 C49.4 48.2, 48.2 49.4, 46.94 50.46 C45.67 51.52, 44.29 52.49, 42.86 53.32 C41.42 54.14, 39.9 54.85, 38.34 55.42 C36.79 55.99, 35.16 56.42, 33.53 56.71 C31.9 57, 30.23 57.14, 28.57 57.14 C26.92 57.14, 25.24 57, 23.61 56.71 C21.98 56.42, 20.35 55.99, 18.8 55.42 C17.25 54.85, 15.72 54.14, 14.29 53.32 C12.85 52.49, 11.47 51.52, 10.21 50.46 C8.94 49.4, 7.75 48.2, 6.68 46.94 C5.62 45.67, 4.65 44.29, 3.83 42.86 C3 41.42, 2.29 39.9, 1.72 38.34 C1.16 36.79, 0.72 35.16, 0.43 33.53 C0.15 31.9, 0 30.23, 0 28.57 C0 26.92, 0.15 25.24, 0.43 23.61 C0.72 21.98, 1.16 20.35, 1.72 18.8 C2.29 17.25, 3 15.72, 3.83 14.29 C4.65 12.85, 5.62 11.47, 6.68 10.21 C7.75 8.94, 8.94 7.75, 10.21 6.68 C11.47 5.62, 12.85 4.65, 14.29 3.83 C15.72 3, 17.25 2.29, 18.8 1.72 C20.35 1.16, 21.98 0.72, 23.61 0.43 C25.24 0.15, 26.92 0, 28.57 0 C30.23 0, 31.9 0.15, 33.53 0.43 C35.16 0.72, 36.79 1.16, 38.34 1.72 C39.9 2.29, 41.42 3, 42.86 3.83 C44.29 4.65, 45.67 5.62, 46.94 6.68 C48.2 7.75, 49.4 8.94, 50.46 10.21 C51.52 11.47, 52.49 12.85, 53.32 14.29 C54.14 15.72, 54.85 17.25, 55.42 18.8 C55.99 20.35, 56.42 21.98, 56.71 23.61 C57 25.24, 57.07 27.74, 57.14 28.57 C57.22 29.4, 57.22 27.74, 57.14 28.57" stroke="#087f5b" stroke-width="4" fill="none"></path></g><g transform="translate(1648.381068638393 444.2142178974466) rotate(0 14 22.5)"><text x="14" y="32" font-family="Virgil, Segoe UI Emoji" font-size="36px" fill="#087f5b" text-anchor="middle" style="white-space: pre;" direction="ltr">2</text></g><g stroke-linecap="round" transform="translate(998.095223563058 25.960281129868008) rotate(0 28.571428571428555 28.571428571428555)"><path d="M57.14 28.57 C57.14 30.23, 57 31.9, 56.71 33.53 C56.42 35.16, 55.99 36.79, 55.42 38.34 C54.85 39.9, 54.14 41.42, 53.32 42.86 C52.49 44.29, 51.52 45.67, 50.46 46.94 C49.4 48.2, 48.2 49.4, 46.94 50.46 C45.67 51.52, 44.29 52.49, 42.86 53.32 C41.42 54.14, 39.9 54.85, 38.34 55.42 C36.79 55.99, 35.16 56.42, 33.53 56.71 C31.9 57, 30.23 57.14, 28.57 57.14 C26.92 57.14, 25.24 57, 23.61 56.71 C21.98 56.42, 20.35 55.99, 18.8 55.42 C17.25 54.85, 15.72 54.14, 14.29 53.32 C12.85 52.49, 11.47 51.52, 10.21 50.46 C8.94 49.4, 7.75 48.2, 6.68 46.94 C5.62 45.67, 4.65 44.29, 3.83 42.86 C3 41.42, 2.29 39.9, 1.72 38.34 C1.16 36.79, 0.72 35.16, 0.43 33.53 C0.15 31.9, 0 30.23, 0 28.57 C0 26.92, 0.15 25.24, 0.43 23.61 C0.72 21.98, 1.16 20.35, 1.72 18.8 C2.29 17.25, 3 15.72, 3.83 14.29 C4.65 12.85, 5.62 11.47, 6.68 10.21 C7.75 8.94, 8.94 7.75, 10.21 6.68 C11.47 5.62, 12.85 4.65, 14.29 3.83 C15.72 3, 17.25 2.29, 18.8 1.72 C20.35 1.16, 21.98 0.72, 23.61 0.43 C25.24 0.15, 26.92 0, 28.57 0 C30.23 0, 31.9 0.15, 33.53 0.43 C35.16 0.72, 36.79 1.16, 38.34 1.72 C39.9 2.29, 41.42 3, 42.86 3.83 C44.29 4.65, 45.67 5.62, 46.94 6.68 C48.2 7.75, 49.4 8.94, 50.46 10.21 C51.52 11.47, 52.49 12.85, 53.32 14.29 C54.14 15.72, 54.85 17.25, 55.42 18.8 C55.99 20.35, 56.42 21.98, 56.71 23.61 C57 25.24, 57.07 27.74, 57.14 28.57 C57.22 29.4, 57.22 27.74, 57.14 28.57" stroke="#d9480f" stroke-width="4" fill="none"></path></g><g transform="translate(1014.6666521344866 32.031709701296904) rotate(0 12 22.5)"><text x="12" y="32" font-family="Virgil, Segoe UI Emoji" font-size="36px" fill="#d9480f" text-anchor="middle" style="white-space: pre;" direction="ltr">5</text></g><g stroke-linecap="round"><g transform="translate(962.6984078543526 94.8491797068773) rotate(0 63.492082868303555 0)"><path d="M0 0 C21.16 0, 105.82 0, 126.98 0" stroke="#000000" stroke-width="2.5" fill="none" stroke-dasharray="8 10"></path></g></g><mask></mask><g stroke-linecap="round" transform="translate(1647.9366193498884 206.75397794208902) rotate(0 28.571428571428555 28.571428571428555)"><path d="M57.14 28.57 C57.14 30.23, 57 31.9, 56.71 33.53 C56.42 35.16, 55.99 36.79, 55.42 38.34 C54.85 39.9, 54.14 41.42, 53.32 42.86 C52.49 44.29, 51.52 45.67, 50.46 46.94 C49.4 48.2, 48.2 49.4, 46.94 50.46 C45.67 51.52, 44.29 52.49, 42.86 53.32 C41.42 54.14, 39.9 54.85, 38.34 55.42 C36.79 55.99, 35.16 56.42, 33.53 56.71 C31.9 57, 30.23 57.14, 28.57 57.14 C26.92 57.14, 25.24 57, 23.61 56.71 C21.98 56.42, 20.35 55.99, 18.8 55.42 C17.25 54.85, 15.72 54.14, 14.29 53.32 C12.85 52.49, 11.47 51.52, 10.21 50.46 C8.94 49.4, 7.75 48.2, 6.68 46.94 C5.62 45.67, 4.65 44.29, 3.83 42.86 C3 41.42, 2.29 39.9, 1.72 38.34 C1.16 36.79, 0.72 35.16, 0.43 33.53 C0.15 31.9, 0 30.23, 0 28.57 C0 26.92, 0.15 25.24, 0.43 23.61 C0.72 21.98, 1.16 20.35, 1.72 18.8 C2.29 17.25, 3 15.72, 3.83 14.29 C4.65 12.85, 5.62 11.47, 6.68 10.21 C7.75 8.94, 8.94 7.75, 10.21 6.68 C11.47 5.62, 12.85 4.65, 14.29 3.83 C15.72 3, 17.25 2.29, 18.8 1.72 C20.35 1.16, 21.98 0.72, 23.61 0.43 C25.24 0.15, 26.92 0, 28.57 0 C30.23 0, 31.9 0.15, 33.53 0.43 C35.16 0.72, 36.79 1.16, 38.34 1.72 C39.9 2.29, 41.42 3, 42.86 3.83 C44.29 4.65, 45.67 5.62, 46.94 6.68 C48.2 7.75, 49.4 8.94, 50.46 10.21 C51.52 11.47, 52.49 12.85, 53.32 14.29 C54.14 15.72, 54.85 17.25, 55.42 18.8 C55.99 20.35, 56.42 21.98, 56.71 23.61 C57 25.24, 57.07 27.74, 57.14 28.57 C57.22 29.4, 57.22 27.74, 57.14 28.57" stroke="#862e9c" stroke-width="4" fill="none"></path></g><g transform="translate(1670.508047921317 212.82540651351746) rotate(0 6 22.5)"><text x="6" y="32" font-family="Virgil, Segoe UI Emoji" font-size="36px" fill="#862e9c" text-anchor="middle" style="white-space: pre;" direction="ltr">1</text></g><g stroke-linecap="round" transform="translate(1906.8255179268967 445.00795830620746) rotate(0 28.571428571428555 28.571428571428555)"><path d="M57.14 28.57 C57.14 30.23, 57 31.9, 56.71 33.53 C56.42 35.16, 55.99 36.79, 55.42 38.34 C54.85 39.9, 54.14 41.42, 53.32 42.86 C52.49 44.29, 51.52 45.67, 50.46 46.94 C49.4 48.2, 48.2 49.4, 46.94 50.46 C45.67 51.52, 44.29 52.49, 42.86 53.32 C41.42 54.14, 39.9 54.85, 38.34 55.42 C36.79 55.99, 35.16 56.42, 33.53 56.71 C31.9 57, 30.23 57.14, 28.57 57.14 C26.92 57.14, 25.24 57, 23.61 56.71 C21.98 56.42, 20.35 55.99, 18.8 55.42 C17.25 54.85, 15.72 54.14, 14.29 53.32 C12.85 52.49, 11.47 51.52, 10.21 50.46 C8.94 49.4, 7.75 48.2, 6.68 46.94 C5.62 45.67, 4.65 44.29, 3.83 42.86 C3 41.42, 2.29 39.9, 1.72 38.34 C1.16 36.79, 0.72 35.16, 0.43 33.53 C0.15 31.9, 0 30.23, 0 28.57 C0 26.92, 0.15 25.24, 0.43 23.61 C0.72 21.98, 1.16 20.35, 1.72 18.8 C2.29 17.25, 3 15.72, 3.83 14.29 C4.65 12.85, 5.62 11.47, 6.68 10.21 C7.75 8.94, 8.94 7.75, 10.21 6.68 C11.47 5.62, 12.85 4.65, 14.29 3.83 C15.72 3, 17.25 2.29, 18.8 1.72 C20.35 1.16, 21.98 0.72, 23.61 0.43 C25.24 0.15, 26.92 0, 28.57 0 C30.23 0, 31.9 0.15, 33.53 0.43 C35.16 0.72, 36.79 1.16, 38.34 1.72 C39.9 2.29, 41.42 3, 42.86 3.83 C44.29 4.65, 45.67 5.62, 46.94 6.68 C48.2 7.75, 49.4 8.94, 50.46 10.21 C51.52 11.47, 52.49 12.85, 53.32 14.29 C54.14 15.72, 54.85 17.25, 55.42 18.8 C55.99 20.35, 56.42 21.98, 56.71 23.61 C57 25.24, 57.07 27.74, 57.14 28.57 C57.22 29.4, 57.22 27.74, 57.14 28.57" stroke="#e67700" stroke-width="4" fill="none"></path></g><g transform="translate(1922.8969464983252 445.00795830620746) rotate(0 12.5 22.5)"><text x="12.5" y="32" font-family="Virgil, Segoe UI Emoji" font-size="36px" fill="#e67700" text-anchor="middle" style="white-space: pre;" direction="ltr">4</text></g><g stroke-linecap="round" transform="translate(1305.2379935128347 437.8650357685401) rotate(0 28.571428571428555 28.571428571428555)"><path d="M57.14 28.57 C57.14 30.23, 57 31.9, 56.71 33.53 C56.42 35.16, 55.99 36.79, 55.42 38.34 C54.85 39.9, 54.14 41.42, 53.32 42.86 C52.49 44.29, 51.52 45.67, 50.46 46.94 C49.4 48.2, 48.2 49.4, 46.94 50.46 C45.67 51.52, 44.29 52.49, 42.86 53.32 C41.42 54.14, 39.9 54.85, 38.34 55.42 C36.79 55.99, 35.16 56.42, 33.53 56.71 C31.9 57, 30.23 57.14, 28.57 57.14 C26.92 57.14, 25.24 57, 23.61 56.71 C21.98 56.42, 20.35 55.99, 18.8 55.42 C17.25 54.85, 15.72 54.14, 14.29 53.32 C12.85 52.49, 11.47 51.52, 10.21 50.46 C8.94 49.4, 7.75 48.2, 6.68 46.94 C5.62 45.67, 4.65 44.29, 3.83 42.86 C3 41.42, 2.29 39.9, 1.72 38.34 C1.16 36.79, 0.72 35.16, 0.43 33.53 C0.15 31.9, 0 30.23, 0 28.57 C0 26.92, 0.15 25.24, 0.43 23.61 C0.72 21.98, 1.16 20.35, 1.72 18.8 C2.29 17.25, 3 15.72, 3.83 14.29 C4.65 12.85, 5.62 11.47, 6.68 10.21 C7.75 8.94, 8.94 7.75, 10.21 6.68 C11.47 5.62, 12.85 4.65, 14.29 3.83 C15.72 3, 17.25 2.29, 18.8 1.72 C20.35 1.16, 21.98 0.72, 23.61 0.43 C25.24 0.15, 26.92 0, 28.57 0 C30.23 0, 31.9 0.15, 33.53 0.43 C35.16 0.72, 36.79 1.16, 38.34 1.72 C39.9 2.29, 41.42 3, 42.86 3.83 C44.29 4.65, 45.67 5.62, 46.94 6.68 C48.2 7.75, 49.4 8.94, 50.46 10.21 C51.52 11.47, 52.49 12.85, 53.32 14.29 C54.14 15.72, 54.85 17.25, 55.42 18.8 C55.99 20.35, 56.42 21.98, 56.71 23.61 C57 25.24, 57.07 27.74, 57.14 28.57 C57.22 29.4, 57.22 27.74, 57.14 28.57" stroke="#d9480f" stroke-width="4" fill="none"></path></g><g transform="translate(1321.8094220842631 437.8650357685401) rotate(0 12 22.5)"><text x="12" y="32" font-family="Virgil, Segoe UI Emoji" font-size="36px" fill="#d9480f" text-anchor="middle" style="white-space: pre;" direction="ltr">5</text></g><g stroke-linecap="round"><g transform="translate(1294.7620936802457 506.75393434554917) rotate(0 68.25395856584817 0)"><path d="M0 0 C22.75 0, 113.76 0, 136.51 0" stroke="#000000" stroke-width="2.5" fill="none" stroke-dasharray="8 10"></path></g></g><mask></mask></svg>