<svg xmlns="http://www.w3.org/2000/svg" xmlns:xlink="http://www.w3.org/1999/xlink" viewBox="0 0 264.23 128.91"><defs><style>.cls-1,.cls-10,.cls-11,.cls-13,.cls-5{fill:none;}.cls-2{clip-path:url(#clip-path);}.cls-3{fill:url(#linear-gradient);}.cls-4{clip-path:url(#clip-path-2);}.cls-5{stroke:#231f20;}.cls-11,.cls-5{stroke-width:0.5px;}.cls-6,.cls-7{fill:#231f20;}.cls-7{font-size:8px;font-family:TimesNewRomanPSMT, Times New Roman;}.cls-8{clip-path:url(#clip-path-3);}.cls-9{fill:#00aeef;}.cls-10{stroke:#00aeef;}.cls-10,.cls-11,.cls-13{stroke-miterlimit:3.86;}.cls-10,.cls-13{stroke-width:0.25px;}.cls-11,.cls-13{stroke:#ed1846;}.cls-12{fill:#ed1846;}</style><clipPath id="clip-path" transform="translate(20.71 2.03)"><path class="cls-1" d="M27.82,25.83C14,27.62,9.06,50.41,9.06,50.41a73,73,0,0,0,0,21.89c2.6,18,18.76,14.75,26.81,10.73S42.57,75.88,56,87.5s24.13-.45,21.44-22.34S65.81,32.09,53.29,38.34c-6.82,3.42-9.66-1.15-13.07-5.71-2.59-3.45-5.5-6.91-10.73-6.91a14,14,0,0,0-1.67.11"/></clipPath><linearGradient id="linear-gradient" x1="-299" y1="754.53" x2="-298" y2="754.53" gradientTransform="matrix(0, 71.11, 71.11, 0, -53613.66, 21286.58)" gradientUnits="userSpaceOnUse"><stop offset="0" stop-color="#f4ebe7"/><stop offset="1" stop-color="#e2cac0"/></linearGradient><clipPath id="clip-path-2" transform="translate(20.71 2.03)"><rect class="cls-1" x="0.12" y="0.12" width="242.97" height="111.95"/></clipPath><clipPath id="clip-path-3" transform="translate(20.71 2.03)"><rect class="cls-1" width="248" height="115.12"/></clipPath></defs><g id="Layer_2" data-name="Layer 2"><g id="Layer_1-2" data-name="Layer 1"><g class="cls-2"><rect class="cls-3" x="-4.78" y="13.82" width="96.93" height="97.19" transform="translate(-1.46 26.14) rotate(-24.82)"/></g><g class="cls-4"><path class="cls-5" d="M.12,67.09H105.57m-63.43,45V11.53" transform="translate(20.71 2.03)"/></g><polygon class="cls-6" points="64.6 14.96 62.85 11.46 61.1 14.96 62.85 13.56 64.6 14.96"/><text class="cls-7" transform="translate(61.07 8.79)">y</text><polygon class="cls-6" points="124.88 70.87 128.38 69.12 124.88 67.37 126.28 69.12 124.88 70.87"/><text class="cls-7" transform="translate(130.2 71.19)">x</text><line class="cls-5" x1="151.31" y1="69.12" x2="256.76" y2="69.12"/><polygon class="cls-6" points="255.36 70.87 258.86 69.12 255.36 67.37 256.76 69.12 255.36 70.87"/><text class="cls-7" transform="translate(260.68 71.19)">z</text><g class="cls-8"><path class="cls-9" d="M156.75,67.09A1.75,1.75,0,1,1,155,65.34a1.75,1.75,0,0,1,1.75,1.75" transform="translate(20.71 2.03)"/><circle class="cls-10" cx="175.71" cy="69.12" r="1.75"/><path class="cls-9" d="M172.29,67.09a1.75,1.75,0,1,1-1.75-1.75,1.75,1.75,0,0,1,1.75,1.75" transform="translate(20.71 2.03)"/><circle class="cls-10" cx="191.24" cy="69.12" r="1.75"/><path class="cls-9" d="M212.63,67.09a1.75,1.75,0,1,1-1.75-1.75,1.75,1.75,0,0,1,1.75,1.75" transform="translate(20.71 2.03)"/><circle class="cls-10" cx="231.58" cy="69.12" r="1.75"/><line class="cls-5" x1="210" y1="65.12" x2="210" y2="69.12"/><path class="cls-11" d="M50.82,56.2S81,36.14,126.54,36.14s81.72,29.19,81.72,29.19" transform="translate(20.71 2.03)"/><path class="cls-12" d="M209.27,66.15a8,8,0,0,1-1.62-3.58l-.11.14.63,2.57-2.65,0-.11.14a8.13,8.13,0,0,1,3.86.77" transform="translate(20.71 2.03)"/><path class="cls-11" d="M61.72,82.42a110.76,110.76,0,0,0,34.47,6c18.39,0,46.06-6.14,57-18.8" transform="translate(20.71 2.03)"/><path class="cls-12" d="M154.05,68.79A8,8,0,0,1,150.29,70l.13.13,2.63-.33-.35,2.63.13.13a8,8,0,0,1,1.22-3.75" transform="translate(20.71 2.03)"/><path class="cls-12" d="M170.48,69a8.09,8.09,0,0,1-2.84,2.72l.17.06L170,70.28l.85,2.52.17.06a8,8,0,0,1-.56-3.9" transform="translate(20.71 2.03)"/><path class="cls-11" d="M20.57,41.88s0,61.25,73.94,61.25c65.73,0,75.54-33,75.54-33" transform="translate(20.71 2.03)"/><path class="cls-12" d="M22.32,41.88a1.75,1.75,0,1,1-1.75-1.75,1.75,1.75,0,0,1,1.75,1.75" transform="translate(20.71 2.03)"/><circle class="cls-13" cx="41.28" cy="43.92" r="1.75"/><path class="cls-12" d="M52.57,56.2a1.75,1.75,0,1,1-1.75-1.75,1.75,1.75,0,0,1,1.75,1.75" transform="translate(20.71 2.03)"/><circle class="cls-13" cx="71.53" cy="58.24" r="1.75"/><path class="cls-12" d="M63.47,82.42a1.75,1.75,0,1,1-1.75-1.75,1.75,1.75,0,0,1,1.75,1.75" transform="translate(20.71 2.03)"/><circle class="cls-13" cx="82.42" cy="84.46" r="1.75"/><text class="cls-7" transform="translate(208 77.33)">0</text><text class="cls-7" transform="translate(56.27 77.33)">0</text></g><text class="cls-7" transform="translate(37.54 80.37)">D</text><text class="cls-7" transform="translate(222.33 77.32)">f</text><text class="cls-7" transform="translate(225.35 77.32)">(</text><text class="cls-7" transform="translate(228.02 77.32)">x</text><text class="cls-7" transform="translate(231.57 77.32)">, </text><text class="cls-7" transform="translate(235.57 77.32)">y</text><text class="cls-7" transform="translate(239.12 77.32)">)</text><text class="cls-7" transform="translate(165.54 63.01)">f</text><text class="cls-7" transform="translate(168.56 63.01)">(</text><text class="cls-7" transform="translate(171.23 63.01)">a</text><text class="cls-7" transform="translate(175.23 63.01)">, </text><text class="cls-7" transform="translate(179.23 63.01)">b</text><text class="cls-7" transform="translate(183.23 63.01)">)</text><text class="cls-7" transform="translate(149.82 33.54)">f</text><text class="cls-7" transform="translate(73.91 80)">(</text><text class="cls-7" transform="translate(76.57 80)">a</text><text class="cls-7" transform="translate(80.57 80)">, </text><text class="cls-7" transform="translate(84.57 80)">b</text><text class="cls-7" transform="translate(88.57 80)">)</text><text class="cls-7" transform="translate(73.92 64.48)">(</text><text class="cls-7" transform="translate(76.59 64.48)">x</text><text class="cls-7" transform="translate(80.14 64.48)">, </text><text class="cls-7" transform="translate(84.14 64.48)">y</text><text class="cls-7" transform="translate(87.69 64.48)">)</text></g></g></svg>