<svg version="1.1" xmlns="http://www.w3.org/2000/svg" viewBox="0 0 160.1734505737213 170.57109316051105" width="160.1734505737213" height="170.57109316051105">
  <!-- svg-source:excalidraw -->
  
  <defs>
    <style>
      @font-face {
        font-family: "Virgil";
        src: url("https://excalidraw.com/Virgil.woff2");
      }
      @font-face {
        font-family: "Cascadia";
        src: url("https://excalidraw.com/Cascadia.woff2");
      }
    </style>
  </defs>
  <rect x="0" y="0" width="160.1734505737213" height="170.57109316051105" fill="#ffffff"></rect><g stroke-linecap="round" transform="translate(67.32754291094716 10) rotate(0 15.147829997202734 15.147829997202734)"><path d="M17.67 0.82 C20.7 0.97, 23.9 2.58, 26.05 4.78 C28.2 6.98, 30.57 10.63, 30.59 14.04 C30.61 17.44, 28.34 22.38, 26.19 25.2 C24.04 28.02, 20.6 30.47, 17.7 30.97 C14.81 31.47, 11.65 30.04, 8.82 28.21 C5.99 26.38, 1.96 22.82, 0.74 20 C-0.49 17.18, 0.44 14.27, 1.49 11.28 C2.55 8.28, 4.09 3.66, 7.07 2.02 C10.06 0.39, 17.01 1.6, 19.42 1.48 C21.82 1.37, 21.53 1.3, 21.5 1.33 M20.25 1.46 C22.98 1.93, 26.52 3.45, 28.16 6.23 C29.8 9.01, 30.52 14.6, 30.11 18.11 C29.7 21.62, 28 25.23, 25.7 27.31 C23.39 29.38, 19.71 30.69, 16.28 30.55 C12.85 30.41, 7.64 28.69, 5.11 26.46 C2.58 24.23, 1.45 20.42, 1.11 17.17 C0.76 13.91, 1.51 9.62, 3.06 6.93 C4.61 4.23, 7.25 2.19, 10.39 1.02 C13.54 -0.14, 20.24 -0.11, 21.92 -0.05 C23.6 0.01, 20.57 1.16, 20.47 1.39" stroke="#000000" stroke-width="1" fill="none"></path></g><g stroke-linecap="round" transform="translate(119.87779057931584 72.10483815352654) rotate(0 15.147829997202734 15.147829997202734)"><path d="M13.14 0.08 C16.17 -0.21, 21.37 1.47, 24.21 3.52 C27.04 5.56, 29.38 9.32, 30.17 12.35 C30.95 15.37, 30.43 18.8, 28.92 21.68 C27.42 24.55, 24.2 28.15, 21.15 29.59 C18.1 31.04, 13.78 31.31, 10.63 30.35 C7.47 29.38, 3.96 26.44, 2.22 23.8 C0.48 21.16, -0.1 17.77, 0.19 14.52 C0.48 11.27, 0.91 6.52, 3.97 4.32 C7.02 2.12, 15.58 1.8, 18.52 1.31 C21.46 0.82, 21.6 1.34, 21.61 1.37 M12.81 -1.1 C15.75 -1.97, 19.85 -1.42, 22.39 0.43 C24.94 2.28, 27.12 6.51, 28.09 10 C29.07 13.48, 28.99 18.29, 28.25 21.34 C27.5 24.38, 26.45 26.68, 23.64 28.27 C20.83 29.85, 14.85 31.47, 11.4 30.87 C7.95 30.26, 4.74 26.97, 2.93 24.62 C1.12 22.27, 0.56 19.78, 0.54 16.76 C0.52 13.75, 0.78 9.49, 2.8 6.52 C4.82 3.55, 11.23 -0.1, 12.64 -1.06 C14.04 -2.02, 11.33 0.44, 11.21 0.76" stroke="#000000" stroke-width="1" fill="none"></path></g><g stroke-linecap="round" transform="translate(10 72.10483815352654) rotate(0 15.147829997202734 15.147829997202734)"><path d="M9.94 0.8 C12.63 -0.31, 17.72 -0.15, 20.67 1.02 C23.62 2.18, 26.16 4.95, 27.63 7.78 C29.09 10.61, 29.98 14.85, 29.45 18 C28.92 21.14, 27.11 24.66, 24.45 26.65 C21.79 28.65, 16.84 29.87, 13.49 29.96 C10.15 30.05, 6.58 29.48, 4.38 27.19 C2.18 24.9, 0.48 19.66, 0.28 16.23 C0.09 12.8, 1.07 9.32, 3.21 6.63 C5.35 3.95, 11.47 1.32, 13.12 0.11 C14.77 -1.1, 13.11 -0.83, 13.12 -0.62 M8.35 1.28 C10.99 -0.25, 16.6 0.33, 19.95 1.34 C23.3 2.35, 26.87 4.71, 28.46 7.32 C30.05 9.94, 29.82 13.83, 29.47 17.02 C29.13 20.22, 28.66 24.31, 26.4 26.49 C24.13 28.68, 19.26 29.86, 15.87 30.13 C12.49 30.39, 8.81 29.93, 6.1 28.09 C3.39 26.24, 0.38 22.41, -0.39 19.08 C-1.17 15.75, -0.09 10.87, 1.44 8.09 C2.98 5.32, 7.64 3.66, 8.8 2.41 C9.96 1.16, 8.02 0.78, 8.4 0.59" stroke="#000000" stroke-width="1" fill="none"></path></g><g stroke-linecap="round" transform="translate(70.98076868468434 130.27543316610559) rotate(0 15.147829997202734 15.147829997202734)"><path d="M14.61 0.79 C17.75 0.6, 22.89 2.33, 25.34 4.1 C27.78 5.87, 28.82 8.19, 29.31 11.41 C29.8 14.63, 29.79 20.37, 28.27 23.42 C26.75 26.46, 23.1 28.68, 20.17 29.68 C17.24 30.69, 13.64 30.61, 10.68 29.46 C7.72 28.31, 4.1 25.52, 2.41 22.78 C0.72 20.05, -0.05 16.32, 0.53 13.06 C1.12 9.81, 3.23 5.38, 5.93 3.28 C8.63 1.17, 14.66 0.97, 16.72 0.41 C18.77 -0.14, 18.14 -0.18, 18.27 -0.07 M21.87 0.68 C24.65 2.28, 29.1 7.76, 30.35 10.91 C31.6 14.06, 30.69 16.55, 29.37 19.6 C28.05 22.65, 25.33 27.61, 22.45 29.19 C19.56 30.78, 15.2 29.91, 12.06 29.12 C8.93 28.32, 5.45 26.51, 3.61 24.44 C1.78 22.36, 0.94 19.81, 1.08 16.66 C1.21 13.5, 2.49 8.25, 4.42 5.49 C6.35 2.74, 9.89 0.73, 12.65 0.13 C15.4 -0.47, 19.31 1.43, 20.94 1.91 C22.57 2.39, 22.26 2.61, 22.46 3.03" stroke="#000000" stroke-width="1" fill="none"></path></g><g stroke-linecap="round"><g transform="translate(33.96634396749823 99.21209767240612) rotate(0 20.234291628137726 18.045012126495863)"><path d="M0.08 0.55 C7.04 6.41, 35.07 30.53, 41.81 36.3 M-1.34 -0.21 C5.53 5.78, 34.47 28.31, 41.27 34.35" stroke="#000000" stroke-width="1" fill="none"></path></g></g><g stroke-linecap="round"><g transform="translate(73.87081011139298 36.26420741724792) rotate(0 -19.520155543959845 19.358558604422797)"><path d="M1.06 -0.01 C-5.34 6.39, -32.42 31.98, -38.92 38.71 M0.15 -1.05 C-6.39 5.43, -33.66 33.19, -40.1 39.77" stroke="#000000" stroke-width="1" fill="none"></path></g></g><g stroke-linecap="round"><g transform="translate(94.66609528497202 35.983190050037365) rotate(0 16.10570077022021 19.16094440225072)"><path d="M-0.92 -1.02 C4.55 5.71, 27.38 32.71, 33.13 39.34 M0.8 1.06 C6.08 7.55, 26.8 31.14, 32.16 37.66" stroke="#000000" stroke-width="1" fill="none"></path></g></g><g stroke-linecap="round"><g transform="translate(120.51969306834053 87.40936824956407) rotate(0 -39.243877895733476 -0.029927356966823027)"><path d="M-0.46 -0.97 C-13.81 -1.03, -66.11 -1.21, -79.59 -1.22 M1.49 1.14 C-11.96 1.33, -65.99 0.28, -79.98 0.11" stroke="#000000" stroke-width="1" fill="none"></path></g></g><g transform="translate(80.89624429165633 15.184182751826938) rotate(0 2.5 10)"><text x="0" y="14" font-family="Virgil, Segoe UI Emoji" font-size="16px" fill="#000000" text-anchor="start" style="white-space: pre;" direction="ltr">1</text></g><g transform="translate(21.601579810234853 77.28902090535348) rotate(0 6 10)"><text x="0" y="14" font-family="Virgil, Segoe UI Emoji" font-size="16px" fill="#000000" text-anchor="start" style="white-space: pre;" direction="ltr">3</text></g><g transform="translate(129.51224881907774 78.41309037419546) rotate(0 6 10)"><text x="0" y="14" font-family="Virgil, Segoe UI Emoji" font-size="16px" fill="#000000" text-anchor="start" style="white-space: pre;" direction="ltr">2</text></g><g transform="translate(85.11150479981416 136.02165065235363) rotate(0 5.5 10)"><text x="0" y="14" font-family="Virgil, Segoe UI Emoji" font-size="16px" fill="#000000" text-anchor="start" style="white-space: pre;" direction="ltr">4</text></g></svg>