<svg xmlns="http://www.w3.org/2000/svg" xmlns:xlink="http://www.w3.org/1999/xlink" viewBox="0 0 152.08 144.83"><defs><style>.cls-1,.cls-10,.cls-12,.cls-13,.cls-14,.cls-16,.cls-18,.cls-7,.cls-9{fill:none;}.cls-2{clip-path:url(#clip-path);}.cls-3{fill:url(#linear-gradient);}.cls-4{clip-path:url(#clip-path-2);}.cls-5{fill:url(#linear-gradient-2);}.cls-6{font-size:8px;}.cls-19,.cls-6,.cls-8{fill:#231f20;}.cls-19,.cls-6{font-family:TimesNewRomanPSMT, Times New Roman;}.cls-10,.cls-7{stroke:#231f20;}.cls-10,.cls-12,.cls-14,.cls-7,.cls-9{stroke-miterlimit:3.86;}.cls-14,.cls-7,.cls-9{stroke-width:0.5px;}.cls-14,.cls-9{stroke:#939598;}.cls-9{stroke-dasharray:3.9 1.8;}.cls-10{stroke-width:0.3px;}.cls-11{clip-path:url(#clip-path-3);}.cls-12,.cls-18{stroke:#d58784;}.cls-13{stroke:#ed1846;}.cls-13,.cls-16,.cls-18{stroke-linecap:round;stroke-linejoin:round;}.cls-14{stroke-dasharray:4 2;}.cls-15{fill:#00aeef;}.cls-16{stroke:#00aeef;}.cls-16,.cls-18{stroke-width:0.25px;}.cls-17{fill:#d58784;}.cls-19{font-size:6px;}</style><clipPath id="clip-path" transform="translate(-1.18)"><path class="cls-1" d="M12.75,101.74c.36,10.73,20.94,19.05,46.5,19.14V24.57H59C46.15,24.57,25,63,12.75,101.74"/></clipPath><linearGradient id="linear-gradient" x1="-75.02" y1="754.51" x2="-74.02" y2="754.51" gradientTransform="matrix(75.58, 0, 0, -75.58, 5692.91, 57099.93)" gradientUnits="userSpaceOnUse"><stop offset="0" stop-color="#a2c8ab"/><stop offset="0.53" stop-color="#e3f2e7"/><stop offset="1" stop-color="#87b996"/></linearGradient><clipPath id="clip-path-2" transform="translate(-1.18)"><path class="cls-1" d="M59,24.57l.21,96.31c25.45-.09,46-8.41,46.5-19.14C93.37,63,72.25,24.57,59.33,24.57H59"/></clipPath><linearGradient id="linear-gradient-2" x1="-75.02" y1="754.51" x2="-74.02" y2="754.51" gradientTransform="matrix(75.58, 0, 0, -75.58, 5692.8, 57098.87)" gradientUnits="userSpaceOnUse"><stop offset="0" stop-color="#a2c8ab"/><stop offset="0.53" stop-color="#e4f2e7"/><stop offset="1" stop-color="#86ba95"/></linearGradient><clipPath id="clip-path-3" transform="translate(-1.18)"><rect class="cls-1" y="0.01" width="162.37" height="148.5"/></clipPath></defs><g id="Layer_2" data-name="Layer 2"><g id="Layer_1-2" data-name="Layer 1"><g class="cls-2"><rect class="cls-3" x="11.57" y="24.57" width="46.5" height="96.31"/></g><g class="cls-4"><rect class="cls-5" x="57.87" y="24.57" width="46.71" height="96.31"/></g><text class="cls-6" transform="translate(123.52 121.54)">y</text><text class="cls-6" transform="translate(56.39 6.65)">z</text><line class="cls-7" x1="58.07" y1="30.34" x2="58.07" y2="12.59"/><polygon class="cls-8" points="59.82 13.99 58.07 10.49 56.32 13.99 58.07 12.59 59.82 13.99"/><text class="cls-6" transform="translate(18.35 142.38)">x</text><line class="cls-7" x1="96.96" y1="112.23" x2="119.1" y2="118.34"/><polygon class="cls-8" points="117.28 119.65 121.12 118.9 118.21 116.28 119.1 118.34 117.28 119.65"/><line class="cls-7" x1="3.75" y1="87.33" x2="13.63" y2="89.8"/><line class="cls-9" x1="58.07" y1="114.36" x2="58.07" y2="31.01"/><text class="cls-6" transform="translate(37.92 128.78)">10</text><line class="cls-7" x1="40.99" y1="119.43" x2="24.17" y2="135.87"/><polygon class="cls-8" points="23.95 133.64 22.67 137.34 26.4 136.15 24.17 135.87 23.95 133.64"/><text class="cls-6" transform="translate(95.19 120.78)">10</text><text class="cls-6" transform="translate(62.39 16.27)">100</text><path class="cls-10" d="M75.3,126.63l-3.91-6.17M88.6,42.7l-10,11.51m-56.18-20L51.22,93.1M67.48,18.4,60.07,30.54" transform="translate(-1.18)"/><g class="cls-11"><path class="cls-12" d="M61.1,87.75c18.2.38,32.69,6.63,32.72,14,0,7.65-15.55,14-34.57,14s-34.48-6.34-34.57-14c.09-5.9,9.35-11,22.43-13m3.7-.61a60.45,60.45,0,0,1,6.59-.41" transform="translate(-1.18)"/><path class="cls-13" d="M105.55,101.74c.07,10.56-20.68,19.22-46.3,19.14C33.77,121,13,112.3,13,101.74" transform="translate(-1.18)"/><path class="cls-12" d="M101.22,93.71c2.86,2.39,4.4,5.13,4.33,8m0,.07c0-3.34-2-6.49-5.66-9.23m-1.44-1c-7.92-5.2-21.73-8.71-37.57-8.89m-2.93,0c-3.47,0-6.85.22-10.09.55m-2.39.28C26.7,85.91,13,93.24,13,101.81" transform="translate(-1.18)"/><line class="cls-10" x1="106.22" y1="85.89" x2="91" y2="97.21"/><path class="cls-12" d="M61.51,93.1C73,93.44,82,97.3,82.09,101.74c0,4.82-10.33,8.76-22.84,8.85-12.53-.09-22.82-4-22.84-8.85,0-3.58,5.68-6.67,13.58-8a49.64,49.64,0,0,1,7.61-.61" transform="translate(-1.18)"/><path class="cls-14" d="M17.68,90.83,97.11,112M77.77,83.63l-35.6,35.6" transform="translate(-1.18)"/><path class="cls-15" d="M61,30.91a1.75,1.75,0,1,1-1.75-1.75A1.75,1.75,0,0,1,61,30.91" transform="translate(-1.18)"/><circle class="cls-16" cx="58.07" cy="30.91" r="1.75"/><path class="cls-17" d="M61,102a1.75,1.75,0,1,1-1.75-1.75A1.76,1.76,0,0,1,61,102" transform="translate(-1.18)"/><circle class="cls-18" cx="58.07" cy="102.03" r="1.75"/></g><text class="cls-6" transform="translate(0 30.59)">f</text><text class="cls-6" transform="translate(2.22 30.59)">(</text><text class="cls-6" transform="translate(4.89 30.59)">x</text><text class="cls-6" transform="translate(8.44 30.59)">,</text><text class="cls-6" transform="translate(10.44 30.59)"><tspan xml:space="preserve"> y</tspan></text><text class="cls-6" transform="translate(15.99 30.59)">) </text><text class="cls-6" transform="translate(20.66 30.59)">=</text><text class="cls-6" transform="translate(27.32 30.59)"><tspan xml:space="preserve"> 75</tspan></text><text class="cls-6" transform="translate(58.8 135.26)">f</text><text class="cls-6" transform="translate(61.02 135.26)">(</text><text class="cls-6" transform="translate(63.69 135.26)">x</text><text class="cls-6" transform="translate(67.24 135.26)">, </text><text class="cls-6" transform="translate(71.24 135.26)">y</text><text class="cls-6" transform="translate(74.79 135.26)">) </text><text class="cls-6" transform="translate(79.46 135.26)">=</text><text class="cls-6" transform="translate(86.12 135.26)"><tspan xml:space="preserve"> 0</tspan></text><text class="cls-6" transform="translate(107.87 70.05)">f</text><text class="cls-6" transform="translate(110.1 70.05)">(</text><text class="cls-6" transform="translate(112.76 70.05)">x</text><text class="cls-6" transform="translate(116.31 70.05)">, </text><text class="cls-6" transform="translate(120.31 70.05)">y</text><text class="cls-6" transform="translate(123.86 70.05)">) </text><text class="cls-6" transform="translate(128.53 70.05)">=</text><text class="cls-6" transform="translate(135.19 70.05)"><tspan xml:space="preserve"> 51</tspan></text><text class="cls-6" transform="translate(107.87 79.65)">(a typical</text><text class="cls-6" transform="translate(107.87 89.25)">level curve in</text><text class="cls-6" transform="translate(107.87 98.85)">the function’s</text><text class="cls-6" transform="translate(107.87 108.45)">domain)</text><text class="cls-6" transform="translate(83.06 11.49)">The surface</text><text class="cls-6" transform="translate(83.06 21.09)">z</text><text class="cls-6" transform="translate(86.17 21.09)"> </text><text class="cls-6" transform="translate(88.17 21.09)">=</text><text class="cls-6" transform="translate(94.83 21.09)"> </text><text class="cls-6" transform="translate(96.83 21.09)">f</text><text class="cls-6" transform="translate(99.06 21.09)">(</text><text class="cls-6" transform="translate(101.72 21.09)">x</text><text class="cls-6" transform="translate(105.27 21.09)">, </text><text class="cls-6" transform="translate(109.27 21.09)">y</text><text class="cls-6" transform="translate(112.82 21.09)">)</text><text class="cls-6" transform="translate(83.06 30.69)"><tspan xml:space="preserve">  </tspan></text><text class="cls-6" transform="translate(87.06 30.69)">=</text><text class="cls-6" transform="translate(93.72 30.69)"><tspan xml:space="preserve"> 100 </tspan></text><text class="cls-6" transform="translate(109.72 30.69)">−</text><text class="cls-6" transform="translate(116.38 30.69)"> </text><text class="cls-6" transform="translate(118.38 30.69)">x</text><text class="cls-19" transform="translate(121.94 27.69)">2</text><text class="cls-6" transform="translate(124.94 30.69)"> </text><text class="cls-6" transform="translate(126.94 30.69)">−</text><text class="cls-6" transform="translate(133.61 30.69)"> </text><text class="cls-6" transform="translate(135.61 30.69)">y</text><text class="cls-19" transform="translate(139.16 27.69)">2</text><text class="cls-6" transform="translate(83.06 40.29)">is the graph of </text><text class="cls-6" transform="translate(131.06 40.29)">f</text><text class="cls-6" transform="translate(133.28 40.29)">.</text><g class="cls-11"><path class="cls-7" d="M41.76,119.85v-4.62m57-2.79v-4" transform="translate(-1.18)"/></g></g></g></svg>