<svg version="1.1" xmlns="http://www.w3.org/2000/svg" viewBox="0 0 591.5586837877127 297.0981588520707" width="591.5586837877127" height="297.0981588520707">
  <!-- svg-source:excalidraw -->
  
  <defs>
    <style>
      @font-face {
        font-family: "Virgil";
        src: url("https://excalidraw.com/Virgil.woff2");
      }
      @font-face {
        font-family: "Cascadia";
        src: url("https://excalidraw.com/Cascadia.woff2");
      }
    </style>
  </defs>
  <rect x="0" y="0" width="591.5586837877127" height="297.0981588520707" fill="#ffffff"></rect><g transform="translate(10 12.09815885207064) rotate(0 123.5 137.50000000000003)"><text x="0" y="18" font-family="Virgil, Segoe UI Emoji" font-size="20px" fill="#000000" text-anchor="start" style="white-space: pre;" direction="ltr">int a = 7;</text><text x="0" y="43" font-family="Virgil, Segoe UI Emoji" font-size="20px" fill="#000000" text-anchor="start" style="white-space: pre;" direction="ltr"></text><text x="0" y="68" font-family="Virgil, Segoe UI Emoji" font-size="20px" fill="#000000" text-anchor="start" style="white-space: pre;" direction="ltr">int b = 9;</text><text x="0" y="93" font-family="Virgil, Segoe UI Emoji" font-size="20px" fill="#000000" text-anchor="start" style="white-space: pre;" direction="ltr"></text><text x="0" y="118" font-family="Virgil, Segoe UI Emoji" font-size="20px" fill="#000000" text-anchor="start" style="white-space: pre;" direction="ltr">char c = 'a'; </text><text x="0" y="143" font-family="Virgil, Segoe UI Emoji" font-size="20px" fill="#000000" text-anchor="start" style="white-space: pre;" direction="ltr"></text><text x="0" y="168" font-family="Virgil, Segoe UI Emoji" font-size="20px" fill="#000000" text-anchor="start" style="white-space: pre;" direction="ltr">double x = 1.2;</text><text x="0" y="193" font-family="Virgil, Segoe UI Emoji" font-size="20px" fill="#000000" text-anchor="start" style="white-space: pre;" direction="ltr"></text><text x="0" y="218" font-family="Virgil, Segoe UI Emoji" font-size="20px" fill="#000000" text-anchor="start" style="white-space: pre;" direction="ltr">string s1 = "Hello, World!";</text><text x="0" y="243" font-family="Virgil, Segoe UI Emoji" font-size="20px" fill="#000000" text-anchor="start" style="white-space: pre;" direction="ltr"></text><text x="0" y="268" font-family="Virgil, Segoe UI Emoji" font-size="20px" fill="#000000" text-anchor="start" style="white-space: pre;" direction="ltr">string s2 = "1.2"; </text></g><g stroke-linecap="round" transform="translate(341.5629462365873 12.31928655373622) rotate(0 56.60315780605879 13.492910180846593)"><path d="M-1.75 0.03 C43.76 -0.14, 87.97 2.21, 115.2 -0.68 M-0.37 -0.66 C30.58 -0.84, 61.43 0.09, 113.15 -0.27 M114.73 -1.11 C114.24 5.34, 114.27 12.46, 112.24 25.71 M113.99 0.56 C113.31 8.14, 112.54 14.96, 113.52 26.7 M114.27 26.21 C69.62 26.64, 25.7 27.19, -1.74 26.54 M113.76 26.74 C75.87 26.56, 40.54 27.28, 0.27 27.71 M1.3 28.57 C1.12 21.94, -1.48 13.9, 1.53 -0.47 M0.63 27.31 C0.39 18.72, -0.37 12.01, -0.59 0.49" stroke="#000000" stroke-width="2" fill="none"></path></g><g stroke-linecap="round" transform="translate(341.5629462365873 101.41899868098682) rotate(0 13.492910180846593 13.492910180846593)"><path d="M-0.01 0.27 C4.55 -1.5, 10.75 -0.17, 27.46 -1.04 M-0.44 -0.03 C7.18 0.47, 12.04 -0.85, 26.66 -0.8 M28.3 1.17 C27.74 6.44, 28.17 13.25, 28.9 27.33 M26.37 -0.73 C26.43 8.35, 27.37 16.5, 26.27 27.68 M26.78 27.83 C20.9 25.67, 14.84 28.29, 1.9 26.34 M26.84 27.3 C20.02 27.83, 15.14 26.01, 0.84 27.47 M-1.1 27.17 C0.16 19.67, -1.27 16.72, -0.96 0.33 M0.71 26.76 C-0.87 19.73, 0.25 13.75, -0.88 0.44" stroke="#000000" stroke-width="2" fill="none"></path></g><g stroke-linecap="round" transform="translate(341.0476843127799 148.69194238807313) rotate(0 114.05486231057489 13.492910180846593)"><path d="M0.61 1.11 C86.23 -0.43, 171.42 -2.66, 228.87 1.3 M-0.04 0.53 C63.38 0.21, 125.7 -0.44, 228.4 -0.5 M228.64 1.94 C227.22 8.58, 226.59 20.47, 228.02 27.5 M227.54 -0.07 C228.11 8.85, 227.23 18.1, 228.7 27.24 M227.32 26.55 C151.74 25.22, 76.33 24.28, 1.05 25.59 M227.97 27.67 C144.57 28.84, 62.16 29.14, 0.01 27.34 M-0.49 27.95 C0.76 18.12, -0.01 13.6, 1.21 -0.66 M0.27 26.2 C0.78 17.53, -0.92 7.6, 0.04 0.83" stroke="#000000" stroke-width="2" fill="none"></path></g><g stroke-linecap="round" transform="translate(341.5629462365873 54.72755098304373) rotate(0 56.60315780605879 13.492910180846593)"><path d="M1.42 -0.57 C26.98 1.31, 56.98 -0.93, 112.04 0.73 M-0.14 -0.59 C34.98 0.2, 68.14 0.46, 112.34 -0.3 M113.14 -0.55 C111.67 7.09, 113.96 12.24, 114.44 28.49 M112.42 0.09 C114.09 10.74, 112.93 21.07, 112.73 26.57 M113.06 25.5 C77.9 27.63, 41.38 25.07, 1.5 28.49 M113.18 27.18 C80.47 28.72, 45.87 28.51, -0.69 27.32 M-0.07 25.16 C-0.57 19.17, -0.49 8.99, 0.81 -1.71 M0.14 27.7 C0.81 16.79, -0.21 8.47, 0.2 0.52" stroke="#000000" stroke-width="2" fill="none"></path></g><g stroke-linecap="round" transform="translate(341.0476843127799 259.19809296828794) rotate(0 56.2404682739259 13.492910180846593)"><path d="M0.07 -0.49 C42.91 -0.88, 84.31 -1.93, 114.25 -1.32 M0.32 0.77 C28.93 0.02, 60.03 -0.44, 111.61 -0.26 M111.56 1.34 C113.19 8.46, 110.85 17.39, 114.17 26.49 M111.53 -0.73 C112.75 5.99, 112.1 12.44, 112.45 26.96 M113.5 25.97 C78.42 27.24, 48.34 29.1, 0.06 25.86 M111.99 27.52 C67.27 26.85, 23.62 27.26, -0.23 27.56 M-1.53 25.2 C1.82 16.86, 1.6 5.09, 0.6 1.99 M-0.12 26.77 C0.38 19.73, 0.71 12.54, -0.23 -0.04" stroke="#000000" stroke-width="2" fill="none"></path></g><g stroke-linecap="round" transform="translate(454.4058164269345 259.19809296828794) rotate(0 48.64250410294653 13.492910180846593)"><path d="M0.44 -0.86 C28.72 -1.68, 60.45 -1.08, 96.56 1.53 M-0.73 0.72 C35.93 -0.49, 69.56 -1, 97.23 -0.44 M98.12 0.51 C95.65 7.2, 98.85 10.95, 95.8 25.47 M97.76 -0.1 C96.85 6.06, 96.99 11.56, 97.22 27.47 M96.22 26.74 C65.61 28.11, 30.29 25.36, 1.88 27.83 M96.37 26.55 C65.21 27.47, 33.47 28.07, 0.91 26.8 M1.77 27.4 C1.76 18.94, 0.81 14.52, -0.61 1.71 M0.61 27.01 C0.98 20.46, -0.2 13.69, 0.46 1" stroke="#000000" stroke-width="2" fill="none"></path></g><g stroke-linecap="round" transform="translate(341.0476843127799 208.719664338102) rotate(0 56.2404682739259 13.492910180846593)"><path d="M-1.7 -1.42 C21.46 1.17, 46.48 -0.97, 113.14 0.19 M-0.11 0.41 C34.31 0.33, 69.23 0.7, 112.94 0.98 M112.8 -0.29 C112.3 10.5, 111.11 19.72, 112.69 26.84 M112.39 0.36 C113.38 5.79, 111.66 11.54, 112.01 27.5 M113.21 26.55 C71.73 26.52, 28.39 25.66, 1.2 28.89 M112.81 27.12 C68.18 26.1, 23.77 25.94, -0.46 26.23 M1.96 26.56 C1.67 18.46, -0.75 7.87, -1.88 0.15 M-0.58 27.18 C-0.35 18.97, 0.3 9.91, 0.63 0.02" stroke="#000000" stroke-width="2" fill="none"></path></g><g stroke-linecap="round" transform="translate(454.4058164269345 208.719664338102) rotate(0 63.57643368038907 13.492910180846593)"><path d="M-1.66 -1.28 C30.94 -0.02, 63.65 0.11, 128.73 -0.21 M-0.48 0.48 C30.02 -1.93, 61.7 -1.05, 128.02 0.98 M126.26 -1.28 C125.23 7.6, 128.71 12.34, 125.69 28.79 M127.61 -0.4 C127.43 10.47, 126.58 19.99, 128.11 27.31 M128.76 28.1 C80.27 27.3, 34.36 28.61, -0.04 25.43 M127.12 27.51 C96.43 28.62, 65.06 28.32, 0.55 26.54 M0.66 25.62 C-0.45 19.51, -0.58 7.63, 1.67 1.97 M-0.86 26.46 C-0.41 22.56, 0.68 17.04, -0.18 -0.97" stroke="#000000" stroke-width="2" fill="none"></path></g><g transform="translate(305.94140066410046 10) rotate(0 9.5 12.5)"><text x="0" y="18" font-family="Virgil, Segoe UI Emoji" font-size="20px" fill="#000000" text-anchor="start" style="white-space: pre;" direction="ltr">a:</text></g><g transform="translate(305.5816929101975 54.60376148396654) rotate(0 8 12.5)"><text x="0" y="18" font-family="Virgil, Segoe UI Emoji" font-size="20px" fill="#000000" text-anchor="start" style="white-space: pre;" direction="ltr">b:</text></g><g transform="translate(305.94140066410046 104.60313927647752) rotate(0 8 12.5)"><text x="0" y="18" font-family="Virgil, Segoe UI Emoji" font-size="20px" fill="#000000" text-anchor="start" style="white-space: pre;" direction="ltr">c:</text></g><g transform="translate(305.94140066410046 143.45157669799676) rotate(0 8.5 12.5)"><text x="0" y="18" font-family="Virgil, Segoe UI Emoji" font-size="20px" fill="#000000" text-anchor="start" style="white-space: pre;" direction="ltr">x:</text></g><g transform="translate(305.94140066410046 208.55868015443184) rotate(0 11 12.5)"><text x="0" y="18" font-family="Virgil, Segoe UI Emoji" font-size="20px" fill="#000000" text-anchor="start" style="white-space: pre;" direction="ltr">s1:</text></g><g transform="translate(305.94140066410046 256.0401036696221) rotate(0 15.5 12.5)"><text x="0" y="18" font-family="Virgil, Segoe UI Emoji" font-size="20px" fill="#000000" text-anchor="start" style="white-space: pre;" direction="ltr">s2:</text></g><g transform="translate(394.06980037032463 13.956785292932523) rotate(0 6 12.5)"><text x="0" y="18" font-family="Virgil, Segoe UI Emoji" font-size="20px" fill="#000000" text-anchor="start" style="white-space: pre;" direction="ltr">7</text></g><g transform="translate(394.06980037032463 57.48142351519027) rotate(0 6.5 12.5)"><text x="0" y="18" font-family="Virgil, Segoe UI Emoji" font-size="20px" fill="#000000" text-anchor="start" style="white-space: pre;" direction="ltr">9</text></g><g transform="translate(346.9480846090373 104.24343152257455) rotate(0 7 12.5)"><text x="0" y="18" font-family="Virgil, Segoe UI Emoji" font-size="20px" fill="#000000" text-anchor="start" style="white-space: pre;" direction="ltr">a</text></g><g transform="translate(446.227424686253 149.206900760444) rotate(0 13 12.5)"><text x="0" y="18" font-family="Virgil, Segoe UI Emoji" font-size="20px" fill="#000000" text-anchor="start" style="white-space: pre;" direction="ltr">1.2</text></g><g transform="translate(383.6382755071386 210.71692667784953) rotate(0 10 12.5)"><text x="0" y="18" font-family="Virgil, Segoe UI Emoji" font-size="20px" fill="#000000" text-anchor="start" style="white-space: pre;" direction="ltr">13</text></g><g transform="translate(383.6382755071386 261.4357199781663) rotate(0 7.5 12.5)"><text x="0" y="18" font-family="Virgil, Segoe UI Emoji" font-size="20px" fill="#000000" text-anchor="start" style="white-space: pre;" direction="ltr">3</text></g><g transform="translate(497.6656334943759 261.4357199781663) rotate(0 13 12.5)"><text x="0" y="18" font-family="Virgil, Segoe UI Emoji" font-size="20px" fill="#000000" text-anchor="start" style="white-space: pre;" direction="ltr">1.2</text></g><g transform="translate(464.9322278892073 211.7960499395582) rotate(0 55.5 12.5)"><text x="0" y="18" font-family="Virgil, Segoe UI Emoji" font-size="20px" fill="#000000" text-anchor="start" style="white-space: pre;" direction="ltr">Hello, World</text></g></svg>