<?xml version="1.0" encoding="UTF-8" standalone="no"?>
<!DOCTYPE svg PUBLIC "-//W3C//DTD SVG 1.1//EN" "http://www.w3.org/Graphics/SVG/1.1/DTD/svg11.dtd">
<svg xmlns="http://www.w3.org/2000/svg" xmlns:xlink="http://www.w3.org/1999/xlink" version="1.1" width="406.742pt" height="274.5pt" viewBox="0 0 406.742 274.5">
<g enable-background="new">
<g>
<g id="Layer-1" data-name="svg1984">
<path transform="matrix(1,0,0,-1,59.0771,245.1484)" d="M 0 0 L 47.134 162.218 L 263.577 57.217 Z " fill="#2a5cc9"/>
<path transform="matrix(1,0,0,-1,59.0771,245.1484)" stroke-width="1" stroke-linecap="round" stroke-linejoin="round" fill="none" stroke="#000000" d="M 0 0 L 47.134 162.218 L 263.577 57.217 L 0 0 Z "/>
<path transform="matrix(1,0,0,-1,322.6538,187.93161)" d="M 0 0 L 42.717 155.141 L -216.443 105.001 Z " fill="#6f92de"/>
<path transform="matrix(1,0,0,-1,322.6538,187.93161)" stroke-width="1" stroke-linecap="round" stroke-linejoin="round" fill="none" stroke="#000000" d="M 0 0 L 42.717 155.141 L -216.443 105.001 L 0 0 Z "/>
<clipPath id="cp0">
<path transform="matrix(1,0,0,-1,0,274.5)" d="M 0 274.5 L 406.742 274.5 L 406.742 0 L 0 0 Z "/>
</clipPath>
<g clip-path="url(#cp0)">
<g opacity=".5">
<clipPath id="cp1">
<path transform="matrix(1,0,0,-1,0,274.5)" d="M 57.6865 34.4014 L 300.314 34.4014 L 300.314 99.375 L 57.6865 99.375 Z "/>
</clipPath>
<g clip-path="url(#cp1)">
<clipPath id="cp2">
<path transform="matrix(1,0,0,-1,0,274.5)" d="M 57.688 47.972 L 297.538 99.375 L 300.307 86.447 L 60.458 35.043 Z "/>
</clipPath>
<g clip-path="url(#cp2)">
<path transform="matrix(1,0,0,-1,288.5063,190.582)" stroke-width="7.651" stroke-linecap="butt" stroke-miterlimit="10" stroke-linejoin="miter" fill="none" stroke="#f5b348" d="M 0 0 L -213.594 -45.776 "/>
</g>
<path transform="matrix(1,0,0,-1,283.9078,178.0457)" d="M 0 0 L 2.771 -12.928 L 16.363 -10.014 L .668 .143 Z " fill="#f5b348"/>
</g>
</g>
</g>
<clipPath id="cp3">
<path transform="matrix(1,0,0,-1,0,274.5)" d="M 105.465 171.313 L 287.286 81.471 L 293.143 93.327 L 111.323 183.165 Z "/>
</clipPath>
<g clip-path="url(#cp3)">
<path transform="matrix(1,0,0,-1,122.1431,96.6812)" stroke-width="7.651" stroke-linecap="butt" stroke-miterlimit="10" stroke-linejoin="miter" fill="none" stroke="#f5b348" d="M 0 0 L 160.041 -79.078 "/>
</g>
<path transform="matrix(1,0,0,-1,117.3483,109.0587)" d="M 0 0 L .614 -.303 L 6.471 11.55 L -5.993 17.708 Z " fill="#f5b348"/>
<clipPath id="cp4">
<path transform="matrix(1,0,0,-1,0,274.5)" d="M 0 274.5 L 406.742 274.5 L 406.742 0 L 0 0 Z "/>
</clipPath>
<g clip-path="url(#cp4)">
<g opacity=".5">
<clipPath id="cp5">
<path transform="matrix(1,0,0,-1,0,274.5)" d="M 59.5249 42.0537 L 121.493 42.0537 L 121.493 174.968 L 59.5249 174.968 Z "/>
</clipPath>
<g clip-path="url(#cp5)">
<clipPath id="cp6">
<path transform="matrix(1,0,0,-1,0,274.5)" d="M 121.494 171.04 L 81.356 42.054 L 68.733 45.983 L 108.867 174.968 Z "/>
</clipPath>
<g clip-path="url(#cp6)">
<path transform="matrix(1,0,0,-1,72.3188,216.9932)" stroke-width="7.651" stroke-linecap="butt" stroke-miterlimit="10" stroke-linejoin="miter" fill="none" stroke="#f5b348" d="M 0 0 L 34.131 109.688 "/>
</g>
<path transform="matrix(1,0,0,-1,68.7437,228.4819)" d="M 0 0 L 16.551 8.692 L 16.754 9.345 L 4.13 13.274 Z " fill="#f5b348"/>
</g>
</g>
<g opacity=".5">
<clipPath id="cp7">
<path transform="matrix(1,0,0,-1,0,274.5)" d="M 137.62 181.583 L 368.195 181.583 L 368.195 240.264 L 137.62 240.264 Z "/>
</clipPath>
<g clip-path="url(#cp7)">
<clipPath id="cp8">
<path transform="matrix(1,0,0,-1,0,274.5)" d="M 368.196 226.225 L 140.167 181.583 L 137.628 194.559 L 365.655 239.201 Z "/>
</clipPath>
<g clip-path="url(#cp8)">
<path transform="matrix(1,0,0,-1,149.4722,77.622608)" stroke-width="7.651" stroke-linecap="butt" stroke-miterlimit="10" stroke-linejoin="miter" fill="none" stroke="#f5b348" d="M 0 0 L 202.442 39.632 "/>
</g>
<path transform="matrix(1,0,0,-1,137.6628,79.9348)" d="M 0 0 L 15.513 -10.435 L 16.184 -10.304 L 13.644 2.671 Z " fill="#f5b348"/>
</g>
</g>
</g>
<clipPath id="cp9">
<path transform="matrix(1,0,0,-1,0,274.5)" d="M 125.842 189.832 L 318.103 94.899 L 323.958 106.752 L 131.695 201.689 Z "/>
</clipPath>
<g clip-path="url(#cp9)">
<path transform="matrix(1,0,0,-1,307.2817,174.2578)" stroke-width="7.651" stroke-linecap="butt" stroke-miterlimit="10" stroke-linejoin="miter" fill="none" stroke="#f5b348" d="M 0 0 L -169.853 83.869 "/>
</g>
<path transform="matrix(1,0,0,-1,305.6054,173.4303)" d="M 0 0 L 12.465 -6.155 L 6.467 11.551 L 5.853 11.854 Z " fill="#f5b348"/>
<clipPath id="cp10">
<path transform="matrix(1,0,0,-1,0,274.5)" d="M 0 274.5 L 406.742 274.5 L 406.742 0 L 0 0 Z "/>
</clipPath>
<g clip-path="url(#cp10)">
<g opacity=".5">
<clipPath id="cp11">
<path transform="matrix(1,0,0,-1,0,274.5)" d="M 308.057 96.3945 L 369.369 96.3945 L 369.369 237.084 L 308.057 237.084 Z "/>
</clipPath>
<g clip-path="url(#cp11)">
<clipPath id="cp12">
<path transform="matrix(1,0,0,-1,0,274.5)" d="M 308.058 100.01 L 347.016 237.084 L 359.733 233.469 L 320.779 96.395 Z "/>
</clipPath>
<g clip-path="url(#cp12)">
<path transform="matrix(1,0,0,-1,356.4341,52.640596)" stroke-width="7.651" stroke-linecap="butt" stroke-miterlimit="10" stroke-linejoin="miter" fill="none" stroke="#f5b348" d="M 0 0 L -33.31 -117.203 "/>
</g>
<path transform="matrix(1,0,0,-1,343.3919,50.166399)" d="M 0 0 L -.187 -.658 L 12.531 -4.273 L 16.331 9.101 Z " fill="#f5b348"/>
</g>
</g>
</g>
<path transform="matrix(1,0,0,-1,106.2109,82.930698)" stroke-width="7" stroke-linecap="round" stroke-linejoin="round" fill="none" stroke="#000000" d="M 0 0 L 216.443 -105.001 "/>
<symbol id="font_d_29">
<path d="M 0 .7290039 L .42919923 .7290039 L .42919923 .6459961 L .099121097 .6459961 L .099121097 .43115235 L .3984375 .43115235 L .3984375 .34814454 L .099121097 .34814454 L .099121097 0 L 0 0 L 0 .7290039 Z "/>
</symbol>
<symbol id="font_d_b">
<path d="M .2241211 .890625 C .18082683 .81640627 .1484375 .7423503 .12695313 .66845706 C .10579427 .59488937 .095214847 .5206706 .095214847 .44580079 C .095214847 .3712565 .10579427 .29703776 .12695313 .22314453 C .1484375 .1492513 .18082683 .07486979 .2241211 0 L .1459961 0 C .096842449 .07747396 .060221357 .15283203 .036132814 .22607422 C .0120442709 .29964195 0 .37288413 0 .44580079 C 0 .5183919 .0120442709 .5914714 .036132814 .66503909 C .060221357 .73860678 .096842449 .81380209 .1459961 .890625 L .2241211 .890625 Z "/>
</symbol>
<symbol id="font_d_4c">
<path d="M .038085939 .546875 L .2680664 .546875 L .2680664 .06982422 L .44628907 .06982422 L .44628907 0 L 0 0 L 0 .06982422 L .17822266 .06982422 L .17822266 .47705079 L .038085939 .47705079 L .038085939 .546875 M .17822266 .7597656 L .2680664 .7597656 L .2680664 .6459961 L .17822266 .6459961 L .17822266 .7597656 Z "/>
</symbol>
<symbol id="font_d_f">
<path d="M .048339845 .28808595 L .17138672 .28808595 L .17138672 .18701172 L .07519531 0 L 0 0 L .048339845 .18701172 L .048339845 .28808595 Z "/>
</symbol>
<symbol id="font_d_13">
<path d="M .17089844 .3803711 C .17089844 .39827476 .17708333 .41373698 .18945313 .4267578 C .20214844 .43977867 .21728516 .44628907 .23486328 .44628907 C .25309245 .44628907 .26871745 .43977867 .28173829 .4267578 C .29475913 .41373698 .30126954 .39827476 .30126954 .3803711 C .30126954 .36214195 .29475913 .3466797 .28173829 .33398438 C .26904298 .32128907 .25341798 .3149414 .23486328 .3149414 C .21663411 .3149414 .20133464 .3211263 .18896485 .3334961 C .17692058 .34586589 .17089844 .36149089 .17089844 .3803711 M .23583985 .67822268 C .1899414 .67822268 .15559896 .6534831 .1328125 .6040039 C .11035156 .5545247 .099121097 .47916667 .099121097 .3779297 C .099121097 .27701823 .11035156 .20182292 .1328125 .15234375 C .15559896 .102864589 .1899414 .078125 .23583985 .078125 C .2820638 .078125 .31640626 .102864589 .3388672 .15234375 C .36165367 .20182292 .37304688 .27701823 .37304688 .3779297 C .37304688 .47916667 .36165367 .5545247 .3388672 .6040039 C .31640626 .6534831 .2820638 .67822268 .23583985 .67822268 M .23583985 .75634768 C .3136393 .75634768 .37239585 .7244466 .41210938 .66064456 C .45214845 .59684249 .47216798 .5026042 .47216798 .3779297 C .47216798 .25358073 .45214845 .1595052 .41210938 .095703128 C .37239585 .031901044 .3136393 0 .23583985 0 C .15804036 0 .09928385 .031901044 .059570314 .095703128 C .019856772 .1595052 0 .25358073 0 .3779297 C 0 .5026042 .019856772 .59684249 .059570314 .66064456 C .09928385 .7244466 .15804036 .75634768 .23583985 .75634768 Z "/>
</symbol>
<symbol id="font_d_c">
<path d="M 0 .890625 L .078125 .890625 C .12727864 .81380209 .16389974 .73860678 .18798828 .66503909 C .21207683 .5914714 .2241211 .5183919 .2241211 .44580079 C .2241211 .3725586 .21207683 .29915367 .18798828 .22558594 C .16389974 .15201824 .12727864 .076822917 .078125 0 L 0 0 C .04329427 .075520839 .075520839 .15022786 .09667969 .2241211 C .11816406 .2980143 .12890625 .37190757 .12890625 .44580079 C .12890625 .52001956 .11816406 .5940755 .09667969 .66796877 C .075520839 .741862 .04329427 .81608077 0 .890625 Z "/>
</symbol>
<symbol id="font_d_20">
<path d="M 0 .083984378 L .5161133 .083984378 L .5161133 0 L 0 0 L 0 .083984378 M 0 .28222657 L .5161133 .28222657 L .5161133 .19921875 L 0 .19921875 L 0 .28222657 Z "/>
</symbol>
<symbol id="font_d_4d">
<path d="M .20214844 .19824219 L .20214844 .6850586 L .04736328 .6850586 L .04736328 .7548828 L .2919922 .7548828 L .2919922 .19824219 C .2919922 .13476563 .27734376 .0859375 .24804688 .051757814 C .21907552 .017252604 .17773438 0 .12402344 0 L 0 0 L 0 .076171878 L .11425781 .076171878 C .14355469 .076171878 .16552735 .08642578 .18017578 .106933597 C .19482422 .12711589 .20214844 .15755208 .20214844 .19824219 M .20214844 .96777346 L .2919922 .96777346 L .2919922 .8540039 L .20214844 .8540039 L .20214844 .96777346 Z "/>
</symbol>
<symbol id="font_d_14">
<path d="M .01171875 .08300781 L .16503906 .08300781 L .16503906 .6401367 L 0 .60302737 L 0 .6928711 L .1640625 .7290039 L .2626953 .7290039 L .2626953 .08300781 L .4140625 .08300781 L .4140625 0 L .01171875 0 L .01171875 .08300781 Z "/>
</symbol>
<use xlink:href="#font_d_29" transform="matrix(24,0,0,-24,3.9228688,60.8481)"/>
<use xlink:href="#font_d_b" transform="matrix(24,0,0,-24,20.63259,64.01216)"/>
<use xlink:href="#font_d_4c" transform="matrix(24,0,0,-24,32.17434,60.8481)"/>
<use xlink:href="#font_d_f" transform="matrix(24,0,0,-24,49.259065,64.21138)"/>
<use xlink:href="#font_d_13" transform="matrix(24,0,0,-24,60.543004,61.187944)"/>
<use xlink:href="#font_d_c" transform="matrix(24,0,0,-24,77.51054,64.01216)"/>
<use xlink:href="#font_d_20" transform="matrix(24,0,0,-24,88.91167,56.7231)"/>
<use xlink:href="#font_d_29" transform="matrix(24,0,0,-24,105.05888,60.8481)"/>
<use xlink:href="#font_d_b" transform="matrix(24,0,0,-24,121.7686,64.01216)"/>
<use xlink:href="#font_d_4d" transform="matrix(24,0,0,-24,133.4041,65.84029)"/>
<use xlink:href="#font_d_f" transform="matrix(24,0,0,-24,150.39507,64.21138)"/>
<use xlink:href="#font_d_14" transform="matrix(24,0,0,-24,163.00322,60.8481)"/>
<use xlink:href="#font_d_c" transform="matrix(24,0,0,-24,178.64653,64.01216)"/>
<use xlink:href="#font_d_29" transform="matrix(24,0,0,-24,23.002869,268.3521)"/>
<use xlink:href="#font_d_b" transform="matrix(24,0,0,-24,39.71259,271.51618)"/>
<use xlink:href="#font_d_4c" transform="matrix(24,0,0,-24,51.25434,268.3521)"/>
<use xlink:href="#font_d_f" transform="matrix(24,0,0,-24,68.339069,271.7154)"/>
<use xlink:href="#font_d_14" transform="matrix(24,0,0,-24,80.94722,268.3521)"/>
<use xlink:href="#font_d_c" transform="matrix(24,0,0,-24,96.59053,271.51618)"/>
<clipPath id="cp14">
<path transform="matrix(1,0,0,-1,0,274.5)" d="M 0 274.5 L 406.742 274.5 L 406.742 0 L 0 0 Z "/>
</clipPath>
<g clip-path="url(#cp14)">
<symbol id="font_d_15">
<path d="M .107910159 .08300781 L .4428711 .08300781 L .4428711 0 L 0 0 L 0 .08300781 C .060872396 .14713542 .114095058 .20377605 .15966797 .2529297 C .20524089 .30208335 .23665364 .3367513 .25390626 .3569336 C .28645835 .39664714 .308431 .42871095 .31982423 .453125 C .33121745 .4778646 .33691407 .50309249 .33691407 .5288086 C .33691407 .5694987 .32486979 .6013997 .30078126 .6245117 C .27701823 .6476237 .24430339 .6591797 .20263672 .6591797 C .17301433 .6591797 .14192708 .6538086 .109375 .6430664 C .076822917 .6323242 .042317708 .61604818 .005859375 .5942383 L .005859375 .69384768 C .03938802 .70979818 .072265628 .72184249 .10449219 .72998049 C .13704427 .73811849 .16910808 .7421875 .2006836 .7421875 C .27197267 .7421875 .3292643 .72314456 .3725586 .6850586 C .41617839 .64729818 .43798829 .59765627 .43798829 .5361328 C .43798829 .5048828 .43066407 .4736328 .41601563 .4423828 C .40169273 .4111328 .37825523 .3766276 .34570313 .3388672 C .32747398 .31770835 .300944 .28841148 .26611329 .25097657 C .23160808 .21354167 .1788737 .15755208 .107910159 .08300781 Z "/>
</symbol>
<use xlink:href="#font_d_29" transform="matrix(24,0,0,-24,225.35257,229.186)"/>
<use xlink:href="#font_d_b" transform="matrix(24,0,0,-24,242.06229,232.35007)"/>
<use xlink:href="#font_d_4c" transform="matrix(24,0,0,-24,253.60404,229.186)"/>
<use xlink:href="#font_d_f" transform="matrix(24,0,0,-24,270.68876,232.54929)"/>
<use xlink:href="#font_d_15" transform="matrix(24,0,0,-24,282.19535,229.186)"/>
<use xlink:href="#font_d_c" transform="matrix(24,0,0,-24,298.94023,232.35007)"/>
<use xlink:href="#font_d_20" transform="matrix(24,0,0,-24,310.34135,225.061)"/>
<use xlink:href="#font_d_29" transform="matrix(24,0,0,-24,326.48857,229.186)"/>
<use xlink:href="#font_d_b" transform="matrix(24,0,0,-24,343.19828,232.35007)"/>
<use xlink:href="#font_d_4d" transform="matrix(24,0,0,-24,354.83378,234.17819)"/>
<use xlink:href="#font_d_f" transform="matrix(24,0,0,-24,371.82475,232.54929)"/>
<use xlink:href="#font_d_15" transform="matrix(24,0,0,-24,383.33134,229.186)"/>
<use xlink:href="#font_d_c" transform="matrix(24,0,0,-24,400.0762,232.35007)"/>
</g>
<symbol id="font_d_1d">
<path d="M 0 .51904299 L .123046878 .51904299 L .123046878 .37109376 L 0 .37109376 L 0 .51904299 M 0 .14892578 L .123046878 .14892578 L .123046878 0 L 0 0 L 0 .14892578 Z "/>
</symbol>
<use xlink:href="#font_d_29" transform="matrix(24,0,0,-24,319.11427,23.862305)"/>
<use xlink:href="#font_d_b" transform="matrix(24,0,0,-24,335.82398,27.026368)"/>
<use xlink:href="#font_d_4d" transform="matrix(24,0,0,-24,347.45948,28.854493)"/>
<use xlink:href="#font_d_f" transform="matrix(24,0,0,-24,364.45045,27.225586)"/>
<use xlink:href="#font_d_13" transform="matrix(24,0,0,-24,375.73439,24.202149)"/>
<use xlink:href="#font_d_c" transform="matrix(24,0,0,-24,392.7019,27.026368)"/>
<use xlink:href="#font_d_29" transform="matrix(24,0,0,-24,119.00226,179.3583)"/>
<use xlink:href="#font_d_b" transform="matrix(24,0,0,-24,135.71198,182.52237)"/>
<use xlink:href="#font_d_4c" transform="matrix(24,0,0,-24,147.25373,179.3583)"/>
<use xlink:href="#font_d_f" transform="matrix(24,0,0,-24,164.33844,182.72159)"/>
<use xlink:href="#font_d_1d" transform="matrix(24,0,0,-24,179.79425,179.3583)"/>
<use xlink:href="#font_d_c" transform="matrix(24,0,0,-24,192.5899,182.52237)"/>
<use xlink:href="#font_d_29" transform="matrix(24,0,0,-24,220.49826,104.502307)"/>
<use xlink:href="#font_d_b" transform="matrix(24,0,0,-24,237.20798,107.66637)"/>
<use xlink:href="#font_d_4d" transform="matrix(24,0,0,-24,248.84348,109.49449)"/>
<use xlink:href="#font_d_f" transform="matrix(24,0,0,-24,265.83445,107.865589)"/>
<use xlink:href="#font_d_1d" transform="matrix(24,0,0,-24,281.29026,104.502307)"/>
<use xlink:href="#font_d_c" transform="matrix(24,0,0,-24,294.0859,107.66637)"/>
</g>
</g>
</g>
</svg>
