<?xml version="1.0" encoding="utf-8"?>
<!-- Generator: Adobe Illustrator 26.0.0, SVG Export Plug-In . SVG Version: 6.00 Build 0)  -->
<svg version="1.1" id="Layer_1" xmlns="http://www.w3.org/2000/svg" xmlns:xlink="http://www.w3.org/1999/xlink" x="0px" y="0px"
	 viewBox="0 0 453 299" style="enable-background:new 0 0 453 299;" xml:space="preserve">
<style type="text/css">
	.st0{clip-path:url(#SVGID_00000169528499825795686230000000737595880990399165_);}
	.st1{clip-path:url(#SVGID_00000035509676875145679620000008904470070470574976_);}
	.st2{fill-rule:evenodd;clip-rule:evenodd;fill:#8ED1C6;}
	.st3{fill:none;stroke:#E21F26;stroke-width:2.4;stroke-linejoin:round;}
	.st4{fill-rule:evenodd;clip-rule:evenodd;}
</style>
<g id="Layer_2_00000007415620484817040240000005770474005297011336_">
	<g id="Layer_1-2">
		<g>
			<g>
				<defs>
					<rect id="SVGID_1_" x="-159" y="-40.7" width="800" height="600"/>
				</defs>
				<clipPath id="SVGID_00000006678111915567881410000015632064600150422922_">
					<use xlink:href="#SVGID_1_"  style="overflow:visible;"/>
				</clipPath>
				<g style="clip-path:url(#SVGID_00000006678111915567881410000015632064600150422922_);">
					<g>
						<g>
							<defs>
								<rect id="SVGID_00000099653935712679178820000003670441306658404246_" x="602" y="-32.1" width="30.9" height="10.5"/>
							</defs>
							<clipPath id="SVGID_00000111168258762060005060000012246172582424695959_">
								<use xlink:href="#SVGID_00000099653935712679178820000003670441306658404246_"  style="overflow:visible;"/>
							</clipPath>
							<g style="clip-path:url(#SVGID_00000111168258762060005060000012246172582424695959_);">
								
									<text transform="matrix(1 0 0 1 603 -22.7223)" style="fill:#808080; font-family:'ArialMT'; font-size:11.96px; letter-spacing:2;">9</text>
								
									<text transform="matrix(1 0 0 1 612.6 -22.7223)" style="fill:#808080; font-family:'ArialMT'; font-size:11.96px; letter-spacing:2;">-</text>
								<text transform="matrix(1 0 0 1 619.75 -22.7223)" style="fill:#808080; font-family:'ArialMT'; font-size:11.96px;">10</text>
							</g>
						</g>
					</g>
					<polygon class="st2" points="70.6,199.2 62.4,114.1 103.5,55.5 319.9,65.4 362.7,154 284.7,227.9 111.7,244.3 					"/>
					<polygon class="st3" points="70.6,199.2 62.4,114.1 103.5,55.5 319.9,65.4 362.7,154 284.7,227.9 111.7,244.3 					"/>
					<path class="st4" d="M76,199.2c0-3-2.4-5.4-5.4-5.4s-5.4,2.4-5.4,5.4s2.4,5.4,5.4,5.4l0,0C73.6,204.6,76,202.1,76,199.2"/>
					<path class="st4" d="M67.8,114.1c0-3-2.4-5.4-5.4-5.4s-5.4,2.4-5.4,5.4s2.4,5.4,5.4,5.4l0,0C65.4,119.5,67.8,117.1,67.8,114.1"
						/>
					<path class="st4" d="M108.9,55.5c0-3-2.4-5.4-5.4-5.4s-5.4,2.4-5.4,5.4s2.4,5.4,5.4,5.4l0,0C106.4,60.9,108.9,58.5,108.9,55.5
						L108.9,55.5"/>
					<path class="st4" d="M216.9,60.4c0-3-2.4-5.4-5.4-5.4s-5.4,2.4-5.4,5.4s2.4,5.4,5.4,5.4l0,0C214.5,65.8,216.9,63.4,216.9,60.4"
						/>
					<path class="st4" d="M131.7,134.6c0-3-2.4-5.4-5.4-5.4s-5.4,2.4-5.4,5.4s2.4,5.4,5.4,5.4l0,0
						C129.3,140,131.7,137.6,131.7,134.6"/>
					<path class="st4" d="M368.1,154c0-3-2.4-5.4-5.4-5.4s-5.4,2.4-5.4,5.4s2.4,5.4,5.4,5.4S368.1,157,368.1,154L368.1,154"/>
					<path class="st4" d="M290.1,227.9c0-3-2.4-5.4-5.4-5.4s-5.4,2.4-5.4,5.4s2.4,5.4,5.4,5.4l0,0
						C287.7,233.3,290.1,230.9,290.1,227.9"/>
					<path class="st4" d="M325.3,65.4c0-3-2.4-5.4-5.4-5.4s-5.4,2.4-5.4,5.4s2.4,5.4,5.4,5.4l0,0C322.9,70.8,325.3,68.4,325.3,65.4"
						/>
					<path class="st4" d="M239.7,171.6c0-3-2.4-5.4-5.4-5.4s-5.4,2.4-5.4,5.4s2.4,5.4,5.4,5.4l0,0
						C237.2,177,239.7,174.6,239.7,171.6"/>
					<path class="st4" d="M270.1,152.3c0-3-2.4-5.4-5.4-5.4s-5.4,2.4-5.4,5.4s2.4,5.4,5.4,5.4l0,0
						C267.7,157.7,270.1,155.3,270.1,152.3"/>
					<path class="st4" d="M117.1,244.3c0-3-2.4-5.4-5.4-5.4s-5.4,2.4-5.4,5.4s2.4,5.4,5.4,5.4l0,0
						C114.7,249.7,117.1,247.3,117.1,244.3L117.1,244.3"/>
					<path class="st4" d="M190.8,110.2c0-3-2.4-5.4-5.4-5.4s-5.4,2.4-5.4,5.4s2.4,5.4,5.4,5.4l0,0
						C188.4,115.6,190.8,113.2,190.8,110.2"/>
					<path class="st4" d="M181.8,210.5c0-3-2.4-5.4-5.4-5.4s-5.4,2.4-5.4,5.4s2.4,5.4,5.4,5.4C179.4,215.9,181.8,213.5,181.8,210.5
						L181.8,210.5"/>
				</g>
			</g>
		</g>
	</g>
</g>
<line class="st3" x1="0" y1="254.3" x2="453" y2="210.7"/>
<line class="st3" x1="0" y1="114.4" x2="160.2" y2="303.9"/>
<line class="st3" x1="77.5" y1="299" x2="52.1" y2="-4.1"/>
<line class="st3" x1="141.5" y1="0" x2="0" y2="196.2"/>
<line class="st3" x1="0" y1="52.5" x2="453" y2="70"/>
<line class="st3" x1="287.2" y1="0" x2="433.8" y2="299"/>
<line class="st3" x1="453" y1="70" x2="213.5" y2="296.7"/>
</svg>
