<svg xmlns="http://www.w3.org/2000/svg" xmlns:xlink="http://www.w3.org/1999/xlink" viewBox="0 0 423.73 153.46"><defs><style>.cls-1,.cls-2,.cls-5,.cls-6,.cls-7{fill:none;}.cls-2{stroke:#00aeef;stroke-width:0.8px;}.cls-2,.cls-6,.cls-7{stroke-miterlimit:3.86;}.cls-3,.cls-8{font-size:8px;}.cls-3,.cls-4,.cls-8{fill:#231f20;}.cls-3{font-family:TimesNewRomanPSMT, Times New Roman;}.cls-5,.cls-6{stroke:#231f20;}.cls-5{stroke-linecap:round;stroke-linejoin:round;}.cls-5,.cls-6,.cls-7{stroke-width:0.5px;}.cls-7{stroke:#fff;}.cls-8{font-family:TimesNewRomanPS-BoldMT, Times New Roman;font-weight:700;}.cls-9{clip-path:url(#clip-path);}</style><clipPath id="clip-path"><rect class="cls-1" width="423.73" height="151.96"/></clipPath></defs><g id="Layer_2" data-name="Layer 2"><g id="Layer_1-2" data-name="Layer 1"><path class="cls-2" d="M253.46,109.08c-8.72-3.44-20.84-5.57-34.42-5.57-4.48,0-8.82.14-12.95.41"/><text class="cls-3" transform="translate(257.76 135.6)">y</text><polyline class="cls-4" points="251.85 129.81 255.71 130.45 253.91 126.98 254.01 129.22"/><path class="cls-5" d="M243.7,121.59l10.94,8.1m-43.2-32,43.2,32"/><line class="cls-6" x1="421.79" y1="92.88" x2="318.24" y2="114.76"/><path class="cls-7" d="M367.91,100.74q2.19.08,4.44.09m8.35-.16c14.88-.72,27.67-3.76,35.26-7.85M90,36.8s-15.43,6.83-42.75,6.83c-26,0-31.87-6.61-31.87-9.19s5.51-9,33.6-9c29.5,0,63,9.73,63,28.65,0,19.65-35,28.19-62.88,28.19S15.4,75.45,15.4,72,20,61.49,51.29,61.49,112,73.41,112,89.58c0,14.42-27.92,26.7-55.24,28.08-30.15,1.53-41.06-4.62-41.06-8.89s8-7.4,26.48-9.4M169.86,82.73c0,8.55,22,13.24,49.18,13.24s48.47-8.76,48.47-16.7m-97.65-7.33c0,8.54,22,13.23,49.18,13.23s48.47-8.75,48.47-16.7m-97.65-7.33c0,8.55,22,13.24,49.18,13.24s48.47-8.76,48.47-16.7m-97.65-7.33c0,8.55,22,13.23,49.18,13.23s48.47-8.75,48.47-16.69m-97.65-7.34c0,8.55,22,13.24,49.18,13.24s48.47-10.18,48.47-20.57M169.86,93.53c0,8.54,22,13.23,49.18,13.23s48.47-8.75,48.47-16.7m-97.65,14.26c0,8.55,22,13.24,49.18,13.24s48.47-8.76,48.47-16.7m-97.65,14.26c0,8.54,22,13.23,49.18,13.23s48.47-8.75,48.47-16.7M205,104c-20.34,1.45-35.17,5.94-35.17,11.13m97.65-3.47c0-10.38-21.31-18.94-48.47-18.94s-49.18,5.3-49.18,11.61m97.65-3.46c0-10.39-21.31-18.94-48.47-18.94s-49.18,5.29-49.18,11.61m97.65-3.47c0-10.38-21.31-18.94-48.47-18.94s-49.18,5.3-49.18,11.61m97.65-3.46c0-10.39-21.31-18.94-48.47-18.94s-49.18,5.29-49.18,11.61m97.65-3.47c0-10.38-21.31-18.94-48.47-18.94s-49.18,5.3-49.18,11.61m97.65-3.46c0-10.39-21.31-18.94-48.47-18.94S169.86,44,169.86,50.35m97.65-3.46c0-10.39-21.31-18.95-48.47-18.95s-49.18,5.3-49.18,11.61m97.65-7.33c0-8.55-21.31-15.48-48.47-15.48-22.24,0-42,3.4-48.06,9.78m252.35,43.6c0-4.64-22.11-13.92-49.38-13.92s-49.38,6-49.38,10.85M356,104.93c-18.37,1.93-31.38,6.67-31.38,11.81,0,6.72,22,12,49.28,12s49.48-7,49.48-15.66c0-4.6-10.38-10.25-25.68-13.35m-9.33-1.48A124.47,124.47,0,0,0,374,97.39c-27.27,0-49.38,6-49.38,12.73s22,11.51,49.28,11.51,49.48-7,49.48-15.66c0-3-4.47-6.48-11.87-9.39m-5.3-1.83A114.1,114.1,0,0,0,374,90.31c-27.27,0-49.38,6-49.38,12.73s22,11.52,49.28,11.52,49.48-7.82,49.48-16.45c0-6.71-22.11-14.06-49.38-14.06s-49.38,5.37-49.38,12.08,22,11.52,49.28,11.52,49.48-7.82,49.48-16.45c0-6.71-22.11-14.77-49.38-14.77S324.57,81.26,324.57,88c0,6.22,18.88,12,43.34,12.77m4.44.09h1.5c2.32,0,4.61-.06,6.85-.17M416,92.82c4.67-2.51,7.37-5.42,7.37-8.43,0-6.71-22.11-14.77-49.38-14.77s-49.38,4.83-49.38,11.54,22,12.72,49.28,12.72,49.48-7.82,49.48-16.45c0-6.71-22.11-14.77-49.38-14.77s-49.38,4.83-49.38,11.54v-.35c0,6.71,22,12.72,49.28,12.72s49.48-7.82,49.48-16.45c0-4.64-22.11-13.92-49.38-13.92s-49.38,6-49.38,10.85c0,6.71,22,12.87,49.28,12.87s49.48-7.82,49.48-16.45c0-6.71-22.11-14.76-49.38-14.76s-49.38,4.82-49.38,11.53S346.58,73,373.85,73s49.48-7.82,49.48-16.45c0-6.71-22.11-14.76-49.38-14.76s-49.38,4.82-49.38,11.53S346.53,66,373.8,66s49.53-7.82,49.53-16.45c0-6.71-22.26-14.76-49.53-14.76s-49.23,4.82-49.23,11.53S346.53,59,373.8,59s49.53-7.82,49.53-16.45c0-6.71-22.13-14.29-49.4-14.29s-49.36,4.89-49.36,11.06c0,6.71,22,12.72,49.28,12.72s49.48-7.82,49.48-16.45c0-6.71-22.11-14.76-49.38-14.76s-49.38,4.82-49.38,11.53,21.91,12.16,49.18,12.16a144.57,144.57,0,0,0,26.5-2.77m-2.6,57.91c-2.94-.6-6.06-1.1-9.33-1.48m23.14-1.64q-2.44-1-5.3-1.83"/><path class="cls-2" d="M397.65,99.7c-2.94-.6-6.06-1.1-9.33-1.48m23.14-1.64q-2.44-1-5.3-1.83"/><polyline class="cls-4" points="319.25 112.76 316.19 115.2 319.98 116.19 318.25 114.76"/><text class="cls-3" transform="translate(310.91 117.6)">x</text><line class="cls-6" x1="362.03" y1="94.08" x2="408.36" y2="129.52"/><polyline class="cls-4" points="406.19 130.06 410.03 130.8 408.31 127.28 408.36 129.52"/><text class="cls-3" transform="translate(412.19 135.6)">y</text><path class="cls-6" d="M373.79,45.85V43.4m0,10V51m0,9.41V57.86m0,9.41V64.82m0,9.49V71.86m0,9.34V78.67m0,9.41V85.4m0,9.49v-2.3m0,9.34v-2.6"/><text class="cls-8" transform="translate(8.77 149.9)">r</text><text class="cls-3" transform="translate(12.33 149.9)">(</text><text class="cls-3" transform="translate(14.99 149.9)">t</text><text class="cls-3" transform="translate(17.21 149.9)">)</text><text class="cls-3" transform="translate(21.88 149.9)">=</text><text class="cls-3" transform="translate(28.54 149.9)"><tspan xml:space="preserve"> (cos </tspan></text><text class="cls-3" transform="translate(45.87 149.9)">t</text><text class="cls-3" transform="translate(48.1 149.9)">)</text><text class="cls-8" transform="translate(51.16 149.9)">i</text><text class="cls-3" transform="translate(55.38 149.9)">+</text><text class="cls-3" transform="translate(62.05 149.9)"><tspan xml:space="preserve"> (sin </tspan></text><text class="cls-3" transform="translate(78.05 149.9)">t</text><text class="cls-3" transform="translate(80.27 149.9)">)</text><text class="cls-8" transform="translate(83.33 149.9)">j</text><text class="cls-3" transform="translate(88 149.9)">+</text><text class="cls-3" transform="translate(96.66 149.9)">t</text><text class="cls-8" transform="translate(99.49 149.9)">k</text><line class="cls-6" x1="51.82" y1="93.36" x2="92.86" y2="124.49"/><polyline class="cls-4" points="90.69 125.04 94.54 125.76 92.81 122.25 92.86 124.49"/><text class="cls-3" transform="translate(0.22 116.64)">x</text><text class="cls-3" transform="translate(62.14 7.44)">z</text><text class="cls-3" transform="translate(96.7 130.56)">y</text><path class="cls-6" d="M63.58,113.28V68.46m0-11.45V40.18"/><polyline class="cls-4" points="65.33 12.62 63.58 9.12 61.83 12.62 63.58 11.22"/><line class="cls-6" x1="109.18" y1="92.16" x2="7.55" y2="113.8"/><polyline class="cls-4" points="8.55 111.8 5.5 114.24 9.28 115.22 7.55 113.8"/><text class="cls-8" transform="translate(315.54 150.83)">r</text><g class="cls-9"><text class="cls-3" transform="translate(319.49 150.83)">(</text></g><text class="cls-3" transform="translate(322.16 150.83)">t</text><g class="cls-9"><text class="cls-3" transform="translate(324.38 150.83)">)</text></g><text class="cls-3" transform="translate(329.04 150.83)">=</text><text class="cls-3" transform="translate(335.71 150.83)"> </text><g class="cls-9"><text class="cls-3" transform="translate(337.71 150.83)">(</text></g><text class="cls-3" transform="translate(340.37 150.83)">cos 5</text><text class="cls-3" transform="translate(357.04 150.83)">t</text><g class="cls-9"><text class="cls-3" transform="translate(359.26 150.83)">)</text></g><text class="cls-8" transform="translate(362.32 150.83)">i</text><text class="cls-3" transform="translate(366.55 150.83)">+</text><text class="cls-3" transform="translate(373.21 150.83)"> </text><g class="cls-9"><text class="cls-3" transform="translate(375.21 150.83)">(</text></g><text class="cls-3" transform="translate(377.88 150.83)">sin 5</text><text class="cls-3" transform="translate(393.21 150.83)">t</text><text class="cls-3" transform="translate(395.44 150.83)">)</text><text class="cls-8" transform="translate(398.5 150.83)">j</text><rect class="cls-1" width="423.73" height="151.96"/><text class="cls-3" transform="translate(403.16 150.83)">+</text><text class="cls-3" transform="translate(411.83 150.83)">t</text><text class="cls-8" transform="translate(414.65 150.83)">k</text><path class="cls-2" d="M356,104.93c-18.37,1.93-31.38,6.67-31.38,11.81,0,6.72,22,12,49.28,12s49.48-7,49.48-15.66c0-4.6-10.38-10.25-25.68-13.35m-9.33-1.48A124.47,124.47,0,0,0,374,97.39c-27.27,0-49.38,6-49.38,12.73s22,11.51,49.28,11.51,49.48-7,49.48-15.66c0-3-4.47-6.48-11.87-9.39m-5.3-1.83A113.74,113.74,0,0,0,374,90.31c-27.27,0-49.38,6-49.38,12.73s22,11.52,49.28,11.52,49.48-7.82,49.48-16.45c0-6.71-22.11-14.06-49.38-14.06s-49.38,5.37-49.38,12.08,22,11.52,49.28,11.52,49.48-7.82,49.48-16.45c0-6.71-22.11-14.77-49.38-14.77S324.57,81.26,324.57,88c0,6.22,18.88,12,43.34,12.77m4.44.09h1.5c2.32,0,4.61-.06,6.85-.17M416,92.82c4.67-2.51,7.37-5.42,7.37-8.43,0-6.71-22.11-14.77-49.38-14.77s-49.38,4.83-49.38,11.54,22,12.72,49.28,12.72,49.48-7.82,49.48-16.45c0-6.71-22.11-14.77-49.38-14.77s-49.38,4.83-49.38,11.54v-.35c0,6.71,22,12.72,49.28,12.72s49.48-7.82,49.48-16.45c0-4.64-22.11-13.92-49.38-13.92s-49.38,6-49.38,10.85c0,6.71,22,12.87,49.28,12.87s49.48-7.82,49.48-16.45c0-6.71-22.11-14.77-49.38-14.77s-49.38,4.83-49.38,11.54S346.58,73,373.85,73s49.48-7.82,49.48-16.45c0-6.71-22.11-14.77-49.38-14.77s-49.38,4.83-49.38,11.54S346.53,66,373.8,66s49.53-7.82,49.53-16.45c0-6.71-22.26-14.77-49.53-14.77s-49.23,4.83-49.23,11.54S346.53,59,373.8,59s49.53-7.82,49.53-16.45c0-6.71-22.13-14.29-49.4-14.29s-49.36,4.89-49.36,11.06c0,6.71,22,12.72,49.28,12.72s49.48-7.82,49.48-16.45c0-6.71-22.11-14.77-49.38-14.77s-49.38,4.83-49.38,11.54,21.91,12.15,49.18,12.15a144.59,144.59,0,0,0,26.5-2.76"/><text class="cls-3" transform="translate(372.11 8.4)">z</text><line class="cls-6" x1="373.79" y1="43.92" x2="373.79" y2="12.18"/><polyline class="cls-4" points="375.54 13.58 373.79 10.08 372.04 13.58 373.79 12.18"/><path class="cls-6" d="M373.79,107v-5.11m0-2.6V94.89m0-2.3V88.08m0-2.68V81.2m0-2.53V74.31m0-2.45V67.27m0-2.45V60.38m0-2.52V53.42m0-2.44V45.85m0-2.45V11.89"/><path class="cls-2" d="M423.33,70.12c0-4.64-22.11-13.92-49.38-13.92s-49.38,6-49.38,10.85"/><text class="cls-8" transform="translate(159.26 150.55)">r</text><text class="cls-3" transform="translate(162.81 150.55)">(</text><text class="cls-3" transform="translate(165.47 150.55)">t</text><text class="cls-3" transform="translate(167.7 150.55)">)</text><text class="cls-3" transform="translate(172.36 150.55)">=</text><text class="cls-3" transform="translate(179.03 150.55)"><tspan xml:space="preserve"> (cos </tspan></text><text class="cls-3" transform="translate(196.35 150.55)">t</text><text class="cls-3" transform="translate(198.58 150.55)">)</text><text class="cls-8" transform="translate(201.64 150.55)">i</text><text class="cls-3" transform="translate(205.87 150.55)">+</text><text class="cls-3" transform="translate(212.53 150.55)"><tspan xml:space="preserve"> (sin </tspan></text><text class="cls-3" transform="translate(228.53 150.55)">t</text><text class="cls-3" transform="translate(230.75 150.55)">)</text><text class="cls-8" transform="translate(233.82 150.55)">j</text><text class="cls-3" transform="translate(238.48 150.55)">+</text><text class="cls-3" transform="translate(245.14 150.55)"><tspan xml:space="preserve"> 0.3</tspan></text><text class="cls-3" transform="translate(257.14 150.55)">t</text><text class="cls-8" transform="translate(259.97 150.55)">k</text><path class="cls-2" d="M206.09,103.92c-20.88,1.36-36.23,5.92-36.23,11.2m97.65-3.47c0-10.38-21.31-18.94-48.47-18.94s-49.18,5.3-49.18,11.61m97.65-3.46c0-10.39-21.31-18.94-48.47-18.94s-49.18,5.29-49.18,11.61m97.65-3.47c0-10.38-21.31-18.94-48.47-18.94s-49.18,5.3-49.18,11.61m97.65-3.46c0-10.39-21.31-18.94-48.47-18.94s-49.18,5.29-49.18,11.6m97.65-3.46c0-10.38-21.31-18.94-48.47-18.94s-49.18,5.3-49.18,11.61m97.65-3.46c0-10.39-21.31-18.94-48.47-18.94S169.86,44,169.86,50.35m97.65-3.47c0-10.38-21.31-18.94-48.47-18.94s-49.18,5.3-49.18,11.61m97.65-7.33c0-8.55-21.31-15.48-48.47-15.48-22.24,0-42,3.4-48.06,9.78"/><text class="cls-3" transform="translate(155.76 117.6)">x</text><text class="cls-3" transform="translate(217.68 8.16)">z</text><line class="cls-6" x1="219.12" y1="113.87" x2="219.12" y2="12.18"/><polyline class="cls-4" points="220.87 13.58 219.12 10.08 217.37 13.58 219.12 12.18"/><polyline class="cls-4" points="164.11 112.77 161.04 115.2 164.83 116.2 163.1 114.77"/><path class="cls-2" d="M169.86,115.12c0,8.54,22,13.23,49.18,13.23s48.47-8.75,48.47-16.7"/><path class="cls-6" d="M262.8,93.84,171.75,113m0,0-2.49.53m0,0-6.16,1.29"/><path class="cls-2" d="M169.86,104.32c0,8.55,22,13.24,49.18,13.24s48.47-8.76,48.47-16.7"/><path class="cls-7" d="M169.86,82.73c0,8.55,22,13.24,49.18,13.24s48.47-8.76,48.47-16.7m-97.65-7.33c0,8.54,22,13.23,49.18,13.23s48.47-8.75,48.47-16.7m-97.65-7.33c0,8.55,22,13.24,49.18,13.24s48.47-8.76,48.47-16.7m-97.65-7.33c0,8.55,22,13.23,49.18,13.23s48.47-8.75,48.47-16.7m-97.65-7.33c0,8.55,22,13.24,49.18,13.24s48.47-10.18,48.47-20.57M169.86,93.53c0,8.54,22,13.23,49.18,13.23s48.47-8.75,48.47-16.7"/><path class="cls-2" d="M169.86,82.73c0,8.55,22,13.24,49.18,13.24s48.47-8.76,48.47-16.7m-97.65-7.33c0,8.54,22,13.23,49.18,13.23s48.47-8.75,48.47-16.7m-97.65-7.33c0,8.55,22,13.24,49.18,13.24s48.47-8.76,48.47-16.7m-97.65-7.33c0,8.55,22,13.23,49.18,13.23s48.47-8.75,48.47-16.7m-97.65-7.33c0,8.55,22,13.24,49.18,13.24s48.47-10.18,48.47-20.57M169.86,93.53c0,8.54,22,13.23,49.18,13.23s48.47-8.75,48.47-16.7"/><path class="cls-7" d="M90,36.8s-15.43,6.83-42.75,6.83c-26,0-31.87-6.61-31.87-9.2s5.51-9,33.6-9c29.5,0,63,9.73,63,28.65,0,19.65-35,28.19-62.88,28.19S15.4,75.45,15.4,72,20,61.49,51.29,61.49,112,73.41,112,89.58c0,14.42-27.92,26.7-55.24,28.08-30.15,1.53-41.06-4.62-41.06-8.89s8-7.4,26.48-9.4"/><path class="cls-2" d="M90,36.8s-15.43,6.83-42.75,6.83c-26,0-31.87-6.61-31.87-9.2s5.51-9,33.6-9c29.5,0,63,9.73,63,28.65,0,19.65-35,28.19-62.88,28.19S15.4,75.45,15.4,72,20,61.49,51.29,61.49,112,73.41,112,89.58c0,14.42-27.92,26.7-55.24,28.08-30.15,1.53-41.06-4.62-41.06-8.89s8-7.4,26.48-9.4"/><path class="cls-6" d="M63.58,40.18v-29m0,57.24V57"/><path class="cls-2" d="M367.91,100.74q2.19.08,4.44.09m8.35-.16c14.88-.72,27.67-3.76,35.26-7.85"/></g></g></svg>