<svg xmlns="http://www.w3.org/2000/svg" xmlns:xlink="http://www.w3.org/1999/xlink" viewBox="0 0 138.57 106.97"><defs><style>.cls-1,.cls-2,.cls-4,.cls-6{fill:none;}.cls-2{stroke:#ed1c29;stroke-width:0.6px;}.cls-2,.cls-4{stroke-linejoin:round;}.cls-3{clip-path:url(#clip-path);}.cls-4{stroke:#0066b3;stroke-width:0.7px;}.cls-5{font-size:8px;font-family:TimesNewRomanPSMT, Times New Roman;}.cls-5,.cls-7{fill:#231f20;}.cls-6{stroke:#231f20;stroke-miterlimit:3.86;stroke-width:0.4px;}.cls-7{fill-rule:evenodd;}</style><clipPath id="clip-path" transform="translate(0 0.01)"><rect class="cls-1" width="138.56" height="108.21"/></clipPath></defs><g id="Layer_2" data-name="Layer 2"><g id="Layer_1-2" data-name="Layer 1"><polyline class="cls-2" points="86.13 51.32 87.93 47.12 83.63 28.62 70.53 21.67 60.83 28.92 66.83 41.92 79.03 51.79 98.03 54.52 120.03 40.42 131.53 21.92"/><g class="cls-3"><path class="cls-4" d="M87.33,51.41c2.2-8.3,1.3-16.5-3.8-23-11-14-34-5.5-16.5,14,25.3,28.2,55.3,4.2,64.5-20.5" transform="translate(0 0.01)"/><polyline class="cls-2" points="6.83 79.62 34.53 89.52 60.83 83.12 80.43 65.42 84.13 55.92"/><path class="cls-4" d="M7,79.91c33.3,23.2,68.9.5,78.71-23.7" transform="translate(0 0.01)"/></g><text class="cls-5" transform="translate(29.4 74.52)">0</text><g class="cls-3"><text class="cls-5" transform="translate(30.62 6.65)">z</text><text class="cls-5" transform="translate(0 104.52)">x</text></g><text class="cls-5" transform="translate(134.16 96)">y</text><g class="cls-3"><line class="cls-6" x1="36.33" y1="74.92" x2="135.39" y2="87.89"/><polygon class="cls-7" points="135.39 87.89 134.53 86.17 138.57 88.28 134.14 89.35 135.39 87.89"/><line class="cls-6" x1="36.33" y1="74.92" x2="36.33" y2="6.05"/><polygon class="cls-7" points="36.33 6.05 34.73 7.12 36.33 2.85 37.93 7.12 36.33 6.05"/><line class="cls-6" x1="36.33" y1="74.92" x2="8.75" y2="102.5"/><polygon class="cls-7" points="8.75 102.5 10.64 102.87 6.49 104.76 8.37 100.61 8.75 102.5"/></g></g></g></svg>