<?xml version="1.0" encoding="utf-8"?>
<!-- Generator: Adobe Illustrator 22.1.0, SVG Export Plug-In . SVG Version: 6.00 Build 0)  -->
<svg version="1.1" id="Layer_1" xmlns="http://www.w3.org/2000/svg" xmlns:xlink="http://www.w3.org/1999/xlink" x="0px" y="0px"
	 viewBox="0 0 108.3 128.5" enable-background="new 0 0 108.3 128.5" xml:space="preserve">
<g>
	<defs>
		<polyline id="SVGID_1_" points="-88.8,289.9 105.5,289.9 105.5,-155 -88.8,-155 		"/>
	</defs>
	<clipPath id="SVGID_2_">
		<use xlink:href="#SVGID_1_"  overflow="visible"/>
	</clipPath>
	<path clip-path="url(#SVGID_2_)" fill="none" stroke="#BFBFBF" stroke-width="0.3985" stroke-miterlimit="10" d="M105.5,148.2
		V-13.2 M73.1,148.2V-13.2 M40.8,148.2V-13.2 M8.4,148.2V-13.2 M-56.4,148.2V-13.2 M-88.8,148.2V-13.2"/>
</g>
<g>
	<defs>
		<polyline id="SVGID_3_" points="-230.5,148.2 -230.5,-13.2 247.3,-13.2 247.3,148.2 		"/>
	</defs>
	<clipPath id="SVGID_4_">
		<use xlink:href="#SVGID_3_"  overflow="visible"/>
	</clipPath>
	<path clip-path="url(#SVGID_4_)" fill="none" stroke="#BFBFBF" stroke-width="0.3985" stroke-miterlimit="10" d="M-57.9,13.7h163.4
		 M-88.8,13.7h30.8 M-88.8,121.3h194.3"/>
</g>
<g>
	<defs>
		<polyline id="SVGID_5_" points="-88.8,289.9 105.5,289.9 105.5,-155 -88.8,-155 		"/>
	</defs>
	<clipPath id="SVGID_6_">
		<use xlink:href="#SVGID_5_"  overflow="visible"/>
	</clipPath>
</g>
<g>
	<defs>
		<polyline id="SVGID_7_" points="-230.5,148.2 -230.5,-13.2 247.3,-13.2 247.3,148.2 		"/>
	</defs>
	<clipPath id="SVGID_8_">
		<use xlink:href="#SVGID_7_"  overflow="visible"/>
	</clipPath>
</g>
<line fill="none" stroke="#000000" stroke-miterlimit="10" x1="0.3" y1="67.5" x2="54.7" y2="67.5"/>
<g>
	<defs>
		<rect id="SVGID_9_" x="-88.8" y="-13.2" width="194.3" height="161.4"/>
	</defs>
	<clipPath id="SVGID_10_">
		<use xlink:href="#SVGID_9_"  overflow="visible"/>
	</clipPath>
</g>
<text transform="matrix(1 0 0 1 97.6057 76.307)" font-family="'TimesNewRomanPS-ItalicMT'" font-size="9.9626px">x</text>
<text transform="matrix(1 0 0 1 1.3253 8.5906)" font-family="'TimesNewRomanPS-ItalicMT'" font-size="9.9626px">y</text>
<path fill="none" stroke="#0000FF" stroke-width="1.5" stroke-miterlimit="10" d="M40.6,67.3"/>
<path fill="none" stroke="#0000FF" stroke-width="1.5" stroke-miterlimit="10" d="M-23.5,67.3"/>
<polyline fill="none" stroke="#0000FF" stroke-width="0.797" stroke-miterlimit="10" points="18.5,71.9 18.6,71.8 18.6,71.8 "/>
<polyline fill="none" stroke="#0000FF" stroke-width="0.797" stroke-miterlimit="10" points="18.5,71.9 18.6,71.8 18.6,71.8 "/>
<g>
	<path fill="none" d="M40.8,121.8"/>
</g>
<g>
	<path fill="none" d="M40.8,68.1"/>
</g>
<g>
	<path fill="none" d="M40.6,121.4"/>
</g>
<g>
	<path fill="none" d="M-23.8,67.7"/>
</g>
<path fill="none" stroke="#00FF00" stroke-width="1.5" stroke-miterlimit="10" d="M-44.7,85.3"/>
<path fill="none" stroke="#00FF00" stroke-width="1.5" stroke-miterlimit="10" d="M-14.1,90.5"/>
<polyline fill="none" stroke="#000000" stroke-miterlimit="10" points="8.5,-11.5 8.5,45.3 8.5,42.3 8.5,146.9 "/>
<line fill="none" stroke="#BFBFBF" stroke-width="0.3985" stroke-miterlimit="10" x1="-24.3" y1="149.3" x2="-24.3" y2="-12.1"/>
<path fill="none" stroke="#00FF00" stroke-miterlimit="10" d="M55,67"/>
<path fill="none" stroke="#00FF00" stroke-miterlimit="10" d="M3.6,67"/>
<path fill="none" stroke="#00FF00" stroke-miterlimit="10" d="M-3.9,67"/>
<path fill="none" stroke="#00FF00" stroke-miterlimit="10" d="M-11.1,67"/>
<path fill="none" stroke="#00FF00" stroke-miterlimit="10" d="M-19.5,67"/>
<path fill="none" stroke="#00FF00" stroke-miterlimit="10" d="M-25.1,67"/>
<line fill="none" stroke="#00FF00" stroke-miterlimit="10" x1="-37.1" y1="67" x2="-36.1" y2="67"/>
<linearGradient id="SVGID_11_" gradientUnits="userSpaceOnUse" x1="-30.3957" y1="11.99" x2="46.5506" y2="11.99" gradientTransform="matrix(0 1 -1 0 76.8583 60.0527)">
	<stop  offset="0.1103" style="stop-color:#FFFFFF"/>
	<stop  offset="0.9609" style="stop-color:#000000"/>
</linearGradient>
<path fill="url(#SVGID_11_)" stroke="#000000" stroke-miterlimit="10" d="M73.2,29.8c0.8,0,1.4,17.1,1.4,38.3s-0.6,38.3-1.4,38.3
	l0.2-0.1H56.6l0,0.4c-0.8,0-1.4-17.1-1.4-38.3s0.6-38.3,1.4-38.3l-0.1-0.4h17"/>
<line fill="none" stroke="#00FF00" stroke-miterlimit="10" x1="8.8" y1="67" x2="73.5" y2="14.3"/>
<line fill="none" stroke="#00FF00" stroke-miterlimit="10" x1="8.8" y1="67.3" x2="73.2" y2="121.3"/>
<ellipse fill="#FFFFFF" stroke="#000000" stroke-miterlimit="10" cx="73.7" cy="68.3" rx="2.1" ry="39"/>
<line fill="none" stroke="#000000" stroke-miterlimit="10" x1="71.6" y1="67.5" x2="105.5" y2="67.5"/>
<line fill="none" stroke="#00FF00" stroke-miterlimit="10" x1="72.9" y1="14.3" x2="72.9" y2="28.9"/>
<line fill="none" stroke="#00FF00" stroke-miterlimit="10" x1="73.2" y1="107.3" x2="72.9" y2="121.6"/>
</svg>
