<?xml version="1.0" encoding="utf-8"?>
<!-- Generator: Adobe Illustrator 19.1.0, SVG Export Plug-In . SVG Version: 6.00 Build 0)  -->
<svg version="1.1" xmlns="http://www.w3.org/2000/svg" xmlns:xlink="http://www.w3.org/1999/xlink" x="0px" y="0px"
	 viewBox="0 0 106.4 86.5" enable-background="new 0 0 106.4 86.5" xml:space="preserve">
<g id="Layer_1">
	
		<rect x="10.7" y="21.4" fill="#69C1FA" stroke="#000000" stroke-width="0.398" stroke-miterlimit="10" width="64.8" height="54.1"/>
	<g>
		<defs>
			<polyline id="SVGID_1_" points="-54.1,190 140.2,190 140.2,-254.9 -54.1,-254.9 			"/>
		</defs>
		<clipPath id="SVGID_2_">
			<use xlink:href="#SVGID_1_"  overflow="visible"/>
		</clipPath>
		<path clip-path="url(#SVGID_2_)" fill="none" stroke="#BFBFBF" stroke-width="0.3985" stroke-miterlimit="10" d="M140.2,48.3
			v-161.4 M107.8,95.6V-37.2 M75.4,96.3v-209.4 M43,96.3V-46.6 M-21.7,192v-305.1 M-54.1,229.9v-343 M43-46.6v-66.5 M107.8-37.2v-76
			"/>
	</g>
	<g>
		<defs>
			<polyline id="SVGID_3_" points="-195.8,48.3 -195.8,-113.1 281.9,-113.1 281.9,48.3 			"/>
		</defs>
		<clipPath id="SVGID_4_">
			<use xlink:href="#SVGID_3_"  overflow="visible"/>
		</clipPath>
		<path clip-path="url(#SVGID_4_)" fill="none" stroke="#BFBFBF" stroke-width="0.3985" stroke-miterlimit="10" d="M-54.1-86.2
			h363.4 M-54.1,21.4h323.3"/>
	</g>
	<g>
		<defs>
			<line id="SVGID_5_" x1="152" y1="-253.1" x2="-42.3" y2="-253.1"/>
		</defs>
		<defs>
			<line id="SVGID_6_" x1="-42.3" y1="191.8" x2="152" y2="191.8"/>
		</defs>
		<clipPath id="SVGID_7_">
			<use xlink:href="#SVGID_5_"  overflow="visible"/>
		</clipPath>
		<clipPath id="SVGID_8_" clip-path="url(#SVGID_7_)">
			<use xlink:href="#SVGID_6_"  overflow="visible"/>
		</clipPath>
	</g>
	<g>
		<defs>
			<polyline id="SVGID_9_" points="-184,50 -184,-111.3 293.7,-111.3 293.7,50 			"/>
		</defs>
		<clipPath id="SVGID_10_">
			<use xlink:href="#SVGID_9_"  overflow="visible"/>
		</clipPath>
	</g>
	<line fill="none" stroke="#000000" stroke-miterlimit="10" x1="10.7" y1="144.3" x2="10.7" y2="-113.1"/>
	<text transform="matrix(1 0 0 1 100.8106 73.0325)" font-family="'cmmi10'" font-size="9.9626px">x</text>
	<text transform="matrix(1 0 0 1 13.2194 5.463)" font-family="'cmmi10'" font-size="9.9626px">y</text>
	<path fill="none" stroke="#0000FF" stroke-width="1.5" stroke-miterlimit="10" d="M87.1-30.8"/>
	<path fill="none" stroke="#0000FF" stroke-width="1.5" stroke-miterlimit="10" d="M22.9-30.8"/>
	<polyline fill="none" stroke="#0000FF" stroke-width="0.797" stroke-miterlimit="10" points="65,-26.2 65.1,-26.3 65.1,-26.4 	"/>
	<polyline fill="none" stroke="#0000FF" stroke-width="0.797" stroke-miterlimit="10" points="65,-26.2 65.1,-26.3 65.1,-26.4 	"/>
	<g>
		<path fill="none" d="M75.5,21.9"/>
	</g>
	<g>
		<path fill="none" d="M87.3-30.1"/>
	</g>
	<g>
		<path fill="none" d="M75.3,21.5"/>
	</g>
	<g>
		<path fill="none" d="M22.7-30.5"/>
	</g>
	<line fill="none" stroke="#BFBFBF" stroke-width="0.3985" stroke-miterlimit="10" x1="184.5" y1="91.9" x2="184.5" y2="-35.7"/>
	<line fill="none" stroke="#BFBFBF" stroke-width="0.3985" stroke-miterlimit="10" x1="248.8" y1="50.4" x2="248.8" y2="-111"/>
	<line fill="none" stroke="#BFBFBF" stroke-width="0.3985" stroke-miterlimit="10" x1="216.5" y1="89.9" x2="216.5" y2="-39"/>
	<path fill="none" stroke="#BFBFBF" stroke-width="0.3985" stroke-miterlimit="10" d="M184.1-111"/>
	<path fill="none" stroke="#BFBFBF" stroke-width="0.3985" stroke-miterlimit="10" d="M184.1,50.4"/>
	<path fill="none" stroke="#BFBFBF" stroke-width="0.3985" stroke-miterlimit="10" d="M119.3-111"/>
	<path fill="none" stroke="#BFBFBF" stroke-width="0.3985" stroke-miterlimit="10" d="M107.5,48.6"/>
	<path fill="none" d="M87,129.8"/>
	<path fill="none" d="M87-3.3"/>
	<line fill="none" stroke="#BFBFBF" stroke-width="0.3985" stroke-miterlimit="10" x1="280.2" y1="51.3" x2="280.2" y2="-110.1"/>
	<line fill="none" stroke="#BFBFBF" stroke-width="0.3985" stroke-miterlimit="10" x1="248.6" y1="91.9" x2="248.6" y2="-45.5"/>
	<line fill="none" x1="280.7" y1="-110.1" x2="280.7" y2="51.3"/>
	<path fill="none" stroke="#000000" stroke-width="0.3" stroke-miterlimit="10" d="M54.7-44"/>
	<path fill="none" stroke="#000000" stroke-miterlimit="10" stroke-dasharray="6" d="M151.9-34.1"/>
	<line fill="none" stroke="#BFBFBF" stroke-width="0.3985" stroke-miterlimit="10" x1="184.5" y1="-35.7" x2="184.5" y2="-111.1"/>
	<line fill="none" stroke="#BFBFBF" stroke-width="0.3985" stroke-miterlimit="10" x1="216.5" y1="-39" x2="216.5" y2="-111"/>
	<line fill="none" x1="86.9" y1="-111" x2="86.9" y2="-37.7"/>
	<line fill="none" stroke="#BFBFBF" stroke-width="0.3985" stroke-miterlimit="10" x1="248.6" y1="-45.5" x2="248.6" y2="-110.5"/>
	<line fill="none" stroke="#BFBFBF" stroke-width="0.3985" stroke-miterlimit="10" x1="119.5" y1="-35.5" x2="119.5" y2="-110.9"/>
	<line fill="none" stroke="#BFBFBF" stroke-width="0.3985" stroke-miterlimit="10" x1="87.2" y1="-38" x2="87.2" y2="-110.1"/>
	<line fill="none" stroke="#BFBFBF" stroke-width="0.3985" stroke-miterlimit="10" x1="152" y1="-35.5" x2="152.2" y2="-110.2"/>
	<g>
		<defs>
			<polyline id="SVGID_11_" points="-208.6,102.4 -208.6,-59 269.2,-59 269.2,102.4 			"/>
		</defs>
		<clipPath id="SVGID_12_">
			<use xlink:href="#SVGID_11_"  overflow="visible"/>
		</clipPath>
		<path clip-path="url(#SVGID_12_)" fill="none" stroke="#BFBFBF" stroke-width="0.3985" stroke-miterlimit="10" d="M-66.8-32.1
			h363.4 M-66.8,75.5h230.9"/>
	</g>
	<line fill="none" stroke="#000000" stroke-miterlimit="10" x1="-64.5" y1="75.5" x2="300.5" y2="75.5"/>
	<line fill="none" stroke="#BFBFBF" stroke-width="0.3985" stroke-miterlimit="10" x1="151.9" y1="106.4" x2="151.9" y2="-26.4"/>
	<line fill="none" stroke="#BFBFBF" stroke-width="0.398" stroke-miterlimit="10" x1="-42.3" y1="-3.3" x2="237.9" y2="-3.3"/>
	<line fill="none" stroke="#BFBFBF" stroke-width="0.398" stroke-miterlimit="10" x1="-54.1" y1="49.5" x2="226" y2="49.5"/>
	<line fill="none" stroke="#BFBFBF" stroke-width="0.398" stroke-miterlimit="10" x1="-42.3" y1="-57.2" x2="237.9" y2="-57.2"/>
	<text transform="matrix(1 0 0 1 73.296 86.5326)" font-family="'cmr10'" font-size="9.9626px">1</text>
	<text transform="matrix(1 0 0 1 3.7832 23.7005)" font-family="'cmr10'" font-size="9.9626px">1</text>
</g>
<g id="Layer_2">
	<polygon fill="#FFFF00" points="11.1,75.5 42.4,50.9 76,21.7 11.1,21.7 	"/>
	<path fill="#FFFF00" stroke="#000000" stroke-miterlimit="10" d="M75.9,21.5c-3.1,7.9-13.1,25.6-33.2,41.2
		c-11.4,8.8-24.3,13-32.5,13"/>
</g>
</svg>
