<?xml version="1.0" encoding="utf-8"?>
<!-- Generator: Adobe Illustrator 22.1.0, SVG Export Plug-In . SVG Version: 6.00 Build 0)  -->
<svg version="1.1" id="Layer_1" xmlns="http://www.w3.org/2000/svg" xmlns:xlink="http://www.w3.org/1999/xlink" x="0px" y="0px"
	 viewBox="0 0 395.3 314.1" enable-background="new 0 0 395.3 314.1" xml:space="preserve">
<line opacity="0.8" fill="none" stroke="#000000" stroke-width="2" stroke-miterlimit="10" x1="38.6" y1="5.9" x2="38.6" y2="423.9"/>
<path fill="none" stroke="#000000" stroke-width="2" stroke-miterlimit="10" d="M580.6,233.9"/>
<line fill="none" stroke="#000000" stroke-width="2" stroke-miterlimit="10" x1="-6.4" y1="233.9" x2="394.6" y2="233.9"/>
<path fill="none" stroke="#000000" stroke-miterlimit="10" d="M38.7,243.5"/>
<path fill="none" stroke="#000000" stroke-miterlimit="10" d="M359.8,410.2"/>
<path fill="none" stroke="#000000" stroke-miterlimit="10" d="M39.5,245.9"/>
<path fill="none" stroke="#000000" stroke-miterlimit="10" d="M394,52.4"/>
<path fill="none" stroke="#000000" stroke-miterlimit="10" d="M38.7,242.7"/>
<g>
	<path fill="none" d="M38.7,244.3"/>
</g>
<text transform="matrix(1 0 0 1 144.1646 267.2322)" font-family="'TimesNewRomanPS-ItalicMT'" font-size="36px">a</text>
<text transform="matrix(1 0 0 1 292.0111 267.0825)" font-family="'TimesNewRomanPS-ItalicMT'" font-size="36px">a</text>
<text transform="matrix(1 0 0 1 156.3593 279.427)" font-family="'TimesNewRomanPSMT'" font-size="48px">/</text>
<text transform="matrix(1 0 0 1 163.6763 289.1831)" font-family="'TimesNewRomanPSMT'" font-size="36px">2</text>
<text transform="matrix(1 0 0 1 47.6006 30.1321)" font-family="'TimesNewRomanPS-ItalicMT'" font-size="36px">y</text>
<text transform="matrix(1 0 0 1 379.737 262.9529)" font-family="'TimesNewRomanPS-ItalicMT'" font-size="36px">x</text>
<line fill="none" stroke="#00FF00" stroke-width="3" stroke-miterlimit="10" x1="38.6" y1="232.4" x2="301.6" y2="232.4"/>
<line fill="none" stroke="#00FF00" stroke-width="3" stroke-miterlimit="10" x1="37.3" y1="235.3" x2="168.8" y2="7.5"/>
<line fill="none" stroke="#00FF00" stroke-width="3" stroke-miterlimit="10" x1="299.8" y1="233.3" x2="168.3" y2="5.5"/>
</svg>
