<?xml version="1.0" encoding="utf-8"?>
<!-- Generator: Adobe Illustrator 22.1.0, SVG Export Plug-In . SVG Version: 6.00 Build 0)  -->
<svg version="1.1" id="Layer_1" xmlns="http://www.w3.org/2000/svg" xmlns:xlink="http://www.w3.org/1999/xlink" x="0px" y="0px"
	 viewBox="0 0 518.8 229.2" style="enable-background:new 0 0 518.8 229.2;" xml:space="preserve">
<style type="text/css">
	.st0{clip-path:url(#SVGID_2_);}
	.st1{fill:none;stroke:#3821FF;stroke-width:2;stroke-linecap:square;stroke-miterlimit:3.25;}
	.st2{fill:none;stroke:#666666;stroke-width:0.8;stroke-miterlimit:3.25;}
	.st3{fill:none;stroke:#666666;stroke-width:0.2;stroke-miterlimit:3.25;}
	.st4{font-family:'TimesNewRomanPS-ItalicMT';}
	.st5{font-size:24px;}
	.st6{font-family:'TimesNewRomanPSMT';}
	.st7{font-size:18px;}
	.st8{clip-path:url(#SVGID_4_);}
</style>
<g id="surface4">
	<g>
		<defs>
			<rect id="SVGID_1_" x="19.4" y="21.8" width="349" height="213"/>
		</defs>
		<clipPath id="SVGID_2_">
			<use xlink:href="#SVGID_1_"  style="overflow:visible;"/>
		</clipPath>
		<g class="st0">
			<path class="st1" d="M194.1,180.5l2.3-1.8l7-6l7.1-6.8l6.6-6.9l7-8l6.5-8l6.6-8.8l7.1-10.1l6.5-9.9l7-11.3l7.1-12.2l6.6-11.9
				l7.1-13.4l6.5-13l6.6-13.8l7.1-15.5l3.3-7.4l1.6-3.7l1.2-2.8l0.2-0.5l0.1-0.2l0.1-0.2"/>
			<path class="st1" d="M193,181.4l1.2-0.9"/>
			<path class="st1" d="M83.7,181.3l3.5,2.6l6.6,4.4l3.5,2.1l1.8,1l0.9,0.5l0.4,0.2l0.2,0.1l0.1,0.1l0.1,0.1l3.3,1.6l1.6,0.8
				l0.8,0.4l0.4,0.2l0.2,0.1l0.1,0l0.1,0l3.5,1.4l1.8,0.6l0.9,0.3l0.4,0.1l0.2,0.1l0.1,0l0.1,0l1.8,0.6l0.9,0.3l0.4,0.1l0.2,0.1
				l0.1,0l0.1,0l1.8,0.5l0.9,0.2l0.4,0.1l0.2,0.1l0.1,0l0.1,0l1.6,0.4l0.8,0.2l0.6,0.1l0.2,0l0.8,0.2l0.4,0.1l0.2,0l0.1,0l0.1,0
				l0.8,0.1l0.4,0.1l0.2,0l0.1,0l0.1,0l0.9,0.1l0.4,0.1l0.2,0l0.1,0l0.1,0l0.9,0.1l0.4,0l0.2,0l0.1,0l0.1,0l0.9,0.1l0.4,0l0.2,0
				l0.2,0l0.4,0l0.2,0l0.1,0l0.1,0l0.4,0l0.2,0l0.2,0l0.4,0l0.2,0h0.1l0.4,0h0.1l0.2,0h0.1l0.1,0l0.2,0h0.1l0.1,0h0.1l0.1,0h0.3
				l0.1,0h1.1l0.1,0h0.2l0.1,0h0.2l0.1,0h0.1l0.1,0h0.1l0.1,0l0.2,0l0.2,0l0.2,0l0.8,0l0.1,0l0.1,0l0.6,0l0.1,0l0.1,0l0.4,0l0.2,0
				l0.1,0l0.1,0l0.4,0l0.2,0l0.1,0l0.1,0l0.4,0l0.2,0l0.1,0l0.1,0l0.8-0.1l0.4,0l0.2,0l0.1,0l0.1,0l0.8-0.1l0.6-0.1l0.1,0l0.1,0
				l1.8-0.3l0.9-0.1l0.4-0.1l0.2,0l0.1,0l0.1,0l0.9-0.2l0.4-0.1l0.2,0l0.2,0l0.9-0.2l0.7-0.2l0.1,0l0.1,0l1.6-0.4l0.8-0.2l0.4-0.1
				l0.2-0.1l0.1,0l0.1,0l1.6-0.5l0.8-0.3l0.4-0.1l0.2-0.1l0.1,0l0.1,0l1.8-0.6l0.9-0.3l0.4-0.2l0.2-0.1l0.1,0l0.1,0l1.8-0.7l0.9-0.4
				l0.4-0.2l0.2-0.1l0.2-0.1l1.8-0.8l0.9-0.4l0.4-0.2l0.2-0.1l0.1-0.1l0.1-0.1l1.8-0.9l0.9-0.4l0.4-0.2l0.2-0.1l0.1-0.1l0.1-0.1
				l3.3-1.8l1.7-1l0.8-0.5l0.4-0.3l0.2-0.1l0.1-0.1l0.1-0.1l7.1-4.7l3-2.3"/>
			<path class="st1" d="M82.7,180.5l1,0.8"/>
			<path class="st1" d="M-28.8,8.3l0.1,0.3l0.1,0.3l0.1,0.3l0.1,0.3l0.2,0.5l0.1,0.3l0.1,0.3l0.5,1.1l0.2,0.5l0.1,0.3l0.1,0.3
				l0.9,2.1l0.5,1l0.2,0.5l0.1,0.3l0.1,0.3l1.8,4.1l0.9,2.1l0.5,1l0.2,0.5l0.1,0.3l0.1,0.3l6.6,14.3l7.1,14.6l6.5,12.9l6.6,12.5
				l7.1,12.8l6.6,11.1l7,11.3l7.2,10.8l6.6,9.3l7.1,9.3l6.5,8l6.7,7.5l7.1,7.4l6.6,6.2l7,6l2,1.5"/>
		</g>
	</g>
	<path class="st2" d="M361.4,199.3v4"/>
	<path class="st2" d="M350.3,200.9v2.4"/>
	<path class="st2" d="M339.1,200.9v2.4"/>
	<path class="st2" d="M328,200.9v2.4"/>
	<path class="st2" d="M316.8,200.9v2.4"/>
	<path class="st2" d="M305.7,199.3v4"/>
	<path class="st2" d="M294.5,200.9v2.4"/>
	<path class="st2" d="M283.4,200.9v2.4"/>
	<path class="st2" d="M272.2,200.9v2.4"/>
	<path class="st2" d="M261.1,200.9v2.4"/>
	<path class="st2" d="M249.9,199.3v4"/>
	<path class="st2" d="M238.8,200.9v2.4"/>
	<path class="st2" d="M227.6,200.9v2.4"/>
	<path class="st2" d="M216.5,200.9v2.4"/>
	<path class="st2" d="M205.3,200.9v2.4"/>
	<path class="st2" d="M194.2,199.3v4"/>
	<path class="st2" d="M183,200.9v2.4"/>
	<path class="st2" d="M171.9,200.9v2.4"/>
	<path class="st2" d="M160.7,200.9v2.4"/>
	<path class="st2" d="M149.6,200.9v2.4"/>
	<path class="st2" d="M138.4,199.3v4"/>
	<path class="st2" d="M127.3,200.9v2.4"/>
	<path class="st2" d="M116.1,200.9v2.4"/>
	<path class="st2" d="M105,200.9v2.4"/>
	<path class="st2" d="M93.8,200.9v2.4"/>
	<path class="st2" d="M82.7,199.3v4"/>
	<path class="st2" d="M71.5,200.9v2.4"/>
	<path class="st2" d="M60.4,200.9v2.4"/>
	<path class="st2" d="M49.2,200.9v2.4"/>
	<path class="st2" d="M38.1,200.9v2.4"/>
	<path class="st2" d="M26.9,199.3v4"/>
	<path class="st2" d="M20,203.3h348.4"/>
	<path class="st3" d="M247.5,229.2h2.4"/>
	<path class="st2" d="M247.5,220.5h2.4"/>
	<path class="st2" d="M247.5,211.9h2.4"/>
	<path class="st2" d="M245.9,203.3h4"/>
	<path class="st2" d="M247.5,194.7h2.4"/>
	<path class="st2" d="M247.5,186.1h2.4"/>
	<path class="st2" d="M247.5,177.5h2.4"/>
	<path class="st3" d="M247.5,168.9h2.4"/>
	<path class="st2" d="M245.9,160.2h4"/>
	<path class="st2" d="M247.5,151.6h2.4"/>
	<path class="st2" d="M247.5,143h2.4"/>
	<path class="st2" d="M247.5,134.4h2.4"/>
	<path class="st2" d="M247.5,125.8h2.4"/>
	<path class="st2" d="M245.9,117.2h4"/>
	<path class="st2" d="M247.5,108.6h2.4"/>
	<path class="st2" d="M247.5,99.9h2.4"/>
	<path class="st2" d="M247.5,91.3h2.4"/>
	<path class="st2" d="M247.5,82.7h2.4"/>
	<path class="st2" d="M245.9,74.1h4"/>
	<path class="st2" d="M247.5,65.5h2.4"/>
	<path class="st2" d="M247.5,56.9h2.4"/>
	<path class="st2" d="M247.5,48.3h2.4"/>
	<path class="st2" d="M247.5,39.6h2.4"/>
	<path class="st2" d="M245.9,31h4"/>
	<path class="st3" d="M247.5,22.4h2.4"/>
	<path class="st2" d="M249.9,20.3v215.3"/>
	<text transform="matrix(1 0 0 1 487.9236 207.858)" class="st4 st5">x</text>
	<text transform="matrix(1 0 0 1 248.7231 12.9683)" class="st4 st5">y</text>
	<text transform="matrix(1 0 0 1 357.9919 225.5883)" class="st6 st5">1</text>
	<text transform="matrix(1 0 0 1 66.4016 80.2076)" class="st6 st7">2</text>
	<text transform="matrix(1 0 0 1 127.2718 225.5882)" class="st6 st5">-1</text>
	<path class="st2" d="M141.8,204.6"/>
	<text transform="matrix(1 0 0 1 449.6194 99.9467)"><tspan x="0" y="0" class="st6 st5">(</tspan><tspan x="8" y="0" class="st4 st5">x </tspan><tspan x="24.6" y="0" class="st6 st5">- 1)</tspan></text>
	<text transform="matrix(1 0 0 1 6.838013e-02 91.3299)"><tspan x="0" y="0" class="st6 st5">(</tspan><tspan x="8" y="0" class="st4 st5">x </tspan><tspan x="24.6" y="0" class="st6 st5">+ 1)</tspan></text>
	<text transform="matrix(1 0 0 1 508.2605 85.2404)" class="st6 st7">2</text>
	<text transform="matrix(1 0 0 1 261.0685 123.5075)" class="st6 st5">1</text>
</g>
<g id="surface4_1_">
	<g>
		<defs>
			<rect id="SVGID_3_" x="131.4" y="21.8" width="349" height="213"/>
		</defs>
		<clipPath id="SVGID_4_">
			<use xlink:href="#SVGID_3_"  style="overflow:visible;"/>
		</clipPath>
		<g class="st8">
			<path class="st1" d="M194.2,8.3l0.1,0.2l0.1,0.2l0.2,0.5l1.2,2.8l1.6,3.7l3.3,7.4l7.1,15.5l6.6,13.8l6.5,13l7.1,13.4l6.6,11.9
				l7.1,12.2l7,11.3l6.5,9.9l7.1,10.1l6.6,8.8l6.5,8l7,8l6.6,6.9l7.1,6.8l7,6l2.3,1.8"/>
			<path class="st1" d="M305.7,180.5l1.2,0.9"/>
			<path class="st1" d="M306.9,181.4l3,2.3l7.1,4.7l0.1,0.1l0.1,0.1l0.2,0.1l0.4,0.3l0.8,0.5l1.7,1l3.3,1.8l0.1,0.1l0.1,0.1l0.2,0.1
				l0.4,0.2l0.9,0.4l1.8,0.9l0.1,0.1l0.1,0.1l0.2,0.1l0.4,0.2l0.9,0.4l1.8,0.8l0.2,0.1l0.2,0.1l0.4,0.2l0.9,0.4l1.8,0.7l0.1,0l0.1,0
				l0.2,0.1l0.4,0.2l0.9,0.3l1.8,0.6l0.1,0l0.1,0l0.2,0.1l0.4,0.1l0.8,0.3l1.6,0.5l0.1,0l0.1,0l0.2,0.1l0.4,0.1l0.8,0.2l1.6,0.4
				l0.1,0l0.1,0l0.7,0.2l0.9,0.2l0.2,0l0.2,0l0.4,0.1l0.9,0.2l0.1,0l0.1,0l0.2,0l0.4,0.1l0.9,0.1l1.8,0.3l0.1,0l0.1,0l0.6,0.1
				l0.8,0.1l0.1,0l0.1,0l0.2,0l0.4,0l0.8,0.1l0.1,0l0.1,0l0.2,0l0.4,0l0.1,0l0.1,0l0.2,0l0.4,0l0.1,0l0.1,0l0.2,0l0.4,0l0.1,0l0.1,0
				l0.6,0l0.1,0l0.1,0l0.8,0l0.2,0l0.2,0l0.2,0l0.1,0h0.1l0.1,0h0.1l0.1,0h0.2l0.1,0h0.2l0.1,0h1.1l0.1,0h0.3l0.1,0h0.1l0.1,0h0.1
				l0.2,0l0.1,0h0.1l0.2,0h0.1l0.4,0h0.1l0.2,0l0.4,0l0.2,0l0.2,0l0.4,0l0.1,0l0.1,0l0.2,0l0.4,0l0.2,0l0.2,0l0.4,0l0.9-0.1l0.1,0
				l0.1,0l0.2,0l0.4,0l0.9-0.1l0.1,0l0.1,0l0.2,0l0.4-0.1l0.9-0.1l0.1,0l0.1,0l0.2,0l0.4-0.1l0.8-0.1l0.1,0l0.1,0l0.2,0l0.4-0.1
				l0.8-0.2l0.2,0l0.6-0.1l0.8-0.2l1.6-0.4l0.1,0l0.1,0l0.2-0.1l0.4-0.1l0.9-0.2l1.8-0.5l0.1,0l0.1,0l0.2-0.1l0.4-0.1l0.9-0.3
				l1.8-0.6l0.1,0l0.1,0l0.2-0.1l0.4-0.1l0.9-0.3l1.8-0.6l3.5-1.4l0.1,0l0.1,0l0.2-0.1l0.4-0.2l0.8-0.4l1.6-0.8l3.3-1.6l0.1-0.1
				l0.1-0.1l0.2-0.1l0.4-0.2l0.9-0.5l1.8-1l3.5-2.1l6.6-4.4l3.5-2.6"/>
			<path class="st1" d="M416.1,181.3l1-0.8"/>
			<path class="st1" d="M417.1,180.5l2-1.5l7-6l6.6-6.2l7.1-7.4l6.7-7.5l6.5-8l7.1-9.3l6.6-9.3l7.2-10.8l7-11.3l6.6-11.1l7.1-12.8
				l6.6-12.5l6.5-12.9l7.1-14.6l6.6-14.3l0.1-0.3l0.1-0.3l0.2-0.5l0.5-1l0.9-2.1l1.8-4.1l0.1-0.3l0.1-0.3l0.2-0.5l0.5-1l0.9-2.1
				l0.1-0.3l0.1-0.3l0.2-0.5l0.5-1.1l0.1-0.3l0.1-0.3l0.2-0.5l0.1-0.3l0.1-0.3l0.1-0.3l0.1-0.3"/>
		</g>
	</g>
	<path class="st2" d="M138.4,203.3v-4"/>
	<path class="st2" d="M149.6,203.3v-2.4"/>
	<path class="st2" d="M160.7,203.3v-2.4"/>
	<path class="st2" d="M171.9,203.3v-2.4"/>
	<path class="st2" d="M183,203.3v-2.4"/>
	<path class="st2" d="M194.2,203.3v-4"/>
	<path class="st2" d="M205.3,203.3v-2.4"/>
	<path class="st2" d="M216.5,203.3v-2.4"/>
	<path class="st2" d="M227.6,203.3v-2.4"/>
	<path class="st2" d="M238.8,203.3v-2.4"/>
	<path class="st2" d="M249.9,203.3v-4"/>
	<path class="st2" d="M261.1,203.3v-2.4"/>
	<path class="st2" d="M272.2,203.3v-2.4"/>
	<path class="st2" d="M283.4,203.3v-2.4"/>
	<path class="st2" d="M294.5,203.3v-2.4"/>
	<path class="st2" d="M305.7,203.3v-4"/>
	<path class="st2" d="M316.8,203.3v-2.4"/>
	<path class="st2" d="M328,203.3v-2.4"/>
	<path class="st2" d="M339.1,203.3v-2.4"/>
	<path class="st2" d="M350.3,203.3v-2.4"/>
	<path class="st2" d="M361.4,203.3v-4"/>
	<path class="st2" d="M372.6,203.3v-2.4"/>
	<path class="st2" d="M383.7,203.3v-2.4"/>
	<path class="st2" d="M394.9,203.3v-2.4"/>
	<path class="st2" d="M406,203.3v-2.4"/>
	<path class="st2" d="M417.2,203.3v-4"/>
	<path class="st2" d="M428.3,203.3v-2.4"/>
	<path class="st2" d="M439.5,203.3v-2.4"/>
	<path class="st2" d="M450.6,203.3v-2.4"/>
	<path class="st2" d="M461.8,203.3v-2.4"/>
	<path class="st2" d="M472.9,203.3v-4"/>
	<path class="st2" d="M131.5,203.3h348.4"/>
	<path class="st3" d="M249.9,229.2h2.4"/>
	<path class="st2" d="M249.9,220.5h2.4"/>
	<path class="st2" d="M249.9,211.9h2.4"/>
	<path class="st2" d="M249.9,203.3h4"/>
	<path class="st2" d="M249.9,194.7h2.4"/>
	<path class="st2" d="M249.9,186.1h2.4"/>
	<path class="st2" d="M249.9,177.5h2.4"/>
	<path class="st3" d="M249.9,168.9h2.4"/>
	<path class="st2" d="M249.9,160.2h4"/>
	<path class="st2" d="M249.9,151.6h2.4"/>
	<path class="st2" d="M249.9,143h2.4"/>
	<path class="st2" d="M249.9,134.4h2.4"/>
	<path class="st2" d="M249.9,125.8h2.4"/>
	<path class="st2" d="M249.9,117.2h4"/>
	<path class="st2" d="M249.9,108.6h2.4"/>
	<path class="st2" d="M249.9,99.9h2.4"/>
	<path class="st2" d="M249.9,91.3h2.4"/>
	<path class="st2" d="M249.9,82.7h2.4"/>
	<path class="st2" d="M249.9,74.1h4"/>
	<path class="st2" d="M249.9,65.5h2.4"/>
	<path class="st2" d="M249.9,56.9h2.4"/>
	<path class="st2" d="M249.9,48.3h2.4"/>
	<path class="st2" d="M249.9,39.6h2.4"/>
	<path class="st2" d="M249.9,31h4"/>
	<path class="st3" d="M249.9,22.4h2.4"/>
	<path class="st2" d="M249.9,235.6V20.3"/>
	<path class="st2" d="M358,204.6"/>
</g>
</svg>
