<?xml version="1.0" encoding="utf-8"?>
<!-- Generator: Adobe Illustrator 22.1.0, SVG Export Plug-In . SVG Version: 6.00 Build 0)  -->
<svg version="1.1" id="Layer_1" xmlns="http://www.w3.org/2000/svg" xmlns:xlink="http://www.w3.org/1999/xlink" x="0px" y="0px"
	 viewBox="0 0 183 106.4" enable-background="new 0 0 183 106.4" xml:space="preserve">
<g>
	<defs>
		<polyline id="SVGID_1_" points="-7.7,251.4 186.6,251.4 186.6,-193.5 -7.7,-193.5 		"/>
	</defs>
	<clipPath id="SVGID_2_">
		<use xlink:href="#SVGID_1_"  overflow="visible"/>
	</clipPath>
	<path clip-path="url(#SVGID_2_)" fill="none" stroke="#BFBFBF" stroke-width="0.3985" stroke-miterlimit="10" d="M167.1,109.6
		V-51.8 M128.3,109.6V-51.8 M50.6,109.6V-51.8 M11.7,109.6V-51.8"/>
</g>
<g>
	<defs>
		<polyline id="SVGID_3_" points="-149.5,109.6 -149.5,-51.8 328.3,-51.8 328.3,109.6 		"/>
	</defs>
	<clipPath id="SVGID_4_">
		<use xlink:href="#SVGID_3_"  overflow="visible"/>
	</clipPath>
	<path clip-path="url(#SVGID_4_)" fill="none" stroke="#BFBFBF" stroke-width="0.3985" stroke-miterlimit="10" d="M-7.7-51.8h194.3
		 M-7.7-15.9h194.3 M-7.7,20h194.3 M-7.7,55.8h194.3"/>
</g>
<g>
	<defs>
		<polyline id="SVGID_5_" points="-7.7,251.4 186.6,251.4 186.6,-193.5 -7.7,-193.5 		"/>
	</defs>
	<clipPath id="SVGID_6_">
		<use xlink:href="#SVGID_5_"  overflow="visible"/>
	</clipPath>
</g>
<g>
	<defs>
		<polyline id="SVGID_7_" points="-149.5,109.6 -149.5,-51.8 328.3,-51.8 328.3,109.6 		"/>
	</defs>
	<clipPath id="SVGID_8_">
		<use xlink:href="#SVGID_7_"  overflow="visible"/>
	</clipPath>
</g>
<line fill="none" stroke="#000000" stroke-width="0.3985" stroke-miterlimit="10" x1="-7.7" y1="91.7" x2="186.6" y2="91.7"/>
<line fill="none" stroke="#000000" stroke-width="0.3985" stroke-miterlimit="10" x1="89.4" y1="109.6" x2="89.4" y2="57.4"/>
<g>
	<defs>
		<rect id="SVGID_9_" x="-7.7" y="-51.8" width="194.3" height="161.4"/>
	</defs>
	<clipPath id="SVGID_10_">
		<use xlink:href="#SVGID_9_"  overflow="visible"/>
	</clipPath>
	<polyline clip-path="url(#SVGID_10_)" fill="none" stroke="#00FF00" stroke-width="0.797" stroke-miterlimit="10" points="
		89.4,91.7 89.5,91.4 89.6,91.1 89.6,90.9 89.7,90.6 89.8,90.3 89.9,90 90,89.7 90,89.4 90.1,89.2 90.2,88.9 90.3,88.6 90.3,88.3 
		90.4,88 90.5,87.7 90.6,87.5 90.7,87.2 90.7,86.9 90.8,86.6 90.9,86.4 91,86.1 91,85.8 91.1,85.5 91.2,85.3 91.3,85 91.4,84.7 
		91.4,84.4 91.5,84.2 91.6,83.9 91.7,83.6 91.7,83.4 91.8,83.1 91.9,82.8 92,82.5 92.1,82.3 92.1,82 92.2,81.7 92.3,81.5 92.4,81.2 
		92.4,80.9 92.5,80.7 92.6,80.4 92.7,80.2 92.8,79.9 92.8,79.6 92.9,79.4 93,79.1 93.1,78.8 93.1,78.6 93.2,78.3 93.3,78.1 
		93.4,77.8 93.5,77.6 93.5,77.3 93.6,77 93.7,76.8 93.8,76.5 93.8,76.3 93.9,76 94,75.8 94.1,75.5 94.2,75.3 94.2,75 94.3,74.8 
		94.4,74.5 94.5,74.3 94.5,74 94.6,73.8 94.7,73.5 94.8,73.3 94.9,73 94.9,72.8 95,72.5 95.1,72.3 95.2,72 95.3,71.8 95.3,71.5 
		95.4,71.3 95.5,71.1 95.6,70.8 95.6,70.6 95.7,70.3 95.8,70.1 95.9,69.9 96,69.6 96,69.4 96.1,69.1 96.2,68.9 96.3,68.7 96.3,68.4 
		96.4,68.2 96.5,68 96.6,67.7 96.7,67.5 96.7,67.3 96.8,67 96.9,66.8 97,66.6 97,66.3 97.1,66.1 97.2,65.9 97.3,65.6 97.4,65.4 
		97.4,65.2 97.5,65 97.6,64.7 97.7,64.5 97.7,64.3 97.8,64 97.9,63.8 98,63.6 98.1,63.4 98.1,63.2 98.2,62.9 98.3,62.7 98.4,62.5 
		98.4,62.3 98.5,62 98.6,61.8 98.7,61.6 98.8,61.4 98.8,61.2 98.9,61 99,60.7 99.1,60.5 99.1,60.3 99.2,60.1 99.3,59.9 99.4,59.7 
		99.5,59.4 99.5,59.2 99.6,59 99.7,58.8 99.8,58.6 99.8,58.4 99.9,58.2 100,58 	"/>
	<polyline clip-path="url(#SVGID_10_)" fill="none" stroke="#00FF00" stroke-width="0.797" stroke-miterlimit="10" points="100,58 
		100.1,57.8 100.2,57.6 100.2,57.3 100.3,57.1 100.4,56.9 100.5,56.7 100.5,56.5 100.6,56.3 100.7,56.1 100.8,55.9 100.9,55.7 
		100.9,55.5 101,55.3 101.1,55.1 101.2,54.9 101.2,54.7 101.3,54.5 101.4,54.3 101.5,54.1 101.6,53.9 101.6,53.7 101.7,53.5 
		101.8,53.3 101.9,53.1 101.9,52.9 102,52.7 102.1,52.5 102.2,52.3 102.3,52.1 102.3,52 102.4,51.8 102.5,51.6 102.6,51.4 
		102.6,51.2 102.7,51 102.8,50.8 102.9,50.6 103,50.4 103,50.3 103.1,50.1 103.2,49.9 103.3,49.7 103.3,49.5 103.4,49.3 103.5,49.1 
		103.6,49 103.7,48.8 103.7,48.6 103.8,48.4 103.9,48.2 104,48.1 104,47.9 104.1,47.7 104.2,47.5 104.3,47.3 104.4,47.2 104.4,47 
		104.5,46.8 104.6,46.6 104.7,46.5 104.7,46.3 104.8,46.1 104.9,45.9 105,45.8 105.1,45.6 105.1,45.4 105.2,45.3 105.3,45.1 
		105.4,44.9 105.4,44.7 105.5,44.6 105.6,44.4 105.7,44.2 105.8,44.1 105.8,43.9 105.9,43.7 106,43.6 106.1,43.4 106.1,43.3 
		106.2,43.1 106.3,42.9 106.4,42.8 106.5,42.6 106.5,42.4 106.6,42.3 106.7,42.1 106.8,42 106.8,41.8 106.9,41.6 107,41.5 
		107.1,41.3 107.2,41.2 107.2,41 107.3,40.9 107.4,40.7 107.5,40.6 107.5,40.4 107.6,40.2 107.7,40.1 107.8,39.9 107.9,39.8 
		107.9,39.6 108,39.5 108.1,39.3 108.2,39.2 108.2,39 108.3,38.9 108.4,38.7 108.5,38.6 108.6,38.5 108.6,38.3 108.7,38.2 108.8,38 
		108.9,37.9 108.9,37.7 109,37.6 109.1,37.5 109.2,37.3 109.3,37.2 109.3,37 109.4,36.9 109.5,36.7 109.6,36.6 109.6,36.5 
		109.7,36.3 109.8,36.2 109.9,36.1 110,35.9 110,35.8 110.1,35.7 110.2,35.5 110.3,35.4 110.3,35.3 110.4,35.1 110.5,35 110.6,34.9 
		110.7,34.7 110.7,34.6 110.8,34.5 110.9,34.3 111,34.2 111,34.1 111.1,34 111.2,33.8 111.3,33.7 111.4,33.6 111.4,33.5 111.5,33.3 
		111.6,33.2 111.7,33.1 111.7,33 111.8,32.8 111.9,32.7 112,32.6 112.1,32.5 112.1,32.4 112.2,32.2 112.3,32.1 112.4,32 112.4,31.9 
		112.5,31.8 112.6,31.7 112.7,31.5 112.8,31.4 112.8,31.3 112.9,31.2 113,31.1 113.1,31 113.1,30.9 113.2,30.7 113.3,30.6 
		113.4,30.5 113.5,30.4 113.5,30.3 113.6,30.2 113.7,30.1 113.8,30 113.8,29.9 113.9,29.8 114,29.7 114.1,29.6 114.2,29.5 
		114.2,29.3 114.3,29.2 114.4,29.1 114.5,29 114.5,28.9 114.6,28.8 114.7,28.7 114.8,28.6 114.9,28.5 114.9,28.4 115,28.3 
		115.1,28.2 115.2,28.1 115.2,28 115.3,28 115.4,27.9 115.5,27.8 115.6,27.7 115.6,27.6 115.7,27.5 115.8,27.4 115.9,27.3 
		115.9,27.2 116,27.1 116.1,27 116.2,26.9 116.3,26.8 116.3,26.8 116.4,26.7 116.5,26.6 116.6,26.5 116.6,26.4 116.7,26.3 
		116.8,26.2 116.9,26.2 117,26.1 117,26 117.1,25.9 117.2,25.8 117.3,25.7 117.3,25.7 117.4,25.6 117.5,25.5 117.6,25.4 117.7,25.3 
		117.7,25.3 117.8,25.2 117.9,25.1 118,25 118,25 118.1,24.9 118.2,24.8 118.3,24.7 118.4,24.7 118.4,24.6 118.5,24.5 118.6,24.4 
		118.7,24.4 118.7,24.3 118.8,24.2 118.9,24.2 119,24.1 119.1,24 119.1,24 119.2,23.9 119.3,23.8 119.4,23.8 119.4,23.7 119.5,23.6 
		119.6,23.6 119.7,23.5 119.8,23.4 119.8,23.4 119.9,23.3 120,23.2 120.1,23.2 120.1,23.1 120.2,23.1 120.3,23 120.4,22.9 
		120.5,22.9 120.5,22.8 120.6,22.8 120.7,22.7 120.8,22.7 120.8,22.6 120.9,22.5 121,22.5 121.1,22.4 121.2,22.4 121.2,22.3 
		121.3,22.3 121.4,22.2 121.5,22.2 121.5,22.1 121.6,22.1 121.7,22 121.8,22 121.9,21.9 121.9,21.9 122,21.8 122.1,21.8 122.2,21.8 
		122.2,21.7 122.3,21.7 122.4,21.6 122.5,21.6 122.6,21.5 122.6,21.5 122.7,21.5 122.8,21.4 122.9,21.4 122.9,21.3 123,21.3 
		123.1,21.3 123.2,21.2 123.3,21.2 123.3,21.1 123.4,21.1 123.5,21.1 123.6,21 123.6,21 123.7,21 123.8,20.9 123.9,20.9 124,20.9 
		124,20.8 124.1,20.8 124.2,20.8 124.3,20.7 124.3,20.7 124.4,20.7 124.5,20.7 124.6,20.6 124.7,20.6 124.7,20.6 124.8,20.6 
		124.9,20.5 125,20.5 125,20.5 125.1,20.5 125.2,20.4 125.3,20.4 125.4,20.4 125.4,20.4 125.5,20.3 125.6,20.3 125.7,20.3 
		125.7,20.3 125.8,20.3 125.9,20.2 126,20.2 126.1,20.2 126.1,20.2 126.2,20.2 126.3,20.2 126.4,20.2 126.4,20.1 126.5,20.1 
		126.6,20.1 126.7,20.1 126.8,20.1 126.8,20.1 126.9,20.1 127,20.1 127.1,20.1 127.1,20 127.2,20 127.3,20 127.4,20 127.5,20 
		127.5,20 127.6,20 127.7,20 127.8,20 127.8,20 127.9,20 128,20 128.1,20 128.2,20 128.2,20 128.3,20 128.4,20 128.5,20 128.5,20 
		128.6,20 128.7,20 128.8,20 128.9,20 128.9,20 129,20 129.1,20 129.2,20 129.2,20 129.3,20 129.4,20 129.5,20.1 129.6,20.1 
		129.6,20.1 129.7,20.1 129.8,20.1 129.9,20.1 129.9,20.1 130,20.1 130.1,20.1 130.2,20.2 130.3,20.2 130.3,20.2 130.4,20.2 
		130.5,20.2 130.6,20.2 130.6,20.2 130.7,20.3 130.8,20.3 130.9,20.3 131,20.3 131,20.3 131.1,20.4 131.2,20.4 131.3,20.4 
		131.3,20.4 131.4,20.5 131.5,20.5 131.6,20.5 131.7,20.5 131.7,20.6 131.8,20.6 131.9,20.6 132,20.6 132,20.7 132.1,20.7 
		132.2,20.7 132.3,20.7 132.4,20.8 132.4,20.8 132.5,20.8 132.6,20.9 132.7,20.9 132.7,20.9 132.8,21 132.9,21 133,21 133.1,21.1 
		133.1,21.1 133.2,21.1 133.3,21.2 133.4,21.2 133.4,21.3 133.5,21.3 133.6,21.3 133.7,21.4 133.8,21.4 133.8,21.5 133.9,21.5 
		134,21.5 134.1,21.6 134.1,21.6 134.2,21.7 134.3,21.7 134.4,21.8 134.5,21.8 134.5,21.8 134.6,21.9 134.7,21.9 134.8,22 134.8,22 
		134.9,22.1 135,22.1 135.1,22.2 135.2,22.2 135.2,22.3 135.3,22.3 135.4,22.4 135.5,22.4 135.5,22.5 135.6,22.5 135.7,22.6 
		135.8,22.7 135.9,22.7 135.9,22.8 136,22.8 136.1,22.9 136.2,22.9 136.2,23 136.3,23.1 136.4,23.1 136.5,23.2 136.6,23.2 
		136.6,23.3 136.7,23.4 136.8,23.4 136.9,23.5 136.9,23.6 137,23.6 137.1,23.7 137.2,23.8 137.3,23.8 137.3,23.9 137.4,24 137.5,24 
		137.6,24.1 137.6,24.2 137.7,24.2 137.8,24.3 137.9,24.4 138,24.4 138,24.5 138.1,24.6 138.2,24.7 138.3,24.7 138.3,24.8 
		138.4,24.9 138.5,25 138.6,25 138.7,25.1 138.7,25.2 138.8,25.3 138.9,25.3 139,25.4 139,25.5 139.1,25.6 139.2,25.7 139.3,25.7 
		139.4,25.8 139.4,25.9 139.5,26 139.6,26.1 139.7,26.2 139.7,26.2 139.8,26.3 139.9,26.4 140,26.5 140.1,26.6 140.1,26.7 
		140.2,26.8 140.3,26.8 140.4,26.9 140.4,27 140.5,27.1 140.6,27.2 140.7,27.3 140.8,27.4 140.8,27.5 140.9,27.6 141,27.7 
		141.1,27.8 141.1,27.9 141.2,28 141.3,28 141.4,28.1 141.5,28.2 141.5,28.3 141.6,28.4 141.7,28.5 141.8,28.6 141.8,28.7 
		141.9,28.8 142,28.9 142.1,29 142.2,29.1 142.2,29.2 142.3,29.3 142.4,29.5 142.5,29.6 142.5,29.7 142.6,29.8 142.7,29.9 142.8,30 
		142.9,30.1 142.9,30.2 143,30.3 143.1,30.4 143.2,30.5 143.2,30.6 143.3,30.7 143.4,30.9 143.5,31 143.6,31.1 143.6,31.2 
		143.7,31.3 143.8,31.4 143.9,31.5 143.9,31.7 144,31.8 144.1,31.9 144.2,32 144.3,32.1 144.3,32.2 144.4,32.4 144.5,32.5 
		144.6,32.6 144.6,32.7 144.7,32.8 144.8,33 144.9,33.1 145,33.2 145,33.3 145.1,33.5 145.2,33.6 145.3,33.7 145.3,33.8 145.4,34 
		145.5,34.1 145.6,34.2 145.7,34.3 145.7,34.5 145.8,34.6 145.9,34.7 146,34.9 146,35 146.1,35.1 146.2,35.3 146.3,35.4 146.4,35.5 
		146.4,35.7 146.5,35.8 146.6,35.9 146.7,36.1 146.7,36.2 146.8,36.3 146.9,36.5 147,36.6 147.1,36.7 147.1,36.9 147.2,37 
		147.3,37.2 147.4,37.3 147.4,37.4 147.5,37.6 147.6,37.7 147.7,37.9 147.8,38 147.8,38.2 147.9,38.3 148,38.5 148.1,38.6 
		148.1,38.7 148.2,38.9 148.3,39 148.4,39.2 148.5,39.3 148.5,39.5 148.6,39.6 148.7,39.8 148.8,39.9 148.8,40.1 148.9,40.2 
		149,40.4 149.1,40.6 149.2,40.7 149.2,40.9 149.3,41 149.4,41.2 149.5,41.3 149.5,41.5 149.6,41.6 149.7,41.8 149.8,42 149.9,42.1 
		149.9,42.3 150,42.4 150.1,42.6 150.2,42.8 150.2,42.9 150.3,43.1 150.4,43.3 150.5,43.4 150.6,43.6 150.6,43.7 150.7,43.9 
		150.8,44.1 150.9,44.2 150.9,44.4 151,44.6 151.1,44.7 151.2,44.9 151.3,45.1 151.3,45.3 151.4,45.4 151.5,45.6 151.6,45.8 
		151.6,45.9 151.7,46.1 151.8,46.3 151.9,46.5 152,46.6 152,46.8 152.1,47 152.2,47.2 152.3,47.3 152.3,47.5 152.4,47.7 152.5,47.9 
		152.6,48.1 152.7,48.2 152.7,48.4 152.8,48.6 152.9,48.8 153,49 153,49.1 153.1,49.3 153.2,49.5 153.3,49.7 153.4,49.9 153.4,50.1 
		153.5,50.3 153.6,50.4 153.7,50.6 153.7,50.8 153.8,51 153.9,51.2 154,51.4 154.1,51.6 154.1,51.8 154.2,52 154.3,52.1 154.4,52.3 
		154.4,52.5 154.5,52.7 154.6,52.9 154.7,53.1 154.8,53.3 154.8,53.5 154.9,53.7 155,53.9 155.1,54.1 155.1,54.3 155.2,54.5 
		155.3,54.7 155.4,54.9 155.5,55.1 155.5,55.3 155.6,55.5 155.7,55.7 155.8,55.9 155.8,56.1 155.9,56.3 156,56.5 156.1,56.7 
		156.2,56.9 156.2,57.1 156.3,57.3 156.4,57.6 156.5,57.8 156.5,58 156.6,58.2 156.7,58.4 156.8,58.6 156.9,58.8 156.9,59 157,59.2 
		157.1,59.4 157.2,59.7 157.2,59.9 157.3,60.1 157.4,60.3 157.5,60.5 157.6,60.7 157.6,60.9 157.7,61.2 157.8,61.4 157.9,61.6 
		157.9,61.8 158,62 158.1,62.3 158.2,62.5 158.3,62.7 158.3,62.9 158.4,63.1 158.5,63.4 158.6,63.6 158.6,63.8 158.7,64 158.8,64.3 
		158.9,64.5 159,64.7 159,65 159.1,65.2 159.2,65.4 159.3,65.6 159.3,65.9 159.4,66.1 159.5,66.3 159.6,66.6 159.7,66.8 159.7,67 
		159.8,67.3 159.9,67.5 160,67.7 160,68 160.1,68.2 160.2,68.4 160.3,68.7 160.4,68.9 160.4,69.1 160.5,69.4 160.6,69.6 160.7,69.9 
		160.7,70.1 160.8,70.3 160.9,70.6 161,70.8 161.1,71.1 161.1,71.3 161.2,71.5 161.3,71.8 161.4,72 161.4,72.3 161.5,72.5 
		161.6,72.8 161.7,73 161.8,73.3 161.8,73.5 161.9,73.8 162,74 162.1,74.3 162.1,74.5 162.2,74.8 162.3,75 162.4,75.3 162.5,75.5 
		162.5,75.8 162.6,76 162.7,76.3 162.8,76.5 162.8,76.8 162.9,77 163,77.3 163.1,77.6 163.2,77.8 163.2,78.1 163.3,78.3 163.4,78.6 
		163.5,78.8 163.5,79.1 163.6,79.4 163.7,79.6 163.8,79.9 163.9,80.2 163.9,80.4 164,80.7 164.1,80.9 164.2,81.2 164.2,81.5 
		164.3,81.7 164.4,82 164.5,82.3 164.6,82.5 164.6,82.8 164.7,83.1 164.8,83.4 164.9,83.6 164.9,83.9 165,84.2 165.1,84.4 
		165.2,84.7 165.3,85 165.3,85.3 165.4,85.5 165.5,85.8 165.6,86.1 165.6,86.4 165.7,86.6 165.8,86.9 165.9,87.2 166,87.5 166,87.7 
		166.1,88 166.2,88.3 166.3,88.6 166.3,88.9 166.4,89.1 166.5,89.4 166.6,89.7 166.7,90 166.7,90.3 166.8,90.6 166.9,90.9 167,91.1 
		167,91.4 167.1,91.7 	"/>
</g>
<text transform="matrix(1 0 0 1 177.3359 88.1939)" font-family="'TimesNewRomanPS-ItalicMT'" font-size="9.9626px">x</text>
<text transform="matrix(1 0 0 1 82.627 12.2066)" font-family="'TimesNewRomanPS-ItalicMT'" font-size="9.9626px">y</text>
<linearGradient id="SVGID_11_" gradientUnits="userSpaceOnUse" x1="23.4837" y1="73.6171" x2="154.8904" y2="73.6171">
	<stop  offset="0.115" style="stop-color:#FFFFFF"/>
	<stop  offset="0.9179" style="stop-color:#000000"/>
</linearGradient>
<path fill="url(#SVGID_11_)" stroke="#000000" stroke-miterlimit="10" d="M24.2,91.9c0,2.2,29.4,4,65.7,4l-0.7-0.1
	c36.3,0,65.7-1.8,65.7-4l0.1,0.2v-37l0,0.2c0-2.2-29.4-4-65.7-4s-65.7,1.8-65.7,4l0.7-0.1v37.2"/>
<path fill="none" stroke="#000000" stroke-miterlimit="10" d="M107.9,38.5"/>
<ellipse fill="#FFFFFF" stroke="#000000" stroke-miterlimit="10" cx="89.4" cy="54.1" rx="65.6" ry="4.1"/>
<polyline fill="none" stroke="#00FF00" stroke-width="0.797" stroke-miterlimit="10" points="99.9,57.8 100,57.6 100.1,57.4 
	100.2,57.2 100.3,57 100.3,56.8 100.4,56.6 100.5,56.4 100.6,56.2 100.6,55.9 100.7,55.7 100.8,55.5 100.9,55.3 101,55.1 101,54.9 
	101.1,54.7 101.2,54.5 101.3,54.3 101.3,54.1 101.4,53.9 101.5,53.7 101.6,53.5 101.7,53.3 101.7,53.2 101.8,53 101.9,52.8 
	102,52.6 102,52.4 102.1,52.2 102.2,52 102.3,51.8 102.4,51.6 102.4,51.4 102.5,51.2 102.6,51 102.7,50.8 102.7,50.7 102.8,50.5 
	102.9,50.3 103,50.1 103.1,49.9 103.1,49.7 103.2,49.5 103.3,49.4 103.4,49.2 103.4,49 103.5,48.8 103.6,48.6 103.7,48.4 
	103.8,48.3 103.8,48.1 103.9,47.9 104,47.7 104.1,47.5 104.1,47.4 104.2,47.2 104.3,47 104.4,46.8 104.5,46.7 104.5,46.5 
	104.6,46.3 104.7,46.1 104.8,46 104.8,45.8 104.9,45.6 105,45.4 105.1,45.3 105.2,45.1 105.2,44.9 105.3,44.8 105.4,44.6 
	105.5,44.4 105.5,44.2 105.6,44.1 105.7,43.9 105.8,43.7 105.9,43.6 105.9,43.4 106,43.3 106.1,43.1 106.2,42.9 106.2,42.8 
	106.3,42.6 106.4,42.4 106.5,42.3 106.6,42.1 106.6,42 106.7,41.8 106.8,41.6 106.9,41.5 106.9,41.3 107,41.2 107.1,41 107.2,40.9 
	107.3,40.7 107.3,40.5 107.4,40.4 107.5,40.2 107.6,40.1 107.6,39.9 107.7,39.8 107.8,39.6 107.9,39.5 108,39.3 108,39.2 108.1,39 
	108.2,38.9 108.3,38.7 108.3,38.6 108.4,38.4 108.5,38.3 108.6,38.1 108.7,38 108.7,37.9 108.8,37.7 108.9,37.6 109,37.4 109,37.3 
	109.1,37.1 109.2,37 109.3,36.9 109.4,36.7 109.4,36.6 109.5,36.4 109.6,36.3 109.7,36.2 109.7,36 109.8,35.9 109.9,35.8 110,35.6 
	110.1,35.5 110.1,35.4 110.2,35.2 110.3,35.1 110.4,35 110.4,34.8 110.5,34.7 110.6,34.6 110.7,34.4 110.8,34.3 110.8,34.2 
	110.9,34.1 111,33.9 111.1,33.8 111.1,33.7 111.2,33.5 111.3,33.4 111.4,33.3 111.5,33.2 111.5,33 111.6,32.9 111.7,32.8 
	111.8,32.7 111.8,32.6 111.9,32.4 112,32.3 112.1,32.2 112.2,32.1 112.2,32 112.3,31.8 112.4,31.7 112.5,31.6 112.5,31.5 
	112.6,31.4 112.7,31.3 112.8,31.1 112.9,31 112.9,30.9 113,30.8 113.1,30.7 113.2,30.6 113.2,30.5 113.3,30.4 113.4,30.3 
	113.5,30.1 113.6,30 113.6,29.9 113.7,29.8 113.8,29.7 113.9,29.6 113.9,29.5 114,29.4 114.1,29.3 114.2,29.2 114.3,29.1 114.3,29 
	114.4,28.9 114.5,28.8 114.6,28.7 114.6,28.6 114.7,28.5 114.8,28.4 114.9,28.3 115,28.2 115,28.1 115.1,28 115.2,27.9 115.3,27.8 
	115.3,27.7 115.4,27.6 115.5,27.5 115.6,27.4 115.7,27.3 115.7,27.2 115.8,27.1 115.9,27 116,27 116,26.9 116.1,26.8 116.2,26.7 
	116.3,26.6 116.4,26.5 116.4,26.4 116.5,26.3 116.6,26.2 116.7,26.2 116.7,26.1 116.8,26 116.9,25.9 117,25.8 117.1,25.7 
	117.1,25.7 117.2,25.6 117.3,25.5 117.4,25.4 117.4,25.3 117.5,25.3 117.6,25.2 117.7,25.1 117.8,25 117.8,24.9 117.9,24.9 
	118,24.8 118.1,24.7 118.1,24.6 118.2,24.6 118.3,24.5 118.4,24.4 118.5,24.3 118.5,24.3 118.6,24.2 118.7,24.1 118.8,24.1 
	118.8,24 118.9,23.9 119,23.9 119.1,23.8 119.2,23.7 119.2,23.7 119.3,23.6 119.4,23.5 119.5,23.5 119.5,23.4 119.6,23.3 
	119.7,23.3 119.8,23.2 119.9,23.1 119.9,23.1 120,23 120.1,23 120.2,22.9 120.2,22.8 120.3,22.8 120.4,22.7 120.5,22.7 120.6,22.6 
	120.6,22.6 120.7,22.5 120.8,22.4 120.9,22.4 120.9,22.3 121,22.3 121.1,22.2 121.2,22.2 121.3,22.1 121.3,22.1 121.4,22 121.5,22 
	121.6,21.9 121.6,21.9 121.7,21.8 121.8,21.8 121.9,21.7 122,21.7 122,21.6 122.1,21.6 122.2,21.5 122.3,21.5 122.3,21.5 
	122.4,21.4 122.5,21.4 122.6,21.3 122.7,21.3 122.7,21.2 122.8,21.2 122.9,21.2 123,21.1 123,21.1 123.1,21.1 123.2,21 123.3,21 
	123.4,20.9 123.4,20.9 123.5,20.9 123.6,20.8 123.7,20.8 123.7,20.8 123.8,20.7 123.9,20.7 124,20.7 124.1,20.6 124.1,20.6 
	124.2,20.6 124.3,20.6 124.4,20.5 124.4,20.5 124.5,20.5 124.6,20.4 124.7,20.4 124.8,20.4 124.8,20.4 124.9,20.3 125,20.3 
	125.1,20.3 125.1,20.3 125.2,20.2 125.3,20.2 125.4,20.2 125.5,20.2 125.5,20.2 125.6,20.1 125.7,20.1 125.8,20.1 125.8,20.1 
	125.9,20.1 126,20.1 126.1,20 126.2,20 126.2,20 126.3,20 126.4,20 126.5,20 126.5,20 126.6,19.9 126.7,19.9 126.8,19.9 126.9,19.9 
	126.9,19.9 127,19.9 127.1,19.9 127.2,19.9 127.2,19.9 127.3,19.9 127.4,19.9 127.5,19.8 127.6,19.8 127.6,19.8 127.7,19.8 
	127.8,19.8 127.9,19.8 127.9,19.8 128,19.8 128.1,19.8 128.2,19.8 128.3,19.8 128.3,19.8 128.4,19.8 128.5,19.8 128.6,19.8 
	128.6,19.8 128.7,19.8 128.8,19.8 128.9,19.8 129,19.8 129,19.9 129.1,19.9 129.2,19.9 129.3,19.9 129.3,19.9 129.4,19.9 
	129.5,19.9 129.6,19.9 129.7,19.9 129.7,19.9 129.8,19.9 129.9,20 130,20 130,20 130.1,20 130.2,20 130.3,20 130.4,20 130.4,20.1 
	130.5,20.1 130.6,20.1 130.7,20.1 130.7,20.1 130.8,20.1 130.9,20.2 131,20.2 131.1,20.2 131.1,20.2 131.2,20.2 131.3,20.3 
	131.4,20.3 131.4,20.3 131.5,20.3 131.6,20.4 131.7,20.4 131.8,20.4 131.8,20.4 131.9,20.5 132,20.5 132.1,20.5 132.1,20.6 
	132.2,20.6 132.3,20.6 132.4,20.6 132.5,20.7 132.5,20.7 132.6,20.7 132.7,20.8 132.8,20.8 132.8,20.8 132.9,20.9 133,20.9 
	133.1,20.9 133.2,21 133.2,21 133.3,21.1 133.4,21.1 133.5,21.1 133.5,21.2 133.6,21.2 133.7,21.2 133.8,21.3 133.9,21.3 
	133.9,21.4 134,21.4 134.1,21.5 134.2,21.5 134.2,21.5 134.3,21.6 134.4,21.6 134.5,21.7 134.6,21.7 134.6,21.8 134.7,21.8 
	134.8,21.9 134.9,21.9 134.9,22 135,22 135.1,22.1 135.2,22.1 135.3,22.2 135.3,22.2 135.4,22.3 135.5,22.3 135.6,22.4 135.6,22.4 
	135.7,22.5 135.8,22.6 135.9,22.6 136,22.7 136,22.7 136.1,22.8 136.2,22.8 136.3,22.9 136.3,23 136.4,23 136.5,23.1 136.6,23.1 
	136.7,23.2 136.7,23.3 136.8,23.3 136.9,23.4 137,23.5 137,23.5 137.1,23.6 137.2,23.7 137.3,23.7 137.4,23.8 137.4,23.9 
	137.5,23.9 137.6,24 137.7,24.1 137.7,24.1 137.8,24.2 137.9,24.3 138,24.3 138.1,24.4 138.1,24.5 138.2,24.6 138.3,24.6 
	138.4,24.7 138.4,24.8 138.5,24.9 138.6,24.9 138.7,25 138.8,25.1 138.8,25.2 138.9,25.3 139,25.3 139.1,25.4 139.2,25.5 
	139.2,25.6 139.3,25.7 139.4,25.7 139.5,25.8 139.5,25.9 139.6,26 139.7,26.1 139.8,26.2 139.9,26.2 139.9,26.3 140,26.4 
	140.1,26.5 140.2,26.6 140.2,26.7 140.3,26.8 140.4,26.9 140.5,27 140.6,27 140.6,27.1 140.7,27.2 140.8,27.3 140.9,27.4 
	140.9,27.5 141,27.6 141.1,27.7 141.2,27.8 141.3,27.9 141.3,28 141.4,28.1 141.5,28.2 141.6,28.3 141.6,28.4 141.7,28.5 
	141.8,28.6 141.9,28.7 142,28.8 142,28.9 142.1,29 142.2,29.1 142.3,29.2 142.3,29.3 142.4,29.4 142.5,29.5 142.6,29.6 142.7,29.7 
	142.7,29.8 142.8,29.9 142.9,30 143,30.1 143,30.3 143.1,30.4 143.2,30.5 143.3,30.6 143.4,30.7 143.4,30.8 143.5,30.9 143.6,31 
	143.7,31.1 143.7,31.3 143.8,31.4 143.9,31.5 144,31.6 144.1,31.7 144.1,31.8 144.2,32 144.3,32.1 144.4,32.2 144.4,32.3 
	144.5,32.4 144.6,32.6 144.7,32.7 144.8,32.8 144.8,32.9 144.9,33 145,33.2 145.1,33.3 145.1,33.4 145.2,33.5 145.3,33.7 
	145.4,33.8 145.5,33.9 145.5,34.1 145.6,34.2 145.7,34.3 145.8,34.4 145.8,34.6 145.9,34.7 146,34.8 146.1,35 146.2,35.1 
	146.2,35.2 146.3,35.4 146.4,35.5 146.5,35.6 146.5,35.8 146.6,35.9 146.7,36 146.8,36.2 146.9,36.3 146.9,36.4 147,36.6 
	147.1,36.7 147.2,36.9 147.2,37 147.3,37.1 147.4,37.3 147.5,37.4 147.6,37.6 147.6,37.7 147.7,37.9 147.8,38 147.9,38.1 
	147.9,38.3 148,38.4 148.1,38.6 148.2,38.7 148.3,38.9 148.3,39 148.4,39.2 148.5,39.3 148.6,39.5 148.6,39.6 148.7,39.8 
	148.8,39.9 148.9,40.1 149,40.2 149,40.4 149.1,40.5 149.2,40.7 149.3,40.9 149.3,41 149.4,41.2 149.5,41.3 149.6,41.5 149.7,41.6 
	149.7,41.8 149.8,42 149.9,42.1 150,42.3 150,42.4 150.1,42.6 150.2,42.8 150.3,42.9 150.4,43.1 150.4,43.3 150.5,43.4 150.6,43.6 
	150.7,43.7 150.7,43.9 150.8,44.1 150.9,44.2 151,44.4 151.1,44.6 151.1,44.8 151.2,44.9 151.3,45.1 151.4,45.3 151.4,45.4 
	151.5,45.6 151.6,45.8 151.7,46 151.8,46.1 151.8,46.3 151.9,46.5 152,46.7 152.1,46.8 152.1,47 152.2,47.2 152.3,47.4 152.4,47.5 
	152.5,47.7 152.5,47.9 152.6,48.1 152.7,48.3 152.8,48.4 152.8,48.6 152.9,48.8 153,49 153.1,49.2 153.2,49.4 153.2,49.5 
	153.3,49.7 153.4,49.9 153.5,50.1 153.5,50.3 153.6,50.5 153.7,50.7 153.8,50.8 153.9,51 153.9,51.2 154,51.4 154.1,51.6 
	154.2,51.8 154.2,52 154.3,52.2 154.4,52.4 154.5,52.6 154.6,52.8 154.6,53 154.7,53.2 154.8,53.3 154.9,53.5 154.9,53.7 155,53.9 
	155.1,54.1 155.2,54.3 155.3,54.5 155.3,54.7 155.4,54.9 155.5,55.1 155.6,55.3 155.6,55.5 155.7,55.7 155.8,55.9 155.9,56.2 
	156,56.4 156,56.6 156.1,56.8 156.2,57 156.3,57.2 156.3,57.4 156.4,57.6 156.5,57.8 156.6,58 156.7,58.2 156.7,58.4 156.8,58.6 
	156.9,58.9 157,59.1 157,59.3 157.1,59.5 157.2,59.7 157.3,59.9 157.4,60.1 157.4,60.4 157.5,60.6 157.6,60.8 157.7,61 157.7,61.2 
	157.8,61.4 157.9,61.7 158,61.9 158.1,62.1 158.1,62.3 158.2,62.5 158.3,62.8 158.4,63 158.4,63.2 158.5,63.4 158.6,63.7 
	158.7,63.9 158.8,64.1 158.8,64.3 158.9,64.6 159,64.8 159.1,65 159.1,65.2 159.2,65.5 159.3,65.7 159.4,65.9 159.5,66.2 
	159.5,66.4 159.6,66.6 159.7,66.9 159.8,67.1 159.8,67.3 159.9,67.6 160,67.8 160.1,68 160.2,68.3 160.2,68.5 160.3,68.7 160.4,69 
	160.5,69.2 160.5,69.5 160.6,69.7 160.7,69.9 160.8,70.2 160.9,70.4 160.9,70.7 161,70.9 161.1,71.1 161.2,71.4 161.2,71.6 
	161.3,71.9 161.4,72.1 161.5,72.4 161.6,72.6 161.6,72.9 161.7,73.1 161.8,73.3 161.9,73.6 161.9,73.8 162,74.1 162.1,74.3 
	162.2,74.6 162.3,74.8 162.3,75.1 162.4,75.4 162.5,75.6 162.6,75.9 162.6,76.1 162.7,76.4 162.8,76.6 162.9,76.9 163,77.1 
	163,77.4 163.1,77.6 163.2,77.9 163.3,78.2 163.3,78.4 163.4,78.7 163.5,78.9 163.6,79.2 163.7,79.5 163.7,79.7 163.8,80 
	163.9,80.3 164,80.5 164,80.8 164.1,81 164.2,81.3 164.3,81.6 164.4,81.8 164.4,82.1 164.5,82.4 164.6,82.7 164.7,82.9 164.7,83.2 
	164.8,83.5 164.9,83.7 165,84 165.1,84.3 165.1,84.5 165.2,84.8 165.3,85.1 165.4,85.4 165.4,85.6 165.5,85.9 165.6,86.2 
	165.7,86.5 165.8,86.7 165.8,87 165.9,87.3 166,87.6 166.1,87.9 166.1,88.1 166.2,88.4 166.3,88.7 166.4,89 166.5,89.3 166.5,89.6 
	166.6,89.8 166.7,90.1 166.8,90.4 166.8,90.7 166.9,91 167,91.3 167.1,91.5 "/>
<line fill="none" stroke="#000000" stroke-width="0.3985" stroke-miterlimit="10" x1="89.4" y1="57.4" x2="89.4" y2="-51.8"/>
</svg>
