<?xml version="1.0" encoding="utf-8"?>
<!-- Generator: Adobe Illustrator 22.1.0, SVG Export Plug-In . SVG Version: 6.00 Build 0)  -->
<svg version="1.1" id="Layer_1" xmlns="http://www.w3.org/2000/svg" xmlns:xlink="http://www.w3.org/1999/xlink" x="0px" y="0px"
	 viewBox="0 0 166.3 122.3" enable-background="new 0 0 166.3 122.3" xml:space="preserve">
<g>
	<defs>
		<polyline id="SVGID_1_" points="-30.8,299.1 163.4,299.1 163.4,-145.8 -30.8,-145.8 		"/>
	</defs>
	<clipPath id="SVGID_2_">
		<use xlink:href="#SVGID_1_"  overflow="visible"/>
	</clipPath>
	<path clip-path="url(#SVGID_2_)" fill="none" stroke="#BFBFBF" stroke-width="0.3985" stroke-miterlimit="10" d="M163.4,157.3V-4.1
		 M131.1,157.3V-4.1 M98.7,157.3V-4.1 M66.3,157.3V-4.1 M1.5,157.3V-4.1 M-30.8,157.3V-4.1"/>
</g>
<g>
	<defs>
		<polyline id="SVGID_3_" points="-172.6,157.3 -172.6,-4.1 305.2,-4.1 305.2,157.3 		"/>
	</defs>
	<clipPath id="SVGID_4_">
		<use xlink:href="#SVGID_3_"  overflow="visible"/>
	</clipPath>
	<path clip-path="url(#SVGID_4_)" fill="none" stroke="#BFBFBF" stroke-width="0.3985" stroke-miterlimit="10" d="M0,22.8h163.4
		 M-30.8,22.8H0 M-30.8,130.4h194.3"/>
</g>
<g>
	<defs>
		<polyline id="SVGID_5_" points="-30.8,299.1 163.4,299.1 163.4,-145.8 -30.8,-145.8 		"/>
	</defs>
	<clipPath id="SVGID_6_">
		<use xlink:href="#SVGID_5_"  overflow="visible"/>
	</clipPath>
</g>
<g>
	<defs>
		<polyline id="SVGID_7_" points="-172.6,157.3 -172.6,-4.1 305.2,-4.1 305.2,157.3 		"/>
	</defs>
	<clipPath id="SVGID_8_">
		<use xlink:href="#SVGID_7_"  overflow="visible"/>
	</clipPath>
</g>
<line fill="none" stroke="#000000" stroke-miterlimit="10" x1="40" y1="76.6" x2="94.4" y2="76.6"/>
<line fill="none" stroke="#000000" stroke-miterlimit="10" x1="-30.8" y1="76.6" x2="40" y2="76.6"/>
<g>
	<defs>
		<rect id="SVGID_9_" x="-30.8" y="-4.1" width="194.3" height="161.4"/>
	</defs>
	<clipPath id="SVGID_10_">
		<use xlink:href="#SVGID_9_"  overflow="visible"/>
	</clipPath>
</g>
<text transform="matrix(1 0 0 1 155.5217 85.4644)" font-family="'TimesNewRomanPS-ItalicMT'" font-size="9.9626px">x</text>
<text transform="matrix(1 0 0 1 58.5906 6.36)" font-family="'TimesNewRomanPS-ItalicMT'" font-size="9.9626px">y</text>
<path fill="none" stroke="#0000FF" stroke-width="1.5" stroke-miterlimit="10" d="M98.5,76.5"/>
<path fill="none" stroke="#0000FF" stroke-width="1.5" stroke-miterlimit="10" d="M34.4,76.5"/>
<polyline fill="none" stroke="#0000FF" stroke-width="0.797" stroke-miterlimit="10" points="76.4,81.1 76.5,81 76.6,80.9 "/>
<polyline fill="none" stroke="#0000FF" stroke-width="0.797" stroke-miterlimit="10" points="76.4,81.1 76.5,81 76.6,80.9 "/>
<g>
	<path fill="none" d="M98.8,131"/>
</g>
<g>
	<path fill="none" d="M98.8,77.2"/>
</g>
<g>
	<path fill="none" d="M98.5,130.5"/>
</g>
<g>
	<path fill="none" d="M34.1,76.8"/>
</g>
<path fill="none" stroke="#00FF00" stroke-width="1.5" stroke-miterlimit="10" d="M13.2,94.4"/>
<path fill="none" stroke="#00FF00" stroke-width="1.5" stroke-miterlimit="10" d="M43.8,99.6"/>
<polyline fill="none" stroke="#000000" stroke-miterlimit="10" points="66.5,-2.4 66.5,54.4 66.5,51.4 66.5,156 "/>
<line fill="none" stroke="#BFBFBF" stroke-width="0.3985" stroke-miterlimit="10" x1="33.7" y1="158.5" x2="33.7" y2="-2.9"/>
<path fill="none" stroke="#00FF00" stroke-miterlimit="10" d="M20.8,76.7c0-25.5,20.7-46.2,46.2-46.2s46.2,20.7,46.2,46.2"/>
<path fill="none" stroke="#00FF00" stroke-miterlimit="10" d="M112.9,76.1"/>
<path fill="none" stroke="#00FF00" stroke-miterlimit="10" d="M61.5,76.1"/>
<path fill="none" stroke="#00FF00" stroke-miterlimit="10" d="M54,76.1"/>
<path fill="none" stroke="#00FF00" stroke-miterlimit="10" d="M46.9,76.1"/>
<path fill="none" stroke="#00FF00" stroke-miterlimit="10" d="M38.4,76.1"/>
<path fill="none" stroke="#00FF00" stroke-miterlimit="10" d="M32.9,76.1"/>
<line fill="none" stroke="#00FF00" stroke-miterlimit="10" x1="20.8" y1="76.1" x2="21.8" y2="76.1"/>
<linearGradient id="SVGID_11_" gradientUnits="userSpaceOnUse" x1="34.2579" y1="77.6129" x2="98.3798" y2="77.6129" gradientTransform="matrix(0 1 -1 0 143.9318 11.2941)">
	<stop  offset="0.1103" style="stop-color:#FFFFFF"/>
	<stop  offset="0.9609" style="stop-color:#000000"/>
</linearGradient>
<path fill="url(#SVGID_11_)" stroke="#000000" stroke-miterlimit="10" d="M99.6,45.6c3.1,0,5.5,14.3,5.5,31.9s-2.5,31.9-5.5,31.9
	l0.6-0.1h-67l-0.1,0.3c-3.1,0-5.5-14.3-5.5-31.9S30,45.9,33,45.9l-0.5-0.3h68"/>
<ellipse fill="#FFFFFF" stroke="#000000" stroke-miterlimit="10" cx="99.9" cy="77.1" rx="5.5" ry="31.9"/>
<line fill="none" stroke="#000000" stroke-miterlimit="10" x1="94.4" y1="76.6" x2="163.4" y2="76.6"/>
<text transform="matrix(1 0 0 1 112.7244 85.1391)" font-family="'TimesNewRomanPS-ItalicMT'" font-size="9.9626px">a</text>
<text transform="matrix(1 0 0 1 68.3513 28.5245)" font-family="'TimesNewRomanPS-ItalicMT'" font-size="9.9626px">a</text>
</svg>
