<?xml version="1.0" encoding="utf-8"?>
<!-- Generator: Adobe Illustrator 22.1.0, SVG Export Plug-In . SVG Version: 6.00 Build 0)  -->
<svg version="1.1" xmlns="http://www.w3.org/2000/svg" xmlns:xlink="http://www.w3.org/1999/xlink" x="0px" y="0px"
	 viewBox="0 0 107.5 86.5" enable-background="new 0 0 107.5 86.5" xml:space="preserve">
<g id="Layer_1">
	
		<rect x="10.7" y="21.4" fill="#69C1FA" stroke="#000000" stroke-width="0.398" stroke-miterlimit="10" width="64.8" height="54.1"/>
	<g>
		<defs>
			<polyline id="SVGID_1_" points="-54.1,190 140.2,190 140.2,-254.9 -54.1,-254.9 			"/>
		</defs>
		<clipPath id="SVGID_2_">
			<use xlink:href="#SVGID_1_"  overflow="visible"/>
		</clipPath>
		<path clip-path="url(#SVGID_2_)" fill="none" stroke="#BFBFBF" stroke-width="0.3985" stroke-miterlimit="10" d="M140.2,48.3
			v-161.4 M107.8,95.6V-37.2 M75.4,96.3v-209.4 M43,96.3V-46.6 M-21.7,192v-305.1 M-54.1,229.9v-343 M43-46.6v-66.5 M107.8-37.2v-76
			"/>
	</g>
	<g>
		<defs>
			<polyline id="SVGID_3_" points="-195.8,48.3 -195.8,-113.1 281.9,-113.1 281.9,48.3 			"/>
		</defs>
		<clipPath id="SVGID_4_">
			<use xlink:href="#SVGID_3_"  overflow="visible"/>
		</clipPath>
		<path clip-path="url(#SVGID_4_)" fill="none" stroke="#BFBFBF" stroke-width="0.3985" stroke-miterlimit="10" d="M-54.1-86.2
			h363.4 M-54.1,21.4h323.3"/>
	</g>
	<g>
		<defs>
			<line id="SVGID_5_" x1="140.2" y1="-254.9" x2="-54.1" y2="-254.9"/>
		</defs>
		<defs>
			<line id="SVGID_6_" x1="-54.1" y1="190" x2="140.2" y2="190"/>
		</defs>
		<clipPath id="SVGID_7_">
			<use xlink:href="#SVGID_5_"  overflow="visible"/>
		</clipPath>
		<clipPath id="SVGID_8_" clip-path="url(#SVGID_7_)">
			<use xlink:href="#SVGID_6_"  overflow="visible"/>
		</clipPath>
	</g>
	<g>
		<defs>
			<polyline id="SVGID_9_" points="-195.8,48.3 -195.8,-113.1 281.9,-113.1 281.9,48.3 			"/>
		</defs>
		<clipPath id="SVGID_10_">
			<use xlink:href="#SVGID_9_"  overflow="visible"/>
		</clipPath>
	</g>
	<line fill="none" stroke="#000000" stroke-miterlimit="10" x1="10.7" y1="144.3" x2="10.7" y2="-113.1"/>
	<text transform="matrix(1 0 0 1 100.4224 73.9554)" font-family="'TimesNewRomanPS-ItalicMT'" font-size="9.9626px">x</text>
	<text transform="matrix(1 0 0 1 13.2194 5.463)" font-family="'TimesNewRomanPS-ItalicMT'" font-size="9.9626px">y</text>
	<path fill="none" stroke="#0000FF" stroke-width="1.5" stroke-miterlimit="10" d="M75.3-32.6"/>
	<path fill="none" stroke="#0000FF" stroke-width="1.5" stroke-miterlimit="10" d="M11.1-32.6"/>
	<polyline fill="none" stroke="#0000FF" stroke-width="0.797" stroke-miterlimit="10" points="53.2,-28 53.2,-28.1 53.3,-28.1 	"/>
	<polyline fill="none" stroke="#0000FF" stroke-width="0.797" stroke-miterlimit="10" points="53.2,-28 53.2,-28.1 53.3,-28.1 	"/>
	<g>
		<path fill="none" d="M75.5,21.9"/>
	</g>
	<g>
		<path fill="none" d="M75.5-31.9"/>
	</g>
	<g>
		<path fill="none" d="M75.3,21.5"/>
	</g>
	<g>
		<path fill="none" d="M10.9-32.2"/>
	</g>
	<line fill="none" stroke="#BFBFBF" stroke-width="0.3985" stroke-miterlimit="10" x1="172.7" y1="90.1" x2="172.7" y2="-37.5"/>
	<line fill="none" stroke="#BFBFBF" stroke-width="0.3985" stroke-miterlimit="10" x1="237" y1="48.6" x2="237" y2="-112.8"/>
	<line fill="none" stroke="#BFBFBF" stroke-width="0.3985" stroke-miterlimit="10" x1="204.6" y1="88.1" x2="204.6" y2="-40.7"/>
	<path fill="none" stroke="#BFBFBF" stroke-width="0.3985" stroke-miterlimit="10" d="M172.2-112.8"/>
	<path fill="none" stroke="#BFBFBF" stroke-width="0.3985" stroke-miterlimit="10" d="M172.2,48.6"/>
	<path fill="none" stroke="#BFBFBF" stroke-width="0.3985" stroke-miterlimit="10" d="M107.5-112.8"/>
	<path fill="none" stroke="#BFBFBF" stroke-width="0.3985" stroke-miterlimit="10" d="M107.5,48.6"/>
	<path fill="none" d="M75.2,128"/>
	<path fill="none" d="M75.2-5.1"/>
	<line fill="none" stroke="#BFBFBF" stroke-width="0.3985" stroke-miterlimit="10" x1="268.3" y1="49.5" x2="268.3" y2="-111.9"/>
	<line fill="none" stroke="#BFBFBF" stroke-width="0.3985" stroke-miterlimit="10" x1="236.8" y1="90.1" x2="236.8" y2="-47.2"/>
	<line fill="none" x1="268.8" y1="-111.9" x2="268.8" y2="49.5"/>
	<path fill="none" stroke="#000000" stroke-width="0.3" stroke-miterlimit="10" d="M42.8-45.8"/>
	<path fill="none" stroke="#000000" stroke-miterlimit="10" stroke-dasharray="6" d="M140.1-35.9"/>
	<line fill="none" stroke="#BFBFBF" stroke-width="0.3985" stroke-miterlimit="10" x1="172.7" y1="-37.5" x2="172.7" y2="-112.8"/>
	<line fill="none" stroke="#BFBFBF" stroke-width="0.3985" stroke-miterlimit="10" x1="204.6" y1="-40.7" x2="204.6" y2="-112.8"/>
	<line fill="none" x1="75.1" y1="-112.8" x2="75.1" y2="-39.4"/>
	<line fill="none" stroke="#BFBFBF" stroke-width="0.3985" stroke-miterlimit="10" x1="236.8" y1="-47.2" x2="236.8" y2="-112.2"/>
	<line fill="none" stroke="#BFBFBF" stroke-width="0.3985" stroke-miterlimit="10" x1="107.6" y1="-37.3" x2="107.6" y2="-112.6"/>
	<line fill="none" stroke="#BFBFBF" stroke-width="0.3985" stroke-miterlimit="10" x1="75.4" y1="-39.8" x2="75.4" y2="-111.8"/>
	<line fill="none" stroke="#BFBFBF" stroke-width="0.3985" stroke-miterlimit="10" x1="140.2" y1="-37.3" x2="140.4" y2="-112"/>
	<g>
		<defs>
			<polyline id="SVGID_11_" points="-208.6,102.4 -208.6,-59 269.2,-59 269.2,102.4 			"/>
		</defs>
		<clipPath id="SVGID_12_">
			<use xlink:href="#SVGID_11_"  overflow="visible"/>
		</clipPath>
		<path clip-path="url(#SVGID_12_)" fill="none" stroke="#BFBFBF" stroke-width="0.3985" stroke-miterlimit="10" d="M-66.8-32.1
			h363.4 M-66.8,75.5h230.9"/>
	</g>
	<line fill="none" stroke="#000000" stroke-miterlimit="10" x1="-64.5" y1="75.5" x2="300.5" y2="75.5"/>
	<line fill="none" stroke="#BFBFBF" stroke-width="0.3985" stroke-miterlimit="10" x1="140.1" y1="104.6" x2="140.1" y2="-28.1"/>
	<line fill="none" stroke="#BFBFBF" stroke-width="0.398" stroke-miterlimit="10" x1="-54.1" y1="-5.1" x2="226" y2="-5.1"/>
	<line fill="none" stroke="#BFBFBF" stroke-width="0.398" stroke-miterlimit="10" x1="-54.1" y1="49.5" x2="226" y2="49.5"/>
	<line fill="none" stroke="#BFBFBF" stroke-width="0.398" stroke-miterlimit="10" x1="-54.1" y1="-59" x2="226" y2="-59"/>
	<text transform="matrix(1 0 0 1 40.4236 85.2399)" font-family="'TimesNewRomanPSMT'" font-size="9.9626px">1</text>
	<text transform="matrix(1 0 0 1 3.7833 52.6947)" font-family="'TimesNewRomanPSMT'" font-size="9.9626px">1</text>
</g>
<g id="Layer_2">
	<polygon fill="#FFFF00" points="11.1,75.5 33.8,50.9 58.2,21.7 11.1,21.7 	"/>
	<path fill="#FFFF00" stroke="#000000" stroke-miterlimit="10" d="M58.2,21.5c-3,8.4-9.6,25.6-24.2,41.2c-8.3,8.8-17.8,13-23.8,13"
		/>
</g>
</svg>
