<?xml version="1.0" encoding="UTF-8" standalone="no"?>
<svg
   xmlns:dc="http://purl.org/dc/elements/1.1/"
   xmlns:cc="http://creativecommons.org/ns#"
   xmlns:rdf="http://www.w3.org/1999/02/22-rdf-syntax-ns#"
   xmlns:svg="http://www.w3.org/2000/svg"
   xmlns="http://www.w3.org/2000/svg"
   xmlns:sodipodi="http://sodipodi.sourceforge.net/DTD/sodipodi-0.dtd"
   xmlns:inkscape="http://www.inkscape.org/namespaces/inkscape"
   version="1.1"
   id="svg2"
   inkscape:version="0.48.5 r10040"
   width="499"
   height="208.827"
   sodipodi:docname="u4app1_extrema.svg">
  <metadata
     id="metadata57">
    <rdf:RDF>
      <cc:Work
         rdf:about="">
        <dc:format>image/svg+xml</dc:format>
        <dc:type
           rdf:resource="http://purl.org/dc/dcmitype/StillImage" />
      </cc:Work>
    </rdf:RDF>
  </metadata>
  <sodipodi:namedview
     pagecolor="#ffffff"
     bordercolor="#666666"
     borderopacity="1"
     objecttolerance="10"
     gridtolerance="10"
     guidetolerance="10"
     inkscape:pageopacity="0"
     inkscape:pageshadow="2"
     inkscape:window-width="1064"
     inkscape:window-height="684"
     id="namedview55"
     showgrid="false"
     fit-margin-top="0"
     fit-margin-left="0"
     fit-margin-right="0"
     fit-margin-bottom="0"
     inkscape:zoom="2"
     inkscape:cx="264.18028"
     inkscape:cy="114.27441"
     inkscape:window-x="117"
     inkscape:window-y="204"
     inkscape:window-maximized="0"
     inkscape:current-layer="g4" />
  <g
     transform="translate(-66,-75)"
     id="g4">
    <g
       clip-path="url(#cp1)"
       id="g6"
       style="stroke-width:2.18750000000000000;stroke-miterlimit:4;stroke-dasharray:none;fill:#000000;fill-opacity:0">
      <clipPath
         id="cp1">
        <polygon
           points="565,75 66,75 66,284 565,284 "
           id="polygon9" />
      </clipPath>
      <polyline
         points="61.782,138.704 61.8237,138.657 61.8653,138.611 61.9486,138.519 62.1152,138.336 62.4484,137.973 63.1147,137.257 64.4475,135.871 67.3371,133.081 70.0352,130.748 72.6804,128.725 72.7253,128.693 72.7701,128.661 72.8598,128.597 73.0391,128.471 73.3978,128.222 74.1151,127.739 75.5498,126.834 75.5917,126.808 75.6335,126.783 75.7172,126.733 75.8846,126.634 76.2193,126.439 76.8888,126.061 76.9306,126.038 76.9725,126.015 77.0562,125.97 77.2235,125.879 77.5583,125.702 78.2278,125.36 78.2731,125.337 78.3185,125.315 78.4091,125.27 78.5905,125.182 78.9533,125.01 79.6788,124.681 79.7242,124.661 79.7695,124.641 79.8602,124.602 80.0416,124.524 80.4044,124.373 81.1299,124.087 81.1744,124.07 81.2189,124.053 81.308,124.02 81.486,123.954 81.8422,123.826 82.5545,123.586 82.599,123.572 82.6435,123.558 82.7326,123.53 82.9106,123.474 83.2668,123.367 83.9791,123.169 84.0206,123.158 84.0621,123.147 84.1452,123.125 84.3113,123.083 84.6435,123.002 84.685,122.993 84.7266,122.983 84.8096,122.964 84.9757,122.926 85.3079,122.854 85.3495,122.846 85.391,122.837 85.474,122.82 85.6401,122.787 85.9724,122.724 86.0139,122.717 86.0554,122.709 86.1385,122.695 86.3046,122.666 86.6368,122.613 86.6818,122.606 86.7268,122.599 86.8169,122.585 86.997,122.56 87.0421,122.553 87.0871,122.547 87.1771,122.535 87.3573,122.512 87.4023,122.506 87.4473,122.501 87.5374,122.49 87.7175,122.47 88.0777,122.433 88.1228,122.429 88.1678,122.425 88.2579,122.417 88.438,122.401 88.483,122.398 88.528,122.394 88.6181,122.388 88.7982,122.375 88.8432,122.372 88.8883,122.37 88.9783,122.364 89.0234,122.362 89.0684,122.359 89.1585,122.355 89.2035,122.352 89.2485,122.35 89.3386,122.346 89.3836,122.344 89.4286,122.342 89.5187,122.339 89.5607,122.338 89.6028,122.336 89.6448,122.335 89.6868,122.334 89.7289,122.333 89.7709,122.332 89.855,122.33 89.897,122.329 89.9391,122.328 89.9811,122.327 90.0231,122.327 90.0652,122.326 90.1072,122.326 90.1493,122.325 90.1913,122.325 90.2333,122.325 90.2754,122.324 90.3174,122.324 90.3594,122.324 90.4015,122.324 90.4435,122.324 90.4856,122.324 90.5276,122.325 90.5696,122.325 90.6117,122.325 90.6537,122.326 90.6958,122.326 90.7378,122.327 90.7798,122.328 90.8219,122.328 90.8639,122.329 90.9059,122.33 90.948,122.331 90.99,122.332 91.0321,122.333 91.0741,122.334 91.1161,122.336 91.2002,122.338 91.2422,122.34 91.2843,122.341 91.3684,122.345 91.5365,122.352 91.5785,122.354 91.6206,122.357 91.7047,122.361 91.8728,122.371 91.9148,122.374 91.9569,122.376 92.041,122.382 92.2091,122.394 92.2503,122.397 92.2915,122.401 92.374,122.407 92.5388,122.422 92.58,122.425 92.6212,122.429 92.7036,122.437 92.8685,122.453 92.9097,122.458 92.9509,122.462 93.0333,122.471 93.1982,122.49 93.5279,122.531 93.5691,122.536 93.6103,122.542 93.6927,122.553 93.8575,122.576 94.1872,122.626 94.8466,122.739 94.8913,122.747 94.936,122.756 95.0255,122.773 95.2043,122.808 95.562,122.882 96.2774,123.046 96.3222,123.057 96.3669,123.068 96.4563,123.09 96.6352,123.136 96.9929,123.231 97.7083,123.437 97.75,123.45 97.7917,123.463 97.8752,123.488 98.0421,123.54 98.3758,123.648 99.0434,123.878 99.0851,123.893 99.1268,123.908 99.2103,123.938 99.3772,123.999 99.7109,124.125 100.378,124.391 100.424,124.409 100.469,124.428 100.559,124.466 100.74,124.542 101.102,124.699 101.826,125.028 103.273,125.75 103.317,125.773 103.362,125.797 103.45,125.844 103.628,125.94 103.983,126.134 104.694,126.539 106.114,127.408 108.764,129.238 111.639,131.525 114.321,133.935 117.228,136.838 120.082,139.97 122.745,143.134 125.631,146.816 128.326,150.476 130.969,154.26 133.835,158.571 136.51,162.771 139.409,167.499 142.256,172.302 144.91,176.908 147.789,182.022 150.477,186.891 153.111,191.736 155.97,197.054 158.637,202.056 161.529,207.501 164.229,212.589 166.876,217.561 169.747,222.918 172.427,227.864 175.331,233.146 178.182,238.233 180.841,242.873 183.725,247.768 186.417,252.195 189.056,256.385 191.92,260.747 194.592,264.629 194.639,264.695 194.685,264.761 194.778,264.893 194.965,265.156 195.338,265.678 196.083,266.712 196.13,266.776 196.177,266.84 196.27,266.968 196.456,267.223 196.829,267.73 196.876,267.793 196.922,267.856 197.015,267.982 197.202,268.233 197.249,268.296 197.295,268.358 197.388,268.483 197.435,268.545 197.482,268.608 197.528,268.67 197.575,268.732 "
         id="polyline11"
         style="fill:#000000;stroke:#3f3d99;stroke-width:2.18750000000000000;stroke-opacity:1;stroke-miterlimit:4;stroke-dasharray:none;fill-opacity:0" />
      <polyline
         points="197.575,268.732 197.641,268.649 197.706,268.567 197.838,268.402 198.101,268.071 198.627,267.41 199.679,266.09 201.783,263.459 206.346,257.846 210.606,252.797 214.783,248.11 219.313,243.4 223.542,239.42 228.124,235.613 228.194,235.559 228.265,235.505 228.405,235.398 228.686,235.184 229.249,234.764 230.373,233.949 232.623,232.423 232.688,232.381 232.754,232.339 232.885,232.255 233.147,232.088 233.672,231.76 234.721,231.126 236.819,229.95 236.89,229.912 236.961,229.875 237.103,229.8 237.388,229.652 237.957,229.363 239.094,228.81 239.165,228.777 239.236,228.744 239.379,228.678 239.663,228.547 240.232,228.292 241.369,227.809 241.436,227.782 241.502,227.755 241.635,227.701 241.9,227.595 242.431,227.388 243.493,226.995 243.56,226.971 243.626,226.948 243.759,226.901 244.024,226.809 244.555,226.63 245.618,226.293 245.683,226.274 245.748,226.254 245.878,226.215 246.138,226.138 246.659,225.989 247.7,225.709 247.765,225.693 247.83,225.676 247.96,225.643 248.22,225.578 248.741,225.454 249.782,225.222 249.853,225.207 249.923,225.192 250.064,225.162 250.347,225.105 250.912,224.995 250.982,224.982 251.053,224.968 251.194,224.942 251.476,224.891 252.041,224.794 252.112,224.782 252.182,224.77 252.324,224.747 252.606,224.702 253.171,224.616 254.3,224.461 254.366,224.453 254.432,224.445 254.564,224.428 254.827,224.397 255.354,224.336 255.42,224.329 255.486,224.322 255.618,224.308 255.881,224.28 256.408,224.228 256.474,224.222 256.54,224.216 256.672,224.204 256.935,224.181 257.462,224.137 257.528,224.131 257.594,224.126 257.726,224.116 257.99,224.096 258.517,224.06 258.588,224.055 258.659,224.051 258.802,224.042 259.088,224.024 259.159,224.02 259.231,224.016 259.373,224.008 259.659,223.992 259.73,223.988 259.802,223.985 259.945,223.978 260.23,223.964 260.802,223.939 260.873,223.936 260.944,223.933 261.087,223.928 261.373,223.917 261.444,223.915 261.516,223.912 261.658,223.907 261.944,223.898 262.016,223.896 262.087,223.894 262.23,223.89 262.515,223.882 262.587,223.881 262.658,223.879 262.801,223.875 263.087,223.869 263.157,223.867 263.227,223.866 263.367,223.863 263.647,223.858 263.718,223.857 263.788,223.856 263.928,223.853 264.208,223.849 264.278,223.848 264.348,223.847 264.489,223.845 264.559,223.845 264.629,223.844 264.769,223.842 264.839,223.841 264.909,223.841 265.049,223.839 265.33,223.837 265.4,223.836 265.47,223.836 265.61,223.834 265.68,223.834 265.751,223.834 265.891,223.833 265.961,223.832 266.031,223.832 266.171,223.831 266.241,223.831 266.311,223.83 266.452,223.83 266.522,223.83 266.592,223.829 266.662,223.829 266.732,223.829 266.802,223.829 266.872,223.828 267.012,223.828 267.082,223.828 267.153,223.828 267.223,223.828 267.293,223.827 267.363,223.827 267.433,223.827 267.503,223.827 267.573,223.827 267.639,223.827 267.704,223.827 267.769,223.827 267.835,223.827 267.9,223.827 267.965,223.827 268.031,223.826 268.096,223.826 268.162,223.826 268.227,223.826 268.292,223.826 268.358,223.826 268.423,223.826 268.488,223.826 268.554,223.826 268.619,223.826 268.685,223.826 268.75,223.826 268.815,223.826 268.881,223.826 268.946,223.826 269.011,223.826 269.077,223.826 269.142,223.826 269.208,223.826 269.273,223.826 269.338,223.826 269.404,223.826 269.469,223.826 269.534,223.826 269.6,223.826 269.665,223.826 269.731,223.826 269.796,223.826 269.861,223.826 269.927,223.826 269.992,223.826 270.058,223.826 270.123,223.826 270.188,223.826 270.254,223.826 270.319,223.826 270.384,223.826 270.45,223.826 270.515,223.826 270.581,223.826 270.711,223.825 270.777,223.825 270.842,223.825 270.907,223.825 270.973,223.825 271.038,223.825 271.104,223.825 271.234,223.824 271.3,223.824 271.365,223.824 271.496,223.823 271.561,223.823 271.627,223.823 271.757,223.822 271.828,223.822 271.899,223.822 272.041,223.821 272.112,223.82 272.183,223.82 272.325,223.819 272.396,223.819 272.466,223.818 272.608,223.817 272.892,223.815 272.963,223.814 273.034,223.813 273.176,223.812 273.246,223.811 273.317,223.811 273.459,223.809 273.53,223.808 273.601,223.807 273.743,223.805 274.026,223.801 274.097,223.8 274.168,223.799 274.31,223.797 274.594,223.792 274.665,223.79 274.736,223.789 274.877,223.786 275.161,223.78 275.232,223.779 275.303,223.777 275.445,223.773 275.728,223.766 276.296,223.75 276.362,223.747 276.428,223.745 276.56,223.741 276.825,223.732 276.891,223.729 276.957,223.727 277.09,223.722 277.354,223.711 277.421,223.708 277.487,223.705 277.619,223.7 277.884,223.688 278.413,223.661 278.48,223.658 278.546,223.654 278.678,223.647 278.943,223.632 279.472,223.599 279.539,223.595 279.605,223.591 279.737,223.582 280.002,223.563 280.531,223.524 280.603,223.518 280.675,223.512 280.818,223.5 281.105,223.476 281.679,223.424 281.751,223.418 281.822,223.411 281.966,223.397 282.253,223.368 282.826,223.306 282.898,223.298 282.97,223.29 283.113,223.274 283.4,223.24 283.974,223.167 285.121,223.006 285.192,222.996 285.262,222.985 285.403,222.963 285.684,222.919 286.248,222.825 287.374,222.62 287.445,222.606 287.515,222.593 287.656,222.565 287.938,222.508 288.501,222.39 289.627,222.133 289.693,222.117 289.759,222.101 289.89,222.069 290.153,222.004 290.678,221.868 291.729,221.579 291.795,221.56 291.861,221.541 291.992,221.503 292.255,221.425 292.78,221.264 293.831,220.923 293.903,220.899 293.974,220.874 294.116,220.826 294.401,220.726 294.971,220.522 296.11,220.089 296.182,220.061 296.253,220.033 296.395,219.976 296.68,219.86 297.25,219.623 298.389,219.122 298.456,219.092 298.522,219.062 298.655,219.001 298.921,218.877 299.453,218.624 300.517,218.095 302.645,216.946 302.71,216.909 302.775,216.871 302.906,216.796 303.166,216.645 303.688,216.337 304.731,215.698 306.817,214.33 311.343,210.953 315.566,207.313 320.144,202.876 324.638,198.081 328.83,193.285 333.376,187.818 337.619,182.554 341.779,177.332 346.293,171.698 350.504,166.567 355.069,161.241 359.333,156.576 363.512,152.359 368.046,148.248 372.277,144.887 372.348,144.834 372.42,144.782 372.563,144.677 372.85,144.469 373.423,144.06 374.569,143.268 376.862,141.794 376.932,141.751 377.003,141.708 377.143,141.623 377.425,141.454 377.987,141.123 379.113,140.488 379.183,140.449 379.253,140.41 379.394,140.334 379.675,140.183 380.238,139.886 381.364,139.32 381.429,139.288 381.495,139.256 381.626,139.193 381.888,139.067 382.413,138.822 383.463,138.354 383.529,138.325 383.594,138.297 383.726,138.241 383.988,138.13 384.513,137.914 385.563,137.503 385.634,137.476 385.705,137.449 385.847,137.396 386.132,137.292 386.701,137.089 387.839,136.707 387.911,136.684 387.982,136.661 388.124,136.616 388.409,136.527 388.978,136.356 390.116,136.035 390.183,136.017 390.249,136 390.382,135.964 390.647,135.895 391.179,135.762 392.242,135.514 392.308,135.499 392.374,135.485 392.507,135.456 392.773,135.399 393.304,135.29 394.367,135.088 394.432,135.077 394.497,135.065 394.627,135.042 394.888,134.998 395.409,134.912 395.474,134.902 395.539,134.891 395.669,134.871 395.93,134.831 396.451,134.756 396.516,134.746 396.581,134.737 396.711,134.719 396.972,134.685 397.492,134.618 398.534,134.498 398.605,134.491 398.676,134.483 398.817,134.469 399.099,134.441 399.665,134.387 399.735,134.381 399.806,134.375 399.947,134.363 400.23,134.339 400.795,134.295 400.866,134.289 400.936,134.284 401.078,134.274 401.36,134.255 401.925,134.219 401.996,134.214 402.067,134.21 402.208,134.202 402.49,134.186 403.056,134.158 403.122,134.154 403.188,134.151 403.319,134.145 403.583,134.134 403.649,134.131 403.715,134.128 403.847,134.123 404.11,134.113 404.176,134.11 404.242,134.108 404.374,134.103 404.638,134.094 405.165,134.078 405.231,134.077 405.297,134.075 405.429,134.071 405.693,134.065 405.758,134.063 405.824,134.062 405.956,134.059 406.22,134.053 406.286,134.052 406.352,134.051 406.484,134.048 406.747,134.044 406.813,134.043 406.879,134.041 407.011,134.039 407.275,134.036 407.348,134.035 407.422,134.034 407.569,134.032 407.643,134.031 407.716,134.03 407.863,134.029 407.937,134.028 408.011,134.027 408.158,134.026 408.452,134.024 408.526,134.023 408.599,134.022 408.746,134.021 408.82,134.021 408.894,134.021 409.041,134.02 409.114,134.019 409.188,134.019 409.335,134.018 409.409,134.018 409.482,134.018 409.629,134.017 409.703,134.017 409.777,134.017 409.85,134.017 409.924,134.016 409.997,134.016 410.071,134.016 410.218,134.016 410.292,134.016 410.365,134.015 410.439,134.015 410.513,134.015 410.586,134.015 410.66,134.015 410.733,134.015 410.807,134.015 410.88,134.015 410.954,134.015 411.028,134.015 411.101,134.015 411.175,134.015 411.248,134.015 411.322,134.015 411.396,134.015 411.469,134.015 411.543,134.015 411.616,134.015 411.69,134.015 411.764,134.015 411.837,134.015 411.911,134.015 411.984,134.015 "
         id="polyline13"
         style="fill:#000000;stroke:#3f3d99;stroke-width:2.18750000000000000;stroke-opacity:1;stroke-miterlimit:4;stroke-dasharray:none;fill-opacity:0" />
      <polyline
         points="411.984,134.015 412.006,134.015 412.028,134.015 412.05,134.015 412.072,134.015 412.094,134.015 412.116,134.015 412.138,134.015 412.16,134.015 412.182,134.015 412.203,134.015 412.225,134.015 412.247,134.015 412.269,134.015 412.291,134.015 412.335,134.016 412.357,134.016 412.379,134.016 412.423,134.016 412.445,134.016 412.467,134.017 412.51,134.017 412.532,134.017 412.554,134.017 412.598,134.018 412.686,134.019 412.708,134.019 412.73,134.019 412.773,134.02 412.861,134.021 412.883,134.021 412.905,134.022 412.949,134.022 413.036,134.024 413.058,134.024 413.08,134.025 413.124,134.025 413.212,134.027 413.387,134.031 413.411,134.031 413.435,134.032 413.482,134.033 413.577,134.036 413.767,134.041 413.791,134.042 413.815,134.042 413.862,134.044 413.957,134.047 414.148,134.053 414.171,134.054 414.195,134.055 414.243,134.057 414.338,134.06 414.528,134.068 414.908,134.084 414.93,134.085 414.952,134.087 414.997,134.089 415.086,134.093 415.263,134.102 415.618,134.122 415.64,134.123 415.662,134.124 415.707,134.127 415.796,134.132 415.973,134.143 416.328,134.167 416.35,134.168 416.372,134.17 416.415,134.173 416.502,134.179 416.676,134.191 417.024,134.218 417.72,134.276 417.744,134.278 417.767,134.28 417.815,134.284 417.909,134.293 418.098,134.311 418.475,134.347 419.231,134.426 419.253,134.428 419.275,134.43 419.319,134.435 419.407,134.445 419.583,134.465 419.935,134.506 420.64,134.593 422.167,134.802 423.667,135.036 425.066,135.276 426.583,135.56 427.999,135.846 429.387,136.144 430.893,136.487 432.298,136.822 433.822,137.203 435.317,137.59 436.712,137.964 438.225,138.38 439.637,138.778 441.166,139.218 442.669,139.656 444.07,140.071 445.589,140.523 447.008,140.948 448.398,141.365 449.907,141.817 451.315,142.237 452.841,142.688 454.339,143.125 455.736,143.526 457.251,143.953 458.666,144.343 460.052,144.715 461.557,145.105 462.961,145.457 464.483,145.822 465.904,146.146 467.297,146.447 468.808,146.754 470.218,147.019 471.747,147.284 473.247,147.517 474.647,147.711 474.671,147.714 474.694,147.717 474.742,147.723 474.837,147.735 475.026,147.759 475.406,147.806 476.165,147.893 476.187,147.895 476.209,147.898 476.253,147.903 476.342,147.912 476.519,147.931 476.873,147.967 477.582,148.035 477.603,148.037 477.625,148.039 477.669,148.043 477.755,148.05 477.929,148.066 478.276,148.094 478.298,148.096 478.32,148.098 478.363,148.101 478.45,148.108 478.624,148.122 478.971,148.147 478.994,148.149 479.018,148.15 479.065,148.153 479.159,148.16 479.348,148.172 479.724,148.196 479.748,148.197 479.771,148.199 479.819,148.201 479.913,148.207 480.101,148.217 480.478,148.236 480.5,148.237 480.522,148.238 480.566,148.24 480.654,148.244 480.83,148.252 480.851,148.253 480.873,148.254 480.917,148.256 481.005,148.259 481.181,148.266 481.203,148.267 481.225,148.268 481.269,148.269 481.357,148.272 481.533,148.278 481.555,148.279 481.577,148.28 481.621,148.281 481.708,148.283 481.884,148.288 481.909,148.289 481.933,148.289 481.982,148.291 482.08,148.293 482.105,148.294 482.13,148.294 482.179,148.295 482.277,148.297 482.301,148.298 482.326,148.298 482.375,148.299 482.473,148.301 482.498,148.301 482.522,148.301 482.571,148.302 482.669,148.303 482.694,148.304 482.718,148.304 482.767,148.305 482.792,148.305 482.816,148.305 482.865,148.306 482.89,148.306 482.915,148.306 482.964,148.307 482.988,148.307 483.013,148.307 483.062,148.307 483.086,148.307 483.111,148.308 483.135,148.308 483.16,148.308 483.184,148.308 483.209,148.308 483.233,148.308 483.258,148.308 483.282,148.308 483.307,148.308 483.332,148.308 483.356,148.309 483.381,148.309 483.405,148.309 483.43,148.309 483.454,148.309 "
         id="polyline15"
         style="fill:#000000;stroke:#3f3d99;stroke-width:2.18750000000000000;stroke-opacity:1;stroke-miterlimit:4;stroke-dasharray:none;fill-opacity:0" />
      <polyline
         points="483.454,148.309 483.487,148.309 483.52,148.309 483.553,148.309 483.586,148.308 483.619,148.308 483.651,148.308 483.684,148.308 483.717,148.308 483.75,148.308 483.783,148.308 483.816,148.307 483.849,148.307 483.882,148.307 483.914,148.307 483.98,148.306 484.013,148.306 484.046,148.306 484.112,148.305 484.145,148.305 484.177,148.304 484.243,148.303 484.276,148.303 484.309,148.302 484.375,148.301 484.506,148.299 484.539,148.299 484.572,148.298 484.638,148.297 484.769,148.294 484.802,148.293 484.835,148.293 484.901,148.291 485.032,148.288 485.065,148.287 485.098,148.286 485.164,148.284 485.295,148.28 485.558,148.271 485.594,148.27 485.63,148.269 485.701,148.266 485.844,148.261 486.129,148.249 486.164,148.247 486.2,148.245 486.271,148.242 486.414,148.235 486.699,148.22 486.735,148.218 486.77,148.216 486.842,148.212 486.984,148.204 487.269,148.186 487.84,148.147 487.873,148.145 487.906,148.142 487.973,148.137 488.106,148.127 488.372,148.106 488.905,148.059 488.938,148.056 488.971,148.053 489.038,148.047 489.171,148.034 489.437,148.008 489.97,147.952 490.002,147.949 490.035,147.945 490.1,147.938 490.231,147.923 490.492,147.893 491.014,147.829 491.047,147.825 491.079,147.82 491.145,147.812 491.275,147.795 491.536,147.76 492.058,147.687 492.094,147.682 492.129,147.677 492.2,147.666 492.341,147.646 492.624,147.603 493.191,147.513 494.323,147.317 494.357,147.311 494.39,147.305 494.456,147.293 494.588,147.268 494.852,147.218 495.381,147.114 496.438,146.893 498.729,146.35 500.978,145.731 503.076,145.076 505.352,144.283 507.476,143.464 509.558,142.588 511.817,141.555 513.925,140.514 516.21,139.301 518.453,138.025 520.545,136.759 522.815,135.302 524.932,133.865 527.227,132.223 529.481,130.524 531.582,128.863 533.861,126.977 535.989,125.139 538.075,123.262 540.338,121.144 542.45,119.089 544.739,116.778 546.986,114.423 549.082,112.151 551.355,109.603 553.476,107.146 555.556,104.665 557.813,101.89 559.919,99.2235 562.202,96.249 564.333,93.3926 566.423,90.5181 568.69,87.3172 570.805,84.2519 573.098,80.8454 575.349,77.4151 577.448,74.1385 579.725,70.502 581.85,67.0285 583.934,63.5496 586.195,59.6928 588.304,56.0164 588.341,55.9516 588.378,55.8868 588.451,55.7572 588.598,55.4975 588.893,54.9771 589.482,53.932 589.518,53.8665 589.555,53.801 589.629,53.6698 589.776,53.4073 590.07,52.8811 590.107,52.8152 590.144,52.7493 590.217,52.6174 590.365,52.3534 590.401,52.2873 590.438,52.2213 590.512,52.089 590.549,52.0229 590.585,51.9567 590.622,51.8905 590.659,51.8243 "
         id="polyline17"
         style="fill:#000000;stroke:#3f3d99;stroke-width:2.18750000000000000;stroke-opacity:1;stroke-miterlimit:4;stroke-dasharray:none;fill-opacity:0" />
      <ellipse
         cx="162"
         cy="208"
         rx="2.1441"
         ry="2.1441"
         id="ellipse25-0"
         d="m 164.1441,208 c 0,1.18415 -0.95995,2.1441 -2.1441,2.1441 -1.18415,0 -2.1441,-0.95995 -2.1441,-2.1441 0,-1.18415 0.95995,-2.1441 2.1441,-2.1441 1.18415,0 2.1441,0.95995 2.1441,2.1441 z"
         sodipodi:cx="162"
         sodipodi:cy="208"
         sodipodi:rx="2.1441"
         sodipodi:ry="2.1441"
         style="fill:#3f3d99;fill-opacity:1;stroke:#3f3d99;stroke-width:2.1875;stroke-miterlimit:4;stroke-opacity:1;stroke-dasharray:none"
         transform="matrix(1.2353877,0,0,1.2353877,71.629343,-33.395796)" />
      <ellipse
         cx="162"
         cy="208"
         rx="2.1441"
         ry="2.1441"
         id="ellipse25-0-9"
         d="m 164.1441,208 c 0,1.18415 -0.95995,2.1441 -2.1441,2.1441 -1.18415,0 -2.1441,-0.95995 -2.1441,-2.1441 0,-1.18415 0.95995,-2.1441 2.1441,-2.1441 1.18415,0 2.1441,0.95995 2.1441,2.1441 z"
         sodipodi:cx="162"
         sodipodi:cy="208"
         sodipodi:rx="2.1441"
         sodipodi:ry="2.1441"
         style="fill:#3f3d99;fill-opacity:1;stroke:#3f3d99;stroke-width:2.1875;stroke-miterlimit:4;stroke-opacity:1;stroke-dasharray:none"
         transform="matrix(1.2353877,0,0,1.2353877,283.86719,-108.13365)" />
      <ellipse
         cx="162"
         cy="208"
         rx="2.1441"
         ry="2.1441"
         id="ellipse25-0-4"
         d="m 164.1441,208 c 0,1.18415 -0.95995,2.1441 -2.1441,2.1441 -1.18415,0 -2.1441,-0.95995 -2.1441,-2.1441 0,-1.18415 0.95995,-2.1441 2.1441,-2.1441 1.18415,0 2.1441,0.95995 2.1441,2.1441 z"
         sodipodi:cx="162"
         sodipodi:cy="208"
         sodipodi:rx="2.1441"
         sodipodi:ry="2.1441"
         style="fill:#3f3d99;fill-opacity:1;stroke:#3f3d99;stroke-width:2.1875;stroke-miterlimit:4;stroke-opacity:1;stroke-dasharray:none"
         transform="matrix(1.2353877,0,0,1.2353877,-2.132807,11.36635)" />
      <ellipse
         cx="162"
         cy="208"
         rx="2.1441"
         ry="2.1441"
         id="ellipse25-0-8"
         d="m 164.1441,208 c 0,1.18415 -0.95995,2.1441 -2.1441,2.1441 -1.18415,0 -2.1441,-0.95995 -2.1441,-2.1441 0,-1.18415 0.95995,-2.1441 2.1441,-2.1441 1.18415,0 2.1441,0.95995 2.1441,2.1441 z"
         sodipodi:cx="162"
         sodipodi:cy="208"
         sodipodi:rx="2.1441"
         sodipodi:ry="2.1441"
         style="fill:#3f3d99;fill-opacity:1;stroke:#3f3d99;stroke-width:2.1875;stroke-miterlimit:4;stroke-opacity:1;stroke-dasharray:none"
         transform="matrix(1.2353877,0,0,1.2353877,-110.13281,-135.13365)" />
      <ellipse
         cx="162"
         cy="208"
         rx="2.1441"
         ry="2.1441"
         id="ellipse25-0-82"
         d="m 164.1441,208 c 0,1.18415 -0.95995,2.1441 -2.1441,2.1441 -1.18415,0 -2.1441,-0.95995 -2.1441,-2.1441 0,-1.18415 0.95995,-2.1441 2.1441,-2.1441 1.18415,0 2.1441,0.95995 2.1441,2.1441 z"
         sodipodi:cx="162"
         sodipodi:cy="208"
         sodipodi:rx="2.1441"
         sodipodi:ry="2.1441"
         style="fill:#3f3d99;fill-opacity:1;stroke:#3f3d99;stroke-width:2.1875;stroke-miterlimit:4;stroke-opacity:1;stroke-dasharray:none"
         transform="matrix(1.2353877,0,0,1.2353877,-42.132807,-56.633646)" />
    </g>
    <g
       clip-path="url(#cp2)"
       id="g39"
       style="stroke-width:0.625;stroke-miterlimit:4;stroke-dasharray:none"
       transform="translate(-1,15.5)">
      <clipPath
         id="cp2">
        <polygon
           points="66,75 66,285 566,285 566,75 "
           id="polygon42" />
      </clipPath>
      <polyline
         points="66.1,208.088 564.9,208.088 "
         id="polyline44"
         style="fill:none;stroke:#000000;stroke-width:0.625;stroke-miterlimit:4;stroke-opacity:1;stroke-dasharray:none"
         transform="translate(1.5,-23)" />
    </g>
    <g
       clip-path="url(#cp3)"
       id="g46"
       style="stroke-width:0.625;stroke-miterlimit:4;stroke-dasharray:none">
      <clipPath
         id="cp3">
        <polygon
           points="566,75 66,75 66,285 566,285 "
           id="polygon49" />
      </clipPath>
      <polyline
         points="376.249,283.727 376.249,75.2731 "
         id="polyline51"
         style="fill:none;stroke:#000000;stroke-width:0.625;stroke-opacity:1;stroke-miterlimit:4;stroke-dasharray:none" />
    </g>
    <text
       xml:space="preserve"
       style="font-size:40px;font-style:normal;font-variant:normal;font-weight:normal;font-stretch:normal;line-height:125%;letter-spacing:0px;word-spacing:0px;fill:#000000;fill-opacity:1;stroke:none;font-family:Verdana;-inkscape-font-specification:Verdana"
       x="77.5"
       y="115.327"
       id="text3880"
       sodipodi:linespacing="125%"><tspan
         sodipodi:role="line"
         id="tspan3882"
         x="77.5"
         y="115.327"
         style="font-size:36px;fill:#ff6600">A</tspan></text>
    <text
       xml:space="preserve"
       style="font-size:40px;font-style:normal;font-variant:normal;font-weight:normal;font-stretch:normal;line-height:125%;letter-spacing:0px;word-spacing:0px;fill:#000000;fill-opacity:1;stroke:none;font-family:Verdana;-inkscape-font-specification:Verdana"
       x="154.69531"
       y="184.41391"
       id="text3880-4"
       sodipodi:linespacing="125%"><tspan
         sodipodi:role="line"
         id="tspan3882-5"
         x="154.69531"
         y="184.41391"
         style="font-size:36px;fill:#ff6600">B</tspan></text>
    <text
       xml:space="preserve"
       style="font-size:40px;font-style:normal;font-variant:normal;font-weight:normal;font-stretch:normal;line-height:125%;letter-spacing:0px;word-spacing:0px;fill:#000000;fill-opacity:1;stroke:none;font-family:Verdana;-inkscape-font-specification:Verdana"
       x="163.19531"
       y="280.41391"
       id="text3880-5"
       sodipodi:linespacing="125%"><tspan
         sodipodi:role="line"
         id="tspan3882-1"
         x="163.19531"
         y="280.41391"
         style="font-size:36px;fill:#ff6600">C</tspan></text>
    <text
       xml:space="preserve"
       style="font-size:40px;font-style:normal;font-variant:normal;font-weight:normal;font-stretch:normal;line-height:125%;letter-spacing:0px;word-spacing:0px;fill:#000000;fill-opacity:1;stroke:none;font-family:Verdana;-inkscape-font-specification:Verdana"
       x="259.69531"
       y="258.91391"
       id="text3880-7"
       sodipodi:linespacing="125%"><tspan
         sodipodi:role="line"
         id="tspan3882-11"
         x="259.69531"
         y="258.91391"
         style="font-size:36px;fill:#ff6600">D</tspan></text>
    <text
       xml:space="preserve"
       style="font-size:40px;font-style:normal;font-variant:normal;font-weight:normal;font-stretch:normal;line-height:125%;letter-spacing:0px;word-spacing:0px;fill:#000000;fill-opacity:1;stroke:none;font-family:Verdana;-inkscape-font-specification:Verdana"
       x="472.69531"
       y="184.91391"
       id="text3880-52"
       sodipodi:linespacing="125%"><tspan
         sodipodi:role="line"
         id="tspan3882-7"
         x="472.69531"
         y="184.91391"
         style="font-size:36px;fill:#ff6600">E</tspan></text>
  </g>
  <defs
     id="defs53" />
</svg>
