<svg width="1625" height="324" xmlns="http://www.w3.org/2000/svg" xmlns:xlink="http://www.w3.org/1999/xlink" xml:space="preserve" overflow="hidden"><defs><clipPath id="clip0"><rect x="564" y="692" width="1625" height="324"/></clipPath></defs><g clip-path="url(#clip0)" transform="translate(-564 -692)"><rect x="1152" y="744" width="85.0002" height="31.9999" fill="#E11F5B" fill-opacity="0.788235"/><rect x="1175" y="720" width="37.0001" height="83.9999" fill="#2EB77C" fill-opacity="0.701961"/><rect x="891" y="748" width="58.0001" height="255" fill="#2EB77C" fill-opacity="0.701961"/><rect x="579" y="743" width="254" height="61.0002" fill="#E11F5B" fill-opacity="0.788235"/><path d="M30.9999 94.9999C13.8791 94.9999 1.20948e-14 93.8433-1.20948e-14 92.4167L0 2.5832C-2.41896e-14 1.15654 13.8791-2.26777e-15 30.9999-3.77961e-15" stroke="#000000" stroke-width="2.29167" stroke-miterlimit="8" fill="none" fill-rule="evenodd" transform="matrix(-1 0 0 1 845 726)"/><path d="M596 821C578.879 821 565 819.843 565 818.417L565 732.583C565 731.157 578.879 730 596 730" stroke="#000000" stroke-width="2.29167" stroke-miterlimit="8" fill="none" fill-rule="evenodd"/><path d="M908 1015C887.566 1015 871 1013.62 871 1011.92L871 729.083C871 727.38 887.566 726 908 726" stroke="#000000" stroke-width="2.29167" stroke-miterlimit="8" fill="none" fill-rule="evenodd"/><path d="M37.0004 289C16.5656 289 2.29961e-14 287.62-9.19845e-15 285.917L0 3.08311C-3.67938e-14 1.38036 16.5656-2.2996e-15 37.0004-4.5992e-15" stroke="#000000" stroke-width="2.29167" stroke-miterlimit="8" fill="none" fill-rule="evenodd" transform="matrix(-1 0 0 1 965 726)"/><path d="M1019.93 763.368 1079.49 763.368 1079.49 769.797 1019.93 769.797ZM1019.93 743.307 1079.49 743.307 1079.49 749.736 1019.93 749.736Z" fill-rule="evenodd"/><text fill="#000000" fill-opacity="0" font-family="Arial,Arial_MSFontService,sans-serif" font-size="26.4902" x="1019.93" y="766.486">=</text><path d="M1318.34 763.612 1377.89 763.612 1377.89 770.041 1318.34 770.041ZM1318.34 743.551 1377.89 743.551 1377.89 749.98 1318.34 749.98Z" fill-rule="evenodd"/><text fill="#000000" fill-opacity="0" font-family="Arial,Arial_MSFontService,sans-serif" font-size="26.4902" x="1318.34" y="766.73">=</text><path d="M1429 756.5C1429 746.283 1437.73 738 1448.5 738 1459.27 738 1468 746.283 1468 756.5 1468 766.717 1459.27 775 1448.5 775 1437.73 775 1429 766.717 1429 756.5Z" fill="#00B0F0" fill-rule="evenodd"/><text font-family="Calibri,Calibri_MSFontService,sans-serif" font-weight="400" font-size="66" transform="matrix(1 0 0 1 1540.67 783)">Dot product  (number)</text></g></svg>