<svg xmlns="http://www.w3.org/2000/svg" xmlns:xlink="http://www.w3.org/1999/xlink" viewBox="0 0 90.5 240.54"><defs><style>.cls-1,.cls-11,.cls-12,.cls-14,.cls-4,.cls-6,.cls-8,.cls-9{fill:none;}.cls-2{clip-path:url(#clip-path);}.cls-3{fill:#f0e0ca;}.cls-4{stroke:#00aeef;}.cls-11,.cls-12,.cls-14,.cls-4,.cls-6,.cls-8,.cls-9{stroke-miterlimit:3.86;}.cls-12,.cls-4,.cls-8{stroke-width:0.5px;}.cls-5{clip-path:url(#clip-path-2);}.cls-11,.cls-6{stroke:#fff;}.cls-11,.cls-6,.cls-9{stroke-width:0.3px;}.cls-6,.cls-8{stroke-dasharray:3.5 2.2;}.cls-7{fill:#78cdd1;}.cls-12,.cls-14,.cls-8{stroke:#ed1846;}.cls-9{stroke:#231f20;}.cls-10{font-size:8px;}.cls-10,.cls-15{fill:#231f20;font-family:TimesNewRomanPSMT, Times New Roman;}.cls-11,.cls-12{stroke-dasharray:3.7 2;}.cls-13{fill:#ed1846;}.cls-14{stroke-width:0.25px;}.cls-15{font-size:6px;}</style><clipPath id="clip-path" transform="translate(0 0)"><rect class="cls-1" width="90.5" height="239.84"/></clipPath><clipPath id="clip-path-2" transform="translate(0 0)"><rect class="cls-1" width="110.11" height="247"/></clipPath></defs><g id="Layer_2" data-name="Layer 2"><g id="Layer_1-2" data-name="Layer 1"><g class="cls-2"><path class="cls-3" d="M11.23,23.77c.21,2,1.31,4.16.72,6.48A52.21,52.21,0,0,1,5.47,43.69C2,49.23-.46,52.43.43,59.53c.91,6.9,5,13,9.12,15.12,4.09,2.28,14.29,2.58,22.08,3.12s9.61,1.36,14.88,2.4,13.63,2,19.44,1.2c5.59-.64,15-3.74,17.28-9.36,2.51-5.78,1.81-12.18-4.8-17.76-6.59-5.42-10.79-8.42-14.4-17-2.59-6.78-.09-16.78-1-20.88C62.34,12.43,57.14.23,46.75.25,36,.13,34.74,4.83,32.83,10.33c-2.19,5.9-3.09,7.6-7.68,7.68-4.61.32-13.31-.18-13.92,5.76" transform="translate(0 0)"/><path class="cls-4" d="M11.23,23.77c.21,2,1.31,4.16.72,6.48A52.21,52.21,0,0,1,5.47,43.69C2,49.23-.46,52.43.43,59.53c.91,6.9,5,13,9.12,15.12,4.09,2.28,14.29,2.58,22.08,3.12s9.61,1.36,14.88,2.4,13.63,2,19.44,1.2c5.59-.64,15-3.74,17.28-9.36,2.51-5.78,1.81-12.18-4.8-17.76-6.59-5.42-10.79-8.42-14.4-17-2.59-6.78-.09-16.78-1-20.88C62.34,12.43,57.14.23,46.75.25,36,.13,34.74,4.83,32.83,10.33c-2.19,5.9-3.09,7.6-7.68,7.68C20.54,18.33,11.84,17.83,11.23,23.77Z" transform="translate(0 0)"/></g><g class="cls-5"><path class="cls-6" d="M34.75,45.61a11,11,0,0,1,11-10.8,10.92,10.92,0,1,1,0,21.84A11,11,0,0,1,34.75,45.61Z" transform="translate(0 0)"/><path class="cls-7" d="M34.75,45.61a11,11,0,0,1,11-10.8,10.92,10.92,0,1,1,0,21.84,11,11,0,0,1-11-11" transform="translate(0 0)"/><path class="cls-8" d="M34.75,45.61a11,11,0,0,1,11-10.8,10.92,10.92,0,1,1,0,21.84A11,11,0,0,1,34.75,45.61Z" transform="translate(0 0)"/><line class="cls-9" x1="46.75" y1="46.81" x2="52.99" y2="58.81"/></g><text class="cls-10" transform="translate(14.59 69.37)">R</text><text class="cls-10" transform="translate(15.07 104.89)">(a) Interior point</text><g class="cls-2"><path class="cls-3" d="M17,157c.09,1.92,1.19,4.12.48,6.48-.49,2.44-2.79,7.94-6.24,13.44s-6.05,8.7-5,15.6c.79,7.1,4.89,13.2,8.88,15.36,4.21,2.24,14.41,2.54,22.08,3.12,7.83.42,9.74,1.32,15.12,2.4,5.21,1.12,13.51,1.92,19.2,1.2S86.58,210.79,89,205c2.4-5.58,1.69-12-4.8-17.52-6.71-5.46-10.91-8.46-14.4-17-2.71-6.82-.21-16.82-1-20.88s-6-16.14-16.32-16.08c-10.83-.16-12.13,4.54-13.92,9.84-2.31,6.1-3.21,7.8-7.92,7.92C26.18,151.49,17.48,151,17,157" transform="translate(0 0)"/></g><g class="cls-5"><path class="cls-7" d="M55.15,214.09a11.29,11.29,0,0,1,11-10.56,11.4,11.4,0,0,1,11,9.84s-5.75,2-10.8,1.44c-5-.42-11.25-.82-11.28-.72" transform="translate(0 0)"/></g><text class="cls-10" transform="translate(20.35 202.57)">R</text><text class="cls-10" transform="translate(17.23 238.09)">(b) Boundary point</text><g class="cls-2"><path class="cls-4" d="M17,157c.09,1.92,1.19,4.12.48,6.48-.49,2.44-2.79,7.94-6.24,13.44s-6.05,8.7-5,15.6c.79,7.1,4.89,13.2,8.88,15.36,4.21,2.24,14.41,2.54,22.08,3.12,7.83.42,9.74,1.32,15.12,2.4,5.21,1.12,13.51,1.92,19.2,1.2S86.58,210.79,89,205c2.4-5.58,1.69-12-4.8-17.52-6.71-5.46-10.91-8.46-14.4-17-2.71-6.82-.21-16.82-1-20.88s-6-16.14-16.32-16.08c-10.83-.16-12.13,4.54-13.92,9.84-2.31,6.1-3.21,7.8-7.92,7.92C26.18,151.49,17.48,151,17,157Z" transform="translate(0 0)"/></g><g class="cls-5"><line class="cls-9" x1="58.99" y1="201.13" x2="65.47" y2="212.89"/><circle class="cls-11" cx="66.19" cy="214.76" r="11.17" transform="translate(-132.47 109.7) rotate(-45)"/><circle class="cls-12" cx="66.19" cy="214.76" r="11.17" transform="translate(-132.47 109.7) rotate(-45)"/><path class="cls-13" d="M67.92,214.74A1.75,1.75,0,1,1,66.17,213a1.75,1.75,0,0,1,1.75,1.75" transform="translate(0 0)"/><circle class="cls-14" cx="66.17" cy="214.74" r="1.75"/><path class="cls-13" d="M47.64,45.71A1.75,1.75,0,1,1,45.89,44a1.75,1.75,0,0,1,1.75,1.75" transform="translate(0 0)"/><circle class="cls-14" cx="45.89" cy="45.71" r="1.75"/></g><text class="cls-10" transform="translate(44.17 66.29)">(</text><text class="cls-10" transform="translate(46.84 66.29)">x</text><text class="cls-15" transform="translate(50.59 68.29)">0</text><text class="cls-10" transform="translate(53.89 66.29)">, </text><text class="cls-10" transform="translate(57.89 66.29)">y</text><text class="cls-15" transform="translate(61.44 68.29)">0</text><text class="cls-10" transform="translate(64.59 66.29)">)</text><text class="cls-10" transform="translate(46.97 196.81)">(</text><text class="cls-10" transform="translate(49.63 196.81)">x</text><text class="cls-15" transform="translate(53.38 198.81)">0</text><text class="cls-10" transform="translate(56.68 196.81)">, </text><text class="cls-10" transform="translate(60.68 196.81)">y</text><text class="cls-15" transform="translate(64.24 198.81)">0</text><text class="cls-10" transform="translate(67.39 196.81)">)</text></g></g></svg>