<svg xmlns="http://www.w3.org/2000/svg" xmlns:xlink="http://www.w3.org/1999/xlink" viewBox="0 0 141.53 105.42"><defs><style>.cls-1,.cls-11,.cls-13,.cls-15,.cls-16,.cls-17,.cls-19,.cls-21{fill:none;}.cls-2{clip-path:url(#clip-path);}.cls-3{fill:url(#radial-gradient);}.cls-4{font-size:8.24px;}.cls-12,.cls-14,.cls-18,.cls-4,.cls-5,.cls-7{fill:#231f20;}.cls-12,.cls-4,.cls-5,.cls-7{font-family:TimesNewRomanPSMT, Times New Roman;}.cls-12,.cls-5,.cls-7{font-size:8.76px;}.cls-6{letter-spacing:0.08em;}.cls-7{letter-spacing:0.06em;}.cls-8{letter-spacing:0em;}.cls-9{letter-spacing:0.1em;}.cls-10{clip-path:url(#clip-path-2);}.cls-11{stroke:#0066b3;}.cls-11,.cls-19{stroke-linejoin:round;stroke-width:0.82px;}.cls-12{letter-spacing:0.06em;}.cls-13{stroke:#231f20;}.cls-13,.cls-15,.cls-16,.cls-17,.cls-21{stroke-miterlimit:3.86;}.cls-13,.cls-17,.cls-21{stroke-width:0.41px;}.cls-14{fill-rule:evenodd;}.cls-15,.cls-16{stroke:#808285;stroke-width:0.51px;}.cls-15{stroke-dasharray:5.15 2.06;}.cls-16{stroke-dasharray:6.08 2.06;}.cls-17,.cls-21{stroke:#939598;}.cls-17{stroke-dasharray:6.18 2.06;}.cls-19{stroke:#ed1c29;}.cls-20{fill:#ed1c29;}.cls-21{stroke-dasharray:5.97 2.06;}</style><clipPath id="clip-path" transform="translate(-0.11)"><path class="cls-1" d="M35,37.13c-11.36,11.29-5.44,5.7-16.13,21.33-1.08,2-3.38,10.12-4.17,12.26,11.39.86,28.71-3.88,47.13-6.29,18.73-3.91,31.14-2.85,55.55,1.27,1.88-6.43,4.77-10.28,9.17-15.94,5-6.38,9.41-9.58,15.13-14.17-16.18-8.16-27.79-9.46-46.29-11.41a79.32,79.32,0,0,0-8.22-.43c-17.62,0-33.7,5.91-52.17,13.38"/></clipPath><radialGradient id="radial-gradient" cx="-36.02" cy="368.25" r="1" gradientTransform="matrix(47.88, 0, 0, -47.88, 1802.93, 17679.85)" gradientUnits="userSpaceOnUse"><stop offset="0" stop-color="#eef0f9"/><stop offset="1" stop-color="#aec0e3"/></radialGradient><clipPath id="clip-path-2" transform="translate(-0.11)"><rect class="cls-1" y="0.01" width="141.74" height="106.86"/></clipPath></defs><g id="Layer_2" data-name="Layer 2"><g id="Layer_1-2" data-name="Layer 1"><g class="cls-2"><rect class="cls-3" x="14.54" y="23.75" width="126.98" height="47.83"/></g><text class="cls-4" transform="translate(32.8 63.75)">0</text><text class="cls-4" transform="translate(76.27 102.9)">(a, b, 0)</text><text class="cls-5" transform="translate(127.79 56.04)"><tspan class="cls-6">C</tspan><tspan x="6.53" y="0">2</tspan></text><text class="cls-5" transform="translate(94.6 31.93)"><tspan class="cls-6">C</tspan><tspan x="6.53" y="0">1</tspan></text><text class="cls-7" transform="translate(87.59 12.43)">T<tspan class="cls-8" x="5.87" y="0">1</tspan></text><text class="cls-4" transform="translate(77.98 52.09)"><tspan class="cls-9">P</tspan><tspan x="5.41" y="0">(a, b, c)</tspan></text><text class="cls-5" transform="translate(59.67 37.84)">S</text><g class="cls-10"><path class="cls-11" d="M18.82,58.46S52,43.61,74.73,41.91c23.8-1.78,41.41,2.64,51.77,7.85M61.78,64.43s6.52-14.68,13-22.52c6.72-8.19,20.61-17.73,20.61-17.73" transform="translate(-0.11)"/></g><text class="cls-12" transform="translate(114.62 41.27)">T<tspan class="cls-8" x="5.87" y="0">2</tspan></text><text class="cls-4" transform="translate(33.46 6.85)">z</text><text class="cls-4" transform="translate(128.51 89.91)">y</text><g class="cls-10"><text class="cls-4" transform="translate(0 92.13)">x</text><line class="cls-13" x1="39.88" y1="35.16" x2="39.88" y2="6.28"/><polygon class="cls-14" points="39.88 6.28 38.23 7.38 39.88 2.98 41.53 7.38 39.88 6.28"/><line class="cls-13" x1="32.32" y1="69.38" x2="8.54" y2="89.72"/><polygon class="cls-14" points="8.54 89.72 10.45 90.24 6.05 91.88 8.29 87.75 8.54 89.72"/><line class="cls-13" x1="53.22" y1="65.8" x2="130.09" y2="82.19"/><polygon class="cls-14" points="130.09 82.19 129.35 80.35 133.31 82.87 128.67 83.57 130.09 82.19"/><path class="cls-15" d="M17.77,81.86,74.73,94M95,74.65,74.73,94" transform="translate(-0.11)"/><line class="cls-16" x1="74.62" y1="94.04" x2="74.62" y2="62.42"/><path class="cls-17" d="M40,62.93V35.16M40,63l-7.55,6.42M40,63,53.33,65.8" transform="translate(-0.11)"/><path class="cls-18" d="M73.44,94a1.29,1.29,0,1,1,1.29,1.29A1.28,1.28,0,0,1,73.44,94" transform="translate(-0.11)"/><path class="cls-19" d="M37,45.27l75.47-6.71M50,72.24l48.41-59" transform="translate(-0.11)"/><path class="cls-20" d="M73.44,41.91a1.29,1.29,0,1,1,1.29,1.29,1.28,1.28,0,0,1-1.29-1.29" transform="translate(-0.11)"/><line class="cls-21" x1="74.62" y1="61.17" x2="74.62" y2="41.91"/></g></g></g></svg>