<svg version="1.1" xmlns="http://www.w3.org/2000/svg" xmlns:xlink="http://www.w3.org/1999/xlink" width="800" height="800"><defs/><g transform="scale(2,2)"><g id="background-879b9424"><rect fill="white" stroke="none" x="0" y="0" width="400" height="400" class="dcg-svg-background"/></g><g id="background-images-879b9424"/><g id="graphpaper-879b9424"><g id="grid-879b9424"><g><path fill="none" stroke="rgb(0,0,0)" class="dcg-svg-minor-gridline" paint-order="fill stroke markers" d=" M 15.5 0 L 15.5 400" stroke-opacity="0.2" stroke-miterlimit="10" stroke-dasharray=""/><path fill="none" stroke="rgb(0,0,0)" class="dcg-svg-minor-gridline" paint-order="fill stroke markers" d=" M 53.5 0 L 53.5 400" stroke-opacity="0.2" stroke-miterlimit="10" stroke-dasharray=""/><path fill="none" stroke="rgb(0,0,0)" class="dcg-svg-minor-gridline" paint-order="fill stroke markers" d=" M 91.5 0 L 91.5 400" stroke-opacity="0.2" stroke-miterlimit="10" stroke-dasharray=""/><path fill="none" stroke="rgb(0,0,0)" class="dcg-svg-minor-gridline" paint-order="fill stroke markers" d=" M 129.5 0 L 129.5 400" stroke-opacity="0.2" stroke-miterlimit="10" stroke-dasharray=""/><path fill="none" stroke="rgb(0,0,0)" class="dcg-svg-minor-gridline" paint-order="fill stroke markers" d=" M 205.5 0 L 205.5 400" stroke-opacity="0.2" stroke-miterlimit="10" stroke-dasharray=""/><path fill="none" stroke="rgb(0,0,0)" class="dcg-svg-minor-gridline" paint-order="fill stroke markers" d=" M 243.5 0 L 243.5 400" stroke-opacity="0.2" stroke-miterlimit="10" stroke-dasharray=""/><path fill="none" stroke="rgb(0,0,0)" class="dcg-svg-minor-gridline" paint-order="fill stroke markers" d=" M 281.5 0 L 281.5 400" stroke-opacity="0.2" stroke-miterlimit="10" stroke-dasharray=""/><path fill="none" stroke="rgb(0,0,0)" class="dcg-svg-minor-gridline" paint-order="fill stroke markers" d=" M 318.5 0 L 318.5 400" stroke-opacity="0.2" stroke-miterlimit="10" stroke-dasharray=""/><path fill="none" stroke="rgb(0,0,0)" class="dcg-svg-minor-gridline" paint-order="fill stroke markers" d=" M 356.5 0 L 356.5 400" stroke-opacity="0.2" stroke-miterlimit="10" stroke-dasharray=""/><path fill="none" stroke="rgb(0,0,0)" class="dcg-svg-minor-gridline" paint-order="fill stroke markers" d=" M 394.5 0 L 394.5 400" stroke-opacity="0.2" stroke-miterlimit="10" stroke-dasharray=""/><path fill="none" stroke="rgb(0,0,0)" class="dcg-svg-minor-gridline" paint-order="fill stroke markers" d=" M 0 385.5 L 400 385.5" stroke-opacity="0.2" stroke-miterlimit="10" stroke-dasharray=""/><path fill="none" stroke="rgb(0,0,0)" class="dcg-svg-minor-gridline" paint-order="fill stroke markers" d=" M 0 347.5 L 400 347.5" stroke-opacity="0.2" stroke-miterlimit="10" stroke-dasharray=""/><path fill="none" stroke="rgb(0,0,0)" class="dcg-svg-minor-gridline" paint-order="fill stroke markers" d=" M 0 309.5 L 400 309.5" stroke-opacity="0.2" stroke-miterlimit="10" stroke-dasharray=""/><path fill="none" stroke="rgb(0,0,0)" class="dcg-svg-minor-gridline" paint-order="fill stroke markers" d=" M 0 271.5 L 400 271.5" stroke-opacity="0.2" stroke-miterlimit="10" stroke-dasharray=""/><path fill="none" stroke="rgb(0,0,0)" class="dcg-svg-minor-gridline" paint-order="fill stroke markers" d=" M 0 233.5 L 400 233.5" stroke-opacity="0.2" stroke-miterlimit="10" stroke-dasharray=""/><path fill="none" stroke="rgb(0,0,0)" class="dcg-svg-minor-gridline" paint-order="fill stroke markers" d=" M 0 157.5 L 400 157.5" stroke-opacity="0.2" stroke-miterlimit="10" stroke-dasharray=""/><path fill="none" stroke="rgb(0,0,0)" class="dcg-svg-minor-gridline" paint-order="fill stroke markers" d=" M 0 119.5 L 400 119.5" stroke-opacity="0.2" stroke-miterlimit="10" stroke-dasharray=""/><path fill="none" stroke="rgb(0,0,0)" class="dcg-svg-minor-gridline" paint-order="fill stroke markers" d=" M 0 81.5 L 400 81.5" stroke-opacity="0.2" stroke-miterlimit="10" stroke-dasharray=""/><path fill="none" stroke="rgb(0,0,0)" class="dcg-svg-minor-gridline" paint-order="fill stroke markers" d=" M 0 43.5 L 400 43.5" stroke-opacity="0.2" stroke-miterlimit="10" stroke-dasharray=""/><path fill="none" stroke="rgb(0,0,0)" class="dcg-svg-minor-gridline" paint-order="fill stroke markers" d=" M 0 5.5 L 400 5.5" stroke-opacity="0.2" stroke-miterlimit="10" stroke-dasharray=""/><path fill="none" stroke="rgb(0,0,0)" class="dcg-svg-major-gridline" paint-order="fill stroke markers" d=" M 15.5 0 L 15.5 400" stroke-opacity="0.2500000000000001" stroke-miterlimit="10" stroke-dasharray=""/><path fill="none" stroke="rgb(0,0,0)" class="dcg-svg-major-gridline" paint-order="fill stroke markers" d=" M 318.5 0 L 318.5 400" stroke-opacity="0.2500000000000001" stroke-miterlimit="10" stroke-dasharray=""/><path fill="none" stroke="rgb(0,0,0)" class="dcg-svg-major-gridline" paint-order="fill stroke markers" d=" M 0 347 L 400 347" stroke-opacity="0.2500000000000001" stroke-miterlimit="10" stroke-dasharray=""/><path fill="none" stroke="rgb(0,0,0)" class="dcg-svg-major-gridline" paint-order="fill stroke markers" d=" M 0 44 L 400 44" stroke-opacity="0.2500000000000001" stroke-miterlimit="10" stroke-dasharray=""/></g></g><g id="axis-879b9424"><g id="yaxis-879b9424"><title>Y axis</title><path fill="none" stroke="rgb(0,0,0)" class="dcg-svg-axis-line" paint-order="fill stroke markers" d=" M 167 0 L 167 400" stroke-opacity="0.9" stroke-miterlimit="10" stroke-width="1.5" stroke-dasharray=""/></g><g id="xaxis-879b9424"><title>X axis</title><path fill="none" stroke="rgb(0,0,0)" class="dcg-svg-axis-line" paint-order="fill stroke markers" d=" M 0 195 L 400 195" stroke-opacity="0.9" stroke-miterlimit="10" stroke-width="1.5" stroke-dasharray=""/></g><g><g class="dcg-svg-axis-value"><text fill="none" stroke="#ffffff" font-family="Arial" font-size="14px" font-style="normal" font-weight="normal" text-decoration="normal" x="158.2714092329409" y="211.25104103814851" text-anchor="middle" stroke-miterlimit="2" stroke-width="3" stroke-dasharray="">0</text><text fill="#000000" stroke="none" font-family="Arial" font-size="14px" font-style="normal" font-weight="normal" text-decoration="normal" x="158.2714092329409" y="211.25104103814851" text-anchor="middle">0</text></g><g class="dcg-svg-axis-value"><text fill="none" stroke="#ffffff" font-family="Arial" font-size="14px" font-style="normal" font-weight="normal" text-decoration="normal" x="13.024727251251818" y="211.25104103814851" text-anchor="middle" stroke-miterlimit="2" stroke-width="3" stroke-dasharray="">-2</text><text fill="#000000" stroke="none" font-family="Arial" font-size="14px" font-style="normal" font-weight="normal" text-decoration="normal" x="13.024727251251818" y="211.25104103814851" text-anchor="middle">-2</text></g><g class="dcg-svg-axis-value"><text fill="none" stroke="#ffffff" font-family="Arial" font-size="14px" font-style="normal" font-weight="normal" text-decoration="normal" x="318.97316933963" y="211.25104103814851" text-anchor="middle" stroke-miterlimit="2" stroke-width="3" stroke-dasharray="">2</text><text fill="#000000" stroke="none" font-family="Arial" font-size="14px" font-style="normal" font-weight="normal" text-decoration="normal" x="318.97316933963" y="211.25104103814851" text-anchor="middle">2</text></g><g class="dcg-svg-axis-value"><text fill="none" stroke="#ffffff" font-family="Arial" font-size="14px" font-style="normal" font-weight="normal" text-decoration="normal" x="155.9403545454409" y="351.0597347385876" text-anchor="middle" stroke-miterlimit="2" stroke-width="3" stroke-dasharray="">-2</text><text fill="#000000" stroke="none" font-family="Arial" font-size="14px" font-style="normal" font-weight="normal" text-decoration="normal" x="155.9403545454409" y="351.0597347385876" text-anchor="middle">-2</text></g><g class="dcg-svg-axis-value"><text fill="none" stroke="#ffffff" font-family="Arial" font-size="14px" font-style="normal" font-weight="normal" text-decoration="normal" x="158.2714092329409" y="47.44234733770944" text-anchor="middle" stroke-miterlimit="2" stroke-width="3" stroke-dasharray="">2</text><text fill="#000000" stroke="none" font-family="Arial" font-size="14px" font-style="normal" font-weight="normal" text-decoration="normal" x="158.2714092329409" y="47.44234733770944" text-anchor="middle">2</text></g></g></g></g><g id="expressions-879b9424"><g id="sketch-879b9424"><title>Expression 1</title><path fill="#c74440" stroke="none" paint-order="stroke fill markers" d="" fill-opacity="0.4"/><g><path fill="none" stroke="#c74440" class="dcg-svg-curve" paint-order="fill stroke markers" d=" M 0 167.2690140072139 L 0 167.2690140072139 L 3.027343749999998 175.0942623930227 L 6.250000000000002 184.02458319826772 L 9.863281249999986 194.67289670066594 L 14.355468749999996 208.60363527533536 L 24.707031249999982 240.9849944780404 L 27.63671875000001 249.30479414207232 L 29.980468750000004 255.3584377079951 L 32.031249999999986 260.07864479492264 L 33.78906250000001 263.6035042910589 L 35.35156249999999 266.2670398144917 L 36.81640625000001 268.3107542436222 L 38.0859375 269.68994104406704 L 39.35546875000001 270.6727430735323 L 40.52734375000001 271.20163198412354 L 41.52673480409948 271.3473878883681 L 42.48046875000001 271.21045153161725 L 43.45703125000001 270.7781036643382 L 44.531249999999986 269.94648356777543 L 45.60546874999999 268.7269248402514 L 46.67968750000001 267.1053263898477 L 47.75390625000001 265.06922252779634 L 48.92578125 262.3629911947954 L 50.19531250000001 258.84844571693225 L 51.46484374999999 254.7199322051885 L 52.83203124999999 249.5851832740198 L 54.29687500000001 243.29948050274123 L 55.95703124999999 235.22479112590423 L 57.71484375 225.64045453132422 L 59.66796874999999 213.8798458939007 L 62.10937499999999 197.87353340204717 L 70.1171875 144.0930197915084 L 71.67968749999999 135.5443764366026 L 72.94921874999999 129.65297324526335 L 74.02343749999999 125.57064732856861 L 74.90234375 122.93857491765027 L 75.68359375000001 121.19197599126812 L 76.3671875 120.15856234653984 L 76.95312499999999 119.66326751557955 L 77.42323218555417 119.53869418792897 L 77.9296875 119.68645028372447 L 78.515625 120.23439002355514 L 79.1015625 121.19924198011921 L 79.68749999999999 122.5922576937026 L 80.37109375 124.77060115725322 L 81.15234374999999 128.0016736870876 L 82.03124999999999 132.58973397631127 L 83.0078125 138.86380781287238 L 84.08203125 147.15431082672782 L 85.25390625 157.7529594003416 L 86.62109375 171.91738353932632 L 88.37890624999999 192.2722045718549 L 92.7734375 244.230609730925 L 93.9453125 255.38757327122948 L 94.921875 262.83144756144463 L 95.70312499999999 267.27847207105333 L 96.28906250000001 269.6037182576916 L 96.77734375 270.8179737935642 L 97.16796874999999 271.2868487050504 L 97.4609375 271.3332373182001 L 97.75390624999999 271.11028313363 L 98.14453125 270.38368414785265 L 98.53515625000001 269.15566323806956 L 99.0234375 266.90236174815993 L 99.60937499999999 263.1332884212653 L 100.29296874999999 257.2710129673578 L 101.07421875 248.691281188548 L 101.953125 236.8049360749529 L 103.02734375 219.52585327764967 L 104.58984375000001 190.79221305839596 L 106.83593749999999 149.60247617742968 L 107.8125 135.1666896308388 L 108.49609375 127.41320419868958 L 109.08203124999999 122.70524218541078 L 109.57031250000001 120.3444151671315 L 109.86328124999999 119.6673747173084 L 110.05641162324025 119.53869418792897 L 110.25390625 119.67510737536094 L 110.54687499999999 120.38740752115672 L 110.83984375 121.72030047145773 L 111.23046875 124.47637051668681 L 111.71875 129.49802559340424 L 112.3046875 137.78725782411345 L 112.98828124999999 150.37452109223975 L 113.8671875 170.46232700471742 L 115.33203125 209.61972435629366 L 116.69921875 244.55233270837857 L 117.48046875 259.7652574509894 L 118.06640625 267.4296916019838 L 118.45703125 270.3595566661158 L 118.75 271.2899158602878 L 118.9453125 271.27512627729413 L 119.14062500000001 270.7373734206982 L 119.43359374999999 268.931366120384 L 119.82421875 264.63960714217757 L 120.3125 256.28939279740945 L 120.89843749999999 242.1770232024958 L 121.6796875 217.65226625972608 L 124.21875 132.16561128195872 L 124.70703125 123.41282361321674 L 124.99999999999999 120.50082100487708 L 125.19531250000001 119.63538426639849 L 125.28522869416042 119.53869418792897 L 125.390625 119.67277689827154 L 125.58593749999999 120.63810900751184 L 125.87890625 123.8539350205454 L 126.26953124999999 131.42113906350693 L 126.7578125 145.8450882253419 L 127.44140624999999 173.60361730899845 L 129.39453125000003 259.0133161895441 L 129.78515625 267.8424281929516 L 130.078125 270.9939628058391 L 130.21219892298754 271.3473878883681 L 130.2734375 271.2728269161734 L 130.46875 270.0284352738454 L 130.76171875 265.2634662098734 L 131.15234375 253.63791364095854 L 131.640625 231.63606027414795 L 132.51953125 179.79504011915242 L 133.30078125 137.68567224911845 L 133.69140625 124.56649143586367 L 133.984375 119.96250768445725 L 134.10191226153526 119.53869418792897 L 134.17968749999997 119.72656515784138 L 134.375 121.87151748410923 L 134.66796875 129.56697246211138 L 135.05859375 147.62761575466254 L 135.64453125 187.09948954378075 L 136.62109375 254.46408892055362 L 137.01171875 268.7674219090183 L 137.25072782131198 271.3473878883681 L 137.3046875 271.21256871630146 L 137.5 268.4499991348347 L 137.79296875 257.70207441445586 L 138.18359375 232.43064697933647 L 139.6484375 122.23173826477426 L 139.85192328373626 119.53869418792897 L 139.94140625 120.07329324500654 L 140.13671875 124.97278478225388 L 140.4296875 141.52258822707915 L 140.91796875 187.60965776401272 L 141.6015625 254.99454237509056 L 141.89453125 269.49653513921487 L 142.03692747217264 271.3473878883681 L 142.08984375 271.0868821511616 L 142.28515625 265.5953634724217 L 142.578125 244.71151030183356 L 143.06640625 187.34965293656055 L 143.5546875 133.5393075516581 L 143.84765625 119.85958969783525 L 143.8982273363962 119.53869418792897 L 144.04296875 122.19822304125506 L 144.23828125 134.0687096170834 L 144.53125 166.96458699892653 L 145.3125 265.45286919614256 L 145.5027961848648 271.3473878883681 L 145.60546875 269.5682084149954 L 145.80078125 256.5342053312762 L 146.09375 217.3810680204228 L 146.6796875 129.7413406633496 L 146.90032389159552 119.53869418792897 L 146.97265625 120.69058847167719 L 147.16796875 135.09766736698316 L 147.4609375 181.45727234983855 L 147.94921875 262.6461195393924 L 148.12845430054068 271.3473878883681 L 148.2421875 267.69299287277056 L 148.4375 245.22774900668392 L 149.21622694846357 119.53869418792897 L 149.31640625 123.12408885680196 L 149.51171875 149.47567527600918 L 150.09765625 267.9073188421298 L 150.18640255336774 271.3473878883681 L 150.29296875 266.28997661336666 L 150.48828125 233.07248113533765 L 150.9765625 123.03465319454006 L 151.05707296802535 119.53869418792897 L 151.17187499999997 126.76067482412486 L 151.3671875 168.12310560895014 L 151.7578125 266.60754718968406 L 151.8427999275944 271.3473878883681 L 151.95312499999997 263.21634402476707 L 152.14843749999997 214.95216718197824 L 152.44140625000003 129.6900982100197 L 152.55543600720353 119.53869418792897 L 152.63671875 124.89466311095299 L 152.83203124999997 175.395206812747 L 153.12500000000003 265.31391289074804 L 153.20472665751407 271.3473878883681 L 153.32031250000003 258.5082610661426 L 153.7987585290748 119.53869418792897 L 153.90624999999997 132.73474860510868 L 154.3442980029571 271.3473878883681 L 154.39453125000003 267.8947359374322 L 154.58984375 200.58667870719606 L 154.78515624999997 125.54633390108717 L 154.8470500671231 119.53869418792897 L 154.98046875 146.91899799166202 L 155.31185857927662 271.3473878883681 L 155.37109375 264.8074547466915 L 155.74286283600077 119.53869418792897 L 155.85937499999997 147.6908338872398 L 156.14362117997234 271.3473878883681 L 156.24999999999997 244.23345518187318 L 156.51720946672555 119.53869418792897 L 156.640625 160.12614195496676 L 156.86630016090473 271.3473878883681 L 156.93359375 256.76482339292477 L 157.1932263665646 119.53869418792897 L 157.50003403649157 271.3473878883681 L 157.78852483060197 119.53869418792897 L 158.06029152070602 271.3473878883681 L 158.31674741136754 119.53869418792897 L 158.55915092445863 271.3473878883681 L 158.78862625018482 119.53869418792897 L 159.00618077976938 271.3473878883681 L 159.21271989013448 119.53869418792897 L 159.40905953825936 271.3473878883681 L 159.59593703466734 119.53869418792897 L 159.77402029595024 271.3473878883681 L 159.94391582108221 119.53869418792897 L 160.10617559227566 271.3473878883681 L 160.26130306583423 119.53869418792897 L 160.40975838999242 271.3473878883681 L 160.55196296365978 119.53869418792897 L 160.6883034311965 271.3473878883681 L 160.81913519297416 119.53869418792897 L 160.94478549883985 271.3473878883681 L 161.06555618117676 119.53869418792897 L 161.18172607561513 271.3473878883681 L 161.2935531702614 119.53869418792897 L 161.40127651831514 271.3473878883681 L 161.50511794391653 119.53869418792897 L 161.60528356684173 271.3473878883681 L 161.70196516809997 119.53869418792897 L 161.79534141546904 271.3473878883681 L 161.88557896544756 119.53869418792897 L 162.13896600578727 271.3473878883681 L 162.20703125 126.95490229361735 L 162.36914201953093 119.53869418792897 L 162.40234375000003 185.14195912949165 L 162.44125229952581 271.3473878883681 L 162.59765625 244.28687419048688 L 162.64513244368402 119.53869418792897 L 162.79296875000003 161.06010627104044 L 162.8321397483257 271.3473878883681 L 162.98828125 148.79576263597778 L 163.18359374999997 218.74085356098095 L 163.26268244555453 271.3473878883681 L 163.65504153765204 119.53869418792897 L 163.6938198150171 271.3473878883681 L 163.9429951049578 119.53869418792897 L 163.96484375 233.21144041562795 L 164.0391587029946 271.3473878883681 L 164.18727798907025 119.53869418792897 L 164.25781249999997 209.69295309024545 L 164.39712451947523 119.53869418792897 L 164.64162943768304 271.3473878883681 L 164.74609375000003 167.03496716521536 L 164.757622366488 271.3473878883681 L 164.94140625 135.6726718027906 L 165.0390625 147.12884102525277 L 165.20750148288107 271.3473878883681 L 165.33302169115748 119.53869418792897 L 165.43392824476817 119.53869418792897 L 165.68638457054277 271.3473878883681 L 165.79587279785002 119.53869418792897 L 165.99466427201128 271.3473878883681 L 166.015625 123.34486555312003 L 166.1192365307459 271.3473878883681 L 166.21698136441645 119.53869418792897 L 166.4030347856449 271.3473878883681 L 166.50391969368567 119.53869418792897 L 166.57240334496333 271.3473878883681 L 166.68088156361318 119.53869418792897 L 166.74202190403594 119.53869418792897 L 166.98359780902234 271.3473878883681 L 166.9921875 177.51803933686995 L 167.08984375 268.90204652539444 L 167.1644756391909 134.10672063527886" stroke-linecap="round" stroke-linejoin="round" stroke-miterlimit="10" stroke-width="2.5" stroke-opacity="0.9" stroke-dasharray=""/></g><g><path fill="none" stroke="#c74440" class="dcg-svg-curve" paint-order="fill stroke markers" d=" M 167.1644756391909 241.23339864542464 L 167.1644756391909 241.23339864542464 L 167.1875 234.64991823022103 L 167.29265125726386 119.53869418792897 L 167.58921445202083 271.3473878883681 L 167.66106750019918 119.53869418792897 L 167.71407205579237 271.3473878883681 L 167.79329316088806 271.3473878883681 L 167.96875 119.90654097028482 L 168.21320469457567 271.3473878883681 L 168.35648456552005 271.3473878883681 L 168.359375 163.68648958909176 L 168.55468749999997 211.3666341387519 L 168.663732689729 271.3473878883681 L 168.84862766110902 119.53869418792897 L 168.9453125 125.35502275314491 L 168.9959295872243 271.3473878883681 L 169.12144979550075 119.53869418792897 L 169.2377056859746 271.3473878883681 L 169.432304896142 119.53869418792897 L 169.53125 135.4499657366295 L 169.62796075360447 271.3473878883681 L 169.77106777269904 119.53869418792897 L 169.93182675890657 271.3473878883681 L 170.14167328931157 271.3473878883681 L 170.21484375 188.14010324811883 L 170.25900127552322 271.3473878883681 L 170.35325078728968 119.53869418792897 L 170.52377352248212 271.3473878883681 L 170.71356436334605 119.53869418792897 L 171.11534799249569 271.3473878883681 L 171.2890625 160.6198713213005 L 171.4378681846022 271.3473878883681 L 171.484375 135.28021653180434 L 171.61971467589626 119.53869418792897 L 171.77734374999997 174.05985759815945 L 171.81772529974984 271.3473878883681 L 172.03415551652006 119.53869418792897 L 172.0703125 189.5774472575696 L 172.18998527259455 119.53869418792897 L 172.265625 269.3463701082737 L 172.44337231293426 271.3473878883681 L 172.53360986291275 119.53869418792897 L 172.62698611028185 271.3473878883681 L 172.7236677115401 119.53869418792897 L 172.8238333344653 271.3473878883681 L 172.92767476006668 119.53869418792897 L 173.03539810812043 271.3473878883681 L 173.14722520276666 119.53869418792897 L 173.26339509720506 271.3473878883681 L 173.38416577954195 119.53869418792897 L 173.50981608540764 271.3473878883681 L 173.64064784718533 119.53869418792897 L 173.77698831472202 271.3473878883681 L 173.91919288838938 119.53869418792897 L 174.06764821254757 271.3473878883681 L 174.22277568610616 119.53869418792897 L 174.3850354572996 271.3473878883681 L 174.55493098243156 119.53869418792897 L 174.73301424371448 271.3473878883681 L 174.91989174012247 119.53869418792897 L 175.11623138824731 271.3473878883681 L 175.3227704986124 119.53869418792897 L 175.540325028197 271.3473878883681 L 175.7698003539232 119.53869418792897 L 176.01220386701425 271.3473878883681 L 176.07421875 249.60357182738483 L 176.2686597576758 119.53869418792897 L 176.54042644777982 271.3473878883681 L 176.82891724189025 119.53869418792897 L 177.1357249118172 271.3473878883681 L 177.34375 162.320161242207 L 177.4626511174771 119.53869418792897 L 177.5390625 137.66920704092502 L 177.81174181165628 271.3473878883681 L 177.92968750000003 235.46676433702186 L 178.12500000000003 128.57151671941818 L 178.18533009840948 119.53869418792897 L 178.41796875 216.42915724178692 L 178.58608844238105 271.3473878883681 L 178.71093749999997 240.56803538760596 L 179.0170926991052 119.53869418792897 L 179.1015625 132.33361281301404 L 179.4819012112587 271.3473878883681 L 179.58984374999997 253.69581209333793 L 179.98465327542473 119.53869418792897 L 180.07812500000003 131.01676378066594 L 180.53019274930702 271.3473878883681 L 180.66406249999997 251.8977983925594 L 181.05468749999997 124.24175324153322 L 181.12422462086775 119.53869418792897 L 181.25 134.16316720355883 L 181.7735152711783 271.3473878883681 L 181.8359375 268.2345670772718 L 182.03125000000003 224.98967809308516 L 182.421875 122.31533543674664 L 182.48615135078742 119.53869418792897 L 182.61718749999997 130.57937796164396 L 182.91015625 207.79515213554492 L 183.203125 268.7450724059983 L 183.27187831035647 271.3473878883681 L 183.3984375 262.85414922231905 L 183.69140625 196.63581160247563 L 183.984375 130.59636495807325 L 184.14254872501405 119.53869418792897 L 184.27734375 127.35468084503088 L 184.5703125 184.66629950109925 L 184.96093749999997 263.15442191431134 L 185.11272432991828 271.3473878883681 L 185.25390625000003 264.46645460039736 L 185.44921875 235.70047658525766 L 186.03515624999997 127.23372804370803 L 186.20049697784114 119.53869418792897 L 186.328125 124.01708894857501 L 186.5234375 146.19212400503457 L 187.3046875 267.96485793230875 L 187.42862738678627 271.3473878883681 L 187.5 270.24154131765044 L 187.6953125 256.6629929357796 L 188.0859375 198.54723610946098 L 188.57421875 130.18519704919822 L 188.76953125 120.07900592251855 L 188.82615509351703 119.53869418792897 L 188.96484375 122.70377689889318 L 189.16015625 136.98516006193927 L 189.55078125000003 188.1462220521321 L 190.0390625 252.19822592018838 L 190.33203124999997 270.1119189782076 L 190.4307239419856 271.3473878883681 L 190.52734375 270.1828053429638 L 190.72265625 261.1034938714064 L 191.01562499999997 233.86369126039372 L 191.9921875 127.9158439477651 L 192.1875 120.55759810257939 L 192.29202380620922 119.53869418792897 L 192.38281249999997 120.2959865851169 L 192.57812500000003 126.8362385118968 L 192.87109375 147.35000530780547 L 194.23828124999997 267.5276653725201 L 194.47702799464557 271.3473878883681 L 194.53125000000003 271.1530083444851 L 194.7265625 267.3230573881581 L 195.01953125 253.31986852839475 L 195.50781249999997 214.7283027853295 L 196.38671874999997 141.51290485563766 L 196.77734375 123.76217577883801 L 196.97265625 120.05607239484044 L 197.0782234570698 119.53869418792897 L 197.16796875 119.90787774246132 L 197.36328125 123.18866663418925 L 197.65625 133.90175385030454 L 198.046875 156.66941208627094 L 199.60937499999997 259.42177912247735 L 199.90234375 268.0462673722104 L 200.09765625 270.82622735609164 L 200.22703901684656 271.3473878883681 L 200.29296874999997 271.2135388670092 L 200.48828124999997 269.27925187729534 L 200.78125 262.3432456879465 L 201.171875 246.71413871615817 L 201.85546875 208.2724641417657 L 202.9296875 147.45022557164413 L 203.41796875 129.37315890250466 L 203.80859375 121.44454305173417 L 204.00390625000003 119.79248705684813 L 204.11675235539425 119.53869418792897 L 204.19921875 119.67284139247386 L 204.39453124999997 121.04027337949219 L 204.68750000000003 125.71441697731865 L 205.078125 136.28462981593128 L 205.66406249999997 159.21433357902842 L 207.81249999999997 252.82315203448226 L 208.30078125 264.5779311281567 L 208.69140624999997 269.8358531754303 L 208.98437500000003 271.30495929985716 L 209.0437225842214 271.3473878883681 L 209.1796875 271.12684700769563 L 209.37499999999997 270.0533017877751 L 209.66796875 266.84769243449057 L 210.05859375000003 259.8550442488237 L 210.546875 247.42630037252408 L 211.328125 221.61549593386385 L 213.37890625 150.14669376630513 L 214.06249999999997 133.67135439428841 L 214.55078125 125.62878341790417 L 214.94140624999997 121.59077746164792 L 215.234375 119.97427141867615 L 215.4296875 119.56076227628091 L 215.625 119.66758173839509 L 215.82031249999997 120.28156062124253 L 216.11328125000003 122.11728220832066 L 216.50390625 126.16669704480228 L 216.9921875 133.53341038315676 L 217.67578125 147.3731947356058 L 218.65234375 171.9064669780353 L 221.09375 235.26747092712037 L 221.97265625 252.25446047273184 L 222.65625 261.93593027229196 L 223.2421875 267.554222258665 L 223.73046875 270.3092127052495 L 224.0234375 271.1300119371986 L 224.27253965514157 271.3473878883681 L 224.51171875 271.1503747624598 L 224.8046875 270.38366073088145 L 225.1953125 268.5003065317204 L 225.68359375 264.85413785939477 L 226.26953125 258.7756596041411 L 227.05078125 248.2391880866072 L 228.02734375 232.1541919583969 L 229.78515625 199.21503635410707 L 231.64062499999997 165.62228198496368 L 232.8125 147.8953191848117 L 233.78906250000003 136.11428858799906 L 234.57031249999997 128.89886198229033 L 235.25390624999997 124.26892876029541 L 235.83984375 121.5592648462615 L 236.328125 120.17736017281459 L 236.71874999999997 119.63238079422655 L 236.96322054757505 119.53869418792897 L 237.3046875 119.71839630631291 L 237.69531250000003 120.35444062107308 L 238.18359375 121.7674338336443 L 238.76953125000003 124.31455036324098 L 239.453125 128.36112476273797 L 240.234375 134.2395173350402 L 241.2109375 143.1613746809287 L 242.48046875 156.73195204917485 L 244.43359375 180.06454461389652 L 247.55859375 217.3212337426512 L 249.12109375000003 233.578214830859 L 250.390625 244.92252167479515 L 251.5625 253.68682640954756 L 252.5390625 259.656800676438 L 253.41796875 263.96760461564884 L 254.19921874999997 266.95330783753235 L 254.98046875 269.15258500899324 L 255.6640625 270.44595890779397 L 256.25 271.0989277118302 L 256.8359375 271.3446091792048 L 257.32421875 271.24854553223565 L 257.91015625 270.785913498299 L 258.49609375 269.9603066423333 L 259.1796875 268.56224095371294 L 259.9609375 266.4276054049411 L 260.83984375 263.3970331797748 L 261.9140625 258.8837228297807 L 263.18359375 252.56302365579424 L 264.6484375 244.19473469339385 L 266.50390625 232.3919542872566 L 269.43359375 212.2925644742399 L 273.73046875 182.96087321061006 L 276.07421875 168.3870744990905 L 278.02734375 157.45900449271141 L 279.78515625 148.724653169248 L 281.34765625 141.90452848986388 L 282.8125 136.34701506061083 L 284.1796875 131.89945683550417 L 285.44921875 128.40706256385874 L 286.71875 125.52006000444771 L 287.89062499999994 123.38071714324366 L 288.96484374999994 121.85059997592151 L 290.0390625 120.71948568604103 L 291.11328125 119.97294753033106 L 292.08984375 119.61480688468328 L 293.06640625 119.54900217387046 L 294.04296875 119.76246170923127 L 295.1171875 120.3037227700226 L 296.2890625 121.239424857919 L 297.55859375 122.63241086072105 L 298.92578124999994 124.53929320193765 L 300.390625 127.00806418274482 L 302.05078125 130.28127369315655 L 303.90624999999994 134.45990753650625 L 305.95703125 139.6159908790588 L 308.39843749999994 146.341528332413 L 311.42578125000006 155.3246521953191 L 315.8203125 169.08263484667182 L 324.31640625 195.7609468673695 L 328.22265625000006 207.27190807159104 L 331.54296875 216.43651944996282 L 334.66796875 224.45709465695708 L 337.59765625 231.39898236231937 L 340.33203125000006 237.35164129174794 L 342.96875 242.6007266604776 L 345.60546875 247.36591319801843 L 348.14453125 251.50086496463834 L 350.68359375000006 255.19823795820335 L 353.22265625 258.46878685746026 L 355.76171875 261.3258102380346 L 358.30078125 263.7845753210329 L 360.9375 265.93433702773154 L 363.671875 267.7504888036153 L 366.30859375 269.1246922974164 L 368.84765625 270.1180916430445 L 371.38671874999994 270.8070712361357 L 373.92578125 271.21055587106684 L 376.46484375 271.3472110756329 L 379.10156250000006 271.22628673966466 L 381.8359375 270.8390327104088 L 384.76562499999994 270.1522948012478 L 387.890625 269.13762311327383 L 391.30859375 267.72794661204045 L 395.01953125 265.8831621389379 L 399.12109375 263.51341018291396 L 400 262.9653565524674" stroke-linecap="round" stroke-linejoin="round" stroke-miterlimit="10" stroke-width="2.5" stroke-opacity="0.9" stroke-dasharray=""/></g></g></g><g id="labels-879b9424"/></g></svg>