<svg version="1.1" xmlns="http://www.w3.org/2000/svg" viewBox="0 0 541.5 149.83359490764383" width="1083" height="299.66718981528766">
  <!-- svg-source:excalidraw -->
  
  <defs>
    <style>
      @font-face {
        font-family: "Virgil";
        src: url("https://excalidraw.com/Virgil.woff2");
      }
      @font-face {
        font-family: "Cascadia";
        src: url("https://excalidraw.com/Cascadia.woff2");
      }
    </style>
  </defs>
  <rect x="0" y="0" width="541.5" height="149.83359490764383" fill="#ffffff"></rect><g stroke-linecap="round" transform="translate(10 36) rotate(0 50 46.75)"><path d="M0 0 C0 0, 0 0, 0 0 M0 0 C0 0, 0 0, 0 0 M-0.15 5.75 C1.31 4.2, 3.33 1.41, 5.23 1.11 M-0.55 6.36 C1.24 4.99, 2.41 3.88, 5.05 0.35 M0.07 13.44 C1.17 8.09, 4.34 8.23, 10.47 1.11 M0.17 12.49 C1.92 9.27, 5.18 6.54, 10 -0.79 M-1.25 18.42 C3.87 14.95, 6.57 11.04, 16.74 -1.57 M0.24 19.07 C4.67 13.29, 8.35 9.18, 15.54 0.66 M-1.65 25.37 C6.97 16.18, 11.02 11.29, 21.58 0.1 M0.18 24.48 C5.8 18.35, 10.68 10.63, 21.77 -0.47 M-0.51 29.69 C4.77 21.92, 11.76 15.85, 25.46 -1.62 M-0.94 30.27 C10.38 19.68, 21.48 6.46, 26.64 1.16 M-2.13 35.36 C10.92 24.33, 25.17 9.5, 33.76 -1.73 M-0.4 37.29 C12.59 22.17, 25.49 7.96, 30.97 0.26 M-1.56 43.43 C10.77 31.13, 21.62 16.27, 35.61 1.77 M1.11 42.14 C12.11 27.64, 25.49 14.89, 35.99 0.9 M1.52 48.18 C7.37 38.27, 17.39 26.56, 41.22 -0.34 M0.44 49.48 C9.32 37.3, 20.55 25.71, 41.54 0.48 M-0.44 53.67 C13.91 39.31, 25.7 23.88, 48.82 -0.54 M-0.41 54.84 C11.84 40.91, 25.48 27.09, 47.72 -0.14 M0.02 61.7 C12.68 47.84, 23.19 34.11, 54 1.24 M-0.7 60.68 C17.52 40.73, 34.11 21.59, 53.15 -0.62 M-1.97 68.37 C15.21 48.36, 32.24 32.56, 56.57 1.52 M0.65 67.19 C15.76 47.06, 33.47 27.98, 58.57 0.94 M-1.4 72.23 C19.52 52.51, 39.53 27.45, 61.97 1.15 M0.02 72.62 C14.79 56.41, 29.05 39.23, 63.09 0.05 M-1.24 78.42 C27.2 51.58, 50.09 21.44, 68.12 1.18 M0.03 79.63 C23.99 51.25, 49.21 23.66, 67.85 -0.08 M0.28 83.25 C14.88 66.77, 29.77 50.23, 74.81 -1.27 M1.07 86 C20.61 61.99, 41.69 37.17, 74.22 -0.51 M0.54 90.15 C17.44 73.46, 32.67 52.76, 78.57 -1.13 M-0.96 90.8 C31.37 56.25, 60.71 22.76, 79.48 -0.49 M3.21 95.94 C27.66 64.92, 51.64 35.76, 86.03 -1.5 M0.8 94.86 C22.09 73.8, 43.94 49.32, 85.01 0.59 M5.82 94.04 C26.81 71.23, 47.3 48.09, 88.81 -1.79 M6.51 96.17 C29.99 71.91, 49.84 47.42, 89.98 -0.7 M13.92 95.11 C38.72 68.18, 64.76 37.5, 96.91 -1.83 M12.7 94.64 C46.69 56.62, 79.3 19.71, 95.53 0.17 M17.72 94.58 C49.27 56.99, 81.57 21.96, 101.56 2 M17.67 95.95 C42.34 69.5, 63.51 42.85, 100.45 -0.18 M23.67 96.37 C43.88 67.46, 67.56 42.33, 98.68 7.43 M23.84 95.29 C47.68 67.99, 72.8 39.67, 99.5 5.74 M27.82 96.69 C44.9 76.22, 62.13 58.29, 98.18 13.06 M28.02 95.51 C52.14 65.9, 77.12 38.31, 99.43 13.31 M34.74 95.97 C50.87 72.45, 73.14 49.56, 101.59 16.85 M33.03 95.1 C49.93 76.36, 66.43 57.35, 101.5 18.41 M38.82 94.7 C65.01 65.46, 89.32 40.28, 100.83 22.98 M39.93 94.34 C59.82 71.66, 80.08 48.46, 101.03 24.5 M43.22 97.33 C60.23 76.02, 78.77 54.77, 98.95 30.43 M43.69 95.28 C62.75 73.84, 82.26 50.86, 100.96 31.41 M49.2 96.13 C71.65 70.41, 88.39 47.38, 100.99 36.9 M49.38 95.85 C65.27 76.8, 79.8 61.16, 99.48 37.4 M55.01 95.08 C67.58 79.63, 79.6 67.77, 98.68 43.39 M55.84 95.92 C67.22 82.22, 77.58 69.37, 99.64 43.95 M61.27 93.7 C75.34 78.34, 90.76 59.69, 100.63 50.35 M59.9 95.34 C72.82 80.86, 86.05 66.36, 100.26 48.12 M65.83 95.01 C76.96 81.93, 89.4 68.19, 98.46 53.84 M66.07 96.04 C75.33 84.66, 85.65 72.29, 100.9 54.85 M69.15 93.3 C81.12 81.65, 93.61 68.81, 99.53 62.09 M70.67 94.03 C78.52 86.32, 84.67 79.86, 101.44 61.73 M77.18 94.11 C86 85.89, 94.34 78.8, 101.81 67.4 M75.58 95.55 C82.82 88.31, 89.54 78.99, 99.7 67.11 M82.76 94.02 C84.76 90.81, 91.34 86.5, 98.6 74.79 M82.42 95.05 C86.54 88.99, 92.19 84.2, 101.02 72.91 M88.42 96.57 C90.69 92.45, 96.73 85.37, 100.71 78.08 M86.18 95.3 C92.08 89.01, 95.79 84.96, 101.24 78.89 M92.07 95.64 C93.73 91.53, 97 89.94, 99.26 84.78 M91.85 95.21 C94.42 92, 96.51 89.36, 99.87 85.35 M97.22 94.89 C98.39 94.51, 99.11 93.51, 100.25 91.89 M97.6 95.19 C98.25 94.09, 99.04 93.56, 100.59 91.68" stroke="#868e96" stroke-width="0.5" fill="none"></path><path d="M0.01 1.61 C40.75 -1.66, 78.71 0.58, 99.13 1.99 M-0.77 0.32 C23.02 0.78, 44.96 1.55, 100 0.54 M99.46 -1.28 C99.91 19.85, 98.13 38.14, 98.07 95.45 M99.41 0.28 C99.62 33.65, 98.51 65.12, 99.52 93.46 M99.94 93.37 C62.69 94.82, 23.84 92.38, -0.09 94.64 M100.9 93.71 C79.57 92.48, 60.03 93.2, 0.07 92.54 M-0.68 92.29 C1.07 65.31, -1.05 40.83, -0.33 0.93 M-0.22 92.76 C0.48 62.76, 0.97 32.37, 0.14 -0.41" stroke="#000000" stroke-width="1" fill="none"></path></g><g stroke-linecap="round"><g transform="translate(316.5 118) rotate(0 43.61039499807782 -48.447564446557635)" fill-rule="evenodd"><path d="M9.09 -98.1 C9.09 -98.1, 9.09 -98.1, 9.09 -98.1 M9.09 -98.1 C9.09 -98.1, 9.09 -98.1, 9.09 -98.1 M8.29 -91.56 C9.65 -91.76, 9.87 -93.59, 13.03 -96.32 M7.89 -90.77 C8.94 -92.16, 9.95 -93, 12.44 -96.16 M8.46 -84.9 C9.48 -86.76, 11.91 -89.23, 14.69 -90.8 M8.12 -84.79 C9.83 -86.53, 11.81 -88.64, 13.42 -90.92 M5.84 -76.98 C8.92 -81.14, 12.83 -84.92, 15.18 -87.59 M6.69 -77.22 C9.03 -79.98, 12.13 -83.68, 16.1 -87.1 M4.92 -66.35 C8.49 -71.47, 7.97 -74.51, 16.12 -81.32 M4.48 -67.71 C7.54 -73.27, 12.73 -76.93, 17.09 -82.79 M3.4 -60.22 C6.52 -65.71, 9.02 -66.56, 16.33 -76.48 M3.72 -61.39 C6.57 -66, 11.38 -68.6, 17.97 -77.92 M3.19 -56.81 C8 -59.67, 10.04 -65.13, 18.1 -71.37 M3.23 -54.19 C6.9 -59.7, 9.69 -62.56, 18.64 -72.76 M2.28 -49.26 C10.69 -53.36, 13.04 -60.5, 19.96 -69.77 M3.66 -47.89 C8.62 -54.99, 13.92 -59.18, 20.96 -69.1 M1.24 -42.68 C6.17 -49.48, 13.85 -55.17, 21.33 -63.26 M2.6 -42.1 C9.81 -48.96, 15.1 -56.63, 21.66 -65.11 M0.38 -37.17 C8.01 -45.23, 15.97 -51.08, 25.54 -61.08 M2.08 -34.6 C7.59 -43.08, 14.49 -50.12, 23.72 -60.41 M0.35 -30.76 C5.91 -33.08, 14.99 -41.28, 24.53 -55.95 M1.18 -29.37 C9.65 -36.87, 15.74 -43.69, 25.2 -55.15 M0 -22.71 C11.57 -34.86, 20.53 -45.01, 25.91 -50.01 M2.21 -23.18 C8.46 -31.13, 15.58 -39.95, 26.51 -51.08 M0.92 -16.43 C9.9 -25.32, 22.04 -36.22, 26.94 -46.14 M1.39 -15.63 C9.47 -24.44, 15.94 -34.55, 28.55 -48.09 M66.13 -91.13 C68.09 -92.23, 68.64 -93.23, 72.27 -96.9 M65.96 -90.69 C67.3 -91.68, 68.43 -93.28, 71.62 -96.67 M2.83 -9.36 C5.83 -15.86, 11.95 -24.78, 30.01 -43.08 M1.86 -10.04 C8.29 -17.19, 13.53 -25.49, 30.86 -43.9 M59.33 -76.85 C63.67 -83.4, 71.69 -91.23, 76.76 -97.43 M57.44 -74.86 C65.27 -84.07, 73.31 -93.03, 77.13 -95.88 M-1.37 -0.62 C12.66 -16.45, 21.85 -26.73, 33.04 -39.72 M0.62 -2.36 C12.17 -15.79, 24.45 -30.59, 32.94 -40.45 M51.75 -59.78 C55.01 -67.26, 61.24 -72.15, 77.31 -91.59 M49.7 -59.18 C58.71 -70.27, 69.16 -82.18, 77.47 -93.03 M2.23 1.59 C26.61 -26.34, 54.09 -59.28, 79.5 -86.38 M1.79 1.28 C17.79 -17.11, 33.85 -36.19, 79.4 -87.22 M5.84 3.9 C25.63 -15.96, 42.22 -36.02, 80.92 -82.76 M6.71 1.07 C25.28 -20.6, 43.27 -41.1, 80.92 -83.68 M11.77 1.53 C31.95 -22.22, 53.54 -46.73, 82.58 -77.97 M12.4 2.01 C32.3 -20.62, 50.96 -42.17, 82.32 -78.49 M19.36 3.72 C33.09 -12.55, 46.49 -27.93, 85.3 -74.37 M17.77 1.41 C40.95 -26.98, 65.62 -54.33, 84.22 -74.98 M22.7 3.33 C36.45 -16.67, 54.39 -34.29, 86.32 -69.83 M21.55 1.6 C46.23 -25.79, 70.21 -52.65, 86.39 -69.22 M25.97 3.94 C47.99 -21.56, 70.4 -45.35, 85.76 -66.38 M27.76 1.88 C41.53 -12.76, 53.8 -27.36, 86.4 -63.86 M34.54 2.5 C45.95 -10.93, 56.56 -25.39, 87.84 -57.78 M33.08 1.99 C55.12 -20.82, 74.76 -44.2, 87.04 -58.99 M38.29 4.47 C52.52 -14.96, 70.57 -34.42, 87.44 -53.71 M38.27 1.98 C56.35 -17.75, 73.89 -39.79, 87.04 -53.39 M41.38 3.4 C51.3 -6.88, 61.95 -20.24, 86.67 -50.08 M42.17 2.73 C53.53 -9.41, 64.54 -20.25, 87.85 -48.12 M49.5 4.08 C57.91 -6.73, 65.38 -17.89, 88.02 -40.71 M47.15 3.8 C57.71 -9.22, 68.27 -20.99, 86.98 -41.32 M53.76 0.41 C64.89 -9.83, 73.86 -18.67, 87.61 -36.41 M55.14 2.19 C64.26 -8.42, 72.68 -20.72, 87.4 -34.54 M60.56 0.04 C68.9 -6.9, 76.29 -14.8, 87.03 -26.66 M59.75 1.75 C70.42 -9.31, 79.78 -20.23, 85.64 -27.53 M66.11 -0.77 C72.78 -10.52, 82.81 -14.82, 86.58 -23.17 M66.93 -1.14 C71.29 -6.41, 75.25 -10.38, 85.11 -21.09 M74.31 -0.66 C78.03 -4.51, 81.42 -9.95, 87.01 -15.33 M73.18 -2.11 C76.13 -5.1, 80.65 -7.94, 86.22 -15.59" stroke="#868e96" stroke-width="0.5" fill="none"></path><path d="M-0.49 0.36 C0.9 -16.15, 2.93 -92.45, 8.83 -99.1 C14.74 -105.75, 24.05 -39.68, 34.94 -39.53 C45.82 -39.38, 66.47 -103.65, 74.15 -98.22 C81.82 -92.79, 93.38 -23.43, 80.98 -6.95 C68.58 9.53, 13.29 -0.37, -0.25 0.67 M1.45 -0.5 C2.63 -16.9, 2.31 -91.86, 7.8 -98.14 C13.29 -104.43, 23.33 -38.38, 34.4 -38.23 C45.47 -38.08, 66.17 -102.56, 74.21 -97.23 C82.25 -91.9, 94.83 -22.47, 82.63 -6.27 C70.43 9.93, 14.77 -1.27, 1.03 -0.02" stroke="#000000" stroke-width="1" fill="none"></path></g></g><g stroke-linecap="round" transform="translate(465 10) rotate(0 33.25 55.5)"><path d="M12.69 12.35 C12.69 12.35, 12.69 12.35, 12.69 12.35 M12.69 12.35 C12.69 12.35, 12.69 12.35, 12.69 12.35 M5.23 23.51 C14.89 15.77, 20.05 10.37, 25.06 3.19 M7.92 24.97 C12.79 17.85, 17.54 11.6, 25.38 3.8 M0.47 35.05 C8.35 29.93, 18.72 19.31, 31.79 4.24 M1.55 35.9 C9.18 27.86, 16.57 19.58, 31.24 1.57 M0.35 44.84 C12.89 33.34, 19.34 22.61, 36.08 2.06 M2.84 42.65 C12.87 31.8, 23.59 19.12, 36.8 2.86 M2.5 47.48 C18.24 29.99, 32.41 14.89, 40.22 5.71 M1.66 48.98 C16.44 31.34, 31.57 15, 40.96 5.71 M0.88 57.27 C15.56 43.65, 23.56 29.87, 43.77 6.15 M1.88 56.1 C13.14 40.3, 26.13 26.41, 43.33 7.1 M3 61.64 C16.53 45.5, 32.91 27.82, 46.72 6.31 M0.88 62.85 C12.14 49.6, 23.36 37.63, 47.54 7.83 M-0.19 69.25 C17.16 46.75, 35.32 28.15, 50.79 10.51 M1.58 68.71 C14.73 50.98, 31.11 33.51, 52.72 8.77 M0.91 72.62 C15.1 57.69, 27.94 42.84, 56.5 12.8 M1.85 73.16 C23.84 48.42, 44.71 25.8, 54.83 12.02 M5.13 76.01 C21.34 57.69, 38.92 37.67, 57.79 16.34 M3.26 78.43 C19.15 59.11, 35.92 39.85, 55.4 17.06 M4.38 81.3 C22.42 62.2, 40.79 40.01, 59.21 22.25 M5.14 82.16 C27.47 56.45, 46.85 32.28, 58.92 20.47 M6.17 87.36 C23.91 65.51, 38.83 50.51, 59.15 24.8 M7.26 85.59 C22.46 67.76, 37.35 51.61, 60.26 23.89 M10.82 90.91 C24.25 74.36, 35.84 59.16, 61.7 29.25 M9.27 89.23 C29.17 67.13, 49.69 43.07, 62.74 28.69 M9.38 94.68 C27.08 74.95, 45.51 55.17, 64.5 29.69 M10.76 93.84 C28.81 72.85, 47.46 51.67, 64.15 30.61 M14.75 97.98 C28.62 80.95, 44.4 61.78, 67.36 35.23 M12.62 95.8 C32.31 74.29, 52.38 51.97, 65.53 36.8 M15.03 98.14 C28.84 84.94, 39.24 74.2, 68.03 43.34 M16.51 99.41 C34.07 80.92, 50.98 62.73, 67.2 41.9 M17.91 103.09 C32.38 88.61, 45.82 69.95, 66.13 46.21 M19.49 102.18 C29.53 90.35, 41.98 77.65, 66.78 47.29 M23.3 105.49 C34.08 90.35, 48.02 77.75, 70.36 49.9 M22.85 105.91 C36.12 90.03, 51.25 72.55, 68.69 51 M23.87 107.89 C40.59 89.52, 52.92 75.76, 69.08 57.73 M24.76 108.5 C37.4 92.29, 51.45 77.95, 66.83 57.94 M26.22 111.54 C38.14 97.08, 48.37 84.54, 64.75 65.1 M27.71 109.76 C38.12 100.2, 47.3 89.3, 65.27 67.54 M35.39 109.58 C41.48 99.62, 48.77 94.27, 63.21 76.92 M33.17 109.23 C39.71 102.32, 45.89 96.41, 63.67 75.94 M40.89 108.13 C47.03 102.84, 52.35 94.65, 62.2 84.7 M39.81 110.22 C45.31 101.05, 53.26 94.72, 62.03 83.96" stroke="#868e96" stroke-width="0.5" fill="none"></path><path d="M30.17 0.73 C36.02 -0.71, 43.86 2.53, 49.21 7.18 C54.55 11.82, 59.32 20.16, 62.24 28.62 C65.16 37.07, 67.14 47.96, 66.73 57.91 C66.32 67.86, 63.17 80.02, 59.76 88.33 C56.34 96.64, 51.85 104.33, 46.24 107.77 C40.64 111.22, 32.06 111.18, 26.14 108.98 C20.22 106.79, 15 101.33, 10.75 94.63 C6.5 87.92, 2.13 78.43, 0.64 68.74 C-0.85 59.04, -0.17 45.84, 1.82 36.46 C3.81 27.08, 6.53 18.27, 12.58 12.48 C18.63 6.69, 32.48 2.71, 38.12 1.72 C43.75 0.72, 46.21 5.77, 46.39 6.52 M37.85 1.38 C43.62 1.71, 48.98 6.19, 53.37 12.32 C57.77 18.46, 62.02 28.85, 64.2 38.19 C66.38 47.53, 68.02 58.74, 66.47 68.37 C64.93 77.99, 59.38 89.23, 54.94 95.94 C50.5 102.65, 45.54 106.92, 39.84 108.6 C34.14 110.29, 26.11 109.8, 20.74 106.07 C15.36 102.34, 11.1 94.49, 7.59 86.25 C4.08 78.01, 0.3 66.17, -0.31 56.65 C-0.92 47.14, 0.89 37.81, 3.95 29.17 C7.01 20.53, 12.77 9.61, 18.06 4.79 C23.36 -0.02, 32.84 0.73, 35.73 0.29 C38.61 -0.15, 35.25 1.39, 35.37 2.18" stroke="#000000" stroke-width="1" fill="none"></path></g><g stroke-linecap="round"><g transform="translate(206 26) rotate(0 9.269474596097098 56.48198104901732)" fill-rule="evenodd"><path d="M0 0 C0 0, 0 0, 0 0 M0 0 C0 0, 0 0, 0 0 M-3.69 12.3 C-1.85 9.57, -0.95 7.42, 2.42 3.38 M-4.63 11.29 C-1.98 8.45, 1.08 4.65, 3.05 3.04 M-10.93 24.03 C-5.54 18.24, 0.75 12.44, 5.49 3.56 M-9.55 23.18 C-4.53 17.28, 1.14 11.05, 5.13 4.49 M-13.43 36.38 C-7.63 29.26, -0.23 19.73, 9.66 7.6 M-15.56 34.21 C-6.6 24.97, 2.66 15.09, 7.83 9.17 M-21.02 45.6 C-11.42 37.37, -5.25 31.49, 12.96 12.69 M-19.55 46.87 C-8.5 35.51, 2.09 24.57, 12.12 11.25 M-25.36 58.85 C-13.66 47.52, -2.91 31.96, 13.02 13.29 M-23.78 57.95 C-16 48.67, -5.84 38.61, 13.67 14.37 M-26.53 68.8 C-16.08 54.07, -2.5 41.86, 19.22 14.72 M-26.98 69.21 C-14.11 53.79, 0.62 36.78, 17.54 15.82 M-32.52 78.74 C-12.82 56.85, 2.51 39.65, 21.88 18.02 M-31.63 79.36 C-16.13 59.9, 0.81 42.23, 19.63 18.23 M-36.73 89.95 C-19.19 69.2, -3.54 50.42, 21.48 20.86 M-35.24 88.17 C-19.78 73.1, -5.77 56.64, 22 23.3 M-32.15 93.26 C-19.1 74.91, -4.61 61.27, 25.19 26.65 M-34.37 92.92 C-21.49 78.95, -9.28 66.09, 25.65 25.67 M-33.21 99.36 C-15.85 81.7, 0.55 60.77, 28.77 29.14 M-34.29 101.45 C-16.83 78.13, 3.43 57.63, 28.6 28.4 M-35.55 109.72 C-13.09 84.9, 7.81 61.08, 33.09 29.61 M-36.57 109.98 C-10.99 80.78, 12.48 53.2, 32.57 30.91 M-36.12 111.02 C-13.57 93, 3.89 68.83, 33.33 33.65 M-34.96 112.25 C-7.69 82.32, 18.64 52.43, 34.41 32.65 M-27.76 113.61 C-5.31 85.4, 16.5 61.48, 36.24 36.14 M-29.82 112.87 C-8.21 91.47, 10.57 68.51, 37.49 36.81 M-24.08 113.59 C-4.81 91.83, 12.37 73.95, 40.58 38.29 M-22.79 112.19 C-0.66 86.08, 21.89 58.89, 40.4 38.2 M-16.98 111.66 C4.06 86.42, 26.88 62.29, 43.13 40.3 M-18.15 111.93 C5.29 85.72, 28.24 59.6, 43.05 40.78 M-9.49 111.7 C5.02 94.03, 18.47 74.17, 47.12 42.51 M-11.43 110.64 C4.54 92.29, 19.47 76.65, 45.4 43.52 M-3.71 108.3 C15.04 86.25, 35.7 62.06, 46.82 46.97 M-3.2 107.98 C9.91 92.61, 20.88 79.83, 48.16 46.87 M5.58 104.96 C15.55 91.43, 25.65 78.22, 51.42 51.35 M3.53 103.77 C17.15 90.57, 28.92 75.22, 50.87 51.44 M10.17 101.34 C30.36 83.4, 44.7 64.1, 53.53 54.56 M12.75 102.01 C28.48 83.88, 43.54 66.2, 54.62 54.44 M20.27 95.06 C32.72 83.1, 46.4 70.01, 56.46 55.89 M21.45 97.55 C32.96 83.74, 44.57 71.33, 55.49 57.63 M33.13 91.85 C37 85.22, 42.7 80.02, 58.01 60.34 M32.5 91.04 C41.64 81.13, 48.7 71.92, 56.51 61.47 M42.22 85.97 C42.84 84.42, 48.43 78.46, 57.78 66.3 M41.92 86.09 C46.51 79.5, 53.39 72.83, 57.2 67.61" stroke="#868e96" stroke-width="0.5" fill="none"></path><path d="M-0.41 0.81 C-6.82 19.23, -47.14 100.34, -37.41 111.66 C-27.68 122.97, 51.9 87.44, 57.98 68.69 C64.06 49.93, 8.67 10.58, -0.94 -0.87 M1.58 0.19 C-5.12 18.77, -47.93 98.31, -38.57 109.88 C-29.22 121.44, 51.5 87.93, 57.73 69.58 C63.96 51.23, 8.6 11.31, -1.18 -0.22" stroke="#000000" stroke-width="1" fill="none"></path></g></g></svg>