<svg xmlns="http://www.w3.org/2000/svg" xmlns:xlink="http://www.w3.org/1999/xlink" viewBox="0 0 272.4 101.77"><defs><style>.cls-1,.cls-11,.cls-14,.cls-2,.cls-6,.cls-7{fill:none;}.cls-2{stroke:#00aeef;}.cls-11,.cls-2,.cls-6,.cls-7{stroke-miterlimit:3.86;}.cls-3{clip-path:url(#clip-path);}.cls-4{fill:#00aeef;}.cls-5{font-size:8px;}.cls-12,.cls-5,.cls-9{fill:#231f20;}.cls-12,.cls-5{font-family:Roboto-Regular, Roboto;}.cls-6,.cls-7{stroke:#ed1846;}.cls-11,.cls-14,.cls-6,.cls-7{stroke-width:0.5px;}.cls-6{stroke-dasharray:4 1;}.cls-8{letter-spacing:0.03em;}.cls-10{fill:#fff;}.cls-11,.cls-14{stroke:#231f20;}.cls-12{font-size:6px;}.cls-13{letter-spacing:0.25em;}</style><clipPath id="clip-path"><rect class="cls-1" width="276.67" height="101.96"/></clipPath></defs><g id="Layer_2" data-name="Layer 2"><g id="Layer_1-2" data-name="Layer 1"><polyline class="cls-2" points="269.4 67.92 180.72 67.92 119.41 2.19"/><g class="cls-3"><path class="cls-4" d="M117.36,0l1.58,5.36A3.35,3.35,0,0,1,122.6,2"/></g><path class="cls-4" d="M272.4,67.92l-5-2.5a3.34,3.34,0,0,1,0,5"/><text class="cls-5" transform="translate(152.64 32.4)">u</text><text class="cls-5" transform="translate(221.04 64.56)">v</text><line class="cls-6" x1="117.36" y1="0.24" x2="117.36" y2="67.92"/><polygon class="cls-7" points="180.96 66.24 121.92 66.24 121.92 63.6 117.6 67.92 121.92 72.24 121.92 69.6 180.96 69.6 180.96 66.24"/><text class="cls-5" transform="translate(190.08 99.6)"><tspan class="cls-8">(</tspan><tspan x="2.95" y="0">b)</tspan></text><path class="cls-9" d="M168.48,53.76a8.06,8.06,0,0,1,3.89-.61l-.11-.15-2.65-.07.74-2.54-.11-.15a7.88,7.88,0,0,1-1.76,3.52"/><polyline class="cls-2" points="90.6 67.92 1.68 67.92 62.99 2.19"/><path class="cls-4" d="M65,0,59.8,2a3.35,3.35,0,0,1,3.66,3.41"/><path class="cls-4" d="M93.6,67.92l-5-2.5a3.34,3.34,0,0,1,0,5"/><text class="cls-5" transform="translate(25.44 31.68)">u</text><text class="cls-5" transform="translate(77.04 64.56)">v</text><line class="cls-6" x1="65.04" y1="0.24" x2="65.04" y2="67.92"/><rect class="cls-10" y="66.48" width="1.44" height="3.12"/><polygon class="cls-7" points="1.44 66 60.48 66 60.48 63.36 65.04 67.92 60.48 72.24 60.48 69.6 1.44 69.6 1.44 66"/><text class="cls-5" transform="translate(43.2 99.6)">(a)</text><polyline class="cls-11" points="15.79 55.05 17.48 57.1 19.27 60.38 20.43 64 20.88 67.92"/><path class="cls-9" d="M15.12,54.24A8.08,8.08,0,0,1,16,58.09L16.1,58,16,55.32l2.59.59.14-.11a8.07,8.07,0,0,1-3.62-1.56"/><text class="cls-5" transform="translate(22.29 61.37) scale(1 1.02)">θ</text><text class="cls-5" transform="translate(191 49.35) scale(1 1.02)">θ</text><text class="cls-5" transform="translate(35.85 60.2)">proj</text><text class="cls-12" transform="translate(49.14 62.2)">v</text><text class="cls-5" transform="translate(54.14 60.2)">u</text><text class="cls-5" transform="translate(132.41 60.2)">proj</text><text class="cls-12" transform="translate(145.7 62.2)">v</text><text class="cls-5" transform="translate(150.7 60.2)">u</text><text class="cls-5" transform="translate(4.08 87.72)">Length</text><text class="cls-5" transform="translate(28.74 87.72)">=</text><text class="cls-5" transform="translate(37.4 87.72)">|u| cos</text><text class="cls-5" transform="translate(60.57 87.72) scale(1 1.02)">θ</text><text class="cls-5" transform="translate(119.19 87.72)">Length</text><text class="cls-5" transform="translate(143.86 87.72)"><tspan class="cls-13">=</tspan><tspan x="6.39" y="0">−|u| cos</tspan></text><text class="cls-5" transform="translate(177.98 87.72) scale(1 1.02)">θ</text><path class="cls-14" d="M117.49,72.61s-.12,2,1.57,2H147.2a2.41,2.41,0,0,1,2.56,2.56,2.41,2.41,0,0,1,2.57-2.56h28.14c1.69,0,1.56-2,1.56-2M1.23,72.39s-.13,2,1.56,2H30.93A2.41,2.41,0,0,1,33.5,77a2.41,2.41,0,0,1,2.56-2.56H64.21c1.68,0,1.56-2,1.56-2"/><path class="cls-11" d="M199.44,67.92a18.72,18.72,0,0,0-29.87-15"/></g></g></svg>