<svg xmlns="http://www.w3.org/2000/svg" xmlns:xlink="http://www.w3.org/1999/xlink" viewBox="0 0 150.98 158.56"><defs><style>.cls-1,.cls-11,.cls-14,.cls-16,.cls-19,.cls-21,.cls-6{fill:none;}.cls-2{clip-path:url(#clip-path);}.cls-3{fill:url(#radial-gradient);}.cls-4{clip-path:url(#clip-path-2);}.cls-5{fill:#b89882;}.cls-6{stroke:#b89882;}.cls-16,.cls-19,.cls-21,.cls-6{stroke-miterlimit:3.86;}.cls-19,.cls-6{stroke-width:0.3px;}.cls-7{fill:#917277;}.cls-8{fill:#e3cac0;}.cls-9{clip-path:url(#clip-path-3);}.cls-10{fill:url(#radial-gradient-2);}.cls-11{stroke:#788a83;}.cls-11,.cls-14{stroke-width:0.25px;}.cls-12{clip-path:url(#clip-path-5);}.cls-13{fill:url(#radial-gradient-3);}.cls-14{stroke:#2dbdb6;}.cls-15{font-size:8px;}.cls-15,.cls-17,.cls-20{fill:#231f20;}.cls-15,.cls-20{font-family:TimesNewRomanPSMT, Times New Roman;}.cls-16,.cls-19,.cls-21{stroke:#231f20;}.cls-16{stroke-width:0.5px;}.cls-18{clip-path:url(#clip-path-8);}.cls-20{font-size:6px;}.cls-21{stroke-width:0.4px;}</style><clipPath id="clip-path" transform="translate(0 -2.09)"><path class="cls-1" d="M9.51,101.73A48.5,48.5,0,1,0,58,53.23a48.5,48.5,0,0,0-48.5,48.5"/></clipPath><radialGradient id="radial-gradient" cx="-99" cy="645.6" r="1" gradientTransform="matrix(73.26, 0, 0, -73.26, 7322, 47379.74)" gradientUnits="userSpaceOnUse"><stop offset="0" stop-color="#dddfdd"/><stop offset="0.01" stop-color="#dddfdd"/><stop offset="1" stop-color="#b87976"/></radialGradient><clipPath id="clip-path-2" transform="translate(0 -2.09)"><rect class="cls-1" width="156" height="167.77"/></clipPath><clipPath id="clip-path-3" transform="translate(0 -2.09)"><path class="cls-1" d="M45,114.73s7,3.12,21.3.78c13-2.11,16.88-6.8,16.88-6.8A26.16,26.16,0,0,0,58,75.6s-18,9.88-13,39.13"/></clipPath><radialGradient id="radial-gradient-2" cx="-99" cy="645.6" r="1" gradientTransform="matrix(39.87, 0, 0, -39.87, 4014, 25821.45)" gradientUnits="userSpaceOnUse"><stop offset="0" stop-color="#dddfdd"/><stop offset="0.01" stop-color="#dddfdd"/><stop offset="1" stop-color="#778a83"/></radialGradient><clipPath id="clip-path-5" transform="translate(0 -2.09)"><path class="cls-1" d="M52.85,106.94s4.29,2.46,16.4-1.3l1.3-.48A13,13,0,0,0,58,88.72s-6.86,7.87-5.16,18.22"/></clipPath><radialGradient id="radial-gradient-3" cx="-99" cy="645.6" r="1" gradientTransform="matrix(9.28, 0, 0, -9.28, 980.45, 6086.01)" gradientUnits="userSpaceOnUse"><stop offset="0" stop-color="#ddf0ec"/><stop offset="0.01" stop-color="#ddf0ec"/><stop offset="1" stop-color="#2ebdb6"/></radialGradient><clipPath id="clip-path-8" transform="translate(0 -2.09)"><rect class="cls-1" width="150.98" height="160.65"/></clipPath></defs><g id="Layer_2" data-name="Layer 2"><g id="Layer_1-2" data-name="Layer 1"><g class="cls-2"><rect class="cls-3" x="9.51" y="51.14" width="97" height="97"/></g><g class="cls-4"><path class="cls-5" d="M97,112.53A40.47,40.47,0,0,0,58,61.29v40.44Z" transform="translate(0 -2.09)"/><path class="cls-6" d="M97,112.53A40.47,40.47,0,0,0,58,61.29v40.44Z" transform="translate(0 -2.09)"/><path class="cls-7" d="M58,101.73V61.29S37.12,70.16,35.55,109.2a75,75,0,0,0,1.57,13.41Z" transform="translate(0 -2.09)"/><path class="cls-6" d="M58,101.73V61.29S37.12,70.16,35.55,109.2a75,75,0,0,0,1.57,13.41Z" transform="translate(0 -2.09)"/><path class="cls-8" d="M97,112.53l-39-10.8L37.13,122.61s21.75,6.62,41.73.26C93.73,118.13,97,112.53,97,112.53" transform="translate(0 -2.09)"/><path class="cls-6" d="M97,112.53l-39-10.8L37.13,122.61s21.75,6.62,41.73.26C93.73,118.13,97,112.53,97,112.53Z" transform="translate(0 -2.09)"/></g><g class="cls-9"><rect class="cls-10" x="40.01" y="73.51" width="44.13" height="42.25"/></g><g class="cls-4"><path class="cls-11" d="M83.19,108.71A26.16,26.16,0,0,0,58,75.6s-18,9.88-13,39.13c0,0,7,3.12,21.3.79C79.32,113.4,83.19,108.71,83.19,108.71Z" transform="translate(0 -2.09)"/></g><g class="cls-12"><rect class="cls-13" x="51.15" y="86.63" width="19.86" height="20.68"/></g><g class="cls-4"><path class="cls-14" d="M70.55,105.16A13,13,0,0,0,58,88.73s-6.86,7.86-5.16,18.21c0,0,4.29,2.46,16.4-1.3Z" transform="translate(0 -2.09)"/></g><text class="cls-15" transform="translate(7.27 148.48)">x</text><text class="cls-15" transform="translate(125.35 120.16)">y</text><text class="cls-15" transform="translate(56.71 36.64)">z</text><text class="cls-15" transform="translate(51.43 111.76)">1</text><text class="cls-15" transform="translate(42.79 121.12)">2</text><text class="cls-15" transform="translate(36.31 128.56)">3</text><g class="cls-4"><line class="cls-16" x1="58.15" y1="99.76" x2="58.15" y2="40.9"/><polygon class="cls-17" points="59.9 42.3 58.15 38.8 56.4 42.3 58.15 40.9 59.9 42.3"/><line class="cls-16" x1="58.15" y1="99.76" x2="121.4" y2="117.2"/><polygon class="cls-17" points="119.59 118.51 123.43 117.76 120.52 115.14 121.4 117.2 119.59 118.51"/><line class="cls-16" x1="57.67" y1="100" x2="14.04" y2="143.4"/><polygon class="cls-17" points="13.8 141.17 12.55 144.88 16.26 143.65 14.04 143.4 13.8 141.17"/></g><g class="cls-18"><line class="cls-19" x1="66.39" y1="89.71" x2="66.39" y2="10.98"/><path class="cls-16" d="M10.15,88.17.07,85.29m57.6,65.52v9.84" transform="translate(0 -2.09)"/></g><text class="cls-15" transform="translate(90.61 53.87) scale(1.04 1)">√</text><text class="cls-15" transform="translate(95.87 54.87)">x</text><text class="cls-20" transform="translate(99.82 51.87)">2 </text><text class="cls-15" transform="translate(104.32 54.87)">+</text><text class="cls-15" transform="translate(110.99 55.37)"> </text><text class="cls-15" transform="translate(112.99 54.87)">y</text><text class="cls-20" transform="translate(117.14 51.87)">2 </text><text class="cls-15" transform="translate(121.64 54.87)">+</text><text class="cls-15" transform="translate(128.3 55.37)"> </text><text class="cls-15" transform="translate(130.3 54.87)">z</text><text class="cls-20" transform="translate(133.82 51.87)">2 </text><text class="cls-15" transform="translate(138.32 54.87)">=</text><text class="cls-15" transform="translate(144.98 55.37)"><tspan xml:space="preserve"> 3</tspan></text><g class="cls-4"><line class="cls-21" x1="95.53" y1="46.56" x2="136.96" y2="46.56"/></g><text class="cls-15" transform="translate(73.76 31.28) scale(1.04 1)">√</text><text class="cls-15" transform="translate(60.13 7.65) scale(1.04 1)">√</text><text class="cls-15" transform="translate(79.02 32.28)">x</text><text class="cls-20" transform="translate(82.97 29.28)">2 </text><text class="cls-15" transform="translate(87.47 32.28)">+</text><text class="cls-15" transform="translate(94.13 32.77)"> </text><text class="cls-15" transform="translate(96.13 32.28)">y</text><text class="cls-20" transform="translate(100.28 29.28)">2 </text><text class="cls-15" transform="translate(104.78 32.28)">+</text><text class="cls-15" transform="translate(111.45 32.77)"> </text><text class="cls-15" transform="translate(113.45 32.28)">z</text><text class="cls-20" transform="translate(116.96 29.28)">2 </text><text class="cls-15" transform="translate(121.46 32.28)">=</text><text class="cls-15" transform="translate(128.12 32.77)"><tspan xml:space="preserve"> 2</tspan></text><g class="cls-4"><line class="cls-21" x1="78.68" y1="23.97" x2="120.1" y2="23.97"/></g><text class="cls-15" transform="translate(64.96 8.51)">x</text><text class="cls-20" transform="translate(68.91 5.51)">2 </text><text class="cls-15" transform="translate(73.41 8.51)">+</text><text class="cls-15" transform="translate(80.08 9.01)"> </text><text class="cls-15" transform="translate(82.08 8.51)">y</text><text class="cls-20" transform="translate(86.23 5.51)">2 </text><text class="cls-15" transform="translate(90.73 8.51)">+</text><text class="cls-15" transform="translate(97.39 9.01)"> </text><text class="cls-15" transform="translate(99.39 8.51)">z</text><text class="cls-20" transform="translate(102.9 5.51)">2 </text><text class="cls-15" transform="translate(107.4 8.51)">=</text><text class="cls-15" transform="translate(114.07 9.01)"><tspan xml:space="preserve"> 1</tspan></text><g class="cls-4"><line class="cls-21" x1="64.62" y1="0.2" x2="106.05" y2="0.2"/><path class="cls-19" d="M96.86,90V59.73M80.36,87.8V39.1" transform="translate(0 -2.09)"/></g></g></g></svg>