<svg version="1.1" xmlns="http://www.w3.org/2000/svg" xmlns:xlink="http://www.w3.org/1999/xlink" width="320" height="320"><defs/><g transform="scale(2,2)"><g id="background-d10bb96c"><rect fill="white" stroke="none" x="0" y="0" width="160" height="160" class="dcg-svg-background"/></g><g id="background-images-d10bb96c"/><g id="graphpaper-d10bb96c"><g id="grid-d10bb96c"><g><path fill="none" stroke="rgb(0,0,0)" class="dcg-svg-minor-gridline" paint-order="fill stroke markers" d=" M 16.5 0 L 16.5 160" stroke-opacity="0.2" stroke-miterlimit="10" stroke-dasharray=""/><path fill="none" stroke="rgb(0,0,0)" class="dcg-svg-minor-gridline" paint-order="fill stroke markers" d=" M 32.5 0 L 32.5 160" stroke-opacity="0.2" stroke-miterlimit="10" stroke-dasharray=""/><path fill="none" stroke="rgb(0,0,0)" class="dcg-svg-minor-gridline" paint-order="fill stroke markers" d=" M 48.5 0 L 48.5 160" stroke-opacity="0.2" stroke-miterlimit="10" stroke-dasharray=""/><path fill="none" stroke="rgb(0,0,0)" class="dcg-svg-minor-gridline" paint-order="fill stroke markers" d=" M 64.5 0 L 64.5 160" stroke-opacity="0.2" stroke-miterlimit="10" stroke-dasharray=""/><path fill="none" stroke="rgb(0,0,0)" class="dcg-svg-minor-gridline" paint-order="fill stroke markers" d=" M 96.5 0 L 96.5 160" stroke-opacity="0.2" stroke-miterlimit="10" stroke-dasharray=""/><path fill="none" stroke="rgb(0,0,0)" class="dcg-svg-minor-gridline" paint-order="fill stroke markers" d=" M 112.5 0 L 112.5 160" stroke-opacity="0.2" stroke-miterlimit="10" stroke-dasharray=""/><path fill="none" stroke="rgb(0,0,0)" class="dcg-svg-minor-gridline" paint-order="fill stroke markers" d=" M 128.5 0 L 128.5 160" stroke-opacity="0.2" stroke-miterlimit="10" stroke-dasharray=""/><path fill="none" stroke="rgb(0,0,0)" class="dcg-svg-minor-gridline" paint-order="fill stroke markers" d=" M 144.5 0 L 144.5 160" stroke-opacity="0.2" stroke-miterlimit="10" stroke-dasharray=""/><path fill="none" stroke="rgb(0,0,0)" class="dcg-svg-minor-gridline" paint-order="fill stroke markers" d=" M 0 144.5 L 160 144.5" stroke-opacity="0.2" stroke-miterlimit="10" stroke-dasharray=""/><path fill="none" stroke="rgb(0,0,0)" class="dcg-svg-minor-gridline" paint-order="fill stroke markers" d=" M 0 128.5 L 160 128.5" stroke-opacity="0.2" stroke-miterlimit="10" stroke-dasharray=""/><path fill="none" stroke="rgb(0,0,0)" class="dcg-svg-minor-gridline" paint-order="fill stroke markers" d=" M 0 112.5 L 160 112.5" stroke-opacity="0.2" stroke-miterlimit="10" stroke-dasharray=""/><path fill="none" stroke="rgb(0,0,0)" class="dcg-svg-minor-gridline" paint-order="fill stroke markers" d=" M 0 96.5 L 160 96.5" stroke-opacity="0.2" stroke-miterlimit="10" stroke-dasharray=""/><path fill="none" stroke="rgb(0,0,0)" class="dcg-svg-minor-gridline" paint-order="fill stroke markers" d=" M 0 64.5 L 160 64.5" stroke-opacity="0.2" stroke-miterlimit="10" stroke-dasharray=""/><path fill="none" stroke="rgb(0,0,0)" class="dcg-svg-minor-gridline" paint-order="fill stroke markers" d=" M 0 48.5 L 160 48.5" stroke-opacity="0.2" stroke-miterlimit="10" stroke-dasharray=""/><path fill="none" stroke="rgb(0,0,0)" class="dcg-svg-minor-gridline" paint-order="fill stroke markers" d=" M 0 32.5 L 160 32.5" stroke-opacity="0.2" stroke-miterlimit="10" stroke-dasharray=""/><path fill="none" stroke="rgb(0,0,0)" class="dcg-svg-minor-gridline" paint-order="fill stroke markers" d=" M 0 16.5 L 160 16.5" stroke-opacity="0.2" stroke-miterlimit="10" stroke-dasharray=""/><path fill="none" stroke="rgb(0,0,0)" class="dcg-svg-major-gridline" paint-order="fill stroke markers" d=" M 0 160 L 160 160" stroke-opacity="0.2500000000000001" stroke-miterlimit="10" stroke-dasharray=""/><path fill="none" stroke="rgb(0,0,0)" class="dcg-svg-major-gridline" paint-order="fill stroke markers" d=" M 0 0 L 160 0" stroke-opacity="0.2500000000000001" stroke-miterlimit="10" stroke-dasharray=""/></g></g><g id="axis-d10bb96c"><g id="yaxis-d10bb96c"><title>Y axis</title><g><path fill="none" stroke="rgb(0,0,0)" class="dcg-svg-axis-line" paint-order="fill stroke markers" d=" M 80 0 L 80 160" stroke-opacity="0.9" stroke-miterlimit="10" stroke-width="1.5" stroke-dasharray=""/></g></g><g id="xaxis-d10bb96c"><title>X axis</title><g><path fill="none" stroke="rgb(0,0,0)" class="dcg-svg-axis-line" paint-order="fill stroke markers" d=" M 0 80 L 160 80" stroke-opacity="0.9" stroke-miterlimit="10" stroke-width="1.5" stroke-dasharray=""/></g></g><g><g class="dcg-svg-axis-value"><text fill="none" stroke="#ffffff" font-family="Arial" font-size="10px" font-style="normal" font-weight="normal" text-decoration="normal" x="72.21923828125" y="92.72" text-anchor="middle" stroke-miterlimit="2" stroke-width="3" stroke-dasharray="">0</text><text fill="#000000" stroke="none" font-family="Arial" font-size="10px" font-style="normal" font-weight="normal" text-decoration="normal" x="72.21923828125" y="92.72" text-anchor="middle">0</text></g><g class="dcg-svg-axis-value dcg-svg-offcenter-axis-value"><text fill="none" stroke="#ffffff" font-family="Arial" font-size="10px" font-style="normal" font-weight="normal" text-decoration="normal" x="7.44580078125" y="92.72" text-anchor="middle" stroke-miterlimit="2" stroke-width="3" stroke-dasharray="">-5</text><text fill="#000000" stroke="none" font-family="Arial" font-size="10px" font-style="normal" font-weight="normal" text-decoration="normal" x="7.44580078125" y="92.72" text-anchor="middle">-5</text></g><g class="dcg-svg-axis-value dcg-svg-offcenter-axis-value"><text fill="none" stroke="#ffffff" font-family="Arial" font-size="10px" font-style="normal" font-weight="normal" text-decoration="normal" x="154.21923828125" y="92.72" text-anchor="middle" stroke-miterlimit="2" stroke-width="3" stroke-dasharray="">5</text><text fill="#000000" stroke="none" font-family="Arial" font-size="10px" font-style="normal" font-weight="normal" text-decoration="normal" x="154.21923828125" y="92.72" text-anchor="middle">5</text></g><g class="dcg-svg-axis-value dcg-svg-offcenter-axis-value"><text fill="none" stroke="#ffffff" font-family="Arial" font-size="10px" font-style="normal" font-weight="normal" text-decoration="normal" x="70.55419921875" y="154.72" text-anchor="middle" stroke-miterlimit="2" stroke-width="3" stroke-dasharray="">-5</text><text fill="#000000" stroke="none" font-family="Arial" font-size="10px" font-style="normal" font-weight="normal" text-decoration="normal" x="70.55419921875" y="154.72" text-anchor="middle">-5</text></g><g class="dcg-svg-axis-value dcg-svg-offcenter-axis-value"><text fill="none" stroke="#ffffff" font-family="Arial" font-size="10px" font-style="normal" font-weight="normal" text-decoration="normal" x="72.21923828125" y="10.72" text-anchor="middle" stroke-miterlimit="2" stroke-width="3" stroke-dasharray="">5</text><text fill="#000000" stroke="none" font-family="Arial" font-size="10px" font-style="normal" font-weight="normal" text-decoration="normal" x="72.21923828125" y="10.72" text-anchor="middle">5</text></g></g></g></g><g id="expressions-d10bb96c"><g id="sketch-d10bb96c"><title>Expression 1</title><path fill="#c74440" stroke="none" paint-order="stroke fill markers" d="" fill-opacity="0.4"/><path fill="#c74440" stroke="none" paint-order="stroke fill markers" d="" fill-opacity="0.4"/><g><path fill="none" stroke="#c74440" class="dcg-svg-curve" paint-order="fill stroke markers" d=" M 64 80 L 64 80 L 64.0625 81.41283181943217 L 64.21875 82.63669270820473 L 64.453125 83.78083029695529 L 64.765625 84.89017569821115 L 65.15625 85.97185782964564 L 65.625 87.0256227481982 L 66.171875 88.04878618080858 L 66.8359375 89.09436410619752 L 67.578125 90.08449411147505 L 68.4375 91.05932157729397 L 69.375 91.96283306746358 L 70.4296875 92.82221192510652 L 71.640625 93.64261153919495 L 72.8515625 94.31432294272396 L 74.1015625 94.87307752479606 L 75.3515625 95.3098670408529 L 76.640625 95.64335640485682 L 77.9296875 95.86549104668191 L 79.21875 95.98091513141534 L 80.5078125 95.9919394216225 L 81.796875 95.89878109272453 L 83.0859375 95.69958565523606 L 84.3359375 95.4012871538743 L 85.5859375 94.99324188579953 L 86.796875 94.48456040873782 L 88.0078125 93.85189297406112 L 89.1796875 93.10470668890929 L 90.3125 92.23324747358608 L 91.328125 91.29927360427983 L 92.2265625 90.32042486691287 L 93.0078125 89.31648077145248 L 93.671875 88.31142791488773 L 94.2578125 87.26049466047898 L 94.765625 86.16249286891068 L 95.15625 85.12719084270324 L 95.46875 84.08873738915817 L 95.703125 83.06787633948551 L 95.859375 82.11665410716418 L 95.9765625 80.86570819771661 L 96 80" stroke-linecap="round" stroke-linejoin="round" stroke-miterlimit="10" stroke-width="2.5" stroke-opacity="0.9" stroke-dasharray=""/></g><g><path fill="none" stroke="#c74440" class="dcg-svg-curve" paint-order="fill stroke markers" d=" M 64 80 L 64 80 L 64.0625 78.58716818056783 L 64.21875 77.36330729179527 L 64.453125 76.21916970304471 L 64.765625 75.10982430178885 L 65.15625 74.02814217035436 L 65.625 72.9743772518018 L 66.171875 71.95121381919142 L 66.8359375 70.90563589380248 L 67.578125 69.91550588852495 L 68.4375 68.94067842270603 L 69.375 68.03716693253642 L 70.4296875 67.17778807489348 L 71.640625 66.35738846080505 L 72.8515625 65.68567705727604 L 74.1015625 65.12692247520394 L 75.3515625 64.6901329591471 L 76.640625 64.35664359514318 L 77.9296875 64.13450895331809 L 79.21875 64.01908486858466 L 80.5078125 64.0080605783775 L 81.796875 64.10121890727547 L 83.0859375 64.30041434476394 L 84.3359375 64.5987128461257 L 85.5859375 65.00675811420047 L 86.796875 65.51543959126218 L 88.0078125 66.14810702593888 L 89.1796875 66.89529331109071 L 90.3125 67.76675252641392 L 91.328125 68.70072639572017 L 92.2265625 69.67957513308713 L 93.0078125 70.68351922854752 L 93.671875 71.68857208511227 L 94.2578125 72.73950533952102 L 94.765625 73.83750713108932 L 95.15625 74.87280915729676 L 95.46875 75.91126261084183 L 95.703125 76.93212366051449 L 95.859375 77.88334589283582 L 95.9765625 79.13429180228339 L 96 80" stroke-linecap="round" stroke-linejoin="round" stroke-miterlimit="10" stroke-width="2.5" stroke-opacity="0.9" stroke-dasharray=""/></g></g><g id="sketch-d10bb96c"><title>Expression 2</title><path fill="#2d70b3" stroke="none" paint-order="stroke fill markers" d="" fill-opacity="0.4"/><path fill="#2d70b3" stroke="none" paint-order="stroke fill markers" d="" fill-opacity="0.4"/><g><path fill="none" stroke="#2d70b3" class="dcg-svg-curve" paint-order="fill stroke markers" d=" M 57.37258300203048 80.00000033717478 L 57.37258300203048 80.00000033717478 L 57.421875 81.4927395902752 L 57.578125 83.04294618492918 L 57.8125 84.44014005972785 L 58.125 85.78656849955135 L 58.515625 87.10081902736403 L 58.984375 88.38710354409524 L 59.53125 89.64522023789503 L 60.15625 90.87315896772874 L 60.8984375 92.12972835881305 L 61.71875 93.33401284075802 L 62.6171875 94.4857802547824 L 63.6328125 95.6241855256472 L 64.765625 96.73062516343532 L 66.015625 97.78868336497604 L 67.3828125 98.78314615792156 L 68.828125 99.67712400185492 L 70.2734375 100.43022226833554 L 71.7578125 101.07288174917811 L 73.2421875 101.59472088763464 L 74.765625 102.0136620842461 L 76.2890625 102.32104260268981 L 77.8125 102.52143076605037 L 79.3359375 102.61767054751867 L 80.859375 102.61109184912075 L 82.3828125 102.5016044892324 L 83.90625 102.28769191588712 L 85.4296875 101.96630359556072 L 86.9140625 101.54520224426064 L 88.3984375 101.01109819972754 L 89.84375 100.37401742262679 L 91.2890625 99.61012666637046 L 92.6953125 98.73043086870518 L 94.0625 97.72698772352483 L 95.3515625 96.6231624190042 L 96.484375 95.50049614881327 L 97.5 94.34398828778106 L 98.3984375 93.1718448806002 L 99.21875 91.94318418335328 L 99.921875 90.72934743982015 L 100.546875 89.47765412612083 L 101.09375 88.18863303228933 L 101.5625 86.8599266577712 L 101.9140625 85.63683109078973 L 102.2265625 84.24027350929086 L 102.421875 83.04294618492918 L 102.5390625 81.99766404109744 L 102.6171875 80.68031580155377 L 102.62741699796952 80.00000033717478" stroke-linecap="round" stroke-linejoin="round" stroke-miterlimit="10" stroke-width="2.5" stroke-opacity="0.9" stroke-dasharray=""/></g><g><path fill="none" stroke="#2d70b3" class="dcg-svg-curve" paint-order="fill stroke markers" d=" M 57.37258300203048 79.99999966282522 L 57.37258300203048 79.99999966282522 L 57.421875 78.5072604097248 L 57.578125 76.95705381507082 L 57.8125 75.55985994027215 L 58.125 74.21343150044865 L 58.515625 72.89918097263597 L 58.984375 71.61289645590476 L 59.53125 70.35477976210497 L 60.15625 69.12684103227126 L 60.8984375 67.87027164118695 L 61.71875 66.66598715924198 L 62.6171875 65.5142197452176 L 63.6328125 64.3758144743528 L 64.765625 63.26937483656468 L 66.015625 62.21131663502396 L 67.3828125 61.216853842078436 L 68.828125 60.32287599814508 L 70.2734375 59.56977773166446 L 71.7578125 58.92711825082189 L 73.2421875 58.40527911236536 L 74.765625 57.98633791575389 L 76.2890625 57.678957397310185 L 77.8125 57.47856923394963 L 79.3359375 57.38232945248133 L 80.859375 57.388908150879246 L 82.3828125 57.498395510767594 L 83.90625 57.71230808411288 L 85.4296875 58.03369640443928 L 86.9140625 58.454797755739364 L 88.3984375 58.98890180027246 L 89.84375 59.62598257737321 L 91.2890625 60.38987333362954 L 92.6953125 61.269569131294816 L 94.0625 62.27301227647517 L 95.3515625 63.3768375809958 L 96.484375 64.49950385118673 L 97.5 65.65601171221894 L 98.3984375 66.8281551193998 L 99.21875 68.05681581664672 L 99.921875 69.27065256017985 L 100.546875 70.52234587387917 L 101.09375 71.81136696771067 L 101.5625 73.1400733422288 L 101.9140625 74.36316890921027 L 102.2265625 75.75972649070914 L 102.421875 76.95705381507082 L 102.5390625 78.00233595890256 L 102.6171875 79.31968419844623 L 102.62741699796952 79.99999966282522" stroke-linecap="round" stroke-linejoin="round" stroke-miterlimit="10" stroke-width="2.5" stroke-opacity="0.9" stroke-dasharray=""/></g></g><g id="sketch-d10bb96c"><title>Expression 3</title><path fill="#388c46" stroke="none" paint-order="stroke fill markers" d="" fill-opacity="0.4"/><path fill="#388c46" stroke="none" paint-order="stroke fill markers" d="" fill-opacity="0.4"/><g><path fill="none" stroke="#388c46" class="dcg-svg-curve" paint-order="fill stroke markers" d=" M 52.287187078897965 80.00000033717478 L 52.287187078897965 80.00000033717478 L 52.34375 81.76969939184598 L 52.5 83.42782730020052 L 52.734375 84.95839624872549 L 53.046875 86.44430389835668 L 53.4375 87.90149313421205 L 53.90625 89.33360653431994 L 54.453125 90.74044588154398 L 55.078125 92.12023706386864 L 55.78125 93.47041753018443 L 56.6015625 94.84968425787544 L 57.5 96.17868968736343 L 58.4765625 97.45685075217159 L 59.5703125 98.72505991051413 L 60.78125 99.96596224672129 L 62.109375 101.1642513949673 L 63.5546875 102.30586686899534 L 65.1171875 103.37737992354668 L 66.71875 104.32300142740407 L 68.3203125 105.13135292622233 L 69.9609375 105.83054827372221 L 71.6015625 106.40958628147351 L 73.28125 106.88602608117273 L 74.9609375 107.25083208126118 L 76.640625 107.50844596863615 L 78.3203125 107.66186273377741 L 80.0390625 107.7127853908822 L 81.71875 107.6594630901885 L 83.3984375 107.50364744099578 L 85.078125 107.2435799131534 L 86.7578125 106.87623430123432 L 88.3984375 106.40958628147351 L 90.0390625 105.83054827372221 L 91.640625 105.14947016557953 L 93.2421875 104.34429030008565 L 94.8046875 103.42693381617286 L 96.328125 102.39179166534859 L 97.8125 101.2300457783303 L 99.1796875 100.00348938066416 L 100.4296875 98.72505991051413 L 101.5625 97.40857816566304 L 102.578125 96.06948261408485 L 103.4765625 94.72586205230763 L 104.296875 93.32898590420048 L 105 91.95826074310139 L 105.625 90.55269515337196 L 106.171875 89.11224225887213 L 106.640625 87.63394390923689 L 106.9921875 86.27867931692994 L 107.3046875 84.73856946001045 L 107.5 83.42782730020052 L 107.6171875 82.30020751017028 L 107.6953125 80.98471596277493 L 107.71281292110203 80.00000033717478" stroke-linecap="round" stroke-linejoin="round" stroke-miterlimit="10" stroke-width="2.5" stroke-opacity="0.9" stroke-dasharray=""/></g><g><path fill="none" stroke="#388c46" class="dcg-svg-curve" paint-order="fill stroke markers" d=" M 52.287187078897965 79.99999966282522 L 52.287187078897965 79.99999966282522 L 52.34375 78.23030060815402 L 52.5 76.57217269979948 L 52.734375 75.04160375127451 L 53.046875 73.55569610164332 L 53.4375 72.09850686578795 L 53.90625 70.66639346568006 L 54.453125 69.25955411845602 L 55.078125 67.87976293613136 L 55.78125 66.52958246981557 L 56.6015625 65.15031574212456 L 57.5 63.82131031263657 L 58.4765625 62.54314924782841 L 59.5703125 61.27494008948587 L 60.78125 60.03403775327871 L 62.109375 58.835748605032705 L 63.5546875 57.69413313100466 L 65.1171875 56.622620076453316 L 66.71875 55.676998572595934 L 68.3203125 54.868647073777666 L 69.9609375 54.169451726277785 L 71.6015625 53.59041371852649 L 73.28125 53.11397391882727 L 74.9609375 52.74916791873882 L 76.640625 52.49155403136385 L 78.3203125 52.33813726622259 L 80.0390625 52.2872146091178 L 81.71875 52.340536909811505 L 83.3984375 52.49635255900422 L 85.078125 52.7564200868466 L 86.7578125 53.12376569876568 L 88.3984375 53.59041371852649 L 90.0390625 54.169451726277785 L 91.640625 54.85052983442047 L 93.2421875 55.655709699914354 L 94.8046875 56.57306618382714 L 96.328125 57.60820833465141 L 97.8125 58.76995422166971 L 99.1796875 59.99651061933584 L 100.4296875 61.27494008948587 L 101.5625 62.591421834336955 L 102.578125 63.93051738591515 L 103.4765625 65.27413794769237 L 104.296875 66.67101409579952 L 105 68.04173925689861 L 105.625 69.44730484662804 L 106.171875 70.88775774112787 L 106.640625 72.36605609076311 L 106.9921875 73.72132068307006 L 107.3046875 75.26143053998955 L 107.5 76.57217269979948 L 107.6171875 77.69979248982972 L 107.6953125 79.01528403722507 L 107.71281292110203 79.99999966282522" stroke-linecap="round" stroke-linejoin="round" stroke-miterlimit="10" stroke-width="2.5" stroke-opacity="0.9" stroke-dasharray=""/></g></g><g id="sketch-d10bb96c"><title>Expression 4</title><path fill="#6042a6" stroke="none" paint-order="stroke fill markers" d="" fill-opacity="0.4"/><path fill="#6042a6" stroke="none" paint-order="stroke fill markers" d="" fill-opacity="0.4"/><g><path fill="none" stroke="#6042a6" class="dcg-svg-curve" paint-order="fill stroke markers" d=" M 48 80 L 48 80 L 48.046875 81.73141639543323 L 48.203125 83.59982502829999 L 48.4375 85.27338541640947 L 48.75 86.88748865697795 L 49.140625 88.4675247037948 L 49.609375 90.02047464491453 L 50.15625 91.54775241930221 L 50.78125 93.04854966797076 L 51.484375 94.52098932095795 L 52.3046875 96.03027340775395 L 53.203125 97.49078300804098 L 54.1796875 98.90268399996 L 55.2734375 100.31248647836088 L 56.4453125 101.66048699307899 L 57.734375 102.98351459980339 L 59.140625 104.26698322019807 L 60.6640625 105.49748067939446 L 62.34375 106.68814036116979 L 64.0625 107.74880346519467 L 65.78125 108.66752776989149 L 67.5390625 109.47414183010412 L 69.296875 110.15697457031084 L 71.09375 110.73562608663602 L 72.890625 111.20026902302888 L 74.6875 111.55593991232078 L 76.5234375 111.8105880672394 L 78.359375 111.95791528885098 L 80.1953125 111.99940394800103 L 82.03125 111.93546654485417 L 83.8671875 111.76546648232706 L 85.6640625 111.49473600454675 L 87.4609375 111.11807210643188 L 89.2578125 110.63156717693111 L 91.015625 110.04423415331759 L 92.7734375 109.34006295892348 L 94.4921875 108.53027342078663 L 96.171875 107.61286763420951 L 97.8515625 106.55789367228873 L 99.4921875 105.37823135021122 L 101.0546875 104.09772052035926 L 102.5 102.7541205059655 L 103.7890625 101.40281536086067 L 104.9609375 100.0237758457563 L 106.0546875 98.57830076399195 L 107.03125 97.12634004793493 L 107.9296875 95.61834037765676 L 108.7109375 94.13089055477728 L 109.4140625 92.60210011252465 L 110.0390625 91.02972003820105 L 110.546875 89.53354224485186 L 110.9765625 88.02823615021343 L 111.328125 86.5229275624044 L 111.6015625 85.03400909401182 L 111.796875 83.59982502829999 L 111.9140625 82.34363280957017 L 111.9921875 80.7070636214965 L 112 80" stroke-linecap="round" stroke-linejoin="round" stroke-miterlimit="10" stroke-width="2.5" stroke-opacity="0.9" stroke-dasharray=""/></g><g><path fill="none" stroke="#6042a6" class="dcg-svg-curve" paint-order="fill stroke markers" d=" M 48 80 L 48 80 L 48.046875 78.26858360456677 L 48.203125 76.40017497170001 L 48.4375 74.72661458359053 L 48.75 73.11251134302205 L 49.140625 71.5324752962052 L 49.609375 69.97952535508547 L 50.15625 68.45224758069779 L 50.78125 66.95145033202924 L 51.484375 65.47901067904205 L 52.3046875 63.96972659224605 L 53.203125 62.50921699195902 L 54.1796875 61.097316000039996 L 55.2734375 59.68751352163912 L 56.4453125 58.33951300692101 L 57.734375 57.016485400196615 L 59.140625 55.73301677980193 L 60.6640625 54.50251932060554 L 62.34375 53.311859638830214 L 64.0625 52.25119653480533 L 65.78125 51.33247223010851 L 67.5390625 50.52585816989588 L 69.296875 49.84302542968916 L 71.09375 49.26437391336398 L 72.890625 48.79973097697112 L 74.6875 48.44406008767922 L 76.5234375 48.189411932760606 L 78.359375 48.042084711149016 L 80.1953125 48.00059605199897 L 82.03125 48.064533455145835 L 83.8671875 48.23453351767294 L 85.6640625 48.50526399545325 L 87.4609375 48.88192789356812 L 89.2578125 49.368432823068886 L 91.015625 49.95576584668241 L 92.7734375 50.65993704107652 L 94.4921875 51.46972657921337 L 96.171875 52.38713236579049 L 97.8515625 53.44210632771127 L 99.4921875 54.62176864978878 L 101.0546875 55.90227947964074 L 102.5 57.2458794940345 L 103.7890625 58.59718463913933 L 104.9609375 59.976224154243695 L 106.0546875 61.42169923600805 L 107.03125 62.87365995206507 L 107.9296875 64.38165962234324 L 108.7109375 65.86910944522272 L 109.4140625 67.39789988747535 L 110.0390625 68.97027996179895 L 110.546875 70.46645775514814 L 110.9765625 71.97176384978657 L 111.328125 73.4770724375956 L 111.6015625 74.96599090598818 L 111.796875 76.40017497170001 L 111.9140625 77.65636719042983 L 111.9921875 79.2929363785035 L 112 80" stroke-linecap="round" stroke-linejoin="round" stroke-miterlimit="10" stroke-width="2.5" stroke-opacity="0.9" stroke-dasharray=""/></g></g><g id="sketch-d10bb96c"><title>Expression 5</title><path fill="#000000" stroke="none" paint-order="stroke fill markers" d="" fill-opacity="0.4"/><path fill="#000000" stroke="none" paint-order="stroke fill markers" d="" fill-opacity="0.4"/><g><path fill="none" stroke="#000000" class="dcg-svg-curve" paint-order="fill stroke markers" d=" M 44.22291236000337 80.00000067434958 L 44.22291236000337 80.00000067434958 L 44.296875 82.29931842822498 L 44.453125 84.05212015300324 L 44.6875 85.74694212168524 L 45 87.41619848709567 L 45.390625 89.06593415536287 L 45.859375 90.69662211211441 L 46.40625 92.30690704188099 L 47.03125 93.89465808998192 L 47.734375 95.45734270045712 L 48.5546875 97.06435822928432 L 49.453125 98.62494101290994 L 50.4296875 100.13942945200642 L 51.5234375 101.65837916797085 L 52.6953125 103.11826205681007 L 53.984375 104.55987084370304 L 55.3515625 105.93172822641395 L 56.8359375 107.26584325664794 L 58.4765625 108.57869203066497 L 60.234375 109.82146992284879 L 62.03125 110.93742108575793 L 63.8671875 111.93324851686474 L 65.703125 112.79633158196775 L 67.578125 113.55140863636541 L 69.453125 114.18718221401663 L 71.3671875 114.71994453249953 L 73.28125 115.1405520508358 L 75.1953125 115.45299674255116 L 77.109375 115.66012180446633 L 79.0234375 115.76375715278797 L 80.9375 115.76480244248526 L 82.8515625 115.66326669429756 L 84.765625 115.45826868812654 L 86.6796875 115.14799816351344 L 88.59375 114.72963375760678 L 90.46875 114.21118637869051 L 92.34375 113.58022983747281 L 94.1796875 112.84716825545763 L 96.015625 111.99218273046363 L 97.8125 111.02764644232624 L 99.5703125 109.95000615446253 L 101.2890625 108.75370963669025 L 102.96875 107.43057643283312 L 104.53125 106.04261456608188 L 105.9765625 104.60118291228277 L 107.265625 103.1643194020324 L 108.4765625 101.65837916797085 L 109.5703125 100.13942945200642 L 110.546875 98.62494101290994 L 111.4453125 97.06435822928432 L 112.265625 95.45734270045712 L 112.96875 93.89465808998192 L 113.59375 92.30690704188099 L 114.140625 90.69662211211441 L 114.609375 89.06593415536287 L 115 87.41619848709567 L 115.3125 85.74694212168524 L 115.546875 84.05212015300324 L 115.703125 82.29931842822498 L 115.7421875 81.57988376624476 L 115.77708763999664 80.00000067434958" stroke-linecap="round" stroke-linejoin="round" stroke-miterlimit="10" stroke-width="2.5" stroke-opacity="0.9" stroke-dasharray=""/></g><g><path fill="none" stroke="#000000" class="dcg-svg-curve" paint-order="fill stroke markers" d=" M 44.22291236000337 79.99999932565042 L 44.22291236000337 79.99999932565042 L 44.296875 77.70068157177502 L 44.453125 75.94787984699676 L 44.6875 74.25305787831476 L 45 72.58380151290433 L 45.390625 70.93406584463713 L 45.859375 69.30337788788559 L 46.40625 67.69309295811901 L 47.03125 66.10534191001808 L 47.734375 64.54265729954288 L 48.5546875 62.93564177071568 L 49.453125 61.37505898709006 L 50.4296875 59.860570547993575 L 51.5234375 58.34162083202915 L 52.6953125 56.88173794318993 L 53.984375 55.44012915629696 L 55.3515625 54.06827177358605 L 56.8359375 52.73415674335206 L 58.4765625 51.42130796933503 L 60.234375 50.17853007715121 L 62.03125 49.06257891424207 L 63.8671875 48.06675148313526 L 65.703125 47.20366841803225 L 67.578125 46.44859136363459 L 69.453125 45.81281778598337 L 71.3671875 45.280055467500475 L 73.28125 44.859447949164206 L 75.1953125 44.547003257448836 L 77.109375 44.33987819553367 L 79.0234375 44.236242847212026 L 80.9375 44.23519755751474 L 82.8515625 44.33673330570244 L 84.765625 44.54173131187346 L 86.6796875 44.852001836486565 L 88.59375 45.27036624239322 L 90.46875 45.78881362130949 L 92.34375 46.419770162527186 L 94.1796875 47.15283174454237 L 96.015625 48.007817269536375 L 97.8125 48.972353557673756 L 99.5703125 50.04999384553747 L 101.2890625 51.246290363309754 L 102.96875 52.56942356716688 L 104.53125 53.95738543391812 L 105.9765625 55.398817087717234 L 107.265625 56.835680597967595 L 108.4765625 58.34162083202915 L 109.5703125 59.860570547993575 L 110.546875 61.37505898709006 L 111.4453125 62.93564177071568 L 112.265625 64.54265729954288 L 112.96875 66.10534191001808 L 113.59375 67.69309295811901 L 114.140625 69.30337788788559 L 114.609375 70.93406584463713 L 115 72.58380151290433 L 115.3125 74.25305787831476 L 115.546875 75.94787984699676 L 115.703125 77.70068157177502 L 115.7421875 78.42011623375524 L 115.77708763999664 79.99999932565042" stroke-linecap="round" stroke-linejoin="round" stroke-miterlimit="10" stroke-width="2.5" stroke-opacity="0.9" stroke-dasharray=""/></g></g></g><g id="labels-d10bb96c"/></g></svg>