<svg xmlns="http://www.w3.org/2000/svg" xmlns:xlink="http://www.w3.org/1999/xlink" viewBox="0 0 141.2 117.04"><defs><style>.cls-1,.cls-2,.cls-6,.cls-8,.cls-9{fill:none;}.cls-2,.cls-9{stroke:#231f20;}.cls-2,.cls-8,.cls-9{stroke-miterlimit:3.86;}.cls-2{stroke-width:0.4px;}.cls-10,.cls-11,.cls-3,.cls-5{fill:#231f20;}.cls-3{fill-rule:evenodd;}.cls-4{clip-path:url(#clip-path);}.cls-6,.cls-8{stroke:#ed1c29;}.cls-6{stroke-linejoin:round;stroke-width:0.8px;}.cls-7{fill:#ed1c29;}.cls-8{stroke-width:0.75px;}.cls-9{stroke-width:0.25px;}.cls-10{font-size:8px;}.cls-10,.cls-11{font-family:TimesNewRomanPSMT, Times New Roman;}.cls-11{font-size:8.5px;}</style><clipPath id="clip-path" transform="translate(0 0.01)"><rect class="cls-1" width="141.2" height="117.03"/></clipPath></defs><g id="Layer_2" data-name="Layer 2"><g id="Layer_1-2" data-name="Layer 1"><line class="cls-2" x1="66" y1="117.04" x2="66" y2="6.04"/><polygon class="cls-3" points="66 6.04 64.4 7.11 66 2.84 67.6 7.11 66 6.04"/><g class="cls-4"><line class="cls-2" y1="66.04" x2="138" y2="66.04"/></g><polygon class="cls-5" points="138 66.04 136.93 67.64 141.2 66.04 136.93 64.44 138 66.04"/><g class="cls-4"><path class="cls-6" d="M34.7,66A31.3,31.3,0,1,1,66,97.33,31.3,31.3,0,0,1,34.7,66ZM24,66a42,42,0,1,1,42,42A42,42,0,0,1,24,66Zm2.4,0A39.6,39.6,0,1,1,66,105.63,39.6,39.6,0,0,1,26.4,66Z" transform="translate(0 0.01)"/><path class="cls-7" d="M106.88,66A1.12,1.12,0,1,1,108,67.16,1.12,1.12,0,0,1,106.88,66" transform="translate(0 0.01)"/><circle class="cls-8" cx="108" cy="66.04" r="1.13"/><path class="cls-7" d="M64.88,66A1.12,1.12,0,1,1,66,67.16,1.12,1.12,0,0,1,64.88,66" transform="translate(0 0.01)"/><circle class="cls-8" cx="66" cy="66.04" r="1.13"/><line class="cls-9" x1="77.38" y1="14.92" x2="67.38" y2="62.04"/><polygon class="cls-5" points="66.92 64.16 66.45 61.15 67.38 62.04 68.58 61.6 66.92 64.16"/><line class="cls-9" x1="93.38" y1="26.17" x2="87" y2="39.79"/><polygon class="cls-5" points="86.08 41.76 86.31 38.72 87 39.79 88.27 39.64 86.08 41.76"/><line class="cls-9" x1="110.75" y1="37.67" x2="101.88" y2="44.42"/><polygon class="cls-5" points="100.14 45.72 101.76 43.14 101.88 44.42 103.07 44.88 100.14 45.72"/><line class="cls-9" x1="117" y1="49.29" x2="108.5" y2="53.42"/><polygon class="cls-5" points="106.55 54.37 108.64 52.15 108.5 53.42 109.59 54.09 106.55 54.37"/><text class="cls-10" transform="translate(59.31 6.65)">y</text></g><text class="cls-10" transform="translate(137.11 73.65)">x</text><text class="cls-10" transform="translate(59.67 73.65)">0</text><text class="cls-11" transform="translate(76.75 12.77)">k=3</text><text class="cls-11" transform="translate(94.38 23.89)">k=2</text><text class="cls-11" transform="translate(112.76 36.89)">k=1</text><text class="cls-11" transform="translate(119.34 50.08)">k=0</text><text class="cls-10" transform="translate(110.75 73.17)">(3, 0)</text></g></g></svg>