<svg xmlns="http://www.w3.org/2000/svg" viewBox="0 0 132.54 119.43"><defs><style>.cls-1{font-size:8px;}.cls-1,.cls-14,.cls-3{fill:#231f20;}.cls-1,.cls-14{font-family:TimesNewRomanPS-BoldMT, Times New Roman;font-weight:700;}.cls-11,.cls-13,.cls-2,.cls-4,.cls-5,.cls-6,.cls-9{fill:none;}.cls-2,.cls-5{stroke:#231f20;}.cls-2,.cls-4,.cls-5,.cls-6,.cls-9{stroke-miterlimit:3.86;}.cls-2{stroke-width:0.5px;}.cls-11,.cls-4,.cls-9{stroke:#ed1846;}.cls-4{stroke-width:0.4px;}.cls-5{stroke-width:0.3px;}.cls-13,.cls-6{stroke:#00aeef;}.cls-7{fill:#00aeef;}.cls-8{fill:#fff;}.cls-10{fill:#ec1846;}.cls-11,.cls-13{stroke-linecap:round;stroke-linejoin:round;stroke-width:0.25px;}.cls-12{fill:#00acee;}.cls-14{font-size:6px;}</style></defs><g id="Layer_2" data-name="Layer 2"><g id="Layer_1-2" data-name="Layer 1"><text class="cls-1" transform="translate(114.24 97.61)">y</text><text class="cls-1" transform="translate(40.08 6.65)">z</text><text class="cls-1" transform="translate(35.34 77.69)">0</text><line class="cls-2" x1="41.28" y1="76.73" x2="109.09" y2="94.9"/><polyline class="cls-3" points="107.29 96.23 111.12 95.45 108.19 92.85 109.09 94.9"/><text class="cls-1" transform="translate(2.16 116.81)">x</text><polygon class="cls-4" points="55.92 37.85 94.08 33.29 94.56 37.13 100.08 30.41 92.88 25.13 93.36 28.73 55.44 33.29 55.92 37.85"/><text class="cls-1" transform="translate(76.08 57.77)">v</text><polyline class="cls-2" points="41.28 10.91 41.28 76.73 7.49 110.52"/><polyline class="cls-3" points="7.24 108.3 6 112.01 9.71 110.77 7.49 110.52"/><polyline class="cls-3" points="43.03 12.31 41.28 8.81 39.53 12.31 41.28 10.91"/><text class="cls-1" transform="translate(0 45.29)">L</text><line class="cls-5" x1="58.32" y1="20.57" x2="53.76" y2="32.57"/><line class="cls-6" x1="55.68" y1="53.69" x2="96.62" y2="48.77"/><path class="cls-7" d="M99.6,48.41l-5.26-1.89a3.35,3.35,0,0,1,.6,5"/><polyline class="cls-8" points="38.88 35.45 43.92 34.49 44.16 39.29 38.88 40.25"/><line class="cls-9" x1="7.68" y1="41.45" x2="132.48" y2="26.33"/><path class="cls-10" d="M55.44,35.94a1.75,1.75,0,1,1-1.75-1.75,1.75,1.75,0,0,1,1.75,1.75"/><circle class="cls-11" cx="53.69" cy="35.94" r="1.75"/><path class="cls-12" d="M57.38,53.52a1.75,1.75,0,1,1-1.75-1.75,1.75,1.75,0,0,1,1.75,1.75"/><circle class="cls-13" cx="55.63" cy="53.52" r="1.75"/><path class="cls-10" d="M103.62,30a1.75,1.75,0,1,1-1.75-1.75A1.75,1.75,0,0,1,103.62,30"/><circle class="cls-11" cx="101.87" cy="30.02" r="1.75"/><text class="cls-1" transform="translate(99.47 39.03)">P</text><text class="cls-1" transform="translate(104.36 39.03)">(</text><text class="cls-1" transform="translate(107.02 39.03)">x</text><text class="cls-1" transform="translate(110.57 39.03)">,</text><text class="cls-1" transform="translate(114.57 39.03)">y</text><text class="cls-1" transform="translate(118.12 39.03)">,</text><text class="cls-1" transform="translate(122.12 39.03)">z</text><text class="cls-1" transform="translate(125.24 39.03)">)</text><text class="cls-1" transform="translate(47.11 17.39)">P</text><text class="cls-14" transform="translate(51.4 19.39)">0</text><text class="cls-1" transform="translate(54.4 17.39)">(</text><text class="cls-1" transform="translate(57.06 17.39)">x</text><text class="cls-14" transform="translate(61.01 19.39)">0</text><text class="cls-1" transform="translate(64.31 17.39)">,</text><text class="cls-1" transform="translate(68.31 17.39)">y</text><text class="cls-14" transform="translate(71.87 19.39)">0</text><text class="cls-1" transform="translate(75.17 17.39)">,</text><text class="cls-1" transform="translate(79.17 17.39)">z</text><text class="cls-14" transform="translate(82.88 19.39)">0</text><text class="cls-1" transform="translate(86.33 17.39)">)</text></g></g></svg>