<svg version="1.1" xmlns="http://www.w3.org/2000/svg" viewBox="0 0 398.50644885182055 165.69322622170125" width="398.50644885182055" height="165.69322622170125">
  <!-- svg-source:excalidraw -->
  
  <defs>
    <style class="style-fonts">
      @font-face {
        font-family: "Virgil";
        src: url("https://excalidraw.com/Virgil.woff2");
      }
      @font-face {
        font-family: "Cascadia";
        src: url("https://excalidraw.com/Cascadia.woff2");
      }
    </style>
  </defs>
  <g stroke-linecap="round" transform="translate(113.36669623651005 33.22197765678152) rotate(0 52.70029727996257 25.52022583955238)"><path d="M12.76 0 M12.76 0 C41.29 1.51, 71.06 -1.18, 92.64 0 M12.76 0 C42.62 0.92, 71.68 -0.38, 92.64 0 M92.64 0 C103.14 1.07, 106.49 6.12, 105.4 12.76 M92.64 0 C101.59 0.78, 106.51 3.84, 105.4 12.76 M105.4 12.76 C105.68 22.97, 107.2 31.79, 105.4 38.28 M105.4 12.76 C104.63 19.24, 105.34 27.06, 105.4 38.28 M105.4 38.28 C107.02 45.81, 99.39 51.7, 92.64 51.04 M105.4 38.28 C104.83 44.81, 101.36 50.24, 92.64 51.04 M92.64 51.04 C77.18 51.64, 57.95 53.06, 12.76 51.04 M92.64 51.04 C68.9 51.85, 44.17 51.84, 12.76 51.04 M12.76 51.04 C5.27 49.58, -1.11 47.54, 0 38.28 M12.76 51.04 C2.43 52.58, -2.23 45.7, 0 38.28 M0 38.28 C-1.54 27.22, 1.43 17.88, 0 12.76 M0 38.28 C-0.61 30.22, 0.79 23.29, 0 12.76 M0 12.76 C-1.82 3.02, 5.48 0.11, 12.76 0 M0 12.76 C1.72 5.01, 3.27 0.55, 12.76 0" stroke="#000000" stroke-width="2" fill="none"></path></g><g stroke-linecap="round"><g transform="translate(166.06697926984862 32.80701625656707) rotate(0 0.5431184433075487 26.447668567034498)"><path d="M0.97 0.3 C0.84 9.25, -0.57 44.9, -0.64 53.49 M0.03 -0.59 C0.27 8.04, 1.72 42.89, 1.73 51.78" stroke="#000000" stroke-width="2" fill="none"></path></g></g><g stroke-linecap="round"><g transform="translate(219.59721359686273 58.7421963730219) rotate(0 -52.5655079410551 -0.03802131414408905)"><path d="M-0.64 0.79 C-18.42 0.59, -88.22 -0.8, -105.69 -0.86 M1.22 0.15 C-16.75 0.06, -88.52 0.53, -106.35 0.22" stroke="#000000" stroke-width="2" fill="none"></path></g></g><g transform="translate(120.25426262365045 37.01101680222723) rotate(0 20.5 10)"><text x="20.5" y="14" font-family="Virgil, Segoe UI Emoji" font-size="16px" fill="#000000" text-anchor="middle" style="white-space: pre;" direction="ltr">data</text></g><g transform="translate(173.6909561444213 37.01101680222723) rotate(0 18 10)"><text x="18" y="14" font-family="Virgil, Segoe UI Emoji" font-size="16px" fill="#000000" text-anchor="middle" style="white-space: pre;" direction="ltr">next</text></g><g stroke-linecap="round" transform="translate(166.4819549166864 59.15717201985967) rotate(0 25.72770653965972 11.826442645981956)"><path d="M1.57 1.37 C1.57 1.37, 1.57 1.37, 1.57 1.37 M1.57 1.37 C1.57 1.37, 1.57 1.37, 1.57 1.37 M4.99 9.64 C7.67 7.76, 8.7 4.88, 10.24 3.6 M4.99 9.64 C6.23 8.62, 7.78 6.66, 10.24 3.6 M3.81 23.19 C5.64 19.25, 10.28 13.04, 20.87 3.56 M3.81 23.19 C10.11 15.27, 16.89 9.2, 20.87 3.56 M13.78 23.91 C19.79 20.47, 23.84 15.41, 31.5 3.53 M13.78 23.91 C17.12 19.89, 20.96 14.12, 31.5 3.53 M24.41 23.87 C29.16 15.07, 38.4 7.9, 41.47 4.25 M24.41 23.87 C28.86 17.54, 35.36 12.37, 41.47 4.25 M35.04 23.84 C38.84 21.13, 42.96 14.67, 52.1 4.21 M35.04 23.84 C40.69 18.28, 45.88 11.62, 52.1 4.21 M45.67 23.8 C46.84 21.88, 49.39 20.13, 52.23 16.26 M45.67 23.8 C47.73 21.82, 49.3 20, 52.23 16.26" stroke="#ced4da" stroke-width="1" fill="none"></path><path d="M5.91 0 M5.91 0 C13.41 -2.08, 21.21 -1.91, 45.54 0 M5.91 0 C19.59 0.54, 32.71 -0.11, 45.54 0 M45.54 0 C49.26 -0.32, 51.54 2.71, 51.46 5.91 M45.54 0 C49.47 1.41, 51.39 4.16, 51.46 5.91 M51.46 5.91 C51.73 10.8, 51.21 15.3, 51.46 17.74 M51.46 5.91 C51.69 10.27, 51.3 15.13, 51.46 17.74 M51.46 17.74 C51.79 21.29, 50.61 25.13, 45.54 23.65 M51.46 17.74 C50.41 23.55, 49.91 21.46, 45.54 23.65 M45.54 23.65 C37.24 23, 28.19 22.34, 5.91 23.65 M45.54 23.65 C36.93 23.73, 27.25 23.4, 5.91 23.65 M5.91 23.65 C1.12 24.58, 0.54 22.65, 0 17.74 M5.91 23.65 C3.38 21.99, -1.09 20.6, 0 17.74 M0 17.74 C0.02 14.67, -0.64 10.6, 0 5.91 M0 17.74 C-0.31 13.42, 0.46 8.41, 0 5.91 M0 5.91 C-1.66 2.63, 2.59 -0.95, 5.91 0 M0 5.91 C-1.27 2.77, 2.77 0.32, 5.91 0" stroke="#000000" stroke-width="2" fill="none"></path></g><g transform="translate(130.77717264619469 63.44851520226598) rotate(0 8.5 10)"><text x="8.5" y="14" font-family="Virgil, Segoe UI Emoji" font-size="16px" fill="#000000" text-anchor="middle" style="white-space: pre;" direction="ltr">10</text></g><g stroke-linecap="round" transform="translate(113.1108714327861 102.20183549197372) rotate(0 52.70029727996257 25.52022583955238)"><path d="M12.76 0 M12.76 0 C46.57 -0.05, 77.31 0.53, 92.64 0 M12.76 0 C36.11 -0.23, 58.44 0.53, 92.64 0 M92.64 0 C102.34 -0.76, 105.18 2.88, 105.4 12.76 M92.64 0 C99.44 -0.46, 105.32 6.39, 105.4 12.76 M105.4 12.76 C105.94 21.99, 103.55 32.4, 105.4 38.28 M105.4 12.76 C105.29 20.05, 105.41 25.46, 105.4 38.28 M105.4 38.28 C107.32 46.94, 99.74 50.7, 92.64 51.04 M105.4 38.28 C107.34 48.97, 102.76 53.2, 92.64 51.04 M92.64 51.04 C65.35 49.01, 37.9 48.66, 12.76 51.04 M92.64 51.04 C71.91 50.54, 51.46 52.02, 12.76 51.04 M12.76 51.04 C2.62 51.01, -1.2 47.18, 0 38.28 M12.76 51.04 C2.49 50.04, 1.46 47.37, 0 38.28 M0 38.28 C0.27 34.44, 0.82 26.75, 0 12.76 M0 38.28 C0.08 30.95, -0.25 22.38, 0 12.76 M0 12.76 C-0.18 3.8, 4.12 -1.51, 12.76 0 M0 12.76 C0.62 3.99, 5.89 -1.11, 12.76 0" stroke="#000000" stroke-width="2" fill="none"></path></g><g stroke-linecap="round"><g transform="translate(165.81115446612466 101.78687409175927) rotate(0 -0.27458522081997216 26.742390447249704)"><path d="M0.23 0.41 C0.22 8.97, 0.52 43.69, 0.58 52.48 M-1.11 -0.42 C-1.28 8.84, -0.27 45.32, -0.07 53.91" stroke="#000000" stroke-width="2" fill="none"></path></g></g><g stroke-linecap="round"><g transform="translate(219.34138879313878 127.7220542082141) rotate(0 -52.84781101323688 -0.6140718891583674)"><path d="M0.58 -0.22 C-17.07 -0.21, -88 0.43, -105.64 0.48 M-0.58 -1.38 C-18.35 -1.76, -88.79 -1.87, -106.27 -1.39" stroke="#000000" stroke-width="2" fill="none"></path></g></g><g transform="translate(119.9984378199265 105.99087463741944) rotate(0 20.5 10)"><text x="20.5" y="14" font-family="Virgil, Segoe UI Emoji" font-size="16px" fill="#000000" text-anchor="middle" style="white-space: pre;" direction="ltr">data</text></g><g transform="translate(173.43513134069735 105.99087463741944) rotate(0 18 10)"><text x="18" y="14" font-family="Virgil, Segoe UI Emoji" font-size="16px" fill="#000000" text-anchor="middle" style="white-space: pre;" direction="ltr">next</text></g><g stroke-linecap="round" transform="translate(166.22613011296244 128.13702985505188) rotate(0 25.72770653965972 11.826442645981956)"><path d="M1.57 1.37 C1.57 1.37, 1.57 1.37, 1.57 1.37 M1.57 1.37 C1.57 1.37, 1.57 1.37, 1.57 1.37 M4.99 9.64 C5.39 8.44, 6.91 6.34, 10.24 3.6 M4.99 9.64 C6.95 7.12, 9.1 5.34, 10.24 3.6 M3.81 23.19 C9.66 19.93, 13.56 15.04, 20.87 3.56 M3.81 23.19 C6.99 19.34, 10.69 13.74, 20.87 3.56 M13.78 23.91 C18.77 14.83, 28.25 7.38, 31.5 3.53 M13.78 23.91 C18.43 17.35, 25.12 11.95, 31.5 3.53 M24.41 23.87 C28.21 21.16, 32.33 14.71, 41.47 4.25 M24.41 23.87 C30.06 18.32, 35.25 11.65, 41.47 4.25 M35.04 23.84 C38.54 18.68, 44.79 13.85, 52.1 4.21 M35.04 23.84 C40.16 18.74, 44.29 13.96, 52.1 4.21 M45.67 23.8 C46.73 21.3, 47.93 19.85, 52.23 16.26 M45.67 23.8 C48.1 21.51, 50.32 18.71, 52.23 16.26" stroke="#ced4da" stroke-width="1" fill="none"></path><path d="M5.91 0 M5.91 0 C18.09 -0.03, 30.03 -0.07, 45.54 0 M5.91 0 C22.19 0.36, 37.63 -0.08, 45.54 0 M45.54 0 C50.37 1.32, 50.77 -0.01, 51.46 5.91 M45.54 0 C50.55 0.11, 51.01 4.13, 51.46 5.91 M51.46 5.91 C52.31 9.12, 52.39 13.62, 51.46 17.74 M51.46 5.91 C50.99 8.33, 51.22 10.52, 51.46 17.74 M51.46 17.74 C50.38 20.08, 47.77 24.96, 45.54 23.65 M51.46 17.74 C51.7 21.25, 47.51 22.47, 45.54 23.65 M45.54 23.65 C36.31 24.99, 23.69 22.82, 5.91 23.65 M45.54 23.65 C35.92 23.61, 26.36 23.06, 5.91 23.65 M5.91 23.65 C3.76 25.23, 0.13 22.81, 0 17.74 M5.91 23.65 C0.79 24.27, 1.83 20.25, 0 17.74 M0 17.74 C-0.6 14.52, 0.37 13.01, 0 5.91 M0 17.74 C-0.54 13.94, 0.1 9.9, 0 5.91 M0 5.91 C-1.1 3.55, 2.42 1, 5.91 0 M0 5.91 C1.16 3.34, 1.45 0.44, 5.91 0" stroke="#000000" stroke-width="2" fill="none"></path></g><g transform="translate(127.02134784247073 132.4283730374582) rotate(0 12 10)"><text x="12" y="14" font-family="Virgil, Segoe UI Emoji" font-size="16px" fill="#000000" text-anchor="middle" style="white-space: pre;" direction="ltr">30</text></g><g stroke-linecap="round" transform="translate(249.2152028526416 33.22197765678152) rotate(0 52.70029727996257 25.52022583955238)"><path d="M12.76 0 M12.76 0 C35.59 -1.23, 55.4 2.12, 92.64 0 M12.76 0 C34.54 -0.78, 58.24 -0.58, 92.64 0 M92.64 0 C101.77 -0.43, 104.13 2.44, 105.4 12.76 M92.64 0 C99.57 -1.47, 103.57 2.31, 105.4 12.76 M105.4 12.76 C105.96 23.88, 106.83 32.58, 105.4 38.28 M105.4 12.76 C106.11 21.84, 105.49 31, 105.4 38.28 M105.4 38.28 C103.45 46.13, 99.35 49.81, 92.64 51.04 M105.4 38.28 C104.95 45.72, 98.87 49.54, 92.64 51.04 M92.64 51.04 C68.85 49.47, 41.31 48.99, 12.76 51.04 M92.64 51.04 C64.4 50.34, 36.77 51.3, 12.76 51.04 M12.76 51.04 C2.34 50.36, 1.03 45.08, 0 38.28 M12.76 51.04 C5.66 52.81, -2.15 45.42, 0 38.28 M0 38.28 C0.17 30.01, -0.58 23.68, 0 12.76 M0 38.28 C-0.85 31.48, -0.74 24.66, 0 12.76 M0 12.76 C1.73 3.94, 4.63 -0.25, 12.76 0 M0 12.76 C-1.32 6.46, 2.29 1.47, 12.76 0" stroke="#000000" stroke-width="2" fill="none"></path></g><g stroke-linecap="round"><g transform="translate(301.91548588598016 32.80701625656707) rotate(0 -0.3135648124000454 26.209973942265037)"><path d="M0.76 -1.14 C0.78 7.95, -0.12 44.78, -0.29 53.56 M-0.3 0.87 C-0.42 9.73, -1.25 43.33, -1.39 51.9" stroke="#000000" stroke-width="2" fill="none"></path></g></g><g stroke-linecap="round"><g transform="translate(355.4457202129943 58.7421963730219) rotate(0 -52.7026389167786 -0.1517191277839629)"><path d="M-1.14 -0.29 C-18.54 -0.45, -87.66 -0.39, -105.37 -0.23 M0.46 -1.49 C-16.93 -1.53, -88.27 1.17, -105.86 1.18" stroke="#000000" stroke-width="2" fill="none"></path></g></g><g transform="translate(256.102769239782 37.01101680222723) rotate(0 20.5 10)"><text x="20.5" y="14" font-family="Virgil, Segoe UI Emoji" font-size="16px" fill="#000000" text-anchor="middle" style="white-space: pre;" direction="ltr">data</text></g><g transform="translate(309.53946276055285 37.01101680222723) rotate(0 18 10)"><text x="18" y="14" font-family="Virgil, Segoe UI Emoji" font-size="16px" fill="#000000" text-anchor="middle" style="white-space: pre;" direction="ltr">next</text></g><g stroke-linecap="round" transform="translate(302.33046153281794 59.15717201985967) rotate(0 25.72770653965972 11.826442645981956)"><path d="M1.57 1.37 C1.57 1.37, 1.57 1.37, 1.57 1.37 M1.57 1.37 C1.57 1.37, 1.57 1.37, 1.57 1.37 M4.99 9.64 C6.77 7.46, 8.03 7.15, 10.24 3.6 M4.99 9.64 C7.31 7.04, 9.29 5.16, 10.24 3.6 M3.81 23.19 C6.14 17.7, 10.62 12.15, 20.87 3.56 M3.81 23.19 C8.03 18, 12.47 11.52, 20.87 3.56 M13.78 23.91 C19 17.51, 26.89 8.65, 31.5 3.53 M13.78 23.91 C19.07 17.47, 23.08 13.46, 31.5 3.53 M24.41 23.87 C26.08 18.34, 31.89 15.13, 41.47 4.25 M24.41 23.87 C28.59 19.44, 32.91 14.11, 41.47 4.25 M35.04 23.84 C39.59 16.05, 48.13 10.67, 52.1 4.21 M35.04 23.84 C41.47 16.82, 46.58 10.88, 52.1 4.21 M45.67 23.8 C47.3 21.05, 47.94 20.96, 52.23 16.26 M45.67 23.8 C48.44 21.58, 50.73 18.05, 52.23 16.26" stroke="#ced4da" stroke-width="1" fill="none"></path><path d="M5.91 0 M5.91 0 C20.73 0.74, 35.84 -0.6, 45.54 0 M5.91 0 C14.13 0.22, 21.43 -0.24, 45.54 0 M45.54 0 C50.69 1.97, 52.59 0.11, 51.46 5.91 M45.54 0 C48.07 2.01, 49.22 -0.18, 51.46 5.91 M51.46 5.91 C52.69 8.95, 52.34 14.21, 51.46 17.74 M51.46 5.91 C51.83 10.89, 51.79 14.34, 51.46 17.74 M51.46 17.74 C51.25 22.63, 48.36 23.7, 45.54 23.65 M51.46 17.74 C50.96 23.74, 50.77 25.02, 45.54 23.65 M45.54 23.65 C34.63 22.43, 28.5 24.67, 5.91 23.65 M45.54 23.65 C30.55 23.61, 16.91 24.18, 5.91 23.65 M5.91 23.65 C3.94 22.15, -0.75 20.2, 0 17.74 M5.91 23.65 C2.52 24.72, -2.06 22.21, 0 17.74 M0 17.74 C0.56 15.49, 0.43 11.46, 0 5.91 M0 17.74 C-0.43 14.36, -0.48 11.46, 0 5.91 M0 5.91 C1.31 3.33, 2.64 0.47, 5.91 0 M0 5.91 C-1.46 2.31, 1.26 1.43, 5.91 0" stroke="#000000" stroke-width="2" fill="none"></path></g><g transform="translate(263.12567926232623 63.44851520226598) rotate(0 12 10)"><text x="12" y="14" font-family="Virgil, Segoe UI Emoji" font-size="16px" fill="#000000" text-anchor="middle" style="white-space: pre;" direction="ltr">20</text></g><g stroke-linecap="round" transform="translate(248.95937804891764 102.20183549197372) rotate(0 52.70029727996257 25.52022583955238)"><path d="M12.76 0 M12.76 0 C41.81 1.8, 72.18 -0.02, 92.64 0 M12.76 0 C34.49 -0.44, 53.55 0.12, 92.64 0 M92.64 0 C103.04 0.85, 105.3 4.75, 105.4 12.76 M92.64 0 C99.96 0.65, 105.22 2.64, 105.4 12.76 M105.4 12.76 C105.28 19.33, 107 26.38, 105.4 38.28 M105.4 12.76 C106.25 17.79, 104.92 22.97, 105.4 38.28 M105.4 38.28 C107.04 46.43, 99.48 52.51, 92.64 51.04 M105.4 38.28 C104.16 45.61, 102.84 52.66, 92.64 51.04 M92.64 51.04 C61.96 49.74, 27.19 49.51, 12.76 51.04 M92.64 51.04 C70.59 51.62, 46.15 51.68, 12.76 51.04 M12.76 51.04 C3.65 49.21, 0.14 45.64, 0 38.28 M12.76 51.04 C4.31 52.24, 0.58 46.38, 0 38.28 M0 38.28 C-1.03 34.08, 0.89 25.08, 0 12.76 M0 38.28 C0.07 28.96, 0.84 19.38, 0 12.76 M0 12.76 C0.19 3, 5.42 1.14, 12.76 0 M0 12.76 C-1.14 3.59, 4.73 0.23, 12.76 0" stroke="#000000" stroke-width="2" fill="none"></path></g><g stroke-linecap="round"><g transform="translate(301.6596610822562 101.78687409175927) rotate(0 0.028637876245511507 26.71463265954526)"><path d="M0.2 0.62 C0.59 9.52, 1.31 43.58, 1.2 52.23 M-1.15 -0.1 C-0.72 9.06, 0.93 44.54, 0.88 53.52" stroke="#000000" stroke-width="2" fill="none"></path></g></g><g stroke-linecap="round"><g transform="translate(355.1898954092703 127.7220542082141) rotate(0 -53.63434007950127 0.3654304862021718)"><path d="M0.62 1.2 C-16.97 1.09, -88.87 -0.38, -106.7 -0.47 M-0.51 0.78 C-18.2 0.81, -90.11 1.17, -107.89 0.83" stroke="#000000" stroke-width="2" fill="none"></path></g></g><g transform="translate(255.84694443605804 105.99087463741944) rotate(0 20.5 10)"><text x="20.5" y="14" font-family="Virgil, Segoe UI Emoji" font-size="16px" fill="#000000" text-anchor="middle" style="white-space: pre;" direction="ltr">data</text></g><g transform="translate(309.2836379568289 105.99087463741944) rotate(0 18 10)"><text x="18" y="14" font-family="Virgil, Segoe UI Emoji" font-size="16px" fill="#000000" text-anchor="middle" style="white-space: pre;" direction="ltr">next</text></g><g stroke-linecap="round" transform="translate(302.074636729094 128.13702985505188) rotate(0 25.72770653965972 11.826442645981956)"><path d="M1.57 1.37 C1.57 1.37, 1.57 1.37, 1.57 1.37 M1.57 1.37 C1.57 1.37, 1.57 1.37, 1.57 1.37 M4.99 9.64 C6.4 7.37, 8.33 5.7, 10.24 3.6 M4.99 9.64 C6.11 8.11, 7.66 6.33, 10.24 3.6 M3.81 23.19 C10.28 17.47, 11.68 13.87, 20.87 3.56 M3.81 23.19 C8.81 19.22, 11.81 13.59, 20.87 3.56 M13.78 23.91 C18.59 16.48, 26.05 9.6, 31.5 3.53 M13.78 23.91 C20.97 16.03, 26.17 8.69, 31.5 3.53 M24.41 23.87 C29.04 18.67, 31.49 14.91, 41.47 4.25 M24.41 23.87 C28.59 19.1, 32.48 14.77, 41.47 4.25 M35.04 23.84 C40.68 19.61, 43.8 12.71, 52.1 4.21 M35.04 23.84 C40.75 17.1, 47.25 8.87, 52.1 4.21 M45.67 23.8 C48.32 21.57, 49.65 19.59, 52.23 16.26 M45.67 23.8 C47.3 21.8, 48.83 19.86, 52.23 16.26" stroke="#ced4da" stroke-width="1" fill="none"></path><path d="M5.91 0 M5.91 0 C22.66 0.7, 36.23 1.82, 45.54 0 M5.91 0 C18.4 -0.42, 33.27 -0.88, 45.54 0 M45.54 0 C49.97 -0.26, 52.06 0.6, 51.46 5.91 M45.54 0 C51.61 -1.37, 51.35 4, 51.46 5.91 M51.46 5.91 C51.36 9.34, 52.38 11.35, 51.46 17.74 M51.46 5.91 C51.34 8.57, 51.7 12.7, 51.46 17.74 M51.46 17.74 C50.47 23.1, 48.61 22.39, 45.54 23.65 M51.46 17.74 C53.39 22.17, 49.57 25.15, 45.54 23.65 M45.54 23.65 C35.63 21.8, 26.85 24.85, 5.91 23.65 M45.54 23.65 C35.96 23.13, 27.5 23.49, 5.91 23.65 M5.91 23.65 C2.6 23.67, -1.9 21.56, 0 17.74 M5.91 23.65 C1.84 23.23, -1.05 23.3, 0 17.74 M0 17.74 C0.75 13.11, -0.45 7.88, 0 5.91 M0 17.74 C-0.35 15.26, -0.08 11.75, 0 5.91 M0 5.91 C1.22 0.79, 3.55 0.15, 5.91 0 M0 5.91 C-1.48 1.2, 1.27 -0.23, 5.91 0" stroke="#000000" stroke-width="2" fill="none"></path></g><g transform="translate(263.3698544586023 132.4283730374582) rotate(0 11.5 10)"><text x="11.5" y="14" font-family="Virgil, Segoe UI Emoji" font-size="16px" fill="#000000" text-anchor="middle" style="white-space: pre;" direction="ltr">40</text></g><g stroke-linecap="round"><g transform="translate(198.30232438411622 72.65118073183453) rotate(0 23.449657094091435 -0.03902775049209595)"><path d="M0.39 0.8 C7.9 0.61, 37.65 -0.85, 45.41 -0.88 M-0.86 0.17 C7.01 0.09, 39.83 0.46, 47.76 0.2" stroke="#000000" stroke-width="1" fill="none"></path></g><g transform="translate(198.30232438411622 72.65118073183453) rotate(0 23.449657094091435 -0.03902775049209595)"><path d="M27.49 7.08 C31.81 6.99, 41.45 3.66, 46.62 1.22 M26.45 7.48 C34.8 5.75, 41.67 1.93, 48.64 -0.28" stroke="#000000" stroke-width="1" fill="none"></path></g><g transform="translate(198.30232438411622 72.65118073183453) rotate(0 23.449657094091435 -0.03902775049209595)"><path d="M27.37 -8.69 C31.77 -3.58, 41.44 -1.69, 46.62 1.22 M26.33 -8.29 C34.74 -4.43, 41.66 -2.67, 48.64 -0.28" stroke="#000000" stroke-width="1" fill="none"></path></g></g><g stroke-linecap="round"><g transform="translate(198.30232438411622 140.3420173618656) rotate(0 23.65674164796178 -0.33824969983072606)"><path d="M-0.46 0.38 C7.19 0.18, 37.76 -1.12, 45.42 -1.05 M1.51 -0.47 C9.59 -0.56, 40.62 0.04, 47.77 -0.07" stroke="#000000" stroke-width="1" fill="none"></path></g><g transform="translate(198.30232438411622 140.3420173618656) rotate(0 23.65674164796178 -0.33824969983072606)"><path d="M26.7 6.56 C29.96 4.76, 38.67 5.45, 45.77 0.02 M25.83 8.17 C30.94 5.3, 35.39 4.34, 47.54 -0.38" stroke="#000000" stroke-width="1" fill="none"></path></g><g transform="translate(198.30232438411622 140.3420173618656) rotate(0 23.65674164796178 -0.33824969983072606)"><path d="M26.77 -9.21 C30.03 -6.9, 38.72 -2.1, 45.77 0.02 M25.9 -7.6 C31.02 -6.95, 35.45 -4.39, 47.54 -0.38" stroke="#000000" stroke-width="1" fill="none"></path></g></g><g transform="translate(10 63.44851520226598) rotate(0 6.5 10)"><text x="6.5" y="14" font-family="Virgil, Segoe UI Emoji" font-size="16px" fill="#000000" text-anchor="middle" style="white-space: pre;" direction="ltr">a</text></g><g transform="translate(10 132.4283730374582) rotate(0 5 10)"><text x="5" y="14" font-family="Virgil, Segoe UI Emoji" font-size="16px" fill="#000000" text-anchor="middle" style="white-space: pre;" direction="ltr">b</text></g><g stroke-linecap="round"><g transform="translate(27.441316062795977 72.18434737576536) rotate(0 34.94217353049521 -0.4059837945644631)"><path d="M1.15 -0.42 C12.79 -0.4, 58.14 -0.67, 69.58 -0.44 M0.3 -1.68 C11.86 -1.45, 57.42 0.73, 68.95 0.87" stroke="#000000" stroke-width="1" fill="none"></path></g><g transform="translate(27.441316062795977 72.18434737576536) rotate(0 34.94217353049521 -0.4059837945644631)"><path d="M39.75 11.22 C47.68 8.72, 57.95 5.45, 69.84 0.59 M39.92 9.77 C52.24 6.89, 61.15 3.47, 69.63 0.91" stroke="#000000" stroke-width="1" fill="none"></path></g><g transform="translate(27.441316062795977 72.18434737576536) rotate(0 34.94217353049521 -0.4059837945644631)"><path d="M40.41 -9.29 C48.06 -6.08, 58.15 -3.64, 69.84 0.59 M40.57 -10.74 C52.66 -5.81, 61.32 -1.43, 69.63 0.91" stroke="#000000" stroke-width="1" fill="none"></path></g></g><g stroke-linecap="round"><g transform="translate(27.441316062795977 141.27568407400418) rotate(0 33.767489892876256 0.5933628813083942)"><path d="M0.05 0.5 C11.6 0.66, 57.43 0.08, 68.91 -0.05 M-1.38 -0.28 C10.04 0.17, 56.33 1.26, 67.92 1.47" stroke="#000000" stroke-width="1" fill="none"></path></g><g transform="translate(27.441316062795977 141.27568407400418) rotate(0 33.767489892876256 0.5933628813083942)"><path d="M40.36 11 C47.16 8.46, 54.46 4.5, 67.72 2.58 M38.81 11.11 C46.42 8.04, 52.06 5.78, 68.78 1.81" stroke="#000000" stroke-width="1" fill="none"></path></g><g transform="translate(27.441316062795977 141.27568407400418) rotate(0 33.767489892876256 0.5933628813083942)"><path d="M40.8 -9.52 C47.3 -6.55, 54.49 -5, 67.72 2.58 M39.25 -9.4 C46.96 -7.97, 52.51 -5.73, 68.78 1.81" stroke="#000000" stroke-width="1" fill="none"></path></g></g><g stroke-linecap="round"><g transform="translate(356.1805453070251 71.83498932082853) rotate(0 -134.62136231570503 -7.825597943668868)"><path d="M0.52 0.77 C5 0.19, 21.31 2.33, 26.3 -2.73 C31.29 -7.8, 30.67 -20.38, 30.45 -29.64 C30.23 -38.89, 37.45 -53.05, 24.96 -58.27 C12.47 -63.48, 3.54 -60.79, -44.49 -60.93 C-92.52 -61.07, -221.02 -62.07, -263.23 -59.13 C-305.43 -56.19, -293.79 -59.51, -297.73 -43.3 C-301.67 -27.08, -295.95 24.1, -286.86 38.14 C-277.77 52.19, -250.19 40.48, -243.2 40.97 M-0.67 0.13 C3.77 -0.38, 20.69 3.05, 25.75 -1.67 C30.81 -6.4, 29.85 -18.94, 29.71 -28.23 C29.56 -37.52, 37.52 -51.97, 24.9 -57.42 C12.28 -62.87, 1.87 -60.45, -46.01 -60.92 C-93.9 -61.39, -220.03 -63.05, -262.41 -60.24 C-304.79 -57.43, -296.01 -60.5, -300.3 -44.07 C-304.58 -27.63, -297.41 23.83, -288.12 38.35 C-278.82 52.87, -251.77 42.69, -244.53 43.05" stroke="#c92a2a" stroke-width="2" fill="none"></path></g><g transform="translate(356.1805453070251 71.83498932082853) rotate(0 -134.62136231570503 -7.825597943668868)"><path d="M-262.09 54.43 C-260.19 50.6, -253.65 47.01, -245.35 42.88 M-262.66 54.08 C-259.13 51.64, -253.71 48.03, -245.4 42.85" stroke="#c92a2a" stroke-width="2" fill="none"></path></g><g transform="translate(356.1805453070251 71.83498932082853) rotate(0 -134.62136231570503 -7.825597943668868)"><path d="M-264.18 39.95 C-261.67 39.77, -254.6 39.83, -245.35 42.88 M-264.76 39.6 C-260.86 40.63, -254.94 40.48, -245.4 42.85" stroke="#c92a2a" stroke-width="2" fill="none"></path></g></g></svg>