<svg version="1.1" xmlns="http://www.w3.org/2000/svg" viewBox="0 0 365.6621995502096 144.06463423745708" width="365.6621995502096" height="144.06463423745708">
  <!-- svg-source:excalidraw -->
  
  <defs>
    <style class="style-fonts">
      @font-face {
        font-family: "Virgil";
        src: url("https://excalidraw.com/Virgil.woff2");
      }
      @font-face {
        font-family: "Cascadia";
        src: url("https://excalidraw.com/Cascadia.woff2");
      }
    </style>
  </defs>
  <g stroke-linecap="round" transform="translate(113.36669623651005 11.289528212515506) rotate(0 52.70029727996257 25.52022583955238)"><path d="M12.76 0 M12.76 0 C44.62 -0.22, 76.71 -0.38, 92.64 0 M12.76 0 C33.06 0.28, 52.95 1, 92.64 0 M92.64 0 C101.69 0.5, 106.44 3.47, 105.4 12.76 M92.64 0 C100.63 0.28, 104.15 4.22, 105.4 12.76 M105.4 12.76 C103.95 17.72, 103.4 26.63, 105.4 38.28 M105.4 12.76 C104.29 22.06, 105.39 31.21, 105.4 38.28 M105.4 38.28 C105.8 46.29, 99.83 49.19, 92.64 51.04 M105.4 38.28 C103.89 48.9, 102.22 51.31, 92.64 51.04 M92.64 51.04 C64.27 51.23, 38.34 50.99, 12.76 51.04 M92.64 51.04 C66.69 50.18, 39.23 51.93, 12.76 51.04 M12.76 51.04 C6.03 50.46, 1.35 44.79, 0 38.28 M12.76 51.04 C2.97 51.92, -1.6 47.59, 0 38.28 M0 38.28 C1.96 29.36, 0.81 17.3, 0 12.76 M0 38.28 C0.49 31.18, -0.32 22.93, 0 12.76 M0 12.76 C-0.07 2.44, 4.7 -0.51, 12.76 0 M0 12.76 C2.01 2.6, 6.28 1.96, 12.76 0" stroke="#000000" stroke-width="2" fill="none"></path></g><g stroke-linecap="round"><g transform="translate(166.06697926984862 10.874566812301055) rotate(0 -0.13079412362526455 26.28702136575248)"><path d="M-0.45 0.11 C-0.41 8.81, -0.69 43.46, -0.54 52.18 M1.51 -0.87 C1.42 7.98, -1.5 44.36, -1.77 53.45" stroke="#000000" stroke-width="2" fill="none"></path></g></g><g stroke-linecap="round"><g transform="translate(219.59721359686273 36.809746928755885) rotate(0 -52.58633195381162 0.654720035615469)"><path d="M-0.54 -0.52 C-18.1 -0.58, -88.16 -0.36, -105.82 -0.25 M1.37 1.83 C-16.27 1.94, -88.42 1.21, -106.55 1.16" stroke="#000000" stroke-width="2" fill="none"></path></g></g><g transform="translate(120.25426262365045 15.07856735796122) rotate(0 20.5 10)"><text x="20.5" y="14" font-family="Virgil, Segoe UI Emoji" font-size="16px" fill="#000000" text-anchor="middle" style="white-space: pre;" direction="ltr">data</text></g><g transform="translate(173.6909561444213 15.07856735796122) rotate(0 18 10)"><text x="18" y="14" font-family="Virgil, Segoe UI Emoji" font-size="16px" fill="#000000" text-anchor="middle" style="white-space: pre;" direction="ltr">next</text></g><g stroke-linecap="round" transform="translate(166.4819549166864 37.22472257559366) rotate(0 25.72770653965972 11.826442645981956)"><path d="M1.57 1.37 C1.57 1.37, 1.57 1.37, 1.57 1.37 M1.57 1.37 C1.57 1.37, 1.57 1.37, 1.57 1.37 M4.99 9.64 C5.58 8.59, 8.08 6.1, 10.24 3.6 M4.99 9.64 C6.66 7.88, 8.21 5.98, 10.24 3.6 M3.81 23.19 C9.82 19.63, 12.22 15.11, 20.87 3.56 M3.81 23.19 C9.98 17.22, 15.81 9.83, 20.87 3.56 M13.78 23.91 C16.43 18.06, 24.08 16.02, 31.5 3.53 M13.78 23.91 C17.89 18.94, 22.56 13.38, 31.5 3.53 M24.41 23.87 C32.99 17.18, 38.51 7.43, 41.47 4.25 M24.41 23.87 C30.08 18.49, 34.44 12.04, 41.47 4.25 M35.04 23.84 C39.78 19.73, 43.91 13.91, 52.1 4.21 M35.04 23.84 C40.88 16.76, 47.53 8.51, 52.1 4.21 M45.67 23.8 C47.28 21.05, 49.61 19.5, 52.23 16.26 M45.67 23.8 C47.78 21.5, 49.32 20.44, 52.23 16.26" stroke="#ced4da" stroke-width="1" fill="none"></path><path d="M5.91 0 M5.91 0 C12.69 -0.21, 23.38 0.55, 45.54 0 M5.91 0 C20.11 0.15, 32.09 0.13, 45.54 0 M45.54 0 C51.08 -0.62, 53.3 0.53, 51.46 5.91 M45.54 0 C47.2 -1.18, 51.8 1.54, 51.46 5.91 M51.46 5.91 C51.03 8.31, 51.48 11.99, 51.46 17.74 M51.46 5.91 C51.66 9.99, 51.81 14.16, 51.46 17.74 M51.46 17.74 C51.35 22.77, 49.89 24.33, 45.54 23.65 M51.46 17.74 C53.35 22.94, 48.95 22.09, 45.54 23.65 M45.54 23.65 C29.72 25.28, 16.02 24.01, 5.91 23.65 M45.54 23.65 C33.43 24.03, 21.41 22.56, 5.91 23.65 M5.91 23.65 C2.68 24.71, 1.34 20.35, 0 17.74 M5.91 23.65 C2.07 24.95, 0.62 21.75, 0 17.74 M0 17.74 C-0.22 14.59, -0.53 10.51, 0 5.91 M0 17.74 C-0.56 13.33, 0.1 10.04, 0 5.91 M0 5.91 C-0.59 1.02, 2.17 -0.88, 5.91 0 M0 5.91 C-1.09 0.23, 3.42 -2.19, 5.91 0" stroke="#000000" stroke-width="2" fill="none"></path></g><g transform="translate(130.77717264619469 41.51606575799997) rotate(0 8.5 10)"><text x="8.5" y="14" font-family="Virgil, Segoe UI Emoji" font-size="16px" fill="#000000" text-anchor="middle" style="white-space: pre;" direction="ltr">10</text></g><g stroke-linecap="round" transform="translate(113.1108714327861 80.26938604770771) rotate(0 52.70029727996257 25.52022583955238)"><path d="M12.76 0 M12.76 0 C38.12 -0.87, 65.3 -1.5, 92.64 0 M12.76 0 C36.06 -0.13, 59.71 -0.4, 92.64 0 M92.64 0 C102.14 1.2, 103.87 4.14, 105.4 12.76 M92.64 0 C99.04 0.24, 105.82 4.4, 105.4 12.76 M105.4 12.76 C103.49 19.62, 107.17 30.03, 105.4 38.28 M105.4 12.76 C105.32 20.53, 105.71 29.52, 105.4 38.28 M105.4 38.28 C105.51 47.41, 99.85 50.81, 92.64 51.04 M105.4 38.28 C106.57 45.02, 100.04 53.28, 92.64 51.04 M92.64 51.04 C59.57 50.46, 31.24 50.19, 12.76 51.04 M92.64 51.04 C66.3 51.44, 39.67 50.87, 12.76 51.04 M12.76 51.04 C3.21 51.11, 0.07 47.52, 0 38.28 M12.76 51.04 C5.4 52.5, -0.72 47.08, 0 38.28 M0 38.28 C-0.27 32.46, -1.21 24.89, 0 12.76 M0 38.28 C-0.78 29.03, -0.7 18.51, 0 12.76 M0 12.76 C0.06 3.38, 3.58 -0.83, 12.76 0 M0 12.76 C-1.12 4.09, 4.83 -1.06, 12.76 0" stroke="#000000" stroke-width="2" fill="none"></path></g><g stroke-linecap="round"><g transform="translate(165.81115446612466 79.85442464749326) rotate(0 0.6887376347835925 26.693182111373176)"><path d="M-0.27 0.15 C-0.48 9, -0.6 44.05, -0.65 52.68 M1.79 -0.82 C1.92 8.28, 2.29 45.27, 1.72 54.21" stroke="#000000" stroke-width="2" fill="none"></path></g></g><g stroke-linecap="round"><g transform="translate(219.34138879313878 105.78960476394809) rotate(0 -53.42098009567235 -0.3587020926695459)"><path d="M-0.65 -0.02 C-18.41 -0.17, -89.1 -0.65, -106.8 -0.77 M1.21 -1.07 C-16.73 -1.1, -89.85 0.15, -108.05 0.36" stroke="#000000" stroke-width="2" fill="none"></path></g></g><g transform="translate(119.9984378199265 84.05842519315343) rotate(0 20.5 10)"><text x="20.5" y="14" font-family="Virgil, Segoe UI Emoji" font-size="16px" fill="#000000" text-anchor="middle" style="white-space: pre;" direction="ltr">data</text></g><g transform="translate(173.43513134069735 84.05842519315343) rotate(0 18 10)"><text x="18" y="14" font-family="Virgil, Segoe UI Emoji" font-size="16px" fill="#000000" text-anchor="middle" style="white-space: pre;" direction="ltr">next</text></g><g stroke-linecap="round" transform="translate(166.22613011296244 106.20458041078587) rotate(0 25.72770653965972 11.826442645981956)"><path d="M1.57 1.37 C1.57 1.37, 1.57 1.37, 1.57 1.37 M1.57 1.37 C1.57 1.37, 1.57 1.37, 1.57 1.37 M4.99 9.64 C7.01 8.63, 7.6 7.24, 10.24 3.6 M4.99 9.64 C6.9 7.88, 8.69 5.56, 10.24 3.6 M3.81 23.19 C6.31 17.52, 13.8 15.66, 20.87 3.56 M3.81 23.19 C7.74 18.42, 12.23 13.06, 20.87 3.56 M13.78 23.91 C22.62 16.92, 28.39 6.87, 31.5 3.53 M13.78 23.91 C19.65 18.3, 24.21 11.61, 31.5 3.53 M24.41 23.87 C29.15 19.76, 33.28 13.95, 41.47 4.25 M24.41 23.87 C30.25 16.79, 36.9 8.54, 41.47 4.25 M35.04 23.84 C39.47 16.97, 45.33 12.5, 52.1 4.21 M35.04 23.84 C40.29 18.11, 44.37 14.85, 52.1 4.21 M45.67 23.8 C46.3 22.09, 48.84 20.87, 52.23 16.26 M45.67 23.8 C48.23 21.32, 49.69 18.72, 52.23 16.26" stroke="#ced4da" stroke-width="1" fill="none"></path><path d="M5.91 0 M5.91 0 C19.51 -2.36, 34.97 -0.06, 45.54 0 M5.91 0 C16.78 -0.22, 27.22 0.16, 45.54 0 M45.54 0 C47.76 0.48, 51.1 1.15, 51.46 5.91 M45.54 0 C50.36 0.93, 52.92 4.21, 51.46 5.91 M51.46 5.91 C51.92 10.37, 52.17 12.61, 51.46 17.74 M51.46 5.91 C50.97 8.09, 52.11 10.9, 51.46 17.74 M51.46 17.74 C52.18 21.98, 51.03 21.71, 45.54 23.65 M51.46 17.74 C52.31 23.44, 51.4 22.03, 45.54 23.65 M45.54 23.65 C30.92 24, 20.09 24.46, 5.91 23.65 M45.54 23.65 C33.67 23.22, 21.55 22.96, 5.91 23.65 M5.91 23.65 C0.47 24.49, 0.57 22.02, 0 17.74 M5.91 23.65 C-0.08 22.22, 0.53 23.16, 0 17.74 M0 17.74 C-0.47 13.98, -0.84 12.09, 0 5.91 M0 17.74 C-0.5 15.76, -0.34 13.14, 0 5.91 M0 5.91 C-1.71 1.53, 3.56 0.29, 5.91 0 M0 5.91 C-2.04 3.79, 3.02 -0.07, 5.91 0" stroke="#000000" stroke-width="2" fill="none"></path></g><g transform="translate(127.02134784247073 110.49592359319217) rotate(0 12 10)"><text x="12" y="14" font-family="Virgil, Segoe UI Emoji" font-size="16px" fill="#000000" text-anchor="middle" style="white-space: pre;" direction="ltr">30</text></g><g stroke-linecap="round" transform="translate(249.2152028526416 11.289528212515506) rotate(0 52.70029727996257 25.52022583955238)"><path d="M12.76 0 M12.76 0 C40.58 -1.22, 68.84 0.97, 92.64 0 M12.76 0 C36.56 -0.72, 61.02 1.12, 92.64 0 M92.64 0 C102.08 0.23, 106.41 5.23, 105.4 12.76 M92.64 0 C100.66 -0.42, 105.81 6.21, 105.4 12.76 M105.4 12.76 C105.25 21.58, 103.95 27.4, 105.4 38.28 M105.4 12.76 C106.3 21.91, 105.07 33.43, 105.4 38.28 M105.4 38.28 C104.01 47.48, 102.96 49.79, 92.64 51.04 M105.4 38.28 C106.34 48.85, 102.35 51.79, 92.64 51.04 M92.64 51.04 C73.59 52.06, 54.36 50.45, 12.76 51.04 M92.64 51.04 C67.87 50.06, 43.54 49.6, 12.76 51.04 M12.76 51.04 C6.01 52.75, 1.43 47.96, 0 38.28 M12.76 51.04 C2.88 52.38, -1.19 46.54, 0 38.28 M0 38.28 C-0.72 29.57, -0.03 23.31, 0 12.76 M0 38.28 C0.97 30.94, 0.72 26.18, 0 12.76 M0 12.76 C-1.75 2.8, 4.19 -1.64, 12.76 0 M0 12.76 C-0.25 5, 4.88 0.97, 12.76 0" stroke="#000000" stroke-width="2" fill="none"></path></g><g stroke-linecap="round"><g transform="translate(301.91548588598016 10.874566812301055) rotate(0 -0.28513280258607665 26.749013572325907)"><path d="M-1.1 0.13 C-0.91 8.93, -0.01 44.06, 0.22 52.77 M0.52 -0.85 C0.65 8.17, -0.46 45.28, -0.62 54.35" stroke="#000000" stroke-width="2" fill="none"></path></g></g><g stroke-linecap="round"><g transform="translate(355.4457202129943 36.809746928755885) rotate(0 -53.297784906402285 0.07317967093547395)"><path d="M0.22 0.07 C-17.26 0, -88.12 -0.1, -105.99 -0.3 M-1.13 -0.93 C-18.65 -0.84, -89.58 0.99, -106.81 1.08" stroke="#000000" stroke-width="2" fill="none"></path></g></g><g transform="translate(256.102769239782 15.07856735796122) rotate(0 20.5 10)"><text x="20.5" y="14" font-family="Virgil, Segoe UI Emoji" font-size="16px" fill="#000000" text-anchor="middle" style="white-space: pre;" direction="ltr">data</text></g><g transform="translate(309.53946276055285 15.07856735796122) rotate(0 18 10)"><text x="18" y="14" font-family="Virgil, Segoe UI Emoji" font-size="16px" fill="#000000" text-anchor="middle" style="white-space: pre;" direction="ltr">next</text></g><g stroke-linecap="round" transform="translate(302.33046153281794 37.22472257559366) rotate(0 25.72770653965972 11.826442645981956)"><path d="M1.57 1.37 C1.57 1.37, 1.57 1.37, 1.57 1.37 M1.57 1.37 C1.57 1.37, 1.57 1.37, 1.57 1.37 M4.99 9.64 C5.61 7.8, 8.24 7.48, 10.24 3.6 M4.99 9.64 C6.15 8.2, 7.51 6.55, 10.24 3.6 M3.81 23.19 C12.39 16.5, 17.9 6.74, 20.87 3.56 M3.81 23.19 C9.47 17.81, 13.84 11.35, 20.87 3.56 M13.78 23.91 C18.72 19.57, 23.04 13.53, 31.5 3.53 M13.78 23.91 C19.86 16.53, 26.77 7.99, 31.5 3.53 M24.41 23.87 C28.84 17, 34.7 12.53, 41.47 4.25 M24.41 23.87 C29.66 18.15, 33.74 14.88, 41.47 4.25 M35.04 23.84 C37.17 19.46, 43.07 16.05, 52.1 4.21 M35.04 23.84 C41.51 17.31, 45.76 10.57, 52.1 4.21 M45.67 23.8 C47.47 19.88, 50.16 18.16, 52.23 16.26 M45.67 23.8 C47.38 21.53, 48.87 19.6, 52.23 16.26" stroke="#ced4da" stroke-width="1" fill="none"></path><path d="M5.91 0 M5.91 0 C13.56 0.83, 23.67 1.34, 45.54 0 M5.91 0 C21.87 0.12, 38.24 0.33, 45.54 0 M45.54 0 C49.02 -1.36, 52.48 1.55, 51.46 5.91 M45.54 0 C47.35 -2.19, 53.75 0.03, 51.46 5.91 M51.46 5.91 C50.33 10.33, 52.38 14.85, 51.46 17.74 M51.46 5.91 C51.89 8.23, 51.52 11.68, 51.46 17.74 M51.46 17.74 C52 21.74, 48.85 22.67, 45.54 23.65 M51.46 17.74 C51.76 21.13, 49.52 22.51, 45.54 23.65 M45.54 23.65 C36.96 21.98, 26.47 24.23, 5.91 23.65 M45.54 23.65 C31.21 23.02, 16.21 22.71, 5.91 23.65 M5.91 23.65 C3.23 21.75, -0.85 22.51, 0 17.74 M5.91 23.65 C-0.18 25.36, -1.54 22.64, 0 17.74 M0 17.74 C0.2 14.16, 0.96 13.21, 0 5.91 M0 17.74 C-0.38 14.1, 0.14 11.16, 0 5.91 M0 5.91 C1.68 3.89, 2.52 0.96, 5.91 0 M0 5.91 C-2.2 2.86, 2.48 -0.67, 5.91 0" stroke="#000000" stroke-width="2" fill="none"></path></g><g transform="translate(263.12567926232623 41.51606575799997) rotate(0 12 10)"><text x="12" y="14" font-family="Virgil, Segoe UI Emoji" font-size="16px" fill="#000000" text-anchor="middle" style="white-space: pre;" direction="ltr">20</text></g><g stroke-linecap="round" transform="translate(248.95937804891764 80.26938604770771) rotate(0 52.70029727996257 25.52022583955238)"><path d="M12.76 0 M12.76 0 C41.43 -0.82, 67.77 -0.05, 92.64 0 M12.76 0 C42.89 -0.36, 74.82 -1.02, 92.64 0 M92.64 0 C100.18 1.95, 107.18 3.68, 105.4 12.76 M92.64 0 C102.69 -2.3, 104.12 5.13, 105.4 12.76 M105.4 12.76 C104.24 19.46, 107.28 25.57, 105.4 38.28 M105.4 12.76 C105.3 21.61, 105.76 30.37, 105.4 38.28 M105.4 38.28 C104.78 47.04, 101.08 49.22, 92.64 51.04 M105.4 38.28 C105.91 46.2, 103.16 49.39, 92.64 51.04 M92.64 51.04 C62.83 50.42, 31.82 50.58, 12.76 51.04 M92.64 51.04 C69.18 50.27, 45.91 50.62, 12.76 51.04 M12.76 51.04 C4.76 50.12, -1.83 45.42, 0 38.28 M12.76 51.04 C5.96 49.06, 1.12 48.76, 0 38.28 M0 38.28 C-1.45 32.64, 0.83 27.99, 0 12.76 M0 38.28 C0.62 29.76, -0.96 21, 0 12.76 M0 12.76 C1.59 3.64, 6.1 -1.44, 12.76 0 M0 12.76 C-2.29 3.07, 4.6 -0.44, 12.76 0" stroke="#000000" stroke-width="2" fill="none"></path></g><g stroke-linecap="round"><g transform="translate(301.6596610822562 79.85442464749326) rotate(0 0.5962435064559486 26.173101759287533)"><path d="M-0.25 -0.22 C-0.32 8.64, 0.16 44.84, 0.21 53.72 M1.82 -1.38 C1.56 7.11, -0.21 43.42, -0.62 52.14" stroke="#000000" stroke-width="2" fill="none"></path></g></g><g stroke-linecap="round"><g transform="translate(355.1898954092703 105.78960476394809) rotate(0 -53.430748587623384 -0.2593339302441109)"><path d="M0.21 1.02 C-17.44 1.12, -88.29 0.57, -106.16 0.38 M-1.13 0.52 C-18.92 0.26, -89.84 -1.65, -107.07 -1.55" stroke="#000000" stroke-width="2" fill="none"></path></g></g><g transform="translate(255.84694443605804 84.05842519315343) rotate(0 20.5 10)"><text x="20.5" y="14" font-family="Virgil, Segoe UI Emoji" font-size="16px" fill="#000000" text-anchor="middle" style="white-space: pre;" direction="ltr">data</text></g><g transform="translate(309.2836379568289 84.05842519315343) rotate(0 18 10)"><text x="18" y="14" font-family="Virgil, Segoe UI Emoji" font-size="16px" fill="#000000" text-anchor="middle" style="white-space: pre;" direction="ltr">next</text></g><g stroke-linecap="round" transform="translate(302.074636729094 106.20458041078587) rotate(0 25.72770653965972 11.826442645981956)"><path d="M1.57 1.37 C1.57 1.37, 1.57 1.37, 1.57 1.37 M1.57 1.37 C1.57 1.37, 1.57 1.37, 1.57 1.37 M4.99 9.64 C7.79 7.67, 9.38 4.48, 10.24 3.6 M4.99 9.64 C6.78 8.04, 8.04 6.01, 10.24 3.6 M3.81 23.19 C8.54 19.08, 12.67 13.26, 20.87 3.56 M3.81 23.19 C9.64 16.11, 16.29 7.86, 20.87 3.56 M13.78 23.91 C18.41 16.81, 24.47 12.11, 31.5 3.53 M13.78 23.91 C19.21 18, 23.45 14.54, 31.5 3.53 M24.41 23.87 C26.54 19.49, 32.44 16.09, 41.47 4.25 M24.41 23.87 C30.88 17.34, 35.13 10.6, 41.47 4.25 M35.04 23.84 C40.14 14.24, 47.02 9.08, 52.1 4.21 M35.04 23.84 C39.56 18.04, 43.66 12.9, 52.1 4.21 M45.67 23.8 C46.65 22.58, 48.87 21.22, 52.23 16.26 M45.67 23.8 C48.39 20.94, 51.3 18.04, 52.23 16.26" stroke="#ced4da" stroke-width="1" fill="none"></path><path d="M5.91 0 M5.91 0 C16.46 -2.06, 25.94 1.79, 45.54 0 M5.91 0 C15.23 -1.03, 23.37 0.71, 45.54 0 M45.54 0 C51.15 -1.41, 52.16 3.02, 51.46 5.91 M45.54 0 C51.02 -1.53, 51.55 3.27, 51.46 5.91 M51.46 5.91 C50.88 9.94, 51.18 13.67, 51.46 17.74 M51.46 5.91 C51.54 8.97, 50.84 11.46, 51.46 17.74 M51.46 17.74 C51.92 22.97, 48.89 22.7, 45.54 23.65 M51.46 17.74 C51.68 20.66, 48.4 21.91, 45.54 23.65 M45.54 23.65 C31.99 21.61, 18.27 22.15, 5.91 23.65 M45.54 23.65 C32.79 23.71, 17.56 24.36, 5.91 23.65 M5.91 23.65 C2.88 23.59, -0.57 21.49, 0 17.74 M5.91 23.65 C0.37 23.15, 0.43 23.42, 0 17.74 M0 17.74 C0.45 12.07, 0.34 8.92, 0 5.91 M0 17.74 C0.4 14.88, -0.08 10.76, 0 5.91 M0 5.91 C-1.69 3.38, 0.23 -1.01, 5.91 0 M0 5.91 C-2.01 0.22, 1.86 1.73, 5.91 0" stroke="#000000" stroke-width="2" fill="none"></path></g><g transform="translate(263.3698544586023 110.49592359319217) rotate(0 11.5 10)"><text x="11.5" y="14" font-family="Virgil, Segoe UI Emoji" font-size="16px" fill="#000000" text-anchor="middle" style="white-space: pre;" direction="ltr">40</text></g><g stroke-linecap="round"><g transform="translate(198.30232438411622 50.71873128756852) rotate(0 23.54540873924202 -0.9315529888407355)"><path d="M1.07 -0.35 C8.99 -0.74, 39.52 -1.33, 46.92 -1.2 M0.17 -1.57 C8.05 -1.36, 39.04 -0.28, 46.4 -0.29" stroke="#000000" stroke-width="1" fill="none"></path></g><g transform="translate(198.30232438411622 50.71873128756852) rotate(0 23.54540873924202 -0.9315529888407355)"><path d="M24 8.51 C28 3.98, 36.26 1.83, 47.09 1.52 M25.1 7.49 C29.2 5.23, 34.94 3.8, 46.89 0.35" stroke="#000000" stroke-width="1" fill="none"></path></g><g transform="translate(198.30232438411622 50.71873128756852) rotate(0 23.54540873924202 -0.9315529888407355)"><path d="M24.31 -7.26 C28.39 -7.82, 36.56 -6, 47.09 1.52 M25.41 -8.28 C29.51 -6.79, 35.17 -4.48, 46.89 0.35" stroke="#000000" stroke-width="1" fill="none"></path></g></g><g stroke-linecap="round"><g transform="translate(198.30232438411622 118.40956791759959) rotate(0 23.787243734807134 -0.318872683877089)"><path d="M0.81 -1.2 C8.2 -1.06, 38.03 0.19, 45.44 0.46 M-0.23 0.79 C7.47 0.59, 39.81 -1.01, 47.8 -1.43" stroke="#000000" stroke-width="1" fill="none"></path></g><g transform="translate(198.30232438411622 118.40956791759959) rotate(0 23.787243734807134 -0.318872683877089)"><path d="M24.56 6.42 C35.61 2.52, 43.81 2.23, 46.55 -0.61 M26.03 7.57 C34.83 4.34, 43.57 1.12, 47.49 -1.3" stroke="#000000" stroke-width="1" fill="none"></path></g><g transform="translate(198.30232438411622 118.40956791759959) rotate(0 23.787243734807134 -0.318872683877089)"><path d="M23.77 -9.33 C35.08 -7.11, 43.59 -1.27, 46.55 -0.61 M25.25 -8.18 C34.43 -5.28, 43.48 -2.36, 47.49 -1.3" stroke="#000000" stroke-width="1" fill="none"></path></g></g><g transform="translate(10 41.51606575799997) rotate(0 6.5 10)"><text x="6.5" y="14" font-family="Virgil, Segoe UI Emoji" font-size="16px" fill="#000000" text-anchor="middle" style="white-space: pre;" direction="ltr">a</text></g><g transform="translate(10 110.49592359319217) rotate(0 5 10)"><text x="5" y="14" font-family="Virgil, Segoe UI Emoji" font-size="16px" fill="#000000" text-anchor="middle" style="white-space: pre;" direction="ltr">b</text></g><g stroke-linecap="round"><g transform="translate(27.441316062795977 50.25189793149934) rotate(0 34.8373850030066 0.35956300865393587)"><path d="M1.09 -0.75 C12.8 -0.64, 58.06 0.89, 69.48 1.08 M0.2 1.47 C11.87 1.23, 57.29 0.06, 68.79 -0.48" stroke="#000000" stroke-width="1" fill="none"></path></g><g transform="translate(27.441316062795977 50.25189793149934) rotate(0 34.8373850030066 0.35956300865393587)"><path d="M39.72 11.57 C49.14 8.95, 54.41 4.27, 68.85 -0.41 M40.66 10.88 C50.24 5.89, 59.86 2.76, 69.66 -1.2" stroke="#000000" stroke-width="1" fill="none"></path></g><g transform="translate(27.441316062795977 50.25189793149934) rotate(0 34.8373850030066 0.35956300865393587)"><path d="M39.01 -8.94 C48.66 -6.83, 54.1 -6.79, 68.85 -0.41 M39.95 -9.63 C49.87 -7.73, 59.73 -3.95, 69.66 -1.2" stroke="#000000" stroke-width="1" fill="none"></path></g></g><g stroke-linecap="round"><g transform="translate(27.441316062795977 119.34323462973816) rotate(0 34.45183736983563 -0.21185951150289384)"><path d="M0.49 1.08 C11.91 1.27, 58.3 0.56, 69.61 0.39 M-0.71 0.6 C10.51 0.48, 57.67 -1.66, 68.99 -1.53" stroke="#000000" stroke-width="1" fill="none"></path></g><g transform="translate(27.441316062795977 119.34323462973816) rotate(0 34.45183736983563 -0.21185951150289384)"><path d="M42.82 10.37 C52.67 3.93, 63 0.81, 69.73 -0.53 M40.99 8.42 C51.45 5.09, 62.28 0.68, 69.87 -0.67" stroke="#000000" stroke-width="1" fill="none"></path></g><g transform="translate(27.441316062795977 119.34323462973816) rotate(0 34.45183736983563 -0.21185951150289384)"><path d="M42.39 -10.15 C52.27 -8.58, 62.78 -3.69, 69.73 -0.53 M40.56 -12.1 C51.11 -7.97, 62.1 -4.92, 69.87 -0.67" stroke="#000000" stroke-width="1" fill="none"></path></g></g></svg>