<svg version="1.1" xmlns="http://www.w3.org/2000/svg" viewBox="0 0 365.99784496360826 144.84353817956526" width="365.99784496360826" height="144.84353817956526">
  <!-- svg-source:excalidraw -->
  
  <defs>
    <style class="style-fonts">
      @font-face {
        font-family: "Virgil";
        src: url("https://excalidraw.com/Virgil.woff2");
      }
      @font-face {
        font-family: "Cascadia";
        src: url("https://excalidraw.com/Cascadia.woff2");
      }
    </style>
  </defs>
  <g stroke-linecap="round" transform="translate(113.36669623651005 11.981499820319868) rotate(0 52.70029727996257 25.52022583955238)"><path d="M12.76 0 M12.76 0 C45.17 1.28, 75.95 -2.3, 92.64 0 M12.76 0 C43.91 0.29, 76.25 0.24, 92.64 0 M92.64 0 C101.89 0.25, 105.83 5.45, 105.4 12.76 M92.64 0 C100.9 0.33, 105.33 5.01, 105.4 12.76 M105.4 12.76 C104.66 22.43, 104.44 31.95, 105.4 38.28 M105.4 12.76 C105.8 19.7, 105.83 25.91, 105.4 38.28 M105.4 38.28 C105.94 45.86, 101.43 49.32, 92.64 51.04 M105.4 38.28 C103.85 47.64, 98.96 52.56, 92.64 51.04 M92.64 51.04 C72.2 52, 52.86 52.87, 12.76 51.04 M92.64 51.04 C66.69 50.75, 38.74 50.83, 12.76 51.04 M12.76 51.04 C4.54 52.54, -1.17 47.03, 0 38.28 M12.76 51.04 C3.56 53.29, -0.3 45.82, 0 38.28 M0 38.28 C-0.45 28.68, -0.96 20.76, 0 12.76 M0 38.28 C-0.18 31.93, -0.87 26.82, 0 12.76 M0 12.76 C0.17 4.95, 3.31 -1.53, 12.76 0 M0 12.76 C2.07 3.64, 3.65 -0.1, 12.76 0" stroke="#000000" stroke-width="2" fill="none"></path></g><g stroke-linecap="round"><g transform="translate(166.06697926984862 11.566538420105417) rotate(0 -0.12356933355317778 26.12239191296976)"><path d="M0.95 -0.34 C0.68 8.57, -1.19 45.11, -1.2 53.81 M-0.01 -1.57 C0.02 7.01, 0.78 43.23, 0.88 52.27" stroke="#000000" stroke-width="2" fill="none"></path></g></g><g stroke-linecap="round"><g transform="translate(219.59721359686273 37.50171853656025) rotate(0 -52.708427061247676 0.12666667699807022)"><path d="M-1.2 1.11 C-18.91 1.02, -87.77 -0.62, -105.32 -0.86 M0.37 0.65 C-17.5 0.72, -87.83 0.21, -105.79 0.23" stroke="#000000" stroke-width="2" fill="none"></path></g></g><g transform="translate(120.25426262365045 15.770538965765581) rotate(0 20.5 10)"><text x="20.5" y="14" font-family="Virgil, Segoe UI Emoji" font-size="16px" fill="#000000" text-anchor="middle" style="white-space: pre;" direction="ltr">data</text></g><g transform="translate(173.6909561444213 15.770538965765581) rotate(0 18 10)"><text x="18" y="14" font-family="Virgil, Segoe UI Emoji" font-size="16px" fill="#000000" text-anchor="middle" style="white-space: pre;" direction="ltr">next</text></g><g stroke-linecap="round" transform="translate(166.4819549166864 37.91669418339802) rotate(0 25.72770653965972 11.826442645981956)"><path d="M1.57 1.37 C1.57 1.37, 1.57 1.37, 1.57 1.37 M1.57 1.37 C1.57 1.37, 1.57 1.37, 1.57 1.37 M4.99 9.64 C6.39 7.14, 8.31 5.42, 10.24 3.6 M4.99 9.64 C6.35 8.11, 7.47 6.67, 10.24 3.6 M3.81 23.19 C10.08 15.24, 16.01 9.97, 20.87 3.56 M3.81 23.19 C8.85 17.46, 14.33 12, 20.87 3.56 M13.78 23.91 C17.35 17.2, 23.15 11.02, 31.5 3.53 M13.78 23.91 C20.24 17.23, 27.05 8.19, 31.5 3.53 M24.41 23.87 C30.39 16.46, 36.32 10.77, 41.47 4.25 M24.41 23.87 C28.21 19.04, 31.5 15.3, 41.47 4.25 M35.04 23.84 C38.71 19.66, 44.97 11.28, 52.1 4.21 M35.04 23.84 C39.75 17.59, 45.89 12.14, 52.1 4.21 M45.67 23.8 C47.01 21.48, 49.06 21.13, 52.23 16.26 M45.67 23.8 C47.52 21.39, 49.64 18.51, 52.23 16.26" stroke="#ced4da" stroke-width="1" fill="none"></path><path d="M5.91 0 M5.91 0 C16.25 -0.35, 24.15 1.05, 45.54 0 M5.91 0 C19.93 1.39, 35.58 0.22, 45.54 0 M45.54 0 C50.76 0.35, 51.11 0.44, 51.46 5.91 M45.54 0 C50.78 -0.58, 53.11 4.22, 51.46 5.91 M51.46 5.91 C50.59 9.64, 52.1 14.51, 51.46 17.74 M51.46 5.91 C51.85 10.05, 51.86 14.86, 51.46 17.74 M51.46 17.74 C51.31 20.94, 49.75 25.37, 45.54 23.65 M51.46 17.74 C51 23.23, 48.26 24.06, 45.54 23.65 M45.54 23.65 C31.85 24.5, 16.55 23.17, 5.91 23.65 M45.54 23.65 C29.54 22.92, 14.24 23.9, 5.91 23.65 M5.91 23.65 C2.2 22.28, -0.97 20.78, 0 17.74 M5.91 23.65 C3.16 25.44, -1.6 23.87, 0 17.74 M0 17.74 C0.75 13.91, -0.39 10.55, 0 5.91 M0 17.74 C0.04 13.38, 0.01 9.03, 0 5.91 M0 5.91 C0.42 1.73, 2.77 -1.9, 5.91 0 M0 5.91 C-1.06 1.76, 3.06 0.55, 5.91 0" stroke="#000000" stroke-width="2" fill="none"></path></g><g transform="translate(130.77717264619469 42.20803736580433) rotate(0 8.5 10)"><text x="8.5" y="14" font-family="Virgil, Segoe UI Emoji" font-size="16px" fill="#000000" text-anchor="middle" style="white-space: pre;" direction="ltr">10</text></g><g stroke-linecap="round" transform="translate(113.1108714327861 80.96135765551207) rotate(0 52.70029727996257 25.52022583955238)"><path d="M12.76 0 M12.76 0 C40.9 -0.39, 66.92 -0.23, 92.64 0 M12.76 0 C39.76 -0.62, 65.69 -0.73, 92.64 0 M92.64 0 C100.04 -0.72, 105.16 2.84, 105.4 12.76 M92.64 0 C102.15 0.47, 106.46 3.51, 105.4 12.76 M105.4 12.76 C103.56 19.75, 106.03 27.53, 105.4 38.28 M105.4 12.76 C106.09 21.85, 105.43 31.48, 105.4 38.28 M105.4 38.28 C106.58 47.53, 101.53 52.72, 92.64 51.04 M105.4 38.28 C107.67 44.59, 101.11 49.02, 92.64 51.04 M92.64 51.04 C67.76 49.97, 44.35 50.32, 12.76 51.04 M92.64 51.04 C72.26 50.56, 51.44 50.3, 12.76 51.04 M12.76 51.04 C6.02 49.73, -0.9 45.27, 0 38.28 M12.76 51.04 C3.58 50.19, -2.27 47.93, 0 38.28 M0 38.28 C-1.62 32.21, -0.62 22, 0 12.76 M0 38.28 C-0.37 30.38, 0.74 23.19, 0 12.76 M0 12.76 C-1.48 3.85, 2.85 -0.33, 12.76 0 M0 12.76 C-1.52 5.18, 5.85 0.75, 12.76 0" stroke="#000000" stroke-width="2" fill="none"></path></g><g stroke-linecap="round"><g transform="translate(165.81115446612466 80.54639625529762) rotate(0 -0.8798549413306773 26.154083535703876)"><path d="M-0.13 0.17 C-0.18 8.9, -0.25 44.29, -0.04 53.09 M-1.66 -0.79 C-1.89 7.51, -1.45 41.96, -1.01 51.18" stroke="#000000" stroke-width="2" fill="none"></path></g></g><g stroke-linecap="round"><g transform="translate(219.34138879313878 106.48157637175245) rotate(0 -52.71388522453617 -0.6180407615506738)"><path d="M-0.04 0.39 C-17.53 0.42, -87.44 0.47, -105.06 0.32 M-1.52 -0.45 C-19.05 -0.81, -87.94 -1.81, -105.39 -1.64" stroke="#000000" stroke-width="2" fill="none"></path></g></g><g transform="translate(119.9984378199265 84.75039680095779) rotate(0 20.5 10)"><text x="20.5" y="14" font-family="Virgil, Segoe UI Emoji" font-size="16px" fill="#000000" text-anchor="middle" style="white-space: pre;" direction="ltr">data</text></g><g transform="translate(173.43513134069735 84.75039680095779) rotate(0 18 10)"><text x="18" y="14" font-family="Virgil, Segoe UI Emoji" font-size="16px" fill="#000000" text-anchor="middle" style="white-space: pre;" direction="ltr">next</text></g><g stroke-linecap="round" transform="translate(166.22613011296244 106.89655201859023) rotate(0 25.72770653965972 11.826442645981956)"><path d="M1.57 1.37 C1.57 1.37, 1.57 1.37, 1.57 1.37 M1.57 1.37 C1.57 1.37, 1.57 1.37, 1.57 1.37 M4.99 9.64 C6.99 7.01, 8.86 5.48, 10.24 3.6 M4.99 9.64 C6.55 7.88, 8.28 6.23, 10.24 3.6 M3.81 23.19 C7.17 16.72, 12.77 10.79, 20.87 3.56 M3.81 23.19 C10.01 16.79, 16.58 8.04, 20.87 3.56 M13.78 23.91 C20.01 16.2, 26.19 10.24, 31.5 3.53 M13.78 23.91 C17.73 18.9, 21.19 14.99, 31.5 3.53 M24.41 23.87 C28.08 19.7, 34.34 11.31, 41.47 4.25 M24.41 23.87 C29.12 17.63, 35.26 12.17, 41.47 4.25 M35.04 23.84 C38.61 18.2, 43.6 16.47, 52.1 4.21 M35.04 23.84 C40.03 17.51, 45.56 10.25, 52.1 4.21 M45.67 23.8 C47.59 21.93, 48.34 20.81, 52.23 16.26 M45.67 23.8 C47.73 21.55, 50.6 18.15, 52.23 16.26" stroke="#ced4da" stroke-width="1" fill="none"></path><path d="M5.91 0 M5.91 0 C18.8 1.2, 34.24 1.51, 45.54 0 M5.91 0 C21.32 -0.59, 37.44 0.68, 45.54 0 M45.54 0 C51.45 1.86, 52.03 0.57, 51.46 5.91 M45.54 0 C50.9 -2, 52.88 0.59, 51.46 5.91 M51.46 5.91 C52.43 9.14, 52.21 12.21, 51.46 17.74 M51.46 5.91 C51.97 9.87, 51.69 13.35, 51.46 17.74 M51.46 17.74 C50.68 23.35, 49.75 21.65, 45.54 23.65 M51.46 17.74 C49.59 20.91, 47.38 25.14, 45.54 23.65 M45.54 23.65 C32.31 24.5, 22.43 22.07, 5.91 23.65 M45.54 23.65 C29.72 24.07, 14.02 23.1, 5.91 23.65 M5.91 23.65 C1.96 25.09, 0.89 20.65, 0 17.74 M5.91 23.65 C2.33 23.8, 0.23 21.98, 0 17.74 M0 17.74 C-1.11 13.4, -0.1 10.71, 0 5.91 M0 17.74 C0.68 14.02, -0.45 10.11, 0 5.91 M0 5.91 C-0.02 1.75, 0.95 0.31, 5.91 0 M0 5.91 C-1.85 3.89, 1.37 1.01, 5.91 0" stroke="#000000" stroke-width="2" fill="none"></path></g><g transform="translate(127.02134784247073 111.18789520099654) rotate(0 12 10)"><text x="12" y="14" font-family="Virgil, Segoe UI Emoji" font-size="16px" fill="#000000" text-anchor="middle" style="white-space: pre;" direction="ltr">30</text></g><g stroke-linecap="round" transform="translate(249.2152028526416 11.981499820319868) rotate(0 52.70029727996257 25.52022583955238)"><path d="M12.76 0 M12.76 0 C30.88 0.97, 52.25 1.02, 92.64 0 M12.76 0 C34.29 -0.49, 54.87 0.74, 92.64 0 M92.64 0 C99.24 1.32, 104.39 4.17, 105.4 12.76 M92.64 0 C103.03 -0.59, 105.76 4.33, 105.4 12.76 M105.4 12.76 C107.18 23.89, 103.58 31.04, 105.4 38.28 M105.4 12.76 C104.85 18.3, 105.14 24.57, 105.4 38.28 M105.4 38.28 C105.14 45.95, 102.7 50.49, 92.64 51.04 M105.4 38.28 C105.94 46.19, 101.19 49.85, 92.64 51.04 M92.64 51.04 C60.09 50.1, 29.83 48.71, 12.76 51.04 M92.64 51.04 C64.25 50.55, 37.7 51.05, 12.76 51.04 M12.76 51.04 C3.73 50.95, 1.07 47.86, 0 38.28 M12.76 51.04 C3.73 50.22, 2.01 46.76, 0 38.28 M0 38.28 C-0.27 31.19, 0.86 28.13, 0 12.76 M0 38.28 C-0.73 29.99, -0.86 20.76, 0 12.76 M0 12.76 C-1.17 5.63, 6.14 0.76, 12.76 0 M0 12.76 C0.03 3.21, 5.89 1.68, 12.76 0" stroke="#000000" stroke-width="2" fill="none"></path></g><g stroke-linecap="round"><g transform="translate(301.91548588598016 11.566538420105417) rotate(0 -0.03470892910695511 26.4897091722396)"><path d="M0.52 0.25 C0.64 9.11, 0.59 43.66, 0.55 52.31 M-0.66 -0.67 C-0.64 8.44, -0.17 44.68, -0.11 53.65" stroke="#000000" stroke-width="2" fill="none"></path></g></g><g stroke-linecap="round"><g transform="translate(355.4457202129943 37.50171853656025) rotate(0 -53.06858839817369 -0.4729871978703386)"><path d="M0.55 -0.39 C-17.19 -0.52, -88.14 -0.45, -105.91 -0.56 M-0.62 -1.63 C-18.53 -1.63, -89 0.46, -106.69 0.69" stroke="#000000" stroke-width="2" fill="none"></path></g></g><g transform="translate(256.102769239782 15.770538965765581) rotate(0 20.5 10)"><text x="20.5" y="14" font-family="Virgil, Segoe UI Emoji" font-size="16px" fill="#000000" text-anchor="middle" style="white-space: pre;" direction="ltr">data</text></g><g transform="translate(309.53946276055285 15.770538965765581) rotate(0 18 10)"><text x="18" y="14" font-family="Virgil, Segoe UI Emoji" font-size="16px" fill="#000000" text-anchor="middle" style="white-space: pre;" direction="ltr">next</text></g><g stroke-linecap="round" transform="translate(302.33046153281794 37.91669418339802) rotate(0 25.72770653965972 11.826442645981956)"><path d="M1.57 1.37 C1.57 1.37, 1.57 1.37, 1.57 1.37 M1.57 1.37 C1.57 1.37, 1.57 1.37, 1.57 1.37 M4.99 9.64 C5.85 7.64, 7.58 5.85, 10.24 3.6 M4.99 9.64 C6.87 7.76, 8.91 4.94, 10.24 3.6 M3.81 23.19 C9.79 15.77, 15.72 10.09, 20.87 3.56 M3.81 23.19 C7.6 18.35, 10.9 14.62, 20.87 3.56 M13.78 23.91 C17.65 19.5, 24.12 10.89, 31.5 3.53 M13.78 23.91 C18.68 17.44, 25.02 11.76, 31.5 3.53 M24.41 23.87 C27.98 18.24, 32.97 16.51, 41.47 4.25 M24.41 23.87 C29.4 17.55, 34.93 10.28, 41.47 4.25 M35.04 23.84 C39.79 18.96, 42.24 15.62, 52.1 4.21 M35.04 23.84 C40.62 17.68, 47.84 9.19, 52.1 4.21 M45.67 23.8 C47.28 21.63, 50.18 19.04, 52.23 16.26 M45.67 23.8 C48.09 20.47, 50.88 18.1, 52.23 16.26" stroke="#ced4da" stroke-width="1" fill="none"></path><path d="M5.91 0 M5.91 0 C20.29 1.12, 35.72 1.12, 45.54 0 M5.91 0 C15.56 1.01, 24.74 0.82, 45.54 0 M45.54 0 C48.42 0.35, 52.7 -0.02, 51.46 5.91 M45.54 0 C51.2 0.77, 52.08 1.67, 51.46 5.91 M51.46 5.91 C50.37 8.04, 51.15 11.01, 51.46 17.74 M51.46 5.91 C51.18 9.96, 51.78 15, 51.46 17.74 M51.46 17.74 C50.07 23.58, 49.56 22.76, 45.54 23.65 M51.46 17.74 C51.08 23.05, 49.03 22.78, 45.54 23.65 M45.54 23.65 C32.65 24.14, 21.95 24.03, 5.91 23.65 M45.54 23.65 C33.53 22.66, 20.27 23.51, 5.91 23.65 M5.91 23.65 C2.92 24.13, -1.96 22.45, 0 17.74 M5.91 23.65 C4.18 24.09, -2.2 21.8, 0 17.74 M0 17.74 C0.2 13.25, 1 10.36, 0 5.91 M0 17.74 C0.43 13.16, 0.13 10.15, 0 5.91 M0 5.91 C1.36 -0.01, 3.36 -0.88, 5.91 0 M0 5.91 C-0.83 0.31, 4.11 0.93, 5.91 0" stroke="#000000" stroke-width="2" fill="none"></path></g><g transform="translate(263.12567926232623 42.20803736580433) rotate(0 12 10)"><text x="12" y="14" font-family="Virgil, Segoe UI Emoji" font-size="16px" fill="#000000" text-anchor="middle" style="white-space: pre;" direction="ltr">20</text></g><g stroke-linecap="round" transform="translate(248.95937804891764 80.96135765551207) rotate(0 52.70029727996257 25.52022583955238)"><path d="M12.76 0 M12.76 0 C29.04 2.05, 44.97 0.71, 92.64 0 M12.76 0 C37.17 0.54, 62.19 -1.25, 92.64 0 M92.64 0 C101.11 -1.76, 105.69 5.75, 105.4 12.76 M92.64 0 C99.8 0.28, 104.71 6.5, 105.4 12.76 M105.4 12.76 C104.74 20.56, 104.77 27.45, 105.4 38.28 M105.4 12.76 C105.18 18.34, 105.34 25.06, 105.4 38.28 M105.4 38.28 C103.42 47.78, 101.32 51.74, 92.64 51.04 M105.4 38.28 C104.32 45.03, 103.22 50.43, 92.64 51.04 M92.64 51.04 C71.84 51.01, 48.19 53.22, 12.76 51.04 M92.64 51.04 C68.08 50.72, 44.25 51.28, 12.76 51.04 M12.76 51.04 C5.64 51.69, 1.28 46.71, 0 38.28 M12.76 51.04 C2.96 51.49, -1.61 45.53, 0 38.28 M0 38.28 C0.59 32.14, -1.08 27.37, 0 12.76 M0 38.28 C-0.8 29.76, 0.06 19.06, 0 12.76 M0 12.76 C1.28 4.6, 3.91 -1.53, 12.76 0 M0 12.76 C1.3 3.68, 5.91 2.25, 12.76 0" stroke="#000000" stroke-width="2" fill="none"></path></g><g stroke-linecap="round"><g transform="translate(301.6596610822562 80.54639625529762) rotate(0 0.16527137024559124 26.390344843855132)"><path d="M0.98 -0.31 C1.12 8.49, 0.23 43.83, 0.19 52.74 M0.04 -1.52 C0.09 7.49, -0.71 45.54, -0.67 54.3" stroke="#000000" stroke-width="2" fill="none"></path></g></g><g stroke-linecap="round"><g transform="translate(355.1898954092703 106.48157637175245) rotate(0 -52.957715247348006 -0.4980669030309173)"><path d="M0.19 0.04 C-17.57 0.16, -87.83 0.29, -105.52 0.45 M-1.18 -0.99 C-19.11 -1.2, -88.52 -1.47, -106.1 -1.44" stroke="#000000" stroke-width="2" fill="none"></path></g></g><g transform="translate(255.84694443605804 84.75039680095779) rotate(0 20.5 10)"><text x="20.5" y="14" font-family="Virgil, Segoe UI Emoji" font-size="16px" fill="#000000" text-anchor="middle" style="white-space: pre;" direction="ltr">data</text></g><g transform="translate(309.2836379568289 84.75039680095779) rotate(0 18 10)"><text x="18" y="14" font-family="Virgil, Segoe UI Emoji" font-size="16px" fill="#000000" text-anchor="middle" style="white-space: pre;" direction="ltr">next</text></g><g stroke-linecap="round" transform="translate(302.074636729094 106.89655201859023) rotate(0 25.72770653965972 11.826442645981956)"><path d="M1.57 1.37 C1.57 1.37, 1.57 1.37, 1.57 1.37 M1.57 1.37 C1.57 1.37, 1.57 1.37, 1.57 1.37 M4.99 9.64 C6.78 7.36, 8.56 5.77, 10.24 3.6 M4.99 9.64 C6.13 8.11, 7.08 7.04, 10.24 3.6 M3.81 23.19 C7.48 19.01, 13.74 10.63, 20.87 3.56 M3.81 23.19 C8.51 16.94, 14.66 11.49, 20.87 3.56 M13.78 23.91 C17.5 18.1, 22.64 16.2, 31.5 3.53 M13.78 23.91 C18.98 17.33, 24.73 9.81, 31.5 3.53 M24.41 23.87 C29.16 18.99, 31.61 15.65, 41.47 4.25 M24.41 23.87 C29.99 17.72, 37.21 9.22, 41.47 4.25 M35.04 23.84 C39.69 17.86, 46.92 11.03, 52.1 4.21 M35.04 23.84 C41.44 15.38, 48.59 8.85, 52.1 4.21 M45.67 23.8 C47.51 21.39, 49.95 18.39, 52.23 16.26 M45.67 23.8 C47.32 22.45, 48.73 20.54, 52.23 16.26" stroke="#ced4da" stroke-width="1" fill="none"></path><path d="M5.91 0 M5.91 0 C13.7 1.25, 26.13 0.3, 45.54 0 M5.91 0 C17.41 -1.33, 27.83 -0.67, 45.54 0 M45.54 0 C47.66 1.29, 51.68 0.6, 51.46 5.91 M45.54 0 C48.37 -1.03, 52.65 3.76, 51.46 5.91 M51.46 5.91 C51.04 8.45, 52.27 11.13, 51.46 17.74 M51.46 5.91 C51.72 8.71, 51.55 12.15, 51.46 17.74 M51.46 17.74 C51.65 21.94, 49.91 23.42, 45.54 23.65 M51.46 17.74 C52.37 19.5, 48.42 23.44, 45.54 23.65 M45.54 23.65 C32.54 25.19, 18.38 21.35, 5.91 23.65 M45.54 23.65 C32.94 23.77, 20.55 24.44, 5.91 23.65 M5.91 23.65 C1.45 24.53, -0.58 19.72, 0 17.74 M5.91 23.65 C3.52 21.68, 0.38 23.81, 0 17.74 M0 17.74 C-0.41 12.96, -0.74 10.13, 0 5.91 M0 17.74 C-0.11 13.39, -0.44 9.99, 0 5.91 M0 5.91 C1.11 0.37, 1.1 0.87, 5.91 0 M0 5.91 C1.62 3.43, 0.05 1.71, 5.91 0" stroke="#000000" stroke-width="2" fill="none"></path></g><g transform="translate(263.3698544586023 111.18789520099654) rotate(0 11.5 10)"><text x="11.5" y="14" font-family="Virgil, Segoe UI Emoji" font-size="16px" fill="#000000" text-anchor="middle" style="white-space: pre;" direction="ltr">40</text></g><g stroke-linecap="round"><g transform="translate(198.30232438411622 51.41070289537288) rotate(0 23.280174901098235 0.9590500732190321)"><path d="M0.17 0.9 C7.75 1.1, 37.81 0.1, 45.41 0.15 M-1.19 0.32 C6.77 0.83, 40.09 1.91, 47.75 1.76" stroke="#000000" stroke-width="1" fill="none"></path></g><g transform="translate(198.30232438411622 51.41070289537288) rotate(0 23.280174901098235 0.9590500732190321)"><path d="M27.49 8.21 C32.79 6.48, 40.99 4.55, 46.91 3.32 M26.01 8.87 C32.79 6.71, 37.39 4.53, 47.46 1.39" stroke="#000000" stroke-width="1" fill="none"></path></g><g transform="translate(198.30232438411622 51.41070289537288) rotate(0 23.280174901098235 0.9590500732190321)"><path d="M27.68 -7.56 C32.79 -4.59, 40.93 -1.82, 46.91 3.32 M26.2 -6.9 C32.97 -4.77, 37.51 -2.65, 47.46 1.39" stroke="#000000" stroke-width="1" fill="none"></path></g></g><g stroke-linecap="round"><g transform="translate(198.30232438411622 119.10153952540395) rotate(0 22.524282710975513 0.12877805741254633)"><path d="M-0.7 0.15 C6.89 0.19, 37.97 1.28, 45.75 1.17 M1.13 -0.82 C8.52 -1.16, 37.28 -0.56, 44.61 -0.33" stroke="#000000" stroke-width="1" fill="none"></path></g><g transform="translate(198.30232438411622 119.10153952540395) rotate(0 22.524282710975513 0.12877805741254633)"><path d="M23.01 6.43 C31.54 4.58, 35.61 4.08, 44.06 0.13 M23.65 6.37 C28.3 4.37, 34.44 2.74, 43.62 0.16" stroke="#000000" stroke-width="1" fill="none"></path></g><g transform="translate(198.30232438411622 119.10153952540395) rotate(0 22.524282710975513 0.12877805741254633)"><path d="M23.39 -9.34 C31.91 -6.23, 35.87 -1.77, 44.06 0.13 M24.03 -9.39 C28.58 -7.08, 34.62 -4.39, 43.62 0.16" stroke="#000000" stroke-width="1" fill="none"></path></g></g><g transform="translate(10 42.20803736580433) rotate(0 6.5 10)"><text x="6.5" y="14" font-family="Virgil, Segoe UI Emoji" font-size="16px" fill="#000000" text-anchor="middle" style="white-space: pre;" direction="ltr">a</text></g><g transform="translate(10 111.18789520099654) rotate(0 5 10)"><text x="5" y="14" font-family="Virgil, Segoe UI Emoji" font-size="16px" fill="#000000" text-anchor="middle" style="white-space: pre;" direction="ltr">b</text></g><g stroke-linecap="round"><g transform="translate(27.441316062795977 50.943869539303705) rotate(0 34.61709841225161 -0.2438183441106503)"><path d="M0.93 -0.33 C12.5 -0.3, 57.92 -0.26, 69.27 -0.31 M-0.03 -1.55 C11.42 -1.3, 57.09 0.74, 68.47 1.06" stroke="#000000" stroke-width="1" fill="none"></path></g><g transform="translate(27.441316062795977 50.943869539303705) rotate(0 34.61709841225161 -0.2438183441106503)"><path d="M39.36 10.73 C47.63 7.44, 55.32 6.53, 67.15 0.17 M38.93 10.76 C46.43 8.66, 52.27 5.48, 69.37 0.8" stroke="#000000" stroke-width="1" fill="none"></path></g><g transform="translate(27.441316062795977 50.943869539303705) rotate(0 34.61709841225161 -0.2438183441106503)"><path d="M40.13 -9.77 C48.09 -7.17, 55.55 -2.2, 67.15 0.17 M39.69 -9.75 C46.96 -7.26, 52.63 -5.84, 69.37 0.8" stroke="#000000" stroke-width="1" fill="none"></path></g></g><g stroke-linecap="round"><g transform="translate(27.441316062795977 120.03520623754252) rotate(0 33.989756717419596 -0.4658125820103578)"><path d="M0.28 -0.31 C11.63 -0.36, 57.38 -0.54, 69.01 -0.62 M-1.03 -1.52 C10.08 -1.39, 56.26 0.32, 68.07 0.59" stroke="#000000" stroke-width="1" fill="none"></path></g><g transform="translate(27.441316062795977 120.03520623754252) rotate(0 33.989756717419596 -0.4658125820103578)"><path d="M39.06 10.02 C49.34 8.14, 59.83 1.92, 66.56 0.01 M39.67 10.33 C46.7 6.61, 55.57 4.63, 67.81 0.54" stroke="#000000" stroke-width="1" fill="none"></path></g><g transform="translate(27.441316062795977 120.03520623754252) rotate(0 33.989756717419596 -0.4658125820103578)"><path d="M39.69 -10.49 C49.67 -4.62, 59.92 -3.09, 66.56 0.01 M40.3 -10.18 C46.96 -8.5, 55.67 -5.08, 67.81 0.54" stroke="#000000" stroke-width="1" fill="none"></path></g></g><g stroke-linecap="round"><g transform="translate(61.33750247286844 47.17194770414949) rotate(0 -2.411596810155288 2.8862301257427134)"><path d="M-0.72 -0.81 C-1.67 0.33, -4.59 5.25, -5.34 6.59 M1.11 1.37 C0.02 2.18, -4.82 4.08, -5.93 4.76" stroke="#c92a2a" stroke-width="2" fill="none"></path></g></g><g stroke-linecap="round"><g transform="translate(62.35745071383735 53.49562679815722) rotate(0 -3.0847324311430384 -3.4436132104486887)"><path d="M0.68 0.57 C-0.26 -0.29, -4.85 -4.79, -6.33 -5.95 M-0.42 -0.18 C-1.38 -1.27, -5.94 -6.08, -6.85 -7.46" stroke="#c92a2a" stroke-width="2" fill="none"></path></g></g><g stroke-linecap="round"><g transform="translate(30.75343012754638 53.635017661609254) rotate(0 41.05894164189522 18.390138051681333)"><path d="M1.2 0.85 C14.41 7.13, 66.37 30.74, 79.46 36.52 M0.36 0.26 C13.95 6.28, 68.7 28.66, 81.75 34.74" stroke="#c92a2a" stroke-width="2" fill="none"></path></g><g transform="translate(30.75343012754638 53.635017661609254) rotate(0 41.05894164189522 18.390138051681333)"><path d="M53.23 31.62 C62.27 32.34, 70.08 35.06, 80.73 32.86 M51.29 33 C59.58 33.64, 68.46 34.85, 81 34.84" stroke="#c92a2a" stroke-width="2" fill="none"></path></g><g transform="translate(30.75343012754638 53.635017661609254) rotate(0 41.05894164189522 18.390138051681333)"><path d="M61.38 12.78 C67.69 19.5, 72.94 28.14, 80.73 32.86 M59.44 14.17 C65.34 20.18, 71.86 26.84, 81 34.84" stroke="#c92a2a" stroke-width="2" fill="none"></path></g></g></svg>