<svg version="1.1" xmlns="http://www.w3.org/2000/svg" viewBox="0 0 365.6936431943618 144.24658916273165" width="365.6936431943618" height="144.24658916273165">
  <!-- svg-source:excalidraw -->
  
  <defs>
    <style class="style-fonts">
      @font-face {
        font-family: "Virgil";
        src: url("https://excalidraw.com/Virgil.woff2");
      }
      @font-face {
        font-family: "Cascadia";
        src: url("https://excalidraw.com/Cascadia.woff2");
      }
    </style>
  </defs>
  <g stroke-linecap="round" transform="translate(113.36669623651005 11.281271174136464) rotate(0 52.70029727996257 25.52022583955238)"><path d="M12.76 0 M12.76 0 C33.02 -2.31, 55.62 -2.12, 92.64 0 M12.76 0 C33.45 0.37, 53.67 0.11, 92.64 0 M92.64 0 C99.25 1.65, 106.05 2.26, 105.4 12.76 M92.64 0 C102.04 -1.51, 104.49 4.46, 105.4 12.76 M105.4 12.76 C106.58 22, 106.91 33.89, 105.4 38.28 M105.4 12.76 C105.61 19.93, 105.53 27.84, 105.4 38.28 M105.4 38.28 C103.47 47.98, 101.91 49.37, 92.64 51.04 M105.4 38.28 C106.97 46.63, 99.16 50.59, 92.64 51.04 M92.64 51.04 C65.54 51.86, 36.41 49.3, 12.76 51.04 M92.64 51.04 C72.64 49.69, 53.09 50.1, 12.76 51.04 M12.76 51.04 C4.09 49.48, 1.04 46.24, 0 38.28 M12.76 51.04 C5.44 52.65, 2.19 48.38, 0 38.28 M0 38.28 C1.65 30.81, -0.08 25.23, 0 12.76 M0 38.28 C0.46 30.18, -0.11 22.6, 0 12.76 M0 12.76 C-1.71 5.93, 4.8 0.5, 12.76 0 M0 12.76 C1.2 3.35, 3.73 0.28, 12.76 0" stroke="#000000" stroke-width="2" fill="none"></path></g><g stroke-linecap="round"><g transform="translate(166.06697926984862 10.866309773922012) rotate(0 0.18335148226788078 26.329288322213188)"><path d="M-0.95 -0.8 C-1.27 8.08, -0.87 43.42, -0.83 52.19 M0.75 1.39 C0.71 10.53, 1.27 44.92, 1.44 53.46" stroke="#000000" stroke-width="2" fill="none"></path></g></g><g stroke-linecap="round"><g transform="translate(219.59721359686273 36.80148989037684) rotate(0 -53.02864343367537 -0.8204587873163973)"><path d="M-0.83 -0.51 C-18.51 -0.52, -89.44 -0.93, -106.99 -0.89 M0.93 -1.82 C-16.27 -1.64, -86.72 -0.28, -104.67 0.18" stroke="#000000" stroke-width="2" fill="none"></path></g></g><g transform="translate(120.25426262365045 15.070310319582177) rotate(0 20.5 10)"><text x="20.5" y="14" font-family="Virgil, Segoe UI Emoji" font-size="16px" fill="#000000" text-anchor="middle" style="white-space: pre;" direction="ltr">data</text></g><g transform="translate(173.6909561444213 15.070310319582177) rotate(0 18 10)"><text x="18" y="14" font-family="Virgil, Segoe UI Emoji" font-size="16px" fill="#000000" text-anchor="middle" style="white-space: pre;" direction="ltr">next</text></g><g stroke-linecap="round" transform="translate(166.4819549166864 37.21646553721462) rotate(0 25.72770653965972 11.826442645981956)"><path d="M1.57 1.37 C1.57 1.37, 1.57 1.37, 1.57 1.37 M1.57 1.37 C1.57 1.37, 1.57 1.37, 1.57 1.37 M4.99 9.64 C7.48 8.07, 8.77 5.86, 10.24 3.6 M4.99 9.64 C6.84 7.24, 8.33 5.62, 10.24 3.6 M3.81 23.19 C9.6 14.71, 15.11 10.76, 20.87 3.56 M3.81 23.19 C10.48 15.62, 15.45 8.18, 20.87 3.56 M13.78 23.91 C19.34 14.27, 27.22 7.57, 31.5 3.53 M13.78 23.91 C18.12 20.13, 22.49 15.61, 31.5 3.53 M24.41 23.87 C30.18 17.65, 32.57 13.5, 41.47 4.25 M24.41 23.87 C30.12 17.67, 34.83 11.92, 41.47 4.25 M35.04 23.84 C39.04 20.62, 41.41 14.92, 52.1 4.21 M35.04 23.84 C40 17.07, 45.25 10.95, 52.1 4.21 M45.67 23.8 C47.83 21.3, 48.65 19.44, 52.23 16.26 M45.67 23.8 C47.8 21.33, 49.41 18.65, 52.23 16.26" stroke="#ced4da" stroke-width="1" fill="none"></path><path d="M5.91 0 M5.91 0 C15.44 0.83, 25.47 -0.6, 45.54 0 M5.91 0 C17.14 -0.03, 27.6 -0.45, 45.54 0 M45.54 0 C50.5 -1.53, 50.49 3.92, 51.46 5.91 M45.54 0 C51.53 -0.66, 53 -0.32, 51.46 5.91 M51.46 5.91 C51.91 9.87, 50.76 12.17, 51.46 17.74 M51.46 5.91 C51.21 10.54, 51.54 15.35, 51.46 17.74 M51.46 17.74 C52.45 22.96, 48.86 23.91, 45.54 23.65 M51.46 17.74 C51.38 19.59, 50 23.07, 45.54 23.65 M45.54 23.65 C31.89 25.43, 16 22.81, 5.91 23.65 M45.54 23.65 C31.38 23.17, 16.83 23.19, 5.91 23.65 M5.91 23.65 C0.99 23.51, 0.5 20.76, 0 17.74 M5.91 23.65 C-0.14 22.08, 1.7 19.71, 0 17.74 M0 17.74 C-0.96 13.58, -1.07 9.36, 0 5.91 M0 17.74 C-0.01 13.91, 0.34 10.01, 0 5.91 M0 5.91 C-1.9 2.36, 3.56 -0.62, 5.91 0 M0 5.91 C2.12 0.31, -0.32 -1.18, 5.91 0" stroke="#000000" stroke-width="2" fill="none"></path></g><g transform="translate(130.77717264619469 41.507808719620925) rotate(0 8.5 10)"><text x="8.5" y="14" font-family="Virgil, Segoe UI Emoji" font-size="16px" fill="#000000" text-anchor="middle" style="white-space: pre;" direction="ltr">10</text></g><g stroke-linecap="round" transform="translate(113.1108714327861 80.26112900932867) rotate(0 52.70029727996257 25.52022583955238)"><path d="M12.76 0 M12.76 0 C27.17 0.52, 44.25 -1.05, 92.64 0 M12.76 0 C38.01 1.09, 61.81 1.25, 92.64 0 M92.64 0 C102.59 0.19, 106.71 5.37, 105.4 12.76 M92.64 0 C101.25 -1.66, 105.33 2.62, 105.4 12.76 M105.4 12.76 C103.88 19.31, 105.41 21.41, 105.4 38.28 M105.4 12.76 C105.5 20.26, 105.94 26.75, 105.4 38.28 M105.4 38.28 C103.68 45.64, 103.14 49.74, 92.64 51.04 M105.4 38.28 C103.96 44.88, 99.3 50.06, 92.64 51.04 M92.64 51.04 C68.78 52.49, 47.4 53.36, 12.76 51.04 M92.64 51.04 C64.12 52.09, 32.97 51.23, 12.76 51.04 M12.76 51.04 C3.5 51.23, -0.9 45.92, 0 38.28 M12.76 51.04 C5.05 50.56, -0.51 47.04, 0 38.28 M0 38.28 C0.29 33.84, -1 26.87, 0 12.76 M0 38.28 C-0.34 29.67, -0.41 21.71, 0 12.76 M0 12.76 C-1.48 2.42, 5.25 1.2, 12.76 0 M0 12.76 C-1.76 4.12, 2.14 0.24, 12.76 0" stroke="#000000" stroke-width="2" fill="none"></path></g><g stroke-linecap="round"><g transform="translate(165.81115446612466 79.84616760911422) rotate(0 -0.6273772665888373 26.805558964493684)"><path d="M0.47 -0.79 C0.32 8.21, -0.57 44, -0.48 52.81 M-0.75 1.41 C-1.12 10.73, -1.93 45.8, -1.67 54.4" stroke="#000000" stroke-width="2" fill="none"></path></g></g><g stroke-linecap="round"><g transform="translate(219.34138879313878 105.78134772556905) rotate(0 -52.06668278198231 -0.16227811846408713)"><path d="M-0.48 0.11 C-18.09 0.13, -87.69 -0.76, -105.2 -0.64 M1.48 -0.88 C-16.24 -0.64, -87.71 0.6, -105.61 0.56" stroke="#000000" stroke-width="2" fill="none"></path></g></g><g transform="translate(119.9984378199265 84.05016815477438) rotate(0 20.5 10)"><text x="20.5" y="14" font-family="Virgil, Segoe UI Emoji" font-size="16px" fill="#000000" text-anchor="middle" style="white-space: pre;" direction="ltr">data</text></g><g transform="translate(173.43513134069735 84.05016815477438) rotate(0 18 10)"><text x="18" y="14" font-family="Virgil, Segoe UI Emoji" font-size="16px" fill="#000000" text-anchor="middle" style="white-space: pre;" direction="ltr">next</text></g><g stroke-linecap="round" transform="translate(166.22613011296244 106.19632337240682) rotate(0 25.72770653965972 11.826442645981956)"><path d="M1.57 1.37 C1.57 1.37, 1.57 1.37, 1.57 1.37 M1.57 1.37 C1.57 1.37, 1.57 1.37, 1.57 1.37 M4.99 9.64 C6.76 6.87, 8.43 5.9, 10.24 3.6 M4.99 9.64 C7.08 7.28, 8.49 4.97, 10.24 3.6 M3.81 23.19 C9.09 13.85, 16.72 7.45, 20.87 3.56 M3.81 23.19 C8.01 19.58, 12.23 15.22, 20.87 3.56 M13.78 23.91 C19.71 17.5, 22.25 13.16, 31.5 3.53 M13.78 23.91 C19.7 17.47, 24.61 11.49, 31.5 3.53 M24.41 23.87 C28.41 20.65, 30.78 14.95, 41.47 4.25 M24.41 23.87 C29.37 17.1, 34.62 10.98, 41.47 4.25 M35.04 23.84 C40.29 17.78, 42.82 13.04, 52.1 4.21 M35.04 23.84 C40.5 17.48, 44.95 10.72, 52.1 4.21 M45.67 23.8 C47.26 22.51, 49.17 20.02, 52.23 16.26 M45.67 23.8 C47.54 21.78, 49.03 19.44, 52.23 16.26" stroke="#ced4da" stroke-width="1" fill="none"></path><path d="M5.91 0 M5.91 0 C21.77 1.97, 33.15 1.54, 45.54 0 M5.91 0 C13.15 0.2, 22.69 -0.78, 45.54 0 M45.54 0 C50.3 1.8, 52.5 2.62, 51.46 5.91 M45.54 0 C48.28 0.08, 51.54 2.81, 51.46 5.91 M51.46 5.91 C51.68 10.01, 50.46 14.45, 51.46 17.74 M51.46 5.91 C52.08 9.67, 51.98 12.76, 51.46 17.74 M51.46 17.74 C50.26 22.84, 48.45 23.44, 45.54 23.65 M51.46 17.74 C51.53 20.67, 48.71 22.69, 45.54 23.65 M45.54 23.65 C34.67 21.92, 24.27 25.23, 5.91 23.65 M45.54 23.65 C36.18 23.27, 28.54 23.17, 5.91 23.65 M5.91 23.65 C1.75 24.3, 0.54 22.53, 0 17.74 M5.91 23.65 C2.05 24.04, 1.45 22.18, 0 17.74 M0 17.74 C-0.39 16.41, -0.88 11.72, 0 5.91 M0 17.74 C-0.02 14.64, -0.18 11.67, 0 5.91 M0 5.91 C-1.95 2.07, 0.25 0.48, 5.91 0 M0 5.91 C-0.4 1.03, 2.85 0.93, 5.91 0" stroke="#000000" stroke-width="2" fill="none"></path></g><g transform="translate(127.02134784247073 110.48766655481313) rotate(0 12 10)"><text x="12" y="14" font-family="Virgil, Segoe UI Emoji" font-size="16px" fill="#000000" text-anchor="middle" style="white-space: pre;" direction="ltr">30</text></g><g stroke-linecap="round" transform="translate(249.2152028526416 11.281271174136464) rotate(0 52.70029727996257 25.52022583955238)"><path d="M12.76 0 M12.76 0 C43.59 -0.43, 70.76 -0.59, 92.64 0 M12.76 0 C31.44 -1.31, 50.04 -0.55, 92.64 0 M92.64 0 C99.42 -0.39, 106.36 5.58, 105.4 12.76 M92.64 0 C101.09 0.8, 106.37 3.5, 105.4 12.76 M105.4 12.76 C103.96 16.97, 103.6 22.08, 105.4 38.28 M105.4 12.76 C105.9 19.06, 105.9 26.6, 105.4 38.28 M105.4 38.28 C107.31 48.17, 99.97 51.53, 92.64 51.04 M105.4 38.28 C107.68 48.75, 99.63 51.02, 92.64 51.04 M92.64 51.04 C70.82 51.37, 50.3 50.24, 12.76 51.04 M92.64 51.04 C68.06 51.96, 43.46 51.31, 12.76 51.04 M12.76 51.04 C3.8 51.28, -1.08 46.76, 0 38.28 M12.76 51.04 C3.16 49.56, -1.26 45.31, 0 38.28 M0 38.28 C1.44 30.97, 0.12 24.9, 0 12.76 M0 38.28 C0.15 30.1, -0.7 21.51, 0 12.76 M0 12.76 C-1.31 6.09, 5.19 0.23, 12.76 0 M0 12.76 C1.16 5.38, 3.77 -0.42, 12.76 0" stroke="#000000" stroke-width="2" fill="none"></path></g><g stroke-linecap="round"><g transform="translate(301.91548588598016 10.866309773922012) rotate(0 -0.7435745534128273 26.03708366561216)"><path d="M0.05 -0.87 C-0.08 7.66, 0.16 42.8, -0.04 51.85 M-1.38 1.29 C-1.75 9.9, -1.42 44.58, -1.01 52.94" stroke="#000000" stroke-width="2" fill="none"></path></g></g><g stroke-linecap="round"><g transform="translate(355.4457202129943 36.80148989037684) rotate(0 -53.714924476933675 0.14270590460864696)"><path d="M-0.04 -0.85 C-17.95 -0.59, -89.77 0.74, -107.39 0.72 M-1.52 1.32 C-19.08 1.31, -87.82 -0.78, -105.29 -1.03" stroke="#000000" stroke-width="2" fill="none"></path></g></g><g transform="translate(256.102769239782 15.070310319582177) rotate(0 20.5 10)"><text x="20.5" y="14" font-family="Virgil, Segoe UI Emoji" font-size="16px" fill="#000000" text-anchor="middle" style="white-space: pre;" direction="ltr">data</text></g><g transform="translate(309.53946276055285 15.070310319582177) rotate(0 18 10)"><text x="18" y="14" font-family="Virgil, Segoe UI Emoji" font-size="16px" fill="#000000" text-anchor="middle" style="white-space: pre;" direction="ltr">next</text></g><g stroke-linecap="round" transform="translate(302.33046153281794 37.21646553721462) rotate(0 25.72770653965972 11.826442645981956)"><path d="M1.57 1.37 C1.57 1.37, 1.57 1.37, 1.57 1.37 M1.57 1.37 C1.57 1.37, 1.57 1.37, 1.57 1.37 M4.99 9.64 C6.46 6.61, 8.88 4.78, 10.24 3.6 M4.99 9.64 C6.33 8.59, 7.67 7.25, 10.24 3.6 M3.81 23.19 C9.58 16.97, 11.96 12.81, 20.87 3.56 M3.81 23.19 C9.52 16.98, 14.23 11.23, 20.87 3.56 M13.78 23.91 C17.92 20.52, 20.43 14.66, 31.5 3.53 M13.78 23.91 C18.94 16.9, 24.4 10.54, 31.5 3.53 M24.41 23.87 C29.65 17.82, 32.19 13.07, 41.47 4.25 M24.41 23.87 C29.87 17.52, 34.32 10.75, 41.47 4.25 M35.04 23.84 C39.1 20.17, 43.84 14.14, 52.1 4.21 M35.04 23.84 C39.87 18.47, 43.97 12.52, 52.1 4.21 M45.67 23.8 C49.01 22.08, 50.05 19.21, 52.23 16.26 M45.67 23.8 C46.68 22.44, 48.79 20.44, 52.23 16.26" stroke="#ced4da" stroke-width="1" fill="none"></path><path d="M5.91 0 M5.91 0 C20.07 -1.25, 33 -0.13, 45.54 0 M5.91 0 C18.94 -0.12, 32.55 -1.16, 45.54 0 M45.54 0 C49.93 -0.51, 53.21 0.53, 51.46 5.91 M45.54 0 C51.51 1.96, 53.1 3.32, 51.46 5.91 M51.46 5.91 C51.4 8.79, 51.01 11.19, 51.46 17.74 M51.46 5.91 C51.55 8.7, 50.86 11.62, 51.46 17.74 M51.46 17.74 C52.94 19.96, 50.46 25.36, 45.54 23.65 M51.46 17.74 C49.44 20.01, 49.42 21.77, 45.54 23.65 M45.54 23.65 C34.93 23.83, 22.97 25.02, 5.91 23.65 M45.54 23.65 C33.59 23.42, 20.98 23.01, 5.91 23.65 M5.91 23.65 C-0.02 22.62, 0.3 21.3, 0 17.74 M5.91 23.65 C1.97 23.02, -0.63 20.92, 0 17.74 M0 17.74 C0.28 15.13, -0.49 13.4, 0 5.91 M0 17.74 C-0.11 14.04, 0.04 9.89, 0 5.91 M0 5.91 C1.65 3.06, 1.51 -1.36, 5.91 0 M0 5.91 C1.18 1.48, -0.16 -2.19, 5.91 0" stroke="#000000" stroke-width="2" fill="none"></path></g><g transform="translate(263.12567926232623 41.507808719620925) rotate(0 12 10)"><text x="12" y="14" font-family="Virgil, Segoe UI Emoji" font-size="16px" fill="#000000" text-anchor="middle" style="white-space: pre;" direction="ltr">20</text></g><g stroke-linecap="round" transform="translate(248.95937804891764 80.26112900932867) rotate(0 52.70029727996257 25.52022583955238)"><path d="M12.76 0 M12.76 0 C31.14 -0.43, 47.58 0.46, 92.64 0 M12.76 0 C35.12 -0.19, 54.86 -0.37, 92.64 0 M92.64 0 C99.54 -0.85, 105.24 2.69, 105.4 12.76 M92.64 0 C102.34 -0.63, 106.59 5.86, 105.4 12.76 M105.4 12.76 C106.07 24.83, 107.29 31.62, 105.4 38.28 M105.4 12.76 C104.85 19.96, 105.65 27.82, 105.4 38.28 M105.4 38.28 C104.96 47.01, 99.44 52.71, 92.64 51.04 M105.4 38.28 C106.03 47.36, 102.34 50.13, 92.64 51.04 M92.64 51.04 C70.45 49.65, 47.03 49.51, 12.76 51.04 M92.64 51.04 C74.32 50.91, 54.24 50.25, 12.76 51.04 M12.76 51.04 C2.42 51.25, 0.36 46.91, 0 38.28 M12.76 51.04 C4.71 50.46, -1.51 44.66, 0 38.28 M0 38.28 C0 33.31, 0.75 25.9, 0 12.76 M0 38.28 C0.01 31.4, -0.69 23.78, 0 12.76 M0 12.76 C1.02 2.72, 3.29 1.95, 12.76 0 M0 12.76 C2.05 3.59, 5.8 -2.3, 12.76 0" stroke="#000000" stroke-width="2" fill="none"></path></g><g stroke-linecap="round"><g transform="translate(301.6596610822562 79.84616760911422) rotate(0 -0.4979269978332468 26.61585472642446)"><path d="M-0.03 0.42 C-0.04 9, 0.67 43.71, 0.5 52.31 M-1.5 -0.41 C-1.68 8.28, -0.65 44.75, -0.18 53.64" stroke="#000000" stroke-width="2" fill="none"></path></g></g><g stroke-linecap="round"><g transform="translate(355.1898954092703 105.78134772556905) rotate(0 -53.37908043701668 -0.5787520354476783)"><path d="M0.5 -0.39 C-17.37 -0.57, -89.67 -0.62, -107.26 -0.69 M-0.69 -1.64 C-18.2 -1.72, -87.68 0.19, -105.09 0.49" stroke="#000000" stroke-width="2" fill="none"></path></g></g><g transform="translate(255.84694443605804 84.05016815477438) rotate(0 20.5 10)"><text x="20.5" y="14" font-family="Virgil, Segoe UI Emoji" font-size="16px" fill="#000000" text-anchor="middle" style="white-space: pre;" direction="ltr">data</text></g><g transform="translate(309.2836379568289 84.05016815477438) rotate(0 18 10)"><text x="18" y="14" font-family="Virgil, Segoe UI Emoji" font-size="16px" fill="#000000" text-anchor="middle" style="white-space: pre;" direction="ltr">next</text></g><g stroke-linecap="round" transform="translate(302.074636729094 106.19632337240682) rotate(0 25.72770653965972 11.826442645981956)"><path d="M1.57 1.37 C1.57 1.37, 1.57 1.37, 1.57 1.37 M1.57 1.37 C1.57 1.37, 1.57 1.37, 1.57 1.37 M4.99 9.64 C6.92 7.6, 7.49 6.37, 10.24 3.6 M4.99 9.64 C6.78 7.71, 8.17 5.97, 10.24 3.6 M3.81 23.19 C7.81 19.97, 10.18 14.26, 20.87 3.56 M3.81 23.19 C8.76 16.42, 14.02 10.3, 20.87 3.56 M13.78 23.91 C19.18 17.68, 21.87 12.76, 31.5 3.53 M13.78 23.91 C19.45 17.32, 24.09 10.32, 31.5 3.53 M24.41 23.87 C28.47 20.2, 33.21 14.17, 41.47 4.25 M24.41 23.87 C29.24 18.51, 33.34 12.55, 41.47 4.25 M35.04 23.84 C43.13 18.81, 46.59 11.49, 52.1 4.21 M35.04 23.84 C37.87 20.19, 42.89 15.29, 52.1 4.21 M45.67 23.8 C48.17 20.67, 50.11 18.66, 52.23 16.26 M45.67 23.8 C47.69 21.29, 50.03 18.23, 52.23 16.26" stroke="#ced4da" stroke-width="1" fill="none"></path><path d="M5.91 0 M5.91 0 C17.25 1.41, 33.16 1.09, 45.54 0 M5.91 0 C19.61 -0.34, 34.38 -0.67, 45.54 0 M45.54 0 C48.81 -0.83, 50.48 1.83, 51.46 5.91 M45.54 0 C50.06 -1.06, 49.35 0.4, 51.46 5.91 M51.46 5.91 C52.37 9.3, 50.5 14.73, 51.46 17.74 M51.46 5.91 C51.6 8.74, 51.46 11.17, 51.46 17.74 M51.46 17.74 C52.72 22.11, 47.58 24.04, 45.54 23.65 M51.46 17.74 C53.29 20.97, 51.61 21.99, 45.54 23.65 M45.54 23.65 C37.22 23.72, 29.1 23.16, 5.91 23.65 M45.54 23.65 C34.1 23.91, 24.2 23.26, 5.91 23.65 M5.91 23.65 C2.73 24.46, 1.27 23.63, 0 17.74 M5.91 23.65 C1.85 24.91, 0.46 22.47, 0 17.74 M0 17.74 C-0.87 13.82, -0.31 7.6, 0 5.91 M0 17.74 C0.1 15.41, 0.34 12.33, 0 5.91 M0 5.91 C0.75 3.5, 3.64 -1.41, 5.91 0 M0 5.91 C0.81 3.18, 3.51 -1.53, 5.91 0" stroke="#000000" stroke-width="2" fill="none"></path></g><g transform="translate(263.3698544586023 110.48766655481313) rotate(0 11.5 10)"><text x="11.5" y="14" font-family="Virgil, Segoe UI Emoji" font-size="16px" fill="#000000" text-anchor="middle" style="white-space: pre;" direction="ltr">40</text></g><g stroke-linecap="round"><g transform="translate(198.30232438411622 50.710474249189474) rotate(0 22.56511301437331 0.20662311518913157)"><path d="M-0.1 -0.94 C7.85 -0.91, 38.93 -0.62, 46.74 -0.33 M-1.61 1.18 C6.32 1.44, 38.13 1.41, 46.12 1.04" stroke="#000000" stroke-width="1" fill="none"></path></g><g transform="translate(198.30232438411622 50.710474249189474) rotate(0 22.56511301437331 0.20662311518913157)"><path d="M23.05 10.39 C28.83 8.58, 35.5 7.62, 47.5 -0.14 M23.95 9.34 C31.13 6.56, 38.04 3.34, 46.46 0.83" stroke="#000000" stroke-width="1" fill="none"></path></g><g transform="translate(198.30232438411622 50.710474249189474) rotate(0 22.56511301437331 0.20662311518913157)"><path d="M22.74 -5.37 C28.52 -3.73, 35.26 -1.21, 47.5 -0.14 M23.64 -6.42 C31.08 -4.09, 38.08 -2.19, 46.46 0.83" stroke="#000000" stroke-width="1" fill="none"></path></g></g><g stroke-linecap="round"><g transform="translate(198.30232438411622 118.40131087922055) rotate(0 23.11302332797959 -0.3521306549431529)"><path d="M0.62 -0.33 C8.43 -0.03, 38.96 0.65, 46.73 0.84 M-0.51 -1.54 C7.2 -1.5, 38.18 -0.92, 46.11 -0.84" stroke="#000000" stroke-width="1" fill="none"></path></g><g transform="translate(198.30232438411622 118.40131087922055) rotate(0 23.11302332797959 -0.3521306549431529)"><path d="M23.79 7.76 C32.15 6.31, 38.49 1.01, 46.6 1.14 M23.96 6.82 C32.32 3.38, 41.52 0.69, 45.89 -0.73" stroke="#000000" stroke-width="1" fill="none"></path></g><g transform="translate(198.30232438411622 118.40131087922055) rotate(0 23.11302332797959 -0.3521306549431529)"><path d="M24.02 -8.01 C32.19 -4.86, 38.47 -5.55, 46.6 1.14 M24.19 -8.95 C32.36 -6.31, 41.47 -2.93, 45.89 -0.73" stroke="#000000" stroke-width="1" fill="none"></path></g></g><g transform="translate(10 41.507808719620925) rotate(0 6.5 10)"><text x="6.5" y="14" font-family="Virgil, Segoe UI Emoji" font-size="16px" fill="#000000" text-anchor="middle" style="white-space: pre;" direction="ltr">a</text></g><g transform="translate(10 110.48766655481313) rotate(0 5 10)"><text x="5" y="14" font-family="Virgil, Segoe UI Emoji" font-size="16px" fill="#000000" text-anchor="middle" style="white-space: pre;" direction="ltr">b</text></g><g stroke-linecap="round"><g transform="translate(27.441316062795977 50.2436408931203) rotate(0 34.73403944558777 0.09820422998495815)"><path d="M-0.71 0.29 C10.8 0.33, 58.69 1.08, 70.18 1.03 M1.12 -0.6 C12.47 -0.95, 58.26 -0.87, 69.85 -0.56" stroke="#000000" stroke-width="1" fill="none"></path></g><g transform="translate(27.441316062795977 50.2436408931203) rotate(0 34.73403944558777 0.09820422998495815)"><path d="M42.03 11.34 C54.38 4.28, 63.84 0.93, 70.04 -1.46 M41.32 9.47 C47.93 7.71, 56.33 4.57, 70.37 -0.95" stroke="#000000" stroke-width="1" fill="none"></path></g><g transform="translate(27.441316062795977 50.2436408931203) rotate(0 34.73403944558777 0.09820422998495815)"><path d="M42.28 -9.18 C54.67 -8.12, 64.04 -3.36, 70.04 -1.46 M41.57 -11.05 C48.18 -7.54, 56.52 -5.4, 70.37 -0.95" stroke="#000000" stroke-width="1" fill="none"></path></g></g><g stroke-linecap="round"><g transform="translate(27.441316062795977 119.33497759135912) rotate(0 35.422356442663386 0.7553306892094724)"><path d="M1.19 1.03 C12.67 0.97, 56.97 0.14, 68.19 -0.01 M0.35 0.52 C12.28 0.65, 59.29 1.36, 70.49 1.52" stroke="#000000" stroke-width="1" fill="none"></path></g><g transform="translate(27.441316062795977 119.33497759135912) rotate(0 35.422356442663386 0.7553306892094724)"><path d="M43.86 10.04 C48.94 7.96, 55.97 5.44, 69.63 2.21 M41.3 12.2 C50.36 8.83, 58.52 5.44, 70.26 1.64" stroke="#000000" stroke-width="1" fill="none"></path></g><g transform="translate(27.441316062795977 119.33497759135912) rotate(0 35.422356442663386 0.7553306892094724)"><path d="M44.16 -10.48 C49.22 -7.61, 56.18 -5.19, 69.63 2.21 M41.6 -8.32 C50.54 -5.95, 58.61 -3.62, 70.26 1.64" stroke="#000000" stroke-width="1" fill="none"></path></g></g><g stroke-linecap="round"><g transform="translate(198.80594569824598 50.339379417487635) rotate(0 27.1165440283894 34.39026801015973)"><path d="M0.74 0.16 C9.93 11.43, 45.81 56.91, 54.57 68.21 M-0.33 -0.81 C8.85 10.59, 45.41 57.96, 54.2 69.59" stroke="#c92a2a" stroke-width="4" fill="none"></path></g><g transform="translate(198.80594569824598 50.339379417487635) rotate(0 27.1165440283894 34.39026801015973)"><path d="M29.18 55.3 C34.81 57.03, 40.68 60.06, 53.43 71.39 M28.66 53.35 C35.11 56.34, 40.77 60.77, 54.74 69.32" stroke="#c92a2a" stroke-width="4" fill="none"></path></g><g transform="translate(198.80594569824598 50.339379417487635) rotate(0 27.1165440283894 34.39026801015973)"><path d="M45.47 42.82 C47.09 47.78, 48.89 53.93, 53.43 71.39 M44.95 40.88 C47.96 46.43, 50.11 53.54, 54.74 69.32" stroke="#c92a2a" stroke-width="4" fill="none"></path></g></g><g stroke-linecap="round"><g transform="translate(227.7778586535719 48.29016040004558) rotate(0 -3.231862676640503 2.932948341685119)"><path d="M0.76 -0.92 C-0.21 0.11, -5.05 5.58, -6.19 6.79 M-0.3 1.21 C-1.41 1.85, -6.13 3.97, -7.23 5.07" stroke="#c92a2a" stroke-width="2" fill="none"></path></g></g><g stroke-linecap="round"><g transform="translate(228.79780689454083 54.61383949405331) rotate(0 -4.180834997862121 -4.000611305961002)"><path d="M-0.17 0.77 C-1.5 -0.21, -6.25 -5.62, -7.21 -6.82 M-1.72 0.13 C-3.28 -1.15, -7.46 -7.36, -8.19 -8.77" stroke="#c92a2a" stroke-width="2" fill="none"></path></g></g></svg>