<svg version="1.1" xmlns="http://www.w3.org/2000/svg" viewBox="0 0 559.721724052788 220.91992799936634" width="559.721724052788" height="220.91992799936634">
  <!-- svg-source:excalidraw -->
  
  <defs>
    <style class="style-fonts">
      @font-face {
        font-family: "Virgil";
        src: url("https://excalidraw.com/Virgil.woff2");
      }
      @font-face {
        font-family: "Cascadia";
        src: url("https://excalidraw.com/Cascadia.woff2");
      }
    </style>
  </defs>
  <g stroke-linecap="round" transform="translate(20.73812563306683 158.21820818717265) rotate(0 52.70029727996257 25.52022583955238)"><path d="M12.76 0 M12.76 0 C30.1 -0.97, 48.44 -1.08, 92.64 0 M12.76 0 C33.75 0.54, 55.97 0.41, 92.64 0 M92.64 0 C99.41 1.92, 103.91 2.83, 105.4 12.76 M92.64 0 C103.28 1.71, 104.63 6.48, 105.4 12.76 M105.4 12.76 C107.03 24.28, 104.38 31, 105.4 38.28 M105.4 12.76 C105.68 21.89, 105.22 31.98, 105.4 38.28 M105.4 38.28 C104.23 47.59, 101.26 50.96, 92.64 51.04 M105.4 38.28 C105.5 46.56, 100.08 50.37, 92.64 51.04 M92.64 51.04 C72.36 48.98, 48.3 51.91, 12.76 51.04 M92.64 51.04 C62.99 50.59, 32.17 51.61, 12.76 51.04 M12.76 51.04 C4.77 52.24, 0.45 45.98, 0 38.28 M12.76 51.04 C3.22 49.91, 0.11 48.33, 0 38.28 M0 38.28 C1.13 32.39, -0.53 25.4, 0 12.76 M0 38.28 C-0.57 27.38, 0.29 19.11, 0 12.76 M0 12.76 C-0.88 2.89, 2.38 -1.88, 12.76 0 M0 12.76 C-1.94 5.48, 4.96 -0.2, 12.76 0" stroke="#000000" stroke-width="2" fill="none"></path></g><g stroke-linecap="round"><g transform="translate(73.43840866640585 157.8032467869582) rotate(0 -0.37486694628250916 26.221551110032124)"><path d="M-0.12 -0.59 C0.04 8.07, 1.02 43.07, 0.88 51.91 M-1.64 1.72 C-1.55 10.52, -0.11 44.38, 0.39 53.03" stroke="#000000" stroke-width="2" fill="none"></path></g></g><g stroke-linecap="round"><g transform="translate(126.96864299342087 183.73842690341326) rotate(0 -53.08807618446667 -0.2442873976331157)"><path d="M0.27 -1.19 C-17.42 -1.43, -88.1 -1.22, -105.75 -0.84 M-1.04 0.8 C-18.89 0.63, -88.94 0.5, -106.45 0.26" stroke="#000000" stroke-width="2" fill="none"></path></g></g><g transform="translate(27.625692020207225 162.0072473326186) rotate(0 20.5 10)"><text x="20.5" y="14" font-family="Virgil, Segoe UI Emoji" font-size="16px" fill="#000000" text-anchor="middle" style="white-space: pre;" direction="ltr">data</text></g><g transform="translate(81.06238554097945 162.0072473326186) rotate(0 18 10)"><text x="18" y="14" font-family="Virgil, Segoe UI Emoji" font-size="16px" fill="#000000" text-anchor="middle" style="white-space: pre;" direction="ltr">next</text></g><g stroke-linecap="round" transform="translate(73.85338431324362 184.15340255025126) rotate(0 25.72770653965972 11.826442645981956)"><path d="M1.57 1.37 C1.57 1.37, 1.57 1.37, 1.57 1.37 M1.57 1.37 C1.57 1.37, 1.57 1.37, 1.57 1.37 M4.99 9.64 C6.71 7.03, 8.69 4.93, 10.24 3.6 M4.99 9.64 C5.83 8.36, 7.21 6.69, 10.24 3.6 M3.81 23.19 C9.04 16.91, 14.58 11.77, 20.87 3.56 M3.81 23.19 C9.67 15.66, 14.86 10.88, 20.87 3.56 M13.78 23.91 C19.26 20.23, 19.45 13.45, 31.5 3.53 M13.78 23.91 C20.32 17.17, 26.8 8.93, 31.5 3.53 M24.41 23.87 C29.08 16.32, 37.2 8.54, 41.47 4.25 M24.41 23.87 C30.2 15.79, 38.32 8.69, 41.47 4.25 M35.04 23.84 C37.5 19.17, 44.73 13.74, 52.1 4.21 M35.04 23.84 C38.3 18.43, 42.5 13.79, 52.1 4.21 M45.67 23.8 C48.36 21.36, 50.31 19.2, 52.23 16.26 M45.67 23.8 C47.59 22.45, 48.43 20.52, 52.23 16.26" stroke="#ced4da" stroke-width="1" fill="none"></path><path d="M5.91 0 M5.91 0 C18.99 0.05, 31.49 -1.12, 45.54 0 M5.91 0 C19.73 -1.33, 36.42 -0.45, 45.54 0 M45.54 0 C48.8 1.77, 51.45 3.59, 51.46 5.91 M45.54 0 C48.79 -2.14, 52.57 3.32, 51.46 5.91 M51.46 5.91 C52.42 7.2, 51.38 10.42, 51.46 17.74 M51.46 5.91 C51.69 8.92, 51.62 10.81, 51.46 17.74 M51.46 17.74 C50.97 21.3, 48.5 23.13, 45.54 23.65 M51.46 17.74 C51.05 22.49, 49.65 22.31, 45.54 23.65 M45.54 23.65 C36.45 23.4, 24.77 23.66, 5.91 23.65 M45.54 23.65 C32.76 22.84, 20.34 23.08, 5.91 23.65 M5.91 23.65 C3.15 22.05, -1.94 22.43, 0 17.74 M5.91 23.65 C3 25.65, 2.01 22.34, 0 17.74 M0 17.74 C-0.12 13.9, 0.06 12.55, 0 5.91 M0 17.74 C0.41 12.59, 0.28 8.83, 0 5.91 M0 5.91 C0.41 0.32, 0 1.88, 5.91 0 M0 5.91 C-1.29 1.8, 0.04 1.36, 5.91 0" stroke="#000000" stroke-width="2" fill="none"></path></g><g stroke-linecap="round" transform="translate(157.07814081878905 157.10192863979023) rotate(0 52.70029727996257 25.52022583955238)"><path d="M12.76 0 M12.76 0 C33.82 2.05, 55.43 2.37, 92.64 0 M12.76 0 C28.91 -1.08, 46.14 -0.75, 92.64 0 M92.64 0 C102.76 -0.6, 103.54 5.22, 105.4 12.76 M92.64 0 C102.49 -2.21, 107.27 4.3, 105.4 12.76 M105.4 12.76 C104.63 20.76, 106.42 32.7, 105.4 38.28 M105.4 12.76 C104.88 20.87, 105.36 28.97, 105.4 38.28 M105.4 38.28 C104.88 46.43, 101.85 51.18, 92.64 51.04 M105.4 38.28 C104.06 45.87, 101.67 52.72, 92.64 51.04 M92.64 51.04 C63.51 51.1, 35.62 51.86, 12.76 51.04 M92.64 51.04 C73.1 50.88, 54.24 49.32, 12.76 51.04 M12.76 51.04 C5 51.93, 1.74 48.54, 0 38.28 M12.76 51.04 C4.91 49.46, 1.76 48.47, 0 38.28 M0 38.28 C0.71 32.57, -1.56 24.48, 0 12.76 M0 38.28 C0.93 29.51, -0.61 19.35, 0 12.76 M0 12.76 C1.88 3.13, 4.1 -1.68, 12.76 0 M0 12.76 C1.36 3.9, 6.36 0.26, 12.76 0" stroke="#000000" stroke-width="2" fill="none"></path></g><g stroke-linecap="round"><g transform="translate(209.77842385212762 156.68696723957578) rotate(0 0.11749825533297553 27.032161791357225)"><path d="M-0.67 0.88 C-0.85 9.99, -0.94 45.33, -1.02 53.77 M1.17 0.29 C1.36 9.17, 1.17 43.56, 1.16 52.21" stroke="#000000" stroke-width="2" fill="none"></path></g></g><g stroke-linecap="round"><g transform="translate(263.30865817914264 182.6221473560306) rotate(0 -52.33359422303761 -0.11861034800767811)"><path d="M0.88 -1.02 C-16.5 -1.1, -87.11 -1.52, -105.16 -1.16 M-0.12 1.06 C-17.49 1.14, -88.04 0.05, -105.54 -0.23" stroke="#000000" stroke-width="2" fill="none"></path></g></g><g transform="translate(163.96570720592945 160.89096778523594) rotate(0 20.5 10)"><text x="20.5" y="14" font-family="Virgil, Segoe UI Emoji" font-size="16px" fill="#000000" text-anchor="middle" style="white-space: pre;" direction="ltr">data</text></g><g transform="translate(217.40240072670122 160.89096778523594) rotate(0 18 10)"><text x="18" y="14" font-family="Virgil, Segoe UI Emoji" font-size="16px" fill="#000000" text-anchor="middle" style="white-space: pre;" direction="ltr">next</text></g><g stroke-linecap="round" transform="translate(210.1933994989654 183.03712300286884) rotate(0 25.72770653965972 11.826442645981956)"><path d="M1.57 1.37 C1.57 1.37, 1.57 1.37, 1.57 1.37 M1.57 1.37 C1.57 1.37, 1.57 1.37, 1.57 1.37 M4.99 9.64 C6.59 7.65, 6.96 6.96, 10.24 3.6 M4.99 9.64 C6.23 8.5, 7.36 6.64, 10.24 3.6 M3.81 23.19 C8.02 17.51, 13.95 12.6, 20.87 3.56 M3.81 23.19 C8.74 19.01, 11.86 13.58, 20.87 3.56 M13.78 23.91 C19.71 16.72, 21.92 10.31, 31.5 3.53 M13.78 23.91 C16.69 19.82, 22.11 15.72, 31.5 3.53 M24.41 23.87 C32.49 17.85, 37.53 6.92, 41.47 4.25 M24.41 23.87 C28.8 18.27, 35.55 10.62, 41.47 4.25 M35.04 23.84 C38.86 15.38, 48 9.77, 52.1 4.21 M35.04 23.84 C40.04 18.91, 45.3 11.68, 52.1 4.21 M45.67 23.8 C47.67 21.28, 50.44 17.84, 52.23 16.26 M45.67 23.8 C47.69 21.44, 49.84 19.5, 52.23 16.26" stroke="#ced4da" stroke-width="1" fill="none"></path><path d="M5.91 0 M5.91 0 C19.83 0.81, 29.1 -1.03, 45.54 0 M5.91 0 C19.8 -0.84, 34.6 -0.33, 45.54 0 M45.54 0 C50.23 -0.58, 50.72 3.02, 51.46 5.91 M45.54 0 C50.26 1.26, 50.42 3.94, 51.46 5.91 M51.46 5.91 C50.61 10.31, 50.53 14.53, 51.46 17.74 M51.46 5.91 C50.98 8.29, 50.94 11.35, 51.46 17.74 M51.46 17.74 C53.23 21.86, 48.24 23.81, 45.54 23.65 M51.46 17.74 C52.14 22.46, 48.01 23.18, 45.54 23.65 M45.54 23.65 C35.87 22.19, 28.7 24.62, 5.91 23.65 M45.54 23.65 C34.44 23.96, 25.81 24.19, 5.91 23.65 M5.91 23.65 C0.2 24.22, 1.42 20.86, 0 17.74 M5.91 23.65 C1.81 22.55, 0.33 21.31, 0 17.74 M0 17.74 C-0.75 13.45, -0.3 9.48, 0 5.91 M0 17.74 C-0.29 12.95, 0.36 9.01, 0 5.91 M0 5.91 C1.29 0.74, 3.2 -1.5, 5.91 0 M0 5.91 C1.44 2.82, 3.6 0.81, 5.91 0" stroke="#000000" stroke-width="2" fill="none"></path></g><g stroke-linecap="round" transform="translate(295.83481591300097 157.4843159566301) rotate(0 52.70029727996257 25.52022583955238)"><path d="M12.76 0 M12.76 0 C31.36 -0.44, 51.39 -0.65, 92.64 0 M12.76 0 C35.41 0.82, 57.89 0.38, 92.64 0 M92.64 0 C100.87 0.97, 104.74 3.09, 105.4 12.76 M92.64 0 C101.33 -1.88, 103.31 6.35, 105.4 12.76 M105.4 12.76 C104.22 20.75, 105.8 29.78, 105.4 38.28 M105.4 12.76 C105.15 22.19, 105.8 32.25, 105.4 38.28 M105.4 38.28 C106.94 46.26, 101.37 49.3, 92.64 51.04 M105.4 38.28 C103.9 44.75, 99.16 52.56, 92.64 51.04 M92.64 51.04 C75.92 53.57, 60.02 51.47, 12.76 51.04 M92.64 51.04 C70.66 51.55, 47.77 50.23, 12.76 51.04 M12.76 51.04 C4.07 52.67, 0.19 47.55, 0 38.28 M12.76 51.04 C3.52 50.06, 2.28 47.27, 0 38.28 M0 38.28 C-0.33 29.66, 0.18 20.62, 0 12.76 M0 38.28 C0.55 29.37, 0.05 21.32, 0 12.76 M0 12.76 C1.36 4.25, 5.09 1.09, 12.76 0 M0 12.76 C0.66 4.31, 2.57 0.27, 12.76 0" stroke="#000000" stroke-width="2" fill="none"></path></g><g stroke-linecap="round"><g transform="translate(348.53509894633953 157.06935455641565) rotate(0 -0.3012367048740998 25.884094520201984)"><path d="M-0.69 -0.41 C-0.58 8.35, -0.61 43.2, -0.53 52.17 M1.15 -1.66 C1.16 7.28, -1.38 44.58, -1.75 53.43" stroke="#000000" stroke-width="2" fill="none"></path></g></g><g stroke-linecap="round"><g transform="translate(402.06533327335546 183.00453467287048) rotate(0 -53.2008297960042 0.694639617914163)"><path d="M-0.41 -0.53 C-18.14 -0.44, -89.24 -0.12, -106.76 -0.18 M1.58 1.81 C-16.32 2.15, -90.07 1.58, -107.98 1.26" stroke="#000000" stroke-width="2" fill="none"></path></g></g><g transform="translate(302.72238230014136 161.2733551020758) rotate(0 20.5 10)"><text x="20.5" y="14" font-family="Virgil, Segoe UI Emoji" font-size="16px" fill="#000000" text-anchor="middle" style="white-space: pre;" direction="ltr">data</text></g><g transform="translate(356.15907582091404 161.2733551020758) rotate(0 18 10)"><text x="18" y="14" font-family="Virgil, Segoe UI Emoji" font-size="16px" fill="#000000" text-anchor="middle" style="white-space: pre;" direction="ltr">next</text></g><g stroke-linecap="round" transform="translate(348.9500745931773 183.41951031970916) rotate(0 25.72770653965972 11.826442645981956)"><path d="M1.57 1.37 C1.57 1.37, 1.57 1.37, 1.57 1.37 M1.57 1.37 C1.57 1.37, 1.57 1.37, 1.57 1.37 M4.99 9.64 C6.73 7.7, 7.16 6.55, 10.24 3.6 M4.99 9.64 C6.55 7.92, 7.46 6.9, 10.24 3.6 M3.81 23.19 C9.35 18, 12.16 12.04, 20.87 3.56 M3.81 23.19 C8.65 17.83, 11.28 14.97, 20.87 3.56 M13.78 23.91 C18.75 17.19, 22.79 10.44, 31.5 3.53 M13.78 23.91 C19.11 17.02, 26.29 10.38, 31.5 3.53 M24.41 23.87 C32.23 17.73, 36.62 9.98, 41.47 4.25 M24.41 23.87 C31.1 15.9, 38.02 8.83, 41.47 4.25 M35.04 23.84 C40.63 18.01, 47.37 11.13, 52.1 4.21 M35.04 23.84 C40.79 16.35, 46.71 9.67, 52.1 4.21 M45.67 23.8 C46.04 22.97, 48.84 20.31, 52.23 16.26 M45.67 23.8 C47.99 21.1, 50.16 18.96, 52.23 16.26" stroke="#ced4da" stroke-width="1" fill="none"></path><path d="M5.91 0 M5.91 0 C21.84 2.33, 34.5 2.35, 45.54 0 M5.91 0 C15.87 -0.67, 25.53 0.01, 45.54 0 M45.54 0 C50.3 -1.15, 53.42 2.53, 51.46 5.91 M45.54 0 C49.15 0.81, 49.75 2.02, 51.46 5.91 M51.46 5.91 C51.98 10.51, 51.25 13.38, 51.46 17.74 M51.46 5.91 C51.86 9.86, 50.84 12.69, 51.46 17.74 M51.46 17.74 C53.11 20.68, 47.78 22.18, 45.54 23.65 M51.46 17.74 C52.71 20.9, 49.73 23.02, 45.54 23.65 M45.54 23.65 C33.57 22.88, 19.84 24.06, 5.91 23.65 M45.54 23.65 C32.97 25, 19.78 25, 5.91 23.65 M5.91 23.65 C3.72 23.18, 1.98 19.91, 0 17.74 M5.91 23.65 C0.26 25.35, 1.36 20.11, 0 17.74 M0 17.74 C1.18 13.89, -0.87 10.34, 0 5.91 M0 17.74 C-0.34 12.86, 0.39 8.23, 0 5.91 M0 5.91 C-0.78 3.45, 1.32 -0.47, 5.91 0 M0 5.91 C0.53 1.78, -0.21 1.23, 5.91 0" stroke="#000000" stroke-width="2" fill="none"></path></g><g stroke-linecap="round" transform="translate(442.4779896843197 157.0243668429125) rotate(0 52.70029727996257 25.52022583955238)"><path d="M12.76 0 M12.76 0 C28.66 1.93, 46.83 0.32, 92.64 0 M12.76 0 C32.97 0.82, 53.44 -0.15, 92.64 0 M92.64 0 C99.9 1.22, 104.9 4.25, 105.4 12.76 M92.64 0 C103.12 1.35, 107.34 2.75, 105.4 12.76 M105.4 12.76 C103.63 19.66, 107.16 26.74, 105.4 38.28 M105.4 12.76 C105.29 21.1, 105.94 30.12, 105.4 38.28 M105.4 38.28 C106.03 45.79, 99.39 49.55, 92.64 51.04 M105.4 38.28 C104.06 44.83, 99.28 50.62, 92.64 51.04 M92.64 51.04 C62.77 49.92, 30.11 52.17, 12.76 51.04 M92.64 51.04 C64.31 50.59, 33.45 51.56, 12.76 51.04 M12.76 51.04 C3.73 50.6, -0.63 47.62, 0 38.28 M12.76 51.04 C2.32 49.57, 2.27 46.57, 0 38.28 M0 38.28 C1.42 31.5, 0.84 27.34, 0 12.76 M0 38.28 C0.75 29.67, 0.84 19.52, 0 12.76 M0 12.76 C1.84 2.74, 3.88 -0.62, 12.76 0 M0 12.76 C1.27 6.18, 3.8 -0.87, 12.76 0" stroke="#000000" stroke-width="2" fill="none"></path></g><g stroke-linecap="round"><g transform="translate(495.1782727176583 156.60940544269806) rotate(0 0.42238025078813735 27.405037274351457)"><path d="M-0.98 1.01 C-1.16 9.86, -0.67 44.29, -0.6 52.75 M0.7 0.5 C0.88 9.59, 2.18 45.62, 1.79 54.31" stroke="#000000" stroke-width="2" fill="none"></path></g></g><g stroke-linecap="round"><g transform="translate(548.7085070446742 182.5445855591529) rotate(0 -53.0462871418149 0.5754292986649716)"><path d="M1.01 -0.6 C-16.62 -0.53, -88.16 -0.55, -106.18 -0.55 M0.09 1.7 C-17.67 2.01, -89.64 0.92, -107.11 0.69" stroke="#000000" stroke-width="2" fill="none"></path></g></g><g transform="translate(449.3655560714601 160.81340598835823) rotate(0 20.5 10)"><text x="20.5" y="14" font-family="Virgil, Segoe UI Emoji" font-size="16px" fill="#000000" text-anchor="middle" style="white-space: pre;" direction="ltr">data</text></g><g transform="translate(502.8022495922328 160.81340598835823) rotate(0 18 10)"><text x="18" y="14" font-family="Virgil, Segoe UI Emoji" font-size="16px" fill="#000000" text-anchor="middle" style="white-space: pre;" direction="ltr">next</text></g><g stroke-linecap="round" transform="translate(495.59324836449605 182.95956120599158) rotate(0 25.72770653965972 11.826442645981956)"><path d="M1.57 1.37 C1.57 1.37, 1.57 1.37, 1.57 1.37 M1.57 1.37 C1.57 1.37, 1.57 1.37, 1.57 1.37 M4.99 9.64 C6.32 7.67, 9.23 4.61, 10.24 3.6 M4.99 9.64 C6.87 7.51, 8.28 5.42, 10.24 3.6 M3.81 23.19 C9.08 16.69, 11.43 10.73, 20.87 3.56 M3.81 23.19 C7.91 19.53, 12.07 14.58, 20.87 3.56 M13.78 23.91 C21.26 17.36, 29 9.23, 31.5 3.53 M13.78 23.91 C20.78 16.13, 27.1 8.39, 31.5 3.53 M24.41 23.87 C32.37 17.09, 35.28 11.17, 41.47 4.25 M24.41 23.87 C29.28 19.64, 33.95 13, 41.47 4.25 M35.04 23.84 C40.21 18.4, 44.41 13.43, 52.1 4.21 M35.04 23.84 C40.74 18.02, 44.33 13.47, 52.1 4.21 M45.67 23.8 C47.58 21.49, 51.81 17.6, 52.23 16.26 M45.67 23.8 C47.55 21.61, 49.77 18.64, 52.23 16.26" stroke="#ced4da" stroke-width="1" fill="none"></path><path d="M5.91 0 M5.91 0 C12.65 1.41, 21.47 -0.98, 45.54 0 M5.91 0 C16.26 -0.15, 24.38 0.59, 45.54 0 M45.54 0 C50.38 0.93, 50.59 1.77, 51.46 5.91 M45.54 0 C48.33 -0.52, 50.57 1.62, 51.46 5.91 M51.46 5.91 C51.75 9.03, 51.24 10.52, 51.46 17.74 M51.46 5.91 C51.19 9.63, 51.97 12.91, 51.46 17.74 M51.46 17.74 C51.59 23.06, 50.74 24.9, 45.54 23.65 M51.46 17.74 C52.4 20.82, 48.24 22.04, 45.54 23.65 M45.54 23.65 C32.15 21.38, 16.55 22.95, 5.91 23.65 M45.54 23.65 C31.75 23.85, 18.06 23.9, 5.91 23.65 M5.91 23.65 C3.42 22.16, 0.8 19.73, 0 17.74 M5.91 23.65 C1.84 23.12, -2.22 21.55, 0 17.74 M0 17.74 C-1.08 15.02, 0.67 12.92, 0 5.91 M0 17.74 C0.39 13.08, -0.44 9.74, 0 5.91 M0 5.91 C-0.13 2.6, 1.6 0.69, 5.91 0 M0 5.91 C-1.34 0.92, -0.15 0.47, 5.91 0" stroke="#000000" stroke-width="2" fill="none"></path></g><g stroke-linecap="round" transform="translate(21.074061074963083 30.90126389367788) rotate(0 75.83448438331448 15.768590194642684)"><path d="M7.88 0 M7.88 0 C45.71 0.84, 85.42 0.44, 143.78 0 M7.88 0 C36.81 -0.4, 64.65 0.06, 143.78 0 M143.78 0 C150.01 0.2, 152.54 2.11, 151.67 7.88 M143.78 0 C150.68 1.13, 152.73 3.35, 151.67 7.88 M151.67 7.88 C153.12 14.56, 152.41 17.7, 151.67 23.65 M151.67 7.88 C152.16 13.77, 151.03 19.42, 151.67 23.65 M151.67 23.65 C150.48 28.15, 149.68 30.72, 143.78 31.54 M151.67 23.65 C150.09 30.32, 147.61 32.27, 143.78 31.54 M143.78 31.54 C100.88 31.51, 60.13 31.1, 7.88 31.54 M143.78 31.54 C98.55 31.08, 52.83 30.44, 7.88 31.54 M7.88 31.54 C1.94 29.9, -1.52 26.92, 0 23.65 M7.88 31.54 C2.5 29.35, -0.92 27.97, 0 23.65 M0 23.65 C-1.3 18.81, -0.62 16.89, 0 7.88 M0 23.65 C0.66 19.38, 0.71 16.74, 0 7.88 M0 7.88 C-0.98 1.79, 3.77 -1.63, 7.88 0 M0 7.88 C0.17 3.55, 1.89 -1.94, 7.88 0" stroke="#000000" stroke-width="2" fill="none"></path></g><g transform="translate(31.25413963868459 10) rotate(0 17 10)"><text x="17" y="14" font-family="Virgil, Segoe UI Emoji" font-size="16px" fill="#000000" text-anchor="middle" style="white-space: pre;" direction="ltr">main</text></g><g transform="translate(42.91897167499428 39.25488556479422) rotate(0 21 10)"><text x="21" y="14" font-family="Virgil, Segoe UI Emoji" font-size="16px" fill="#000000" text-anchor="middle" style="white-space: pre;" direction="ltr">front</text></g><g stroke-linecap="round"><g transform="translate(496.90817731687684 207.80628784221585) rotate(0 25.333659039310078 -11.298982998144197)"><path d="M-1.05 0.28 C7.56 -3.68, 43.08 -19.21, 51.71 -22.88 M0.6 -0.62 C9.13 -4.45, 43 -17.55, 51.23 -21.37" stroke="#000000" stroke-width="2" fill="none"></path></g></g><g stroke-linecap="round"><g transform="translate(93.11513343384786 29.858834005950712) rotate(0 -0.4101811444700161 15.876315769405778)"><path d="M0.14 0.84 C0.19 6.08, 0.36 26.42, 0.43 31.51 M-1.24 0.24 C-1.33 5.09, -0.52 24.1, -0.3 29.52" stroke="#000000" stroke-width="2" fill="none"></path></g></g><g transform="translate(98.78836268838313 38.87545895527546) rotate(0 31.5 10)"><text x="31.5" y="14" font-family="Virgil, Segoe UI Emoji" font-size="16px" fill="#000000" text-anchor="middle" style="white-space: pre;" direction="ltr">0x6b84</text></g><g stroke-linecap="round"><g transform="translate(53.93518011645574 62.36175432542677) rotate(0 -1.1192735656873083 47.60754270446773)"><path d="M-0.88 -0.82 C-1.23 15.1, -2.99 78.62, -3.1 94.61 M0.86 1.37 C0.97 17.55, -0.44 80.17, -0.93 96.03" stroke="#000000" stroke-width="2" fill="none"></path></g><g transform="translate(53.93518011645574 62.36175432542677) rotate(0 -1.1192735656873083 47.60754270446773)"><path d="M-11.83 65.87 C-8.99 74.57, -6.14 80.33, 1.02 96.69 M-9.7 66.76 C-7 77.5, -3.9 88.3, -1.42 95.26" stroke="#000000" stroke-width="2" fill="none"></path></g><g transform="translate(53.93518011645574 62.36175432542677) rotate(0 -1.1192735656873083 47.60754270446773)"><path d="M8.68 66.4 C7.13 74.83, 5.59 80.48, 1.02 96.69 M10.82 67.29 C6.39 77.86, 2.38 88.48, -1.42 95.26" stroke="#000000" stroke-width="2" fill="none"></path></g></g><g transform="translate(10 147.05728702696888) rotate(0 18 6)"><text x="18" y="8" font-family="Virgil, Segoe UI Emoji" font-size="9.0444275842182px" fill="#000000" text-anchor="middle" style="white-space: pre;" direction="ltr">0x6b84</text></g><g transform="translate(35.503228549948744 187.32846618527492) rotate(0 12 10)"><text x="12" y="14" font-family="Virgil, Segoe UI Emoji" font-size="16px" fill="#000000" text-anchor="middle" style="white-space: pre;" direction="ltr">42</text></g><g transform="translate(172.9886172284737 187.32846618527492) rotate(0 10 10)"><text x="10" y="14" font-family="Virgil, Segoe UI Emoji" font-size="16px" fill="#000000" text-anchor="middle" style="white-space: pre;" direction="ltr">-3</text></g><g transform="translate(307.03187972827345 187.32846618527492) rotate(0 7.5 10)"><text x="7.5" y="14" font-family="Virgil, Segoe UI Emoji" font-size="16px" fill="#000000" text-anchor="middle" style="white-space: pre;" direction="ltr">17</text></g><g transform="translate(455.6362445992968 187.32846618527492) rotate(0 6 10)"><text x="6" y="14" font-family="Virgil, Segoe UI Emoji" font-size="16px" fill="#000000" text-anchor="middle" style="white-space: pre;" direction="ltr">9</text></g><g stroke-linecap="round"><g transform="translate(99.58110509952576 197.7953137879672) rotate(0 30.373967601733284 -0.2363995342633416)"><path d="M-0.46 0.38 C9.43 0.22, 48.96 -0.95, 58.85 -0.85 M1.51 -0.47 C11.83 -0.53, 51.81 0.22, 61.2 0.14" stroke="#000000" stroke-width="2" fill="none"></path></g><g transform="translate(99.58110509952576 197.7953137879672) rotate(0 30.373967601733284 -0.2363995342633416)"><path d="M33.79 8.97 C38.69 6.62, 49.06 6.74, 59.21 0.23 M32.92 10.57 C39.44 7.19, 45.31 5.73, 60.97 -0.17" stroke="#000000" stroke-width="2" fill="none"></path></g><g transform="translate(99.58110509952576 197.7953137879672) rotate(0 30.373967601733284 -0.2363995342633416)"><path d="M33.93 -11.4 C38.82 -8.44, 49.15 -3.02, 59.21 0.23 M33.06 -9.79 C39.58 -8.63, 45.42 -5.53, 60.97 -0.17" stroke="#000000" stroke-width="2" fill="none"></path></g></g><g stroke-linecap="round"><g transform="translate(242.24673947176507 196.57932705154485) rotate(0 27.119758588085688 0.17517611534765365)"><path d="M1.01 0.16 C10.04 0.04, 45.27 -0.19, 54.16 0.03 M0.08 -0.8 C9.02 -0.86, 44.64 1.1, 53.65 1.15" stroke="#000000" stroke-width="2" fill="none"></path></g><g transform="translate(242.24673947176507 196.57932705154485) rotate(0 27.119758588085688 0.17517611534765365)"><path d="M28.58 10.84 C34.51 8.48, 44.57 2.61, 53.91 3.09 M28.44 9.46 C34.85 7.83, 39.52 6.23, 52.74 1.06" stroke="#000000" stroke-width="2" fill="none"></path></g><g transform="translate(242.24673947176507 196.57932705154485) rotate(0 27.119758588085688 0.17517611534765365)"><path d="M29.18 -7.39 C35.06 -4.29, 44.93 -4.71, 53.91 3.09 M29.05 -8.77 C35.35 -6.32, 39.88 -3.83, 52.74 1.06" stroke="#000000" stroke-width="2" fill="none"></path></g></g><g stroke-linecap="round"><g transform="translate(387.83270596560305 196.89393029065354) rotate(0 27.09568949845493 -0.09597377586476341)"><path d="M-0.31 -0.17 C8.63 -0.21, 45.33 -0.21, 54.5 -0.35 M1.73 -1.3 C10.51 -1.14, 45.21 0.91, 54 1.11" stroke="#000000" stroke-width="2" fill="none"></path></g><g transform="translate(387.83270596560305 196.89393029065354) rotate(0 27.09568949845493 -0.09597377586476341)"><path d="M28.16 10.64 C37.71 8.02, 46.12 3.23, 53.13 -0.19 M28.08 10.13 C38.15 6.26, 49.03 2.33, 54.37 1.85" stroke="#000000" stroke-width="2" fill="none"></path></g><g transform="translate(387.83270596560305 196.89393029065354) rotate(0 27.09568949845493 -0.09597377586476341)"><path d="M28.94 -7.69 C38.18 -3.5, 46.3 -1.47, 53.13 -0.19 M28.86 -8.2 C38.78 -4.93, 49.35 -1.73, 54.37 1.85" stroke="#000000" stroke-width="2" fill="none"></path></g></g></svg>