<svg version="1.1" xmlns="http://www.w3.org/2000/svg" viewBox="0 0 843.7210937738419 460" width="843.7210937738419" height="460">
  <!-- svg-source:excalidraw -->
  
  <defs>
    <style>
      @font-face {
        font-family: "Virgil";
        src: url("https://excalidraw.com/Virgil.woff2");
      }
      @font-face {
        font-family: "Cascadia";
        src: url("https://excalidraw.com/Cascadia.woff2");
      }
    </style>
  </defs>
  <rect x="0" y="0" width="843.7210937738419" height="460" fill="#ffffff"></rect><g stroke-linecap="round" transform="translate(130 90) rotate(0 160 80)"><path d="M-1.39 0.91 C101.37 0.55, 201.12 2.21, 320.08 -1.12 M0.27 0.4 C108.28 1.21, 217.41 1.2, 319.53 0.59 M319.46 1.73 C321.69 45.79, 320.13 88.63, 321.74 159.47 M320.43 -0.62 C319.24 36.51, 319.59 71.78, 319.15 160.25 M320.95 160.01 C252.85 158.37, 188.49 158.97, -0.79 161.15 M319.58 159.95 C236.03 159.48, 151.07 159.89, -0.66 159.84 M0.29 160.97 C0.59 112.07, 0.49 62.33, -0.74 -0.74 M-0.76 160.11 C-1.49 115.07, -1.06 71.12, 0.71 -0.23" stroke="#000000" stroke-width="1" fill="none"></path></g><g stroke-linecap="round" transform="translate(130 290) rotate(0 160 80)"><path d="M-0.32 0.16 C96.16 1.11, 190.91 2.78, 321.06 1.3 M-0.26 -0.14 C118.98 0.45, 236.73 0.91, 319.52 -0.1 M319.55 -1.42 C322.82 42.19, 320.12 88.16, 320.84 160.53 M320.85 0.4 C321.4 59.9, 322.25 120.28, 320.29 159.55 M320.83 160.84 C245.37 162.06, 171.4 161.65, 0.51 160.54 M320.19 159.93 C230.61 160.65, 139.7 159.93, 0.6 159.89 M-0.17 158.54 C2.47 113.47, 0.59 65.34, -1.86 -1.85 M0.39 159.99 C1.53 114.12, 2.29 66.67, 0.98 0.1" stroke="#000000" stroke-width="1" fill="none"></path></g><g stroke-linecap="round" transform="translate(130 90) rotate(0 20 20)"><path d="M0 0 C0 0, 0 0, 0 0 M0 0 C0 0, 0 0, 0 0 M0.52 5.77 C0.89 5.69, 2.59 3.42, 4.99 -0.42 M-0.57 6.78 C1.24 4.04, 3.12 2.28, 5.38 0.37 M-0.82 13.34 C1.9 6.81, 6.79 2.91, 10.68 -0.38 M0.45 12.08 C3.3 9.15, 5.07 6.19, 9.93 0.03 M0.89 18.82 C4.4 14.59, 7.87 8.69, 14.4 -1.67 M-0.03 18.45 C5.46 11.86, 11.17 7.04, 15.13 0.79 M-0.92 25.39 C3.68 18.5, 8.08 13.1, 19.62 -1.75 M1.18 24.57 C7.64 15.21, 15.89 5.69, 21.26 -0.11 M-0.13 29.85 C8.55 19.87, 14.47 12.37, 24.83 -0.05 M-0.8 30.48 C6.05 23.35, 11.62 18.37, 25.31 0.56 M0.16 37.67 C13.02 23.23, 27.47 8.09, 31.84 -1.8 M0.19 36.35 C8.25 28.17, 13.86 20.44, 31.23 -0.55 M1.9 42.86 C14.02 29.19, 22.69 17.05, 35.66 -1.22 M2.26 40.81 C10.53 30.48, 20.25 17.77, 37.85 0.28 M5.18 41.22 C19.13 25.04, 31.64 12.5, 39.56 0.79 M6.9 40.81 C20.96 25.02, 33.7 10.84, 40.35 0.88 M12.13 40.91 C18.41 32.83, 28.01 23.95, 41.64 8.84 M11.16 40.92 C23.92 26.98, 35.53 14.75, 41.04 8 M15.28 43.3 C24.98 32.57, 29.9 23.98, 39.74 12.62 M16.33 40.86 C23.83 34.31, 28.26 27.84, 40.63 13.58 M21.96 40.38 C28.97 34.75, 33.86 31.17, 41.42 20.29 M22.7 41.57 C29.16 32.11, 37.48 24.33, 40.55 18.86 M28.24 39.59 C32.7 36.87, 36.69 31.46, 41.7 26.38 M27.71 40.8 C30.94 37.28, 36.21 31.53, 40.94 24.94 M34.5 40.82 C35.84 39.09, 37.74 35.68, 40.61 32.49 M32.96 40.74 C35.32 38.31, 37.04 36.4, 41.79 32.31 M38.53 41.18 C39.49 40.17, 40.92 39.2, 41.43 37.87 M38.5 41.21 C39.09 40.13, 40 39.23, 41.41 37.27" stroke="#ced4da" stroke-width="0.5" fill="none"></path><path d="M1.01 -1.09 C8.99 0.3, 19.66 -0.21, 39.49 1.35 M0.87 -0.85 C14.35 0.47, 30.08 0.55, 40.73 0.88 M39.98 0.36 C42.02 11.24, 40.93 18.19, 38.68 39.51 M40.14 0.33 C40.99 14.89, 40.6 30.08, 39.81 40.22 M41.73 40.99 C26.58 38.91, 16.65 39.64, -0.14 38.74 M40.73 40.2 C26.83 39.29, 13.14 38.78, -0.11 39.06 M0.06 40.78 C1.43 25.5, 1.81 14.4, 0.22 -0.06 M0.1 39.57 C-0.1 26.27, 0.65 12.47, 0.97 -0.96" stroke="#000000" stroke-width="1" fill="none"></path></g><g stroke-linecap="round" transform="translate(130 210) rotate(0 20 20)"><path d="M0 0 C0 0, 0 0, 0 0 M0 0 C0 0, 0 0, 0 0 M-0.26 5.62 C2.07 4.53, 4.28 1.36, 5.74 -0.33 M0.13 6.41 C1.22 4.91, 2.36 3, 5.31 -0.02 M0.19 11.69 C1.31 9.93, 5.4 7.7, 10.71 1.4 M-0.57 12.11 C3.31 8.24, 6.62 5.18, 10.78 -0.14 M-1.35 16.45 C6.66 10.87, 13.58 4.67, 15.64 0.97 M-0.61 18.9 C2.93 14.7, 8.52 8.52, 16.27 -0.16 M-1.37 22.4 C7.9 15.06, 14.79 11.7, 22.24 -1.1 M0.26 24.04 C6.68 15.74, 14.17 8.92, 20.95 0.37 M-1.41 30.14 C3.6 23.7, 12.48 16.65, 26.25 1.3 M-0.93 30.75 C6.93 22.42, 12.67 16.4, 26.64 0.38 M-0.31 35.19 C9.69 23.09, 21.81 10.85, 30.83 1.89 M-0.92 36.43 C9.04 25.65, 17.4 16.71, 32.82 0.33 M0.23 39.54 C13.92 26.96, 26.58 13.27, 36.48 -0.74 M2.43 41.04 C15.28 26.29, 27.04 11.35, 36.8 -0.18 M4.79 40.79 C17.33 30.2, 26.26 21.72, 40.09 3.22 M5.58 40.88 C14.57 31.21, 23.44 21.46, 41.18 0.59 M12.12 42.81 C24.09 27.42, 34.24 15.53, 41.49 6.96 M11.51 41.97 C19.81 32.82, 27.81 22.21, 42.59 7.39 M15.47 40.54 C23.28 31.54, 30.52 23.59, 40.39 14.6 M16.36 41.5 C23.45 34.65, 30.05 25.97, 41.06 14.23 M23.05 41.42 C29.02 35, 32.59 29.64, 42.34 18.63 M22.18 39.99 C26.32 35.26, 31.54 31.7, 40.22 20.45 M27.93 42.23 C31.23 34.95, 34.21 32.3, 40.47 23.79 M27.16 40.79 C32.57 35.42, 36.19 31.57, 41.4 25.35 M32.74 41.54 C35.65 36.57, 39.78 33.05, 40.87 32.05 M33.91 41.37 C35.3 38.89, 36.86 37.22, 41.11 31.92 M38.15 41.64 C39.17 39.88, 40.57 39.06, 41.5 37.33 M38.13 41.05 C39.25 40.43, 39.96 39.45, 41.4 37.45" stroke="#ced4da" stroke-width="0.5" fill="none"></path><path d="M-0.51 1.35 C13.86 -0.39, 23.46 1.8, 38.29 -0.96 M0.73 0.88 C12.12 0.74, 25.87 -0.11, 40.18 0.84 M38.68 -0.49 C41.54 16.58, 41.32 31.07, 40.66 41.51 M39.81 0.22 C40.28 12.44, 40.04 25.18, 40.5 39.56 M39.86 38.74 C30.57 39.77, 18.72 41.4, 0.39 39.58 M39.89 39.06 C29.88 40.02, 19.3 39.66, 0.39 40.79 M0.22 39.94 C0.73 31.66, -1.77 22.62, -0.85 -0.02 M0.97 39.04 C0.08 25.77, -1.24 11.1, 0.83 -0.45" stroke="#000000" stroke-width="1" fill="none"></path></g><g stroke-linecap="round" transform="translate(410 90) rotate(0 20 20)"><path d="M0 0 C0 0, 0 0, 0 0 M0 0 C0 0, 0 0, 0 0 M-0.2 6.41 C1.15 4.79, 3.31 2.97, 4.88 1.02 M-0.66 6.52 C0.76 5.39, 2.08 3.75, 5.12 0.18 M0.88 10.76 C5.62 8.75, 7.1 3.93, 9.85 -0.12 M-0.54 12.56 C1.9 10.02, 5.92 6.72, 10.22 0.08 M-0.2 18.08 C3.11 14.27, 9.52 6.67, 16.5 -1.59 M-0.3 17.51 C3.84 14.49, 7.65 8.77, 16.12 -0.33 M0.8 26.04 C6.08 16.64, 15.81 7.5, 21.44 1.18 M-0.58 23.4 C8.28 14.17, 17.1 4.6, 22.26 -0.34 M-0.89 30.87 C3.58 23.75, 11.51 19.59, 27.12 1.41 M-0.73 30.23 C5.67 24.02, 11.63 17.65, 25.75 0.89 M-0.2 38.6 C7.3 27.14, 14.72 18.13, 31.02 -1.04 M-0.55 37.75 C5.81 30.27, 13.41 20.97, 32.82 -0.64 M0.48 40.34 C12.34 28.25, 23.84 15.19, 35.31 1.16 M2.37 41.94 C11.32 29.34, 22.16 15.81, 36.85 -0.14 M8.42 41.47 C18.33 30.32, 25.18 19.6, 41.97 1.21 M6.04 40.82 C13.09 32.61, 20.63 24.05, 41.8 1.05 M12.41 40.21 C19.86 33.5, 23.66 26.42, 43.23 6.3 M12.32 41.8 C23.13 28.01, 34.62 15.37, 41.01 6.28 M15.17 40.52 C24.27 32.39, 35.76 19.02, 42.62 13.18 M17.53 41.19 C25.68 29.91, 35.99 19.3, 40.51 13.82 M21.69 41.46 C28.14 31.99, 37.7 26.07, 40.88 21.6 M23.24 40.26 C26.27 36.28, 30.58 30.83, 41.24 19 M29.23 42.06 C31.66 36.66, 36.82 31.35, 41.69 26.17 M28.45 40.85 C32.5 35.56, 38.54 29.3, 41.15 24.76 M32.28 41.7 C35.83 38.85, 37.65 34.59, 40.99 32.83 M33.9 40.88 C34.54 39.12, 37.18 37.45, 40.86 31.62 M38 40.84 C39.75 39.61, 40.15 39.11, 41.7 37.06 M38.27 41.43 C39.2 39.98, 40.27 38.95, 41.85 37.42" stroke="#ced4da" stroke-width="0.5" fill="none"></path><path d="M0.44 0.27 C14.02 -0.13, 28.67 1.07, 39.11 -1.05 M-0.63 0.24 C15.36 -0.7, 31.63 0.22, 39.79 -0.41 M38.13 0.45 C40.41 8.26, 39.7 17.32, 41.59 38.39 M39.97 0.56 C40.26 15.24, 40.14 31.44, 39.99 40.53 M38.09 40.75 C24.79 38.5, 8.68 42.04, -0.89 41.03 M39.94 40.62 C24.61 38.87, 8.97 40.1, -0.4 40.29 M1.8 38.2 C-1.2 24.08, 2.32 8.23, 0.01 1.35 M-0.98 40.56 C0.63 25.92, -0.55 10.95, -0.86 -0.41" stroke="#000000" stroke-width="1" fill="none"></path></g><g stroke-linecap="round" transform="translate(410 210) rotate(0 20 20)"><path d="M0 0 C0 0, 0 0, 0 0 M0 0 C0 0, 0 0, 0 0 M-0.11 6.29 C1.85 4.07, 3.14 2.52, 4.19 0.61 M-0.26 6.53 C0.94 5.07, 2.84 2.9, 5.17 0.04 M1.18 11.26 C4.13 6.34, 8.25 1.18, 9.28 1 M0.53 11.63 C2.27 9.54, 3.85 7.01, 10.6 -0.18 M-0.75 19.32 C1.22 13.96, 5.61 9.25, 15.27 -1.53 M-0.13 18.94 C3.21 14.43, 8.63 8.08, 15.88 1.3 M1.05 24.26 C5.91 20.66, 10.02 13.54, 19.57 -1.43 M-0.26 25.08 C6.13 16.19, 13.02 9.46, 20.81 0.12 M1.86 31.35 C6.62 22.42, 12.92 16.71, 24.77 -0.21 M-0.2 29.98 C9.61 19.46, 17.05 10.68, 26.28 1.15 M-0.4 36 C7.34 25.54, 18.7 15.92, 31.31 1.64 M-0.82 37.8 C7.36 27.15, 17.16 16.31, 31.4 -0.44 M1.38 39.45 C12.77 29.2, 23.35 17.09, 38.71 2.11 M1.39 40.98 C8.35 32.51, 17.11 23.13, 37.87 0.31 M8.41 42.13 C19.64 24.42, 33.07 9, 40.42 0.26 M5.96 41.96 C13.82 32.08, 21.69 23.64, 41.38 0.99 M11.51 42.6 C22.72 29.85, 35.93 15.53, 42.08 8.65 M12.71 40.39 C19.79 31.92, 28.58 20.9, 40.65 6.61 M15.36 42.62 C21.59 37.28, 25.24 30.13, 42.27 13.11 M16.56 40.51 C22.65 36.1, 26.4 29.32, 40.83 13.67 M22.56 40.74 C29.09 34.37, 32.75 29.59, 42.14 18.45 M22.42 41.11 C26.19 36.06, 30.85 32.04, 41.84 20.19 M27.36 41.52 C32.37 38.14, 37.58 31.41, 42.98 24.55 M27.48 40.98 C30.87 36.72, 34.99 31.5, 40.59 26.11 M32.36 40.69 C36.71 37.09, 38.57 35.71, 42.33 31.8 M33.76 40.56 C34.86 38.81, 36.91 37.11, 40.82 31.34 M38.48 41.36 C39.2 39.79, 41.36 37.95, 41.5 37.82 M38.2 41.51 C39.19 40.18, 39.98 39.16, 41.69 37.67" stroke="#ced4da" stroke-width="0.5" fill="none"></path><path d="M0.99 -0.89 C12.06 1.38, 25.91 -0.48, 38.74 0.48 M0.2 -0.21 C11.24 -1.22, 22.39 -0.4, 39.06 0.22 M40.78 1.59 C38.39 15.52, 40.19 27.33, 39.94 41.13 M39.57 -0.01 C40.25 13.63, 40.7 26.75, 39.04 40.37 M41.66 39.11 C29.53 41.54, 15.56 38.59, -0.13 41.23 M40.33 39.6 C27.29 40.88, 13.13 40.63, 0.9 39.1 M-1.57 40.01 C1.51 32.6, -0.98 22.22, -1.95 1.13 M0.94 39.14 C-0.78 25.56, 0.2 13.76, 0.03 0.17" stroke="#000000" stroke-width="1" fill="none"></path></g><g stroke-linecap="round" transform="translate(130 290) rotate(0 30 30)"><path d="M0 0 C0 0, 0 0, 0 0 M0 0 C0 0, 0 0, 0 0 M-1.06 6.65 C0.65 5.69, 2.12 3.75, 5.24 -0.01 M-0.08 6.08 C2.09 4.44, 3.46 2.08, 4.79 0.34 M-1.21 13.08 C1.13 10.82, 6.66 7.11, 9.8 0.2 M0.1 11.9 C2.75 8.89, 6.6 4.36, 10.98 -0.8 M-0.47 16.58 C3.48 15.32, 6.85 8.77, 16.63 -0.99 M0.14 19.42 C4.65 12.57, 11.42 5.81, 15.71 0.95 M-1.43 22.72 C8.15 13.72, 17.55 4.07, 23.26 -0.61 M-0.18 24.28 C3.68 18.83, 9.33 14.81, 21.7 0.49 M-1.47 29.98 C6.08 23.8, 12.44 17.45, 25.25 1.49 M0.03 31.34 C6.4 22.62, 12.63 15.22, 25.81 -0.18 M-0.84 38.62 C5.46 31.21, 13.88 20.41, 33.74 -1.19 M-0.74 36.54 C9.68 25.31, 20.04 13.47, 31.11 0.35 M1.97 44.37 C9.57 31.29, 20.73 16.33, 36.82 -0.54 M1.13 42.57 C11.72 30.44, 20.94 18.42, 37.26 0.18 M-0.92 47.81 C7.38 37.81, 16.72 27.31, 43.71 -0.77 M0.04 48.53 C9.58 38.67, 17.31 28.43, 43.33 -0.5 M0.75 56.2 C17.9 33.88, 36.33 13.84, 46.33 -1.24 M-0.68 54.15 C17.08 35.29, 35.85 13.61, 48.15 0.1 M1.59 59.9 C19.45 35.61, 41.57 12.65, 51.49 0.65 M0.16 60.46 C18.98 38.49, 38.95 18.05, 53.05 0.72 M6.71 59.2 C16.38 47.08, 28.69 31.92, 58.46 -1.43 M6.42 60.95 C21.52 42.12, 37.74 23.78, 58.24 0.54 M12.8 59.26 C29.22 38.9, 49.86 16.53, 61.16 0.67 M10.41 60.83 C26.69 43.73, 41.3 25.12, 61.63 2.88 M18.14 60.45 C24.4 49.7, 37.38 39.3, 61.04 6.92 M15.63 59.68 C31.04 43.26, 43.76 28.54, 62.4 6.83 M21.5 61.44 C32.8 45.31, 45.41 32.36, 63.87 13.48 M22.26 60.85 C33.68 46.44, 46.26 34.57, 62.5 13.97 M27.76 60.38 C36.07 51.38, 44.55 42.37, 60.74 18.6 M27.57 60.97 C39.63 45.14, 55.19 28.57, 62.3 20.55 M32 59.98 C40.16 48.18, 51.95 38.58, 61.56 27.23 M32.65 59.29 C39.86 51.71, 46.31 42.8, 62.84 26.48 M37.21 60.69 C40.92 56.1, 48.13 49.75, 62.59 32.93 M36.77 61.23 C44.9 51.36, 53.51 42.36, 61.97 33.42 M42.3 61.76 C48.88 52.84, 53.63 47.47, 63.32 39.18 M44.18 59.73 C50.35 51.98, 57.82 43.97, 61.96 38.55 M47.84 62.4 C54.93 52.93, 59.84 50.41, 63.35 44.83 M48.41 60.74 C52.72 54.46, 57.4 50.37, 61.09 44.23 M51.95 60.01 C56.33 57.42, 60.89 52.22, 62.05 50 M52.67 61.2 C56.36 57.13, 59.52 53.41, 61.97 50.18 M59.27 60.75 C59.88 58.75, 61.29 57.64, 62.43 56.66 M58.68 60.19 C59.71 58.96, 61.23 57.79, 62.32 56.69" stroke="#ced4da" stroke-width="0.5" fill="none"></path><path d="M-1.26 0.48 C23 -1.42, 47.81 0.43, 59.58 -0.83 M-0.94 0.22 C12.8 0.06, 24.86 0.45, 60.79 -0.8 M59.94 1.13 C60.5 22.52, 60.26 46.95, 59.98 61.05 M59.04 0.37 C60.46 21.5, 59.89 45.72, 59.55 60.52 M59.87 61.23 C37.03 57.85, 13.59 60.32, -0.81 60.57 M60.9 59.1 C36.58 59.9, 15.69 59.53, 0 60.67 M-1.95 61.13 C1.15 39.34, -1.22 16.89, -1.72 -0.82 M0.03 60.17 C-0.07 46.57, -0.94 34.7, -0.95 -0.9" stroke="#000000" stroke-width="1" fill="none"></path></g><g stroke-linecap="round" transform="translate(130 390) rotate(0 30 30)"><path d="M0 0 C0 0, 0 0, 0 0 M0 0 C0 0, 0 0, 0 0 M-0.01 6.03 C2.36 4.7, 3.29 2.23, 4.35 1.15 M-0.46 6.38 C1.52 4.04, 3.42 1.45, 5.25 -0.02 M-0.69 12.28 C4.34 6.26, 8.41 2.27, 10.34 -1.4 M0.49 11.28 C3.79 7.25, 7.34 3, 9.89 -0.33 M0.88 17.12 C7.32 12.72, 10.21 5.1, 17.57 -1.35 M-0.04 19.06 C6.39 12.31, 11.06 4.58, 14.94 0.2 M2.26 23.54 C3.8 19.2, 9.56 10.95, 21.65 -1.93 M0.7 24.64 C5.16 18.18, 11.26 9.73, 21.01 0.34 M-0.99 31.68 C5.99 20.35, 16.28 13.83, 27.97 -0.43 M-0.43 30.01 C6.81 22.84, 14.38 12.94, 27.12 -0.06 M1.59 35.79 C12.62 24.02, 23.18 6.96, 31.22 -0.23 M-1.04 37.33 C9.41 26.4, 18.93 15.74, 32.82 -0.94 M0.08 41.72 C14.86 27.43, 28.08 11.51, 36.97 2.03 M0.52 42.44 C12.01 27.83, 24.42 13.34, 36.32 -0.58 M1.06 48.28 C9.18 36.83, 20.33 24.7, 41.75 1.49 M0.69 48.56 C12.45 36.38, 23.31 22.73, 43.34 -0.26 M-0.91 53.1 C16.71 36.12, 29.22 17.84, 46.69 -1.7 M0.91 54.44 C18.19 34.39, 34.68 15.81, 47.36 -0.72 M-0.99 61.02 C14.03 44.6, 24.3 31.03, 53.67 -1.36 M0.57 61.1 C10.87 47.59, 22.47 34.44, 52.47 -0.81 M5.98 58.95 C22.86 40.38, 41.64 23.49, 58.9 -0.05 M5.76 60.92 C22.48 42.84, 37.74 23.82, 57.68 0.01 M10.64 58.78 C26.63 41.21, 40.91 22.19, 63.13 2.23 M11.11 60.99 C28.23 40.68, 47.02 21.01, 61.77 1.32 M15.11 59.75 C30.93 42.99, 47.15 24.28, 60.5 9.44 M16.47 59.66 C25.65 50.67, 34.16 38.88, 62.86 7.47 M23.85 59.52 C30.36 48.71, 39.28 40.85, 63.38 13.85 M22.48 60 C31.09 47.16, 41.38 36.8, 61.89 14.19 M25.31 59.35 C40.38 47.29, 50.36 34.57, 63.28 17.94 M26.88 61.31 C39.02 47.27, 50.72 32.25, 62.28 18.83 M32.04 61.19 C38.9 53.16, 49.37 42.84, 60.46 27.04 M33.32 60.44 C40.96 50.25, 51.87 38.96, 62.19 25.33 M38.32 60.85 C47.78 51.4, 55.45 37.01, 63.36 31.19 M37.69 61.34 C45.95 50.71, 53.95 41.14, 62.66 32.33 M44.29 61.06 C50.24 53.6, 52.58 49.28, 61.54 38.49 M42.93 60.43 C49.16 53.34, 54.22 47.64, 63.2 38.91 M49.57 60.68 C52.01 57.98, 55.24 53.57, 62.58 44.52 M47.31 60.08 C52.42 55.92, 55.51 51.59, 61.4 44.3 M52.86 60.56 C57.11 57.77, 58.89 52.42, 63.16 50.19 M52.79 60.75 C56.39 56.9, 58.41 54.92, 62.85 50.06 M59.15 60.43 C59.75 59.19, 60.75 58.39, 61.69 56.17 M59.04 60.46 C59.58 59.23, 60.66 58.3, 62.21 56.77" stroke="#ced4da" stroke-width="0.5" fill="none"></path><path d="M-0.42 -0.83 C11.75 -1.96, 27 -1.99, 60.45 0.78 M0.79 -0.8 C18.93 -0.14, 36 -0.26, 60.56 0.22 M59.98 1.05 C61.54 15.81, 61.99 25.81, 60.75 59.75 M59.55 0.52 C60.49 11.62, 59.02 24.62, 60.62 60.25 M59.19 60.57 C48.97 58.45, 35.89 62, -1.8 58.45 M60 60.67 C45.22 58.96, 28.95 58.55, 0.56 60.4 M-1.72 59.18 C-1.18 37.64, 2.44 13.06, 0.34 0.55 M-0.95 59.1 C0.38 43.31, 0.39 28.28, -0.64 0.2" stroke="#000000" stroke-width="1" fill="none"></path></g><g stroke-linecap="round" transform="translate(390 290) rotate(0 30 30)"><path d="M0 0 C0 0, 0 0, 0 0 M0 0 C0 0, 0 0, 0 0 M0.52 7.03 C0.56 5.44, 1.96 3.36, 4.51 0.29 M-0.64 6.8 C1.3 5.24, 1.87 3.79, 5.02 0.14 M-1.23 13.16 C3.17 7.94, 7.14 3.29, 10.15 -0.75 M-0.16 12.7 C1.92 9.37, 5.37 6.07, 11.14 0.45 M-1.8 19.59 C3.5 15.33, 6.51 12.05, 17.47 1.13 M-0.26 18 C5.16 12.63, 10.39 7.5, 14.76 0.92 M-1.6 23.64 C5.73 20.25, 11.06 13.88, 19.5 1.92 M0.67 23.86 C6.27 18.16, 9.98 13.19, 20.73 -0.97 M-0.72 30.2 C9.18 18.1, 19.99 5.31, 24.47 2.24 M-0.35 31.42 C6.27 23.12, 12.44 16.57, 26.44 1.05 M-0.38 36.84 C6.88 28.98, 12.16 22.01, 32.06 0.97 M-1.09 37.78 C8.19 25.36, 18.78 13.86, 31.88 0.59 M1.91 43.25 C6.87 34.19, 18.36 21.77, 35.16 0.02 M-0.7 42.04 C7.65 32.95, 17.06 23.81, 35.97 0.3 M1.5 48.33 C8.8 37.29, 20.94 25.91, 44.23 1.09 M-0.25 49.09 C13.27 33.64, 26.23 16.71, 43.23 -0.58 M-1.66 55.85 C12.99 39.63, 25.39 27.69, 49.21 -1.32 M-0.67 53.92 C14.75 37.2, 28.62 21.19, 48.01 -0.61 M-0.52 58.57 C15.84 45.03, 26.66 32.08, 51.84 0.85 M0.03 60.41 C12.82 45.18, 26.75 29.57, 53.14 -0.65 M5.42 60.79 C26.75 36.14, 46.92 13.32, 59.6 2.15 M5.47 60.69 C19.81 44.59, 32.68 28.11, 58.12 -0.27 M11.47 61.14 C22.34 45.28, 33.91 35.62, 60.07 2.75 M10.56 60.45 C28.32 41.68, 43.57 21.38, 61.84 2.1 M18.02 58.56 C32.56 42.44, 50.2 21, 62.08 9.55 M16.06 59.72 C26.63 48.16, 37.44 36.82, 62.09 6.92 M21.67 59.22 C35.45 48.12, 46.52 32.39, 60.8 12.27 M22.02 60.45 C31.98 49.16, 41.35 36.09, 62.82 14.37 M25.11 61.39 C39.12 47.44, 47.85 37.47, 62.88 21.14 M26 60.05 C36.98 49.56, 46.36 38.52, 61.77 20.66 M33.46 60.32 C43.46 46.04, 57 34.61, 60.33 27.24 M31.74 60.99 C44.2 47.66, 55.77 34.07, 62.5 27.13 M36.19 61.14 C43.17 55.01, 50.35 47.89, 62.2 32.13 M37.33 60.35 C44.27 52.34, 53.18 43.54, 62.5 32.53 M43.49 59.68 C48.21 55.25, 50.47 51.65, 63.75 36.96 M43.92 59.34 C50.46 53.23, 57.21 44.72, 62.61 38.83 M48.11 59.39 C52.83 56.46, 55.91 48.75, 63.59 43.65 M47.9 60.93 C53.59 54.65, 57.71 49.29, 62.51 45.05 M53.13 60.9 C55.31 58.25, 57.13 55.32, 63.11 48.97 M53 60.33 C55.43 58.05, 57.94 55.73, 62.61 49.76 M58.35 60.14 C60.45 58.93, 61.83 57.65, 62.05 56.17 M58.95 60.24 C60.25 59.11, 61.37 57.49, 62.28 56.38" stroke="#ced4da" stroke-width="0.5" fill="none"></path><path d="M0.78 -0.02 C17.41 0.64, 36.29 -1.74, 61.97 0.19 M0.22 -0.69 C18.76 -0.76, 37.31 0.19, 60.74 0.97 M59.75 -1.89 C58.04 25.46, 58.53 48.63, 61.82 58.56 M60.25 -0.9 C60.22 14.93, 59.56 29.47, 60.77 59.13 M58.45 59.18 C40.81 57.89, 17.7 60.81, 1.5 58.86 M60.4 60.92 C41.19 61.28, 23.09 59.93, -0.82 60.57 M0.55 59.25 C-1.21 37.73, -1.93 10.4, 0.04 -1.88 M0.2 60.54 C0.53 41.85, 1.03 23.62, 0.01 -0.13" stroke="#000000" stroke-width="1" fill="none"></path></g><g stroke-linecap="round" transform="translate(390 390) rotate(0 30 30)"><path d="M0 0 C0 0, 0 0, 0 0 M0 0 C0 0, 0 0, 0 0 M0.37 5.92 C2.13 3.87, 3.38 1.68, 4.91 -0.3 M0.14 6.77 C1.03 4.94, 2.02 3.87, 4.76 0.36 M1.25 11.93 C2.76 9.26, 4.84 4.49, 9.91 -1.17 M0.8 11.4 C3.22 9.07, 5.66 5.76, 11.12 -0.78 M1.02 18.86 C5.63 12.83, 11.23 8.58, 16.43 0.28 M-0.57 18.89 C2.85 15.56, 6.51 9.8, 16.21 -0.34 M-0.18 24.53 C7.43 18.99, 12.05 10.19, 23.25 -1.29 M0.04 24.89 C4.88 18.04, 10.43 12.54, 20.36 0.91 M-0.28 29.23 C7.55 20.56, 14.7 10.51, 28.2 -1.36 M0.94 30.94 C6.29 23.32, 13.42 14.41, 27.01 -0.56 M-0.29 36.93 C7.88 26.04, 16.93 18.48, 32.97 -0.07 M0.65 35.96 C11.93 22.64, 24.17 8.18, 32.58 -0.67 M0.86 40.73 C16.74 26.1, 29.27 6.76, 36.64 -1.34 M-0.34 41.78 C9.46 32.42, 19.19 19.91, 36.92 -0.45 M-0.71 48.17 C13.01 34.66, 26.36 19.21, 43.75 0.21 M0.05 48.9 C13.92 32.49, 26.37 17.9, 42.08 -0.67 M1.56 55.11 C8.46 45.16, 19.62 34.44, 45.97 0.45 M-0.38 54.58 C16.2 35.36, 33.47 17.89, 46.68 -0.31 M-0.97 62.13 C13.43 45.28, 28.45 29.13, 54.17 -1.17 M0.87 59.56 C19.32 39.39, 37.33 17.9, 52.67 0.78 M5.88 61.37 C24.84 38.11, 45.65 16.64, 60.1 -0.51 M5.78 61.27 C25.41 37.67, 44.63 15.32, 57.68 -0.59 M12.27 59.46 C19.98 47.45, 33.95 33.76, 62.5 2.67 M11.57 61.04 C31.87 37.12, 50.64 14.89, 61.86 2.67 M14.31 59.87 C28.11 48.12, 36.52 35.23, 64.05 6.07 M15.47 60.73 C28.22 46.87, 41.24 31.05, 61.43 7.65 M21.01 62 C36.82 45.93, 48.05 28.3, 60.12 13.2 M22.24 60.17 C36.39 43.55, 48.76 29.47, 62.22 14.1 M27.8 62.33 C39.04 45.83, 54.27 31.53, 63.74 19.27 M26.47 60.65 C36.9 49.46, 46.78 38.04, 63.26 20.63 M32.78 59.56 C40.87 50.97, 51.79 37.19, 63.18 27.85 M33.45 60.31 C41.57 51.11, 49.43 41.53, 63.07 25.67 M38.23 59.73 C44.55 54.7, 49.92 48.55, 61.41 32.7 M37.43 59.59 C44.21 53.92, 50.23 46.91, 61.81 31.64 M42.8 61.31 C50.58 50.78, 59.2 44.08, 61 39.16 M42.46 60.66 C49.35 54.43, 53.87 47.92, 62.86 38.63 M47.14 60.37 C54.13 53.57, 56.35 51.8, 61.03 45.55 M48.68 60.91 C50.88 56.87, 53.99 54.25, 62.42 44.1 M53.27 60.54 C55.39 57.62, 57.23 56.7, 61.1 49.37 M52.7 60.96 C56.56 57.13, 60.38 52.75, 61.88 50.81 M58.55 60.76 C59.63 59.95, 60.62 58.48, 61.63 57.11 M58.65 60.5 C59.73 59.48, 60.32 58.95, 61.84 56.85" stroke="#ced4da" stroke-width="0.5" fill="none"></path><path d="M-0.02 0.06 C13.15 1.35, 23.15 1.73, 60.19 0.22 M-0.69 0.1 C17.38 -0.14, 36.14 0.61, 60.97 0.97 M58.11 -1.39 C61.88 11.36, 61.25 26.34, 58.56 58.86 M59.1 0.26 C60.7 17.22, 60.66 36.01, 59.13 60.53 M59.18 61.97 C35.04 59.54, 14.57 61.03, -1.14 60.01 M60.92 59.22 C48.8 59.38, 35.3 59.42, 0.57 60.98 M-0.75 58.81 C1.52 39.89, -1.9 23.64, -1.88 0.07 M0.54 60.4 C0.43 44.2, 0.4 26.61, -0.13 -0.88" stroke="#000000" stroke-width="1" fill="none"></path></g><g stroke-linecap="round"><g transform="translate(552.6332281518257 212.42847496809054) rotate(0 119.90690044172834 0.1207009540313777)"><path d="M1.03 0.42 C53.25 0.56, 110.06 -0.55, 240.48 1.29 M-0.75 -0.65 C50.69 -0.98, 101.42 -1.79, 240.56 0.62" stroke="#000000" stroke-width="1" fill="none"></path></g></g><g stroke-linecap="round"><g transform="translate(551.8846913166344 211.37925652597795) rotate(0 119.97585557028651 -20.328962724655867)"><path d="M-1.88 0.07 C-0.07 -9.47, 0.77 -15.3, 0.79 -39.9 M-0.13 -0.88 C0.08 -15.56, -0.22 -30.96, 0.51 -39.81 M1.02 -41.02 C67.18 -37.93, 137.24 -37.18, 240.16 -39.98 M0.6 -40.4 C80.08 -42.29, 160.2 -40.97, 239.51 -39.46 M239.81 -41.64 C238.29 -28.65, 238.06 -17.89, 241.84 0.98 M239.44 -40 C240.02 -30.25, 239.21 -19.44, 239.93 -0.31" stroke="#000000" stroke-width="1" fill="none"></path></g></g><g stroke-linecap="round"><g transform="translate(791.8846913166344 171.37925652597795) rotate(0 -98.96886423695832 -20.226716408490887)"><path d="M-0.19 -1.64 C8.39 -8.52, 18.22 -17.88, 41.84 -39.02 M-0.56 0 C9.83 -10.14, 18.95 -19.19, 39.93 -40.31 M39.25 -41.18 C-42.9 -42.15, -125.83 -39.22, -201.34 -40 M40.51 -40.78 C-43.89 -37.91, -128.92 -38.25, -199.82 -39.67 M-199.19 -40.05 C-213.8 -28.63, -224.73 -15.8, -239.1 -1.06 M-199.41 -40.66 C-216.55 -24.16, -233.02 -8.58, -239.77 0.93" stroke="#000000" stroke-width="1" fill="none"></path></g></g><g stroke-linecap="round"><g transform="translate(831.8846913166344 131.379256525978) rotate(0 -20.272920796647668 40.0018668724224)"><path d="M-1.79 1.97 C1.11 12.03, -1.37 24.15, -1.6 39.21 M-0.74 -0.47 C0.26 9.46, -1.25 19.61, -0.71 40.17 M-0.75 39.43 C-8.51 49.63, -18.89 62.04, -39.66 80.48 M-0.01 40.63 C-15.92 54.62, -29.89 70.19, -40.53 79.05" stroke="#000000" stroke-width="1" fill="none"></path></g></g><g stroke-linecap="round"><g transform="translate(591.8846913166344 131.379256525978) rotate(0 -0.5712784714996815 20.089403827674687)"><path d="M-1.66 0.82 C1.02 7.76, -1.06 17.81, 0.52 38.81 M-0.1 0.89 C-0.27 9.23, -0.12 17.97, -0.68 39.36" stroke="#000000" stroke-width="1" fill="none"></path></g></g><g stroke-linecap="round"><g transform="translate(552.0318432650554 431.945702825647) rotate(0 99.97232135980789 0.14344992495877307)"><path d="M0.5 1.57 C79.86 0.27, 156.51 1.38, 200.08 1.1 M-0.89 -0.3 C47.17 -1.39, 93.01 -1.62, 200.83 -0.73" stroke="#000000" stroke-width="1" fill="none"></path></g></g><g stroke-linecap="round"><g transform="translate(551.1458276323974 430.6670608110726) rotate(0 130.4154794998467 -59.85375281050801)"><path d="M-0.11 0.18 C0.89 -12.46, 1.77 -26.65, -1.15 -58.25 M0.47 -0.9 C0.44 -18.72, -0.32 -39.31, 0.81 -59.73 M-0.1 -61.64 C73.21 -59.22, 148.58 -59.97, 200.98 -61.03 M-0.73 -59.59 C78.45 -60.42, 156.2 -59.49, 200.3 -60.79 M200.23 -61.63 C202.3 -38.27, 201.89 -16.61, 200.39 0.84 M200.77 -60.67 C200.06 -36.42, 200.62 -11.95, 200.88 0.19 M201.69 -0.42 C216.51 -18.26, 234.89 -32.19, 261 -58.63 M199.67 0.15 C218.3 -17.93, 236.31 -36.76, 260.37 -59.23 M261.98 -58.53 C258.25 -73.16, 261.69 -87.31, 260.25 -119.2 M260.31 -60.03 C259.21 -81.91, 260.5 -104.63, 259.65 -119.18 M258.89 -120.55 C246.08 -104.33, 229.19 -90.49, 199.68 -58.89 M260.58 -120.02 C238.96 -99.76, 218.17 -79.28, 199.94 -59.46" stroke="#000000" stroke-width="1" fill="none"></path></g></g><g stroke-linecap="round"><g transform="translate(811.1458276323974 310.6670608110726) rotate(0 -130.45306241122466 30.03378675505519)"><path d="M-1.38 1.39 C-69.65 -0.23, -137.53 0.78, -199.73 1.59 M-0.4 0.76 C-64.02 0.05, -128.45 0.77, -199.5 0.45 M-198.01 -0.67 C-221.8 21.18, -242.97 43.38, -260.51 60.73 M-200.17 0.99 C-222.23 22.17, -244.97 46.49, -259.3 60.12" stroke="#000000" stroke-width="1" fill="none"></path></g></g><g stroke-linecap="round"><g transform="translate(611.1458276323974 310.6670608110726) rotate(0 0.41288091217097644 30.651486123912036)"><path d="M0.25 0.8 C1.89 22.48, 1.08 43.8, -0.06 58.97 M-0.35 0.82 C0 18.31, -0.4 35.09, -0.28 60.51" stroke="#000000" stroke-width="1" fill="none"></path></g></g><g transform="translate(463.8668796928275 174.33923608424442) rotate(0 17.2522665436843 -1.1957016416414774)" stroke="none"><path fill="#000000" d="M -0.32,-2.03 Q -0.32,-2.03 2.14,-2.33 4.61,-2.62 6.92,-2.72 9.22,-2.83 11.10,-3.08 12.97,-3.33 15.94,-3.40 18.90,-3.47 21.49,-3.58 24.08,-3.68 25.69,-3.82 27.29,-3.96 28.67,-4.07 30.05,-4.18 32.27,-4.27 34.49,-4.36 34.80,-4.31 35.12,-4.26 35.40,-4.12 35.68,-3.97 35.91,-3.74 36.13,-3.51 36.26,-3.22 36.40,-2.93 36.44,-2.61 36.47,-2.29 36.41,-1.98 36.34,-1.67 36.18,-1.39 36.02,-1.12 35.77,-0.91 35.53,-0.70 35.23,-0.58 34.94,-0.46 34.62,-0.44 34.30,-0.42 33.99,-0.50 33.68,-0.59 33.42,-0.76 33.15,-0.94 32.96,-1.19 32.76,-1.45 32.66,-1.75 32.55,-2.05 32.55,-2.37 32.55,-2.69 32.65,-3.00 32.75,-3.30 32.94,-3.56 33.13,-3.81 33.39,-3.99 33.66,-4.17 33.96,-4.26 34.27,-4.35 34.59,-4.33 34.91,-4.32 35.21,-4.20 35.51,-4.09 35.75,-3.88 36.00,-3.68 36.16,-3.40 36.33,-3.13 36.40,-2.82 36.47,-2.51 36.44,-2.19 36.41,-1.87 36.28,-1.58 36.14,-1.29 35.92,-1.06 35.71,-0.82 35.43,-0.67 35.14,-0.52 34.83,-0.46 34.51,-0.41 34.51,-0.41 34.51,-0.41 32.32,-0.46 30.12,-0.51 28.77,-0.57 27.42,-0.63 25.84,-0.64 24.25,-0.66 21.64,-0.47 19.03,-0.29 16.23,-0.13 13.44,0.02 11.46,0.30 9.48,0.59 7.34,0.82 5.20,1.05 2.76,1.54 0.32,2.03 0.07,2.04 -0.17,2.05 -0.41,2.00 -0.65,1.95 -0.88,1.85 -1.10,1.74 -1.30,1.58 -1.49,1.42 -1.64,1.22 -1.79,1.02 -1.88,0.79 -1.98,0.56 -2.02,0.32 -2.06,0.07 -2.04,-0.17 -2.02,-0.41 -1.94,-0.65 -1.86,-0.89 -1.72,-1.10 -1.59,-1.31 -1.41,-1.48 -1.23,-1.65 -1.02,-1.77 -0.80,-1.90 -0.56,-1.97 -0.32,-2.03 -0.32,-2.03 L -0.32,-2.03 Z"></path></g><g transform="translate(465.91665393564153 185.2713653792523) rotate(0 15.885750381808293 -3.074661364220958)" stroke="none"><path fill="#000000" d="M -0.59,-1.91 Q -0.59,-1.91 0.96,-2.42 2.53,-2.92 5.44,-3.54 8.35,-4.17 11.40,-4.60 14.46,-5.04 17.01,-5.40 19.56,-5.75 22.26,-5.99 24.96,-6.23 26.57,-6.67 28.17,-7.11 29.80,-7.52 31.43,-7.93 31.72,-7.93 32.02,-7.94 32.30,-7.85 32.58,-7.76 32.81,-7.59 33.05,-7.42 33.22,-7.18 33.39,-6.94 33.48,-6.66 33.56,-6.38 33.55,-6.09 33.54,-5.80 33.44,-5.52 33.34,-5.25 33.16,-5.02 32.97,-4.79 32.72,-4.63 32.48,-4.48 32.19,-4.41 31.91,-4.34 31.61,-4.36 31.32,-4.39 31.05,-4.50 30.78,-4.62 30.57,-4.82 30.35,-5.01 30.21,-5.27 30.06,-5.53 30.01,-5.81 29.96,-6.10 30.00,-6.39 30.04,-6.68 30.17,-6.94 30.30,-7.21 30.51,-7.41 30.72,-7.62 30.98,-7.75 31.24,-7.88 31.53,-7.92 31.82,-7.96 32.11,-7.90 32.40,-7.84 32.65,-7.70 32.91,-7.55 33.10,-7.33 33.30,-7.11 33.41,-6.84 33.53,-6.57 33.55,-6.28 33.57,-5.99 33.50,-5.71 33.43,-5.42 33.27,-5.18 33.11,-4.93 32.88,-4.75 32.65,-4.56 32.38,-4.46 32.10,-4.36 32.10,-4.36 32.10,-4.36 30.51,-4.16 28.92,-3.97 27.10,-3.59 25.27,-3.21 22.67,-2.91 20.07,-2.60 17.54,-2.14 15.01,-1.69 12.13,-1.14 9.24,-0.59 6.49,0.18 3.74,0.96 2.17,1.43 0.59,1.91 0.36,1.96 0.12,2.00 -0.11,1.98 -0.36,1.97 -0.59,1.90 -0.82,1.83 -1.02,1.70 -1.23,1.58 -1.40,1.41 -1.57,1.23 -1.70,1.03 -1.83,0.82 -1.90,0.59 -1.97,0.36 -1.98,0.12 -2.00,-0.11 -1.96,-0.35 -1.91,-0.59 -1.81,-0.81 -1.71,-1.03 -1.57,-1.22 -1.42,-1.41 -1.23,-1.56 -1.04,-1.71 -0.81,-1.81 -0.59,-1.91 -0.59,-1.91 L -0.59,-1.91 Z"></path></g><g transform="translate(496.3216385373821 162.04059062736053) rotate(0 11.273758335476941 14.348419699697843)" stroke="none"><path fill="#000000" d="M 0.66,-2.07 Q 0.66,-2.07 2.78,-1.28 4.91,-0.48 7.04,0.17 9.17,0.82 11.59,1.63 14.01,2.44 15.67,2.81 17.34,3.18 18.71,3.48 20.08,3.79 21.23,4.01 22.38,4.23 23.44,5.20 24.49,6.16 24.21,7.92 23.93,9.69 22.54,11.49 21.14,13.29 18.69,15.44 16.24,17.60 14.36,19.05 12.48,20.50 10.81,21.92 9.15,23.35 8.35,24.30 7.56,25.26 6.34,27.47 5.12,29.69 4.91,29.99 4.70,30.29 4.40,30.51 4.10,30.73 3.75,30.84 3.40,30.95 3.03,30.94 2.66,30.94 2.31,30.81 1.96,30.69 1.67,30.46 1.38,30.23 1.18,29.92 0.98,29.61 0.89,29.25 0.80,28.90 0.82,28.53 0.85,28.16 0.99,27.82 1.14,27.48 1.38,27.20 1.63,26.92 1.95,26.74 2.27,26.56 2.63,26.48 2.99,26.41 3.36,26.46 3.72,26.51 4.05,26.67 4.39,26.83 4.65,27.09 4.91,27.35 5.08,27.68 5.25,28.00 5.30,28.37 5.35,28.74 5.28,29.10 5.22,29.46 5.04,29.78 4.86,30.11 4.59,30.36 4.31,30.60 3.98,30.75 3.64,30.90 3.27,30.93 2.90,30.97 2.54,30.88 2.18,30.79 1.87,30.60 1.56,30.40 1.33,30.12 1.09,29.83 0.96,29.48 0.83,29.14 0.82,28.77 0.81,28.40 0.91,28.05 1.02,27.69 1.02,27.69 1.02,27.69 2.82,25.10 4.63,22.50 5.61,21.57 6.59,20.63 8.19,19.00 9.78,17.37 11.41,15.78 13.04,14.20 14.48,12.61 15.92,11.02 17.33,9.72 18.73,8.41 20.01,8.41 21.29,8.42 20.18,7.91 19.06,7.40 17.80,6.96 16.54,6.52 14.78,6.06 13.03,5.61 10.64,4.93 8.25,4.26 5.99,3.75 3.73,3.23 1.53,2.65 -0.66,2.07 -0.89,1.96 -1.13,1.85 -1.34,1.69 -1.55,1.53 -1.71,1.32 -1.87,1.11 -1.97,0.87 -2.08,0.63 -2.13,0.37 -2.17,0.11 -2.15,-0.14 -2.14,-0.40 -2.06,-0.65 -1.98,-0.90 -1.84,-1.13 -1.70,-1.35 -1.52,-1.53 -1.33,-1.72 -1.10,-1.85 -0.88,-1.99 -0.63,-2.06 -0.37,-2.14 -0.11,-2.16 0.14,-2.17 0.40,-2.12 0.66,-2.07 0.66,-2.07 L 0.66,-2.07 Z"></path></g><g transform="translate(481.6315897972154 360.52706313984737) rotate(0 14.348419699697843 -1.8789597225794807)" stroke="none"><path fill="#000000" d="M -0.72,-2.09 Q -0.72,-2.09 1.57,-2.76 3.87,-3.44 6.85,-3.92 9.83,-4.40 11.74,-4.71 13.64,-5.02 15.82,-5.12 17.99,-5.22 19.58,-5.34 21.18,-5.46 22.72,-5.66 24.26,-5.87 26.48,-5.99 28.69,-6.12 29.07,-6.06 29.44,-5.99 29.78,-5.82 30.12,-5.64 30.38,-5.36 30.65,-5.08 30.81,-4.74 30.97,-4.39 31.01,-4.01 31.05,-3.63 30.97,-3.25 30.89,-2.88 30.69,-2.55 30.50,-2.23 30.20,-1.98 29.91,-1.73 29.56,-1.59 29.20,-1.45 28.82,-1.42 28.44,-1.40 28.07,-1.50 27.70,-1.61 27.39,-1.82 27.07,-2.03 26.84,-2.34 26.60,-2.64 26.48,-3.01 26.36,-3.37 26.36,-3.75 26.36,-4.13 26.48,-4.49 26.60,-4.86 26.83,-5.16 27.06,-5.47 27.38,-5.68 27.70,-5.90 28.06,-6.00 28.43,-6.10 28.82,-6.08 29.20,-6.06 29.55,-5.92 29.91,-5.78 30.20,-5.53 30.49,-5.29 30.69,-4.96 30.89,-4.63 30.97,-4.26 31.05,-3.88 31.01,-3.50 30.97,-3.12 30.81,-2.78 30.65,-2.43 30.39,-2.15 30.12,-1.87 29.79,-1.69 29.45,-1.51 29.07,-1.45 28.69,-1.39 28.70,-1.39 28.70,-1.39 26.51,-1.50 24.33,-1.61 22.82,-1.74 21.31,-1.88 19.76,-1.88 18.21,-1.88 16.23,-1.71 14.24,-1.53 12.37,-1.19 10.50,-0.86 7.83,-0.28 5.16,0.29 2.94,1.19 0.72,2.09 0.46,2.15 0.20,2.20 -0.06,2.20 -0.32,2.19 -0.58,2.12 -0.84,2.05 -1.07,1.92 -1.31,1.79 -1.50,1.60 -1.70,1.42 -1.84,1.20 -1.99,0.97 -2.08,0.72 -2.16,0.47 -2.19,0.20 -2.21,-0.06 -2.17,-0.32 -2.13,-0.59 -2.03,-0.83 -1.93,-1.08 -1.77,-1.30 -1.61,-1.51 -1.41,-1.68 -1.20,-1.86 -0.96,-1.97 -0.72,-2.09 -0.72,-2.09 L -0.72,-2.09 Z"></path></g><g transform="translate(484.0229930804983 368.0429020301653) rotate(0 12.46945997711839 -1.70814520234498)" stroke="none"><path fill="#000000" d="M -0.37,-2.11 Q -0.37,-2.11 1.29,-2.39 2.96,-2.68 4.53,-3.00 6.10,-3.32 8.69,-3.65 11.29,-3.98 13.74,-4.09 16.19,-4.21 18.02,-4.47 19.85,-4.73 22.32,-5.01 24.79,-5.30 25.09,-5.27 25.40,-5.24 25.68,-5.12 25.96,-5.00 26.19,-4.79 26.41,-4.59 26.56,-4.32 26.71,-4.05 26.77,-3.75 26.82,-3.45 26.78,-3.15 26.74,-2.85 26.60,-2.57 26.46,-2.30 26.25,-2.09 26.03,-1.87 25.75,-1.74 25.48,-1.60 25.18,-1.56 24.87,-1.52 24.57,-1.58 24.27,-1.64 24.01,-1.79 23.74,-1.94 23.54,-2.17 23.34,-2.40 23.22,-2.68 23.10,-2.96 23.07,-3.27 23.05,-3.57 23.13,-3.87 23.20,-4.17 23.37,-4.42 23.53,-4.68 23.77,-4.87 24.01,-5.06 24.30,-5.17 24.59,-5.27 24.89,-5.28 25.20,-5.28 25.49,-5.19 25.78,-5.10 26.03,-4.92 26.28,-4.74 26.45,-4.49 26.63,-4.24 26.72,-3.95 26.81,-3.66 26.80,-3.35 26.79,-3.05 26.68,-2.76 26.57,-2.47 26.38,-2.24 26.19,-2.00 25.93,-1.83 25.67,-1.67 25.37,-1.60 25.08,-1.53 25.08,-1.53 25.08,-1.53 22.71,-1.40 20.35,-1.28 18.40,-0.99 16.46,-0.71 14.19,-0.45 11.93,-0.20 9.44,0.32 6.94,0.86 5.32,1.18 3.70,1.50 2.04,1.80 0.37,2.11 0.11,2.12 -0.14,2.14 -0.39,2.09 -0.65,2.04 -0.88,1.93 -1.12,1.83 -1.32,1.66 -1.52,1.50 -1.68,1.30 -1.84,1.09 -1.94,0.86 -2.05,0.62 -2.09,0.37 -2.14,0.11 -2.12,-0.14 -2.10,-0.40 -2.03,-0.64 -1.95,-0.89 -1.81,-1.11 -1.68,-1.33 -1.49,-1.51 -1.31,-1.69 -1.09,-1.83 -0.86,-1.96 -0.62,-2.03 -0.37,-2.11 -0.37,-2.11 L -0.37,-2.11 Z"></path></g><g transform="translate(505.88725167051416 341.39583687358356) rotate(0 7.345024370083365 16.569008462746325)" stroke="none"><path fill="#000000" d="M 1.88,-1.53 Q 1.88,-1.53 3.07,0.11 4.25,1.75 5.18,2.76 6.10,3.76 7.39,4.80 8.68,5.84 9.98,6.80 11.28,7.77 12.76,8.68 14.25,9.60 15.28,10.24 16.32,10.88 17.79,13.31 19.26,15.75 18.22,16.93 17.18,18.12 14.81,19.91 12.44,21.70 10.82,22.84 9.21,23.98 7.75,25.11 6.29,26.24 4.90,27.45 3.50,28.66 2.61,29.77 1.72,30.88 -0.63,33.12 -3.00,35.36 -3.40,35.25 -3.81,35.14 -4.15,34.90 -4.50,34.67 -4.75,34.34 -5.01,34.01 -5.14,33.61 -5.27,33.21 -5.28,32.80 -5.28,32.38 -5.14,31.98 -5.01,31.59 -4.76,31.25 -4.51,30.92 -4.16,30.69 -3.82,30.45 -3.42,30.34 -3.01,30.23 -2.60,30.25 -2.18,30.27 -1.79,30.42 -1.40,30.58 -1.08,30.85 -0.76,31.12 -0.55,31.47 -0.33,31.83 -0.24,32.24 -0.15,32.65 -0.20,33.06 -0.24,33.48 -0.41,33.86 -0.59,34.24 -0.87,34.54 -1.16,34.84 -1.53,35.04 -1.90,35.24 -2.31,35.30 -2.72,35.37 -3.13,35.31 -3.55,35.24 -3.92,35.04 -4.29,34.85 -4.57,34.55 -4.86,34.24 -5.04,33.87 -5.21,33.49 -5.26,33.07 -5.31,32.66 -5.22,32.25 -5.13,31.84 -4.91,31.48 -4.70,31.12 -4.38,30.85 -4.06,30.58 -3.68,30.43 -3.29,30.27 -2.87,30.25 -2.45,30.22 -2.45,30.22 -2.45,30.22 -2.19,29.03 -1.93,27.84 -0.65,26.70 0.61,25.57 2.01,24.18 3.40,22.80 4.81,21.52 6.21,20.24 7.64,18.94 9.07,17.65 11.21,15.69 13.36,13.73 14.22,13.09 15.09,12.46 14.54,14.00 13.99,15.54 12.82,14.59 11.65,13.64 10.19,12.42 8.73,11.21 7.40,10.22 6.07,9.23 4.40,7.99 2.74,6.75 1.79,5.64 0.85,4.52 -0.51,3.02 -1.88,1.53 -2.04,1.28 -2.19,1.03 -2.28,0.75 -2.38,0.47 -2.40,0.18 -2.42,-0.10 -2.37,-0.39 -2.33,-0.68 -2.21,-0.95 -2.09,-1.21 -1.92,-1.45 -1.74,-1.68 -1.51,-1.87 -1.29,-2.05 -1.02,-2.18 -0.76,-2.30 -0.47,-2.36 -0.18,-2.42 0.10,-2.40 0.39,-2.39 0.67,-2.31 0.95,-2.23 1.21,-2.08 1.46,-1.93 1.67,-1.73 1.88,-1.53 1.88,-1.53 L 1.88,-1.53 Z"></path></g><g stroke-linecap="round"><g stroke-opacity="0.4" fill-opacity="0.4" transform="translate(70 90) rotate(0 20 0)"><path d="M0 0 C13.29 0, 26.59 0, 40 0" stroke="#000000" stroke-width="1.5" fill="none" stroke-dasharray="8 9"></path></g></g><g stroke-linecap="round"><g stroke-opacity="0.4" fill-opacity="0.4" transform="translate(90 70) rotate(0 0 100)"><path d="M0 0 C0 45.96, 0 91.93, 0 200" stroke="#000000" stroke-width="1.5" fill="none" stroke-dasharray="8 9"></path></g></g><g stroke-linecap="round"><g stroke-opacity="0.4" fill-opacity="0.4" transform="translate(70 250) rotate(0 20 0)"><path d="M0 0 C10.42 0, 20.85 0, 40 0" stroke="#000000" stroke-width="1.5" fill="none" stroke-dasharray="8 9"></path></g></g><g stroke-linecap="round"><g stroke-opacity="0.4" fill-opacity="0.4" transform="translate(130 30) rotate(0 0 20)"><path d="M0 0 C0 9.45, 0 18.91, 0 40" stroke="#000000" stroke-width="1.5" fill="none" stroke-dasharray="8 9"></path></g></g><g stroke-linecap="round"><g stroke-opacity="0.4" fill-opacity="0.4" transform="translate(110 50) rotate(0 180 0)"><path d="M0 0 C118.85 0, 237.69 0, 360 0" stroke="#000000" stroke-width="1.5" fill="none" stroke-dasharray="8 9"></path></g></g><g stroke-linecap="round"><g stroke-opacity="0.4" fill-opacity="0.4" transform="translate(450 30) rotate(0 0 20)"><path d="M0 0 C0 10.7, 0 21.39, 0 40" stroke="#000000" stroke-width="1.5" fill="none" stroke-dasharray="8 9"></path></g></g><g stroke-linecap="round"><g stroke-opacity="0.4" fill-opacity="0.4" transform="translate(70 70) rotate(0 20 20)"><path d="M0 0 C14.04 14.04, 28.07 28.07, 40 40" stroke="#000000" stroke-width="1.5" fill="none" stroke-dasharray="8 9"></path></g></g><g stroke-linecap="round"><g stroke-opacity="0.4" fill-opacity="0.4" transform="translate(70 230) rotate(0 20 20)"><path d="M0 0 C8.95 8.95, 17.9 17.9, 40 40" stroke="#000000" stroke-width="1.5" fill="none" stroke-dasharray="8 9"></path></g></g><g stroke-linecap="round"><g stroke-opacity="0.4" fill-opacity="0.4" transform="translate(150 30) rotate(0 -20 20)"><path d="M0 0 C-14.56 14.56, -29.12 29.12, -40 40" stroke="#000000" stroke-width="1.5" fill="none" stroke-dasharray="8 9"></path></g></g><g stroke-linecap="round"><g stroke-opacity="0.4" fill-opacity="0.4" transform="translate(470 30) rotate(0 -20 20)"><path d="M0 0 C-9.05 9.05, -18.11 18.11, -40 40" stroke="#000000" stroke-width="1.5" fill="none" stroke-dasharray="8 9"></path></g></g><g transform="translate(250 10) rotate(0 36 18)"><text x="0" y="25" font-family="Virgil, Segoe UI Emoji" font-size="28px" fill="#000000" text-anchor="start" style="white-space: pre;" direction="ltr">12 ft</text></g><g transform="translate(10 150) rotate(0 33 18)"><text x="0" y="25" font-family="Virgil, Segoe UI Emoji" font-size="28px" fill="#000000" text-anchor="start" style="white-space: pre;" direction="ltr">8 ft</text></g></svg>