<svg width="1139" height="273" xmlns="http://www.w3.org/2000/svg" xmlns:xlink="http://www.w3.org/1999/xlink" xml:space="preserve" overflow="hidden"><defs><clipPath id="clip0"><rect x="1609" y="1079" width="1139" height="273"/></clipPath></defs><g clip-path="url(#clip0)" transform="translate(-1609 -1079)"><path d="M1831 1351C1813.88 1351 1800 1349.84 1800 1348.42L1800 1112.58C1800 1111.16 1813.88 1110 1831 1110" stroke="#000000" stroke-width="2.29167" stroke-miterlimit="8" fill="none" fill-rule="evenodd"/><path d="M30.9999 241C13.8791 241 1.53413e-14 239.843-1.1506e-14 238.417L0 2.58316C-3.06827e-14 1.15652 13.8791-1.91766e-15 30.9999-3.83531e-15" stroke="#000000" stroke-width="2.29167" stroke-miterlimit="8" fill="none" fill-rule="evenodd" transform="matrix(-1 0 0 1 1967 1110)"/><rect x="1822" y="1124" width="48.0001" height="213" fill="#2EB77C" fill-opacity="0.701961"/><rect x="1896" y="1124" width="47.9998" height="213" fill="#2EB77C" fill-opacity="0.701961"/><path d="M2030 1285C2012.88 1285 1999 1283.84 1999 1282.42L1999 1107.58C1999 1106.16 2012.88 1105 2030 1105" stroke="#000000" stroke-width="2.29167" stroke-miterlimit="8" fill="none" fill-rule="evenodd"/><path d="M30.9999 180C13.8791 180 1.71874e-14 178.843-1.14582e-14 177.417L0 2.58326C-2.86456e-14 1.15657 13.8791-1.43227e-15 30.9999-3.58068e-15" stroke="#000000" stroke-width="2.29167" stroke-miterlimit="8" fill="none" fill-rule="evenodd" transform="matrix(-1 0 0 1 2173 1105)"/><rect x="2014" y="1133" width="143" height="49.0001" fill="#E11F5B" fill-opacity="0.788235"/><rect x="2012" y="1211" width="142" height="48.9998" fill="#E11F5B" fill-opacity="0.788235"/><path d="M2215.7 1142.92 2265.63 1142.92 2265.63 1148.31 2215.7 1148.31ZM2215.7 1126.1 2265.63 1126.1 2265.63 1131.49 2215.7 1131.49Z" fill-rule="evenodd"/><text fill="#000000" fill-opacity="0" font-family="Arial,Arial_MSFontService,sans-serif" font-size="22.209" x="2215.7" y="1145.53">=</text><path d="M2519.3 1111.15 2525.06 1111.15 2525.06 1134.49 2547.15 1134.49 2547.15 1139.88 2525.06 1139.88 2525.06 1163.22 2519.3 1163.22 2519.3 1139.88 2497.22 1139.88 2497.22 1134.49 2519.3 1134.49Z" fill-rule="evenodd"/><text fill="#000000" fill-opacity="0" font-family="Arial,Arial_MSFontService,sans-serif" font-size="52.0776" x="2497.22" y="1156.71">+</text><rect x="2326" y="1116" width="147" height="212" fill="#D0CECE"/><rect x="2329" y="1117" width="48.0002" height="212" fill="#2EB77C" fill-opacity="0.701961"/><rect x="2329" y="1117" width="142" height="49.0001" fill="#E11F5B" fill-opacity="0.788235"/><path d="M2345 1337C2327.88 1337 2314 1335.84 2314 1334.42L2314 1099.58C2314 1098.16 2327.88 1097 2345 1097" stroke="#000000" stroke-width="2.29167" stroke-miterlimit="8" fill="none" fill-rule="evenodd"/><path d="M30.9999 240C13.8791 240 1.90971e-14 238.843-1.14583e-14 237.417L0 2.5832C-3.05554e-14 1.15654 13.8791-1.9097e-15 30.9999-3.8194e-15" stroke="#000000" stroke-width="2.29167" stroke-miterlimit="8" fill="none" fill-rule="evenodd" transform="matrix(-1 0 0 1 2488 1097)"/><rect x="2585" y="1115" width="148" height="212" fill="#D0CECE"/><rect x="2589" y="1116" width="47.9998" height="212" fill="#2EB77C" fill-opacity="0.701961"/><rect x="2589" y="1116" width="142" height="48.9998" fill="#E11F5B" fill-opacity="0.788235"/><path d="M2604 1337C2587.43 1337 2574 1335.88 2574 1334.5L2574 1098.5C2574 1097.12 2587.43 1096 2604 1096" stroke="#000000" stroke-width="2.29167" stroke-miterlimit="8" fill="none" fill-rule="evenodd"/><path d="M29.9999 241C13.4314 241 2.3012e-14 239.881-7.67065e-15 238.5L0 2.49987C-3.06826e-14 1.11923 13.4314-1.91766e-15 29.9999-3.83531e-15" stroke="#000000" stroke-width="2.29167" stroke-miterlimit="8" fill="none" fill-rule="evenodd" transform="matrix(-1 0 0 1 2747 1096)"/><path d="M1617.5 1155.5C1617.5 1119.6 1646.6 1090.5 1682.5 1090.5 1718.4 1090.5 1747.5 1119.6 1747.5 1155.5 1747.5 1191.4 1718.4 1220.5 1682.5 1220.5 1646.6 1220.5 1617.5 1191.4 1617.5 1155.5Z" stroke="#D9D9D9" stroke-width="4.58333" stroke-miterlimit="8" fill="none" fill-rule="evenodd"/><text font-family="Meiryo,Meiryo_MSFontService,sans-serif" font-weight="400" font-size="50" transform="matrix(1 0 0 1 1639.76 1137)">MM</text><text font-family="Meiryo,Meiryo_MSFontService,sans-serif" font-weight="400" font-size="50" transform="matrix(1 0 0 1 1665.82 1197)">4</text></g></svg>