<svg width="911" height="255" xmlns="http://www.w3.org/2000/svg" xmlns:xlink="http://www.w3.org/1999/xlink" xml:space="preserve" overflow="hidden"><defs><clipPath id="clip0"><rect x="243" y="357" width="911" height="255"/></clipPath></defs><g clip-path="url(#clip0)" transform="translate(-243 -357)"><path d="M460 611C442.879 611 429 609.843 429 608.417L429 373.583C429 372.156 442.879 371 460 371" stroke="#000000" stroke-width="2.29167" stroke-miterlimit="8" fill="none" fill-rule="evenodd"/><path d="M30.9999 240C13.8791 240 1.90971e-14 238.843-1.14583e-14 237.417L0 2.5832C-3.05554e-14 1.15654 13.8791-1.9097e-15 30.9999-3.8194e-15" stroke="#000000" stroke-width="2.29167" stroke-miterlimit="8" fill="none" fill-rule="evenodd" transform="matrix(-1 0 0 1 603 371)"/><rect x="444" y="389" width="142" height="48.9998" fill="#E11F5B" fill-opacity="0.788235"/><rect x="442" y="466" width="142" height="49.9998" fill="#E11F5B" fill-opacity="0.788235"/><rect x="444" y="544" width="142" height="48.9998" fill="#E11F5B" fill-opacity="0.788235"/><rect x="660" y="377" width="41.9999" height="131" fill="#2EB77C" fill-opacity="0.701961"/><path d="M667 517C649.879 517 636 515.843 636 514.417L636 370.583C636 369.157 649.879 368 667 368" stroke="#000000" stroke-width="2.29167" stroke-miterlimit="8" fill="none" fill-rule="evenodd"/><path d="M26.0001 149C11.6407 149 1.42273e-14 148.03-9.48488e-15 146.833L0 2.16656C-2.37122e-14 0.970002 11.6407-1.48201e-15 26.0001-3.26041e-15" stroke="#000000" stroke-width="2.29167" stroke-miterlimit="8" fill="none" fill-rule="evenodd" transform="matrix(-1 0 0 1 795 368)"/><rect x="730" y="376" width="41.9999" height="131" fill="#2EB77C" fill-opacity="0.701961"/><path d="M856.279 410.732 906.208 410.732 906.208 416.122 856.279 416.122ZM856.279 393.913 906.208 393.913 906.208 399.304 856.279 399.304Z" fill-rule="evenodd"/><text fill="#000000" fill-opacity="0" font-family="Arial,Arial_MSFontService,sans-serif" font-size="22.209" x="856.279" y="413.346">=</text><rect x="953" y="402" width="71.0002" height="27.0002" fill="#E11F5B" fill-opacity="0.788235"/><rect x="972" y="382" width="30.9999" height="70.0001" fill="#2EB77C" fill-opacity="0.701961"/><rect x="955" y="480" width="71.0002" height="26.0001" fill="#E11F5B" fill-opacity="0.788235"/><rect x="974" y="459" width="31.0003" height="71.0002" fill="#2EB77C" fill-opacity="0.701961"/><rect x="956" y="557" width="71.0002" height="26.0001" fill="#E11F5B" fill-opacity="0.788235"/><rect x="976" y="537" width="30.9999" height="70.0001" fill="#2EB77C" fill-opacity="0.701961"/><path d="M968 607C951.432 607 938 605.881 938 604.5L938 368.5C938 367.119 951.432 366 968 366" stroke="#000000" stroke-width="2.29167" stroke-miterlimit="8" fill="none" fill-rule="evenodd"/><path d="M30.9999 241C13.8791 241 1.53413e-14 239.843-1.1506e-14 238.417L0 2.58316C-3.06827e-14 1.15652 13.8791-1.91766e-15 30.9999-3.83531e-15" stroke="#000000" stroke-width="2.29167" stroke-miterlimit="8" fill="none" fill-rule="evenodd" transform="matrix(-1 0 0 1 1153 366)"/><rect x="1055" y="402" width="71.0001" height="27.0002" fill="#E11F5B" fill-opacity="0.788235"/><rect x="1074" y="382" width="31.0002" height="70.0001" fill="#2EB77C" fill-opacity="0.701961"/><rect x="1057" y="480" width="70.0001" height="26.0001" fill="#E11F5B" fill-opacity="0.788235"/><rect x="1076" y="459" width="30.9999" height="71.0002" fill="#2EB77C" fill-opacity="0.701961"/><rect x="1058" y="557" width="70.9998" height="26.0001" fill="#E11F5B" fill-opacity="0.788235"/><rect x="1078" y="537" width="29.9999" height="70.0001" fill="#2EB77C" fill-opacity="0.701961"/><path d="M251.5 439.5C251.5 403.601 280.602 374.5 316.5 374.5 352.399 374.5 381.5 403.601 381.5 439.5 381.5 475.399 352.399 504.5 316.5 504.5 280.602 504.5 251.5 475.399 251.5 439.5Z" stroke="#D9D9D9" stroke-width="4.58333" stroke-miterlimit="8" fill="none" fill-rule="evenodd"/><text font-family="Meiryo,Meiryo_MSFontService,sans-serif" font-weight="400" font-size="50" transform="matrix(1 0 0 1 273.768 421)">MM</text><text font-family="Meiryo,Meiryo_MSFontService,sans-serif" font-weight="400" font-size="50" transform="matrix(1 0 0 1 299.824 481)">1</text></g></svg>