<svg version="1.1" xmlns="http://www.w3.org/2000/svg" viewBox="0 0 179 322.5000000000001" width="179" height="322.5000000000001">
  <!-- svg-source:excalidraw -->
  
  <defs>
    <style>
      @font-face {
        font-family: "Virgil";
        src: url("https://excalidraw.com/Virgil.woff2");
      }
      @font-face {
        font-family: "Cascadia";
        src: url("https://excalidraw.com/Cascadia.woff2");
      }
    </style>
  </defs>
  <rect x="0" y="0" width="179" height="322.5000000000001" fill="#ffffff"></rect><g stroke-linecap="round" transform="translate(14.5 40.99999999999994) rotate(0 77.25 19.000000000000036)"><path d="M-1.58 -0.77 C46.14 1.8, 95.53 1.48, 154.04 -1.27 M0.95 -0.43 C53 -0.63, 106.95 0.45, 155.29 0.2 M155.05 -0.47 C155.91 8.94, 153.21 14.1, 153.58 37.78 M154.05 -0.26 C154.58 10.91, 154.02 23.42, 154.87 38.53 M153.14 36.54 C108.03 38.34, 62.97 37.82, -0.61 39.56 M155.4 37.75 C93.59 39.89, 30.4 39.11, -0.74 37.81 M-0.84 36.12 C-1.32 26.62, -0.57 15.07, 0.86 -1.52 M-0.89 37.6 C-0.96 29.96, -0.53 20.87, -0.07 -0.34" stroke="#000000" stroke-width="1" fill="none"></path></g><g transform="translate(45.99999999999977 52) rotate(0 43.5 10)"><text x="0" y="14" font-family="Virgil, Segoe UI Emoji" font-size="16px" fill="#000000" text-anchor="start" style="white-space: pre;" direction="ltr">Text(code)</text></g><g stroke-linecap="round" transform="translate(13.5 79.49999999999994) rotate(0 77.25 19.000000000000036)"><path d="M-0.9 -0.52 C47.44 -2.51, 93.05 -0.48, 155.24 1.07 M-0.68 -0.73 C44.83 0.8, 90.38 0.54, 154.19 0.78 M156.31 -0.5 C156.32 16.58, 153.29 30.2, 153.03 37.61 M154.08 -0.94 C154.02 10.17, 154.39 20.25, 154.93 37.24 M152.71 37.2 C116.26 40.57, 80.44 40.42, -0.13 37.32 M155.1 37.62 C119.32 39.27, 82.36 39.13, -0.65 38.43 M0.27 39.57 C-1.13 27.76, -0.73 18.42, 0.28 0.66 M-0.43 37.14 C-0.03 29.42, -0.38 22.75, -0.2 0.62" stroke="#000000" stroke-width="1" fill="none"></path></g><g stroke-linecap="round" transform="translate(11.5 116.99999999999994) rotate(0 77.25 19.00000000000003)"><path d="M0.86 -1.52 C38.83 2.32, 80.95 -0.41, 153.7 -1.56 M-0.07 -0.34 C60.88 -1.42, 123.82 -0.81, 154.12 0.74 M153.2 0.86 C153.68 10.17, 152.78 24.35, 156.07 36.51 M154.64 0.33 C153.35 11.93, 153.57 21.63, 153.64 38.31 M154.1 39.25 C119.96 36.76, 84.07 36.68, -0.7 37.76 M153.59 38.99 C93.33 39.92, 30.82 38.92, 0.66 38.95 M0.44 36.73 C1.9 28.62, -1.06 20.62, -0.57 1.57 M0.6 37.11 C-0.17 23.26, 0.83 7.33, 0.25 -0.11" stroke="#000000" stroke-width="1" fill="none"></path></g><g stroke-linecap="round" transform="translate(10.5 156.99999999999994) rotate(0 77.25 19.00000000000003)"><path d="M-0.71 -1.86 C45.24 -0.39, 95.28 -2.15, 154.3 -1.09 M-0.94 0.9 C49.58 -0.94, 99.74 -0.2, 153.74 -0.04 M154.61 -1.86 C153.28 10.99, 153.72 25.62, 156.47 38.15 M154.9 0.71 C153.62 14.08, 154.82 29.69, 153.79 38.13 M156.45 37.32 C99.11 37.05, 45.17 38.59, 1.95 38.11 M154.35 38.37 C116.16 36.17, 76.37 36.51, -0.73 38.22 M0.52 39.83 C0.4 27.33, -2.11 18.88, 0.36 0.5 M0.13 37.49 C-0.01 29.1, 0.42 21.62, 0.78 1" stroke="#000000" stroke-width="1" fill="none"></path></g><g stroke-linecap="round" transform="translate(10 197.49999999999994) rotate(0 77.25 19.00000000000003)"><path d="M-0.08 0.8 C32.66 2.42, 66.22 -0.69, 153.36 -1.94 M0.08 0.78 C40.03 -0.53, 82.27 -0.81, 153.96 -0.29 M154.76 1.04 C155.3 12.65, 156.81 27.15, 153.49 38.02 M154.56 -0.46 C155.4 9.42, 154.65 21, 155.35 37.55 M154.95 37.28 C105.24 38.11, 54.55 38.7, 0.59 37.37 M154.75 37.17 C122.28 39.02, 91.65 37.76, -0.29 37.33 M1.99 36.27 C-1.51 27.9, -0.91 16.01, 1.15 -1.69 M-0.04 38.25 C-0.21 24.46, 0.56 11.67, 0.2 0.3" stroke="#000000" stroke-width="1" fill="none"></path></g><g stroke-linecap="round" transform="translate(10 234.49999999999994) rotate(0 77.25 19.00000000000003)"><path d="M0.02 -0.57 C63.01 2.74, 123 -0.14, 155.71 -1.79 M-0.45 0.25 C43.91 -2.04, 88.27 -1.67, 154.99 0.62 M153.87 -1.92 C155.81 12.75, 155.35 23.11, 153.04 39.49 M153.83 0.15 C154.39 12.67, 155.3 22.93, 153.76 38.93 M152.81 39.1 C113.94 38.49, 75.36 39.39, -0.81 37.92 M154.8 38.91 C102.99 37.52, 49.71 38.95, 0.33 38.56 M-1.59 36.81 C0.82 28.42, 0.16 18.92, 0.35 -1.79 M-0.91 38.6 C-0.68 29.43, 0.09 20.23, -0.07 -0.3" stroke="#000000" stroke-width="1" fill="none"></path></g><g stroke-linecap="round" transform="translate(10 274.50000000000006) rotate(0 77.25 19.00000000000003)"><path d="M-0.68 0.26 C35.49 -1.4, 67.88 1.8, 155.3 -1.21 M0.57 0.42 C33.26 0.03, 65.91 0.78, 153.96 0.77 M155.77 -0.15 C155.85 8.57, 154.78 20.31, 154.88 39.87 M154.17 -0.14 C155.72 11.58, 155.68 24.11, 153.51 38.28 M154.09 37.99 C103.95 37.6, 55.7 37.47, -1.2 37.34 M154.15 37.68 C106.05 36.17, 55.86 36.15, -0.78 37.8 M-1.76 37.12 C0.14 29.45, 1.5 19.56, -0.08 0.73 M0.12 38.46 C0.79 25.92, 1.02 14.55, 0.66 0.18" stroke="#000000" stroke-width="1" fill="none"></path></g><g transform="translate(45.99999999999977 90.5) rotate(0 31 10)"><text x="0" y="14" font-family="Virgil, Segoe UI Emoji" font-size="16px" fill="#000000" text-anchor="start" style="white-space: pre;" direction="ltr">Literals</text></g><g transform="translate(45.99999999999977 127) rotate(0 22 10)"><text x="0" y="14" font-family="Virgil, Segoe UI Emoji" font-size="16px" fill="#000000" text-anchor="start" style="white-space: pre;" direction="ltr">Data</text></g><g transform="translate(45.99999999999977 165.5) rotate(0 16 10)"><text x="0" y="14" font-family="Virgil, Segoe UI Emoji" font-size="16px" fill="#000000" text-anchor="start" style="white-space: pre;" direction="ltr">BSS</text></g><g transform="translate(45.99999999999977 205) rotate(0 23 10)"><text x="0" y="14" font-family="Virgil, Segoe UI Emoji" font-size="16px" fill="#000000" text-anchor="start" style="white-space: pre;" direction="ltr">Stack</text></g><g transform="translate(45.99999999999977 281.5) rotate(0 18.5 10)"><text x="0" y="14" font-family="Virgil, Segoe UI Emoji" font-size="16px" fill="#000000" text-anchor="start" style="white-space: pre;" direction="ltr">Heap</text></g><g stroke-linecap="round"><g transform="translate(78.99999999999977 236.5) rotate(0 -0.2613443685272614 7.774811453744775)"><path d="M-1.07 -0.89 C-0.96 1.96, -0.28 13.87, 0.08 16.44 M0.56 1.26 C0.54 3.84, -1.09 12.46, -1.09 14.81" stroke="#000000" stroke-width="1" fill="none"></path></g><g transform="translate(78.99999999999977 236.5) rotate(0 -0.2613443685272614 7.774811453744775)"><path d="M-3.57 7.02 C-1.96 9.54, -2.71 10.39, -1.07 14.87 M-2.99 7.42 C-2.46 8.74, -2.34 10.69, -0.73 15.2" stroke="#000000" stroke-width="1" fill="none"></path></g><g transform="translate(78.99999999999977 236.5) rotate(0 -0.2613443685272614 7.774811453744775)"><path d="M1.71 7.55 C2.02 9.89, -0.05 10.61, -1.07 14.87 M2.29 7.95 C1.68 9.15, 0.67 10.98, -0.73 15.2" stroke="#000000" stroke-width="1" fill="none"></path></g></g><g stroke-linecap="round"><g transform="translate(81.49999999999977 271.5) rotate(0 -1.4457721273228117 -7.280080796405684)"><path d="M0.38 0.42 C0.09 -2.08, -1.81 -12.68, -2.04 -14.98 M-0.88 -0.41 C-1.35 -2.75, -3.16 -11.23, -3.27 -13.69" stroke="#000000" stroke-width="1" fill="none"></path></g><g transform="translate(81.49999999999977 271.5) rotate(0 -1.4457721273228117 -7.280080796405684)"><path d="M0.37 -7.56 C-1.11 -8.71, -1.08 -10.06, -2.97 -13.23 M0.38 -7.11 C-1.43 -9.94, -2.43 -12.18, -3.14 -13.56" stroke="#000000" stroke-width="1" fill="none"></path></g><g transform="translate(81.49999999999977 271.5) rotate(0 -1.4457721273228117 -7.280080796405684)"><path d="M-4.57 -6.89 C-4.68 -8.24, -3.29 -9.77, -2.97 -13.23 M-4.56 -6.44 C-4.57 -9.48, -3.75 -11.96, -3.14 -13.56" stroke="#000000" stroke-width="1" fill="none"></path></g></g><g transform="translate(44.49999999999977 10) rotate(0 34.5 12.5)"><text x="0" y="18" font-family="Virgil, Segoe UI Emoji" font-size="20px" fill="#000000" text-anchor="start" style="white-space: pre;" direction="ltr">Memory</text></g></svg>