<svg version="1.1" xmlns="http://www.w3.org/2000/svg" viewBox="0 0 895.1003703795859 115.5404110176346" width="895.1003703795859" height="115.5404110176346">
  <!-- svg-source:excalidraw -->
  
  <defs>
    <style class="style-fonts">
      @font-face {
        font-family: "Virgil";
        src: url("https://excalidraw.com/Virgil.woff2");
      }
      @font-face {
        font-family: "Cascadia";
        src: url("https://excalidraw.com/Cascadia.woff2");
      }
    </style>
  </defs>
  <g stroke-linecap="round" transform="translate(10 46.6160566452254) rotate(0 29.3577668848518 29.3577668848518)"><path d="M14.68 0 M14.68 0 C22.37 -1.11, 32.83 -0.54, 44.04 0 M14.68 0 C23.75 -0.62, 31.26 0.42, 44.04 0 M44.04 0 C52.38 1.38, 59.52 6.35, 58.72 14.68 M44.04 0 C54.4 -1.77, 58.38 2.8, 58.72 14.68 M58.72 14.68 C57.13 25.57, 56.92 31.27, 58.72 44.04 M58.72 14.68 C58.58 26.13, 59.02 37.98, 58.72 44.04 M58.72 44.04 C58.91 54.33, 52.51 58.33, 44.04 58.72 M58.72 44.04 C59.03 52, 52.3 58.5, 44.04 58.72 M44.04 58.72 C39.42 57.76, 31.59 60.14, 14.68 58.72 M44.04 58.72 C36.19 58.4, 27.18 57.53, 14.68 58.72 M14.68 58.72 C5.35 57.36, -0.72 53.04, 0 44.04 M14.68 58.72 C3.35 58.73, -1.97 53.56, 0 44.04 M0 44.04 C-1.28 33.59, -1.87 20.41, 0 14.68 M0 44.04 C0.25 36.07, 1.06 30.23, 0 14.68 M0 14.68 C-0.89 5.24, 6.27 -1.7, 14.68 0 M0 14.68 C1.03 3.03, 4.49 -0.2, 14.68 0" stroke="#000000" stroke-width="2" fill="none"></path></g><g stroke-linecap="round" transform="translate(69.46829702316154 46.6160566452254) rotate(0 29.3577668848518 29.3577668848518)"><path d="M14.68 0 M14.68 0 C27.93 -0.84, 35.86 0.28, 44.04 0 M14.68 0 C23.48 0.16, 31.42 -0.29, 44.04 0 M44.04 0 C54.09 -1.59, 57.4 4.7, 58.72 14.68 M44.04 0 C51.87 1.62, 59.85 6.83, 58.72 14.68 M58.72 14.68 C58.36 21.16, 56.99 29.87, 58.72 44.04 M58.72 14.68 C58.84 22.63, 58.25 31.55, 58.72 44.04 M58.72 44.04 C57.37 53.84, 52.11 58.49, 44.04 58.72 M58.72 44.04 C60.39 56.09, 53.69 57.58, 44.04 58.72 M44.04 58.72 C33.52 57.48, 26.12 58.68, 14.68 58.72 M44.04 58.72 C36.49 59.17, 30.53 58.14, 14.68 58.72 M14.68 58.72 C5.79 57.1, -0.35 53.65, 0 44.04 M14.68 58.72 C2.77 57.19, -1.99 56.06, 0 44.04 M0 44.04 C0.01 33.46, -0.51 27.28, 0 14.68 M0 44.04 C-0.1 36.78, -0.27 28.15, 0 14.68 M0 14.68 C-1.89 4.48, 6.5 1.88, 14.68 0 M0 14.68 C0.4 3.53, 5.68 -1.45, 14.68 0" stroke="#000000" stroke-width="2" fill="none"></path></g><g stroke-linecap="round" transform="translate(128.1838307928656 46.6160566452254) rotate(0 29.3577668848518 29.3577668848518)"><path d="M14.68 0 M14.68 0 C21.99 1.58, 26.24 0.29, 44.04 0 M14.68 0 C25.31 0.27, 33.93 1.18, 44.04 0 M44.04 0 C53.73 1.69, 59.75 4.83, 58.72 14.68 M44.04 0 C55.79 -0.55, 56.83 6.09, 58.72 14.68 M58.72 14.68 C57.87 21.36, 57.05 25.84, 58.72 44.04 M58.72 14.68 C57.71 23.47, 58.85 33.16, 58.72 44.04 M58.72 44.04 C59.6 53.35, 52.57 58.74, 44.04 58.72 M58.72 44.04 C57.15 55.29, 53.19 57.7, 44.04 58.72 M44.04 58.72 C38.22 60.58, 29.1 59.25, 14.68 58.72 M44.04 58.72 C33.79 59.18, 23.47 57.61, 14.68 58.72 M14.68 58.72 C3.29 57.71, -0.18 53.01, 0 44.04 M14.68 58.72 C3.34 59.34, -1.18 52, 0 44.04 M0 44.04 C-0.33 30.77, -1.77 22.9, 0 14.68 M0 44.04 C-0.07 35.68, 1.09 28.65, 0 14.68 M0 14.68 C1.27 6.81, 5.86 1.31, 14.68 0 M0 14.68 C2.2 5.7, 2.71 1.5, 14.68 0" stroke="#000000" stroke-width="2" fill="none"></path></g><g stroke-linecap="round"><g transform="translate(178.6189687745341 45.863293391767456) rotate(0 79.34240969832649 -0.653688122370113)"><path d="M-0.21 -0.24 C26.45 -0.38, 132.09 -1.12, 158.89 -1.07" stroke="#000000" stroke-width="2.5" fill="none" stroke-dasharray="8 10"></path></g></g><g stroke-linecap="round"><g transform="translate(178.6189687745341 105.331590414929) rotate(0 79.9621392052959 -0.48923297859732884)"><path d="M-0.69 -1.07 C26.11 -1.01, 134 0.07, 160.62 0.09" stroke="#000000" stroke-width="2.5" fill="none" stroke-dasharray="8 10"></path></g></g><g stroke-linecap="round" transform="translate(323.90227669187834 46.6160566452254) rotate(0 71.51250907848544 29.3577668848518)"><path d="M14.68 0 M14.68 0 C42.39 -1.91, 68.25 0.47, 128.35 0 M14.68 0 C53.76 -0.7, 91.43 0.02, 128.35 0 M128.35 0 C138.06 2, 143.83 5.2, 143.03 14.68 M128.35 0 C140.06 -2.13, 145.22 3.48, 143.03 14.68 M143.03 14.68 C141.42 22.78, 142.03 30.23, 143.03 44.04 M143.03 14.68 C143.53 24.67, 143.12 32.21, 143.03 44.04 M143.03 44.04 C144.87 53.84, 137.01 60.21, 128.35 58.72 M143.03 44.04 C144.54 53.55, 137.79 58.34, 128.35 58.72 M128.35 58.72 C83.6 58.14, 40.67 58.92, 14.68 58.72 M128.35 58.72 C95.97 60.33, 64.5 59.73, 14.68 58.72 M14.68 58.72 C2.94 60.46, 1.24 53.47, 0 44.04 M14.68 58.72 C6.71 57.41, -1.1 54.49, 0 44.04 M0 44.04 C-0.4 36.15, 1.28 27.84, 0 14.68 M0 44.04 C-0.86 34.4, -0.9 25.04, 0 14.68 M0 14.68 C-1.07 6.22, 5.73 -1.09, 14.68 0 M0 14.68 C1.54 6.27, 2.84 -1.88, 14.68 0" stroke="#000000" stroke-width="2" fill="none"></path></g><g stroke-linecap="round"><g transform="translate(457.8941358073562 45.863293391767456) rotate(0 78.97892053465944 -0.23768326900903958)"><path d="M-0.99 -0.68 C25.55 -0.55, 132.08 0.2, 158.95 0.21" stroke="#000000" stroke-width="2.5" fill="none" stroke-dasharray="8 10"></path></g></g><g stroke-linecap="round"><g transform="translate(457.8941358073562 105.331590414929) rotate(0 79.78382653336621 -0.22020147701846327)"><path d="M-0.64 0.21 C26.23 0.21, 133.41 -0.48, 160.21 -0.65" stroke="#000000" stroke-width="2.5" fill="none" stroke-dasharray="8 10"></path></g></g><g stroke-linecap="round" transform="translate(599.4136274574121 46.6160566452254) rotate(0 29.3577668848518 29.3577668848518)"><path d="M14.68 0 M14.68 0 C20.84 0.73, 27.81 -0.76, 44.04 0 M14.68 0 C21.43 0.25, 28.69 -0.36, 44.04 0 M44.04 0 C54.53 1.98, 57.95 6.57, 58.72 14.68 M44.04 0 C52.35 2.12, 56.53 6.16, 58.72 14.68 M58.72 14.68 C56.79 22.13, 58.87 29.51, 58.72 44.04 M58.72 14.68 C58.23 25.75, 58.1 36.31, 58.72 44.04 M58.72 44.04 C59.08 53.96, 54.61 57.87, 44.04 58.72 M58.72 44.04 C58.02 51.69, 55.47 58.89, 44.04 58.72 M44.04 58.72 C35.32 57.82, 24.33 57.74, 14.68 58.72 M44.04 58.72 C36.43 57.67, 26.42 59.12, 14.68 58.72 M14.68 58.72 C6.84 59.13, 1.1 54.29, 0 44.04 M14.68 58.72 C5.47 58.77, 0.47 54.89, 0 44.04 M0 44.04 C-0.21 34.53, -0.41 23.02, 0 14.68 M0 44.04 C-0.83 34.41, 0.99 25.76, 0 14.68 M0 14.68 C-1.13 3.01, 3.66 -1.32, 14.68 0 M0 14.68 C-0.69 7, 3.42 0.4, 14.68 0" stroke="#000000" stroke-width="2" fill="none"></path></g><g stroke-linecap="round"><g transform="translate(643.8266594114184 45.863293391767456) rotate(0 80.37900019105177 0.2074104454368353)"><path d="M0.96 1.13 C27.78 1.05, 133.29 -0.4, 159.8 -0.71" stroke="#000000" stroke-width="2.5" fill="none" stroke-dasharray="8 10"></path></g></g><g stroke-linecap="round"><g transform="translate(643.8266594114184 105.331590414929) rotate(0 79.1735965770074 -0.23044308163230198)"><path d="M-0.43 -0.47 C25.99 -0.33, 132.28 -0.05, 158.78 0.01" stroke="#000000" stroke-width="2.5" fill="none" stroke-dasharray="8 10"></path></g></g><g stroke-linecap="round" transform="translate(785.3461510614743 46.6160566452254) rotate(0 29.3577668848518 29.3577668848518)"><path d="M14.68 0 M14.68 0 C26.72 1.11, 39.54 0.02, 44.04 0 M14.68 0 C25.57 -0.41, 36.76 1.08, 44.04 0 M44.04 0 C52.5 -0.24, 58.55 4.27, 58.72 14.68 M44.04 0 C55.69 1.08, 60.07 2.7, 58.72 14.68 M58.72 14.68 C56.5 23.71, 57.33 28.8, 58.72 44.04 M58.72 14.68 C59.03 21.27, 59.23 29.97, 58.72 44.04 M58.72 44.04 C59.81 55.37, 55.49 58.36, 44.04 58.72 M58.72 44.04 C59.75 52.43, 53.77 56.79, 44.04 58.72 M44.04 58.72 C35.31 59.09, 26.91 59.87, 14.68 58.72 M44.04 58.72 C37.55 59, 31.18 57.85, 14.68 58.72 M14.68 58.72 C6.6 60.66, -1.63 55.67, 0 44.04 M14.68 58.72 C6.22 56.86, 2.18 54.9, 0 44.04 M0 44.04 C1.21 34.5, -0.01 20.19, 0 14.68 M0 44.04 C-0.68 37.17, -0.41 30.6, 0 14.68 M0 14.68 C1.29 4.95, 5 1.68, 14.68 0 M0 14.68 C1.71 6.55, 5.63 1.22, 14.68 0" stroke="#000000" stroke-width="2" fill="none"></path></g><g transform="translate(31.357766884852026 58.4738235300772) rotate(0 8 17.499999999999886)"><text x="8" y="25" font-family="Virgil, Segoe UI Emoji" font-size="28px" fill="#000000" text-anchor="middle" style="white-space: pre;" direction="ltr"></text></g><g transform="translate(361.4258387841942 56.698954248957534) rotate(0 37 17.500000000000114)"><text x="37" y="25" font-family="Virgil, Segoe UI Emoji" font-size="28px" fill="#000000" text-anchor="middle" style="white-space: pre;" direction="ltr">4096</text></g><g transform="translate(617.7769208491786 56.698954248957534) rotate(0 12.5 17.500000000000114)"><text x="12.5" y="25" font-family="Virgil, Segoe UI Emoji" font-size="28px" fill="#000000" text-anchor="middle" style="white-space: pre;" direction="ltr">17</text></g><g transform="translate(312.4188562126242 19.544212055323896) rotate(0 16 12.5)"><text x="16" y="18" font-family="Virgil, Segoe UI Emoji" font-size="20px" fill="#000000" text-anchor="middle" style="white-space: pre;" direction="ltr">ptr</text></g><g transform="translate(648.6236347201998 19.544212055323896) rotate(0 8 12.5)"><text x="8" y="18" font-family="Virgil, Segoe UI Emoji" font-size="20px" fill="#000000" text-anchor="middle" style="white-space: pre;" direction="ltr">2</text></g><g transform="translate(657.1567937616924 10) rotate(0 8.5 10)"><text x="8.5" y="14" font-family="Virgil, Segoe UI Emoji" font-size="16px" fill="#000000" text-anchor="middle" style="white-space: pre;" direction="ltr">12</text></g><g transform="translate(837.5672113380933 19.544212055323896) rotate(0 8 12.5)"><text x="8" y="18" font-family="Virgil, Segoe UI Emoji" font-size="20px" fill="#000000" text-anchor="middle" style="white-space: pre;" direction="ltr">2</text></g><g transform="translate(850.1003703795859 10) rotate(0 17.5 10)"><text x="17.5" y="14" font-family="Virgil, Segoe UI Emoji" font-size="16px" fill="#000000" text-anchor="middle" style="white-space: pre;" direction="ltr">20-1</text></g><g transform="translate(28.346713871020256 18.791448801865954) rotate(0 8 12.5)"><text x="8" y="18" font-family="Virgil, Segoe UI Emoji" font-size="20px" fill="#000000" text-anchor="middle" style="white-space: pre;" direction="ltr">0</text></g><g transform="translate(97.58435366838603 18.791448801865954) rotate(0 3.5 12.5)"><text x="3.5" y="18" font-family="Virgil, Segoe UI Emoji" font-size="20px" fill="#000000" text-anchor="middle" style="white-space: pre;" direction="ltr">1</text></g><g transform="translate(149.5415976777167 18.791448801865954) rotate(0 8 12.5)"><text x="8" y="18" font-family="Virgil, Segoe UI Emoji" font-size="20px" fill="#000000" text-anchor="middle" style="white-space: pre;" direction="ltr">2</text></g></svg>