<svg version="1.1" xmlns="http://www.w3.org/2000/svg" viewBox="0 0 847.8672725773222 577.9442907223801" width="847.8672725773222" height="577.9442907223801">
  <!-- svg-source:excalidraw -->
  
  <defs>
    <style>
      @font-face {
        font-family: "Virgil";
        src: url("https://excalidraw.com/Virgil.woff2");
      }
      @font-face {
        font-family: "Cascadia";
        src: url("https://excalidraw.com/Cascadia.woff2");
      }
    </style>
  </defs>
  <rect x="0" y="0" width="847.8672725773222" height="577.9442907223801" fill="#ffffff"></rect><g stroke-linecap="round"><g transform="translate(104.19933954927967 50.31478789736798) rotate(0 299.0696659718482 178.75452723307473)" fill-rule="evenodd"><path d="M0 0 C0 0, 0 0, 0 0 M0 0 C0 0, 0 0, 0 0 M0.3 12.37 C1.84 10.18, 3.07 9.74, 6.14 5.57 M0.58 12.33 C1.93 9.89, 4.11 8.14, 5.87 5.54 M-1.69 24.96 C5.14 20.41, 7.73 15.49, 13.84 11.71 M-0.17 25.38 C2.05 21.75, 5.44 17.31, 12.87 9.86 M-1.66 38.67 C6.98 29.01, 11.09 23.22, 19.82 16.05 M0.5 36.18 C5.45 29.3, 11.61 21.08, 18.42 15.42 M1.75 49.55 C6.91 40.73, 11.89 33.82, 24.96 20.63 M-0.11 49.3 C6.08 42.75, 12.24 36.24, 25.47 19.99 M-1.89 59.14 C12.14 49.42, 23.47 34.52, 29.35 24.8 M-0.31 61.19 C10.91 48.65, 21.16 36.51, 30.09 25.91 M-1.63 72.46 C10.47 59.91, 24.16 46.64, 35.12 32.48 M-0.76 72.88 C11.6 60.32, 22.3 46.76, 36.51 30.63 M-0.73 87.14 C9.93 76.87, 17.19 63.61, 41.12 35.57 M0.19 85.93 C12.68 71.17, 25.51 56.03, 43.91 36.78 M1.29 98.06 C14.47 82.13, 27.42 67.08, 48.77 42.09 M0.68 97.9 C13.15 82.67, 26.25 67.95, 48.47 41.2 M1.11 110.45 C23.18 84.34, 45.47 58.54, 56.59 47.54 M-0.02 110.23 C15.16 91.79, 32.17 72.96, 56.07 45.02 M0.24 121.53 C22.21 94.33, 47.41 66.41, 63.47 50.05 M-0.72 122.74 C10.78 107.42, 23.78 93.13, 61.74 51.73 M1.45 133.65 C15.68 117.2, 33.5 96.44, 66.44 57.97 M0.34 135.51 C25.21 103.67, 53.13 71.82, 67.66 55.48 M-1.23 146.88 C17.22 123.62, 35.9 103.82, 71.99 61.01 M-0.34 146.37 C28.73 112.76, 57.88 78.72, 74.61 61.12 M-2.06 160.15 C20.12 135.35, 42.39 113.35, 78.51 65.65 M-0.91 158.78 C17.32 137.97, 34.87 117.99, 80.67 66.33 M1.01 172.89 C19.99 147.14, 42 120.5, 86.25 71.19 M-1.31 172.34 C23.27 145.52, 46.09 119.99, 85.29 72.6 M-1.2 182.15 C35.8 143.76, 70.72 99.02, 91.81 77.2 M-0.69 182.65 C35.05 142.45, 69.93 100.7, 91.99 77.35 M0.88 195.2 C35.59 150.63, 75.42 109.54, 99.39 82.6 M-1.2 194.81 C38.15 149.61, 78.26 105.58, 97.84 81.98 M0.04 206.68 C34.13 172.08, 63.46 134.97, 106.59 85.31 M0.63 207.31 C39.69 161.13, 79.52 116.07, 105.44 86.17 M0.87 220.23 C20.29 195.07, 44.91 166.39, 111.72 93.34 M-1.31 220.52 C35.89 176.05, 73.34 131.98, 110.32 91.94 M0.25 233.58 C36.28 187.76, 74.89 147.08, 116.25 96.21 M-0.06 232.56 C39.1 185.48, 80.29 138.73, 115.71 97.75 M1.29 243.22 C36.33 202.97, 72.59 161.36, 122.75 101.05 M-1.42 244.8 C49.85 189.38, 97.39 132.16, 122.6 103.49 M-2.17 257.49 C39.17 209.86, 79.06 164.36, 129.37 107.97 M-1.31 255.77 C39.89 211.54, 80.86 164.36, 128.43 106.64 M-1 270.14 C51.97 207.63, 106.93 143.6, 136.95 113.11 M-1 269.58 C31.61 231.48, 64.61 193.25, 134.62 112.25 M-2.09 281.83 C53.6 219.55, 103.7 161.17, 139.97 116.82 M-0.48 281.88 C47.52 224.43, 96.93 168.1, 142.04 117.31 M0.48 292.33 C41.16 247.55, 78.25 204.98, 146.91 121.54 M-0.13 293.45 C43.26 242.74, 87.17 192.99, 147.76 122.66 M0.52 305.11 C49.32 246.99, 98.53 188.22, 154.23 128.09 M-0.21 305.62 C56.11 241.95, 111.65 177.98, 154.11 127.46 M-2.2 318.56 C34.49 273.07, 73.04 229.85, 158.93 132.63 M-0.33 317.6 C53.92 256.87, 107.14 194.51, 160 133.43 M-1.67 330.09 C48.62 271.67, 97.3 215.03, 167.14 139.28 M-1.75 330.91 C60.84 259.93, 120.96 189.21, 166.88 138.14 M-1.18 343.79 C41.39 294.47, 82.66 245.2, 173.13 143.47 M-1.41 343.13 C53.62 279.48, 106.1 218.3, 172.77 143.88 M0.11 355.43 C45.01 300.24, 94.48 247.45, 178.12 147.18 M-1.39 354.76 C68.45 274.46, 138.38 193.05, 177.94 148.91 M3.9 359.53 C75.73 279.09, 147.73 195.34, 185.57 155.13 M4.03 360.56 C62.76 295.43, 119.95 229.54, 183.84 152.95 M15.12 360.1 C72.69 292.75, 130.36 228.83, 190.9 158.88 M15.33 361.37 C75.9 288.49, 138.94 215.83, 190.67 158.53 M24.56 360.43 C61.67 319.16, 100.14 278.64, 196.05 164.07 M26.03 360.5 C66.04 315.73, 105.58 270.88, 196.59 163.33 M35.48 362.48 C81.7 312.49, 124.47 261.64, 202.21 168.66 M35.34 360.76 C72.64 318.99, 108.66 277.84, 202.89 168.48 M47.48 359.5 C105.5 292.03, 168.25 219.16, 208.85 174.14 M46.44 361.14 C86.77 312.57, 130.02 262.52, 208.61 173.29 M57.07 359.64 C110.33 300.44, 162.51 239.16, 215.73 179.18 M57.78 361.41 C90.19 322.96, 124.39 282.84, 215.92 179.06 M69.18 360.13 C129.54 292.49, 190.93 221.45, 221.79 185.39 M67.91 361.33 C127.6 291.32, 188.54 222.79, 220.98 184.11 M78.81 360.25 C125.18 308.61, 173.76 254.03, 226.75 190.82 M78.9 361.41 C111.96 321.27, 145.69 283.39, 227.29 189.56 M89.29 361.64 C138.99 302.2, 188.93 246.6, 233.4 192.57 M89.74 360.33 C143.65 299.57, 195.36 239.31, 234.73 194.33 M100.49 361.49 C133.31 323.69, 168.77 281.48, 239.78 200.38 M99.7 360.9 C153.95 298.17, 207.37 234.89, 240.25 198.93 M110.22 359.53 C148.85 313.39, 189.55 269.89, 244.6 204.5 M110.16 360.5 C148.98 316.47, 185.32 272.63, 245.33 205.21 M119.38 361.85 C156.29 321.51, 190.37 280.45, 253.43 210.09 M121.22 360.58 C161.36 312.71, 202.94 263.26, 251.78 209.75 M129.48 360.24 C168 317.77, 205.75 274.46, 259.78 215.64 M131.04 361.18 C178.96 304.31, 229.98 247.22, 258.96 214.34 M140.18 362.14 C167.21 329.6, 196.55 297.73, 263.8 219.8 M142.08 360.62 C175.96 322.48, 210.3 284.12, 263.24 220.24 M153.7 361.38 C179.6 331.06, 206.21 300.97, 269.14 225.18 M151.66 360.87 C191.39 317.21, 228.96 273.35, 270.81 225.69 M164.17 362.51 C190.4 330.22, 214.34 303.39, 277.26 229.37 M162.48 361.6 C207.1 310.49, 251.46 259.89, 277.26 230.08 M174.64 361.83 C207.79 320.73, 243.71 280.8, 282.76 235.06 M174.04 361.83 C199.73 329.69, 229.05 296.05, 284.81 234.8 M183.02 359.51 C214.48 323.66, 249.39 288.83, 293.28 236.94 M184.71 360.86 C206.25 333.97, 231.11 307.33, 292.5 236.99 M195.91 359.71 C233.17 315.94, 276.1 269.34, 302.07 238.81 M193.79 361.21 C226.1 325.2, 259.25 285.42, 300.86 239.47 M206.47 362.69 C241.21 318.8, 274.45 282.17, 306.46 240.95 M205.57 361.59 C227.64 333.69, 252.43 306.5, 308.63 242.88 M216.32 360.95 C242.18 328.11, 271.03 296.04, 317.1 245.02 M215.41 361.77 C237.99 336.84, 256.74 313.65, 316.17 245.4 M225.41 359.37 C261.12 324.26, 291.95 284.66, 323.21 250.91 M225.78 361.58 C257.66 326.32, 287.62 292.03, 322.87 250.46 M237.86 359.3 C256.65 338.45, 274.82 314.63, 333.03 253.85 M236.33 361.83 C273.19 320.86, 307.23 279.93, 331.83 252.61 M247.25 363.47 C284.67 318.11, 319.8 278.07, 339.78 257.1 M247.31 361.99 C270.58 336.59, 291.8 310.89, 340 255.03 M257.06 361.07 C291.89 323.03, 324.46 281.22, 346.18 257 M258.22 362.1 C280.02 335.49, 303.83 309.92, 346.82 259.43 M266.6 360.43 C291.22 332.79, 316.65 307.18, 357.63 259.9 M267.99 362.27 C286.47 340.31, 304.83 319.71, 355.7 261.74 M279.58 362.11 C310.77 324.24, 341.53 289.78, 363.46 267.01 M279.61 362.57 C295.88 341.3, 313.61 322.92, 363.38 265.82 M289.25 363.78 C309.42 339.94, 330.11 317.46, 369.41 267.5 M289.6 362.75 C316.22 331.44, 342.84 302.12, 370.6 267.36 M300.33 360.36 C315.72 342.33, 330.08 327.12, 379.58 271.2 M300 361.14 C328.66 330.14, 357.41 296.1, 378.28 271.33 M310.85 360.11 C331.25 338.9, 348.06 317.52, 388.93 273.63 M310.49 361.61 C333.8 335.14, 356.66 307.42, 386.16 273.95 M322.05 360.81 C338.05 342.62, 356.98 322.9, 396.47 276.97 M322.42 362.51 C338.49 341.93, 354.79 323.8, 394.24 276.33 M332.24 361.83 C358.26 330.4, 384.5 299.82, 402.53 282.86 M332.89 361.6 C358.32 332.69, 382.65 303.03, 402.15 280.21 M342.67 360.27 C357.05 344.09, 373.73 327.31, 409.24 285.55 M342.82 361 C359.6 342.39, 374.53 325.65, 409.88 283.82 M355.43 363.13 C374.72 336.76, 397.82 311.77, 418.42 288.54 M352.97 362.09 C375.87 337.59, 397.54 311.09, 417.87 287.41 M363.3 363.36 C385.43 338.55, 405.04 311.03, 428.16 289.7 M364.05 362.49 C378.26 346.74, 391.04 330.56, 425.7 289.11 M374.98 360.8 C395.87 337.26, 417.88 312.1, 433.98 294.11 M374.12 361.76 C395.69 337.38, 418.31 311.91, 433.54 292.67 M383.6 363.26 C405.48 339.32, 424.02 315.52, 442.07 295.01 M385.24 361.26 C403.62 338.87, 422.75 317.34, 441.48 297.12 M396.61 363.18 C414.84 338.52, 435.98 318.65, 449.79 298.82 M395.63 361.66 C406.68 348.31, 418.83 334.56, 450.3 298.71 M404.36 362.71 C426.7 341, 442.67 320.02, 459.62 301.87 M406.35 362.87 C422.98 341.93, 438.93 323.38, 457.53 302.36 M417.24 362.65 C434.37 339.63, 450.59 319.08, 467.61 307.46 M416.7 361.68 C433.22 344.38, 448.07 324.46, 466.16 305.59 M427.6 362.52 C441.97 344.6, 457.42 327.02, 472.01 307.51 M426.3 362.76 C440.15 346.87, 452.6 333.25, 473.43 308.94 M439.63 360.69 C450.79 347.91, 461.61 334.35, 481.73 311.66 M437.12 361.54 C455.2 343.59, 470.58 323.4, 481.43 311.95 M447.21 362.55 C462.25 344.45, 478.76 326.91, 490.27 315.94 M447.58 361.21 C457.48 350.71, 467.28 340.05, 489.3 314.56 M459.77 360.57 C467.67 352.33, 480.29 340.83, 496.27 319.85 M458.57 361.58 C471.4 347.94, 486.26 332.06, 497.91 319.04 M468.22 362.48 C484.57 346.4, 494.54 331.86, 504.65 319.26 M469.57 362.09 C477.29 354.36, 484.37 345.41, 505.22 321.75 M478.78 363.37 C486.1 351.97, 494.33 344.33, 511.9 323.27 M480.64 362.7 C488.24 353.92, 495.72 344.29, 511.72 324.72 M490.22 362.57 C496.73 352.11, 507.21 341.81, 518.56 327.36 M489.91 363.62 C501.17 350.4, 512.37 336.01, 521.13 327.66 M502.35 360.75 C508.97 353.36, 518.57 343.11, 527.13 329.97 M500.18 363.18 C510.14 352.39, 518.21 342.45, 528.5 331.39 M509.96 360.6 C520.39 351.86, 530.81 341.76, 534.6 333.7 M511.11 363.35 C518.51 354.7, 525.07 349.27, 536.89 333.76 M523.31 363.92 C527.33 354.31, 534.09 350.97, 545.66 338.08 M521.88 361.61 C529.71 354.36, 535.51 347.56, 544.82 337.34 M533.39 364.46 C538.62 355.36, 544.49 351.25, 549.91 340.56 M532.62 362.68 C538.77 354.84, 545.93 348.46, 551.62 341.13 M541.72 364.14 C550.13 357.23, 553.11 350.2, 558.38 345.53 M544.42 363.44 C547.64 358.31, 550.98 355.04, 560.16 344.45 M554.32 361.08 C559.88 358.25, 566.44 351.7, 569.45 345.02 M553.46 361.86 C557.14 359.39, 561.45 353.74, 566.95 346.43 M563.67 361.86 C566.43 360.71, 570.45 355.27, 577.14 348.07 M564.97 362.03 C568 358.05, 571.73 354.57, 576.73 349.87 M574.31 361.6 C577.95 359.5, 579.08 358.5, 584.88 352.35 M575.48 362.61 C576.77 359.57, 578.83 357.36, 584.3 352.97 M586.68 362.58 C587.18 360.08, 588.64 359.5, 591.24 355.87 M586.32 362.64 C587.82 360.44, 588.68 358.82, 591.4 356.02" stroke="#868e96" stroke-width="1" fill="none"></path><path d="M-0.32 -1.26 C-0.85 89.26, -1.32 177.83, -0.37 355.6 M-0.24 -0.12 C-0.16 71.31, -0.38 143.33, -0.82 355.56 M-0.82 355.58 C138.89 358.28, 278.15 359.33, 598.61 358.49 M-1.34 356.07 C127.76 354.31, 256.41 355.14, 599.48 357.7 M598.36 357.81 C474.8 307, 349.4 257.58, 275.5 228.48 M598.89 358.05 C504.78 319.32, 411.16 281.25, 274.49 227.7 M275.49 227.9 C204.45 170.64, 132.37 110.38, -0.18 0.47 M273.71 228.61 C189.21 156.62, 104.45 85.97, 0.52 -0.09 M0 0 C0 0, 0 0, 0 0 M0 0 C0 0, 0 0, 0 0" stroke="#000000" stroke-width="2" fill="none"></path></g></g><g stroke-linecap="round"><g transform="translate(105.57034637455149 409.55926524236736) rotate(0 366.14846310138535 0)"><path d="M0 0 C250.54 0, 501.07 0, 732.3 0 M0 0 C178.9 0, 357.81 0, 732.3 0" stroke="#000000" stroke-width="4" fill="none"></path></g><g transform="translate(105.57034637455149 409.55926524236736) rotate(0 366.14846310138535 0)"><path d="M704.11 10.26 C713.75 6.75, 723.4 3.24, 732.3 0 M704.11 10.26 C710.99 7.75, 717.88 5.25, 732.3 0" stroke="#000000" stroke-width="4" fill="none"></path></g><g transform="translate(105.57034637455149 409.55926524236736) rotate(0 366.14846310138535 0)"><path d="M704.11 -10.26 C713.75 -6.75, 723.4 -3.24, 732.3 0 M704.11 -10.26 C710.99 -7.75, 717.88 -5.25, 732.3 0" stroke="#000000" stroke-width="4" fill="none"></path></g></g><g stroke-linecap="round"><g transform="translate(-95.41323618712772 209.50977143787156) rotate(270 199.50977143787156 0)"><path d="M0 0 C90.36 0, 180.71 0, 399.02 0 M0 0 C107.44 0, 214.88 0, 399.02 0" stroke="#000000" stroke-width="4" fill="none"></path></g><g transform="translate(-95.41323618712772 209.50977143787156) rotate(270 199.50977143787156 0)"><path d="M370.83 10.26 C377.21 7.94, 383.6 5.61, 399.02 0 M370.83 10.26 C378.42 7.5, 386.01 4.74, 399.02 0" stroke="#000000" stroke-width="4" fill="none"></path></g><g transform="translate(-95.41323618712772 209.50977143787156) rotate(270 199.50977143787156 0)"><path d="M370.83 -10.26 C377.21 -7.94, 383.6 -5.61, 399.02 0 M370.83 -10.26 C378.42 -7.5, 386.01 -4.74, 399.02 0" stroke="#000000" stroke-width="4" fill="none"></path></g></g><g stroke-linecap="round" transform="translate(375.16863090190895 274.0718683761489) rotate(0 6.271570113844177 6.271570113844177)"><path d="M12.54 6.27 C12.54 6.63, 12.51 7, 12.45 7.36 C12.38 7.72, 12.29 8.08, 12.16 8.42 C12.04 8.76, 11.88 9.09, 11.7 9.41 C11.52 9.72, 11.31 10.02, 11.08 10.3 C10.84 10.58, 10.58 10.84, 10.3 11.08 C10.02 11.31, 9.72 11.52, 9.41 11.7 C9.09 11.88, 8.76 12.04, 8.42 12.16 C8.08 12.29, 7.72 12.38, 7.36 12.45 C7 12.51, 6.63 12.54, 6.27 12.54 C5.91 12.54, 5.54 12.51, 5.18 12.45 C4.83 12.38, 4.47 12.29, 4.13 12.16 C3.79 12.04, 3.45 11.88, 3.14 11.7 C2.82 11.52, 2.52 11.31, 2.24 11.08 C1.96 10.84, 1.7 10.58, 1.47 10.3 C1.23 10.02, 1.02 9.72, 0.84 9.41 C0.66 9.09, 0.5 8.76, 0.38 8.42 C0.25 8.08, 0.16 7.72, 0.1 7.36 C0.03 7, 0 6.63, 0 6.27 C0 5.91, 0.03 5.54, 0.1 5.18 C0.16 4.83, 0.25 4.47, 0.38 4.13 C0.5 3.79, 0.66 3.45, 0.84 3.14 C1.02 2.82, 1.23 2.52, 1.47 2.24 C1.7 1.96, 1.96 1.7, 2.24 1.47 C2.52 1.23, 2.82 1.02, 3.14 0.84 C3.45 0.66, 3.79 0.5, 4.13 0.38 C4.47 0.25, 4.83 0.16, 5.18 0.1 C5.54 0.03, 5.91 0, 6.27 0 C6.63 0, 7 0.03, 7.36 0.1 C7.72 0.16, 8.08 0.25, 8.42 0.38 C8.76 0.5, 9.09 0.66, 9.41 0.84 C9.72 1.02, 10.02 1.23, 10.3 1.47 C10.58 1.7, 10.84 1.96, 11.08 2.24 C11.31 2.52, 11.52 2.82, 11.7 3.14 C11.88 3.45, 12.04 3.79, 12.16 4.13 C12.29 4.47, 12.38 4.83, 12.45 5.18 C12.51 5.54, 12.53 6.09, 12.54 6.27 C12.56 6.45, 12.56 6.09, 12.54 6.27" stroke="none" stroke-width="0" fill="#868e96"></path><path d="M12.54 6.27 C12.54 6.63, 12.51 7, 12.45 7.36 C12.38 7.72, 12.29 8.08, 12.16 8.42 C12.04 8.76, 11.88 9.09, 11.7 9.41 C11.52 9.72, 11.31 10.02, 11.08 10.3 C10.84 10.58, 10.58 10.84, 10.3 11.08 C10.02 11.31, 9.72 11.52, 9.41 11.7 C9.09 11.88, 8.76 12.04, 8.42 12.16 C8.08 12.29, 7.72 12.38, 7.36 12.45 C7 12.51, 6.63 12.54, 6.27 12.54 C5.91 12.54, 5.54 12.51, 5.18 12.45 C4.83 12.38, 4.47 12.29, 4.13 12.16 C3.79 12.04, 3.45 11.88, 3.14 11.7 C2.82 11.52, 2.52 11.31, 2.24 11.08 C1.96 10.84, 1.7 10.58, 1.47 10.3 C1.23 10.02, 1.02 9.72, 0.84 9.41 C0.66 9.09, 0.5 8.76, 0.38 8.42 C0.25 8.08, 0.16 7.72, 0.1 7.36 C0.03 7, 0 6.63, 0 6.27 C0 5.91, 0.03 5.54, 0.1 5.18 C0.16 4.83, 0.25 4.47, 0.38 4.13 C0.5 3.79, 0.66 3.45, 0.84 3.14 C1.02 2.82, 1.23 2.52, 1.47 2.24 C1.7 1.96, 1.96 1.7, 2.24 1.47 C2.52 1.23, 2.82 1.02, 3.14 0.84 C3.45 0.66, 3.79 0.5, 4.13 0.38 C4.47 0.25, 4.83 0.16, 5.18 0.1 C5.54 0.03, 5.91 0, 6.27 0 C6.63 0, 7 0.03, 7.36 0.1 C7.72 0.16, 8.08 0.25, 8.42 0.38 C8.76 0.5, 9.09 0.66, 9.41 0.84 C9.72 1.02, 10.02 1.23, 10.3 1.47 C10.58 1.7, 10.84 1.96, 11.08 2.24 C11.31 2.52, 11.52 2.82, 11.7 3.14 C11.88 3.45, 12.04 3.79, 12.16 4.13 C12.29 4.47, 12.38 4.83, 12.45 5.18 C12.51 5.54, 12.53 6.09, 12.54 6.27 C12.56 6.45, 12.56 6.09, 12.54 6.27" stroke="#000000" stroke-width="1" fill="none"></path></g><g stroke-linecap="round"><g transform="translate(104.5616447013922 107.19669677904832) rotate(0 241.26539393807002 151.08799634265623)"><path d="M-0.62 -0.23 C79.46 49.95, 400.42 251.78, 480.93 301.96 M1.26 -1.4 C81.67 48.92, 403.04 253.07, 483.15 303.58" stroke="#c92a2a" stroke-width="2" fill="none"></path></g></g><g stroke-linecap="round"><g transform="translate(106.73547561406792 169.51318294241784) rotate(0 298.73070580601603 119.7629738405565)"><path d="M0.16 0.53 C99.61 40.65, 496.76 200.16, 596.47 239.76 M-1.22 -0.23 C98.62 39.62, 498.78 198.12, 598.68 237.97" stroke="#e67700" stroke-width="2" fill="none"></path></g></g><g stroke-linecap="round"><g transform="translate(104.19933954927967 52.126313657931064) rotate(0 219.57159779581622 177.73767060564515)"><path d="M0.61 -1.07 C73.62 58.32, 364.53 295.77, 437.58 355.27 M-0.53 0.99 C72.87 60.63, 366.55 297.15, 439.67 356.54" stroke="#1864ab" stroke-width="2" fill="none"></path></g></g><g transform="translate(10 174.64993328607562) rotate(0 9.5 23)"><text x="0" y="32" font-family="Virgil, Segoe UI Emoji" font-size="36px" fill="#000000" text-anchor="start" style="white-space: pre;" direction="ltr">b</text></g><g transform="translate(170.9792349453894 521.9442907223801) rotate(0 278 23)"><text x="0" y="32" font-family="Virgil, Segoe UI Emoji" font-size="36px" fill="#000000" text-anchor="start" style="white-space: pre;" direction="ltr">y=ax+b,  y=0,  0=ax+b, x=-b/a</text></g><g transform="translate(101.53385238821943 423.91668726431067) rotate(0 305.6454182917423 43.724870498958865)" stroke="none"><path fill="#000000" d="M 2.54,0 Q 2.54,0 2.53,1.47 2.51,2.95 2.58,4.94 2.65,6.93 2.66,8.12 2.67,9.31 3.39,10.49 4.10,11.68 4.50,13.23 4.89,14.79 5.37,15.74 5.85,16.69 6.66,17.72 7.48,18.74 8.35,19.93 9.23,21.11 10.42,21.27 11.62,21.44 13.26,21.94 14.90,22.44 18.51,23.02 22.12,23.59 24.29,24.17 26.47,24.75 28.00,24.91 29.54,25.07 30.69,25.09 31.84,25.10 33.80,25.71 35.77,26.32 36.89,26.46 38.01,26.61 40.10,26.81 42.20,27.01 44.02,27.31 45.83,27.60 47.21,27.68 48.59,27.75 50.15,27.78 51.70,27.82 54.08,27.95 56.47,28.07 57.74,28.01 59.00,27.95 60.28,27.90 61.56,27.84 64.16,28.21 66.77,28.57 68.78,28.74 70.78,28.90 72.13,28.88 73.49,28.85 76.01,28.95 78.54,29.06 80.61,29.11 82.68,29.17 84.54,29.16 86.40,29.15 89.48,29.46 92.55,29.76 94.31,29.83 96.07,29.89 97.78,29.90 99.49,29.91 102.93,29.99 106.36,30.06 108.81,30.11 111.26,30.16 113.04,30.12 114.82,30.08 118.04,30.13 121.26,30.17 123.37,30.20 125.48,30.23 128.10,30.25 130.72,30.28 133.56,30.29 136.40,30.31 139.83,30.32 143.25,30.34 146.93,30.35 150.60,30.36 153.64,30.36 156.68,30.37 162.41,30.37 168.14,30.38 171.56,30.38 174.98,30.39 177.42,30.39 179.86,30.39 182.38,30.39 184.89,30.39 192.12,30.40 199.36,30.40 203.42,30.40 207.47,30.40 211.42,30.40 215.36,30.40 220.49,30.40 225.62,30.40 230.01,30.40 234.41,30.40 240.47,30.40 246.53,30.40 250.83,30.40 255.13,30.40 257.45,30.40 259.77,30.40 264.95,30.40 270.12,30.40 274.54,30.40 278.96,30.40 281.82,30.40 284.69,30.40 290.10,30.40 295.50,30.40 299.03,30.40 302.56,30.40 306.78,30.40 310.99,30.40 313.27,30.40 315.55,30.40 317.26,30.32 318.97,30.24 320.93,30.22 322.89,30.21 326.44,30.23 329.98,30.26 332.47,30.28 334.96,30.30 337.63,29.83 340.29,29.36 344.27,29.15 348.25,28.95 351.15,28.86 354.06,28.78 356.28,28.75 358.50,28.72 362.90,28.70 367.30,28.69 370.16,28.69 373.01,28.68 377.67,28.68 382.34,28.68 385.31,28.68 388.27,28.68 392.25,28.68 396.22,28.68 398.40,28.68 400.58,28.69 405.00,28.93 409.41,29.18 412.00,29.29 414.59,29.39 416.91,29.43 419.24,29.48 422.20,29.50 425.15,29.52 426.90,29.45 428.66,29.38 430.14,29.29 431.63,29.20 433.16,29.38 434.68,29.56 436.39,29.65 438.10,29.74 441.10,30.01 444.11,30.28 445.38,30.32 446.64,30.36 448.29,30.65 449.93,30.94 451.40,30.98 452.87,31.02 455.17,32.31 457.46,33.59 459.01,34.59 460.57,35.59 462.49,36.38 464.41,37.18 465.86,37.73 467.32,38.28 468.40,39.18 469.49,40.07 470.63,40.84 471.77,41.61 472.90,42.97 474.02,44.34 474.71,45.68 475.39,47.03 475.85,48.04 476.30,49.05 477.57,50.88 478.83,52.72 479.74,53.80 480.65,54.89 481.91,55.92 483.17,56.96 484.04,57.94 484.91,58.92 485.53,59.91 486.15,60.90 487.40,62.09 488.65,63.29 489.65,64.60 490.65,65.91 491.72,67.46 492.78,69.01 493.52,70.08 494.25,71.14 495.02,72.37 495.79,73.60 496.50,74.39 497.22,75.18 498.40,76.64 499.58,78.10 500.37,79.36 501.16,80.61 501.61,82.35 502.06,84.10 501.95,84.21 501.84,84.32 502.12,84.62 502.41,84.91 502.61,85.27 502.81,85.63 502.92,86.03 503.03,86.42 503.04,86.83 503.06,87.24 502.97,87.65 502.89,88.05 502.71,88.42 502.53,88.79 502.26,89.10 502.00,89.42 501.67,89.66 501.34,89.91 500.96,90.07 500.58,90.22 500.17,90.29 499.77,90.35 499.36,90.31 498.95,90.27 498.56,90.14 498.17,90.01 497.83,89.78 497.48,89.56 497.08,87.45 496.67,85.35 496.86,83.71 497.04,82.08 497.53,81.06 498.02,80.05 498.45,78.56 498.88,77.07 499.87,75.92 500.87,74.77 501.57,72.95 502.26,71.14 503.31,69.60 504.35,68.07 505.05,66.81 505.75,65.55 506.76,64.55 507.77,63.56 508.64,62.35 509.51,61.13 510.36,59.77 511.21,58.40 511.99,57.60 512.77,56.79 513.89,55.55 515.01,54.32 516.38,53.10 517.75,51.89 518.76,50.59 519.77,49.29 520.66,48.66 521.55,48.04 523.08,47.26 524.61,46.48 526.82,45.69 529.02,44.90 530.91,44.79 532.80,44.69 535.65,44.06 538.50,43.44 539.95,43.38 541.40,43.32 542.76,43.31 544.12,43.30 545.94,43.41 547.75,43.51 549.26,43.54 550.76,43.58 552.39,43.63 554.01,43.68 555.44,43.69 556.87,43.70 558.47,43.74 560.06,43.78 561.23,43.75 562.39,43.72 564.23,43.33 566.06,42.93 567.51,42.78 568.96,42.64 570.03,42.42 571.10,42.21 572.92,41.98 574.74,41.74 576.10,41.49 577.46,41.24 578.55,41.06 579.64,40.89 581.04,40.59 582.44,40.30 584.19,40.02 585.93,39.74 587.46,39.26 588.98,38.78 590.14,38.27 591.30,37.77 592.62,37.28 593.94,36.79 595.17,36.51 596.40,36.22 597.12,35.01 597.85,33.79 598.94,32.55 600.04,31.31 601.34,29.13 602.63,26.94 604.06,24.61 605.49,22.28 606.34,20.91 607.19,19.53 607.73,18.51 608.26,17.49 608.50,15.86 608.74,14.23 608.86,13.83 608.98,13.43 609.23,13.09 609.47,12.76 609.81,12.51 610.14,12.27 610.54,12.15 610.94,12.03 611.35,12.04 611.77,12.05 612.16,12.19 612.55,12.33 612.87,12.59 613.19,12.85 613.42,13.20 613.64,13.55 613.74,13.96 613.84,14.36 613.81,14.77 613.78,15.19 613.61,15.57 613.45,15.95 613.17,16.26 612.90,16.57 612.54,16.77 612.17,16.98 611.77,17.06 611.36,17.14 610.95,17.08 610.54,17.02 610.16,16.84 609.79,16.66 609.50,16.36 609.20,16.07 609.02,15.70 608.83,15.33 608.78,14.91 608.72,14.50 608.80,14.10 608.88,13.69 609.08,13.33 609.28,12.96 609.59,12.69 609.90,12.41 610.28,12.24 610.66,12.08 611.08,12.05 611.49,12.01 611.89,12.11 612.30,12.21 612.65,12.43 613.00,12.66 613.26,12.98 613.52,13.30 613.66,13.69 613.81,14.08 613.82,14.50 613.83,14.91 613.83,14.91 613.83,14.91 613.20,17.40 612.57,19.89 611.93,20.97 611.29,22.05 610.54,23.29 609.78,24.53 608.59,27.20 607.40,29.87 606.72,31.05 606.03,32.24 605.24,33.69 604.45,35.14 603.75,35.95 603.05,36.75 601.98,38.39 600.91,40.04 599.92,40.67 598.94,41.30 597.36,41.52 595.77,41.74 594.58,42.19 593.39,42.63 592.13,43.17 590.87,43.72 589.01,44.52 587.16,45.33 585.59,45.77 584.02,46.21 582.75,46.53 581.47,46.84 580.31,46.90 579.15,46.96 577.11,47.25 575.06,47.55 573.62,47.62 572.18,47.70 569.98,47.97 567.78,48.25 566.58,48.30 565.38,48.35 563.90,48.60 562.41,48.86 561.24,48.84 560.06,48.81 558.47,48.85 556.88,48.89 555.45,48.90 554.02,48.91 552.40,48.97 550.78,49.03 549.29,49.08 547.80,49.12 546.05,49.26 544.30,49.39 543.06,49.46 541.83,49.53 539.86,49.73 537.89,49.92 535.44,50.66 533.00,51.40 531.64,51.46 530.29,51.51 529.26,51.91 528.24,52.31 527.15,52.76 526.06,53.21 524.99,53.90 523.92,54.58 523.14,55.64 522.37,56.71 521.52,57.55 520.67,58.40 519.42,59.31 518.16,60.21 516.86,61.58 515.56,62.95 514.50,64.83 513.43,66.70 512.81,67.59 512.19,68.47 511.42,69.48 510.65,70.48 509.77,71.74 508.90,73.00 508.38,73.97 507.87,74.93 507.43,76.23 506.99,77.52 505.82,79.09 504.64,80.67 503.94,82.83 503.24,85.00 503.04,86.56 502.84,88.13 502.34,86.22 501.84,84.32 502.12,84.61 502.40,84.91 502.61,85.27 502.81,85.63 502.92,86.03 503.03,86.42 503.04,86.83 503.06,87.24 502.97,87.65 502.89,88.05 502.71,88.42 502.53,88.79 502.26,89.10 502.00,89.42 501.67,89.66 501.34,89.91 500.96,90.07 500.58,90.22 500.17,90.29 499.77,90.35 499.36,90.31 498.95,90.28 498.56,90.14 498.17,90.01 497.83,89.79 497.48,89.56 497.29,89.10 497.11,88.63 496.49,87.71 495.88,86.79 495.61,85.61 495.33,84.42 494.86,83.06 494.39,81.70 493.41,80.63 492.44,79.56 491.53,78.42 490.62,77.27 489.71,75.76 488.80,74.25 488.02,72.94 487.24,71.64 486.54,70.59 485.85,69.54 484.67,67.80 483.50,66.05 482.55,65.30 481.61,64.55 480.76,62.98 479.91,61.42 478.28,59.89 476.66,58.37 475.61,57.20 474.55,56.04 473.22,54.53 471.88,53.03 471.13,51.48 470.38,49.94 469.56,48.45 468.73,46.95 467.92,46.18 467.11,45.41 465.49,44.20 463.87,43.00 462.09,42.10 460.32,41.20 459.06,40.63 457.81,40.06 456.21,38.83 454.62,37.60 453.48,36.65 452.33,35.69 450.74,35.37 449.15,35.05 447.71,34.75 446.28,34.45 444.93,34.27 443.58,34.08 440.73,33.73 437.88,33.38 435.96,33.26 434.04,33.14 432.82,32.82 431.61,32.51 430.13,32.41 428.64,32.31 426.89,32.23 425.14,32.15 422.16,32.13 419.19,32.11 416.84,32.06 414.49,32.02 411.87,31.91 409.26,31.81 404.92,31.56 400.58,31.32 398.40,31.32 396.22,31.32 392.25,31.32 388.27,31.33 385.31,31.33 382.34,31.33 377.68,31.34 373.02,31.34 370.16,31.35 367.31,31.36 362.93,31.38 358.55,31.40 356.34,31.44 354.14,31.49 351.27,31.58 348.40,31.68 344.59,31.89 340.77,32.10 337.87,32.62 334.97,33.13 332.47,33.15 329.98,33.17 326.44,33.20 322.89,33.23 320.93,33.21 318.97,33.19 317.26,33.11 315.55,33.03 313.27,33.03 310.99,33.03 306.78,33.03 302.56,33.03 299.03,33.03 295.50,33.03 290.10,33.03 284.69,33.03 281.82,33.03 278.96,33.03 274.54,33.03 270.12,33.03 264.95,33.03 259.77,33.03 257.45,33.03 255.13,33.03 250.83,33.03 246.53,33.03 240.47,33.03 234.41,33.03 230.01,33.03 225.62,33.03 220.49,33.03 215.36,33.03 211.42,33.03 207.47,33.04 203.42,33.04 199.36,33.04 192.12,33.04 184.89,33.04 182.38,33.04 179.86,33.04 177.42,33.05 174.98,33.05 171.56,33.05 168.14,33.06 162.41,33.06 156.68,33.07 153.64,33.07 150.60,33.08 146.93,33.09 143.25,33.10 139.83,33.11 136.40,33.12 133.56,33.14 130.72,33.16 128.10,33.18 125.48,33.20 123.37,33.23 121.26,33.26 118.04,33.30 114.81,33.34 113.03,33.29 111.25,33.25 108.80,33.28 106.34,33.31 102.87,33.35 99.40,33.39 97.64,33.31 95.87,33.23 94.08,33.09 92.29,32.94 89.35,32.75 86.40,32.56 84.53,32.54 82.66,32.53 80.59,32.57 78.51,32.61 75.94,32.67 73.36,32.74 71.98,32.62 70.60,32.50 68.49,32.46 66.39,32.42 63.96,32.28 61.54,32.15 60.26,32.09 58.97,32.03 57.70,31.95 56.43,31.87 54.00,31.95 51.57,32.03 49.91,31.97 48.25,31.90 46.71,31.72 45.17,31.55 43.60,31.28 42.02,31.00 39.62,31.01 37.22,31.02 35.87,30.72 34.53,30.42 33.03,29.97 31.52,29.53 30.30,29.39 29.08,29.25 27.35,29.05 25.63,28.85 23.61,28.58 21.59,28.30 17.67,28.03 13.74,27.76 11.57,27.44 9.40,27.11 7.39,26.13 5.38,25.15 4.90,24.15 4.41,23.15 3.24,22.05 2.06,20.94 1.50,20.00 0.94,19.06 0.10,16.69 -0.73,14.32 -1.42,13.02 -2.12,11.73 -2.39,10.56 -2.67,9.39 -2.66,8.16 -2.65,6.93 -2.58,4.94 -2.51,2.95 -2.53,1.47 -2.54,0 -2.50,-0.30 -2.47,-0.60 -2.36,-0.89 -2.25,-1.18 -2.08,-1.43 -1.90,-1.68 -1.67,-1.89 -1.44,-2.09 -1.17,-2.23 -0.90,-2.38 -0.60,-2.45 -0.30,-2.52 0.00,-2.52 0.30,-2.52 0.60,-2.45 0.90,-2.38 1.17,-2.23 1.44,-2.09 1.67,-1.89 1.90,-1.68 2.08,-1.43 2.25,-1.18 2.36,-0.89 2.47,-0.60 2.50,-0.30 2.54,0.00 2.54,0.00 L 2.54,0 Z"></path></g><g transform="translate(96.38974997657738 51.826612822189674) rotate(0 -22.29111045044965 174.4708067948655)" stroke="none"><path fill="#000000" d="M 2.08,0.69 Q 2.08,0.69 1.59,2.17 1.11,3.65 0.67,4.86 0.24,6.06 0.14,7.41 0.05,8.77 -0.25,10.35 -0.57,11.93 -0.95,13.22 -1.32,14.52 -1.44,15.75 -1.56,16.98 -2.57,19.13 -3.58,21.28 -3.95,23.03 -4.32,24.78 -4.41,26.08 -4.50,27.38 -4.90,30.63 -5.30,33.89 -5.65,35.45 -6.00,37.00 -6.48,39.00 -6.97,41.00 -7.10,42.55 -7.23,44.09 -7.39,46.19 -7.54,48.29 -7.77,49.86 -8.00,51.42 -8.18,53.85 -8.36,56.29 -8.36,57.86 -8.36,59.44 -8.61,61.22 -8.87,63.00 -8.90,64.15 -8.93,65.30 -9.58,67.43 -10.23,69.57 -10.69,71.18 -11.15,72.80 -11.65,75.55 -12.15,78.30 -12.40,80.69 -12.65,83.08 -13.54,86.24 -14.43,89.39 -15.05,91.65 -15.68,93.90 -15.86,95.53 -16.03,97.17 -16.33,98.72 -16.62,100.27 -17.07,102.55 -17.51,104.83 -17.88,106.42 -18.25,108.01 -18.63,110.05 -19.02,112.09 -19.63,113.60 -20.25,115.11 -20.79,117.10 -21.34,119.09 -21.70,120.85 -22.06,122.62 -22.46,124.13 -22.85,125.64 -23.50,127.14 -24.16,128.64 -24.70,129.61 -25.24,130.58 -26.04,131.58 -26.84,132.57 -27.28,133.68 -27.72,134.78 -28.29,136.06 -28.86,137.35 -29.73,138.02 -30.59,138.70 -31.63,139.32 -32.66,139.93 -34.57,140.56 -36.47,141.19 -38.04,141.60 -39.61,142.01 -40.81,142.11 -42.02,142.22 -42.81,142.24 -43.61,142.26 -44.01,142.22 -44.42,142.17 -44.80,142.03 -45.18,141.89 -45.52,141.66 -45.86,141.44 -46.13,141.14 -46.41,140.83 -46.60,140.48 -46.79,140.12 -46.89,139.72 -47.00,139.33 -47.00,138.92 -47.01,138.51 -46.91,138.12 -46.82,137.72 -46.64,137.36 -46.45,136.99 -46.18,136.69 -45.92,136.38 -45.59,136.14 -45.25,135.91 -44.87,135.76 -44.50,135.61 -44.09,135.56 -43.69,135.50 -42.20,135.87 -40.71,136.24 -39.51,136.75 -38.31,137.26 -36.75,138.35 -35.19,139.45 -33.97,140.59 -32.74,141.73 -31.80,142.64 -30.85,143.55 -29.75,144.95 -28.64,146.35 -27.54,148.31 -26.43,150.27 -25.70,151.80 -24.97,153.33 -24.45,155.15 -23.92,156.98 -23.69,159.35 -23.46,161.72 -23.41,163.38 -23.36,165.05 -23.19,166.12 -23.02,167.20 -22.87,169.58 -22.73,171.96 -22.71,173.04 -22.69,174.12 -22.44,176.03 -22.18,177.95 -21.96,179.47 -21.74,180.99 -21.46,182.51 -21.18,184.03 -21.11,186.11 -21.04,188.19 -20.76,189.60 -20.48,191.02 -20.46,193.80 -20.45,196.59 -19.93,197.63 -19.42,198.68 -19.11,200.48 -18.80,202.27 -18.47,203.86 -18.14,205.46 -17.95,207.00 -17.75,208.55 -17.65,209.96 -17.55,211.37 -17.34,213.07 -17.12,214.77 -16.82,216.53 -16.52,218.30 -16.46,219.39 -16.39,220.48 -16.47,222.41 -16.56,224.35 -16.53,225.66 -16.49,226.97 -16.59,230.44 -16.69,233.91 -16.64,235.18 -16.60,236.45 -16.62,239.41 -16.65,242.36 -16.64,243.92 -16.63,245.47 -16.58,246.63 -16.53,247.79 -16.77,249.25 -17.00,250.71 -17.41,252.45 -17.81,254.20 -17.98,256.66 -18.14,259.13 -18.51,261.17 -18.88,263.22 -18.92,265.15 -18.96,267.08 -19.22,268.43 -19.48,269.79 -19.54,271.70 -19.61,273.61 -19.79,275.78 -19.98,277.95 -19.97,279.38 -19.96,280.81 -20.02,282.65 -20.08,284.49 -19.98,286.69 -19.88,288.90 -19.79,290.81 -19.70,292.71 -19.64,294.71 -19.58,296.71 -19.57,297.92 -19.56,299.13 -19.56,300.39 -19.56,301.64 -19.53,303.84 -19.50,306.05 -19.50,307.28 -19.51,308.52 -19.59,310.28 -19.68,312.04 -19.67,313.28 -19.66,314.52 -19.58,315.87 -19.50,317.22 -19.45,318.66 -19.40,320.10 -19.17,321.73 -18.94,323.37 -18.73,325.16 -18.51,326.96 -18.12,328.22 -17.72,329.48 -17.26,331.20 -16.79,332.92 -16.66,334.32 -16.54,335.72 -16.24,336.81 -15.94,337.90 -15.00,339.89 -14.05,341.87 -13.21,343.29 -12.36,344.71 -11.34,345.32 -10.31,345.93 -9.87,346.28 -9.44,346.63 -9.13,347.10 -8.83,347.57 -8.70,348.11 -8.56,348.65 -8.60,349.20 -8.65,349.76 -8.87,350.27 -9.09,350.79 -9.46,351.20 -9.83,351.62 -10.31,351.90 -10.80,352.17 -11.35,352.28 -11.90,352.39 -12.45,352.31 -13.00,352.24 -13.50,351.99 -14.00,351.74 -14.40,351.35 -14.80,350.96 -15.04,350.46 -15.29,349.96 -15.37,349.40 -15.45,348.85 -15.34,348.30 -15.24,347.75 -14.97,347.27 -14.69,346.78 -14.28,346.41 -13.86,346.03 -13.35,345.81 -12.84,345.59 -12.28,345.54 -11.73,345.50 -11.18,345.63 -10.64,345.76 -10.17,346.06 -9.70,346.36 -9.35,346.80 -9.00,347.23 -8.80,347.75 -8.61,348.28 -8.59,348.84 -8.58,349.39 -8.74,349.93 -8.90,350.46 -9.23,350.92 -9.55,351.37 -10.01,351.70 -10.46,352.02 -10.99,352.19 -11.52,352.35 -12.08,352.34 -12.64,352.33 -13.16,352.14 -13.69,351.94 -13.69,351.94 -13.69,351.94 -15.75,350.26 -17.82,348.57 -18.64,346.85 -19.45,345.13 -19.79,343.65 -20.12,342.17 -21.16,340.27 -22.19,338.38 -22.57,337.25 -22.95,336.13 -22.95,335.06 -22.95,333.99 -23.40,331.86 -23.85,329.73 -24.16,328.53 -24.48,327.32 -24.56,325.90 -24.65,324.48 -24.91,322.29 -25.18,320.10 -25.12,318.66 -25.07,317.22 -24.99,315.87 -24.91,314.52 -24.90,313.28 -24.89,312.04 -24.98,310.28 -25.07,308.52 -25.07,307.28 -25.07,306.05 -25.04,303.84 -25.01,301.64 -25.01,300.39 -25.01,299.13 -25.00,297.92 -25.00,296.71 -24.94,294.71 -24.88,292.71 -24.78,290.80 -24.69,288.90 -24.58,286.69 -24.48,284.48 -24.53,282.63 -24.59,280.79 -24.56,279.35 -24.53,277.91 -24.68,275.65 -24.82,273.39 -24.74,272.14 -24.66,270.89 -24.48,269.78 -24.30,268.67 -23.92,266.74 -23.53,264.80 -23.35,263.71 -23.17,262.61 -22.99,260.78 -22.81,258.95 -22.55,256.13 -22.29,253.30 -21.74,250.53 -21.18,247.77 -21.13,246.62 -21.08,245.47 -21.07,243.92 -21.06,242.36 -21.09,239.41 -21.12,236.46 -21.07,235.18 -21.02,233.91 -21.13,230.45 -21.23,226.98 -21.21,225.68 -21.18,224.37 -21.26,221.51 -21.33,218.65 -21.37,217.03 -21.40,215.41 -21.73,213.50 -22.06,211.58 -22.09,210.29 -22.11,208.99 -22.21,207.66 -22.31,206.32 -22.67,204.61 -23.03,202.90 -23.19,201.57 -23.35,200.23 -23.93,198.55 -24.51,196.86 -24.76,194.39 -25.00,191.91 -25.33,190.22 -25.67,188.54 -25.88,186.80 -26.10,185.07 -26.49,183.41 -26.89,181.76 -27.10,180.44 -27.30,179.13 -28.07,175.65 -28.84,172.17 -29.00,170.26 -29.15,168.35 -29.48,166.75 -29.81,165.15 -29.83,163.58 -29.85,162.01 -30.01,160.46 -30.17,158.92 -30.53,157.82 -30.89,156.72 -31.29,155.53 -31.68,154.33 -32.20,153.09 -32.72,151.85 -33.74,150.53 -34.77,149.21 -35.62,148.34 -36.48,147.48 -37.41,146.56 -38.35,145.64 -39.31,144.66 -40.28,143.68 -41.94,142.97 -43.61,142.26 -44.01,142.22 -44.42,142.17 -44.80,142.03 -45.18,141.89 -45.52,141.66 -45.86,141.44 -46.13,141.14 -46.41,140.83 -46.60,140.48 -46.79,140.12 -46.89,139.72 -47.00,139.33 -47.00,138.92 -47.01,138.51 -46.91,138.12 -46.82,137.72 -46.64,137.36 -46.45,136.99 -46.19,136.69 -45.92,136.38 -45.59,136.14 -45.25,135.91 -44.87,135.76 -44.50,135.61 -44.09,135.56 -43.69,135.50 -43.64,135.50 -43.59,135.50 -41.92,135.54 -40.25,135.58 -39.17,135.17 -38.08,134.75 -36.80,134.80 -35.52,134.85 -34.21,133.53 -32.90,132.21 -32.00,130.62 -31.10,129.03 -30.07,127.76 -29.05,126.49 -28.33,124.61 -27.61,122.74 -26.91,121.27 -26.20,119.81 -25.56,117.95 -24.92,116.09 -24.55,114.81 -24.17,113.52 -23.21,111.49 -22.24,109.47 -21.95,108.26 -21.67,107.06 -21.21,105.67 -20.74,104.28 -20.40,101.86 -20.05,99.44 -19.63,98.07 -19.22,96.69 -18.89,94.92 -18.56,93.14 -18.00,90.86 -17.43,88.58 -16.68,85.70 -15.93,82.82 -15.79,80.29 -15.66,77.75 -15.26,74.72 -14.87,71.69 -14.37,70.13 -13.88,68.58 -13.45,66.74 -13.02,64.90 -12.82,63.65 -12.62,62.40 -12.34,60.86 -12.06,59.32 -11.96,57.72 -11.86,56.13 -11.80,53.41 -11.75,50.69 -11.42,49.43 -11.10,48.17 -11.11,45.93 -11.11,43.69 -10.90,41.99 -10.69,40.28 -10.38,38.12 -10.07,35.96 -9.69,34.67 -9.32,33.39 -9.18,31.27 -9.04,29.15 -8.91,28.03 -8.78,26.92 -8.57,25.51 -8.37,24.10 -8.06,21.81 -7.74,19.51 -7.14,17.95 -6.54,16.39 -5.99,13.70 -5.45,11.02 -5.05,8.84 -4.65,6.66 -4.34,5.50 -4.03,4.33 -3.56,3.29 -3.08,2.25 -2.58,0.78 -2.08,-0.69 -1.96,-0.93 -1.85,-1.17 -1.68,-1.37 -1.52,-1.58 -1.30,-1.74 -1.09,-1.90 -0.85,-2.00 -0.61,-2.10 -0.35,-2.15 -0.08,-2.19 0.17,-2.17 0.43,-2.15 0.68,-2.06 0.94,-1.98 1.16,-1.84 1.38,-1.70 1.57,-1.51 1.75,-1.31 1.88,-1.09 2.01,-0.86 2.09,-0.60 2.16,-0.35 2.17,-0.08 2.18,0.17 2.13,0.43 2.08,0.69 2.08,0.69 L 2.08,0.69 Z"></path></g></svg>