<svg version="1.1" xmlns="http://www.w3.org/2000/svg" viewBox="0 0 755.004225558473 420.7765058268591" width="755.004225558473" height="420.7765058268591">
  <!-- svg-source:excalidraw -->
  
  <defs>
    <style>
      @font-face {
        font-family: "Virgil";
        src: url("https://excalidraw.com/Virgil.woff2");
      }
      @font-face {
        font-family: "Cascadia";
        src: url("https://excalidraw.com/Cascadia.woff2");
      }
    </style>
  </defs>
  <rect x="0" y="0" width="755.004225558473" height="420.7765058268591" fill="#ffffff"></rect><g stroke-linecap="round"><g transform="translate(11.336292530430455 50.31478789736798) rotate(0 299.0696659718482 178.75452723307473)" fill-rule="evenodd"><path d="M0 0 C0 0, 0 0, 0 0 M0 0 C0 0, 0 0, 0 0 M0.3 12.37 C1.84 10.18, 3.07 9.74, 6.14 5.57 M0.58 12.33 C1.93 9.89, 4.11 8.14, 5.87 5.54 M-1.69 24.96 C5.14 20.41, 7.73 15.49, 13.84 11.71 M-0.17 25.38 C2.05 21.75, 5.44 17.31, 12.87 9.86 M-1.66 38.67 C6.98 29.01, 11.09 23.22, 19.82 16.05 M0.5 36.18 C5.45 29.3, 11.61 21.08, 18.42 15.42 M1.75 49.55 C6.91 40.73, 11.89 33.82, 24.96 20.63 M-0.11 49.3 C6.08 42.75, 12.24 36.24, 25.47 19.99 M-1.89 59.14 C12.14 49.42, 23.47 34.52, 29.35 24.8 M-0.31 61.19 C10.91 48.65, 21.16 36.51, 30.09 25.91 M-1.63 72.46 C10.47 59.91, 24.16 46.64, 35.12 32.48 M-0.76 72.88 C11.6 60.32, 22.3 46.76, 36.51 30.63 M-0.73 87.14 C9.93 76.87, 17.19 63.61, 41.12 35.57 M0.19 85.93 C12.68 71.17, 25.51 56.03, 43.91 36.78 M1.29 98.06 C14.47 82.13, 27.42 67.08, 48.77 42.09 M0.68 97.9 C13.15 82.67, 26.25 67.95, 48.47 41.2 M1.11 110.45 C23.18 84.34, 45.47 58.54, 56.59 47.54 M-0.02 110.23 C15.16 91.79, 32.17 72.96, 56.07 45.02 M0.24 121.53 C22.21 94.33, 47.41 66.41, 63.47 50.05 M-0.72 122.74 C10.78 107.42, 23.78 93.13, 61.74 51.73 M1.45 133.65 C15.68 117.2, 33.5 96.44, 66.44 57.97 M0.34 135.51 C25.21 103.67, 53.13 71.82, 67.66 55.48 M-1.23 146.88 C17.22 123.62, 35.9 103.82, 71.99 61.01 M-0.34 146.37 C28.73 112.76, 57.88 78.72, 74.61 61.12 M-2.06 160.15 C20.12 135.35, 42.39 113.35, 78.51 65.65 M-0.91 158.78 C17.32 137.97, 34.87 117.99, 80.67 66.33 M1.01 172.89 C19.99 147.14, 42 120.5, 86.25 71.19 M-1.31 172.34 C23.27 145.52, 46.09 119.99, 85.29 72.6 M-1.2 182.15 C35.8 143.76, 70.72 99.02, 91.81 77.2 M-0.69 182.65 C35.05 142.45, 69.93 100.7, 91.99 77.35 M0.88 195.2 C35.59 150.63, 75.42 109.54, 99.39 82.6 M-1.2 194.81 C38.15 149.61, 78.26 105.58, 97.84 81.98 M0.04 206.68 C34.13 172.08, 63.46 134.97, 106.59 85.31 M0.63 207.31 C39.69 161.13, 79.52 116.07, 105.44 86.17 M0.87 220.23 C20.29 195.07, 44.91 166.39, 111.72 93.34 M-1.31 220.52 C35.89 176.05, 73.34 131.98, 110.32 91.94 M0.25 233.58 C36.28 187.76, 74.89 147.08, 116.25 96.21 M-0.06 232.56 C39.1 185.48, 80.29 138.73, 115.71 97.75 M1.29 243.22 C36.33 202.97, 72.59 161.36, 122.75 101.05 M-1.42 244.8 C49.85 189.38, 97.39 132.16, 122.6 103.49 M-2.17 257.49 C39.17 209.86, 79.06 164.36, 129.37 107.97 M-1.31 255.77 C39.89 211.54, 80.86 164.36, 128.43 106.64 M-1 270.14 C51.97 207.63, 106.93 143.6, 136.95 113.11 M-1 269.58 C31.61 231.48, 64.61 193.25, 134.62 112.25 M-2.09 281.83 C53.6 219.55, 103.7 161.17, 139.97 116.82 M-0.48 281.88 C47.52 224.43, 96.93 168.1, 142.04 117.31 M0.48 292.33 C41.16 247.55, 78.25 204.98, 146.91 121.54 M-0.13 293.45 C43.26 242.74, 87.17 192.99, 147.76 122.66 M0.52 305.11 C49.32 246.99, 98.53 188.22, 154.23 128.09 M-0.21 305.62 C56.11 241.95, 111.65 177.98, 154.11 127.46 M-2.2 318.56 C34.49 273.07, 73.04 229.85, 158.93 132.63 M-0.33 317.6 C53.92 256.87, 107.14 194.51, 160 133.43 M-1.67 330.09 C48.62 271.67, 97.3 215.03, 167.14 139.28 M-1.75 330.91 C60.84 259.93, 120.96 189.21, 166.88 138.14 M-1.18 343.79 C41.39 294.47, 82.66 245.2, 173.13 143.47 M-1.41 343.13 C53.62 279.48, 106.1 218.3, 172.77 143.88 M0.11 355.43 C45.01 300.24, 94.48 247.45, 178.12 147.18 M-1.39 354.76 C68.45 274.46, 138.38 193.05, 177.94 148.91 M3.9 359.53 C75.73 279.09, 147.73 195.34, 185.57 155.13 M4.03 360.56 C62.76 295.43, 119.95 229.54, 183.84 152.95 M15.12 360.1 C72.69 292.75, 130.36 228.83, 190.9 158.88 M15.33 361.37 C75.9 288.49, 138.94 215.83, 190.67 158.53 M24.56 360.43 C61.67 319.16, 100.14 278.64, 196.05 164.07 M26.03 360.5 C66.04 315.73, 105.58 270.88, 196.59 163.33 M35.48 362.48 C81.7 312.49, 124.47 261.64, 202.21 168.66 M35.34 360.76 C72.64 318.99, 108.66 277.84, 202.89 168.48 M47.48 359.5 C105.5 292.03, 168.25 219.16, 208.85 174.14 M46.44 361.14 C86.77 312.57, 130.02 262.52, 208.61 173.29 M57.07 359.64 C110.33 300.44, 162.51 239.16, 215.73 179.18 M57.78 361.41 C90.19 322.96, 124.39 282.84, 215.92 179.06 M69.18 360.13 C129.54 292.49, 190.93 221.45, 221.79 185.39 M67.91 361.33 C127.6 291.32, 188.54 222.79, 220.98 184.11 M78.81 360.25 C125.18 308.61, 173.76 254.03, 226.75 190.82 M78.9 361.41 C111.96 321.27, 145.69 283.39, 227.29 189.56 M89.29 361.64 C138.99 302.2, 188.93 246.6, 233.4 192.57 M89.74 360.33 C143.65 299.57, 195.36 239.31, 234.73 194.33 M100.49 361.49 C133.31 323.69, 168.77 281.48, 239.78 200.38 M99.7 360.9 C153.95 298.17, 207.37 234.89, 240.25 198.93 M110.22 359.53 C148.85 313.39, 189.55 269.89, 244.6 204.5 M110.16 360.5 C148.98 316.47, 185.32 272.63, 245.33 205.21 M119.38 361.85 C156.29 321.51, 190.37 280.45, 253.43 210.09 M121.22 360.58 C161.36 312.71, 202.94 263.26, 251.78 209.75 M129.48 360.24 C168 317.77, 205.75 274.46, 259.78 215.64 M131.04 361.18 C178.96 304.31, 229.98 247.22, 258.96 214.34 M140.18 362.14 C167.21 329.6, 196.55 297.73, 263.8 219.8 M142.08 360.62 C175.96 322.48, 210.3 284.12, 263.24 220.24 M153.7 361.38 C179.6 331.06, 206.21 300.97, 269.14 225.18 M151.66 360.87 C191.39 317.21, 228.96 273.35, 270.81 225.69 M164.17 362.51 C190.4 330.22, 214.34 303.39, 277.26 229.37 M162.48 361.6 C207.1 310.49, 251.46 259.89, 277.26 230.08 M174.64 361.83 C207.79 320.73, 243.71 280.8, 282.76 235.06 M174.04 361.83 C199.73 329.69, 229.05 296.05, 284.81 234.8 M183.02 359.51 C214.48 323.66, 249.39 288.83, 293.28 236.94 M184.71 360.86 C206.25 333.97, 231.11 307.33, 292.5 236.99 M195.91 359.71 C233.17 315.94, 276.1 269.34, 302.07 238.81 M193.79 361.21 C226.1 325.2, 259.25 285.42, 300.86 239.47 M206.47 362.69 C241.21 318.8, 274.45 282.17, 306.46 240.95 M205.57 361.59 C227.64 333.69, 252.43 306.5, 308.63 242.88 M216.32 360.95 C242.18 328.11, 271.03 296.04, 317.1 245.02 M215.41 361.77 C237.99 336.84, 256.74 313.65, 316.17 245.4 M225.41 359.37 C261.12 324.26, 291.95 284.66, 323.21 250.91 M225.78 361.58 C257.66 326.32, 287.62 292.03, 322.87 250.46 M237.86 359.3 C256.65 338.45, 274.82 314.63, 333.03 253.85 M236.33 361.83 C273.19 320.86, 307.23 279.93, 331.83 252.61 M247.25 363.47 C284.67 318.11, 319.8 278.07, 339.78 257.1 M247.31 361.99 C270.58 336.59, 291.8 310.89, 340 255.03 M257.06 361.07 C291.89 323.03, 324.46 281.22, 346.18 257 M258.22 362.1 C280.02 335.49, 303.83 309.92, 346.82 259.43 M266.6 360.43 C291.22 332.79, 316.65 307.18, 357.63 259.9 M267.99 362.27 C286.47 340.31, 304.83 319.71, 355.7 261.74 M279.58 362.11 C310.77 324.24, 341.53 289.78, 363.46 267.01 M279.61 362.57 C295.88 341.3, 313.61 322.92, 363.38 265.82 M289.25 363.78 C309.42 339.94, 330.11 317.46, 369.41 267.5 M289.6 362.75 C316.22 331.44, 342.84 302.12, 370.6 267.36 M300.33 360.36 C315.72 342.33, 330.08 327.12, 379.58 271.2 M300 361.14 C328.66 330.14, 357.41 296.1, 378.28 271.33 M310.85 360.11 C331.25 338.9, 348.06 317.52, 388.93 273.63 M310.49 361.61 C333.8 335.14, 356.66 307.42, 386.16 273.95 M322.05 360.81 C338.05 342.62, 356.98 322.9, 396.47 276.97 M322.42 362.51 C338.49 341.93, 354.79 323.8, 394.24 276.33 M332.24 361.83 C358.26 330.4, 384.5 299.82, 402.53 282.86 M332.89 361.6 C358.32 332.69, 382.65 303.03, 402.15 280.21 M342.67 360.27 C357.05 344.09, 373.73 327.31, 409.24 285.55 M342.82 361 C359.6 342.39, 374.53 325.65, 409.88 283.82 M355.43 363.13 C374.72 336.76, 397.82 311.77, 418.42 288.54 M352.97 362.09 C375.87 337.59, 397.54 311.09, 417.87 287.41 M363.3 363.36 C385.43 338.55, 405.04 311.03, 428.16 289.7 M364.05 362.49 C378.26 346.74, 391.04 330.56, 425.7 289.11 M374.98 360.8 C395.87 337.26, 417.88 312.1, 433.98 294.11 M374.12 361.76 C395.69 337.38, 418.31 311.91, 433.54 292.67 M383.6 363.26 C405.48 339.32, 424.02 315.52, 442.07 295.01 M385.24 361.26 C403.62 338.87, 422.75 317.34, 441.48 297.12 M396.61 363.18 C414.84 338.52, 435.98 318.65, 449.79 298.82 M395.63 361.66 C406.68 348.31, 418.83 334.56, 450.3 298.71 M404.36 362.71 C426.7 341, 442.67 320.02, 459.62 301.87 M406.35 362.87 C422.98 341.93, 438.93 323.38, 457.53 302.36 M417.24 362.65 C434.37 339.63, 450.59 319.08, 467.61 307.46 M416.7 361.68 C433.22 344.38, 448.07 324.46, 466.16 305.59 M427.6 362.52 C441.97 344.6, 457.42 327.02, 472.01 307.51 M426.3 362.76 C440.15 346.87, 452.6 333.25, 473.43 308.94 M439.63 360.69 C450.79 347.91, 461.61 334.35, 481.73 311.66 M437.12 361.54 C455.2 343.59, 470.58 323.4, 481.43 311.95 M447.21 362.55 C462.25 344.45, 478.76 326.91, 490.27 315.94 M447.58 361.21 C457.48 350.71, 467.28 340.05, 489.3 314.56 M459.77 360.57 C467.67 352.33, 480.29 340.83, 496.27 319.85 M458.57 361.58 C471.4 347.94, 486.26 332.06, 497.91 319.04 M468.22 362.48 C484.57 346.4, 494.54 331.86, 504.65 319.26 M469.57 362.09 C477.29 354.36, 484.37 345.41, 505.22 321.75 M478.78 363.37 C486.1 351.97, 494.33 344.33, 511.9 323.27 M480.64 362.7 C488.24 353.92, 495.72 344.29, 511.72 324.72 M490.22 362.57 C496.73 352.11, 507.21 341.81, 518.56 327.36 M489.91 363.62 C501.17 350.4, 512.37 336.01, 521.13 327.66 M502.35 360.75 C508.97 353.36, 518.57 343.11, 527.13 329.97 M500.18 363.18 C510.14 352.39, 518.21 342.45, 528.5 331.39 M509.96 360.6 C520.39 351.86, 530.81 341.76, 534.6 333.7 M511.11 363.35 C518.51 354.7, 525.07 349.27, 536.89 333.76 M523.31 363.92 C527.33 354.31, 534.09 350.97, 545.66 338.08 M521.88 361.61 C529.71 354.36, 535.51 347.56, 544.82 337.34 M533.39 364.46 C538.62 355.36, 544.49 351.25, 549.91 340.56 M532.62 362.68 C538.77 354.84, 545.93 348.46, 551.62 341.13 M541.72 364.14 C550.13 357.23, 553.11 350.2, 558.38 345.53 M544.42 363.44 C547.64 358.31, 550.98 355.04, 560.16 344.45 M554.32 361.08 C559.88 358.25, 566.44 351.7, 569.45 345.02 M553.46 361.86 C557.14 359.39, 561.45 353.74, 566.95 346.43 M563.67 361.86 C566.43 360.71, 570.45 355.27, 577.14 348.07 M564.97 362.03 C568 358.05, 571.73 354.57, 576.73 349.87 M574.31 361.6 C577.95 359.5, 579.08 358.5, 584.88 352.35 M575.48 362.61 C576.77 359.57, 578.83 357.36, 584.3 352.97 M586.68 362.58 C587.18 360.08, 588.64 359.5, 591.24 355.87 M586.32 362.64 C587.82 360.44, 588.68 358.82, 591.4 356.02" stroke="#868e96" stroke-width="1" fill="none"></path><path d="M-0.32 -1.26 C-0.85 89.26, -1.32 177.83, -0.37 355.6 M-0.24 -0.12 C-0.16 71.31, -0.38 143.33, -0.82 355.56 M-0.82 355.58 C138.89 358.28, 278.15 359.33, 598.61 358.49 M-1.34 356.07 C127.76 354.31, 256.41 355.14, 599.48 357.7 M598.36 357.81 C474.8 307, 349.4 257.58, 275.5 228.48 M598.89 358.05 C504.78 319.32, 411.16 281.25, 274.49 227.7 M275.49 227.9 C204.45 170.64, 132.37 110.38, -0.18 0.47 M273.71 228.61 C189.21 156.62, 104.45 85.97, 0.52 -0.09 M0 0 C0 0, 0 0, 0 0 M0 0 C0 0, 0 0, 0 0" stroke="#000000" stroke-width="2" fill="none"></path></g></g><g stroke-linecap="round"><g transform="translate(12.707299355702276 409.55926524236736) rotate(0 366.14846310138535 0)"><path d="M0 0 C250.54 0, 501.07 0, 732.3 0 M0 0 C178.9 0, 357.81 0, 732.3 0" stroke="#000000" stroke-width="4" fill="none"></path></g><g transform="translate(12.707299355702276 409.55926524236736) rotate(0 366.14846310138535 0)"><path d="M704.11 10.26 C713.75 6.75, 723.4 3.24, 732.3 0 M704.11 10.26 C710.99 7.75, 717.88 5.25, 732.3 0" stroke="#000000" stroke-width="4" fill="none"></path></g><g transform="translate(12.707299355702276 409.55926524236736) rotate(0 366.14846310138535 0)"><path d="M704.11 -10.26 C713.75 -6.75, 723.4 -3.24, 732.3 0 M704.11 -10.26 C710.99 -7.75, 717.88 -5.25, 732.3 0" stroke="#000000" stroke-width="4" fill="none"></path></g></g><g stroke-linecap="round"><g transform="translate(-188.27628320597694 209.50977143787156) rotate(270 199.50977143787156 0)"><path d="M0 0 C90.36 0, 180.71 0, 399.02 0 M0 0 C107.44 0, 214.88 0, 399.02 0" stroke="#000000" stroke-width="4" fill="none"></path></g><g transform="translate(-188.27628320597694 209.50977143787156) rotate(270 199.50977143787156 0)"><path d="M370.83 10.26 C377.21 7.94, 383.6 5.61, 399.02 0 M370.83 10.26 C378.42 7.5, 386.01 4.74, 399.02 0" stroke="#000000" stroke-width="4" fill="none"></path></g><g transform="translate(-188.27628320597694 209.50977143787156) rotate(270 199.50977143787156 0)"><path d="M370.83 -10.26 C377.21 -7.94, 383.6 -5.61, 399.02 0 M370.83 -10.26 C378.42 -7.5, 386.01 -4.74, 399.02 0" stroke="#000000" stroke-width="4" fill="none"></path></g></g><g stroke-linecap="round" transform="translate(282.30558388305974 274.0718683761489) rotate(0 6.271570113844177 6.271570113844177)"><path d="M12.54 6.27 C12.54 6.63, 12.51 7, 12.45 7.36 C12.38 7.72, 12.29 8.08, 12.16 8.42 C12.04 8.76, 11.88 9.09, 11.7 9.41 C11.52 9.72, 11.31 10.02, 11.08 10.3 C10.84 10.58, 10.58 10.84, 10.3 11.08 C10.02 11.31, 9.72 11.52, 9.41 11.7 C9.09 11.88, 8.76 12.04, 8.42 12.16 C8.08 12.29, 7.72 12.38, 7.36 12.45 C7 12.51, 6.63 12.54, 6.27 12.54 C5.91 12.54, 5.54 12.51, 5.18 12.45 C4.83 12.38, 4.47 12.29, 4.13 12.16 C3.79 12.04, 3.45 11.88, 3.14 11.7 C2.82 11.52, 2.52 11.31, 2.24 11.08 C1.96 10.84, 1.7 10.58, 1.47 10.3 C1.23 10.02, 1.02 9.72, 0.84 9.41 C0.66 9.09, 0.5 8.76, 0.38 8.42 C0.25 8.08, 0.16 7.72, 0.1 7.36 C0.03 7, 0 6.63, 0 6.27 C0 5.91, 0.03 5.54, 0.1 5.18 C0.16 4.83, 0.25 4.47, 0.38 4.13 C0.5 3.79, 0.66 3.45, 0.84 3.14 C1.02 2.82, 1.23 2.52, 1.47 2.24 C1.7 1.96, 1.96 1.7, 2.24 1.47 C2.52 1.23, 2.82 1.02, 3.14 0.84 C3.45 0.66, 3.79 0.5, 4.13 0.38 C4.47 0.25, 4.83 0.16, 5.18 0.1 C5.54 0.03, 5.91 0, 6.27 0 C6.63 0, 7 0.03, 7.36 0.1 C7.72 0.16, 8.08 0.25, 8.42 0.38 C8.76 0.5, 9.09 0.66, 9.41 0.84 C9.72 1.02, 10.02 1.23, 10.3 1.47 C10.58 1.7, 10.84 1.96, 11.08 2.24 C11.31 2.52, 11.52 2.82, 11.7 3.14 C11.88 3.45, 12.04 3.79, 12.16 4.13 C12.29 4.47, 12.38 4.83, 12.45 5.18 C12.51 5.54, 12.53 6.09, 12.54 6.27 C12.56 6.45, 12.56 6.09, 12.54 6.27" stroke="none" stroke-width="0" fill="#868e96"></path><path d="M12.54 6.27 C12.54 6.63, 12.51 7, 12.45 7.36 C12.38 7.72, 12.29 8.08, 12.16 8.42 C12.04 8.76, 11.88 9.09, 11.7 9.41 C11.52 9.72, 11.31 10.02, 11.08 10.3 C10.84 10.58, 10.58 10.84, 10.3 11.08 C10.02 11.31, 9.72 11.52, 9.41 11.7 C9.09 11.88, 8.76 12.04, 8.42 12.16 C8.08 12.29, 7.72 12.38, 7.36 12.45 C7 12.51, 6.63 12.54, 6.27 12.54 C5.91 12.54, 5.54 12.51, 5.18 12.45 C4.83 12.38, 4.47 12.29, 4.13 12.16 C3.79 12.04, 3.45 11.88, 3.14 11.7 C2.82 11.52, 2.52 11.31, 2.24 11.08 C1.96 10.84, 1.7 10.58, 1.47 10.3 C1.23 10.02, 1.02 9.72, 0.84 9.41 C0.66 9.09, 0.5 8.76, 0.38 8.42 C0.25 8.08, 0.16 7.72, 0.1 7.36 C0.03 7, 0 6.63, 0 6.27 C0 5.91, 0.03 5.54, 0.1 5.18 C0.16 4.83, 0.25 4.47, 0.38 4.13 C0.5 3.79, 0.66 3.45, 0.84 3.14 C1.02 2.82, 1.23 2.52, 1.47 2.24 C1.7 1.96, 1.96 1.7, 2.24 1.47 C2.52 1.23, 2.82 1.02, 3.14 0.84 C3.45 0.66, 3.79 0.5, 4.13 0.38 C4.47 0.25, 4.83 0.16, 5.18 0.1 C5.54 0.03, 5.91 0, 6.27 0 C6.63 0, 7 0.03, 7.36 0.1 C7.72 0.16, 8.08 0.25, 8.42 0.38 C8.76 0.5, 9.09 0.66, 9.41 0.84 C9.72 1.02, 10.02 1.23, 10.3 1.47 C10.58 1.7, 10.84 1.96, 11.08 2.24 C11.31 2.52, 11.52 2.82, 11.7 3.14 C11.88 3.45, 12.04 3.79, 12.16 4.13 C12.29 4.47, 12.38 4.83, 12.45 5.18 C12.51 5.54, 12.53 6.09, 12.54 6.27 C12.56 6.45, 12.56 6.09, 12.54 6.27" stroke="#000000" stroke-width="1" fill="none"></path></g><g stroke-linecap="round"><g transform="translate(11.698597682542982 107.19669677904832) rotate(0 241.26539393807002 151.08799634265623)"><path d="M-0.62 -0.23 C79.46 49.95, 400.42 251.78, 480.93 301.96 M1.26 -1.4 C81.67 48.92, 403.04 253.07, 483.15 303.58" stroke="#c92a2a" stroke-width="2" fill="none"></path></g></g><g stroke-linecap="round"><g transform="translate(13.872428595218707 169.51318294241784) rotate(0 298.73070580601603 119.7629738405565)"><path d="M0.16 0.53 C99.61 40.65, 496.76 200.16, 596.47 239.76 M-1.22 -0.23 C98.62 39.62, 498.78 198.12, 598.68 237.97" stroke="#e67700" stroke-width="2" fill="none"></path></g></g><g stroke-linecap="round"><g transform="translate(11.336292530430455 52.126313657931064) rotate(0 219.57159779581622 177.73767060564515)"><path d="M0.61 -1.07 C73.62 58.32, 364.53 295.77, 437.58 355.27 M-0.53 0.99 C72.87 60.63, 366.55 297.15, 439.67 356.54" stroke="#1864ab" stroke-width="2" fill="none"></path></g></g></svg>