<?xml version="1.0" encoding="utf-8"?>
<!-- Generator: Adobe Illustrator 26.0.0, SVG Export Plug-In . SVG Version: 6.00 Build 0)  -->
<svg version="1.1" id="Layer_1" xmlns="http://www.w3.org/2000/svg" xmlns:xlink="http://www.w3.org/1999/xlink" x="0px" y="0px"
	 viewBox="0 0 752.9 376.5" style="enable-background:new 0 0 752.9 376.5;" xml:space="preserve">
<style type="text/css">
	.st0{clip-path:url(#SVGID_00000042002947800027108180000004087970458715320734_);}
	.st1{fill-rule:evenodd;clip-rule:evenodd;fill:#F69999;}
	.st2{clip-path:url(#SVGID_00000118376307143769275110000000146156227946724504_);}
	.st3{font-family:'ArialMT';}
	.st4{font-size:27.9px;}
	.st5{clip-path:url(#SVGID_00000114066237152673517740000017959261434733637271_);}
	.st6{clip-path:url(#SVGID_00000101796041036233092360000005702275512265230491_);}
	.st7{clip-path:url(#SVGID_00000023993150785774181830000012106405913915688841_);}
	.st8{fill:none;stroke:#808080;stroke-width:1.2;stroke-linejoin:round;}
	.st9{clip-path:url(#SVGID_00000023966814448062629800000007159660838092085163_);}
	.st10{fill:none;stroke:#000000;stroke-width:1.11;stroke-linejoin:round;}
	.st11{font-family:'Arial-ItalicMT';}
	.st12{font-size:21.2px;}
	.st13{letter-spacing:4;}
	.st14{fill:none;stroke:#000000;stroke-width:1.2;stroke-linejoin:round;}
	.st15{fill-rule:evenodd;clip-rule:evenodd;}
	.st16{clip-path:url(#SVGID_00000158025300742900865240000017561618955535751091_);}
	.st17{clip-path:url(#SVGID_00000031175087526838234590000016828648965116149897_);}
	.st18{clip-path:url(#SVGID_00000158727302995722200650000000608884763915971519_);}
	.st19{clip-path:url(#SVGID_00000159442540241567034110000014031327034264143800_);}
	.st20{clip-path:url(#SVGID_00000142866866268526692320000018220972349352655498_);}
	.st21{clip-path:url(#SVGID_00000050656603298671093680000006019963999809356162_);}
	.st22{clip-path:url(#SVGID_00000062175795684550128250000005669260071466993580_);}
	.st23{clip-path:url(#SVGID_00000121965338340442216690000014503156428012913842_);}
	.st24{clip-path:url(#SVGID_00000122701086713793835690000008245757510213226130_);}
	.st25{clip-path:url(#SVGID_00000081645246268971499910000002987469358716498337_);}
	.st26{letter-spacing:-1;}
	.st27{clip-path:url(#SVGID_00000062897697984002581360000002275381386542562738_);}
	.st28{letter-spacing:27;}
	.st29{fill:#FFFFFF;}
	.st30{clip-path:url(#SVGID_00000163065151168125675080000018164375452726967424_);}
	.st31{letter-spacing:8;}
	.st32{clip-path:url(#SVGID_00000173877831593205748430000004716237153721579711_);}
	.st33{clip-path:url(#SVGID_00000028302221428476995120000014024715118987085734_);}
	.st34{fill:#E21F26;}
	.st35{font-family:'Arial-BoldMT';}
	.st36{font-size:48.2px;}
	.st37{clip-path:url(#SVGID_00000080888055197027294780000015950573544443392640_);}
	.st38{fill:none;stroke:#E21F26;stroke-width:2.4;stroke-linejoin:round;}
	.st39{clip-path:url(#SVGID_00000142870201039291077670000001110049046105133212_);}
</style>
<g id="Layer_2_00000000213077463186410270000011049539719423559836_">
	<g id="Layer_1-2">
		<g>
			<defs>
				<rect id="SVGID_1_" x="-32" y="-83.7" width="800" height="600"/>
			</defs>
			<clipPath id="SVGID_00000001633973841367325890000007853505003421852034_">
				<use xlink:href="#SVGID_1_"  style="overflow:visible;"/>
			</clipPath>
			<g style="clip-path:url(#SVGID_00000001633973841367325890000007853505003421852034_);">
				<g>
					<defs>
						<rect id="SVGID_00000027591519262167076090000004037635895668041370_" x="-2.8" y="-59.8" width="267.5" height="46.2"/>
					</defs>
					<clipPath id="SVGID_00000134221067740823702050000007653025122577943201_">
						<use xlink:href="#SVGID_00000027591519262167076090000004037635895668041370_"  style="overflow:visible;"/>
					</clipPath>
				</g>
				<polygon class="st1" points="484,112.3 676,176.3 548,304.3 				"/>
				<g>
					<defs>
						<rect id="SVGID_00000171684773965168561540000000427177404304793228_" x="470.4" y="342" width="26.5" height="25.2"/>
					</defs>
					<clipPath id="SVGID_00000098179216897882663290000005226323484022991489_">
						<use xlink:href="#SVGID_00000171684773965168561540000000427177404304793228_"  style="overflow:visible;"/>
					</clipPath>
					<g style="clip-path:url(#SVGID_00000098179216897882663290000005226323484022991489_);">
						<text transform="matrix(1 0 0 1 473.15 364.2477)" class="st3 st4">.1</text>
					</g>
				</g>
				<g>
					<defs>
						<rect id="SVGID_00000132076262235175576540000002136840976361312429_" x="534.3" y="342.4" width="26.5" height="24.8"/>
					</defs>
					<clipPath id="SVGID_00000105424777890546048440000003321173058734977408_">
						<use xlink:href="#SVGID_00000132076262235175576540000002136840976361312429_"  style="overflow:visible;"/>
					</clipPath>
					<g style="clip-path:url(#SVGID_00000105424777890546048440000003321173058734977408_);">
						<text transform="matrix(1 0 0 1 537.15 364.2477)" class="st3 st4">.2</text>
					</g>
				</g>
				<g>
					<defs>
						<rect id="SVGID_00000095335144004547550970000005534437314159000711_" x="598.3" y="342.4" width="26.5" height="25.1"/>
					</defs>
					<clipPath id="SVGID_00000168117868307817371530000017245902797307853485_">
						<use xlink:href="#SVGID_00000095335144004547550970000005534437314159000711_"  style="overflow:visible;"/>
					</clipPath>
					<g style="clip-path:url(#SVGID_00000168117868307817371530000017245902797307853485_);">
						<text transform="matrix(1 0 0 1 601.15 364.2477)" class="st3 st4">.3</text>
					</g>
				</g>
				<g>
					<defs>
						<rect id="SVGID_00000158722429334721906640000009355166916569001351_" x="662.3" y="342" width="26.5" height="25.2"/>
					</defs>
					<clipPath id="SVGID_00000056427379453107191820000000106481066892930957_">
						<use xlink:href="#SVGID_00000158722429334721906640000009355166916569001351_"  style="overflow:visible;"/>
					</clipPath>
					<g style="clip-path:url(#SVGID_00000056427379453107191820000000106481066892930957_);">
						<text transform="matrix(1 0 0 1 665.15 364.2477)" class="st3 st4">.4</text>
					</g>
				</g>
				<rect x="420" y="16.3" class="st8" width="320" height="320"/>
				<line class="st8" x1="420" y1="80.3" x2="740" y2="80.3"/>
				<line class="st8" x1="420" y1="144.3" x2="740" y2="144.3"/>
				<line class="st8" x1="420" y1="208.3" x2="740" y2="208.3"/>
				<line class="st8" x1="420" y1="272.3" x2="740" y2="272.3"/>
				<line class="st8" x1="484" y1="16.3" x2="484" y2="336.3"/>
				<line class="st8" x1="548" y1="16.3" x2="548" y2="336.3"/>
				<line class="st8" x1="612" y1="16.3" x2="612" y2="336.3"/>
				<line class="st8" x1="676" y1="16.3" x2="676" y2="336.3"/>
				<g>
					<defs>
						<rect id="SVGID_00000161625389637174894670000001812682186088563091_" x="-2.6" y="48.5" width="345.7" height="141.7"/>
					</defs>
					<clipPath id="SVGID_00000084521490098316021890000013441027957240640941_">
						<use xlink:href="#SVGID_00000161625389637174894670000001812682186088563091_"  style="overflow:visible;"/>
					</clipPath>
					<g style="clip-path:url(#SVGID_00000084521490098316021890000013441027957240640941_);">
						<text transform="matrix(1 0 0 1 14.18 74.7477)" class="st3 st4">subst.</text>
						<line class="st10" x1="100.7" y1="84.8" x2="100.7" y2="51.3"/>
						<text transform="matrix(1 0 0 1 115.16 74.7477)" class="st3 st4">fract.</text>
						<text transform="matrix(1 0 0 1 187.73 74.7477)" class="st11 st4">A</text>
						<line class="st10" x1="222.7" y1="84.8" x2="222.7" y2="51.3"/>
						<text transform="matrix(1 0 0 1 237.23 74.7477)" class="st3 st4">fract.</text>
						<text transform="matrix(1 0 0 1 308.96 74.7477)" class="st11 st4">B</text>
						<line class="st10" x1="0.2" y1="85.3" x2="340.3" y2="85.3"/>
						<text transform="matrix(1 0 0 1 38.74 109.3377)" class="st11 st4">s</text>
						<text transform="matrix(1 0 0 1 49.94 114.5377)" class="st3 st12">1</text>
						<line class="st10" x1="100.7" y1="119.4" x2="100.7" y2="85.9"/>
						<text transform="matrix(1 0 0 1 152.24 109.3377)" class="st3 st4">1</text>
						<text transform="matrix(1 0 0 1 166.55 109.3377)" class="st3 st4 st13">0</text>
						<text transform="matrix(1 0 0 1 185.49 109.3377)" class="st3 st4">%</text>
						<line class="st10" x1="222.7" y1="119.4" x2="222.7" y2="85.9"/>
						<text transform="matrix(1 0 0 1 270.38 109.3377)" class="st3 st4">3</text>
						<text transform="matrix(1 0 0 1 284.69 109.3377)" class="st3 st4 st13">5</text>
						<text transform="matrix(1 0 0 1 303.63 109.3377)" class="st3 st4">%</text>
						<text transform="matrix(1 0 0 1 38.74 142.8077)" class="st11 st4">s</text>
						<text transform="matrix(1 0 0 1 49.94 147.6977)" class="st3 st12">2</text>
						<line class="st10" x1="100.7" y1="152.8" x2="100.7" y2="119.4"/>
						<text transform="matrix(1 0 0 1 152.24 142.8077)" class="st3 st4">2</text>
						<text transform="matrix(1 0 0 1 166.55 142.8077)" class="st3 st4 st13">0</text>
						<text transform="matrix(1 0 0 1 185.49 142.8077)" class="st3 st4">%</text>
						<line class="st10" x1="222.7" y1="152.8" x2="222.7" y2="119.4"/>
						<text transform="matrix(1 0 0 1 284.33 142.8077)" class="st3 st4 st13">5</text>
						<text transform="matrix(1 0 0 1 303.27 142.8077)" class="st3 st4">%</text>
						<text transform="matrix(1 0 0 1 38.74 176.2877)" class="st11 st4">s</text>
						<text transform="matrix(1 0 0 1 49.94 181.1677)" class="st3 st12">3</text>
						<line class="st10" x1="100.7" y1="186.3" x2="100.7" y2="152.8"/>
						<text transform="matrix(1 0 0 1 152.24 176.2877)" class="st3 st4">4</text>
						<text transform="matrix(1 0 0 1 166.55 176.2877)" class="st3 st4 st13">0</text>
						<text transform="matrix(1 0 0 1 185.49 176.2877)" class="st3 st4">%</text>
						<line class="st10" x1="222.7" y1="186.3" x2="222.7" y2="152.8"/>
						<text transform="matrix(1 0 0 1 270.38 176.2877)" class="st3 st4">2</text>
						<text transform="matrix(1 0 0 1 284.69 176.2877)" class="st3 st4 st13">5</text>
						<text transform="matrix(1 0 0 1 303.63 176.2877)" class="st3 st4">%</text>
						<line class="st10" x1="0.2" y1="186.9" x2="340.3" y2="186.9"/>
					</g>
				</g>
				<polyline class="st14" points="420,16.3 420,336.3 740,336.3 				"/>
				<polygon class="st15" points="740,336.3 725,331.3 725,341.3 				"/>
				<polygon class="st14" points="740,336.3 725,331.3 725,341.3 				"/>
				<polygon class="st15" points="420,16.3 415,31.3 425,31.3 				"/>
				<polygon class="st14" points="420,16.3 415,31.3 425,31.3 				"/>
				<g>
					<defs>
						<rect id="SVGID_00000063614878027337194550000015401652245727864969_" x="385.2" y="67.1" width="26.5" height="25.2"/>
					</defs>
					<clipPath id="SVGID_00000049184113137696162110000017944665514660550281_">
						<use xlink:href="#SVGID_00000063614878027337194550000015401652245727864969_"  style="overflow:visible;"/>
					</clipPath>
					<g style="clip-path:url(#SVGID_00000049184113137696162110000017944665514660550281_);">
						<text transform="matrix(1 0 0 1 388 89.3977)" class="st3 st4">.4</text>
					</g>
				</g>
				<g>
					<defs>
						<rect id="SVGID_00000099646121580999521570000010992866557076178325_" x="385.2" y="131.5" width="26.5" height="25.1"/>
					</defs>
					<clipPath id="SVGID_00000051376402728949894630000011499602939256967595_">
						<use xlink:href="#SVGID_00000099646121580999521570000010992866557076178325_"  style="overflow:visible;"/>
					</clipPath>
					<g style="clip-path:url(#SVGID_00000051376402728949894630000011499602939256967595_);">
						<text transform="matrix(1 0 0 1 388 153.3977)" class="st3 st4">.3</text>
					</g>
				</g>
				<g>
					<defs>
						<rect id="SVGID_00000124158702079449658960000013019586779976739486_" x="385.2" y="195.5" width="26.5" height="24.8"/>
					</defs>
					<clipPath id="SVGID_00000121972990603116128610000017378203486297298049_">
						<use xlink:href="#SVGID_00000124158702079449658960000013019586779976739486_"  style="overflow:visible;"/>
					</clipPath>
					<g style="clip-path:url(#SVGID_00000121972990603116128610000017378203486297298049_);">
						<text transform="matrix(1 0 0 1 388 217.3877)" class="st3 st4">.2</text>
					</g>
				</g>
				<g>
					<defs>
						<rect id="SVGID_00000080174054258777493190000004004981664362778293_" x="385.2" y="259.1" width="26.5" height="25.2"/>
					</defs>
					<clipPath id="SVGID_00000155108913121755756610000012623865024990759572_">
						<use xlink:href="#SVGID_00000080174054258777493190000004004981664362778293_"  style="overflow:visible;"/>
					</clipPath>
					<g style="clip-path:url(#SVGID_00000155108913121755756610000012623865024990759572_);">
						<text transform="matrix(1 0 0 1 388 281.3977)" class="st3 st4">.1</text>
					</g>
				</g>
				<g>
					<defs>
						<rect id="SVGID_00000129198305769342792540000013219669567407503804_" x="379.1" y="15.8" width="23.9" height="25"/>
					</defs>
					<clipPath id="SVGID_00000152955877717627526000000003400693330642055599_">
						<use xlink:href="#SVGID_00000129198305769342792540000013219669567407503804_"  style="overflow:visible;"/>
					</clipPath>
					<g style="clip-path:url(#SVGID_00000152955877717627526000000003400693330642055599_);">
						<text transform="matrix(1 0 0 1 382.84 37.8577)" class="st11 st4">B</text>
					</g>
				</g>
				<g>
					<defs>
						<rect id="SVGID_00000104670457972589836010000011513879481041692319_" x="712.6" y="347.1" width="27.8" height="25.4"/>
					</defs>
					<clipPath id="SVGID_00000149367226862243723070000001922083636431372417_">
						<use xlink:href="#SVGID_00000104670457972589836010000011513879481041692319_"  style="overflow:visible;"/>
					</clipPath>
					<g style="clip-path:url(#SVGID_00000149367226862243723070000001922083636431372417_);">
						<text transform="matrix(1 0 0 1 717.12 369.5677)" class="st11 st4">A</text>
					</g>
				</g>
				<g>
					<defs>
						<rect id="SVGID_00000052815410508117416440000011580016465028503205_" x="447.5" y="87.5" width="29.1" height="24.4"/>
					</defs>
					<clipPath id="SVGID_00000101810596636278149380000007991075655083905173_">
						<use xlink:href="#SVGID_00000052815410508117416440000011580016465028503205_"  style="overflow:visible;"/>
					</clipPath>
					<g style="clip-path:url(#SVGID_00000101810596636278149380000007991075655083905173_);">
						<text transform="matrix(1 0 0 1 450.7 103.8377)" class="st11 st4">s</text>
						<text transform="matrix(1 0 0 1 461.9 109.0377)" class="st3 st12">1</text>
					</g>
				</g>
				<g>
					<defs>
						<rect id="SVGID_00000061461053560956842250000016774452312467726526_" x="549.9" y="304.9" width="29.1" height="24.1"/>
					</defs>
					<clipPath id="SVGID_00000131363675646525264660000003949055375600474022_">
						<use xlink:href="#SVGID_00000061461053560956842250000016774452312467726526_"  style="overflow:visible;"/>
					</clipPath>
					<g style="clip-path:url(#SVGID_00000131363675646525264660000003949055375600474022_);">
						<text transform="matrix(1 0 0 1 553.04 321.2377)" class="st11 st4">s</text>
						<text transform="matrix(1 0 0 1 564.25 326.1277)" class="st3 st12">2</text>
					</g>
				</g>
				<g>
					<defs>
						<rect id="SVGID_00000038373200212882033330000014606511150713134764_" x="681.2" y="152" width="29.1" height="24.3"/>
					</defs>
					<clipPath id="SVGID_00000132073102220608534550000015534016212516821675_">
						<use xlink:href="#SVGID_00000038373200212882033330000014606511150713134764_"  style="overflow:visible;"/>
					</clipPath>
					<g style="clip-path:url(#SVGID_00000132073102220608534550000015534016212516821675_);">
						<text transform="matrix(1 0 0 1 684.35 168.2677)" class="st11 st4">s</text>
						<text transform="matrix(1 0 0 1 695.55 173.1477)" class="st3 st12">3</text>
					</g>
				</g>
				<g>
					<defs>
						<rect id="SVGID_00000174585725087595018720000012510249650150238904_" x="-2.8" y="9.7" width="100.1" height="25.8"/>
					</defs>
					<clipPath id="SVGID_00000142160896017598805420000016372562230673256076_">
						<use xlink:href="#SVGID_00000174585725087595018720000012510249650150238904_"  style="overflow:visible;"/>
					</clipPath>
					<g style="clip-path:url(#SVGID_00000142160896017598805420000016372562230673256076_);">
						<text transform="matrix(1 0 0 1 0 32.2477)" class="st3 st4">Gi</text>
						<text transform="matrix(1 0 0 1 24.55 32.2477)" class="st3 st4 st26">v</text>
						<text transform="matrix(1 0 0 1 36.82 32.2477)" class="st3 st4">en...</text>
					</g>
				</g>
				<g>
					<defs>
						<rect id="SVGID_00000151522890812295294190000013457778741134336651_" x="-2.6" y="205.2" width="343.4" height="108.3"/>
					</defs>
					<clipPath id="SVGID_00000134967055743245668220000000282883735302415788_">
						<use xlink:href="#SVGID_00000151522890812295294190000013457778741134336651_"  style="overflow:visible;"/>
					</clipPath>
					<g style="clip-path:url(#SVGID_00000134967055743245668220000000282883735302415788_);">
						<text transform="matrix(1 0 0 1 14.18 231.4777)" class="st3 st4">subst</text>
						<text transform="matrix(1 0 0 1 76.75 231.4777)" class="st3 st4 st28">.</text>
						<text transform="matrix(1 0 0 1 110.42 231.4777)" class="st3 st4">fract.</text>
						<text transform="matrix(1 0 0 1 186.62 231.4777)" class="st11 st4">A</text>
						<text transform="matrix(1 0 0 1 235 231.4777)" class="st3 st4">fract.</text>
						<text transform="matrix(1 0 0 1 306.73 231.4777)" class="st11 st4">B</text>
						<line class="st10" x1="0.2" y1="242.1" x2="338.1" y2="242.1"/>
						<text transform="matrix(1 0 0 1 37.15 266.0677)" class="st11 st4">q</text>
						<text transform="matrix(1 0 0 1 50.42 271.2677)" class="st3 st12">1</text>
						<line class="st10" x1="99.5" y1="276.1" x2="99.5" y2="242.6"/>
						<text transform="matrix(1 0 0 1 150.01 266.0677)" class="st3 st4">2</text>
						<text transform="matrix(1 0 0 1 164.32 266.0677)" class="st3 st4 st13">5</text>
						<text transform="matrix(1 0 0 1 183.26 266.0677)" class="st3 st4">%</text>
						<line class="st10" x1="220.5" y1="276.1" x2="220.5" y2="242.6"/>
						<text transform="matrix(1 0 0 1 268.15 266.0677)" class="st3 st4">2</text>
						<text transform="matrix(1 0 0 1 282.46 266.0677)" class="st3 st4 st13">8</text>
						<text transform="matrix(1 0 0 1 301.43 266.0677)" class="st3 st4">%</text>
						<text transform="matrix(1 0 0 1 37.15 299.5377)" class="st11 st4">q</text>
						<text transform="matrix(1 0 0 1 50.42 304.4177)" class="st3 st12">2</text>
						<line class="st10" x1="99.5" y1="309.6" x2="99.5" y2="276.1"/>
						<text transform="matrix(1 0 0 1 150.01 299.5377)" class="st3 st4">1</text>
						<text transform="matrix(1 0 0 1 164.32 299.5377)" class="st3 st4 st13">5</text>
						<text transform="matrix(1 0 0 1 183.26 299.5377)" class="st3 st4">%</text>
						<line class="st10" x1="220.5" y1="309.6" x2="220.5" y2="276.1"/>
						<text transform="matrix(1 0 0 1 268.15 299.5377)" class="st3 st4">1</text>
						<text transform="matrix(1 0 0 1 282.46 299.5377)" class="st3 st4 st13">5</text>
						<text transform="matrix(1 0 0 1 301.43 299.5377)" class="st3 st4">%</text>
						<line class="st10" x1="0.2" y1="310.1" x2="338.1" y2="310.1"/>
					</g>
				</g>
				<rect y="208.3" class="st29" width="328" height="32"/>
				<g>
					<defs>
						<rect id="SVGID_00000064316699789957301290000006901547481021619876_" x="-2.8" y="202.4" width="147" height="25.1"/>
					</defs>
					<clipPath id="SVGID_00000100368824628787557290000013749220123097937582_">
						<use xlink:href="#SVGID_00000064316699789957301290000006901547481021619876_"  style="overflow:visible;"/>
					</clipPath>
					<g style="clip-path:url(#SVGID_00000100368824628787557290000013749220123097937582_);">
						<text transform="matrix(1 0 0 1 0 224.2477)" class="st3 st4">ca</text>
						<text transform="matrix(1 0 0 1 25.94 224.2477)" class="st3 st4 st31">n</text>
						<text transform="matrix(1 0 0 1 49.54 224.2477)" class="st3 st4 st26">w</text>
						<text transform="matrix(1 0 0 1 68.93 224.2477)" class="st3 st4 st31">e</text>
						<text transform="matrix(1 0 0 1 91.02 224.2477)" class="st3 st4">mix</text>
					</g>
				</g>
				<g>
					<defs>
						<rect id="SVGID_00000149344842072437592360000005626796899338720174_" x="490.8" y="245.4" width="31.2" height="26.8"/>
					</defs>
					<clipPath id="SVGID_00000163778383131977952120000005997435965190568064_">
						<use xlink:href="#SVGID_00000149344842072437592360000005626796899338720174_"  style="overflow:visible;"/>
					</clipPath>
					<g style="clip-path:url(#SVGID_00000163778383131977952120000005997435965190568064_);">
						<text transform="matrix(1 0 0 1 493.93 261.6477)" class="st11 st4">q</text>
						<text transform="matrix(1 0 0 1 507.2 266.5377)" class="st3 st12">2</text>
					</g>
				</g>
				<rect x="509.6" y="239.4" transform="matrix(0.7071 -0.7071 0.7071 0.7071 -18.765 435.2417)" width="12.7" height="1.8"/>
				<rect x="515.1" y="233.9" transform="matrix(0.7071 -0.7071 0.7071 0.7071 -18.7701 435.2437)" width="1.8" height="12.7"/>
				<g>
					<defs>
						<rect id="SVGID_00000034772573468650393250000010733886128034807463_" x="180.8" y="324.7" width="27" height="39.3"/>
					</defs>
					<clipPath id="SVGID_00000137827554877674790240000011736138624184151964_">
						<use xlink:href="#SVGID_00000034772573468650393250000010733886128034807463_"  style="overflow:visible;"/>
					</clipPath>
					<g style="clip-path:url(#SVGID_00000137827554877674790240000011736138624184151964_);">
						<text transform="matrix(1 0 0 1 183.63 360.5377)" class="st34 st35 st36">?</text>
					</g>
				</g>
				<g>
					<defs>
						<rect id="SVGID_00000136404229477294672600000007123294586838018443_" x="-2.6" y="328" width="183" height="32.5"/>
					</defs>
					<clipPath id="SVGID_00000148661458909538609260000004136232398903339917_">
						<use xlink:href="#SVGID_00000136404229477294672600000007123294586838018443_"  style="overflow:visible;"/>
					</clipPath>
					<g style="clip-path:url(#SVGID_00000148661458909538609260000004136232398903339917_);">
						<text transform="matrix(1 0 0 1 0.23 349.8577)" class="st3 st4">using</text>
						<text transform="matrix(1 0 0 1 77.21 349.8577)" class="st11 st4">s</text>
						<text transform="matrix(1 0 0 1 88.41 355.0677)" class="st3 st12">1</text>
						<text transform="matrix(1 0 0 1 100.4 349.8577)" class="st3 st4">,</text>
						<text transform="matrix(1 0 0 1 115.85 349.8577)" class="st11 st4">s</text>
						<text transform="matrix(1 0 0 1 127.04 354.7477)" class="st3 st12">2</text>
						<text transform="matrix(1 0 0 1 139.04 349.8577)" class="st3 st4">,</text>
						<text transform="matrix(1 0 0 1 154.48 349.8577)" class="st11 st4">s</text>
						<text transform="matrix(1 0 0 1 165.68 354.7477)" class="st3 st12">3</text>
					</g>
				</g>
				<line class="st38" x1="484" y1="112.3" x2="548" y2="304.3"/>
				<line class="st38" x1="484" y1="112.3" x2="676" y2="176.3"/>
				<line class="st38" x1="676" y1="176.3" x2="548" y2="304.3"/>
				<path class="st15" d="M489.4,112.3c0-3-2.4-5.4-5.4-5.4c-3,0-5.4,2.4-5.4,5.4c0,3,2.4,5.4,5.4,5.4S489.4,115.3,489.4,112.3
					L489.4,112.3"/>
				<path class="st15" d="M553.4,304.3c0-3-2.4-5.4-5.4-5.4c-3,0-5.4,2.4-5.4,5.4c0,3,2.4,5.4,5.4,5.4S553.4,307.3,553.4,304.3
					C553.4,304.3,553.4,304.3,553.4,304.3"/>
				<rect x="573.6" y="156.2" transform="matrix(0.7071 -0.7071 0.7071 0.7071 58.8097 456.1314)" width="12.7" height="1.8"/>
				<rect x="579.1" y="150.7" transform="matrix(0.7071 -0.7071 0.7071 0.7071 58.8047 456.1335)" width="1.8" height="12.7"/>
				<g>
					<defs>
						<rect id="SVGID_00000018921448175047011540000004250089272336219325_" x="583.3" y="157.1" width="31.2" height="26.8"/>
					</defs>
					<clipPath id="SVGID_00000146482998029182188150000015425847390313834666_">
						<use xlink:href="#SVGID_00000018921448175047011540000004250089272336219325_"  style="overflow:visible;"/>
					</clipPath>
					<g style="clip-path:url(#SVGID_00000146482998029182188150000015425847390313834666_);">
						<text transform="matrix(1 0 0 1 586.44 173.4177)" class="st11 st4">q</text>
						<text transform="matrix(1 0 0 1 599.7 178.6177)" class="st3 st12">1</text>
					</g>
				</g>
				<path class="st15" d="M681.4,176.3c0-3-2.4-5.4-5.4-5.4c-3,0-5.4,2.4-5.4,5.4c0,3,2.4,5.4,5.4,5.4S681.4,179.3,681.4,176.3
					C681.4,176.3,681.4,176.3,681.4,176.3"/>
			</g>
		</g>
	</g>
</g>
</svg>
