<?xml version="1.0" encoding="utf-8"?>
<!-- Generator: Adobe Illustrator 17.1.0, SVG Export Plug-In . SVG Version: 6.00 Build 0)  -->
<!DOCTYPE svg PUBLIC "-//W3C//DTD SVG 1.1//EN" "http://www.w3.org/Graphics/SVG/1.1/DTD/svg11.dtd">
<svg version="1.1" xmlns="http://www.w3.org/2000/svg" xmlns:xlink="http://www.w3.org/1999/xlink" x="0px" y="0px"
	 viewBox="0 0 660 630" style="enable-background:new 0 0 660 630;" width="660" height="630" xml:space="preserve">
<style type="text/css">
	.st0{fill:none;stroke:#000;stroke-width:4;stroke-miterlimit:10;}
	.st1{fill:none;stroke:#00f;stroke-width:6;stroke-linecap:round;stroke-linejoin:round;stroke-miterlimit:10;}
	.st2{fill:none;stroke:#f00;stroke-width:6;stroke-linecap:round;stroke-linejoin:round;stroke-miterlimit:10;}
	.st3{fill:none;stroke:#00f;stroke-width:6;stroke-linecap:round;stroke-linejoin:round;stroke-miterlimit:10;}
	.st4{font-family:'Liberation Serif';}
	.st5{font-size:36px;}
	.st6{letter-spacing:5px;}
</style>
<g id="diagram">
	<g>
		<g>
			<line class="st0" x1="317" y1="45.5" x2="317" y2="271"/>
			<g>
				<polygon points="317,25.7 305.7,53.6 317,47 328.4,53.6 				"/>
			</g>
		</g>
	</g>
	<g>
		<g>
			<line class="st0" x1="561" y1="221" x2="87.4" y2="221"/>
			<g>
				<polygon points="580.8,221 552.9,209.6 559.5,221 552.9,232.4 				"/>
			</g>
		</g>
	</g>
	<g>
		<g>
			<line class="st0" x1="297.5" y1="387.7" x2="297.5" y2="549.1"/>
			<g>
				<polygon points="297.5,367.9 286.2,395.7 297.5,389.1 308.9,395.7 				"/>
			</g>
		</g>
	</g>
	<g>
		<g>
			<line class="st0" x1="624.3" y1="523.4" x2="24.1" y2="523.4"/>
			<g>
				<polygon points="644.1,523.4 616.3,512 622.9,523.4 616.3,534.7 				"/>
			</g>
		</g>
	</g>
	<path class="st1" d="M84.2,221c13.3,0,191.5,0,195.4,0c6.3-25,18.8-150.8,37.5-150.8s36.7,132,36.7,150.8c27.3,0,196.1,0,196.1,0"
		/>
	<path class="st2" d="M49.9,596.8c0,0,124.2-125,145.3-146.1c22.7,25.9,50.9,75.5,102.4,72.7c51.4,0,92.8-44.2,145.8-145.8
		c0,32.2,0.8,73.9,0.8,73.9l158,160"/>
	<path class="st3" d="M49.9,596.8c5-5,93.4-94.1,121.2-121.9c4.8-4.8,24.4-20,42.5,0c31,34.2,46,48,83.9,48.5
		c28.2,0.4,64.2-8.4,118.2-96c10.5-17,23.2-2.7,28.1,4.2c10.5,14.6,22.9,43,32.4,52.5c61.5,61.5,59.2,59.3,125.9,127.5"/>
</g>
<g id="tex">
	<text transform="matrix(1 0 0 1 258.4531 271.0156)" class="st4 st5 st6">̶Ɛ</text>
	<text transform="matrix(1 0 0 1 349.8594 271.0156)" class="st4 st5">Ɛ</text>
</g>
</svg>
