<svg xmlns="http://www.w3.org/2000/svg" xmlns:xlink="http://www.w3.org/1999/xlink" viewBox="0 0 129.5 101.46"><defs><style>.cls-1{fill:none;}.cls-2{fill:#dceede;}.cls-3{font-size:8px;}.cls-3,.cls-5,.cls-6,.cls-9{fill:#231f20;}.cls-3,.cls-6{font-family:TimesNewRomanPSMT, Times New Roman;}.cls-4{letter-spacing:0.02em;}.cls-6{font-size:8.5px;}.cls-7{clip-path:url(#clip-path);}.cls-8{fill:#00ab4e;}.cls-9{fill-rule:evenodd;}</style><clipPath id="clip-path" transform="translate(0 0.01)"><rect class="cls-1" width="129.5" height="101.45"/></clipPath></defs><g id="Layer_2" data-name="Layer 2"><g id="Layer_1-2" data-name="Layer 1"><polygon class="cls-2" points="2.38 13.68 90.13 101.17 129.5 101.17 129.5 13.68 2.38 13.68"/><text class="cls-3" transform="translate(124.86 67.03)">x</text><text class="cls-3" transform="translate(59.17 66.87)">0</text><text class="cls-3" transform="translate(59.12 17.5)">y</text><text class="cls-3" transform="translate(38.65 66.87)"><tspan class="cls-4">-</tspan><tspan x="2.83" y="0">1</tspan></text><text class="cls-3" transform="translate(54.56 81.87)"><tspan class="cls-4">-</tspan><tspan x="2.83" y="0">1</tspan></text><path class="cls-5" d="M83.8,95.17h.4v-4h-.4Zm0-6h.4v-5h-.4Zm0-7h.4v-5h-.4Zm0-7h.4v-5h-.4Zm0-7h.4v-5h-.4Zm0-7h.4v-5h-.4Zm0-7h.4v-5h-.4Zm0-7h.4v-5h-.4Zm0-7h.4v-5h-.4Zm0-7h.4v-5h-.4Zm0-7h.4v-5h-.4Zm0-7h.4v-5h-.4Z" transform="translate(0 0.01)"/><polyline class="cls-5" points="25.25 10.02 20.63 28.65 20.87 28.71 25.5 10.08"/><polygon class="cls-5" points="20.23 30.78 19.86 27.76 20.75 28.68 21.97 28.28 20.23 30.78"/><text class="cls-6" transform="translate(88.54 34.98)">x=1</text><g class="cls-7"><text class="cls-6" transform="translate(3 7.06)">x+y+1=0</text></g><rect class="cls-8" x="45.85" y="-4.54" width="0.8" height="123.92" transform="translate(-27.06 49.63) rotate(-45.08)"/><rect class="cls-5" y="58.98" width="126" height="0.4"/><polygon class="cls-5" points="126 59.18 124.93 60.78 129.2 59.18 124.93 57.58 126 59.18"/><rect class="cls-5" x="65.8" y="17.18" width="0.4" height="84"/><polygon class="cls-9" points="66 17.18 64.4 18.24 66 13.98 67.6 18.24 66 17.18"/></g></g></svg>