<svg xmlns="http://www.w3.org/2000/svg" xmlns:xlink="http://www.w3.org/1999/xlink" viewBox="0 0 243.41 111.96"><defs><style>.cls-1,.cls-16,.cls-17,.cls-19,.cls-2,.cls-20,.cls-21,.cls-3,.cls-9{fill:none;}.cls-17,.cls-2,.cls-20,.cls-21{stroke:#231f20;}.cls-16,.cls-17,.cls-2,.cls-3,.cls-9{stroke-width:0.5px;}.cls-3{stroke:#ffcb05;}.cls-4{clip-path:url(#clip-path);}.cls-5{fill:url(#linear-gradient);}.cls-6{clip-path:url(#clip-path-2);}.cls-7{fill:url(#linear-gradient-2);}.cls-8{clip-path:url(#clip-path-3);}.cls-16,.cls-9{stroke:#ed1846;}.cls-9{stroke-dasharray:4 2;}.cls-10,.cls-11,.cls-14,.cls-15{fill:#231f20;}.cls-11{font-size:8px;}.cls-11,.cls-14,.cls-15{font-family:TimesNewRomanPSMT, Times New Roman;}.cls-12{clip-path:url(#clip-path-4);}.cls-13{fill:#ed1846;}.cls-14{font-size:8px;}.cls-15{font-size:6px;}.cls-16,.cls-17,.cls-19,.cls-20{stroke-miterlimit:3.86;}.cls-18{fill:#00aeef;}.cls-19{stroke:#00aeef;}.cls-19,.cls-20{stroke-width:0.25px;}.cls-21{stroke-width:0.3px;}</style><clipPath id="clip-path" transform="translate(-0.12 -0.11)"><path class="cls-1" d="M29.73,30.16c-12.06,7.72-8.66,21.33-8.66,21.33v.62s1.24,9.89,6.81,12,5.25,9.9,5.56,19.48,7.11,10.21,21,2.17,10.83-3.09,22-1.24,13.91-5.87,14.84-9.89,3.4-7.11,4.63-17.63S91,32,76.42,25.52A43.07,43.07,0,0,0,58.9,22.09c-10.64,0-21.52,3.16-29.17,8.07"/></clipPath><linearGradient id="linear-gradient" x1="-283.1" y1="512.48" x2="-282.1" y2="512.48" gradientTransform="matrix(75.01, 0, 0, -75.01, 21257.39, 38501.16)" gradientUnits="userSpaceOnUse"><stop offset="0" stop-color="#f4ebe7"/><stop offset="1" stop-color="#e2cac0"/></linearGradient><clipPath id="clip-path-2" transform="translate(-0.12 -0.11)"><path class="cls-1" d="M50.16,41.3a9.9,9.9,0,1,0,9.89-9.9,9.89,9.89,0,0,0-9.89,9.9"/></clipPath><linearGradient id="linear-gradient-2" x1="-283.1" y1="512.49" x2="-282.1" y2="512.49" gradientTransform="matrix(20.29, 0, 0, -20.29, 5792.78, 10437.69)" gradientUnits="userSpaceOnUse"><stop offset="0" stop-color="#ecdcd5"/><stop offset="1" stop-color="#d7aa9b"/></linearGradient><clipPath id="clip-path-3" transform="translate(-0.12 -0.11)"><rect class="cls-1" x="0.12" y="0.12" width="242.97" height="111.95"/></clipPath><clipPath id="clip-path-4" transform="translate(-0.12 -0.11)"><rect class="cls-1" width="249.79" height="116.8"/></clipPath></defs><g id="Layer_2" data-name="Layer 2"><g id="Layer_1-2" data-name="Layer 1"><line class="cls-2" x1="210.4" y1="66.98" x2="235.93" y2="66.98"/><line class="cls-3" x1="167.93" y1="66.98" x2="210.4" y2="66.98"/><line class="cls-2" x1="130.48" y1="66.98" x2="167.93" y2="66.98"/><g class="cls-4"><rect class="cls-5" x="17.55" y="21.98" width="79.46" height="71.76"/></g><g class="cls-6"><rect class="cls-7" x="50.04" y="31.29" width="19.79" height="19.79"/></g><g class="cls-8"><path class="cls-9" d="M70,41.3a9.9,9.9,0,1,1-9.9-9.9A9.89,9.89,0,0,1,70,41.3Z" transform="translate(-0.12 -0.11)"/><path class="cls-2" d="M.12,67.09H105.57m-63.43,45V11.53" transform="translate(-0.12 -0.11)"/></g><polygon class="cls-10" points="43.77 12.82 42.02 9.32 40.27 12.82 42.02 11.42 43.77 12.82"/><text class="cls-11" transform="translate(40.24 6.65)">y</text><polygon class="cls-10" points="104.05 68.73 107.55 66.98 104.05 65.23 105.45 66.98 104.05 68.73"/><text class="cls-11" transform="translate(109.38 69.05)">x</text><polygon class="cls-10" points="234.53 68.73 238.03 66.98 234.53 65.23 235.93 66.98 234.53 68.73"/><text class="cls-11" transform="translate(239.86 69.05)">z</text><path class="cls-2" d="M137.24,63.09v4m52-4v4" transform="translate(-0.12 -0.11)"/><g class="cls-12"><path class="cls-13" d="M177.62,65.4a8.1,8.1,0,0,1-1.12-3.77l-.13.13.29,2.63L174,64l-.13.12a8.11,8.11,0,0,1,3.72,1.28" transform="translate(-0.12 -0.11)"/></g><text class="cls-11" transform="translate(135.11 75.18)">0</text><text class="cls-11" transform="translate(35.44 75.18)">0</text><text class="cls-11" transform="translate(28.15 45.45)">D</text><text class="cls-11" transform="translate(158.98 78.19)">L </text><text class="cls-11" transform="translate(165.43 78.19)">−</text><text class="cls-14" transform="translate(172.08 78.69)"> </text><text class="cls-11" transform="translate(171.08 78.19)">ε</text><text class="cls-11" transform="translate(200.24 78.19)">L </text><text class="cls-11" transform="translate(206.68 78.19)">+</text><text class="cls-14" transform="translate(213.35 78.69)"> </text><text class="cls-11" transform="translate(213.35 78.19)">ε</text><text class="cls-11" transform="translate(186.87 78.19)">L</text><text class="cls-11" transform="translate(125.19 32.54)">f</text><text class="cls-11" transform="translate(71.45 40.23)">(</text><text class="cls-11" transform="translate(74.11 40.23)">x</text><text class="cls-11" transform="translate(77.66 40.23)">, </text><text class="cls-11" transform="translate(81.66 40.23)">y</text><text class="cls-11" transform="translate(85.22 40.23)">)</text><text class="cls-11" transform="translate(68.06 61.97)">(</text><text class="cls-11" transform="translate(70.72 61.97)">x</text><text class="cls-15" transform="translate(74.67 63.97)">0</text><text class="cls-11" transform="translate(78.12 61.97)">, </text><text class="cls-11" transform="translate(82.12 61.97)">y</text><text class="cls-15" transform="translate(85.87 63.97)">0</text><text class="cls-11" transform="translate(89.32 61.97)">)</text><g class="cls-12"><line class="cls-16" x1="59.93" y1="41.18" x2="51.95" y2="35.65"/><path class="cls-10" d="M61.8,41.3a1.75,1.75,0,1,1-1.75-1.75A1.75,1.75,0,0,1,61.8,41.3" transform="translate(-0.12 -0.11)"/><circle class="cls-17" cx="59.93" cy="41.18" r="1.75"/><path class="cls-13" d="M208,71.37a8.69,8.69,0,0,0,1.36-5A9.27,9.27,0,0,0,208,62h.59a7.33,7.33,0,0,1,0,9.4Z" transform="translate(-0.12 -0.11)"/><path class="cls-13" d="M170.6,62a8.69,8.69,0,0,0-1.36,5,9.27,9.27,0,0,0,1.37,4.44H170a7.33,7.33,0,0,1,0-9.4Z" transform="translate(-0.12 -0.11)"/><path class="cls-18" d="M180.39,67.09a1.75,1.75,0,1,1-1.75-1.75,1.75,1.75,0,0,1,1.75,1.75" transform="translate(-0.12 -0.11)"/><circle class="cls-19" cx="178.52" cy="66.98" r="1.75"/><path class="cls-10" d="M191,67.09a1.75,1.75,0,1,1-1.75-1.75A1.75,1.75,0,0,1,191,67.09" transform="translate(-0.12 -0.11)"/><circle class="cls-20" cx="189.17" cy="66.98" r="1.75"/><path class="cls-21" d="M67.66,56.93,61.39,43.84m9.27-5.59L63,35.47" transform="translate(-0.12 -0.11)"/><path class="cls-16" d="M60.19,34.79s72.84-15,116.55,29.76" transform="translate(-0.12 -0.11)"/><path class="cls-18" d="M61.94,34.79A1.75,1.75,0,1,1,60.19,33a1.75,1.75,0,0,1,1.75,1.75" transform="translate(-0.12 -0.11)"/><circle class="cls-19" cx="60.07" cy="34.68" r="1.75"/></g><text class="cls-11" transform="translate(43.19 50.05) scale(1 1.02)">δ</text><g class="cls-12"><line class="cls-21" x1="54.29" y1="38.16" x2="48.04" y2="45.66"/></g></g></g></svg>