<svg xmlns="http://www.w3.org/2000/svg" xmlns:xlink="http://www.w3.org/1999/xlink" viewBox="0 0 129.59 90.32"><defs><style>.cls-1{fill:none;}.cls-2{clip-path:url(#clip-path);}.cls-3{fill:#dceede;}.cls-4{font-size:8px;}.cls-4,.cls-5,.cls-6,.cls-8{fill:#231f20;}.cls-4,.cls-6{font-family:TimesNewRomanPSMT, Times New Roman;}.cls-6{font-size:8.5px;}.cls-7{fill:#00ab4e;}.cls-8{fill-rule:evenodd;}</style><clipPath id="clip-path" transform="translate(0 0.01)"><rect class="cls-1" width="129.59" height="90.32"/></clipPath></defs><g id="Layer_2" data-name="Layer 2"><g id="Layer_1-2" data-name="Layer 1"><g class="cls-2"><path class="cls-3" d="M129.5,90.31H0V2.81H129.5V18.32c-29.5,7-69.5,16-69.5,30s40,23,69.5,30v12" transform="translate(0 0.01)"/></g><text class="cls-4" transform="translate(124.85 56.17)">x</text><text class="cls-4" transform="translate(53.17 56.02)">0</text><g class="cls-2"><text class="cls-4" transform="translate(53.48 6.65)">y</text><polyline class="cls-5" points="100.21 33.63 99.25 28.55 99 28.6 99.96 33.68"/><polygon class="cls-5" points="98.71 26.44 100.32 29.03 99.13 28.57 98.19 29.45 98.71 26.44"/></g><text class="cls-6" transform="translate(98.29 40.25)">x=y2</text><g class="cls-2"><path class="cls-7" d="M124.58,77.56l4.83,1.14.18-.77-4.82-1.15Zm-7.79-1.86,5.84,1.4.19-.78c-1.93-.46-3.88-.92-5.84-1.4ZM109,73.78l5.84,1.45.19-.78c-1.94-.47-3.89-1-5.83-1.45Zm-7.75-2q2.88.78,5.81,1.53l.2-.77c-1.94-.5-3.88-1-5.8-1.53Zm-7.71-2.19c1.89.56,3.82,1.12,5.78,1.66l.21-.77q-2.92-.81-5.76-1.66ZM85.9,67.13q2.79.95,5.73,1.85l.23-.77q-2.92-.9-5.7-1.83Zm-7.53-2.78q2.7,1.09,5.64,2.13l.26-.76c-1.94-.68-3.82-1.39-5.6-2.11ZM71.06,61c1.68.89,3.51,1.75,5.46,2.58l.31-.74c-1.93-.82-3.74-1.67-5.4-2.55ZM64.3,56.58a33.69,33.69,0,0,0,5,3.45l.4-.7A32.3,32.3,0,0,1,64.82,56Zm-4.54-6.69a11,11,0,0,0,3.05,5.3l.58-.55a10.17,10.17,0,0,1-2.84-4.91Zm2.34-7.66a9.6,9.6,0,0,0-2.48,5.58l.79.06a9,9,0,0,1,2.3-5.13Zm6.29-5.09a30.3,30.3,0,0,0-4.88,3.61l.55.59a28.9,28.9,0,0,1,4.74-3.52Zm7.16-3.67c-1.94.86-3.76,1.74-5.42,2.66l.39.7c1.63-.9,3.43-1.78,5.36-2.63Zm7.47-3c-2,.71-3.84,1.43-5.62,2.18l.31.73q2.66-1.09,5.58-2.15ZM90.63,28q-2.94.91-5.72,1.88l.26.75c1.84-.64,3.75-1.26,5.7-1.87Zm7.69-2.27c-1.95.55-3.88,1.11-5.77,1.68l.23.77c1.88-.57,3.81-1.13,5.76-1.68Zm7.74-2.08q-2.93.75-5.81,1.55l.21.77c1.92-.53,3.86-1,5.8-1.55Zm7.77-2c-1.94.48-3.88,1-5.83,1.46l.2.77c1.94-.49,3.89-1,5.82-1.45Zm7.79-1.88-5.85,1.41L116,22l5.84-1.4Zm7.79-1.84-5.85,1.38.19.78,5.84-1.39Z" transform="translate(0 0.01)"/><polyline class="cls-5" points="0 48.52 126 48.52 126 48.12 0 48.12"/><polygon class="cls-8" points="126 48.32 124.93 46.72 129.2 48.32 124.93 49.92 126 48.32"/><polyline class="cls-5" points="60.2 90.32 60.2 6.32 59.8 6.32 59.8 90.32"/><polygon class="cls-8" points="60 6.32 58.4 7.39 60 3.12 61.6 7.39 60 6.32"/></g></g></g></svg>