<svg version="1.1" xmlns="http://www.w3.org/2000/svg" viewBox="0 0 326.5760556703499 214.14934379617898" width="326.5760556703499" height="214.14934379617898">
  <!-- svg-source:excalidraw -->
  
  <defs>
    <style>
      @font-face {
        font-family: "Virgil";
        src: url("https://excalidraw.com/Virgil.woff2");
      }
      @font-face {
        font-family: "Cascadia";
        src: url("https://excalidraw.com/Cascadia.woff2");
      }
    </style>
  </defs>
  <rect x="0" y="0" width="326.5760556703499" height="214.14934379617898" fill="#ffffff"></rect><g stroke-linecap="round" transform="translate(64.88597535544204 40.63865548221486) rotate(0 31.464625700783472 13.492910180846593)"><path d="M1.15 0.67 C20.71 -0.51, 41.1 -2.19, 63.85 -1.14 M0.21 0.55 C24.04 -0.09, 47.68 1.09, 62.98 0.31 M64.16 1.48 C64.45 5.27, 64.37 12.37, 61.41 28.41 M62 0.66 C63.87 9.93, 62.89 18.38, 63.3 27.47 M61.41 25.09 C48.93 27.54, 37.71 28.86, 0.09 28.01 M62.63 27.43 C43.09 26.68, 21.69 26.65, 0.61 26.94 M-1.8 25.64 C-1.58 21.87, 0.13 13.39, -1.39 0.98 M0.75 26.85 C0.03 19.18, 0 13.54, 0.75 -0.05" stroke="#000000" stroke-width="2" fill="none"></path></g><g transform="translate(71.14578590758583 42.110997723981995) rotate(0 120.5 12.5)"><text x="0" y="18" font-family="Virgil, Segoe UI Emoji" font-size="20px" fill="#000000" text-anchor="start" style="white-space: pre;" direction="ltr">0000 0011   1110   1000</text></g><g stroke-linecap="round" transform="translate(128.24395792983296 40.63865548221486) rotate(0 31.464625700783472 13.492910180846593)"><path d="M1.25 -1.82 C21.9 -1.09, 43.53 -1.48, 61.85 0.42 M0.01 0.76 C22.37 0.59, 43.84 -0.08, 62.37 0.62 M64.46 0.57 C61.62 11.52, 64.02 20.3, 61.49 25.13 M62.87 -0.15 C63.55 10.35, 62.3 19.54, 63.45 26.22 M64.46 28.53 C50.1 28.08, 37.7 26.99, 1.57 26.39 M63.23 26.16 C41.87 26.44, 19.14 26.33, 0.54 26.09 M0.08 27.2 C-1.17 21.69, -0.63 12.42, -0.66 1.5 M-0.27 27.44 C0.81 19.2, 0.16 11.78, 0.96 -0.31" stroke="#000000" stroke-width="2" fill="none"></path></g><g stroke-linecap="round" transform="translate(190.6171013968501 40.63865548221486) rotate(0 31.464625700783472 13.492910180846593)"><path d="M0.92 -1.14 C20.02 -0.95, 35.81 0.99, 64.02 0.41 M0.05 0.31 C15.34 -0.83, 31.75 0.14, 63.67 0.81 M61.41 1.42 C64 7.36, 61.69 12.63, 64.24 28.83 M63.3 0.49 C62.04 9.68, 63.44 19, 61.98 26.68 M63.02 28.01 C43.93 27.41, 25.3 26.88, 0.89 28.86 M63.54 26.94 C48.65 26.31, 35.79 25.57, -0.67 26.17 M-1.39 27.97 C-0.86 14.48, -0.67 7.47, -0.27 -0.47 M0.75 26.93 C0.17 21.46, 1.03 15.11, -0.83 -0.44" stroke="#000000" stroke-width="2" fill="none"></path></g><g stroke-linecap="round" transform="translate(253.64680426878294 40.63865548221486) rotate(0 31.464625700783472 13.492910180846593)"><path d="M1.58 -1.52 C12.08 0.78, 27.4 0.77, 62.06 0.01 M-0.81 -0.36 C23.08 0.42, 48.02 0.61, 62.61 0.77 M63.8 0.11 C61.28 7, 64.04 19.56, 64.25 26.87 M62.06 -0.2 C63.55 6.93, 62.08 15.07, 63.04 27.75 M63.53 26.92 C40.75 26.71, 16.32 29.18, -1.6 27.6 M62.49 26.83 C49.78 26.06, 34.89 26.15, 0.9 27.03 M-0.85 24.99 C-0.47 20.11, -0.08 9.75, -1.71 -0.54 M0.1 27.24 C0.75 17.36, -1.04 7.91, -0.01 -0.65" stroke="#000000" stroke-width="2" fill="none"></path></g><g transform="translate(17.87871285899155 10) rotate(0 13 12.5)"><text x="0" y="18" font-family="Virgil, Segoe UI Emoji" font-size="20px" fill="#000000" text-anchor="start" style="white-space: pre;" direction="ltr">int</text></g><g stroke-linecap="round" transform="translate(64.88597535544204 146.34471967368563) rotate(0 31.464625700783472 13.492910180846593)"><path d="M-1.84 -0.47 C22.51 1.52, 45.89 -1.1, 63.93 -1.49 M0.15 0.22 C19.02 -0.44, 37.28 0.42, 62.14 0.27 M62.3 1.13 C63.21 8.69, 64.19 18.48, 62.3 28.47 M62.46 0.36 C63.6 5.5, 62.32 13.72, 63.41 26.68 M63.48 25.36 C48.78 28.71, 36.14 25.42, -1.82 25.12 M62.56 26.84 C46.49 26.86, 30.62 26.23, 0.1 27.79 M-0.3 28.46 C0.5 17.85, -0.95 10.79, 0.12 -0.76 M0.1 27.65 C0.49 18.4, -0.19 7.87, 0.23 0.38" stroke="#000000" stroke-width="2" fill="none"></path></g><g transform="translate(71.14578590758583 147.81706191545277) rotate(0 120.5 12.5)"><text x="0" y="18" font-family="Virgil, Segoe UI Emoji" font-size="20px" fill="#000000" text-anchor="start" style="white-space: pre;" direction="ltr">0000 0011   1110   1000</text></g><g stroke-linecap="round" transform="translate(128.24395792983296 146.34471967368563) rotate(0 31.464625700783472 13.492910180846593)"><path d="M-1.31 1.39 C15.38 -0.76, 35.26 -1.41, 63.49 0.66 M-0.87 -0.68 C16.9 0.1, 31.53 -1.29, 62.11 -0.4 M64.9 -0.53 C61.4 7.02, 60.84 16.8, 64.27 26.56 M62.93 -0.16 C62.27 7.19, 63.69 14.43, 62.42 26.27 M62.53 25.89 C46.27 27.22, 26.31 28.18, 1.19 27.73 M63.91 26.96 C43.42 27.63, 24.27 26.73, -0.63 27.11 M0.97 28.23 C-0.27 20.7, 1.82 11.68, 0.06 1.89 M0.9 27.7 C0.22 18.8, 0.39 9.97, -0.5 -0.12" stroke="#000000" stroke-width="2" fill="none"></path></g><g stroke-linecap="round" transform="translate(190.6171013968501 146.34471967368563) rotate(0 31.464625700783472 13.492910180846593)"><path d="M1.34 -0.43 C12.41 -0.01, 25.57 0.29, 62.61 -1.24 M-0.51 -0.72 C19.34 0.59, 39.17 -0.35, 62.38 0.63 M64.12 0.74 C63.03 9.59, 64.14 18.47, 62.87 27 M62.3 0.12 C62.71 8.39, 63.2 17.94, 63.55 26.81 M62.99 28.88 C41.46 25.76, 19.06 28.51, 1.43 27.16 M62.43 26.87 C41.14 26.57, 20.85 27.16, 0.03 26.19 M-1.91 28.31 C0.84 16.59, 0.34 6.25, 1.82 -1.27 M0.64 26.91 C0.27 21.72, 0.44 14.97, 0.78 0.41" stroke="#000000" stroke-width="2" fill="none"></path></g><g stroke-linecap="round" transform="translate(253.64680426878294 146.34471967368563) rotate(0 31.464625700783472 13.492910180846593)"><path d="M0.76 -1.62 C18.09 0.88, 38.98 1.47, 61.85 -1.98 M0.28 0.05 C16.62 0.61, 31.23 1.26, 62.38 -0.49 M63.03 -1.16 C63.79 10.98, 61.6 17.52, 62.1 26.65 M62.84 -0.82 C62.27 10.09, 62.96 21.49, 62.47 27.08 M63.52 28.29 C40.57 25.86, 14.21 26.65, -1.49 27.23 M63.69 27.77 C42.92 27.35, 22.72 27.88, 0.58 26.78 M0.71 28.46 C0.32 22.41, 2.09 16.65, -1.55 -0.84 M0.99 27.87 C0.56 19.19, 0.04 10.65, 0.35 -0.34" stroke="#000000" stroke-width="2" fill="none"></path></g><g transform="translate(10 115.70606419147077) rotate(0 21.5 12.5)"><text x="0" y="18" font-family="Virgil, Segoe UI Emoji" font-size="20px" fill="#000000" text-anchor="start" style="white-space: pre;" direction="ltr">char</text></g><g stroke-linecap="round"><g transform="translate(63.75846261055494 146.1295418815571) rotate(0 95.22848288299087 13.165041796939306)"><path d="M-0.38 0.79 C31.07 4.99, 157.05 21.82, 188.69 26.18 M1.62 0.15 C33.43 3.9, 159.69 20.02, 190.84 24.18" stroke="#c92a2a" stroke-width="2" fill="none"></path></g></g><g stroke-linecap="round"><g transform="translate(64.08674231301302 171.0787992683638) rotate(0 95.02444854856958 -12.932108167351828)"><path d="M-0.92 0.06 C30.58 -4.28, 157.03 -21.88, 188.77 -25.92 M0.79 -0.95 C32.69 -5.19, 159.66 -20.69, 190.97 -24.9" stroke="#c92a2a" stroke-width="2" fill="none"></path></g></g><g transform="translate(139.91935358080764 179.14934379617898) rotate(0 21 12.5)"><text x="0" y="18" font-family="Virgil, Segoe UI Emoji" font-size="20px" fill="#c92a2a" text-anchor="start" style="white-space: pre;" direction="ltr">chop</text></g><g stroke-linecap="round"><g transform="translate(182.59571490034523 80.8018810924184) rotate(0 -0.5244346918527754 19.111884491631884)"><path d="M1.09 0.99 C0.63 7.23, -1.88 31.86, -2.14 37.76 M0.2 0.46 C0.07 6.36, 0.31 29.98, 0.14 36.17" stroke="#000000" stroke-width="2" fill="none"></path></g><g transform="translate(182.59571490034523 80.8018810924184) rotate(0 -0.5244346918527754 19.111884491631884)"><path d="M-4.52 17.57 C-2.3 26.14, -2.17 31.82, 1.73 35.83 M-6.26 18.81 C-3.45 24.91, -2.42 31.03, 1.01 36.09" stroke="#000000" stroke-width="2" fill="none"></path></g><g transform="translate(182.59571490034523 80.8018810924184) rotate(0 -0.5244346918527754 19.111884491631884)"><path d="M8.06 17.66 C5.87 26.3, 1.59 31.96, 1.73 35.83 M6.32 18.9 C4.98 24.9, 1.87 30.99, 1.01 36.09" stroke="#000000" stroke-width="2" fill="none"></path></g></g><g transform="translate(209.1863707994421 89.85726472760746) rotate(0 52 12.5)"><text x="0" y="18" font-family="Virgil, Segoe UI Emoji" font-size="20px" fill="#000000" text-anchor="start" style="white-space: pre;" direction="ltr">narrowing...</text></g></svg>