<svg version="1.1" xmlns="http://www.w3.org/2000/svg" viewBox="0 0 332 233.40394631560002" width="332" height="233.40394631560002">
  <!-- svg-source:excalidraw -->
  
  <defs>
    <style>
      @font-face {
        font-family: "Virgil";
        src: url("https://excalidraw.com/Virgil.woff2");
      }
      @font-face {
        font-family: "Cascadia";
        src: url("https://excalidraw.com/Cascadia.woff2");
      }
    </style>
  </defs>
  <rect x="0" y="0" width="332" height="233.40394631560002" fill="#ffffff"></rect><g stroke-linecap="round"><g transform="translate(10 190) rotate(0 148.51738505450885 0)"><path d="M0 0 C49.51 0, 247.53 0, 297.03 0 M0 0 C49.51 0, 247.53 0, 297.03 0" stroke="#000000" stroke-width="1" fill="none"></path></g></g><g transform="translate(30 182.79221142369443) rotate(0 119.63153882236657 -66.39610571184721)" stroke="none"><path fill="#000000" d="M 0,-1.58 Q 0,-1.58 2.38,-1.54 4.77,-1.50 6.94,-1.48 9.11,-1.45 11.40,-1.43 13.69,-1.41 15.84,-1.53 18.00,-1.65 20.47,-1.90 22.95,-2.15 25.27,-2.78 27.59,-3.41 29.47,-4.04 31.35,-4.67 33.26,-5.51 35.17,-6.35 37.48,-7.52 39.79,-8.69 41.15,-9.69 42.52,-10.69 44.23,-12.24 45.94,-13.80 47.10,-15.16 48.25,-16.52 49.68,-18.10 51.11,-19.69 52.28,-21.33 53.46,-22.97 54.62,-25.17 55.79,-27.37 57.05,-29.96 58.31,-32.54 59.46,-34.94 60.62,-37.34 62.69,-41.25 64.77,-45.15 66.62,-48.20 68.47,-51.25 70.26,-54.54 72.04,-57.84 73.35,-60.40 74.65,-62.95 75.62,-64.92 76.58,-66.89 77.44,-68.70 78.31,-70.51 78.78,-71.84 79.25,-73.17 79.68,-74.38 80.11,-75.58 80.62,-77.12 81.13,-78.65 81.61,-80.26 82.09,-81.86 82.45,-83.14 82.82,-84.42 83.23,-86.62 83.65,-88.81 83.88,-90.80 84.12,-92.79 84.38,-93.87 84.64,-94.96 85.05,-96.69 85.47,-98.43 85.68,-99.71 85.90,-100.99 86.29,-102.56 86.68,-104.13 87.34,-105.88 88.00,-107.63 88.42,-108.64 88.83,-109.65 89.59,-111.15 90.35,-112.64 91.10,-113.97 91.86,-115.29 92.94,-116.66 94.03,-118.04 94.88,-119.10 95.74,-120.15 96.90,-121.29 98.07,-122.42 99.01,-123.31 99.96,-124.21 100.82,-125.00 101.68,-125.79 102.50,-126.62 103.33,-127.45 104.53,-128.47 105.73,-129.49 106.97,-130.38 108.20,-131.26 109.25,-132.11 110.29,-132.96 111.30,-133.51 112.30,-134.06 113.81,-134.81 115.32,-135.56 116.86,-135.87 118.41,-136.17 119.70,-136.32 120.98,-136.47 122.36,-136.49 123.74,-136.51 125.23,-136.43 126.72,-136.35 127.92,-136.13 129.13,-135.91 130.22,-135.73 131.31,-135.55 132.47,-135.16 133.63,-134.78 134.73,-134.12 135.82,-133.46 136.89,-132.90 137.96,-132.34 138.92,-131.69 139.88,-131.04 140.58,-130.23 141.27,-129.41 142.62,-127.63 143.98,-125.86 144.71,-124.56 145.44,-123.25 145.93,-122.26 146.43,-121.27 146.77,-120.09 147.11,-118.90 147.51,-117.70 147.91,-116.51 148.29,-114.97 148.66,-113.43 148.80,-112.28 148.94,-111.13 149.00,-109.93 149.07,-108.73 149.20,-106.78 149.34,-104.83 149.36,-103.04 149.38,-101.25 149.62,-99.74 149.85,-98.22 149.97,-97.13 150.08,-96.04 150.36,-93.69 150.64,-91.35 150.75,-90.12 150.85,-88.90 151.13,-87.57 151.41,-86.23 151.75,-84.54 152.10,-82.85 152.45,-81.38 152.81,-79.91 153.21,-77.83 153.62,-75.74 154.02,-73.95 154.43,-72.15 154.98,-70.79 155.53,-69.43 156.03,-67.90 156.53,-66.37 157.10,-64.85 157.66,-63.34 158.25,-61.87 158.84,-60.40 159.43,-59.42 160.01,-58.44 161.29,-56.19 162.57,-53.93 163.27,-53.06 163.98,-52.19 164.72,-51.25 165.47,-50.31 166.18,-49.48 166.89,-48.66 167.62,-47.84 168.34,-47.02 169.27,-45.79 170.20,-44.56 171.18,-43.21 172.15,-41.85 172.92,-40.91 173.70,-39.98 174.44,-39.13 175.18,-38.28 175.97,-37.38 176.76,-36.49 177.79,-35.23 178.82,-33.97 179.80,-32.81 180.79,-31.65 181.96,-30.66 183.13,-29.67 184.22,-28.92 185.30,-28.17 186.28,-27.49 187.26,-26.80 188.31,-26.15 189.36,-25.49 190.60,-24.73 191.84,-23.98 193.24,-22.84 194.64,-21.69 195.79,-20.81 196.95,-19.93 198.11,-19.09 199.27,-18.24 200.31,-17.38 201.36,-16.52 202.22,-15.69 203.08,-14.86 204.01,-14.23 204.94,-13.60 206.03,-12.91 207.12,-12.23 208.65,-11.41 210.19,-10.59 211.43,-9.95 212.68,-9.30 213.73,-8.85 214.78,-8.40 215.76,-7.98 216.75,-7.56 217.94,-7.11 219.13,-6.65 220.16,-6.34 221.19,-6.02 222.56,-5.70 223.94,-5.39 225.13,-5.38 226.33,-5.38 227.69,-5.39 229.05,-5.40 230.37,-5.42 231.69,-5.44 232.92,-5.72 234.16,-6.01 236.71,-6.04 239.26,-6.08 239.81,-5.99 240.37,-5.90 240.87,-5.64 241.36,-5.37 241.75,-4.96 242.14,-4.56 242.37,-4.04 242.61,-3.53 242.67,-2.97 242.73,-2.41 242.61,-1.87 242.49,-1.32 242.20,-0.83 241.91,-0.35 241.48,0.00 241.05,0.37 240.53,0.58 240.01,0.78 239.44,0.81 238.88,0.84 238.34,0.69 237.80,0.54 237.33,0.23 236.87,-0.08 236.53,-0.53 236.18,-0.97 236.00,-1.51 235.83,-2.04 235.83,-2.60 235.83,-3.17 236.01,-3.70 236.18,-4.23 236.53,-4.68 236.87,-5.13 237.33,-5.45 237.80,-5.76 238.34,-5.91 238.88,-6.06 239.44,-6.03 240.01,-6.00 240.53,-5.79 241.05,-5.58 241.48,-5.22 241.91,-4.85 242.20,-4.37 242.49,-3.89 242.61,-3.34 242.73,-2.79 242.67,-2.23 242.61,-1.67 242.37,-1.16 242.14,-0.65 241.75,-0.24 241.36,0.16 240.87,0.42 240.37,0.68 239.81,0.77 239.26,0.87 239.26,0.87 239.26,0.87 236.57,0.91 233.88,0.95 232.15,1.05 230.41,1.15 229.06,1.12 227.71,1.10 226.28,1.06 224.86,1.01 223.63,0.84 222.41,0.66 220.93,0.25 219.46,-0.15 218.30,-0.47 217.14,-0.80 214.79,-1.61 212.44,-2.41 211.19,-2.86 209.94,-3.31 208.66,-3.82 207.38,-4.33 205.54,-5.21 203.69,-6.10 202.23,-6.99 200.76,-7.88 199.87,-8.61 198.97,-9.34 198.08,-10.04 197.20,-10.73 196.42,-11.50 195.64,-12.28 194.48,-13.20 193.33,-14.12 192.03,-15.25 190.72,-16.39 189.37,-17.51 188.02,-18.64 186.84,-19.39 185.67,-20.13 184.56,-20.89 183.45,-21.65 182.03,-22.79 180.61,-23.93 179.23,-24.99 177.86,-26.04 176.85,-27.28 175.85,-28.52 175.05,-29.69 174.25,-30.86 173.52,-31.98 172.80,-33.10 172.01,-34.06 171.22,-35.01 170.49,-35.94 169.76,-36.87 169.00,-37.87 168.24,-38.87 167.21,-40.16 166.18,-41.44 165.27,-42.57 164.37,-43.71 163.67,-44.60 162.96,-45.49 162.25,-46.43 161.53,-47.37 160.84,-48.36 160.15,-49.34 159.39,-50.43 158.63,-51.53 157.30,-53.90 155.97,-56.28 155.37,-57.52 154.76,-58.75 154.16,-60.26 153.55,-61.76 152.91,-63.39 152.27,-65.02 151.85,-66.40 151.43,-67.78 150.78,-69.42 150.13,-71.05 149.64,-72.77 149.14,-74.49 148.40,-76.51 147.65,-78.53 147.22,-79.99 146.79,-81.45 146.25,-83.10 145.72,-84.76 145.20,-86.49 144.69,-88.22 144.53,-89.40 144.38,-90.59 144.20,-91.73 144.03,-92.88 143.81,-94.07 143.58,-95.26 143.32,-97.05 143.06,-98.84 142.88,-100.93 142.69,-103.01 142.63,-104.50 142.56,-105.99 142.42,-107.06 142.28,-108.13 142.14,-109.27 141.99,-110.42 141.72,-111.75 141.45,-113.08 141.16,-114.14 140.87,-115.19 140.49,-116.54 140.10,-117.88 139.34,-119.34 138.58,-120.80 138.01,-121.84 137.43,-122.89 136.45,-123.87 135.46,-124.86 134.61,-125.52 133.75,-126.18 132.55,-126.92 131.35,-127.67 130.33,-128.09 129.30,-128.50 128.01,-128.69 126.72,-128.88 125.58,-128.97 124.44,-129.06 123.10,-129.07 121.76,-129.07 120.48,-129.02 119.20,-128.97 117.87,-128.69 116.54,-128.41 115.48,-127.78 114.42,-127.15 112.96,-126.08 111.51,-125.01 110.35,-124.13 109.19,-123.24 108.26,-122.58 107.32,-121.91 106.30,-121.03 105.27,-120.14 104.27,-119.22 103.28,-118.31 102.16,-117.39 101.04,-116.48 100.01,-115.24 98.98,-114.01 98.12,-113.01 97.25,-112.02 96.57,-110.98 95.89,-109.93 95.16,-108.65 94.42,-107.38 94.01,-106.34 93.60,-105.31 93.00,-103.95 92.40,-102.58 91.95,-101.21 91.50,-99.84 91.04,-98.20 90.59,-96.56 90.07,-95.03 89.55,-93.49 89.07,-91.73 88.59,-89.98 88.32,-88.85 88.05,-87.72 87.70,-86.49 87.35,-85.25 87.00,-84.18 86.66,-83.11 86.18,-81.92 85.70,-80.73 85.16,-79.07 84.62,-77.42 84.00,-75.77 83.38,-74.13 82.77,-73.00 82.16,-71.87 81.47,-70.58 80.78,-69.29 79.87,-67.51 78.96,-65.73 77.99,-63.74 77.02,-61.75 75.70,-59.16 74.39,-56.57 72.57,-53.21 70.76,-49.86 68.96,-46.87 67.15,-43.89 65.11,-40.03 63.08,-36.16 61.94,-33.75 60.79,-31.34 59.54,-28.71 58.28,-26.07 57.05,-23.68 55.81,-21.30 54.56,-19.53 53.32,-17.75 51.92,-16.12 50.53,-14.48 49.21,-13.08 47.90,-11.68 46.04,-9.95 44.18,-8.21 42.60,-7.24 41.02,-6.28 38.65,-5.06 36.29,-3.85 34.25,-2.93 32.21,-2.02 30.25,-1.41 28.30,-0.80 25.77,-0.12 23.24,0.56 20.70,0.83 18.17,1.11 15.93,1.26 13.69,1.41 11.40,1.43 9.11,1.45 6.94,1.48 4.77,1.50 2.38,1.54 0,1.58 -0.18,1.55 -0.37,1.53 -0.55,1.46 -0.73,1.40 -0.89,1.29 -1.04,1.18 -1.17,1.04 -1.30,0.89 -1.39,0.73 -1.47,0.56 -1.52,0.37 -1.57,0.19 -1.57,-0.00 -1.57,-0.19 -1.52,-0.37 -1.47,-0.56 -1.39,-0.73 -1.30,-0.89 -1.17,-1.04 -1.04,-1.18 -0.89,-1.29 -0.73,-1.40 -0.55,-1.46 -0.37,-1.53 -0.18,-1.55 0.00,-1.58 0.00,-1.58 L 0,-1.58 Z"></path></g><g stroke-linecap="round"><g transform="translate(210 30) rotate(0 0 96.70197315780001)"><path d="M0 0 C0 32.23, 0 161.17, 0 193.4" stroke="#000000" stroke-width="1.5" fill="none" stroke-dasharray="8 9"></path></g></g><g stroke-linecap="round"><g transform="translate(90 30) rotate(0 0 96.70197315780001)"><path d="M0 0 C0 32.23, 0 161.17, 0 193.4" stroke="#000000" stroke-width="1.5" fill="none" stroke-dasharray="8 9"></path></g></g><g transform="translate(210 10) rotate(0 12 10.5)"><text x="0" y="14" font-family="Virgil, Segoe UI Emoji" font-size="16px" fill="#000000" text-anchor="start" style="white-space: pre;" direction="ltr">30</text></g><g transform="translate(217.6371081977577 170.9984571994205) rotate(0 29.1668749123246 9.366598252752738)" stroke="none"><path fill="#c92a2a" d="M 2.57,0 Q 2.57,0 2.53,1.63 2.48,3.27 2.37,4.47 2.27,5.68 2.00,6.79 1.74,7.90 1.44,8.95 1.14,9.99 -0.00,9.31 -1.14,8.62 -0.23,7.53 0.67,6.44 1.89,5.66 3.10,4.89 2.87,5.00 2.63,5.11 2.95,4.92 3.27,4.73 3.62,4.62 3.98,4.51 4.35,4.49 4.72,4.47 5.09,4.53 5.46,4.60 5.79,4.76 6.13,4.91 6.43,5.14 6.72,5.37 6.95,5.67 7.17,5.96 7.33,6.30 7.48,6.64 7.54,7.01 7.61,7.38 7.58,7.75 7.56,8.12 7.45,8.47 7.33,8.83 7.14,9.15 6.95,9.47 6.68,9.73 6.42,9.99 6.27,11.13 6.12,12.28 4.64,10.94 3.16,9.60 4.94,8.83 6.72,8.07 8.51,7.95 10.31,7.82 11.54,7.87 12.76,7.91 14.29,9.85 15.82,11.78 15.58,13.22 15.33,14.67 14.38,13.00 13.44,11.33 15.50,11.12 17.56,10.91 18.98,10.89 20.40,10.86 22.41,13.32 24.42,15.79 23.98,14.47 23.54,13.15 25.26,12.70 26.97,12.26 28.46,12.87 29.95,13.47 30.37,15.10 30.78,16.73 30.32,17.87 29.86,19.01 29.55,19.24 29.25,19.47 28.89,19.62 28.54,19.77 28.16,19.84 27.79,19.90 27.40,19.87 27.02,19.84 26.66,19.72 26.29,19.60 25.97,19.39 25.65,19.19 25.38,18.91 25.11,18.64 24.92,18.31 24.73,17.97 24.62,17.61 24.51,17.24 24.50,16.86 24.48,16.47 24.56,16.10 24.63,15.72 24.80,15.38 24.96,15.03 25.20,14.73 25.44,14.43 27.33,14.16 29.22,13.90 31.49,14.10 33.77,14.30 34.96,14.52 36.15,14.75 38.11,15.88 40.06,17.01 38.64,16.29 37.21,15.56 38.77,15.28 40.32,14.99 42.05,14.90 43.78,14.81 44.96,14.78 46.14,14.74 47.73,14.72 49.32,14.71 50.79,14.70 52.25,14.69 53.37,14.11 54.49,13.53 55.87,13.33 57.25,13.12 58.88,13.23 60.51,13.33 61.07,13.43 61.63,13.53 62.12,13.80 62.62,14.08 63.00,14.49 63.39,14.91 63.62,15.43 63.85,15.94 63.90,16.51 63.95,17.07 63.82,17.62 63.69,18.17 63.40,18.65 63.10,19.13 62.66,19.49 62.22,19.85 61.70,20.06 61.17,20.26 60.60,20.28 60.04,20.30 59.49,20.14 58.95,19.98 58.49,19.66 58.02,19.34 57.69,18.88 57.35,18.43 57.18,17.89 57.00,17.35 57.01,16.78 57.02,16.22 57.21,15.68 57.40,15.15 57.74,14.70 58.09,14.26 58.57,13.95 59.04,13.64 59.59,13.49 60.13,13.35 60.70,13.39 61.26,13.43 61.79,13.64 62.31,13.86 62.73,14.23 63.16,14.60 63.45,15.09 63.73,15.58 63.84,16.14 63.96,16.69 63.89,17.25 63.82,17.82 63.57,18.33 63.33,18.84 62.93,19.24 62.54,19.65 62.04,19.90 61.53,20.16 60.97,20.25 60.41,20.33 60.41,20.33 60.41,20.33 58.49,20.17 56.57,20.01 55.07,20.69 53.58,21.37 52.34,21.34 51.09,21.32 49.25,21.34 47.41,21.35 46.27,21.32 45.13,21.29 43.78,21.29 42.44,21.30 40.84,21.42 39.24,21.55 37.94,21.22 36.64,20.90 34.85,20.62 33.05,20.33 31.88,20.22 30.72,20.11 29.00,20.03 27.28,19.95 28.57,19.48 29.86,19.01 29.55,19.24 29.25,19.47 28.89,19.62 28.54,19.77 28.16,19.84 27.79,19.90 27.40,19.87 27.02,19.84 26.66,19.72 26.29,19.60 25.97,19.39 25.65,19.19 25.38,18.91 25.11,18.64 24.92,18.31 24.73,17.97 24.62,17.61 24.51,17.24 24.50,16.86 24.48,16.47 24.56,16.10 24.63,15.72 24.80,15.38 24.96,15.03 25.20,14.73 25.44,14.43 25.66,14.65 25.87,14.87 26.26,16.60 26.65,18.34 25.28,18.33 23.90,18.31 22.68,18.28 21.47,18.24 20.43,17.45 19.40,16.67 19.57,14.48 19.75,12.29 20.21,14.55 20.67,16.82 19.40,16.92 18.12,17.01 16.46,17.25 14.79,17.49 12.87,17.15 10.96,16.82 10.75,13.96 10.54,11.11 10.71,12.51 10.88,13.92 9.69,14.07 8.51,14.23 7.26,14.62 6.01,15.00 4.60,15.02 3.18,15.04 1.68,12.60 0.19,10.16 0.77,8.62 1.36,7.08 1.99,6.09 2.63,5.11 2.95,4.92 3.27,4.73 3.62,4.62 3.98,4.51 4.35,4.49 4.72,4.47 5.09,4.53 5.46,4.60 5.79,4.76 6.13,4.91 6.43,5.14 6.72,5.37 6.95,5.67 7.17,5.96 7.32,6.30 7.48,6.64 7.54,7.01 7.61,7.38 7.58,7.75 7.56,8.12 7.45,8.47 7.33,8.83 7.14,9.15 6.95,9.46 6.68,9.73 6.42,9.99 5.87,10.24 5.31,10.48 3.81,11.45 2.31,12.41 1.30,12.93 0.29,13.45 -1.02,13.49 -2.35,13.52 -3.26,12.71 -4.18,11.89 -4.33,10.75 -4.47,9.62 -3.90,8.03 -3.33,6.45 -2.91,4.86 -2.48,3.26 -2.53,1.63 -2.57,0 -2.53,-0.30 -2.49,-0.61 -2.38,-0.90 -2.27,-1.19 -2.10,-1.45 -1.92,-1.70 -1.69,-1.91 -1.46,-2.11 -1.18,-2.26 -0.91,-2.40 -0.61,-2.48 -0.31,-2.55 0.00,-2.55 0.31,-2.55 0.61,-2.48 0.91,-2.40 1.18,-2.26 1.46,-2.11 1.69,-1.91 1.92,-1.70 2.10,-1.45 2.27,-1.19 2.39,-0.90 2.50,-0.61 2.53,-0.30 2.57,0.00 2.57,0.00 L 2.57,0 Z"></path></g><g transform="translate(86.50483686626694 164.83309940886738) rotate(0 -27.151263145233543 12.212140988302963)" stroke="none"><path fill="#c92a2a" d="M 2.36,0.45 Q 2.36,0.45 1.96,2.21 1.56,3.97 1.46,5.18 1.36,6.40 1.08,8.30 0.80,10.19 0.77,11.38 0.74,12.57 0.74,13.86 0.73,15.15 0.73,16.91 0.73,18.67 -0.50,20.04 -1.74,21.42 -3.32,20.16 -4.91,18.90 -5.08,17.53 -5.25,16.17 -5.27,14.78 -5.29,13.39 -5.45,11.97 -5.61,10.55 -5.58,10.20 -5.54,9.86 -5.42,9.53 -5.30,9.21 -5.11,8.92 -4.91,8.63 -4.66,8.40 -4.40,8.16 -4.09,8.00 -3.79,7.83 -3.45,7.75 -3.12,7.66 -2.77,7.66 -2.42,7.65 -2.09,7.73 -1.75,7.81 -1.44,7.97 -1.13,8.12 -0.87,8.35 -0.61,8.58 -0.41,8.86 -0.21,9.14 -0.08,9.47 0.04,9.79 0.08,10.13 0.13,10.48 -0.11,12.22 -0.37,13.97 -0.72,15.48 -1.08,16.99 -1.26,18.04 -1.43,19.09 -1.74,20.19 -2.05,21.29 -2.43,22.07 -2.80,22.85 -2.99,23.15 -3.19,23.45 -3.45,23.69 -3.70,23.94 -4.01,24.11 -4.32,24.29 -4.67,24.39 -5.01,24.48 -5.37,24.50 -5.72,24.51 -6.07,24.44 -6.42,24.36 -6.74,24.21 -7.06,24.05 -7.34,23.83 -7.61,23.60 -7.82,23.31 -8.04,23.03 -8.17,22.70 -8.31,22.37 -8.37,22.02 -8.42,21.66 -8.39,21.31 -8.36,20.95 -8.24,20.62 -8.13,20.28 -9.13,19.43 -10.14,18.59 -9.11,17.72 -8.09,16.85 -8.65,18.52 -9.21,20.19 -10.06,21.33 -10.91,22.48 -13.06,22.35 -15.21,22.22 -16.43,19.93 -17.66,17.65 -18.14,16.47 -18.62,15.29 -17.50,15.34 -16.38,15.39 -16.85,16.36 -17.33,17.33 -18.44,18.94 -19.56,20.54 -21.24,20.94 -22.92,21.35 -23.84,22.52 -24.77,23.69 -25.86,23.96 -26.96,24.22 -28.05,24.56 -29.14,24.90 -31.11,25.16 -33.09,25.42 -34.46,24.90 -35.84,24.38 -36.90,23.43 -37.97,22.48 -36.59,21.85 -35.21,21.21 -35.81,22.95 -36.41,24.68 -38.09,24.91 -39.77,25.15 -40.63,26.16 -41.50,27.17 -42.63,27.45 -43.76,27.74 -45.49,27.38 -47.23,27.02 -48.39,26.65 -49.55,26.28 -51.86,26.20 -54.16,26.12 -54.70,26.05 -55.24,25.99 -55.73,25.75 -56.22,25.52 -56.61,25.14 -57.00,24.76 -57.25,24.28 -57.50,23.79 -57.58,23.25 -57.66,22.72 -57.57,22.18 -57.47,21.64 -57.21,21.17 -56.95,20.69 -56.55,20.32 -56.15,19.95 -55.65,19.73 -55.16,19.51 -54.61,19.46 -54.07,19.40 -53.54,19.53 -53.01,19.65 -52.55,19.94 -52.09,20.22 -51.74,20.64 -51.39,21.06 -51.20,21.57 -51.00,22.08 -50.98,22.62 -50.96,23.17 -51.11,23.69 -51.26,24.21 -51.57,24.66 -51.89,25.10 -52.32,25.43 -52.76,25.75 -53.28,25.92 -53.80,26.09 -54.34,26.08 -54.89,26.07 -55.40,25.89 -55.91,25.71 -56.34,25.38 -56.77,25.04 -57.07,24.59 -57.37,24.13 -57.51,23.61 -57.65,23.08 -57.61,22.54 -57.57,21.99 -57.36,21.49 -57.16,20.99 -56.80,20.58 -56.44,20.17 -55.97,19.89 -55.50,19.62 -54.97,19.51 -54.44,19.40 -54.44,19.40 -54.44,19.40 -52.33,19.40 -50.22,19.41 -49.01,19.57 -47.81,19.73 -45.90,19.97 -43.99,20.20 -42.05,19.48 -40.12,18.75 -40.75,19.91 -41.37,21.06 -41.30,19.93 -41.23,18.79 -39.93,17.46 -38.64,16.13 -36.73,16.25 -34.82,16.37 -33.66,17.52 -32.49,18.66 -31.36,18.34 -30.22,18.03 -29.06,17.73 -27.91,17.44 -27.11,16.56 -26.31,15.69 -24.55,15.23 -22.79,14.78 -22.17,13.42 -21.55,12.06 -20.51,11.16 -19.47,10.26 -17.68,10.28 -15.89,10.29 -14.58,11.55 -13.28,12.81 -12.56,14.27 -11.85,15.74 -11.70,17.07 -11.56,18.40 -13.29,18.25 -15.01,18.10 -14.20,16.77 -13.38,15.45 -12.20,14.02 -11.02,12.59 -9.19,12.53 -7.36,12.47 -6.18,14.12 -4.99,15.76 -4.03,17.74 -3.06,19.73 -2.93,21.29 -2.80,22.85 -2.99,23.15 -3.19,23.45 -3.44,23.69 -3.70,23.94 -4.01,24.11 -4.32,24.29 -4.67,24.39 -5.01,24.48 -5.37,24.50 -5.72,24.51 -6.07,24.44 -6.42,24.36 -6.74,24.21 -7.06,24.05 -7.34,23.83 -7.61,23.60 -7.82,23.31 -8.04,23.03 -8.17,22.70 -8.31,22.37 -8.37,22.02 -8.42,21.66 -8.39,21.31 -8.36,20.95 -8.24,20.62 -8.13,20.28 -7.56,19.17 -6.99,18.07 -6.78,17.00 -6.57,15.93 -6.33,14.36 -6.09,12.79 -5.85,11.67 -5.61,10.55 -5.58,10.20 -5.54,9.86 -5.42,9.53 -5.30,9.21 -5.11,8.92 -4.91,8.63 -4.66,8.40 -4.40,8.16 -4.09,8.00 -3.79,7.83 -3.45,7.75 -3.12,7.66 -2.77,7.66 -2.42,7.65 -2.09,7.73 -1.75,7.81 -1.44,7.97 -1.13,8.12 -0.87,8.35 -0.61,8.58 -0.41,8.86 -0.21,9.14 -0.08,9.47 0.04,9.79 0.08,10.13 0.13,10.48 -0.00,10.12 -0.14,9.76 0.01,11.51 0.17,13.26 0.18,15.20 0.20,17.13 -0.87,16.83 -1.95,16.53 -3.13,17.27 -4.31,18.02 -4.13,16.52 -3.95,15.03 -3.88,13.64 -3.81,12.26 -3.68,11.00 -3.54,9.74 -3.42,7.81 -3.31,5.88 -3.11,4.49 -2.92,3.11 -2.64,1.32 -2.36,-0.45 -2.27,-0.73 -2.18,-1.00 -2.03,-1.25 -1.88,-1.50 -1.67,-1.70 -1.46,-1.90 -1.21,-2.05 -0.96,-2.20 -0.69,-2.28 -0.41,-2.37 -0.12,-2.38 0.16,-2.40 0.45,-2.34 0.73,-2.29 1.00,-2.17 1.26,-2.05 1.49,-1.86 1.71,-1.68 1.89,-1.45 2.07,-1.22 2.18,-0.96 2.30,-0.69 2.35,-0.41 2.40,-0.12 2.38,0.16 2.36,0.45 2.36,0.45 L 2.36,0.45 Z"></path></g><g transform="translate(70 10) rotate(0 15 10.5)"><text x="0" y="14" font-family="Virgil, Segoe UI Emoji" font-size="16px" fill="#000000" text-anchor="start" style="white-space: pre;" direction="ltr">-30</text></g><g transform="translate(231.86486095315195 179.06085216426118) rotate(0 26.321319150893032 -12.923536441601073)" stroke="none"><path fill="#c92a2a" d="M -1.35,-0.80 Q -1.35,-0.80 -0.02,-2.96 1.30,-5.13 2.67,-6.77 4.04,-8.41 6.20,-10.23 8.35,-12.04 11.72,-14.06 15.08,-16.08 17.97,-17.42 20.86,-18.75 24.21,-20.07 27.56,-21.38 30.74,-22.30 33.91,-23.21 36.48,-23.86 39.05,-24.51 42.33,-25.27 45.61,-26.03 49.00,-26.70 52.38,-27.38 52.63,-27.38 52.89,-27.38 53.12,-27.30 53.36,-27.22 53.56,-27.07 53.76,-26.91 53.91,-26.71 54.05,-26.50 54.11,-26.26 54.18,-26.01 54.17,-25.76 54.16,-25.51 54.06,-25.28 53.97,-25.04 53.81,-24.85 53.65,-24.66 53.43,-24.53 53.22,-24.40 52.97,-24.34 52.72,-24.29 52.47,-24.32 52.22,-24.34 52.00,-24.45 51.77,-24.55 51.58,-24.73 51.40,-24.90 51.28,-25.12 51.17,-25.34 51.12,-25.59 51.08,-25.84 51.12,-26.09 51.16,-26.34 51.28,-26.56 51.40,-26.78 51.58,-26.95 51.76,-27.13 51.99,-27.23 52.22,-27.34 52.47,-27.37 52.72,-27.39 52.96,-27.34 53.21,-27.29 53.43,-27.16 53.64,-27.03 53.81,-26.84 53.97,-26.65 54.06,-26.41 54.16,-26.18 54.17,-25.93 54.18,-25.68 54.12,-25.43 54.05,-25.19 53.91,-24.98 53.77,-24.77 53.57,-24.62 53.37,-24.47 53.13,-24.39 52.89,-24.31 52.89,-24.31 52.89,-24.31 49.55,-23.87 46.21,-23.43 42.97,-22.67 39.72,-21.92 37.19,-21.26 34.66,-20.61 31.61,-19.73 28.56,-18.84 25.30,-17.54 22.03,-16.24 19.28,-14.95 16.54,-13.66 13.38,-11.74 10.23,-9.82 8.28,-8.15 6.33,-6.47 5.10,-5.03 3.88,-3.59 2.61,-1.39 1.35,0.80 1.23,0.95 1.12,1.10 0.97,1.22 0.82,1.33 0.65,1.41 0.47,1.49 0.29,1.53 0.10,1.56 -0.08,1.55 -0.27,1.54 -0.45,1.49 -0.63,1.43 -0.79,1.34 -0.96,1.24 -1.09,1.11 -1.23,0.97 -1.32,0.81 -1.42,0.65 -1.48,0.47 -1.54,0.29 -1.55,0.10 -1.57,-0.08 -1.53,-0.26 -1.50,-0.45 -1.42,-0.62 -1.35,-0.80 -1.35,-0.80 L -1.35,-0.80 Z"></path></g><g transform="translate(279.7649323709811 144.4400149146818) rotate(0 3.0826528435154614 9.722282953521017)" stroke="none"><path fill="#c92a2a" d="M 1.87,-1.68 Q 1.87,-1.68 3.04,-0.26 4.20,1.14 5.30,2.33 6.40,3.51 7.76,4.83 9.12,6.15 9.94,7.36 10.77,8.57 11.24,10.25 11.72,11.92 11.32,12.92 10.92,13.92 9.50,15.13 8.08,16.34 6.68,17.05 5.29,17.76 3.87,18.56 2.46,19.36 0.44,20.58 -1.58,21.80 -1.99,21.97 -2.41,22.15 -2.86,22.19 -3.31,22.22 -3.75,22.11 -4.19,22.00 -4.57,21.76 -4.95,21.52 -5.23,21.16 -5.51,20.81 -5.67,20.39 -5.82,19.96 -5.83,19.51 -5.84,19.06 -5.71,18.63 -5.58,18.19 -5.31,17.83 -5.05,17.46 -4.68,17.20 -4.31,16.93 -3.88,16.80 -3.45,16.67 -3.00,16.68 -2.55,16.70 -2.12,16.85 -1.70,17.01 -1.35,17.29 -1.00,17.58 -0.75,17.96 -0.51,18.34 -0.40,18.78 -0.29,19.22 -0.33,19.67 -0.37,20.12 -0.55,20.53 -0.73,20.95 -1.03,21.28 -1.33,21.62 -1.73,21.84 -2.12,22.06 -2.56,22.15 -3.01,22.23 -3.45,22.17 -3.90,22.11 -4.31,21.91 -4.71,21.71 -5.03,21.39 -5.35,21.06 -5.55,20.66 -5.75,20.25 -5.81,19.81 -5.87,19.36 -5.78,18.91 -5.70,18.47 -5.47,18.08 -5.25,17.69 -4.91,17.38 -4.58,17.08 -4.58,17.08 -4.58,17.08 -2.53,15.94 -0.49,14.80 1.03,13.69 2.55,12.59 4.48,12.38 6.40,12.17 5.86,10.83 5.32,9.48 4.18,8.09 3.04,6.70 1.87,5.50 0.69,4.30 -0.58,2.99 -1.87,1.68 -2.04,1.43 -2.22,1.18 -2.33,0.90 -2.44,0.62 -2.48,0.32 -2.51,0.01 -2.48,-0.28 -2.45,-0.58 -2.34,-0.86 -2.24,-1.15 -2.06,-1.40 -1.89,-1.65 -1.67,-1.85 -1.44,-2.06 -1.17,-2.20 -0.91,-2.34 -0.61,-2.42 -0.32,-2.49 -0.01,-2.50 0.28,-2.50 0.57,-2.43 0.87,-2.36 1.14,-2.22 1.41,-2.08 1.64,-1.88 1.87,-1.68 1.87,-1.68 L 1.87,-1.68 Z"></path></g><g transform="translate(290 150) rotate(0 16 10.5)"><text x="0" y="14" font-family="Virgil, Segoe UI Emoji" font-size="16px" fill="#c92a2a" text-anchor="start" style="white-space: pre;" direction="ltr">0.16</text></g></svg>