<svg xmlns="http://www.w3.org/2000/svg" xmlns:xlink="http://www.w3.org/1999/xlink" viewBox="0 0 162.76 80.49"><defs><style>.cls-1,.cls-5,.cls-7{fill:none;}.cls-2,.cls-3{font-size:8px;}.cls-2,.cls-3,.cls-6{fill:#231f20;}.cls-2{font-family:TimesNewRomanPSMT, Times New Roman;}.cls-3{font-family:TimesNewRomanPS-ItalicMT, Times New Roman;font-style:italic;}.cls-4{clip-path:url(#clip-path);}.cls-5,.cls-7{stroke:#231f20;stroke-width:0.5px;}.cls-5{stroke-miterlimit:10;}.cls-7{stroke-linecap:round;stroke-linejoin:round;}</style><clipPath id="clip-path" transform="translate(0)"><rect class="cls-1" width="162.77" height="80.49"/></clipPath></defs><g id="Layer_2" data-name="Layer 2"><g id="Layer_1-2" data-name="Layer 1"><text class="cls-2" transform="translate(74.08 75.66)">0</text><text class="cls-3" transform="translate(73.03 6.65)">y</text><text class="cls-3" transform="translate(159.21 70.46)">x</text><g class="cls-4"><line class="cls-5" x1="2.25" y1="68.62" x2="153.15" y2="68.62"/></g><polyline class="cls-6" points="152.16 70.07 157.58 68.61 152.16 67.16 152.16 70.07"/><g class="cls-4"><line class="cls-5" x1="79.92" y1="80.49" x2="79.92" y2="6.8"/></g><polyline class="cls-6" points="81.37 7.79 79.92 2.37 78.46 7.79 81.37 7.79"/><g class="cls-4"><path class="cls-7" d="M157.58,11.87S126.86,14,101.75,34.62c-23.67,19.47-21.83,34-21.83,34s1.16-17.94-23.84-35.34C25.83,12.23.25,11.87.25,11.87" transform="translate(0)"/></g><path class="cls-6" d="M63.94,38.42a1.35,1.35,0,1,1-1.34-1.34,1.34,1.34,0,0,1,1.34,1.34" transform="translate(0)"/><path class="cls-6" d="M24.52,16.51a1.34,1.34,0,1,1-1.34-1.34,1.34,1.34,0,0,1,1.34,1.34" transform="translate(0)"/><line class="cls-5" x1="23.18" y1="16.51" x2="44.51" y2="22.99"/><polyline class="cls-6" points="43.14 24.09 48.75 24.28 43.99 21.32 43.14 24.09"/><line class="cls-5" x1="62.6" y1="38.42" x2="74.68" y2="48.52"/><polyline class="cls-6" points="72.99 49 78.08 51.37 74.86 46.77 72.99 49"/></g></g></svg>