<svg version="1.1" xmlns="http://www.w3.org/2000/svg" xmlns:xlink="http://www.w3.org/1999/xlink" width="320" height="320"><defs/><g transform="scale(2,2)"><g id="background-f089b218"><rect fill="white" stroke="none" x="0" y="0" width="160" height="160" class="dcg-svg-background"/></g><g id="background-images-f089b218"/><g id="graphpaper-f089b218"><g id="grid-f089b218"><g><path fill="none" stroke="rgb(0,0,0)" class="dcg-svg-minor-gridline" paint-order="fill stroke markers" d=" M 1.5 0 L 1.5 160" stroke-opacity="0.2" stroke-miterlimit="10" stroke-dasharray=""/><path fill="none" stroke="rgb(0,0,0)" class="dcg-svg-minor-gridline" paint-order="fill stroke markers" d=" M 34.5 0 L 34.5 160" stroke-opacity="0.2" stroke-miterlimit="10" stroke-dasharray=""/><path fill="none" stroke="rgb(0,0,0)" class="dcg-svg-minor-gridline" paint-order="fill stroke markers" d=" M 99.5 0 L 99.5 160" stroke-opacity="0.2" stroke-miterlimit="10" stroke-dasharray=""/><path fill="none" stroke="rgb(0,0,0)" class="dcg-svg-minor-gridline" paint-order="fill stroke markers" d=" M 132.5 0 L 132.5 160" stroke-opacity="0.2" stroke-miterlimit="10" stroke-dasharray=""/><path fill="none" stroke="rgb(0,0,0)" class="dcg-svg-minor-gridline" paint-order="fill stroke markers" d=" M 0 149.5 L 160 149.5" stroke-opacity="0.2" stroke-miterlimit="10" stroke-dasharray=""/><path fill="none" stroke="rgb(0,0,0)" class="dcg-svg-minor-gridline" paint-order="fill stroke markers" d=" M 0 116.5 L 160 116.5" stroke-opacity="0.2" stroke-miterlimit="10" stroke-dasharray=""/><path fill="none" stroke="rgb(0,0,0)" class="dcg-svg-minor-gridline" paint-order="fill stroke markers" d=" M 0 50.5 L 160 50.5" stroke-opacity="0.2" stroke-miterlimit="10" stroke-dasharray=""/><path fill="none" stroke="rgb(0,0,0)" class="dcg-svg-minor-gridline" paint-order="fill stroke markers" d=" M 0 18.5 L 160 18.5" stroke-opacity="0.2" stroke-miterlimit="10" stroke-dasharray=""/></g></g><g id="axis-f089b218"><g id="yaxis-f089b218"><title>Y axis</title><path fill="none" stroke="rgb(0,0,0)" class="dcg-svg-axis-line" paint-order="fill stroke markers" d=" M 67 0 L 67 160" stroke-opacity="0.9" stroke-miterlimit="10" stroke-width="1.5" stroke-dasharray=""/></g><g id="xaxis-f089b218"><title>X axis</title><path fill="none" stroke="rgb(0,0,0)" class="dcg-svg-axis-line" paint-order="fill stroke markers" d=" M 0 84 L 160 84" stroke-opacity="0.9" stroke-miterlimit="10" stroke-width="1.5" stroke-dasharray=""/></g><g><g class="dcg-svg-axis-value"><text fill="none" stroke="#ffffff" font-family="Arial" font-size="10px" font-style="normal" font-weight="normal" text-decoration="normal" x="59.25300239206085" y="96.37848360692276" text-anchor="middle" stroke-miterlimit="2" stroke-width="3" stroke-dasharray="">0</text><text fill="#000000" stroke="none" font-family="Arial" font-size="10px" font-style="normal" font-weight="normal" text-decoration="normal" x="59.25300239206085" y="96.37848360692276" text-anchor="middle">0</text></g></g></g></g><g id="expressions-f089b218"><g id="sketch-f089b218"><title>Expression 1</title><path fill="#2d70b3" stroke="none" paint-order="stroke fill markers" d="" fill-opacity="0.4"/><g><path fill="none" stroke="#2d70b3" class="dcg-svg-curve" paint-order="fill stroke markers" d=" M 0 83.97768976083802 L 0 83.97768976083802 L 22.1484375 84.13520042375262 L 34.7265625 84.32080002423555 L 42.6171875 84.53483864904607 L 47.890625 84.7762516960754 L 51.60156249999999 85.04503819996826 L 54.296875 85.33845348324932 L 56.3671875 85.664524608174 L 57.96875 86.01894215256976 L 59.21874999999999 86.39649402134721 L 60.23437499999999 86.80547073702428 L 61.05468749999999 87.23722852308337 L 61.75781249999999 87.71416713147002 L 62.34374999999999 88.22085581278692 L 62.85156249999999 88.77482949731744 L 63.32031250000001 89.42066722121305 L 63.75 90.17466117090451 L 64.14062499999999 91.05446050423728 L 64.4921875 92.07750585211394 L 64.84374999999999 93.42900970474398 L 65.15625 95.05525016173343 L 65.4296875 96.99798988739764 L 65.6640625 99.28056498244734 L 65.859375 101.87867130050617 L 66.0546875 105.51335153860914 L 66.25 110.95954234274214 L 66.40625 117.75746186993766 L 66.5625 129.06315061510628 L 66.6796875 144.0905747729364 L 66.76361078657101 165.5" stroke-linecap="round" stroke-linejoin="round" stroke-miterlimit="10" stroke-width="2.5" stroke-opacity="0.9" stroke-dasharray=""/></g><g><path fill="none" stroke="#2d70b3" class="dcg-svg-curve" paint-order="fill stroke markers" d=" M 67.28752328115597 -5.5 L 67.28752328115597 -5.5 L 67.34375 14.630857606768956 L 67.4609375 33.567371740403544 L 67.6171875 46.98256279063084 L 67.77343750000001 54.730053387565505 L 67.96875 60.77301520393897 L 68.203125 65.35994957684127 L 68.4375 68.41516740401933 L 68.7109375 70.90035724849122 L 68.98437500000001 72.68879706263778 L 69.296875 74.20353814822249 L 69.64843750000001 75.47482666806901 L 70.07812500000001 76.62988522351192 L 70.5078125 77.49921706047482 L 70.9765625 78.23147773136375 L 71.48437500000001 78.85069641612378 L 72.03125000000001 79.37681268303629 L 72.65625000000001 79.8527666258598 L 73.3984375 80.29655303863635 L 74.2578125 80.69648932456224 L 75.3125 81.0738390052975 L 76.6015625 81.42206628771464 L 78.203125 81.74274373276533 L 80.234375 82.03752907656856 L 82.8515625 82.3057296080541 L 86.2890625 82.54722635233315 L 90.9375 82.76332687813915 L 97.4609375 82.95524411271866 L 106.953125 83.12246325119435 L 121.48437499999999 83.2655111558364 L 145.27343750000003 83.38499588519065 L 160 83.428318431151" stroke-linecap="round" stroke-linejoin="round" stroke-miterlimit="10" stroke-width="2.5" stroke-opacity="0.9" stroke-dasharray=""/></g></g></g><g id="labels-f089b218"/></g></svg>