<svg xmlns="http://www.w3.org/2000/svg" xmlns:xlink="http://www.w3.org/1999/xlink" viewBox="0 0 152.71 122.2"><defs><style>.cls-1,.cls-10,.cls-12,.cls-13,.cls-14,.cls-16,.cls-2,.cls-6,.cls-8{fill:none;}.cls-2,.cls-8{stroke:#21b685;}.cls-10,.cls-13,.cls-14,.cls-16,.cls-2,.cls-6,.cls-8{stroke-miterlimit:3.86;}.cls-2{stroke-width:0.5px;}.cls-3{fill:#ed1846;}.cls-4,.cls-7{font-size:8px;fill:#231f20;}.cls-4{font-family:TimesNewRomanPSMT, Times New Roman;}.cls-5{clip-path:url(#clip-path);}.cls-6{stroke:#f7aaa0;}.cls-7{font-family:TimesNewRomanPS-BoldMT, Times New Roman;font-weight:700;}.cls-9{fill:#21b685;}.cls-10,.cls-16{stroke:#00aeef;}.cls-11{fill:#ec1846;}.cls-12{stroke:#ed1846;}.cls-12,.cls-16{stroke-width:0.25px;}.cls-13{stroke:#fff;stroke-width:0.75px;}.cls-14{stroke:#ec008c;}.cls-15{fill:#00acee;}</style><clipPath id="clip-path" transform="translate(0 0)"><rect class="cls-1" width="152.71" height="122.2"/></clipPath></defs><g id="Layer_2" data-name="Layer 2"><g id="Layer_1-2" data-name="Layer 1"><line class="cls-2" x1="61.94" y1="61.7" x2="103.94" y2="103.7"/><path class="cls-3" d="M127.22,80.66l-5.3,1.77A3.33,3.33,0,0,1,125.45,86" transform="translate(0 0)"/><text class="cls-4" transform="translate(133.16 60.88)">Curve</text><g class="cls-5"><path class="cls-6" d="M.5,61a60.6,60.6,0,0,1,121.2,0A60.6,60.6,0,1,1,.5,61Z" transform="translate(0 0)"/></g><text class="cls-7" transform="translate(83.78 99.14)">N</text><text class="cls-7" transform="translate(123.86 93.62)">T</text><line class="cls-8" x1="87.1" y1="86.86" x2="103.94" y2="103.7"/><path class="cls-9" d="M85,84.74,86.75,90a3.33,3.33,0,0,1,3.53-3.53" transform="translate(0 0)"/><path class="cls-10" d="M26.18,31c0,.1,15.63,81.1,55.92,81.6,40.11.5,56.11-81.5,56.16-81.6" transform="translate(0 0)"/><text class="cls-4" transform="translate(106.54 109.31)">P</text><text class="cls-4" transform="translate(111.83 109.31)">(</text><text class="cls-4" transform="translate(114.69 109.31)">x</text><text class="cls-4" transform="translate(118.24 109.31)">,</text><text class="cls-4" transform="translate(122.24 109.31)">y</text><text class="cls-4" transform="translate(125.8 109.31)">)</text><text class="cls-4" transform="translate(44.68 46.81)">Center of</text><text class="cls-4" transform="translate(44.68 56.41)">curvature</text><text class="cls-4" transform="translate(83.76 70.68)">Radius of</text><text class="cls-4" transform="translate(83.76 80.28)">curvature</text><text class="cls-4" transform="translate(108.56 10.55)">Circle of</text><text class="cls-4" transform="translate(108.56 20.15)">curvature</text><path class="cls-11" d="M62.89,60.78A1.75,1.75,0,1,1,61.14,59a1.75,1.75,0,0,1,1.75,1.75" transform="translate(0 0)"/><circle class="cls-12" cx="61.14" cy="60.78" r="1.75"/><line class="cls-13" x1="125.1" y1="82.78" x2="103.94" y2="104.04"/><line class="cls-14" x1="125.1" y1="82.78" x2="103.94" y2="104.04"/><path class="cls-15" d="M105.74,103.94a1.75,1.75,0,1,1-1.75-1.75,1.75,1.75,0,0,1,1.75,1.75" transform="translate(0 0)"/><circle class="cls-16" cx="103.99" cy="103.94" r="1.75"/></g></g></svg>