<svg width="1482" height="325" xmlns="http://www.w3.org/2000/svg" xmlns:xlink="http://www.w3.org/1999/xlink" xml:space="preserve" overflow="hidden"><defs><clipPath id="clip0"><rect x="2475" y="663" width="1482" height="325"/></clipPath></defs><g clip-path="url(#clip0)" transform="translate(-2475 -663)"><rect x="2931" y="715" width="177" height="255" fill="#D0CECE"/><rect x="2935" y="716" width="58" height="255" fill="#2EB77C" fill-opacity="0.701961"/><rect x="2935" y="716" width="171" height="59.9998" fill="#E11F5B" fill-opacity="0.788235"/><path d="M2954 981C2933.57 981 2917 979.62 2917 977.917L2917 696.083C2917 694.38 2933.57 693 2954 693" stroke="#000000" stroke-width="2.29167" stroke-miterlimit="8" fill="none" fill-rule="evenodd"/><path d="M36.0001 288C16.1178 288 2.29165e-14 286.657-9.16659e-15 285L0 3C-3.20831e-14 1.34315 16.1178-2.29164e-15 36.0001-4.58328e-15" stroke="#000000" stroke-width="2.29167" stroke-miterlimit="8" fill="none" fill-rule="evenodd" transform="matrix(-1 0 0 1 3125 693)"/><rect x="2495" y="721" width="58" height="255" fill="#2EB77C" fill-opacity="0.701961"/><rect x="2590" y="712" width="171" height="60.0002" fill="#E11F5B" fill-opacity="0.788235"/><path d="M32 94.9999C14.3269 94.9999 1.81422e-14 93.806-1.20948e-14 92.3334L0 2.66652C-3.02369e-14 1.19384 14.3269-1.51184e-15 32-3.77961e-15" stroke="#000000" stroke-width="2.29167" stroke-miterlimit="8" fill="none" fill-rule="evenodd" transform="matrix(-1 0 0 1 2774 696)"/><path d="M2612 791C2594.33 791 2580 789.806 2580 788.333L2580 701.666C2580 700.194 2594.33 699 2612 699" stroke="#000000" stroke-width="2.29167" stroke-miterlimit="8" fill="none" fill-rule="evenodd"/><path d="M2513 987C2492.57 987 2476 985.62 2476 983.917L2476 701.083C2476 699.381 2492.57 698 2513 698" stroke="#000000" stroke-width="2.29167" stroke-miterlimit="8" fill="none" fill-rule="evenodd"/><path d="M37.0004 289C16.5656 289 2.29961e-14 287.619-9.19845e-15 285.917L0 3.08311C-3.67938e-14 1.38035 16.5656-2.2996e-15 37.0004-4.59919e-15" stroke="#000000" stroke-width="2.29167" stroke-miterlimit="8" fill="none" fill-rule="evenodd" transform="matrix(-1 0 0 1 2569 698)"/><path d="M2827.01 734.956 2886.57 734.956 2886.57 741.385 2827.01 741.385ZM2827.01 714.895 2886.57 714.895 2886.57 721.324 2827.01 721.324Z" fill-rule="evenodd"/><text fill="#000000" fill-opacity="0" font-family="Arial,Arial_MSFontService,sans-serif" font-size="26.4902" x="2827.01" y="738.074">=</text><text font-family="Calibri,Calibri_MSFontService,sans-serif" font-weight="400" font-size="66" transform="matrix(1 0 0 1 3545.69 769)">Rank 1 Matrix</text><path d="M3297 758.5C3297 748.283 3305.73 740 3316.5 740 3327.27 740 3336 748.283 3336 758.5 3336 768.717 3327.27 777 3316.5 777 3305.73 777 3297 768.717 3297 758.5Z" fill="#00B0F0" fill-rule="evenodd"/><path d="M3298 985C3277.57 985 3261 983.62 3261 981.917L3261 699.083C3261 697.38 3277.57 696 3298 696" stroke="#000000" stroke-width="2.29167" stroke-miterlimit="8" fill="none" fill-rule="evenodd"/><path d="M37.0001 289C16.5655 289 2.2996e-14 287.619-9.19838e-15 285.917L0 3.08311C-3.67935e-14 1.38035 16.5655-2.2996e-15 37.0001-4.59919e-15" stroke="#000000" stroke-width="2.29167" stroke-miterlimit="8" fill="none" fill-rule="evenodd" transform="matrix(-1 0 0 1 3470 696)"/><path d="M3297 845.5C3297 835.283 3305.73 827 3316.5 827 3327.27 827 3336 835.283 3336 845.5 3336 855.717 3327.27 864 3316.5 864 3305.73 864 3297 855.717 3297 845.5Z" fill="#00B0F0" fill-rule="evenodd"/><path d="M3297 932.5C3297 922.283 3305.73 914 3316.5 914 3327.27 914 3336 922.283 3336 932.5 3336 942.717 3327.27 951 3316.5 951 3305.73 951 3297 942.717 3297 932.5Z" fill="#00B0F0" fill-rule="evenodd"/><path d="M3388 758.5C3388 748.283 3396.73 740 3407.5 740 3418.27 740 3427 748.283 3427 758.5 3427 768.717 3418.27 777 3407.5 777 3396.73 777 3388 768.717 3388 758.5Z" fill="#00B0F0" fill-rule="evenodd"/><path d="M3388 845.5C3388 835.283 3396.73 827 3407.5 827 3418.27 827 3427 835.283 3427 845.5 3427 855.717 3418.27 864 3407.5 864 3396.73 864 3388 855.717 3388 845.5Z" fill="#00B0F0" fill-rule="evenodd"/><path d="M3388 932.5C3388 922.283 3396.73 914 3407.5 914 3418.27 914 3427 922.283 3427 932.5 3427 942.717 3418.27 951 3407.5 951 3396.73 951 3388 942.717 3388 932.5Z" fill="#00B0F0" fill-rule="evenodd"/><path d="M3162.13 737.147 3221.68 737.147 3221.68 743.576 3162.13 743.576ZM3162.13 717.086 3221.68 717.086 3221.68 723.515 3162.13 723.515Z" fill-rule="evenodd"/><text fill="#000000" fill-opacity="0" font-family="Arial,Arial_MSFontService,sans-serif" font-size="26.4902" x="3162.13" y="740.265">=</text></g></svg>