<svg version="1.1" xmlns="http://www.w3.org/2000/svg" viewBox="0 0 772.6026320735582 562.0777332015259" width="772.6026320735582" height="562.0777332015259">
  <!-- svg-source:excalidraw -->
  
  <defs>
    <style class="style-fonts">
      @font-face {
        font-family: "Virgil";
        src: url("https://excalidraw.com/Virgil.woff2");
      }
      @font-face {
        font-family: "Cascadia";
        src: url("https://excalidraw.com/Cascadia.woff2");
      }
    </style>
  </defs>
  <g stroke-linecap="round" transform="translate(78.53612113541931 13.09604933233527) rotate(0 109.1180994938668 235.12357912658592)"><path d="M0 0 C71.05 0, 142.09 0, 218.24 0 M0 0 C55.66 0, 111.32 0, 218.24 0 M218.24 0 C218.24 163.48, 218.24 326.95, 218.24 470.25 M218.24 0 C218.24 137.81, 218.24 275.62, 218.24 470.25 M218.24 470.25 C150.87 470.25, 83.51 470.25, 0 470.25 M218.24 470.25 C169.35 470.25, 120.46 470.25, 0 470.25 M0 470.25 C0 294.37, 0 118.5, 0 0 M0 470.25 C0 361.68, 0 253.11, 0 0" stroke="#000000" stroke-width="4" fill="none"></path></g><g transform="translate(132.8351081467399 225.46477630400568) rotate(0 60.5 22.5)"><text x="0" y="32" font-family="Virgil, Segoe UI Emoji" font-size="36px" fill="#000000" text-anchor="start" style="white-space: pre;" direction="ltr">building</text></g><g transform="translate(395.49811432782826 479.446191218746) rotate(0 18.835906161630646 -30.52706229829721)" stroke="none"><path fill="#000000" d="M -1.85,0.37 Q -1.85,0.37 -2.20,-1.50 -2.55,-3.37 -2.66,-5.78 -2.76,-8.18 -3.20,-9.74 -3.64,-11.31 -4.15,-14.35 -4.67,-17.38 -4.88,-20.61 -5.08,-23.83 -5.15,-26.69 -5.22,-29.54 -5.24,-31.88 -5.27,-34.21 -5.39,-35.57 -5.52,-36.93 -5.71,-39.03 -5.91,-41.13 -6.55,-43.08 -7.20,-45.04 -7.33,-46.29 -7.46,-47.55 -7.61,-49.19 -7.76,-50.82 -7.79,-51.90 -7.83,-52.97 -7.89,-54.44 -7.94,-55.91 -9.29,-55.73 -10.64,-55.54 -12.43,-55.70 -14.22,-55.85 -18.33,-56.03 -22.45,-56.21 -26.08,-56.34 -29.71,-56.46 -32.74,-56.56 -35.78,-56.65 -37.44,-56.62 -39.11,-56.58 -39.33,-56.61 -39.55,-56.64 -39.76,-56.72 -39.97,-56.80 -40.16,-56.93 -40.34,-57.05 -40.49,-57.22 -40.64,-57.39 -40.74,-57.59 -40.85,-57.79 -40.90,-58.01 -40.95,-58.23 -40.95,-58.45 -40.95,-58.68 -40.90,-58.89 -40.85,-59.11 -40.74,-59.31 -40.64,-59.51 -40.49,-59.68 -40.34,-59.85 -40.15,-59.97 -39.97,-60.10 -39.76,-60.18 -39.55,-60.26 -39.32,-60.29 -39.10,-60.31 -37.02,-60.36 -34.94,-60.41 -31.98,-60.33 -29.03,-60.24 -25.72,-59.41 -22.41,-58.57 -19.16,-57.44 -15.91,-56.32 -13.55,-55.86 -11.18,-55.40 -8.18,-54.41 -5.17,-53.42 -3.26,-53.05 -1.35,-52.68 -0.86,-52.59 -0.37,-52.51 -0.18,-52.45 -0.00,-52.39 0.16,-52.28 0.33,-52.18 0.46,-52.03 0.60,-51.89 0.70,-51.72 0.80,-51.55 0.85,-51.36 0.91,-51.17 0.92,-50.98 0.93,-50.78 0.89,-50.59 0.85,-50.40 0.76,-50.22 0.68,-50.04 0.56,-49.89 0.43,-49.73 0.28,-49.61 0.12,-49.50 -0.05,-49.42 -0.23,-49.34 -0.43,-49.31 -0.62,-49.28 -0.82,-49.29 -1.01,-49.31 -2.13,-49.68 -3.25,-50.05 -3.87,-51.63 -4.48,-53.22 -5.34,-53.98 -6.20,-54.73 -6.47,-55.32 -6.73,-55.92 -6.89,-56.17 -7.05,-56.41 -7.15,-56.69 -7.24,-56.97 -7.27,-57.27 -7.30,-57.56 -7.25,-57.85 -7.21,-58.15 -7.10,-58.42 -6.98,-58.69 -6.81,-58.93 -6.63,-59.17 -6.41,-59.36 -6.18,-59.55 -5.91,-59.67 -5.65,-59.80 -5.36,-59.87 -5.07,-59.93 -4.77,-59.92 -4.48,-59.91 -4.19,-59.83 -3.91,-59.75 -3.65,-59.61 -3.39,-59.46 -3.18,-59.26 -2.96,-59.06 -2.81,-57.56 -2.66,-56.05 -2.82,-53.84 -2.98,-51.63 -3.11,-49.11 -3.24,-46.59 -3.33,-44.03 -3.42,-41.46 -3.48,-38.88 -3.55,-36.29 -3.59,-33.70 -3.64,-31.11 -3.61,-29.26 -3.58,-27.41 -3.50,-26.18 -3.41,-24.96 -4.22,-23.29 -5.02,-21.62 -5.20,-19.95 -5.37,-18.29 -5.43,-16.78 -5.48,-15.27 -5.42,-13.05 -5.35,-10.83 -5.26,-9.21 -5.17,-7.59 -5.14,-6.52 -5.11,-5.46 -5.15,-5.14 -5.19,-4.82 -5.31,-4.52 -5.42,-4.22 -5.61,-3.95 -5.79,-3.69 -6.03,-3.48 -6.27,-3.26 -6.56,-3.11 -6.85,-2.96 -7.16,-2.89 -7.47,-2.81 -7.79,-2.81 -8.12,-2.81 -8.43,-2.89 -8.74,-2.97 -9.03,-3.12 -9.31,-3.27 -9.55,-3.48 -9.79,-3.70 -9.98,-3.96 -10.16,-4.23 -10.27,-4.53 -10.39,-4.83 -10.42,-5.15 -10.46,-5.47 -10.50,-6.64 -10.54,-7.80 -10.35,-10.04 -10.17,-12.27 -10.03,-19.95 -9.89,-27.62 -9.79,-32.38 -9.68,-37.13 -9.23,-42.94 -8.78,-48.76 -8.56,-51.94 -8.35,-55.12 -7.91,-57.02 -7.48,-58.92 -7.36,-59.29 -7.24,-59.67 -7.16,-59.87 -7.08,-60.08 -6.95,-60.26 -6.82,-60.44 -6.66,-60.58 -6.49,-60.73 -6.30,-60.83 -6.10,-60.93 -5.89,-60.98 -5.67,-61.03 -5.45,-61.03 -5.23,-61.03 -5.02,-60.97 -4.81,-60.92 -4.61,-60.81 -4.42,-60.71 -4.26,-60.56 -4.09,-60.41 -3.97,-60.23 -3.85,-60.05 -3.77,-59.84 -3.69,-59.64 -3.67,-59.42 -3.64,-59.20 -3.67,-58.98 -3.70,-58.76 -3.60,-55.76 -3.51,-52.75 -3.55,-49.16 -3.59,-45.57 -3.63,-42.18 -3.66,-38.78 -3.69,-34.73 -3.72,-30.67 -3.74,-27.83 -3.76,-24.98 -3.67,-23.40 -3.59,-21.82 -3.40,-19.58 -3.21,-17.34 -3.14,-16.09 -3.08,-14.84 -3.09,-13.49 -3.09,-12.13 -1.95,-12.65 -0.82,-13.17 1.26,-12.98 3.35,-12.79 6.12,-12.64 8.89,-12.50 10.81,-12.44 12.74,-12.39 15.05,-12.30 17.36,-12.20 19.46,-12.14 21.57,-12.08 23.58,-12.06 25.60,-12.03 26.83,-12.13 28.06,-12.23 30.08,-12.39 32.10,-12.55 34.30,-12.80 36.49,-13.05 38.30,-13.22 40.11,-13.39 41.25,-13.53 42.39,-13.68 43.65,-13.77 44.90,-13.86 45.17,-15.78 45.44,-17.70 45.62,-20.07 45.81,-22.43 45.94,-25.32 46.07,-28.20 46.16,-30.92 46.25,-33.64 46.32,-36.67 46.39,-39.69 46.44,-42.10 46.49,-44.50 46.52,-46.65 46.56,-48.79 46.45,-50.07 46.35,-51.36 46.17,-53.41 45.99,-55.47 45.93,-56.70 45.87,-57.93 45.90,-58.19 45.93,-58.45 46.03,-58.70 46.12,-58.95 46.27,-59.17 46.42,-59.38 46.62,-59.56 46.82,-59.73 47.05,-59.85 47.28,-59.98 47.54,-60.04 47.80,-60.10 48.06,-60.10 48.32,-60.10 48.58,-60.04 48.84,-59.98 49.07,-59.85 49.30,-59.73 49.50,-59.56 49.70,-59.38 49.85,-59.17 50.00,-58.95 50.09,-58.70 50.18,-58.45 50.22,-58.19 50.25,-57.93 50.17,-55.17 50.10,-52.41 50.03,-50.41 49.97,-48.40 49.11,-45.46 48.25,-42.52 47.90,-40.01 47.55,-37.49 47.38,-35.29 47.20,-33.10 46.73,-30.57 46.26,-28.04 46.13,-26.30 46.00,-24.56 46.01,-23.09 46.01,-21.62 46.00,-19.88 45.99,-18.14 45.63,-16.43 45.27,-14.72 45.16,-12.59 45.06,-10.46 44.45,-9.37 43.84,-8.28 42.88,-7.71 41.93,-7.13 39.69,-7.51 37.46,-7.88 36.67,-9.18 35.87,-10.47 35.41,-14.20 34.96,-17.93 34.84,-20.60 34.72,-23.27 34.71,-25.92 34.70,-28.57 34.66,-30.43 34.62,-32.29 34.51,-33.46 34.41,-34.62 34.33,-35.87 34.26,-37.12 34.12,-38.78 33.98,-40.44 33.94,-41.51 33.89,-42.58 34.32,-44.73 34.74,-46.89 36.31,-48.48 37.87,-50.08 38.04,-51.74 38.21,-53.39 38.37,-54.84 38.53,-56.29 39.58,-58.39 40.62,-60.49 42.16,-60.89 43.69,-61.29 46.46,-61.27 49.23,-61.24 52.63,-61.07 56.04,-60.89 60.09,-60.74 64.15,-60.60 67.74,-60.49 71.33,-60.38 73.60,-60.30 75.88,-60.22 76.09,-60.19 76.30,-60.16 76.50,-60.09 76.70,-60.01 76.87,-59.89 77.05,-59.77 77.19,-59.61 77.33,-59.45 77.43,-59.27 77.53,-59.08 77.58,-58.87 77.63,-58.66 77.63,-58.45 77.63,-58.24 77.58,-58.03 77.53,-57.82 77.43,-57.64 77.33,-57.45 77.19,-57.29 77.05,-57.13 76.87,-57.01 76.70,-56.89 76.50,-56.81 76.30,-56.74 76.09,-56.71 75.88,-56.68 72.29,-56.66 68.71,-56.65 65.76,-56.71 62.81,-56.78 60.44,-56.83 58.06,-56.88 55.93,-56.91 53.80,-56.95 52.15,-56.88 50.50,-56.81 49.43,-56.71 48.35,-56.60 46.79,-56.44 45.24,-56.27 44.98,-56.31 44.71,-56.34 44.47,-56.43 44.22,-56.52 44.01,-56.67 43.79,-56.82 43.62,-57.02 43.44,-57.21 43.32,-57.45 43.20,-57.68 43.14,-57.93 43.07,-58.19 43.07,-58.45 43.07,-58.71 43.14,-58.97 43.20,-59.22 43.32,-59.46 43.44,-59.69 43.62,-59.88 43.79,-60.08 44.01,-60.23 44.22,-60.38 44.47,-60.47 44.71,-60.57 44.98,-60.60 45.24,-60.63 47.37,-60.61 49.50,-60.60 52.07,-60.49 54.65,-60.38 57.61,-60.30 60.57,-60.21 62.20,-60.26 63.83,-60.30 65.69,-60.39 67.54,-60.48 67.87,-60.42 68.19,-60.37 68.48,-60.22 68.77,-60.06 68.99,-59.82 69.22,-59.59 69.36,-59.29 69.49,-58.99 69.53,-58.67 69.57,-58.34 69.50,-58.02 69.42,-57.70 69.26,-57.42 69.09,-57.14 68.84,-56.93 68.59,-56.72 68.28,-56.60 67.98,-56.47 67.65,-56.46 67.33,-56.44 67.01,-56.53 66.69,-56.61 66.42,-56.80 66.15,-56.98 65.95,-57.24 65.76,-57.50 65.65,-57.81 65.55,-58.12 65.55,-58.45 65.55,-58.78 65.65,-59.09 65.76,-59.40 65.95,-59.66 66.15,-59.92 66.42,-60.10 66.69,-60.29 67.01,-60.38 67.33,-60.46 67.65,-60.45 67.98,-60.43 68.28,-60.31 68.59,-60.19 68.84,-59.97 69.09,-59.76 69.26,-59.48 69.42,-59.20 69.50,-58.88 69.57,-58.56 69.53,-58.23 69.49,-57.91 69.36,-57.61 69.22,-57.31 68.99,-57.08 68.77,-56.84 68.48,-56.69 68.19,-56.53 67.87,-56.48 67.54,-56.43 67.54,-56.43 67.54,-56.43 65.69,-56.52 63.83,-56.60 62.20,-56.65 60.57,-56.69 57.61,-56.61 54.65,-56.52 52.07,-56.41 49.50,-56.30 47.37,-56.29 45.24,-56.27 44.98,-56.31 44.71,-56.34 44.47,-56.43 44.22,-56.52 44.01,-56.67 43.79,-56.82 43.62,-57.02 43.44,-57.21 43.32,-57.45 43.20,-57.68 43.14,-57.93 43.07,-58.19 43.07,-58.45 43.07,-58.71 43.14,-58.97 43.20,-59.22 43.32,-59.46 43.44,-59.69 43.62,-59.88 43.79,-60.08 44.01,-60.23 44.22,-60.38 44.47,-60.47 44.71,-60.57 44.98,-60.60 45.24,-60.63 46.79,-60.46 48.35,-60.30 49.43,-60.20 50.50,-60.09 52.15,-60.02 53.80,-59.95 55.93,-59.99 58.06,-60.03 60.44,-60.08 62.81,-60.12 65.76,-60.19 68.71,-60.26 72.29,-60.24 75.87,-60.22 76.09,-60.19 76.30,-60.16 76.50,-60.09 76.70,-60.01 76.87,-59.89 77.05,-59.77 77.19,-59.61 77.33,-59.45 77.43,-59.27 77.53,-59.08 77.58,-58.87 77.63,-58.66 77.63,-58.45 77.63,-58.24 77.58,-58.03 77.53,-57.82 77.43,-57.64 77.33,-57.45 77.19,-57.29 77.05,-57.13 76.87,-57.01 76.70,-56.89 76.50,-56.81 76.30,-56.74 76.09,-56.71 75.88,-56.68 73.60,-56.60 71.33,-56.52 67.74,-56.40 64.15,-56.29 60.10,-56.14 56.05,-55.99 52.68,-55.79 49.31,-55.59 47.58,-55.44 45.85,-55.29 44.97,-55.89 44.09,-56.49 44.11,-55.19 44.12,-53.89 43.88,-52.78 43.63,-51.67 43.26,-50.37 42.89,-49.08 42.51,-48.06 42.13,-47.04 40.72,-46.29 39.30,-45.53 39.07,-44.06 38.84,-42.58 38.80,-41.52 38.76,-40.45 38.63,-38.80 38.50,-37.15 38.44,-35.92 38.38,-34.68 38.31,-33.53 38.24,-32.38 38.29,-30.54 38.33,-28.71 38.52,-26.17 38.71,-23.63 39.06,-21.13 39.41,-18.64 40.14,-14.91 40.87,-11.19 40.97,-12.35 41.07,-13.51 41.34,-14.59 41.61,-15.67 42.02,-16.95 42.43,-18.23 42.49,-20.01 42.54,-21.80 42.70,-23.34 42.86,-24.88 43.10,-26.72 43.34,-28.55 43.73,-30.92 44.12,-33.29 44.21,-35.58 44.31,-37.88 44.59,-40.66 44.88,-43.44 45.51,-45.94 46.15,-48.43 46.08,-50.42 46.02,-52.41 45.95,-55.17 45.87,-57.93 45.90,-58.19 45.93,-58.45 46.03,-58.70 46.12,-58.95 46.27,-59.17 46.42,-59.38 46.62,-59.56 46.82,-59.73 47.05,-59.85 47.28,-59.98 47.54,-60.04 47.80,-60.10 48.06,-60.10 48.32,-60.10 48.58,-60.04 48.83,-59.98 49.07,-59.85 49.30,-59.73 49.50,-59.56 49.70,-59.38 49.85,-59.17 50.00,-58.95 50.09,-58.70 50.18,-58.45 50.22,-58.19 50.25,-57.93 50.19,-56.70 50.13,-55.47 49.95,-53.41 49.77,-51.36 49.67,-50.07 49.56,-48.79 49.59,-46.64 49.63,-44.50 49.67,-42.10 49.72,-39.69 49.78,-36.66 49.85,-33.64 49.93,-30.91 50.01,-28.18 50.12,-25.28 50.23,-22.38 50.35,-19.91 50.48,-17.44 50.38,-16.06 50.29,-14.68 49.83,-12.84 49.38,-10.99 48.30,-10.26 47.23,-9.52 46.12,-9.48 45.01,-9.43 43.82,-9.46 42.64,-9.49 41.55,-9.51 40.46,-9.52 38.78,-9.37 37.10,-9.22 34.60,-8.73 32.11,-8.23 30.08,-8.39 28.06,-8.55 26.83,-8.65 25.60,-8.74 23.58,-8.72 21.57,-8.70 19.46,-8.64 17.36,-8.57 15.05,-8.48 12.73,-8.39 10.81,-8.34 8.88,-8.29 6.10,-8.15 3.32,-8.02 0.44,-7.92 -2.44,-7.82 -4.20,-8.38 -5.96,-8.93 -6.62,-9.91 -7.29,-10.88 -7.30,-12.86 -7.31,-14.84 -7.24,-16.09 -7.18,-17.34 -6.99,-19.58 -6.80,-21.82 -6.71,-23.40 -6.62,-24.98 -6.65,-27.83 -6.67,-30.67 -6.70,-34.72 -6.74,-38.78 -6.79,-42.17 -6.83,-45.55 -6.91,-49.13 -6.98,-52.70 -7.09,-54.91 -7.19,-57.13 -7.22,-58.40 -7.24,-59.67 -7.16,-59.87 -7.08,-60.08 -6.95,-60.26 -6.82,-60.44 -6.66,-60.58 -6.49,-60.73 -6.30,-60.83 -6.10,-60.93 -5.89,-60.98 -5.67,-61.03 -5.45,-61.03 -5.23,-61.03 -5.02,-60.97 -4.81,-60.92 -4.61,-60.81 -4.42,-60.71 -4.26,-60.56 -4.09,-60.41 -3.97,-60.23 -3.85,-60.05 -3.77,-59.84 -3.69,-59.64 -3.67,-59.42 -3.64,-59.20 -3.67,-58.98 -3.70,-58.76 -3.95,-58.41 -4.21,-58.06 -4.66,-56.50 -5.10,-54.94 -5.21,-51.74 -5.31,-48.53 -5.60,-42.83 -5.89,-37.13 -5.79,-32.38 -5.68,-27.62 -5.54,-19.95 -5.40,-12.27 -5.22,-10.04 -5.04,-7.80 -5.08,-6.63 -5.11,-5.46 -5.15,-5.14 -5.19,-4.82 -5.31,-4.52 -5.42,-4.22 -5.61,-3.95 -5.79,-3.69 -6.03,-3.48 -6.27,-3.26 -6.56,-3.11 -6.85,-2.96 -7.16,-2.89 -7.47,-2.81 -7.79,-2.81 -8.12,-2.81 -8.43,-2.89 -8.74,-2.97 -9.03,-3.12 -9.31,-3.27 -9.55,-3.48 -9.79,-3.70 -9.98,-3.96 -10.16,-4.23 -10.27,-4.53 -10.39,-4.83 -10.42,-5.15 -10.46,-5.47 -10.43,-6.54 -10.40,-7.60 -10.30,-9.24 -10.19,-10.88 -10.14,-12.09 -10.10,-13.30 -10.01,-14.36 -9.93,-15.43 -9.87,-17.12 -9.81,-18.82 -9.56,-20.16 -9.31,-21.50 -8.83,-22.55 -8.35,-23.61 -7.66,-24.42 -6.97,-25.23 -6.89,-26.32 -6.80,-27.41 -6.77,-29.26 -6.74,-31.11 -6.78,-33.70 -6.83,-36.30 -6.88,-38.88 -6.94,-41.47 -7.01,-44.04 -7.09,-46.62 -7.18,-49.16 -7.27,-51.70 -7.00,-53.81 -6.73,-55.92 -6.89,-56.17 -7.05,-56.41 -7.15,-56.69 -7.24,-56.97 -7.27,-57.27 -7.30,-57.56 -7.25,-57.85 -7.21,-58.14 -7.10,-58.42 -6.98,-58.69 -6.81,-58.93 -6.63,-59.17 -6.41,-59.36 -6.18,-59.54 -5.91,-59.67 -5.65,-59.80 -5.36,-59.87 -5.07,-59.93 -4.77,-59.92 -4.48,-59.91 -4.19,-59.83 -3.91,-59.75 -3.65,-59.61 -3.40,-59.46 -3.18,-59.26 -2.96,-59.06 -2.19,-57.54 -1.41,-56.02 -0.89,-54.27 -0.37,-52.51 -0.18,-52.45 -0.00,-52.39 0.16,-52.28 0.33,-52.18 0.46,-52.03 0.60,-51.89 0.70,-51.72 0.80,-51.55 0.85,-51.36 0.91,-51.17 0.92,-50.98 0.93,-50.78 0.89,-50.59 0.85,-50.40 0.76,-50.22 0.68,-50.04 0.56,-49.89 0.43,-49.73 0.28,-49.61 0.12,-49.50 -0.05,-49.42 -0.23,-49.34 -0.43,-49.31 -0.62,-49.28 -0.82,-49.29 -1.01,-49.31 -1.47,-49.56 -1.92,-49.82 -3.99,-50.24 -6.05,-50.67 -8.89,-51.56 -11.72,-52.45 -14.31,-52.90 -16.90,-53.34 -20.04,-54.34 -23.18,-55.34 -26.12,-56.00 -29.05,-56.66 -31.99,-56.57 -34.94,-56.49 -37.02,-56.54 -39.11,-56.58 -39.33,-56.61 -39.55,-56.64 -39.76,-56.72 -39.97,-56.80 -40.16,-56.93 -40.34,-57.05 -40.49,-57.22 -40.64,-57.39 -40.74,-57.59 -40.85,-57.79 -40.90,-58.01 -40.95,-58.23 -40.95,-58.45 -40.95,-58.68 -40.90,-58.89 -40.85,-59.11 -40.74,-59.31 -40.64,-59.51 -40.49,-59.68 -40.34,-59.85 -40.15,-59.97 -39.97,-60.10 -39.76,-60.18 -39.55,-60.26 -39.32,-60.29 -39.10,-60.31 -37.44,-60.28 -35.77,-60.24 -32.74,-60.33 -29.70,-60.41 -26.06,-60.52 -22.43,-60.63 -18.25,-60.76 -14.07,-60.89 -12.16,-60.94 -10.25,-60.99 -7.98,-60.81 -5.71,-60.62 -4.66,-59.81 -3.61,-59.00 -3.04,-56.82 -2.46,-54.64 -2.53,-52.78 -2.59,-50.91 -2.65,-49.37 -2.72,-47.83 -2.65,-46.04 -2.59,-44.25 -2.23,-42.72 -1.87,-41.19 -2.04,-39.08 -2.21,-36.98 -2.30,-35.62 -2.39,-34.26 -2.33,-31.96 -2.26,-29.65 -2.13,-26.86 -2.00,-24.06 -1.73,-21.03 -1.46,-17.99 -0.85,-15.08 -0.24,-12.18 0.19,-10.30 0.63,-8.43 0.84,-6.26 1.06,-4.09 1.46,-2.23 1.85,-0.37 1.87,-0.14 1.89,0.08 1.85,0.30 1.81,0.53 1.72,0.74 1.63,0.95 1.49,1.13 1.36,1.31 1.18,1.46 1.00,1.60 0.79,1.70 0.59,1.79 0.36,1.84 0.14,1.88 -0.08,1.87 -0.31,1.86 -0.53,1.80 -0.74,1.73 -0.94,1.62 -1.14,1.50 -1.30,1.35 -1.47,1.19 -1.59,0.99 -1.71,0.80 -1.78,0.58 -1.85,0.37 -1.85,0.37 L -1.85,0.37 Z"></path></g><g transform="translate(597.540820458702 478.5368100957801) rotate(0 18.835906161630646 -30.52706229829721)" stroke="none"><path fill="#000000" d="M -1.85,0.37 Q -1.85,0.37 -2.20,-1.50 -2.55,-3.37 -2.66,-5.78 -2.76,-8.18 -3.20,-9.74 -3.64,-11.31 -4.15,-14.35 -4.67,-17.38 -4.88,-20.61 -5.08,-23.83 -5.15,-26.69 -5.22,-29.54 -5.24,-31.88 -5.27,-34.21 -5.39,-35.57 -5.52,-36.93 -5.71,-39.03 -5.91,-41.13 -6.55,-43.08 -7.20,-45.04 -7.33,-46.29 -7.46,-47.55 -7.61,-49.19 -7.76,-50.82 -7.79,-51.90 -7.83,-52.97 -7.89,-54.44 -7.94,-55.91 -9.29,-55.73 -10.64,-55.54 -12.43,-55.70 -14.22,-55.85 -18.33,-56.03 -22.45,-56.21 -26.08,-56.34 -29.71,-56.46 -32.74,-56.56 -35.78,-56.65 -37.44,-56.62 -39.11,-56.58 -39.33,-56.61 -39.55,-56.64 -39.76,-56.72 -39.97,-56.80 -40.16,-56.93 -40.34,-57.05 -40.49,-57.22 -40.64,-57.39 -40.74,-57.59 -40.85,-57.79 -40.90,-58.01 -40.95,-58.23 -40.95,-58.45 -40.95,-58.68 -40.90,-58.89 -40.85,-59.11 -40.74,-59.31 -40.64,-59.51 -40.49,-59.68 -40.34,-59.85 -40.15,-59.97 -39.97,-60.10 -39.76,-60.18 -39.55,-60.26 -39.32,-60.29 -39.10,-60.31 -37.02,-60.36 -34.94,-60.41 -31.98,-60.33 -29.03,-60.24 -25.72,-59.41 -22.41,-58.57 -19.16,-57.44 -15.91,-56.32 -13.55,-55.86 -11.18,-55.40 -8.18,-54.41 -5.17,-53.42 -3.26,-53.05 -1.35,-52.68 -0.86,-52.59 -0.37,-52.51 -0.18,-52.45 -0.00,-52.39 0.16,-52.28 0.33,-52.18 0.46,-52.03 0.60,-51.89 0.70,-51.72 0.80,-51.55 0.85,-51.36 0.91,-51.17 0.92,-50.98 0.93,-50.78 0.89,-50.59 0.85,-50.40 0.76,-50.22 0.68,-50.04 0.56,-49.89 0.43,-49.73 0.28,-49.61 0.12,-49.50 -0.05,-49.42 -0.23,-49.34 -0.43,-49.31 -0.62,-49.28 -0.82,-49.29 -1.01,-49.31 -2.13,-49.68 -3.25,-50.05 -3.87,-51.63 -4.48,-53.22 -5.34,-53.98 -6.20,-54.73 -6.47,-55.32 -6.73,-55.92 -6.89,-56.17 -7.05,-56.41 -7.15,-56.69 -7.24,-56.97 -7.27,-57.27 -7.30,-57.56 -7.25,-57.85 -7.21,-58.15 -7.10,-58.42 -6.98,-58.69 -6.81,-58.93 -6.63,-59.17 -6.41,-59.36 -6.18,-59.55 -5.91,-59.67 -5.65,-59.80 -5.36,-59.87 -5.07,-59.93 -4.77,-59.92 -4.48,-59.91 -4.19,-59.83 -3.91,-59.75 -3.65,-59.61 -3.39,-59.46 -3.18,-59.26 -2.96,-59.06 -2.81,-57.56 -2.66,-56.05 -2.82,-53.84 -2.98,-51.63 -3.11,-49.11 -3.24,-46.59 -3.33,-44.03 -3.42,-41.46 -3.48,-38.88 -3.55,-36.29 -3.59,-33.70 -3.64,-31.11 -3.61,-29.26 -3.58,-27.41 -3.50,-26.18 -3.41,-24.96 -4.22,-23.29 -5.02,-21.62 -5.20,-19.95 -5.37,-18.29 -5.43,-16.78 -5.48,-15.27 -5.42,-13.05 -5.35,-10.83 -5.26,-9.21 -5.17,-7.59 -5.14,-6.52 -5.11,-5.46 -5.15,-5.14 -5.19,-4.82 -5.31,-4.52 -5.42,-4.22 -5.61,-3.95 -5.79,-3.69 -6.03,-3.48 -6.27,-3.26 -6.56,-3.11 -6.85,-2.96 -7.16,-2.89 -7.47,-2.81 -7.79,-2.81 -8.12,-2.81 -8.43,-2.89 -8.74,-2.97 -9.03,-3.12 -9.31,-3.27 -9.55,-3.48 -9.79,-3.70 -9.98,-3.96 -10.16,-4.23 -10.27,-4.53 -10.39,-4.83 -10.42,-5.15 -10.46,-5.47 -10.50,-6.64 -10.54,-7.80 -10.35,-10.04 -10.17,-12.27 -10.03,-19.95 -9.89,-27.62 -9.79,-32.38 -9.68,-37.13 -9.23,-42.94 -8.78,-48.76 -8.56,-51.94 -8.35,-55.12 -7.91,-57.02 -7.48,-58.92 -7.36,-59.29 -7.24,-59.67 -7.16,-59.87 -7.08,-60.08 -6.95,-60.26 -6.82,-60.44 -6.66,-60.58 -6.49,-60.73 -6.30,-60.83 -6.10,-60.93 -5.89,-60.98 -5.67,-61.03 -5.45,-61.03 -5.23,-61.03 -5.02,-60.97 -4.81,-60.92 -4.61,-60.81 -4.42,-60.71 -4.26,-60.56 -4.09,-60.41 -3.97,-60.23 -3.85,-60.05 -3.77,-59.84 -3.69,-59.64 -3.67,-59.42 -3.64,-59.20 -3.67,-58.98 -3.70,-58.76 -3.60,-55.76 -3.51,-52.75 -3.55,-49.16 -3.59,-45.57 -3.63,-42.18 -3.66,-38.78 -3.69,-34.73 -3.72,-30.67 -3.74,-27.83 -3.76,-24.98 -3.67,-23.40 -3.59,-21.82 -3.40,-19.58 -3.21,-17.34 -3.14,-16.09 -3.08,-14.84 -3.09,-13.49 -3.09,-12.13 -1.95,-12.65 -0.82,-13.17 1.26,-12.98 3.35,-12.79 6.12,-12.64 8.89,-12.50 10.81,-12.44 12.74,-12.39 15.05,-12.30 17.36,-12.20 19.46,-12.14 21.57,-12.08 23.58,-12.06 25.60,-12.03 26.83,-12.13 28.06,-12.23 30.08,-12.39 32.10,-12.55 34.30,-12.80 36.49,-13.05 38.30,-13.22 40.11,-13.39 41.25,-13.53 42.39,-13.68 43.65,-13.77 44.90,-13.86 45.17,-15.78 45.44,-17.70 45.62,-20.07 45.81,-22.43 45.94,-25.32 46.07,-28.20 46.16,-30.92 46.25,-33.64 46.32,-36.67 46.39,-39.69 46.44,-42.10 46.49,-44.50 46.52,-46.65 46.56,-48.79 46.45,-50.07 46.35,-51.36 46.17,-53.41 45.99,-55.47 45.93,-56.70 45.87,-57.93 45.90,-58.19 45.93,-58.45 46.03,-58.70 46.12,-58.95 46.27,-59.17 46.42,-59.38 46.62,-59.56 46.82,-59.73 47.05,-59.85 47.28,-59.98 47.54,-60.04 47.80,-60.10 48.06,-60.10 48.32,-60.10 48.58,-60.04 48.84,-59.98 49.07,-59.85 49.30,-59.73 49.50,-59.56 49.70,-59.38 49.85,-59.17 50.00,-58.95 50.09,-58.70 50.18,-58.45 50.22,-58.19 50.25,-57.93 50.17,-55.17 50.10,-52.41 50.03,-50.41 49.97,-48.40 49.11,-45.46 48.25,-42.52 47.90,-40.01 47.55,-37.49 47.38,-35.29 47.20,-33.10 46.73,-30.57 46.26,-28.04 46.13,-26.30 46.00,-24.56 46.01,-23.09 46.01,-21.62 46.00,-19.88 45.99,-18.14 45.63,-16.43 45.27,-14.72 45.16,-12.59 45.06,-10.46 44.45,-9.37 43.84,-8.28 42.88,-7.71 41.93,-7.13 39.69,-7.51 37.46,-7.88 36.67,-9.18 35.87,-10.47 35.41,-14.20 34.96,-17.93 34.84,-20.60 34.72,-23.27 34.71,-25.92 34.70,-28.57 34.66,-30.43 34.62,-32.29 34.51,-33.46 34.41,-34.62 34.33,-35.87 34.26,-37.12 34.12,-38.78 33.98,-40.44 33.94,-41.51 33.89,-42.58 34.32,-44.73 34.74,-46.89 36.31,-48.48 37.87,-50.08 38.04,-51.74 38.21,-53.39 38.37,-54.84 38.53,-56.29 39.58,-58.39 40.62,-60.49 42.16,-60.89 43.69,-61.29 46.46,-61.27 49.23,-61.24 52.63,-61.07 56.04,-60.89 60.09,-60.74 64.15,-60.60 67.74,-60.49 71.33,-60.38 73.60,-60.30 75.88,-60.22 76.09,-60.19 76.30,-60.16 76.50,-60.09 76.70,-60.01 76.87,-59.89 77.05,-59.77 77.19,-59.61 77.33,-59.45 77.43,-59.27 77.53,-59.08 77.58,-58.87 77.63,-58.66 77.63,-58.45 77.63,-58.24 77.58,-58.03 77.53,-57.82 77.43,-57.64 77.33,-57.45 77.19,-57.29 77.05,-57.13 76.87,-57.01 76.70,-56.89 76.50,-56.81 76.30,-56.74 76.09,-56.71 75.88,-56.68 72.29,-56.66 68.71,-56.65 65.76,-56.71 62.81,-56.78 60.44,-56.83 58.06,-56.88 55.93,-56.91 53.80,-56.95 52.15,-56.88 50.50,-56.81 49.43,-56.71 48.35,-56.60 46.79,-56.44 45.24,-56.27 44.98,-56.31 44.71,-56.34 44.47,-56.43 44.22,-56.52 44.01,-56.67 43.79,-56.82 43.62,-57.02 43.44,-57.21 43.32,-57.45 43.20,-57.68 43.14,-57.93 43.07,-58.19 43.07,-58.45 43.07,-58.71 43.14,-58.97 43.20,-59.22 43.32,-59.46 43.44,-59.69 43.62,-59.88 43.79,-60.08 44.01,-60.23 44.22,-60.38 44.47,-60.47 44.71,-60.57 44.98,-60.60 45.24,-60.63 47.37,-60.61 49.50,-60.60 52.07,-60.49 54.65,-60.38 57.61,-60.30 60.57,-60.21 62.20,-60.26 63.83,-60.30 65.35,-60.37 66.87,-60.43 67.19,-60.38 67.51,-60.33 67.79,-60.18 68.07,-60.03 68.29,-59.80 68.51,-59.56 68.65,-59.27 68.78,-58.98 68.82,-58.66 68.85,-58.34 68.78,-58.03 68.72,-57.72 68.55,-57.44 68.38,-57.17 68.14,-56.96 67.90,-56.75 67.60,-56.63 67.30,-56.52 66.98,-56.50 66.66,-56.48 66.35,-56.57 66.04,-56.65 65.78,-56.83 65.51,-57.01 65.32,-57.27 65.12,-57.52 65.02,-57.83 64.92,-58.13 64.92,-58.45 64.92,-58.77 65.02,-59.08 65.12,-59.38 65.32,-59.64 65.51,-59.89 65.78,-60.07 66.04,-60.25 66.35,-60.34 66.66,-60.42 66.98,-60.40 67.30,-60.39 67.60,-60.27 67.90,-60.15 68.14,-59.94 68.39,-59.73 68.55,-59.46 68.72,-59.18 68.78,-58.87 68.85,-58.56 68.82,-58.24 68.78,-57.92 68.65,-57.63 68.51,-57.34 68.29,-57.11 68.07,-56.87 67.79,-56.72 67.51,-56.57 67.19,-56.52 66.87,-56.47 66.87,-56.47 66.87,-56.47 65.35,-56.54 63.83,-56.60 62.20,-56.65 60.57,-56.69 57.61,-56.61 54.65,-56.52 52.07,-56.41 49.50,-56.30 47.37,-56.29 45.24,-56.27 44.98,-56.31 44.71,-56.34 44.47,-56.43 44.22,-56.52 44.01,-56.67 43.79,-56.82 43.62,-57.02 43.44,-57.21 43.32,-57.45 43.20,-57.68 43.14,-57.93 43.07,-58.19 43.07,-58.45 43.07,-58.71 43.14,-58.97 43.20,-59.22 43.32,-59.46 43.44,-59.69 43.62,-59.88 43.79,-60.08 44.01,-60.23 44.22,-60.38 44.47,-60.47 44.71,-60.57 44.98,-60.60 45.24,-60.63 46.79,-60.46 48.35,-60.30 49.43,-60.20 50.50,-60.09 52.15,-60.02 53.80,-59.95 55.93,-59.99 58.06,-60.03 60.44,-60.08 62.81,-60.12 65.76,-60.19 68.71,-60.26 72.29,-60.24 75.87,-60.22 76.09,-60.19 76.30,-60.16 76.50,-60.09 76.70,-60.01 76.87,-59.89 77.05,-59.77 77.19,-59.61 77.33,-59.45 77.43,-59.27 77.53,-59.08 77.58,-58.87 77.63,-58.66 77.63,-58.45 77.63,-58.24 77.58,-58.03 77.53,-57.82 77.43,-57.64 77.33,-57.45 77.19,-57.29 77.05,-57.13 76.87,-57.01 76.70,-56.89 76.50,-56.81 76.30,-56.74 76.09,-56.71 75.88,-56.68 73.60,-56.60 71.33,-56.52 67.74,-56.40 64.15,-56.29 60.10,-56.14 56.05,-55.99 52.68,-55.79 49.31,-55.59 47.58,-55.44 45.85,-55.29 44.97,-55.89 44.09,-56.49 44.11,-55.19 44.12,-53.89 43.88,-52.78 43.63,-51.67 43.26,-50.37 42.89,-49.08 42.51,-48.06 42.13,-47.04 40.72,-46.29 39.30,-45.53 39.07,-44.06 38.84,-42.58 38.80,-41.52 38.76,-40.45 38.63,-38.80 38.50,-37.15 38.44,-35.92 38.38,-34.68 38.31,-33.53 38.24,-32.38 38.29,-30.54 38.33,-28.71 38.52,-26.17 38.71,-23.63 39.06,-21.13 39.41,-18.64 40.14,-14.91 40.87,-11.19 40.97,-12.35 41.07,-13.51 41.34,-14.59 41.61,-15.67 42.02,-16.95 42.43,-18.23 42.49,-20.01 42.54,-21.80 42.70,-23.34 42.86,-24.88 43.10,-26.72 43.34,-28.55 43.73,-30.92 44.12,-33.29 44.21,-35.58 44.31,-37.88 44.59,-40.66 44.88,-43.44 45.51,-45.94 46.15,-48.43 46.08,-50.42 46.02,-52.41 45.95,-55.17 45.87,-57.93 45.90,-58.19 45.93,-58.45 46.03,-58.70 46.12,-58.95 46.27,-59.17 46.42,-59.38 46.62,-59.56 46.82,-59.73 47.05,-59.85 47.28,-59.98 47.54,-60.04 47.80,-60.10 48.06,-60.10 48.32,-60.10 48.58,-60.04 48.83,-59.98 49.07,-59.85 49.30,-59.73 49.50,-59.56 49.70,-59.38 49.85,-59.17 50.00,-58.95 50.09,-58.70 50.18,-58.45 50.22,-58.19 50.25,-57.93 50.19,-56.70 50.13,-55.47 49.95,-53.41 49.77,-51.36 49.67,-50.07 49.56,-48.79 49.59,-46.64 49.63,-44.50 49.67,-42.10 49.72,-39.69 49.78,-36.66 49.85,-33.64 49.93,-30.91 50.01,-28.18 50.12,-25.28 50.23,-22.38 50.35,-19.91 50.48,-17.44 50.38,-16.06 50.29,-14.68 49.83,-12.84 49.38,-10.99 48.30,-10.26 47.23,-9.52 46.12,-9.48 45.01,-9.43 43.82,-9.46 42.64,-9.49 41.55,-9.51 40.46,-9.52 38.78,-9.37 37.10,-9.22 34.60,-8.73 32.11,-8.23 30.08,-8.39 28.06,-8.55 26.83,-8.65 25.60,-8.74 23.58,-8.72 21.57,-8.70 19.46,-8.64 17.36,-8.57 15.05,-8.48 12.73,-8.39 10.81,-8.34 8.88,-8.29 6.10,-8.15 3.32,-8.02 0.44,-7.92 -2.44,-7.82 -4.20,-8.38 -5.96,-8.93 -6.62,-9.91 -7.29,-10.88 -7.30,-12.86 -7.31,-14.84 -7.24,-16.09 -7.18,-17.34 -6.99,-19.58 -6.80,-21.82 -6.71,-23.40 -6.62,-24.98 -6.65,-27.83 -6.67,-30.67 -6.70,-34.72 -6.74,-38.78 -6.79,-42.17 -6.83,-45.55 -6.91,-49.13 -6.98,-52.70 -7.09,-54.91 -7.19,-57.13 -7.22,-58.40 -7.24,-59.67 -7.16,-59.87 -7.08,-60.08 -6.95,-60.26 -6.82,-60.44 -6.66,-60.58 -6.49,-60.73 -6.30,-60.83 -6.10,-60.93 -5.89,-60.98 -5.67,-61.03 -5.45,-61.03 -5.23,-61.03 -5.02,-60.97 -4.81,-60.92 -4.61,-60.81 -4.42,-60.71 -4.26,-60.56 -4.09,-60.41 -3.97,-60.23 -3.85,-60.05 -3.77,-59.84 -3.69,-59.64 -3.67,-59.42 -3.64,-59.20 -3.67,-58.98 -3.70,-58.76 -3.95,-58.41 -4.21,-58.06 -4.66,-56.50 -5.10,-54.94 -5.21,-51.74 -5.31,-48.53 -5.60,-42.83 -5.89,-37.13 -5.79,-32.38 -5.68,-27.62 -5.54,-19.95 -5.40,-12.27 -5.22,-10.04 -5.04,-7.80 -5.08,-6.63 -5.11,-5.46 -5.15,-5.14 -5.19,-4.82 -5.31,-4.52 -5.42,-4.22 -5.61,-3.95 -5.79,-3.69 -6.03,-3.48 -6.27,-3.26 -6.56,-3.11 -6.85,-2.96 -7.16,-2.89 -7.47,-2.81 -7.79,-2.81 -8.12,-2.81 -8.43,-2.89 -8.74,-2.97 -9.03,-3.12 -9.31,-3.27 -9.55,-3.48 -9.79,-3.70 -9.98,-3.96 -10.16,-4.23 -10.27,-4.53 -10.39,-4.83 -10.42,-5.15 -10.46,-5.47 -10.43,-6.54 -10.40,-7.60 -10.30,-9.24 -10.19,-10.88 -10.14,-12.09 -10.10,-13.30 -10.01,-14.36 -9.93,-15.43 -9.87,-17.12 -9.81,-18.82 -9.56,-20.16 -9.31,-21.50 -8.83,-22.55 -8.35,-23.61 -7.66,-24.42 -6.97,-25.23 -6.89,-26.32 -6.80,-27.41 -6.77,-29.26 -6.74,-31.11 -6.78,-33.70 -6.83,-36.30 -6.88,-38.88 -6.94,-41.47 -7.01,-44.04 -7.09,-46.62 -7.18,-49.16 -7.27,-51.70 -7.00,-53.81 -6.73,-55.92 -6.89,-56.17 -7.05,-56.41 -7.15,-56.69 -7.24,-56.97 -7.27,-57.27 -7.30,-57.56 -7.25,-57.85 -7.21,-58.14 -7.10,-58.42 -6.98,-58.69 -6.81,-58.93 -6.63,-59.17 -6.41,-59.36 -6.18,-59.54 -5.91,-59.67 -5.65,-59.80 -5.36,-59.87 -5.07,-59.93 -4.77,-59.92 -4.48,-59.91 -4.19,-59.83 -3.91,-59.75 -3.65,-59.61 -3.40,-59.46 -3.18,-59.26 -2.96,-59.06 -2.19,-57.54 -1.41,-56.02 -0.89,-54.27 -0.37,-52.51 -0.18,-52.45 -0.00,-52.39 0.16,-52.28 0.33,-52.18 0.46,-52.03 0.60,-51.89 0.70,-51.72 0.80,-51.55 0.85,-51.36 0.91,-51.17 0.92,-50.98 0.93,-50.78 0.89,-50.59 0.85,-50.40 0.76,-50.22 0.68,-50.04 0.56,-49.89 0.43,-49.73 0.28,-49.61 0.12,-49.50 -0.05,-49.42 -0.23,-49.34 -0.43,-49.31 -0.62,-49.28 -0.82,-49.29 -1.01,-49.31 -1.47,-49.56 -1.92,-49.82 -3.99,-50.24 -6.05,-50.67 -8.89,-51.56 -11.72,-52.45 -14.31,-52.90 -16.90,-53.34 -20.04,-54.34 -23.18,-55.34 -26.12,-56.00 -29.05,-56.66 -31.99,-56.57 -34.94,-56.49 -37.02,-56.54 -39.11,-56.58 -39.33,-56.61 -39.55,-56.64 -39.76,-56.72 -39.97,-56.80 -40.16,-56.93 -40.34,-57.05 -40.49,-57.22 -40.64,-57.39 -40.74,-57.59 -40.85,-57.79 -40.90,-58.01 -40.95,-58.23 -40.95,-58.45 -40.95,-58.68 -40.90,-58.89 -40.85,-59.11 -40.74,-59.31 -40.64,-59.51 -40.49,-59.68 -40.34,-59.85 -40.15,-59.97 -39.97,-60.10 -39.76,-60.18 -39.55,-60.26 -39.32,-60.29 -39.10,-60.31 -37.44,-60.28 -35.77,-60.24 -32.74,-60.33 -29.70,-60.41 -26.06,-60.52 -22.43,-60.63 -18.25,-60.76 -14.07,-60.89 -12.16,-60.94 -10.25,-60.99 -7.98,-60.81 -5.71,-60.62 -4.66,-59.81 -3.61,-59.00 -3.04,-56.82 -2.46,-54.64 -2.53,-52.78 -2.59,-50.91 -2.65,-49.37 -2.72,-47.83 -2.65,-46.04 -2.59,-44.25 -2.23,-42.72 -1.87,-41.19 -2.04,-39.08 -2.21,-36.98 -2.30,-35.62 -2.39,-34.26 -2.33,-31.96 -2.26,-29.65 -2.13,-26.86 -2.00,-24.06 -1.73,-21.03 -1.46,-17.99 -0.85,-15.08 -0.24,-12.18 0.19,-10.30 0.63,-8.43 0.84,-6.26 1.06,-4.09 1.46,-2.23 1.85,-0.37 1.87,-0.14 1.89,0.08 1.85,0.30 1.81,0.53 1.72,0.74 1.63,0.95 1.49,1.13 1.36,1.31 1.18,1.46 1.00,1.60 0.79,1.70 0.59,1.79 0.36,1.84 0.14,1.88 -0.08,1.87 -0.31,1.86 -0.53,1.80 -0.74,1.73 -0.94,1.62 -1.14,1.50 -1.30,1.35 -1.47,1.19 -1.59,0.99 -1.71,0.80 -1.78,0.58 -1.85,0.37 -1.85,0.37 L -1.85,0.37 Z"></path></g><g transform="translate(601.4766407217212 423.46473477923723) rotate(0 14.150484091866929 19.188353157318716)" stroke="none"><path fill="#c92a2a" d="M 2.01,1.65 Q 2.01,1.65 1.44,2.40 0.87,3.15 0.23,1.95 -0.39,0.75 1.26,0.74 2.92,0.73 4.11,1.64 5.30,2.55 5.50,3.72 5.70,4.90 5.26,5.87 4.82,6.84 3.79,5.26 2.76,3.68 4.34,3.44 5.92,3.21 6.99,3.23 8.06,3.25 8.89,3.26 9.73,3.28 10.11,3.33 10.48,3.38 10.84,3.51 11.20,3.65 11.51,3.87 11.82,4.09 12.07,4.38 12.33,4.67 12.50,5.01 12.68,5.35 12.76,5.72 12.85,6.09 12.85,6.47 12.85,6.86 12.75,7.23 12.66,7.60 12.48,7.93 12.30,8.27 12.04,8.55 11.79,8.84 11.47,9.05 11.15,9.27 10.80,9.40 10.44,9.53 10.06,9.58 9.68,9.62 9.29,10.77 8.91,11.91 8.59,12.15 8.28,12.38 7.91,12.53 7.55,12.68 7.16,12.74 6.78,12.80 6.38,12.76 5.99,12.72 5.62,12.59 5.25,12.47 4.92,12.25 4.59,12.04 4.32,11.75 4.05,11.47 3.86,11.12 3.67,10.78 3.56,10.40 3.46,10.03 3.45,9.63 3.44,9.24 3.52,8.86 3.60,8.47 3.77,8.12 3.95,7.77 4.20,7.47 4.45,7.16 6.41,7.00 8.38,6.83 10.00,6.38 11.61,5.93 12.87,5.69 14.12,5.45 13.08,6.48 12.04,7.51 12.42,5.54 12.79,3.56 12.91,2.43 13.03,1.30 12.07,2.09 11.10,2.89 9.80,3.03 8.49,3.17 8.24,3.24 7.98,3.31 7.59,3.29 7.20,3.26 6.82,3.15 6.45,3.03 6.11,2.83 5.77,2.63 5.49,2.35 5.22,2.07 5.01,1.74 4.81,1.40 4.69,1.03 4.57,0.65 4.55,0.26 4.52,-0.12 4.59,-0.51 4.66,-0.90 4.82,-1.25 4.98,-1.61 5.22,-1.92 5.47,-2.23 5.77,-2.48 6.08,-2.72 6.44,-2.88 6.80,-3.04 7.18,-3.11 7.57,-3.19 8.66,-2.98 9.75,-2.78 11.09,-2.58 12.42,-2.38 14.49,-2.11 16.57,-1.84 19.29,-1.64 22.02,-1.45 24.21,-1.31 26.40,-1.16 27.63,-1.22 28.86,-1.28 29.38,-1.29 29.90,-1.31 30.18,-1.27 30.45,-1.24 30.71,-1.14 30.96,-1.04 31.19,-0.89 31.42,-0.73 31.60,-0.52 31.78,-0.31 31.91,-0.07 32.03,0.16 32.10,0.43 32.16,0.70 32.16,0.98 32.16,1.25 32.09,1.52 32.03,1.79 31.90,2.03 31.77,2.27 31.59,2.48 31.40,2.68 31.17,2.84 30.95,2.99 30.69,3.09 30.43,3.19 30.16,3.22 29.88,3.25 28.75,3.95 27.61,4.65 26.22,5.08 24.83,5.51 23.06,5.89 21.29,6.28 20.01,6.63 18.72,6.97 17.97,7.29 17.22,7.60 16.93,7.64 16.64,7.68 16.34,7.65 16.05,7.61 15.77,7.51 15.49,7.41 15.25,7.24 15.00,7.08 14.80,6.86 14.60,6.64 14.46,6.37 14.32,6.11 14.25,5.83 14.18,5.54 14.17,5.24 14.17,4.95 14.24,4.66 14.31,4.37 14.44,4.11 14.58,3.84 14.77,3.62 14.97,3.40 15.21,3.23 15.45,3.05 15.73,2.95 16.00,2.84 17.20,2.78 18.40,2.72 20.01,4.08 21.62,5.43 21.44,6.81 21.27,8.18 20.19,9.49 19.11,10.79 18.18,11.67 17.25,12.55 15.82,11.51 14.39,10.48 15.50,10.35 16.61,10.23 18.33,10.14 20.06,10.05 20.62,10.04 21.17,10.04 21.54,10.08 21.91,10.11 22.26,10.24 22.61,10.36 22.92,10.57 23.24,10.77 23.49,11.04 23.74,11.32 23.92,11.64 24.10,11.97 24.20,12.33 24.29,12.69 24.30,13.06 24.31,13.43 24.23,13.79 24.15,14.16 23.98,14.49 23.81,14.82 23.57,15.11 23.33,15.39 23.03,15.61 22.73,15.83 22.39,15.97 22.04,16.10 21.67,16.16 21.30,16.21 22.35,15.80 23.40,15.39 22.09,16.27 20.78,17.16 19.23,17.63 17.68,18.10 15.54,18.40 13.40,18.70 11.58,18.91 9.76,19.12 8.83,19.35 7.91,19.57 7.59,19.58 7.27,19.58 6.96,19.51 6.65,19.44 6.37,19.30 6.08,19.16 5.84,18.95 5.60,18.75 5.42,18.49 5.23,18.23 5.11,17.94 4.99,17.64 4.95,17.33 4.91,17.01 4.94,16.69 4.97,16.38 5.08,16.08 5.18,15.78 5.36,15.52 5.54,15.25 5.77,15.04 6.00,14.82 6.28,14.67 6.56,14.52 6.87,14.43 7.18,14.35 8.87,14.16 10.56,13.96 12.68,13.70 14.80,13.44 17.27,13.19 19.73,12.95 21.72,12.76 23.70,12.57 24.76,12.38 25.82,12.19 26.34,12.09 26.87,11.98 27.13,11.98 27.39,11.99 27.64,12.06 27.89,12.13 28.12,12.26 28.35,12.38 28.54,12.56 28.73,12.74 28.87,12.96 29.01,13.18 29.10,13.42 29.18,13.67 29.21,13.93 29.23,14.19 29.20,14.45 29.16,14.71 29.06,14.95 28.96,15.19 28.81,15.40 28.65,15.61 28.45,15.78 28.25,15.95 28.02,16.06 27.78,16.18 27.53,16.23 27.27,16.29 25.49,16.92 23.70,17.55 21.67,17.89 19.64,18.22 17.26,18.57 14.89,18.92 12.45,19.21 10.01,19.50 8.53,19.73 7.06,19.96 6.17,20.18 5.29,20.39 5.04,20.38 4.79,20.38 4.55,20.31 4.31,20.25 4.09,20.13 3.87,20.00 3.69,19.83 3.50,19.66 3.37,19.46 3.23,19.25 3.15,19.01 3.06,18.78 3.04,18.53 3.02,18.28 3.05,18.03 3.09,17.78 3.18,17.55 3.28,17.32 3.42,17.12 3.57,16.92 3.76,16.76 3.95,16.60 4.17,16.49 4.40,16.37 4.64,16.32 4.89,16.27 6.39,15.99 7.90,15.71 8.97,15.65 10.03,15.59 9.94,15.59 9.85,15.59 10.16,15.62 10.46,15.65 10.74,15.75 11.03,15.85 11.28,16.02 11.53,16.18 11.74,16.40 11.95,16.62 12.09,16.89 12.24,17.15 12.32,17.44 12.40,17.73 12.41,18.03 12.42,18.34 12.35,18.63 12.29,18.93 12.15,19.20 12.02,19.47 11.83,19.70 11.63,19.93 11.39,20.11 11.14,20.29 10.86,20.40 10.58,20.52 10.29,20.56 9.99,20.61 9.14,21.50 8.29,22.39 7.22,23.05 6.15,23.70 5.01,24.36 3.87,25.02 2.88,25.57 1.89,26.11 0.72,26.62 -0.43,27.13 -0.53,27.19 -0.64,27.24 -0.97,27.30 -1.31,27.36 -1.65,27.34 -2.00,27.32 -2.32,27.22 -2.65,27.11 -2.94,26.93 -3.23,26.76 -3.48,26.51 -3.72,26.27 -3.89,25.97 -4.07,25.68 -4.17,25.35 -4.27,25.02 -4.29,24.68 -4.31,24.34 -4.24,24.00 -4.18,23.67 -4.04,23.35 -3.90,23.04 -3.68,22.77 -3.47,22.50 -3.20,22.29 -2.93,22.08 -2.62,21.94 -2.30,21.81 -0.95,21.71 0.40,21.62 2.73,21.39 5.06,21.17 7.51,20.68 9.96,20.19 11.75,19.75 13.54,19.31 14.07,19.08 14.60,18.85 14.87,18.81 15.13,18.77 15.40,18.80 15.66,18.82 15.91,18.91 16.17,19.00 16.39,19.14 16.61,19.29 16.79,19.48 16.98,19.68 17.11,19.91 17.24,20.15 17.31,20.40 17.38,20.66 17.39,20.93 17.39,21.20 17.33,21.46 17.28,21.72 17.16,21.96 17.04,22.20 16.87,22.40 16.70,22.60 16.48,22.76 16.27,22.92 16.02,23.02 15.77,23.12 13.96,23.91 12.15,24.71 10.69,25.28 9.24,25.85 7.46,26.53 5.68,27.21 4.46,28.07 3.23,28.93 2.97,29.04 2.70,29.14 2.42,29.18 2.14,29.22 1.85,29.20 1.57,29.17 1.30,29.07 1.03,28.98 0.79,28.82 0.56,28.66 0.36,28.45 0.17,28.25 0.03,28.00 -0.10,27.75 -0.17,27.47 -0.25,27.20 -0.25,26.91 -0.26,26.63 -0.20,26.35 -0.13,26.07 -0.01,25.81 0.11,25.56 0.29,25.34 0.48,25.12 0.71,24.96 0.94,24.79 2.31,25.01 3.67,25.23 6.30,25.16 8.92,25.08 10.15,25.05 11.38,25.02 12.82,25.10 14.27,25.18 15.70,25.42 17.12,25.67 18.43,28.27 19.74,30.86 17.99,31.85 16.24,32.83 14.93,33.27 13.62,33.72 12.88,34.18 12.14,34.64 11.81,34.74 11.48,34.84 11.14,34.86 10.80,34.87 10.47,34.81 10.14,34.75 9.83,34.60 9.52,34.46 9.25,34.25 8.99,34.04 8.78,33.77 8.57,33.50 8.43,33.19 8.30,32.87 8.24,32.54 8.18,32.20 8.20,31.86 8.23,31.52 8.33,31.20 8.44,30.88 8.61,30.59 8.79,30.30 9.04,30.06 9.28,29.82 9.57,29.65 9.86,29.47 11.12,29.54 12.37,29.60 13.91,29.32 15.46,29.04 17.49,29.10 19.53,29.15 19.00,29.01 18.48,28.87 18.85,28.88 19.22,28.89 19.58,28.98 19.94,29.08 20.26,29.26 20.58,29.44 20.86,29.69 21.13,29.94 21.33,30.25 21.54,30.55 21.66,30.90 21.78,31.25 21.82,31.62 21.86,31.99 21.81,32.35 21.75,32.72 21.62,33.06 21.48,33.41 21.26,33.71 21.05,34.01 20.76,34.25 20.48,34.49 20.15,34.65 19.82,34.82 19.46,34.90 19.10,34.98 18.10,35.66 17.10,36.34 15.75,36.88 14.39,37.42 13.14,38.03 11.89,38.64 11.53,38.75 11.18,38.85 10.82,38.87 10.45,38.89 10.09,38.82 9.73,38.74 9.40,38.59 9.07,38.44 8.78,38.21 8.49,37.98 8.27,37.68 8.05,37.39 7.90,37.06 7.76,36.72 7.69,36.36 7.63,36.00 7.66,35.63 7.69,35.27 7.80,34.92 7.91,34.57 8.11,34.26 8.30,33.95 8.56,33.69 8.83,33.43 9.14,33.25 9.46,33.06 11.42,32.74 13.39,32.41 15.19,32.03 17.00,31.64 19.15,32.38 21.30,33.13 21.50,35.28 21.70,37.43 20.77,35.63 19.84,33.83 18.50,34.19 17.15,34.55 17.62,32.97 18.09,31.38 18.64,30.08 19.19,28.78 19.42,27.05 19.65,25.32 19.54,24.18 19.43,23.04 19.44,22.66 19.45,22.29 19.55,21.92 19.65,21.56 19.83,21.23 20.02,20.90 20.27,20.62 20.53,20.35 20.85,20.14 21.17,19.94 21.52,19.81 21.88,19.69 22.25,19.65 22.63,19.62 23.00,19.67 23.38,19.73 23.73,19.87 24.08,20.02 24.38,20.24 24.69,20.46 24.93,20.75 25.17,21.04 25.34,21.38 25.50,21.72 25.58,22.09 25.66,22.46 26.30,23.61 26.93,24.77 27.68,25.73 28.43,26.69 29.14,28.04 29.85,29.38 30.41,30.74 30.96,32.10 31.40,33.59 31.85,35.07 31.52,36.29 31.19,37.52 28.71,37.91 26.24,38.31 25.53,37.48 24.83,36.66 25.20,34.72 25.57,32.78 26.00,32.24 26.43,31.69 26.73,31.42 27.02,31.14 27.37,30.94 27.73,30.75 28.12,30.64 28.51,30.54 28.91,30.53 29.31,30.52 29.71,30.61 30.10,30.69 30.46,30.87 30.83,31.05 31.13,31.31 31.44,31.57 31.68,31.90 31.92,32.23 32.07,32.60 32.22,32.98 32.28,33.38 32.34,33.78 32.30,34.18 32.26,34.58 32.12,34.96 31.99,35.34 31.77,35.68 31.55,36.02 31.95,34.78 32.36,33.53 32.28,34.80 32.20,36.06 31.46,37.21 30.72,38.36 29.26,38.81 27.79,39.27 25.85,39.10 23.90,38.94 22.00,38.61 20.11,38.28 17.71,38.06 15.32,37.84 13.99,37.76 12.66,37.69 11.39,38.18 10.12,38.68 8.88,39.43 7.63,40.18 8.06,38.86 8.49,37.54 8.70,36.39 8.91,35.23 10.40,34.99 11.89,34.74 13.60,34.41 15.31,34.08 15.85,34.08 16.38,34.08 16.88,34.25 17.39,34.42 17.81,34.74 18.24,35.07 18.54,35.51 18.84,35.95 18.98,36.46 19.12,36.98 19.10,37.51 19.07,38.04 18.87,38.53 18.67,39.03 18.33,39.44 17.98,39.84 17.53,40.12 17.07,40.39 16.55,40.51 16.03,40.62 15.50,40.57 14.97,40.51 14.49,40.29 14.00,40.06 13.62,39.70 13.23,39.33 12.98,38.86 12.73,38.39 12.64,37.86 12.56,37.34 12.64,36.81 12.73,36.29 12.98,35.81 13.23,35.34 13.61,34.98 14.00,34.61 14.48,34.39 14.97,34.16 15.50,34.10 16.03,34.05 16.55,34.16 17.07,34.27 17.52,34.55 17.98,34.82 18.33,35.23 18.67,35.63 18.87,36.13 19.07,36.62 19.10,37.16 19.12,37.69 18.98,38.20 18.84,38.72 18.54,39.16 18.24,39.60 17.82,39.92 17.39,40.24 16.89,40.41 16.38,40.58 16.39,40.58 16.39,40.58 14.64,40.89 12.90,41.20 11.40,41.42 9.90,41.64 8.45,41.79 7.01,41.94 5.61,41.35 4.21,40.76 3.51,39.31 2.81,37.85 3.93,36.20 5.06,34.55 6.06,34.08 7.07,33.61 8.76,32.95 10.46,32.29 11.65,32.19 12.85,32.09 14.34,32.12 15.84,32.14 17.13,32.24 18.43,32.33 19.58,32.42 20.72,32.51 22.40,32.57 24.08,32.62 25.43,32.84 26.78,33.06 26.31,34.08 25.84,35.11 26.14,33.40 26.43,31.69 26.73,31.42 27.02,31.14 27.37,30.94 27.73,30.75 28.12,30.64 28.51,30.54 28.91,30.53 29.31,30.52 29.71,30.61 30.10,30.69 30.46,30.87 30.83,31.05 31.13,31.31 31.44,31.57 31.68,31.90 31.92,32.23 32.07,32.60 32.22,32.98 32.28,33.38 32.34,33.77 32.30,34.18 32.26,34.58 32.12,34.96 31.99,35.34 31.77,35.68 31.55,36.01 31.28,36.28 31.01,36.54 30.67,35.41 30.32,34.28 27.80,34.42 25.28,34.56 24.78,33.51 24.29,32.46 23.75,31.54 23.21,30.62 22.13,29.11 21.06,27.60 20.54,26.61 20.02,25.62 19.72,24.33 19.43,23.04 19.44,22.66 19.45,22.29 19.55,21.92 19.65,21.56 19.83,21.23 20.02,20.90 20.27,20.62 20.53,20.35 20.85,20.14 21.17,19.94 21.52,19.81 21.88,19.69 22.25,19.65 22.63,19.62 23.00,19.67 23.38,19.73 23.73,19.87 24.08,20.02 24.38,20.24 24.69,20.46 24.93,20.75 25.17,21.04 25.34,21.38 25.50,21.72 25.58,22.09 25.66,22.46 25.67,22.61 25.68,22.77 25.69,24.33 25.70,25.89 25.58,27.02 25.46,28.16 25.19,29.50 24.92,30.84 24.44,32.38 23.96,33.92 23.44,35.10 22.92,36.27 21.63,37.58 20.33,38.88 18.89,39.20 17.45,39.52 17.06,37.60 16.68,35.69 17.33,36.59 17.98,37.50 16.26,37.80 14.54,38.10 13.21,38.37 11.89,38.64 11.53,38.75 11.18,38.85 10.82,38.87 10.45,38.89 10.09,38.82 9.73,38.74 9.40,38.59 9.07,38.44 8.78,38.21 8.49,37.98 8.27,37.68 8.05,37.39 7.90,37.06 7.76,36.72 7.69,36.36 7.63,36.00 7.66,35.63 7.69,35.27 7.80,34.92 7.91,34.57 8.11,34.26 8.30,33.95 8.56,33.69 8.83,33.43 9.14,33.25 9.46,33.06 10.73,32.53 12.00,31.99 14.00,31.06 15.99,30.14 17.24,29.51 18.48,28.87 18.85,28.88 19.22,28.89 19.58,28.98 19.93,29.08 20.26,29.26 20.58,29.44 20.86,29.69 21.13,29.94 21.33,30.25 21.54,30.55 21.66,30.90 21.78,31.25 21.82,31.62 21.86,31.99 21.81,32.35 21.75,32.72 21.62,33.06 21.48,33.41 21.26,33.71 21.05,34.01 20.76,34.25 20.48,34.49 20.15,34.65 19.82,34.82 19.46,34.90 19.10,34.98 17.80,34.92 16.51,34.85 14.32,34.75 12.14,34.64 11.81,34.74 11.48,34.84 11.14,34.86 10.81,34.87 10.47,34.81 10.14,34.75 9.83,34.60 9.52,34.46 9.25,34.25 8.99,34.04 8.78,33.77 8.57,33.50 8.43,33.19 8.30,32.87 8.24,32.54 8.18,32.20 8.20,31.86 8.23,31.53 8.33,31.20 8.44,30.88 8.61,30.59 8.79,30.30 9.04,30.06 9.28,29.82 9.57,29.65 9.86,29.47 10.85,29.05 11.83,28.63 13.11,28.16 14.40,27.70 15.42,27.38 16.44,27.06 16.30,28.77 16.16,30.47 15.06,30.22 13.95,29.96 12.64,29.86 11.33,29.75 10.08,29.70 8.84,29.65 7.20,29.63 5.56,29.62 4.40,29.27 3.23,28.93 2.97,29.04 2.70,29.14 2.42,29.18 2.14,29.22 1.85,29.20 1.57,29.17 1.30,29.07 1.03,28.98 0.79,28.82 0.56,28.66 0.36,28.46 0.17,28.25 0.03,28.00 -0.10,27.75 -0.17,27.47 -0.25,27.20 -0.25,26.91 -0.26,26.63 -0.20,26.35 -0.13,26.07 -0.01,25.81 0.11,25.56 0.29,25.34 0.48,25.12 0.71,24.96 0.94,24.79 1.38,24.57 1.81,24.34 2.91,23.82 4.00,23.29 5.78,22.45 7.55,21.61 9.04,21.01 10.53,20.41 12.57,19.63 14.60,18.85 14.87,18.81 15.13,18.77 15.40,18.80 15.66,18.82 15.91,18.91 16.17,19.00 16.39,19.14 16.61,19.29 16.79,19.48 16.98,19.68 17.11,19.91 17.24,20.15 17.31,20.40 17.38,20.66 17.39,20.93 17.39,21.19 17.33,21.46 17.28,21.72 17.16,21.96 17.04,22.20 16.87,22.40 16.70,22.60 16.48,22.76 16.27,22.92 16.02,23.02 15.77,23.12 15.21,23.22 14.64,23.32 12.85,23.86 11.05,24.40 8.48,25.22 5.91,26.04 2.63,26.64 -0.64,27.24 -0.97,27.30 -1.31,27.36 -1.65,27.34 -1.99,27.32 -2.32,27.22 -2.65,27.11 -2.94,26.93 -3.23,26.76 -3.48,26.51 -3.72,26.27 -3.89,25.97 -4.07,25.68 -4.17,25.35 -4.27,25.02 -4.29,24.68 -4.31,24.34 -4.24,24.00 -4.18,23.67 -4.04,23.35 -3.90,23.04 -3.68,22.77 -3.47,22.50 -3.20,22.29 -2.93,22.08 -2.62,21.95 -2.30,21.81 -1.95,21.73 -1.61,21.66 -0.18,21.06 1.24,20.46 2.36,19.82 3.47,19.19 5.42,18.05 7.37,16.92 8.61,16.26 9.85,15.59 10.16,15.62 10.46,15.65 10.74,15.75 11.03,15.85 11.28,16.02 11.53,16.18 11.74,16.40 11.95,16.62 12.09,16.89 12.24,17.15 12.32,17.44 12.40,17.73 12.41,18.03 12.42,18.34 12.35,18.63 12.29,18.93 12.15,19.20 12.02,19.47 11.83,19.70 11.63,19.93 11.39,20.11 11.14,20.29 10.86,20.40 10.58,20.52 10.29,20.56 9.99,20.61 9.09,20.44 8.19,20.28 6.74,20.34 5.29,20.39 5.04,20.38 4.79,20.38 4.55,20.31 4.31,20.25 4.09,20.13 3.87,20.00 3.69,19.83 3.50,19.66 3.37,19.46 3.23,19.25 3.15,19.01 3.06,18.78 3.04,18.53 3.02,18.28 3.05,18.03 3.09,17.78 3.18,17.55 3.28,17.32 3.42,17.12 3.57,16.92 3.76,16.76 3.95,16.60 4.17,16.49 4.40,16.37 4.64,16.32 4.89,16.27 5.78,16.30 6.68,16.33 8.10,16.26 9.52,16.19 11.87,15.77 14.23,15.36 16.53,14.84 18.82,14.32 20.76,13.83 22.69,13.34 24.78,12.66 26.87,11.98 27.13,11.98 27.39,11.99 27.64,12.06 27.89,12.13 28.12,12.26 28.35,12.38 28.54,12.56 28.73,12.74 28.87,12.96 29.01,13.18 29.10,13.42 29.18,13.67 29.21,13.93 29.23,14.19 29.20,14.45 29.16,14.71 29.06,14.95 28.96,15.19 28.81,15.40 28.65,15.61 28.45,15.78 28.25,15.95 28.02,16.06 27.78,16.18 27.53,16.23 27.27,16.29 25.71,16.28 24.14,16.26 22.22,16.54 20.29,16.81 17.96,17.26 15.64,17.71 13.49,18.28 11.35,18.86 9.63,19.21 7.91,19.57 7.59,19.58 7.27,19.58 6.96,19.51 6.65,19.44 6.37,19.30 6.08,19.16 5.84,18.95 5.60,18.75 5.42,18.49 5.23,18.23 5.11,17.94 4.99,17.64 4.95,17.33 4.91,17.01 4.94,16.70 4.97,16.38 5.08,16.08 5.18,15.78 5.36,15.52 5.54,15.25 5.77,15.04 6.00,14.82 6.28,14.67 6.56,14.52 6.87,14.43 7.18,14.35 8.08,14.25 8.98,14.15 10.61,13.82 12.25,13.49 14.04,12.92 15.83,12.35 17.17,12.06 18.50,11.78 19.84,10.91 21.17,10.04 21.54,10.08 21.91,10.11 22.26,10.24 22.61,10.36 22.92,10.57 23.24,10.77 23.49,11.04 23.74,11.32 23.92,11.64 24.10,11.97 24.20,12.33 24.29,12.69 24.30,13.06 24.31,13.43 24.23,13.79 24.15,14.16 23.98,14.49 23.81,14.82 23.57,15.11 23.33,15.39 23.03,15.61 22.73,15.83 22.39,15.97 22.04,16.10 21.67,16.16 21.30,16.21 20.08,16.14 18.86,16.07 17.75,16.11 16.64,16.16 14.64,15.87 12.65,15.59 11.89,13.35 11.14,11.10 12.29,9.79 13.43,8.47 14.23,7.74 15.02,7.01 16.12,7.31 17.22,7.60 16.93,7.64 16.64,7.68 16.34,7.65 16.05,7.61 15.77,7.51 15.49,7.41 15.25,7.24 15.00,7.08 14.80,6.86 14.60,6.64 14.46,6.37 14.32,6.11 14.25,5.83 14.18,5.54 14.17,5.24 14.17,4.95 14.24,4.66 14.31,4.37 14.44,4.11 14.58,3.84 14.77,3.62 14.97,3.40 15.21,3.23 15.45,3.05 15.73,2.95 16.00,2.84 16.83,2.66 17.66,2.49 18.95,2.22 20.23,1.95 21.89,1.51 23.56,1.06 25.88,0.66 28.19,0.26 29.05,-0.52 29.90,-1.31 30.18,-1.27 30.45,-1.24 30.71,-1.14 30.96,-1.04 31.19,-0.89 31.42,-0.73 31.60,-0.52 31.78,-0.31 31.91,-0.07 32.03,0.16 32.10,0.43 32.16,0.70 32.16,0.98 32.16,1.25 32.09,1.52 32.03,1.78 31.90,2.03 31.77,2.27 31.59,2.48 31.40,2.68 31.18,2.84 30.95,2.99 30.69,3.09 30.43,3.19 30.16,3.22 29.88,3.25 29.36,3.15 28.84,3.04 27.61,2.98 26.38,2.91 24.18,3.03 21.98,3.14 19.19,3.29 16.41,3.43 14.13,3.57 11.86,3.71 9.92,3.51 7.98,3.31 7.59,3.29 7.20,3.26 6.82,3.15 6.45,3.03 6.11,2.83 5.77,2.63 5.49,2.35 5.22,2.07 5.01,1.74 4.81,1.40 4.69,1.03 4.57,0.65 4.55,0.26 4.52,-0.12 4.59,-0.51 4.66,-0.89 4.82,-1.25 4.98,-1.61 5.22,-1.92 5.47,-2.23 5.77,-2.47 6.08,-2.72 6.44,-2.88 6.80,-3.04 7.18,-3.11 7.57,-3.19 8.38,-3.25 9.18,-3.32 11.45,-3.29 13.72,-3.27 15.49,-2.80 17.27,-2.34 18.11,-1.20 18.94,-0.06 19.18,0.97 19.42,2.01 19.22,3.31 19.02,4.61 18.84,6.51 18.65,8.42 18.11,9.45 17.57,10.47 16.38,11.20 15.20,11.92 13.96,12.13 12.72,12.34 10.72,12.65 8.72,12.95 7.27,12.82 5.81,12.69 7.36,12.30 8.91,11.91 8.59,12.15 8.28,12.38 7.92,12.53 7.55,12.68 7.16,12.74 6.78,12.80 6.38,12.76 5.99,12.72 5.62,12.60 5.25,12.47 4.92,12.25 4.59,12.04 4.32,11.75 4.05,11.47 3.86,11.13 3.67,10.78 3.56,10.40 3.46,10.03 3.45,9.63 3.44,9.24 3.52,8.86 3.60,8.47 3.77,8.12 3.95,7.77 4.20,7.47 4.45,7.16 5.41,6.43 6.37,5.70 8.05,4.49 9.73,3.28 10.11,3.33 10.48,3.38 10.84,3.51 11.20,3.65 11.51,3.87 11.82,4.09 12.07,4.38 12.33,4.67 12.50,5.01 12.68,5.35 12.76,5.72 12.85,6.09 12.85,6.47 12.85,6.85 12.75,7.23 12.66,7.60 12.48,7.93 12.30,8.27 12.04,8.55 11.79,8.84 11.47,9.05 11.16,9.27 10.80,9.40 10.44,9.53 10.06,9.58 9.68,9.62 8.84,9.54 8.00,9.45 6.91,9.45 5.82,9.45 4.16,9.51 2.49,9.56 1.45,9.11 0.40,8.65 0.03,6.30 -0.34,3.94 0.52,5.26 1.39,6.58 0.27,6.50 -0.85,6.41 -2.55,5.54 -4.25,4.67 -4.46,3.55 -4.67,2.43 -3.96,1.08 -3.26,-0.25 -2.63,-0.95 -2.01,-1.65 -1.78,-1.87 -1.55,-2.08 -1.28,-2.24 -1.01,-2.40 -0.70,-2.48 -0.40,-2.57 -0.09,-2.58 0.22,-2.59 0.52,-2.53 0.83,-2.46 1.11,-2.33 1.40,-2.19 1.64,-1.99 1.88,-1.79 2.07,-1.54 2.26,-1.29 2.38,-1.00 2.50,-0.71 2.55,-0.40 2.60,-0.09 2.57,0.21 2.55,0.53 2.45,0.82 2.34,1.12 2.18,1.39 2.01,1.65 2.01,1.65 L 2.01,1.65 Z"></path></g><g transform="translate(319.4717574879269 507.0777332015259) rotate(0 80.5 22.5)"><text x="0" y="32" font-family="Virgil, Segoe UI Emoji" font-size="36px" fill="#000000" text-anchor="start" style="white-space: pre;" direction="ltr">2 pounds</text></g><g transform="translate(515.0929288904163 504.7456432466565) rotate(0 109 22.5)"><text x="0" y="32" font-family="Virgil, Segoe UI Emoji" font-size="36px" fill="#000000" text-anchor="start" style="white-space: pre;" direction="ltr">2+10 pounds</text></g><g transform="translate(595.7262761478605 79.28587797101727) rotate(0 18.835906161630646 -30.52706229829721)" stroke="none"><path fill="#000000" d="M -1.85,0.37 Q -1.85,0.37 -2.20,-1.50 -2.55,-3.37 -2.66,-5.78 -2.76,-8.18 -3.20,-9.74 -3.64,-11.31 -4.15,-14.35 -4.67,-17.38 -4.88,-20.61 -5.08,-23.83 -5.15,-26.69 -5.22,-29.54 -5.24,-31.88 -5.27,-34.21 -5.39,-35.57 -5.52,-36.93 -5.71,-39.03 -5.91,-41.13 -6.55,-43.08 -7.20,-45.04 -7.33,-46.29 -7.46,-47.55 -7.61,-49.19 -7.76,-50.82 -7.79,-51.90 -7.83,-52.97 -7.89,-54.44 -7.94,-55.91 -9.29,-55.73 -10.64,-55.54 -12.43,-55.70 -14.22,-55.85 -18.33,-56.03 -22.45,-56.21 -26.08,-56.34 -29.71,-56.46 -32.74,-56.56 -35.78,-56.65 -37.44,-56.62 -39.11,-56.58 -39.33,-56.61 -39.55,-56.64 -39.76,-56.72 -39.97,-56.80 -40.16,-56.93 -40.34,-57.05 -40.49,-57.22 -40.64,-57.39 -40.74,-57.59 -40.85,-57.79 -40.90,-58.01 -40.95,-58.23 -40.95,-58.45 -40.95,-58.68 -40.90,-58.89 -40.85,-59.11 -40.74,-59.31 -40.64,-59.51 -40.49,-59.68 -40.34,-59.85 -40.15,-59.97 -39.97,-60.10 -39.76,-60.18 -39.55,-60.26 -39.32,-60.29 -39.10,-60.31 -37.02,-60.36 -34.94,-60.41 -31.98,-60.33 -29.03,-60.24 -25.72,-59.41 -22.41,-58.57 -19.16,-57.44 -15.91,-56.32 -13.55,-55.86 -11.18,-55.40 -8.18,-54.41 -5.17,-53.42 -3.26,-53.05 -1.35,-52.68 -0.86,-52.59 -0.37,-52.51 -0.18,-52.45 -0.00,-52.39 0.16,-52.28 0.33,-52.18 0.46,-52.03 0.60,-51.89 0.70,-51.72 0.80,-51.55 0.85,-51.36 0.91,-51.17 0.92,-50.98 0.93,-50.78 0.89,-50.59 0.85,-50.40 0.76,-50.22 0.68,-50.04 0.56,-49.89 0.43,-49.73 0.28,-49.61 0.12,-49.50 -0.05,-49.42 -0.23,-49.34 -0.43,-49.31 -0.62,-49.28 -0.82,-49.29 -1.01,-49.31 -2.13,-49.68 -3.25,-50.05 -3.87,-51.63 -4.48,-53.22 -5.34,-53.98 -6.20,-54.73 -6.47,-55.32 -6.73,-55.92 -6.89,-56.17 -7.05,-56.41 -7.15,-56.69 -7.24,-56.97 -7.27,-57.27 -7.30,-57.56 -7.25,-57.85 -7.21,-58.15 -7.10,-58.42 -6.98,-58.69 -6.81,-58.93 -6.63,-59.17 -6.41,-59.36 -6.18,-59.55 -5.91,-59.67 -5.65,-59.80 -5.36,-59.87 -5.07,-59.93 -4.77,-59.92 -4.48,-59.91 -4.19,-59.83 -3.91,-59.75 -3.65,-59.61 -3.39,-59.46 -3.18,-59.26 -2.96,-59.06 -2.81,-57.56 -2.66,-56.05 -2.82,-53.84 -2.98,-51.63 -3.11,-49.11 -3.24,-46.59 -3.33,-44.03 -3.42,-41.46 -3.48,-38.88 -3.55,-36.29 -3.59,-33.70 -3.64,-31.11 -3.61,-29.26 -3.58,-27.41 -3.50,-26.18 -3.41,-24.96 -4.22,-23.29 -5.02,-21.62 -5.20,-19.95 -5.37,-18.29 -5.43,-16.78 -5.48,-15.27 -5.42,-13.05 -5.35,-10.83 -5.26,-9.21 -5.17,-7.59 -5.14,-6.52 -5.11,-5.46 -5.15,-5.14 -5.19,-4.82 -5.31,-4.52 -5.42,-4.22 -5.61,-3.95 -5.79,-3.69 -6.03,-3.48 -6.27,-3.26 -6.56,-3.11 -6.85,-2.96 -7.16,-2.89 -7.47,-2.81 -7.79,-2.81 -8.12,-2.81 -8.43,-2.89 -8.74,-2.97 -9.03,-3.12 -9.31,-3.27 -9.55,-3.48 -9.79,-3.70 -9.98,-3.96 -10.16,-4.23 -10.27,-4.53 -10.39,-4.83 -10.42,-5.15 -10.46,-5.47 -10.50,-6.64 -10.54,-7.80 -10.35,-10.04 -10.17,-12.27 -10.03,-19.95 -9.89,-27.62 -9.79,-32.38 -9.68,-37.13 -9.23,-42.94 -8.78,-48.76 -8.56,-51.94 -8.35,-55.12 -7.91,-57.02 -7.48,-58.92 -7.36,-59.29 -7.24,-59.67 -7.16,-59.87 -7.08,-60.08 -6.95,-60.26 -6.82,-60.44 -6.66,-60.58 -6.49,-60.73 -6.30,-60.83 -6.10,-60.93 -5.89,-60.98 -5.67,-61.03 -5.45,-61.03 -5.23,-61.03 -5.02,-60.97 -4.81,-60.92 -4.61,-60.81 -4.42,-60.71 -4.26,-60.56 -4.09,-60.41 -3.97,-60.23 -3.85,-60.05 -3.77,-59.84 -3.69,-59.64 -3.67,-59.42 -3.64,-59.20 -3.67,-58.98 -3.70,-58.76 -3.60,-55.76 -3.51,-52.75 -3.55,-49.16 -3.59,-45.57 -3.63,-42.18 -3.66,-38.78 -3.69,-34.73 -3.72,-30.67 -3.74,-27.83 -3.76,-24.98 -3.67,-23.40 -3.59,-21.82 -3.40,-19.58 -3.21,-17.34 -3.14,-16.09 -3.08,-14.84 -3.09,-13.49 -3.09,-12.13 -1.95,-12.65 -0.82,-13.17 1.26,-12.98 3.35,-12.79 6.12,-12.64 8.89,-12.50 10.81,-12.44 12.74,-12.39 15.05,-12.30 17.36,-12.20 19.46,-12.14 21.57,-12.08 23.58,-12.06 25.60,-12.03 26.83,-12.13 28.06,-12.23 30.08,-12.39 32.10,-12.55 34.30,-12.80 36.49,-13.05 38.30,-13.22 40.11,-13.39 41.25,-13.53 42.39,-13.68 43.65,-13.77 44.90,-13.86 45.17,-15.78 45.44,-17.70 45.62,-20.07 45.81,-22.43 45.94,-25.32 46.07,-28.20 46.16,-30.92 46.25,-33.64 46.32,-36.67 46.39,-39.69 46.44,-42.10 46.49,-44.50 46.52,-46.65 46.56,-48.79 46.45,-50.07 46.35,-51.36 46.17,-53.41 45.99,-55.47 45.93,-56.70 45.87,-57.93 45.90,-58.19 45.93,-58.45 46.03,-58.70 46.12,-58.95 46.27,-59.17 46.42,-59.38 46.62,-59.56 46.82,-59.73 47.05,-59.85 47.28,-59.98 47.54,-60.04 47.80,-60.10 48.06,-60.10 48.32,-60.10 48.58,-60.04 48.84,-59.98 49.07,-59.85 49.30,-59.73 49.50,-59.56 49.70,-59.38 49.85,-59.17 50.00,-58.95 50.09,-58.70 50.18,-58.45 50.22,-58.19 50.25,-57.93 50.17,-55.17 50.10,-52.41 50.03,-50.41 49.97,-48.40 49.11,-45.46 48.25,-42.52 47.90,-40.01 47.55,-37.49 47.38,-35.29 47.20,-33.10 46.73,-30.57 46.26,-28.04 46.13,-26.30 46.00,-24.56 46.01,-23.09 46.01,-21.62 46.00,-19.88 45.99,-18.14 45.63,-16.43 45.27,-14.72 45.16,-12.59 45.06,-10.46 44.45,-9.37 43.84,-8.28 42.88,-7.71 41.93,-7.13 39.69,-7.51 37.46,-7.88 36.67,-9.18 35.87,-10.47 35.41,-14.20 34.96,-17.93 34.84,-20.60 34.72,-23.27 34.71,-25.92 34.70,-28.57 34.66,-30.43 34.62,-32.29 34.51,-33.46 34.41,-34.62 34.33,-35.87 34.26,-37.12 34.12,-38.78 33.98,-40.44 33.94,-41.51 33.89,-42.58 34.32,-44.73 34.74,-46.89 36.31,-48.48 37.87,-50.08 38.04,-51.74 38.21,-53.39 38.37,-54.84 38.53,-56.29 39.58,-58.39 40.62,-60.49 42.16,-60.89 43.69,-61.29 46.46,-61.27 49.23,-61.24 52.63,-61.07 56.04,-60.89 60.09,-60.74 64.15,-60.60 67.74,-60.49 71.33,-60.38 73.60,-60.30 75.88,-60.22 76.09,-60.19 76.30,-60.16 76.50,-60.09 76.70,-60.01 76.87,-59.89 77.05,-59.77 77.19,-59.61 77.33,-59.45 77.43,-59.27 77.53,-59.08 77.58,-58.87 77.63,-58.66 77.63,-58.45 77.63,-58.24 77.58,-58.03 77.53,-57.82 77.43,-57.64 77.33,-57.45 77.19,-57.29 77.05,-57.13 76.87,-57.01 76.70,-56.89 76.50,-56.81 76.30,-56.74 76.09,-56.71 75.88,-56.68 72.29,-56.66 68.71,-56.65 65.76,-56.71 62.81,-56.78 60.44,-56.83 58.06,-56.88 55.93,-56.91 53.80,-56.95 52.15,-56.88 50.50,-56.81 49.43,-56.71 48.35,-56.60 46.79,-56.44 45.24,-56.27 44.98,-56.31 44.71,-56.34 44.47,-56.43 44.22,-56.52 44.01,-56.67 43.79,-56.82 43.62,-57.02 43.44,-57.21 43.32,-57.45 43.20,-57.68 43.14,-57.93 43.07,-58.19 43.07,-58.45 43.07,-58.71 43.14,-58.97 43.20,-59.22 43.32,-59.46 43.44,-59.69 43.62,-59.88 43.79,-60.08 44.01,-60.23 44.22,-60.38 44.47,-60.47 44.71,-60.57 44.98,-60.60 45.24,-60.63 47.37,-60.61 49.50,-60.60 52.07,-60.49 54.65,-60.38 57.61,-60.30 60.57,-60.21 62.20,-60.26 63.83,-60.30 65.35,-60.37 66.87,-60.43 67.19,-60.38 67.51,-60.33 67.79,-60.18 68.07,-60.03 68.29,-59.80 68.51,-59.56 68.65,-59.27 68.78,-58.98 68.82,-58.66 68.85,-58.34 68.78,-58.03 68.72,-57.72 68.55,-57.44 68.38,-57.17 68.14,-56.96 67.90,-56.75 67.60,-56.63 67.30,-56.52 66.98,-56.50 66.66,-56.48 66.35,-56.57 66.04,-56.65 65.78,-56.83 65.51,-57.01 65.32,-57.27 65.12,-57.52 65.02,-57.83 64.92,-58.13 64.92,-58.45 64.92,-58.77 65.02,-59.08 65.12,-59.38 65.32,-59.64 65.51,-59.89 65.78,-60.07 66.04,-60.25 66.35,-60.34 66.66,-60.42 66.98,-60.40 67.30,-60.39 67.60,-60.27 67.90,-60.15 68.14,-59.94 68.39,-59.73 68.55,-59.46 68.72,-59.18 68.78,-58.87 68.85,-58.56 68.82,-58.24 68.78,-57.92 68.65,-57.63 68.51,-57.34 68.29,-57.11 68.07,-56.87 67.79,-56.72 67.51,-56.57 67.19,-56.52 66.87,-56.47 66.87,-56.47 66.87,-56.47 65.35,-56.54 63.83,-56.60 62.20,-56.65 60.57,-56.69 57.61,-56.61 54.65,-56.52 52.07,-56.41 49.50,-56.30 47.37,-56.29 45.24,-56.27 44.98,-56.31 44.71,-56.34 44.47,-56.43 44.22,-56.52 44.01,-56.67 43.79,-56.82 43.62,-57.02 43.44,-57.21 43.32,-57.45 43.20,-57.68 43.14,-57.93 43.07,-58.19 43.07,-58.45 43.07,-58.71 43.14,-58.97 43.20,-59.22 43.32,-59.46 43.44,-59.69 43.62,-59.88 43.79,-60.08 44.01,-60.23 44.22,-60.38 44.47,-60.47 44.71,-60.57 44.98,-60.60 45.24,-60.63 46.79,-60.46 48.35,-60.30 49.43,-60.20 50.50,-60.09 52.15,-60.02 53.80,-59.95 55.93,-59.99 58.06,-60.03 60.44,-60.08 62.81,-60.12 65.76,-60.19 68.71,-60.26 72.29,-60.24 75.87,-60.22 76.09,-60.19 76.30,-60.16 76.50,-60.09 76.70,-60.01 76.87,-59.89 77.05,-59.77 77.19,-59.61 77.33,-59.45 77.43,-59.27 77.53,-59.08 77.58,-58.87 77.63,-58.66 77.63,-58.45 77.63,-58.24 77.58,-58.03 77.53,-57.82 77.43,-57.64 77.33,-57.45 77.19,-57.29 77.05,-57.13 76.87,-57.01 76.70,-56.89 76.50,-56.81 76.30,-56.74 76.09,-56.71 75.88,-56.68 73.60,-56.60 71.33,-56.52 67.74,-56.40 64.15,-56.29 60.10,-56.14 56.05,-55.99 52.68,-55.79 49.31,-55.59 47.58,-55.44 45.85,-55.29 44.97,-55.89 44.09,-56.49 44.11,-55.19 44.12,-53.89 43.88,-52.78 43.63,-51.67 43.26,-50.37 42.89,-49.08 42.51,-48.06 42.13,-47.04 40.72,-46.29 39.30,-45.53 39.07,-44.06 38.84,-42.58 38.80,-41.52 38.76,-40.45 38.63,-38.80 38.50,-37.15 38.44,-35.92 38.38,-34.68 38.31,-33.53 38.24,-32.38 38.29,-30.54 38.33,-28.71 38.52,-26.17 38.71,-23.63 39.06,-21.13 39.41,-18.64 40.14,-14.91 40.87,-11.19 40.97,-12.35 41.07,-13.51 41.34,-14.59 41.61,-15.67 42.02,-16.95 42.43,-18.23 42.49,-20.01 42.54,-21.80 42.70,-23.34 42.86,-24.88 43.10,-26.72 43.34,-28.55 43.73,-30.92 44.12,-33.29 44.21,-35.58 44.31,-37.88 44.59,-40.66 44.88,-43.44 45.51,-45.94 46.15,-48.43 46.08,-50.42 46.02,-52.41 45.95,-55.17 45.87,-57.93 45.90,-58.19 45.93,-58.45 46.03,-58.70 46.12,-58.95 46.27,-59.17 46.42,-59.38 46.62,-59.56 46.82,-59.73 47.05,-59.85 47.28,-59.98 47.54,-60.04 47.80,-60.10 48.06,-60.10 48.32,-60.10 48.58,-60.04 48.83,-59.98 49.07,-59.85 49.30,-59.73 49.50,-59.56 49.70,-59.38 49.85,-59.17 50.00,-58.95 50.09,-58.70 50.18,-58.45 50.22,-58.19 50.25,-57.93 50.19,-56.70 50.13,-55.47 49.95,-53.41 49.77,-51.36 49.67,-50.07 49.56,-48.79 49.59,-46.64 49.63,-44.50 49.67,-42.10 49.72,-39.69 49.78,-36.66 49.85,-33.64 49.93,-30.91 50.01,-28.18 50.12,-25.28 50.23,-22.38 50.35,-19.91 50.48,-17.44 50.38,-16.06 50.29,-14.68 49.83,-12.84 49.38,-10.99 48.30,-10.26 47.23,-9.52 46.12,-9.48 45.01,-9.43 43.82,-9.46 42.64,-9.49 41.55,-9.51 40.46,-9.52 38.78,-9.37 37.10,-9.22 34.60,-8.73 32.11,-8.23 30.08,-8.39 28.06,-8.55 26.83,-8.65 25.60,-8.74 23.58,-8.72 21.57,-8.70 19.46,-8.64 17.36,-8.57 15.05,-8.48 12.73,-8.39 10.81,-8.34 8.88,-8.29 6.10,-8.15 3.32,-8.02 0.44,-7.92 -2.44,-7.82 -4.20,-8.38 -5.96,-8.93 -6.62,-9.91 -7.29,-10.88 -7.30,-12.86 -7.31,-14.84 -7.24,-16.09 -7.18,-17.34 -6.99,-19.58 -6.80,-21.82 -6.71,-23.40 -6.62,-24.98 -6.65,-27.83 -6.67,-30.67 -6.70,-34.72 -6.74,-38.78 -6.79,-42.17 -6.83,-45.55 -6.91,-49.13 -6.98,-52.70 -7.09,-54.91 -7.19,-57.13 -7.22,-58.40 -7.24,-59.67 -7.16,-59.87 -7.08,-60.08 -6.95,-60.26 -6.82,-60.44 -6.66,-60.58 -6.49,-60.73 -6.30,-60.83 -6.10,-60.93 -5.89,-60.98 -5.67,-61.03 -5.45,-61.03 -5.23,-61.03 -5.02,-60.97 -4.81,-60.92 -4.61,-60.81 -4.42,-60.71 -4.26,-60.56 -4.09,-60.41 -3.97,-60.23 -3.85,-60.05 -3.77,-59.84 -3.69,-59.64 -3.67,-59.42 -3.64,-59.20 -3.67,-58.98 -3.70,-58.76 -3.95,-58.41 -4.21,-58.06 -4.66,-56.50 -5.10,-54.94 -5.21,-51.74 -5.31,-48.53 -5.60,-42.83 -5.89,-37.13 -5.79,-32.38 -5.68,-27.62 -5.54,-19.95 -5.40,-12.27 -5.22,-10.04 -5.04,-7.80 -5.08,-6.63 -5.11,-5.46 -5.15,-5.14 -5.19,-4.82 -5.31,-4.52 -5.42,-4.22 -5.61,-3.95 -5.79,-3.69 -6.03,-3.48 -6.27,-3.26 -6.56,-3.11 -6.85,-2.96 -7.16,-2.89 -7.47,-2.81 -7.79,-2.81 -8.12,-2.81 -8.43,-2.89 -8.74,-2.97 -9.03,-3.12 -9.31,-3.27 -9.55,-3.48 -9.79,-3.70 -9.98,-3.96 -10.16,-4.23 -10.27,-4.53 -10.39,-4.83 -10.42,-5.15 -10.46,-5.47 -10.43,-6.54 -10.40,-7.60 -10.30,-9.24 -10.19,-10.88 -10.14,-12.09 -10.10,-13.30 -10.01,-14.36 -9.93,-15.43 -9.87,-17.12 -9.81,-18.82 -9.56,-20.16 -9.31,-21.50 -8.83,-22.55 -8.35,-23.61 -7.66,-24.42 -6.97,-25.23 -6.89,-26.32 -6.80,-27.41 -6.77,-29.26 -6.74,-31.11 -6.78,-33.70 -6.83,-36.30 -6.88,-38.88 -6.94,-41.47 -7.01,-44.04 -7.09,-46.62 -7.18,-49.16 -7.27,-51.70 -7.00,-53.81 -6.73,-55.92 -6.89,-56.17 -7.05,-56.41 -7.15,-56.69 -7.24,-56.97 -7.27,-57.27 -7.30,-57.56 -7.25,-57.85 -7.21,-58.14 -7.10,-58.42 -6.98,-58.69 -6.81,-58.93 -6.63,-59.17 -6.41,-59.36 -6.18,-59.54 -5.91,-59.67 -5.65,-59.80 -5.36,-59.87 -5.07,-59.93 -4.77,-59.92 -4.48,-59.91 -4.19,-59.83 -3.91,-59.75 -3.65,-59.61 -3.40,-59.46 -3.18,-59.26 -2.96,-59.06 -2.19,-57.54 -1.41,-56.02 -0.89,-54.27 -0.37,-52.51 -0.18,-52.45 -0.00,-52.39 0.16,-52.28 0.33,-52.18 0.46,-52.03 0.60,-51.89 0.70,-51.72 0.80,-51.55 0.85,-51.36 0.91,-51.17 0.92,-50.98 0.93,-50.78 0.89,-50.59 0.85,-50.40 0.76,-50.22 0.68,-50.04 0.56,-49.89 0.43,-49.73 0.28,-49.61 0.12,-49.50 -0.05,-49.42 -0.23,-49.34 -0.43,-49.31 -0.62,-49.28 -0.82,-49.29 -1.01,-49.31 -1.47,-49.56 -1.92,-49.82 -3.99,-50.24 -6.05,-50.67 -8.89,-51.56 -11.72,-52.45 -14.31,-52.90 -16.90,-53.34 -20.04,-54.34 -23.18,-55.34 -26.12,-56.00 -29.05,-56.66 -31.99,-56.57 -34.94,-56.49 -37.02,-56.54 -39.11,-56.58 -39.33,-56.61 -39.55,-56.64 -39.76,-56.72 -39.97,-56.80 -40.16,-56.93 -40.34,-57.05 -40.49,-57.22 -40.64,-57.39 -40.74,-57.59 -40.85,-57.79 -40.90,-58.01 -40.95,-58.23 -40.95,-58.45 -40.95,-58.68 -40.90,-58.89 -40.85,-59.11 -40.74,-59.31 -40.64,-59.51 -40.49,-59.68 -40.34,-59.85 -40.15,-59.97 -39.97,-60.10 -39.76,-60.18 -39.55,-60.26 -39.32,-60.29 -39.10,-60.31 -37.44,-60.28 -35.77,-60.24 -32.74,-60.33 -29.70,-60.41 -26.06,-60.52 -22.43,-60.63 -18.25,-60.76 -14.07,-60.89 -12.16,-60.94 -10.25,-60.99 -7.98,-60.81 -5.71,-60.62 -4.66,-59.81 -3.61,-59.00 -3.04,-56.82 -2.46,-54.64 -2.53,-52.78 -2.59,-50.91 -2.65,-49.37 -2.72,-47.83 -2.65,-46.04 -2.59,-44.25 -2.23,-42.72 -1.87,-41.19 -2.04,-39.08 -2.21,-36.98 -2.30,-35.62 -2.39,-34.26 -2.33,-31.96 -2.26,-29.65 -2.13,-26.86 -2.00,-24.06 -1.73,-21.03 -1.46,-17.99 -0.85,-15.08 -0.24,-12.18 0.19,-10.30 0.63,-8.43 0.84,-6.26 1.06,-4.09 1.46,-2.23 1.85,-0.37 1.87,-0.14 1.89,0.08 1.85,0.30 1.81,0.53 1.72,0.74 1.63,0.95 1.49,1.13 1.36,1.31 1.18,1.46 1.00,1.60 0.79,1.70 0.59,1.79 0.36,1.84 0.14,1.88 -0.08,1.87 -0.31,1.86 -0.53,1.80 -0.74,1.73 -0.94,1.62 -1.14,1.50 -1.30,1.35 -1.47,1.19 -1.59,0.99 -1.71,0.80 -1.78,0.58 -1.85,0.37 -1.85,0.37 L -1.85,0.37 Z"></path></g><g transform="translate(624.5523637108154 55.20490005713691) rotate(0 -12.374558095655175 -6.468503906715114)" stroke="none"><path fill="#c92a2a" d="M 2.23,0.18 Q 2.23,0.18 2.20,1.20 2.16,2.22 1.62,3.32 1.08,4.42 -1.00,5.34 -3.09,6.26 -4.24,6.68 -5.38,7.10 -8.03,7.41 -10.67,7.71 -12.69,7.96 -14.71,8.21 -16.53,8.36 -18.35,8.51 -20.32,8.52 -22.28,8.53 -23.41,6.99 -24.55,5.44 -24.06,4.07 -23.57,2.69 -22.40,1.58 -21.22,0.47 -20.31,-0.13 -19.39,-0.74 -18.07,-1.39 -16.74,-2.04 -15.06,-2.46 -13.37,-2.88 -11.46,-3.19 -9.54,-3.50 -9.26,-0.96 -8.97,1.56 -10.28,1.05 -11.59,0.53 -13.30,-0.02 -15.02,-0.58 -16.85,-1.33 -18.68,-2.07 -19.83,-3.13 -20.98,-4.18 -20.50,-6.51 -20.03,-8.85 -19.07,-9.45 -18.12,-10.05 -16.52,-10.16 -14.93,-10.26 -13.86,-10.18 -12.79,-10.09 -11.63,-9.71 -10.48,-9.33 -8.87,-8.01 -7.27,-6.70 -6.28,-5.79 -5.30,-4.89 -4.31,-3.18 -3.33,-1.47 -4.02,0.05 -4.71,1.59 -6.45,2.30 -8.18,3.02 -9.94,3.17 -11.70,3.33 -13.34,3.40 -14.99,3.47 -16.73,3.37 -18.48,3.28 -20.33,2.82 -22.17,2.37 -23.81,0.93 -25.44,-0.49 -26.15,-1.88 -26.86,-3.26 -26.66,-4.65 -26.46,-6.05 -25.48,-7.12 -24.50,-8.20 -23.51,-8.91 -22.51,-9.62 -20.98,-10.23 -19.45,-10.85 -17.62,-11.38 -15.79,-11.91 -13.85,-12.28 -11.91,-12.66 -10.47,-12.88 -9.03,-13.10 -7.81,-13.15 -6.58,-13.20 -4.55,-12.51 -2.52,-11.81 -1.56,-10.50 -0.60,-9.18 -0.65,-7.93 -0.70,-6.69 -1.86,-5.23 -3.02,-3.77 -4.04,-3.05 -5.07,-2.33 -6.52,-1.88 -7.97,-1.44 -9.52,-1.39 -11.07,-1.34 -13.58,-2.04 -16.08,-2.74 -17.63,-3.24 -19.19,-3.73 -20.50,-4.57 -21.80,-5.41 -22.89,-6.89 -23.97,-8.36 -24.71,-9.93 -25.45,-11.49 -25.95,-12.62 -26.45,-13.75 -26.85,-14.94 -27.26,-16.13 -26.62,-17.88 -25.98,-19.62 -24.59,-20.52 -23.19,-21.42 -21.80,-21.76 -20.41,-22.10 -19.17,-22.25 -17.93,-22.41 -15.97,-22.35 -14.02,-22.29 -12.66,-22.30 -11.30,-22.32 -10.09,-22.18 -8.89,-22.04 -7.20,-21.02 -5.52,-20.00 -5.11,-18.59 -4.70,-17.18 -4.99,-15.34 -5.29,-13.49 -5.94,-12.65 -6.58,-11.80 -8.29,-10.96 -10.01,-10.12 -11.30,-10.01 -12.59,-9.90 -13.66,-9.87 -14.73,-9.84 -16.02,-9.79 -17.31,-9.74 -17.41,-9.73 -17.52,-9.73 -17.90,-9.77 -18.29,-9.81 -18.65,-9.94 -19.01,-10.07 -19.34,-10.29 -19.66,-10.50 -19.92,-10.79 -20.18,-11.08 -20.36,-11.42 -20.55,-11.76 -20.64,-12.13 -20.74,-12.51 -20.75,-12.89 -20.75,-13.28 -20.66,-13.66 -20.58,-14.03 -20.40,-14.38 -20.23,-14.72 -19.97,-15.02 -19.72,-15.31 -19.41,-15.53 -19.09,-15.76 -18.73,-15.90 -18.37,-16.04 -17.99,-16.09 -17.60,-16.15 -15.69,-15.95 -13.78,-15.75 -11.74,-15.36 -9.71,-14.98 -8.34,-14.48 -6.97,-13.98 -5.85,-14.18 -4.73,-14.39 -3.58,-14.94 -2.42,-15.49 -2.12,-15.93 -1.81,-16.37 -1.38,-16.69 -0.95,-17.01 -0.44,-17.17 0.06,-17.34 0.60,-17.33 1.14,-17.32 1.64,-17.15 2.15,-16.97 2.57,-16.64 3.00,-16.31 3.29,-15.86 3.59,-15.41 3.72,-14.89 3.86,-14.37 3.82,-13.84 3.79,-13.30 3.58,-12.80 3.38,-12.31 3.02,-11.90 2.67,-11.50 2.21,-11.23 1.74,-10.96 1.22,-10.85 0.69,-10.74 0.16,-10.81 -0.36,-10.87 -0.85,-11.10 -1.33,-11.34 -1.72,-11.71 -2.10,-12.08 -2.35,-12.56 -2.59,-13.04 -2.67,-13.57 -2.75,-14.10 -2.66,-14.63 -2.56,-15.16 -2.30,-15.63 -2.05,-16.10 -1.65,-16.46 -1.26,-16.83 -0.77,-17.05 -0.28,-17.27 0.25,-17.32 0.78,-17.37 1.30,-17.24 1.83,-17.12 2.28,-16.84 2.74,-16.56 3.08,-16.14 3.42,-15.73 3.62,-15.23 3.81,-14.73 3.83,-14.19 3.85,-13.65 3.70,-13.14 3.55,-12.62 3.55,-12.62 3.55,-12.62 1.46,-10.92 -0.62,-9.22 -2.05,-8.42 -3.48,-7.62 -5.00,-7.50 -6.52,-7.38 -7.76,-7.72 -8.99,-8.05 -10.06,-8.38 -11.13,-8.71 -12.88,-9.02 -14.64,-9.33 -16.08,-9.53 -17.52,-9.73 -17.90,-9.77 -18.29,-9.81 -18.65,-9.94 -19.01,-10.07 -19.34,-10.29 -19.66,-10.50 -19.92,-10.79 -20.18,-11.08 -20.36,-11.42 -20.55,-11.76 -20.64,-12.13 -20.74,-12.51 -20.75,-12.89 -20.75,-13.28 -20.67,-13.66 -20.58,-14.03 -20.40,-14.38 -20.23,-14.72 -19.97,-15.02 -19.72,-15.31 -19.41,-15.53 -19.09,-15.76 -18.73,-15.90 -18.37,-16.04 -17.99,-16.09 -17.60,-16.15 -17.50,-16.14 -17.40,-16.14 -16.16,-16.13 -14.93,-16.12 -13.08,-16.55 -11.23,-16.98 -12.55,-16.95 -13.87,-16.93 -16.47,-16.68 -19.07,-16.44 -20.40,-16.06 -21.73,-15.69 -21.34,-14.66 -20.95,-13.64 -20.36,-12.42 -19.78,-11.21 -18.71,-9.82 -17.64,-8.44 -16.33,-8.05 -15.03,-7.65 -13.08,-7.40 -11.14,-7.15 -9.67,-7.18 -8.21,-7.20 -7.04,-7.52 -5.88,-7.84 -7.13,-8.07 -8.39,-8.29 -9.60,-8.16 -10.82,-8.02 -12.46,-7.55 -14.11,-7.08 -16.75,-6.02 -19.39,-4.96 -20.87,-4.41 -22.35,-3.85 -21.49,-3.17 -20.64,-2.49 -19.49,-2.27 -18.35,-2.05 -16.86,-2.07 -15.37,-2.09 -13.97,-2.24 -12.56,-2.39 -10.49,-2.45 -8.41,-2.50 -8.85,-1.43 -9.29,-0.37 -10.19,-1.13 -11.09,-1.89 -12.25,-2.75 -13.42,-3.62 -15.05,-4.12 -16.67,-4.62 -16.18,-5.99 -15.68,-7.36 -14.45,-6.80 -13.21,-6.25 -11.34,-5.60 -9.47,-4.95 -7.90,-4.25 -6.33,-3.56 -6.36,-1.16 -6.38,1.24 -7.75,1.61 -9.12,1.99 -10.64,2.09 -12.16,2.19 -13.29,2.44 -14.43,2.70 -16.20,3.59 -17.98,4.48 -19.49,4.36 -21.00,4.23 -19.84,4.39 -18.68,4.56 -17.02,4.42 -15.36,4.29 -13.37,3.87 -11.38,3.45 -9.16,2.94 -6.94,2.43 -5.78,2.08 -4.63,1.72 -3.56,1.69 -2.49,1.65 -2.36,0.73 -2.23,-0.18 -2.18,-0.45 -2.12,-0.71 -2.00,-0.96 -1.89,-1.20 -1.72,-1.41 -1.55,-1.62 -1.33,-1.78 -1.11,-1.94 -0.86,-2.05 -0.61,-2.15 -0.35,-2.19 -0.08,-2.24 0.18,-2.21 0.45,-2.19 0.71,-2.11 0.96,-2.02 1.19,-1.87 1.42,-1.73 1.61,-1.53 1.79,-1.34 1.93,-1.10 2.06,-0.87 2.14,-0.61 2.21,-0.35 2.22,-0.08 2.23,0.18 2.23,0.18 L 2.23,0.18 Z"></path></g><g stroke-linecap="round"><g transform="translate(43.00119064203045 10) rotate(0 0 235.42814172588749)"><path d="M0 0 C0 78.48, 0 392.38, 0 470.86" stroke="#000000" stroke-width="1.5" fill="none" stroke-dasharray="1.5 7"></path></g></g><g transform="translate(10 218.52592249904023) rotate(0 10 22.5)"><text x="0" y="32" font-family="Virgil, Segoe UI Emoji" font-size="36px" fill="#000000" text-anchor="start" style="white-space: pre;" direction="ltr">h</text></g><g transform="translate(697.6026320735582 19.676135787992962) rotate(0 32.5 22.5)"><text x="0" y="32" font-family="Virgil, Segoe UI Emoji" font-size="36px" fill="#000000" text-anchor="start" style="white-space: pre;" direction="ltr">4/5</text></g><g transform="translate(688.9112927978458 420.0512982344583) rotate(0 32 22.5)"><text x="0" y="32" font-family="Virgil, Segoe UI Emoji" font-size="36px" fill="#000000" text-anchor="start" style="white-space: pre;" direction="ltr">5/5</text></g></svg>