<?xml version="1.0" encoding="UTF-8"?>
<svg xmlns="http://www.w3.org/2000/svg" xmlns:xlink="http://www.w3.org/1999/xlink" width="230.38pt" height="162.75pt" viewBox="0 0 230.38 162.75" version="1.2">
<g id="surface1">
<path style="fill-rule:nonzero;fill:rgb(62.889099%,54.881287%,74.609375%);fill-opacity:1;stroke-width:5;stroke-linecap:round;stroke-linejoin:round;stroke:rgb(0%,0%,0%);stroke-opacity:1;stroke-miterlimit:10;" d="M 2247.36 1132.46033 L 1463.263311 1354.697436 L 684.689257 749.400956 " transform="matrix(0.0997316,0,0,-0.0997316,0,162.406926)"/>
<path style="fill-rule:nonzero;fill:rgb(62.889099%,54.881287%,74.609375%);fill-opacity:1;stroke-width:5;stroke-linecap:round;stroke-linejoin:round;stroke:rgb(0%,0%,0%);stroke-opacity:1;stroke-miterlimit:10;" d="M 684.689257 749.400956 L 1411.757884 502.644917 L 2247.36 1132.46033 " transform="matrix(0.0997316,0,0,-0.0997316,0,162.406926)"/>
<path style="fill-rule:nonzero;fill:rgb(75.976562%,50.584412%,54.881287%);fill-opacity:1;stroke-width:5;stroke-linecap:round;stroke-linejoin:round;stroke:rgb(0%,0%,0%);stroke-opacity:1;stroke-miterlimit:10;" d="M 113.037766 647.878471 L 684.689257 749.400956 L 1463.263311 1354.697436 " transform="matrix(0.0997316,0,0,-0.0997316,0,162.406926)"/>
<path style="fill-rule:nonzero;fill:rgb(66.209412%,74.21875%,91.014099%);fill-opacity:1;stroke-width:5;stroke-linecap:round;stroke-linejoin:round;stroke:rgb(0%,0%,0%);stroke-opacity:1;stroke-miterlimit:10;" d="M 1411.757884 502.644917 L 684.689257 749.400956 L 113.037766 647.878471 " transform="matrix(0.0997316,0,0,-0.0997316,0,162.406926)"/>
<path style="fill-rule:nonzero;fill:rgb(75.976562%,50.584412%,54.881287%);fill-opacity:1;stroke-width:5;stroke-linecap:round;stroke-linejoin:round;stroke:rgb(0%,0%,0%);stroke-opacity:1;stroke-miterlimit:10;" d="M 1463.263311 1354.697436 L 894.118549 1263.358534 L 113.037766 647.878471 " transform="matrix(0.0997316,0,0,-0.0997316,0,162.406926)"/>
<path style="fill-rule:nonzero;fill:rgb(62.304688%,54.6875%,74.804688%);fill-opacity:1;stroke-width:5;stroke-linecap:round;stroke-linejoin:round;stroke:rgb(0%,0%,0%);stroke-opacity:1;stroke-miterlimit:10;" d="M 1665.994939 1031.52536 L 894.118549 1263.358534 L 113.037766 647.878471 " transform="matrix(0.0997316,0,0,-0.0997316,0,162.406926)"/>
<path style="fill-rule:nonzero;fill:rgb(66.209412%,74.21875%,91.014099%);fill-opacity:1;stroke-width:5;stroke-linecap:round;stroke-linejoin:round;stroke:rgb(0%,0%,0%);stroke-opacity:1;stroke-miterlimit:10;" d="M 113.037766 647.878471 L 826.789401 390.743012 L 1411.757884 502.644917 " transform="matrix(0.0997316,0,0,-0.0997316,0,162.406926)"/>
<path style="fill-rule:nonzero;fill:rgb(62.304688%,54.6875%,74.804688%);fill-opacity:1;stroke-width:5;stroke-linecap:round;stroke-linejoin:round;stroke:rgb(0%,0%,0%);stroke-opacity:1;stroke-miterlimit:10;" d="M 113.037766 647.878471 L 826.789401 390.743012 L 1665.994939 1031.52536 " transform="matrix(0.0997316,0,0,-0.0997316,0,162.406926)"/>
<path style="fill-rule:nonzero;fill:rgb(64.84375%,75.976562%,93.164062%);fill-opacity:1;stroke-width:5;stroke-linecap:round;stroke-linejoin:round;stroke:rgb(0%,0%,0%);stroke-opacity:1;stroke-miterlimit:10;" d="M 2247.36 1132.46033 L 1463.263311 1354.697436 L 894.118549 1263.358534 " transform="matrix(0.0997316,0,0,-0.0997316,0,162.406926)"/>
<path style="fill-rule:nonzero;fill:rgb(64.84375%,75.976562%,93.164062%);fill-opacity:1;stroke-width:5;stroke-linecap:round;stroke-linejoin:round;stroke:rgb(0%,0%,0%);stroke-opacity:1;stroke-miterlimit:10;" d="M 894.118549 1263.358534 L 1665.994939 1031.52536 L 2247.36 1132.46033 " transform="matrix(0.0997316,0,0,-0.0997316,0,162.406926)"/>
<path style="fill:none;stroke-width:23.0354;stroke-linecap:round;stroke-linejoin:round;stroke:rgb(100%,0%,0%);stroke-opacity:1;stroke-miterlimit:10;" d="M 113.037766 647.878471 L 894.118549 1263.358534 " transform="matrix(0.0997316,0,0,-0.0997316,0,162.406926)"/>
<path style="fill-rule:nonzero;fill:rgb(76.367188%,49.510193%,52.734375%);fill-opacity:1;stroke-width:5;stroke-linecap:round;stroke-linejoin:round;stroke:rgb(0%,0%,0%);stroke-opacity:1;stroke-miterlimit:10;" d="M 826.789401 390.743012 L 1411.757884 502.644917 L 2247.36 1132.46033 " transform="matrix(0.0997316,0,0,-0.0997316,0,162.406926)"/>
<path style="fill-rule:nonzero;fill:rgb(76.367188%,49.510193%,52.734375%);fill-opacity:1;stroke-width:5;stroke-linecap:round;stroke-linejoin:round;stroke:rgb(0%,0%,0%);stroke-opacity:1;stroke-miterlimit:10;" d="M 2247.36 1132.46033 L 1665.994939 1031.52536 L 826.789401 390.743012 " transform="matrix(0.0997316,0,0,-0.0997316,0,162.406926)"/>
<path style="fill:none;stroke-width:23.0354;stroke-linecap:round;stroke-linejoin:round;stroke:rgb(100%,0%,0%);stroke-opacity:1;stroke-miterlimit:10;" d="M 113.037766 647.878471 L 826.789401 390.743012 " transform="matrix(0.0997316,0,0,-0.0997316,0,162.406926)"/>
</g>
</svg>
