<svg xmlns="http://www.w3.org/2000/svg" xmlns:xlink="http://www.w3.org/1999/xlink" viewBox="0 0 144.72 114.25"><defs><style>.cls-1,.cls-10,.cls-12,.cls-14,.cls-2,.cls-3,.cls-4,.cls-8{fill:none;}.cls-2{stroke:#f7aaa0;}.cls-3{stroke:#fff;stroke-width:0.75px;}.cls-4{stroke:#00aeef;}.cls-5{font-size:8px;}.cls-13,.cls-5,.cls-9{fill:#231f20;}.cls-13,.cls-5{font-family:TimesNewRomanPSMT, Times New Roman;}.cls-6{letter-spacing:5.33em;}.cls-7{clip-path:url(#clip-path);}.cls-10,.cls-14,.cls-8{stroke:#231f20;}.cls-8{stroke-miterlimit:3.86;}.cls-10,.cls-8{stroke-width:0.5px;}.cls-11{fill:#ec1846;}.cls-12{stroke:#ed1846;stroke-width:0.25px;}.cls-13{font-size:6px;}.cls-14{stroke-width:0.4px;}</style><clipPath id="clip-path"><rect class="cls-1" y="0.01" width="144.3" height="114.24"/></clipPath></defs><g id="Layer_2" data-name="Layer 2"><g id="Layer_1-2" data-name="Layer 1"><circle class="cls-2" cx="70.39" cy="76.32" r="22.65"/><path class="cls-3" d="M135.07,9.87C124.18,40.61,100.09,99,71,99h-.61C41.18,99,17,40.11,6.17,9.48"/><path class="cls-4" d="M135.07,9.87C124.18,40.61,100.09,99,71,99h-.61C41.18,99,17,40.11,6.17,9.48"/><text class="cls-5" transform="translate(140.72 101.41)">x</text><text class="cls-5" transform="translate(68.33 6.65)">y</text><text class="cls-5" transform="translate(64.49 107.25)"><tspan class="cls-6">0</tspan><tspan x="46.66" y="0">1</tspan></text><g class="cls-7"><path class="cls-8" d="M0,99.56H136.59m-66.2,14.69v-102"/></g><polyline class="cls-9" points="135.05 101.36 138.55 99.61 135.05 97.86 136.45 99.61"/><polyline class="cls-9" points="72.14 13.65 70.39 10.15 68.64 13.65 70.39 12.25"/><line class="cls-10" x1="113.05" y1="99.62" x2="113.05" y2="95.62"/><text class="cls-5" transform="translate(23.22 32.95)">Osculating</text><text class="cls-5" transform="translate(40.12 42.55)">circle</text><line class="cls-8" x1="58.89" y1="36.28" x2="64.39" y2="52.95"/><path class="cls-11" d="M72,76.44a1.75,1.75,0,1,1-1.75-1.75A1.76,1.76,0,0,1,72,76.44"/><circle class="cls-12" cx="70.29" cy="76.44" r="1.75"/><text class="cls-13" transform="translate(73.89 74.66)">1</text><text class="cls-13" transform="translate(73.89 82.11)">2</text><line class="cls-14" x1="74.04" y1="76.35" x2="76.73" y2="76.35"/><text class="cls-5" transform="translate(108.33 19.21)">y</text><text class="cls-5" transform="translate(113.88 19.21)">=</text><text class="cls-5" transform="translate(122.54 19.21)">x</text><text class="cls-13" transform="translate(126.69 16.21)">2</text></g></g></svg>