<?xml version="1.0" encoding="UTF-8" standalone="no"?>
<!-- Created with Inkscape (http://www.inkscape.org/) -->
<svg
   xmlns:dc="http://purl.org/dc/elements/1.1/"
   xmlns:cc="http://web.resource.org/cc/"
   xmlns:rdf="http://www.w3.org/1999/02/22-rdf-syntax-ns#"
   xmlns:svg="http://www.w3.org/2000/svg"
   xmlns="http://www.w3.org/2000/svg"
   xmlns:sodipodi="http://sodipodi.sourceforge.net/DTD/sodipodi-0.dtd"
   xmlns:inkscape="http://www.inkscape.org/namespaces/inkscape"
   width="1089"
   height="1089"
   id="svg2574"
   sodipodi:version="0.32"
   inkscape:version="0.45.1"
   version="1.0"
   sodipodi:docbase="C:\Documents and Settings\Jim\Desktop\Wikipedia\System of Linear Equations"
   sodipodi:docname="Parallel Lines.svg"
   inkscape:output_extension="org.inkscape.output.svg.inkscape">
  <sodipodi:namedview
     id="base"
     pagecolor="#ffffff"
     bordercolor="#666666"
     borderopacity="1.0"
     gridtolerance="10000"
     guidetolerance="10"
     objecttolerance="10"
     inkscape:pageopacity="0.0"
     inkscape:pageshadow="2"
     inkscape:zoom="0.35"
     inkscape:cx="403.57143"
     inkscape:cy="520"
     inkscape:document-units="px"
     inkscape:current-layer="layer1"
     inkscape:window-width="744"
     inkscape:window-height="573"
     inkscape:window-x="288"
     inkscape:window-y="106" />
  <defs
     id="defs2576" />
  <metadata
     id="metadata2579">
    <rdf:RDF>
      <cc:Work
         rdf:about="">
        <dc:format>image/svg+xml</dc:format>
        <dc:type
           rdf:resource="http://purl.org/dc/dcmitype/StillImage" />
      </cc:Work>
    </rdf:RDF>
  </metadata>
  <g
     inkscape:label="Layer 1"
     id="layer1"
     transform="translate(-295.5,123.56639)"
     inkscape:groupmode="layer">
    <path
       style="fill:#000000;fill-rule:nonzero;stroke:none;stroke-linecap:round;stroke-linejoin:round"
       id="path71"
       d="M 513,960.93361 L 513,-95.066389 L 519,-95.066389 L 519,960.93361 L 513,960.93361 z M 516,-95.066389 L 496,-79.066389 L 516,-119.06639 L 536,-79.066389 L 516,-95.066389 z " />
    <path
       style="fill:#000000;fill-rule:nonzero;stroke:none;stroke-linecap:round;stroke-linejoin:round"
       id="path73"
       d="M 300,741.93361 L 1356,741.93361 L 1356,747.93361 L 300,747.93361 L 300,741.93361 z M 1356,744.93361 L 1340,724.93361 L 1380,744.93361 L 1340,764.93361 L 1356,744.93361 z " />
    <path
       style="fill:none;fill-rule:nonzero;stroke:#ff0000;stroke-width:9px;stroke-linecap:butt;stroke-linejoin:round"
       id="path75"
       sodipodi:nodetypes="cc"
       d="M 1020,960.93361 L 300,-119.06639" />
    <path
       style="fill:none;fill-rule:nonzero;stroke:#3366ff;stroke-width:9px;stroke-linecap:butt;stroke-linejoin:round"
       id="path77"
       d="M 1380,960.93361 L 660,-119.06639" />
    <g
       id="g2641"
       transform="matrix(0.5546992,0.8320509,-0.8320509,0.5546992,759.55408,-370.77207)">
      <g
         style="font-style:normal;font-variant:normal;font-weight:normal;font-stretch:normal;letter-spacing:normal;word-spacing:normal;text-anchor:start;fill:none;fill-opacity:1;fill-rule:evenodd;stroke:#000000;stroke-linecap:butt;stroke-linejoin:miter;stroke-miterlimit:10.43299961;stroke-dasharray:none;stroke-dashoffset:0;stroke-opacity:1"
         id="g2643"
         xml:space="preserve"
         transform="matrix(1.5557143,0,0,-1.5557143,-272.25,816.75)"><path
           style="fill:#000000;stroke-width:0"
           id="path2645"
           d="M 470.45,423.54 L 470.82,423.67 L 471.2,423.81 L 471.56,423.97 L 471.92,424.14 L 472.27,424.32 L 472.61,424.51 L 472.94,424.71 L 473.26,424.92 L 473.57,425.14 L 473.87,425.37 L 474.17,425.61 L 474.45,425.86 L 474.72,426.12 L 474.98,426.39 L 475.23,426.66 L 475.46,426.95 L 475.69,427.24 L 475.9,427.54 L 476.1,427.84 L 476.29,428.15 L 476.46,428.47 L 476.62,428.8 L 476.77,429.13 L 476.9,429.46 L 477.02,429.8 L 477.12,430.15 L 477.21,430.5 L 477.29,430.85 L 477.34,431.21 L 477.38,431.57 L 477.41,431.93 L 477.42,432.3 C 477.42,436.39 473.04,439.18 468.25,439.18 C 463.22,439.18 459.44,436.19 459.44,432.4 C 459.44,430.76 460.53,429.81 461.98,429.81 C 463.52,429.81 464.52,430.91 464.52,432.35 C 464.52,434.84 462.18,434.84 461.43,434.84 C 462.97,437.28 466.26,437.93 468.05,437.93 C 470.1,437.93 472.84,436.84 472.84,432.35 C 472.84,431.75 472.74,428.86 471.44,426.67 C 469.95,424.28 468.25,424.13 467.01,424.08 C 466.61,424.03 465.41,423.93 465.07,423.93 C 464.67,423.88 464.32,423.83 464.32,423.34 C 464.32,422.79 464.67,422.79 465.52,422.79 L 467.71,422.79 C 471.79,422.79 473.63,419.4 473.63,414.52 C 473.63,407.74 470.2,406.3 468,406.3 C 465.86,406.3 462.13,407.14 460.38,410.09 C 462.13,409.84 463.67,410.93 463.67,412.82 C 463.67,414.62 462.33,415.61 460.88,415.61 C 459.69,415.61 458.09,414.92 458.09,412.73 C 458.09,408.19 462.73,404.9 468.16,404.9 C 474.23,404.9 478.77,409.44 478.77,414.52 C 478.77,418.6 475.63,422.49 470.45,423.54 z " /><path
           style="fill:#000000;stroke-width:0"
           id="path2647"
           d="M 496.64,421.04 L 496.67,421.17 L 496.7,421.32 L 496.75,421.49 L 496.79,421.67 L 496.85,421.86 L 496.91,422.07 L 496.97,422.28 L 497.04,422.51 L 497.12,422.74 L 497.21,422.98 L 497.31,423.23 L 497.41,423.47 L 497.52,423.72 L 497.64,423.97 L 497.77,424.22 L 497.91,424.47 L 498.06,424.71 L 498.21,424.95 L 498.38,425.18 L 498.56,425.4 L 498.74,425.62 L 498.94,425.82 L 499.15,426.01 L 499.37,426.19 L 499.6,426.35 L 499.85,426.49 L 499.97,426.56 L 500.1,426.62 L 500.23,426.67 L 500.37,426.72 L 500.51,426.77 L 500.65,426.81 L 500.79,426.84 L 500.94,426.87 L 501.09,426.89 L 501.25,426.91 L 501.41,426.92 L 501.57,426.92 C 501.82,426.92 503.02,426.92 504.06,426.27 C 502.66,426.02 501.67,424.78 501.67,423.59 C 501.67,422.79 502.21,421.84 503.56,421.84 C 504.66,421.84 506.25,422.74 506.25,424.73 C 506.25,427.32 503.31,428.02 501.62,428.02 C 498.73,428.02 496.98,425.38 496.39,424.23 C 495.14,427.52 492.45,428.02 491.01,428.02 C 485.83,428.02 482.99,421.59 482.99,420.35 C 482.99,419.85 483.49,419.85 483.59,419.85 C 483.98,419.85 484.13,419.95 484.23,420.39 C 485.93,425.68 489.21,426.92 490.91,426.92 C 491.86,426.92 493.6,426.47 493.6,423.59 C 493.6,422.04 492.75,418.7 490.91,411.73 C 490.11,408.64 488.37,406.55 486.18,406.55 C 485.88,406.55 484.73,406.55 483.69,407.2 C 484.93,407.45 486.03,408.49 486.03,409.89 C 486.03,411.23 484.93,411.63 484.18,411.63 C 482.69,411.63 481.45,410.33 481.45,408.74 C 481.45,406.45 483.93,405.45 486.13,405.45 C 489.41,405.45 491.21,408.94 491.36,409.24 C 491.96,407.39 493.75,405.45 496.74,405.45 C 501.87,405.45 504.71,411.88 504.71,413.13 C 504.71,413.62 504.26,413.62 504.11,413.62 C 503.66,413.62 503.56,413.42 503.46,413.07 C 501.82,407.74 498.43,406.55 496.84,406.55 C 494.89,406.55 494.1,408.14 494.1,409.84 C 494.1,410.93 494.39,412.03 494.95,414.22 L 496.64,421.04 z " /><path
           style="fill:#000000;stroke-width:0"
           id="path2649"
           d="M 540.38,417.46 L 554.27,417.46 C 554.97,417.46 555.91,417.46 555.91,418.45 C 555.91,419.45 554.97,419.45 554.27,419.45 L 540.38,419.45 L 540.38,433.4 C 540.38,434.09 540.38,435.04 539.38,435.04 C 538.38,435.04 538.38,434.09 538.38,433.4 L 538.38,419.45 L 524.43,419.45 C 523.73,419.45 522.79,419.45 522.79,418.45 C 522.79,417.46 523.73,417.46 524.43,417.46 L 538.38,417.46 L 538.38,403.51 C 538.38,402.81 538.38,401.87 539.38,401.87 C 540.38,401.87 540.38,402.81 540.38,403.51 L 540.38,417.46 z " /><path
           style="fill:#000000;stroke-width:0"
           id="path2651"
           d="M 592.37,414.67 L 591.12,414.67 C 590.87,413.17 590.52,410.98 590.02,410.23 C 589.68,409.84 586.39,409.84 585.29,409.84 L 576.33,409.84 L 581.6,414.96 C 589.38,421.84 592.37,424.53 592.37,429.51 C 592.37,435.19 587.88,439.18 581.8,439.18 C 576.18,439.18 572.49,434.59 572.49,430.16 C 572.49,427.37 574.98,427.37 575.13,427.37 C 575.98,427.37 577.72,427.97 577.72,430.01 C 577.72,431.3 576.82,432.6 575.08,432.6 C 574.68,432.6 574.58,432.6 574.43,432.55 C 575.58,435.79 578.27,437.63 581.16,437.63 C 585.69,437.63 587.83,433.6 587.83,429.51 C 587.83,425.53 585.34,421.59 582.6,418.5 L 573.04,407.84 C 572.49,407.3 572.49,407.2 572.49,406 L 590.97,406 L 592.37,414.67 z " /><path
           style="fill:#000000;stroke-width:0"
           id="path2653"
           d="M 619.21,424.98 L 619.22,425.01 L 619.23,425.04 L 619.24,425.07 L 619.25,425.1 L 619.26,425.16 L 619.28,425.21 L 619.29,425.27 L 619.3,425.31 L 619.32,425.36 L 619.33,425.4 L 619.34,425.44 L 619.35,425.48 L 619.35,425.52 L 619.36,425.56 L 619.37,425.59 L 619.37,425.62 L 619.38,425.65 L 619.39,425.68 L 619.39,425.71 L 619.39,425.74 L 619.4,425.77 L 619.4,425.79 L 619.4,425.85 L 619.41,425.9 L 619.41,425.95 L 619.41,426 L 619.41,426.03 L 619.41,426.06 L 619.41,426.09 L 619.41,426.13 C 619.41,427.02 618.71,427.47 617.97,427.47 C 617.47,427.47 616.67,427.17 616.22,426.42 C 616.12,426.18 615.72,424.63 615.52,423.73 C 615.18,422.44 614.82,421.09 614.53,419.75 L 612.28,410.78 C 612.09,410.04 609.95,406.55 606.66,406.55 C 604.12,406.55 603.57,408.74 603.57,410.58 C 603.57,412.88 604.41,415.96 606.11,420.35 C 606.91,422.39 607.1,422.94 607.1,423.93 C 607.1,426.18 605.51,428.02 603.02,428.02 C 598.29,428.02 596.45,420.79 596.45,420.35 C 596.45,419.85 596.94,419.85 597.04,419.85 C 597.54,419.85 597.59,419.95 597.84,420.75 C 599.18,425.43 601.18,426.92 602.87,426.92 C 603.27,426.92 604.12,426.92 604.12,425.33 C 604.12,424.08 603.62,422.79 603.27,421.84 C 601.28,416.56 600.38,413.72 600.38,411.38 C 600.38,406.95 603.52,405.45 606.46,405.45 C 608.4,405.45 610.09,406.3 611.49,407.7 C 610.84,405.1 610.24,402.66 608.25,400.02 C 606.96,398.33 605.06,396.88 602.77,396.88 C 602.07,396.88 599.83,397.04 598.98,398.98 C 599.78,398.98 600.43,398.98 601.13,399.57 C 601.63,400.02 602.13,400.67 602.13,401.62 C 602.13,403.16 600.78,403.36 600.28,403.36 C 599.13,403.36 597.49,402.56 597.49,400.12 C 597.49,397.63 599.68,395.79 602.77,395.79 C 607.9,395.79 613.03,400.32 614.43,405.95 L 619.21,424.98 z " /><path
           style="fill:#000000;stroke-width:0"
           id="path2655"
           d="M 669.22,422.29 L 669.36,422.29 L 669.51,422.29 L 669.66,422.3 L 669.73,422.3 L 669.8,422.3 L 669.87,422.31 L 669.95,422.32 L 670.02,422.33 L 670.09,422.34 L 670.15,422.36 L 670.22,422.37 L 670.29,422.39 L 670.35,422.41 L 670.41,422.44 L 670.47,422.47 L 670.52,422.5 L 670.58,422.53 L 670.63,422.57 L 670.67,422.61 L 670.72,422.66 L 670.75,422.71 L 670.77,422.74 L 670.79,422.76 L 670.81,422.79 L 670.82,422.82 L 670.84,422.85 L 670.85,422.89 L 670.86,422.92 L 670.87,422.96 L 670.88,422.99 L 670.89,423.03 L 670.9,423.07 L 670.9,423.11 L 670.91,423.15 L 670.91,423.19 L 670.91,423.24 L 670.91,423.29 C 670.91,424.28 669.97,424.28 669.27,424.28 L 639.43,424.28 C 638.73,424.28 637.79,424.28 637.79,423.29 C 637.79,422.29 638.73,422.29 639.48,422.29 L 669.22,422.29 z " /><path
           style="fill:#000000;stroke-width:0"
           id="path2657"
           d="M 669.27,412.63 L 669.4,412.63 L 669.54,412.63 L 669.68,412.63 L 669.75,412.64 L 669.82,412.64 L 669.89,412.65 L 669.96,412.66 L 670.03,412.67 L 670.1,412.68 L 670.16,412.69 L 670.23,412.71 L 670.29,412.73 L 670.35,412.75 L 670.41,412.77 L 670.47,412.8 L 670.53,412.83 L 670.58,412.87 L 670.63,412.91 L 670.67,412.95 L 670.72,412.99 L 670.74,413.02 L 670.76,413.05 L 670.77,413.07 L 670.79,413.1 L 670.81,413.13 L 670.82,413.16 L 670.84,413.19 L 670.85,413.22 L 670.86,413.26 L 670.87,413.29 L 670.88,413.33 L 670.89,413.37 L 670.9,413.41 L 670.9,413.45 L 670.91,413.49 L 670.91,413.53 L 670.91,413.58 L 670.91,413.62 C 670.91,414.62 669.97,414.62 669.22,414.62 L 639.48,414.62 C 638.73,414.62 637.79,414.62 637.79,413.62 C 637.79,412.63 638.73,412.63 639.43,412.63 L 669.27,412.63 z " /><path
           style="fill:#000000;stroke-width:0"
           id="path2659"
           d="M 701.65,437.88 L 701.65,437.93 L 701.64,437.99 L 701.64,438.04 L 701.64,438.09 L 701.64,438.14 L 701.64,438.19 L 701.64,438.23 L 701.64,438.28 L 701.64,438.32 L 701.64,438.36 L 701.64,438.4 L 701.64,438.44 L 701.64,438.48 L 701.63,438.52 L 701.63,438.55 L 701.63,438.59 L 701.62,438.62 L 701.62,438.65 L 701.61,438.71 L 701.6,438.76 L 701.58,438.81 L 701.57,438.86 L 701.55,438.9 L 701.53,438.94 L 701.5,438.98 L 701.47,439.01 L 701.44,439.03 L 701.41,439.06 L 701.37,439.08 L 701.32,439.1 L 701.3,439.11 L 701.27,439.12 L 701.25,439.12 L 701.22,439.13 L 701.19,439.14 L 701.16,439.14 L 701.13,439.15 L 701.1,439.15 L 701.07,439.16 L 701.03,439.16 L 700.99,439.16 L 700.96,439.16 L 700.92,439.17 L 700.88,439.17 L 700.84,439.17 L 700.79,439.17 L 700.75,439.17 L 700.7,439.17 L 700.65,439.18 L 700.6,439.18 L 700.55,439.18 L 700.5,439.18 C 697.41,435.99 693.03,435.99 691.43,435.99 L 691.43,434.44 C 692.43,434.44 695.37,434.44 697.96,435.74 L 697.96,409.93 C 697.96,408.14 697.81,407.54 693.33,407.54 L 691.73,407.54 L 691.73,406 C 693.48,406.15 697.81,406.15 699.8,406.15 C 701.79,406.15 706.13,406.15 707.87,406 L 707.87,407.54 L 706.28,407.54 C 701.79,407.54 701.65,408.09 701.65,409.93 L 701.65,437.88 z " /><path
           style="fill:#000000;stroke-width:0"
           id="path2661"
           d="M 734.37,414.67 L 733.12,414.67 C 732.87,413.17 732.52,410.98 732.02,410.23 C 731.68,409.84 728.39,409.84 727.29,409.84 L 718.33,409.84 L 723.6,414.96 C 731.38,421.84 734.37,424.53 734.37,429.51 C 734.37,435.19 729.88,439.18 723.8,439.18 C 718.18,439.18 714.49,434.59 714.49,430.16 C 714.49,427.37 716.98,427.37 717.13,427.37 C 717.98,427.37 719.72,427.97 719.72,430.01 C 719.72,431.3 718.82,432.6 717.08,432.6 C 716.68,432.6 716.58,432.6 716.43,432.55 C 717.58,435.79 720.27,437.63 723.16,437.63 C 727.69,437.63 729.83,433.6 729.83,429.51 C 729.83,425.53 727.34,421.59 724.6,418.5 L 715.04,407.84 C 714.49,407.3 714.49,407.2 714.49,406 L 732.97,406 L 734.37,414.67 z " /></g>    </g>
    <g
       id="g2701"
       transform="matrix(0.5546992,0.8320509,-0.8320509,0.5546992,516.74741,-189.13626)">
      <g
         id="g2703"
         transform="matrix(1.5557143,0,0,-1.5557143,-272.25,816.75)"
         style="font-style:normal;font-variant:normal;font-weight:normal;font-stretch:normal;letter-spacing:normal;word-spacing:normal;text-anchor:start;fill:none;fill-opacity:1;fill-rule:evenodd;stroke:#000000;stroke-linecap:butt;stroke-linejoin:miter;stroke-miterlimit:10.43299961;stroke-dasharray:none;stroke-dashoffset:0;stroke-opacity:1"
         xml:space="preserve"><path
           id="path2705"
           d="M 470.45,423.54 L 470.82,423.67 L 471.2,423.81 L 471.56,423.97 L 471.92,424.14 L 472.27,424.32 L 472.61,424.51 L 472.94,424.71 L 473.26,424.92 L 473.57,425.14 L 473.87,425.37 L 474.17,425.61 L 474.45,425.86 L 474.72,426.12 L 474.98,426.39 L 475.23,426.66 L 475.46,426.95 L 475.69,427.24 L 475.9,427.54 L 476.1,427.84 L 476.29,428.15 L 476.46,428.47 L 476.62,428.8 L 476.77,429.13 L 476.9,429.46 L 477.02,429.8 L 477.12,430.15 L 477.21,430.5 L 477.29,430.85 L 477.34,431.21 L 477.38,431.57 L 477.41,431.93 L 477.42,432.3 C 477.42,436.39 473.04,439.18 468.25,439.18 C 463.22,439.18 459.44,436.19 459.44,432.4 C 459.44,430.76 460.53,429.81 461.98,429.81 C 463.52,429.81 464.52,430.91 464.52,432.35 C 464.52,434.84 462.18,434.84 461.43,434.84 C 462.97,437.28 466.26,437.93 468.05,437.93 C 470.1,437.93 472.84,436.84 472.84,432.35 C 472.84,431.75 472.74,428.86 471.44,426.67 C 469.95,424.28 468.25,424.13 467.01,424.08 C 466.61,424.03 465.41,423.93 465.07,423.93 C 464.67,423.88 464.32,423.83 464.32,423.34 C 464.32,422.79 464.67,422.79 465.52,422.79 L 467.71,422.79 C 471.79,422.79 473.63,419.4 473.63,414.52 C 473.63,407.74 470.2,406.3 468,406.3 C 465.86,406.3 462.13,407.14 460.38,410.09 C 462.13,409.84 463.67,410.93 463.67,412.82 C 463.67,414.62 462.33,415.61 460.88,415.61 C 459.69,415.61 458.09,414.92 458.09,412.73 C 458.09,408.19 462.73,404.9 468.16,404.9 C 474.23,404.9 478.77,409.44 478.77,414.52 C 478.77,418.6 475.63,422.49 470.45,423.54 z "
           style="fill:#000000;stroke-width:0" /><path
           id="path2707"
           d="M 496.64,421.04 L 496.67,421.17 L 496.7,421.32 L 496.75,421.49 L 496.79,421.67 L 496.85,421.86 L 496.91,422.07 L 496.97,422.28 L 497.04,422.51 L 497.12,422.74 L 497.21,422.98 L 497.31,423.23 L 497.41,423.47 L 497.52,423.72 L 497.64,423.97 L 497.77,424.22 L 497.91,424.47 L 498.06,424.71 L 498.21,424.95 L 498.38,425.18 L 498.56,425.4 L 498.74,425.62 L 498.94,425.82 L 499.15,426.01 L 499.37,426.19 L 499.6,426.35 L 499.85,426.49 L 499.97,426.56 L 500.1,426.62 L 500.23,426.67 L 500.37,426.72 L 500.51,426.77 L 500.65,426.81 L 500.79,426.84 L 500.94,426.87 L 501.09,426.89 L 501.25,426.91 L 501.41,426.92 L 501.57,426.92 C 501.82,426.92 503.02,426.92 504.06,426.27 C 502.66,426.02 501.67,424.78 501.67,423.59 C 501.67,422.79 502.21,421.84 503.56,421.84 C 504.66,421.84 506.25,422.74 506.25,424.73 C 506.25,427.32 503.31,428.02 501.62,428.02 C 498.73,428.02 496.98,425.38 496.39,424.23 C 495.14,427.52 492.45,428.02 491.01,428.02 C 485.83,428.02 482.99,421.59 482.99,420.35 C 482.99,419.85 483.49,419.85 483.59,419.85 C 483.98,419.85 484.13,419.95 484.23,420.39 C 485.93,425.68 489.21,426.92 490.91,426.92 C 491.86,426.92 493.6,426.47 493.6,423.59 C 493.6,422.04 492.75,418.7 490.91,411.73 C 490.11,408.64 488.37,406.55 486.18,406.55 C 485.88,406.55 484.73,406.55 483.69,407.2 C 484.93,407.45 486.03,408.49 486.03,409.89 C 486.03,411.23 484.93,411.63 484.18,411.63 C 482.69,411.63 481.45,410.33 481.45,408.74 C 481.45,406.45 483.93,405.45 486.13,405.45 C 489.41,405.45 491.21,408.94 491.36,409.24 C 491.96,407.39 493.75,405.45 496.74,405.45 C 501.87,405.45 504.71,411.88 504.71,413.13 C 504.71,413.62 504.26,413.62 504.11,413.62 C 503.66,413.62 503.56,413.42 503.46,413.07 C 501.82,407.74 498.43,406.55 496.84,406.55 C 494.89,406.55 494.1,408.14 494.1,409.84 C 494.1,410.93 494.39,412.03 494.95,414.22 L 496.64,421.04 z "
           style="fill:#000000;stroke-width:0" /><path
           id="path2709"
           d="M 540.38,417.46 L 554.27,417.46 C 554.97,417.46 555.91,417.46 555.91,418.45 C 555.91,419.45 554.97,419.45 554.27,419.45 L 540.38,419.45 L 540.38,433.4 C 540.38,434.09 540.38,435.04 539.38,435.04 C 538.38,435.04 538.38,434.09 538.38,433.4 L 538.38,419.45 L 524.43,419.45 C 523.73,419.45 522.79,419.45 522.79,418.45 C 522.79,417.46 523.73,417.46 524.43,417.46 L 538.38,417.46 L 538.38,403.51 C 538.38,402.81 538.38,401.87 539.38,401.87 C 540.38,401.87 540.38,402.81 540.38,403.51 L 540.38,417.46 z "
           style="fill:#000000;stroke-width:0" /><path
           id="path2711"
           d="M 592.37,414.67 L 591.12,414.67 C 590.87,413.17 590.52,410.98 590.02,410.23 C 589.68,409.84 586.39,409.84 585.29,409.84 L 576.33,409.84 L 581.6,414.96 C 589.38,421.84 592.37,424.53 592.37,429.51 C 592.37,435.19 587.88,439.18 581.8,439.18 C 576.18,439.18 572.49,434.59 572.49,430.16 C 572.49,427.37 574.98,427.37 575.13,427.37 C 575.98,427.37 577.72,427.97 577.72,430.01 C 577.72,431.3 576.82,432.6 575.08,432.6 C 574.68,432.6 574.58,432.6 574.43,432.55 C 575.58,435.79 578.27,437.63 581.16,437.63 C 585.69,437.63 587.83,433.6 587.83,429.51 C 587.83,425.53 585.34,421.59 582.6,418.5 L 573.04,407.84 C 572.49,407.3 572.49,407.2 572.49,406 L 590.97,406 L 592.37,414.67 z "
           style="fill:#000000;stroke-width:0" /><path
           id="path2713"
           d="M 619.21,424.98 L 619.22,425.01 L 619.23,425.04 L 619.24,425.07 L 619.25,425.1 L 619.26,425.16 L 619.28,425.21 L 619.29,425.27 L 619.3,425.31 L 619.32,425.36 L 619.33,425.4 L 619.34,425.44 L 619.35,425.48 L 619.35,425.52 L 619.36,425.56 L 619.37,425.59 L 619.37,425.62 L 619.38,425.65 L 619.39,425.68 L 619.39,425.71 L 619.39,425.74 L 619.4,425.77 L 619.4,425.79 L 619.4,425.85 L 619.41,425.9 L 619.41,425.95 L 619.41,426 L 619.41,426.03 L 619.41,426.06 L 619.41,426.09 L 619.41,426.13 C 619.41,427.02 618.71,427.47 617.97,427.47 C 617.47,427.47 616.67,427.17 616.22,426.42 C 616.12,426.18 615.72,424.63 615.52,423.73 C 615.18,422.44 614.82,421.09 614.53,419.75 L 612.28,410.78 C 612.09,410.04 609.95,406.55 606.66,406.55 C 604.12,406.55 603.57,408.74 603.57,410.58 C 603.57,412.88 604.41,415.96 606.11,420.35 C 606.91,422.39 607.1,422.94 607.1,423.93 C 607.1,426.18 605.51,428.02 603.02,428.02 C 598.29,428.02 596.45,420.79 596.45,420.35 C 596.45,419.85 596.94,419.85 597.04,419.85 C 597.54,419.85 597.59,419.95 597.84,420.75 C 599.18,425.43 601.18,426.92 602.87,426.92 C 603.27,426.92 604.12,426.92 604.12,425.33 C 604.12,424.08 603.62,422.79 603.27,421.84 C 601.28,416.56 600.38,413.72 600.38,411.38 C 600.38,406.95 603.52,405.45 606.46,405.45 C 608.4,405.45 610.09,406.3 611.49,407.7 C 610.84,405.1 610.24,402.66 608.25,400.02 C 606.96,398.33 605.06,396.88 602.77,396.88 C 602.07,396.88 599.83,397.04 598.98,398.98 C 599.78,398.98 600.43,398.98 601.13,399.57 C 601.63,400.02 602.13,400.67 602.13,401.62 C 602.13,403.16 600.78,403.36 600.28,403.36 C 599.13,403.36 597.49,402.56 597.49,400.12 C 597.49,397.63 599.68,395.79 602.77,395.79 C 607.9,395.79 613.03,400.32 614.43,405.95 L 619.21,424.98 z "
           style="fill:#000000;stroke-width:0" /><path
           id="path2715"
           d="M 669.22,422.29 L 669.36,422.29 L 669.51,422.29 L 669.66,422.3 L 669.73,422.3 L 669.8,422.3 L 669.87,422.31 L 669.95,422.32 L 670.02,422.33 L 670.09,422.34 L 670.15,422.36 L 670.22,422.37 L 670.29,422.39 L 670.35,422.41 L 670.41,422.44 L 670.47,422.47 L 670.52,422.5 L 670.58,422.53 L 670.63,422.57 L 670.67,422.61 L 670.72,422.66 L 670.75,422.71 L 670.77,422.74 L 670.79,422.76 L 670.81,422.79 L 670.82,422.82 L 670.84,422.85 L 670.85,422.89 L 670.86,422.92 L 670.87,422.96 L 670.88,422.99 L 670.89,423.03 L 670.9,423.07 L 670.9,423.11 L 670.91,423.15 L 670.91,423.19 L 670.91,423.24 L 670.91,423.29 C 670.91,424.28 669.97,424.28 669.27,424.28 L 639.43,424.28 C 638.73,424.28 637.79,424.28 637.79,423.29 C 637.79,422.29 638.73,422.29 639.48,422.29 L 669.22,422.29 z "
           style="fill:#000000;stroke-width:0" /><path
           id="path2717"
           d="M 669.27,412.63 L 669.4,412.63 L 669.54,412.63 L 669.68,412.63 L 669.75,412.64 L 669.82,412.64 L 669.89,412.65 L 669.96,412.66 L 670.03,412.67 L 670.1,412.68 L 670.16,412.69 L 670.23,412.71 L 670.29,412.73 L 670.35,412.75 L 670.41,412.77 L 670.47,412.8 L 670.53,412.83 L 670.58,412.87 L 670.63,412.91 L 670.67,412.95 L 670.72,412.99 L 670.74,413.02 L 670.76,413.05 L 670.77,413.07 L 670.79,413.1 L 670.81,413.13 L 670.82,413.16 L 670.84,413.19 L 670.85,413.22 L 670.86,413.26 L 670.87,413.29 L 670.88,413.33 L 670.89,413.37 L 670.9,413.41 L 670.9,413.45 L 670.91,413.49 L 670.91,413.53 L 670.91,413.58 L 670.91,413.62 C 670.91,414.62 669.97,414.62 669.22,414.62 L 639.48,414.62 C 638.73,414.62 637.79,414.62 637.79,413.62 C 637.79,412.63 638.73,412.63 639.43,412.63 L 669.27,412.63 z "
           style="fill:#000000;stroke-width:0" /><path
           id="path2719"
           d="M 693.57,422.34 L 693.57,423.54 C 693.57,436.14 699.75,437.93 702.29,437.93 C 703.49,437.93 705.58,437.63 706.68,435.94 C 705.93,435.94 703.94,435.94 703.94,433.7 C 703.94,432.15 705.13,431.41 706.23,431.41 C 707.02,431.41 708.52,431.85 708.52,433.8 C 708.52,436.79 706.33,439.18 702.19,439.18 C 695.82,439.18 689.09,432.75 689.09,421.74 C 689.09,408.44 694.87,404.9 699.5,404.9 C 705.03,404.9 709.77,409.59 709.77,416.16 C 709.77,422.49 705.33,427.27 699.8,427.27 L 699.75,426.13 C 700.55,426.13 702.84,426.13 704.39,423.04 C 705.28,421.19 705.28,418.65 705.28,416.21 C 705.28,413.82 705.28,411.33 704.43,409.54 C 702.94,406.55 700.65,406.3 699.5,406.3 L 699.5,406.3 C 696.36,406.3 694.87,409.29 694.57,410.04 C 693.68,412.38 693.68,416.36 693.68,417.26 C 693.68,421.14 695.27,426.13 699.75,426.13 L 699.8,427.27 C 696.41,427.27 694.57,424.73 693.57,422.34 z "
           style="fill:#000000;stroke-width:0" /></g>    </g>
  </g>
</svg>
