<svg xmlns="http://www.w3.org/2000/svg" xmlns:xlink="http://www.w3.org/1999/xlink" viewBox="0 0 155.44 230.66"><defs><style>.cls-1,.cls-12,.cls-13,.cls-14,.cls-15,.cls-18,.cls-19,.cls-20,.cls-23,.cls-25,.cls-4,.cls-5,.cls-6{fill:none;}.cls-2{clip-path:url(#clip-path);}.cls-3{fill:url(#linear-gradient);}.cls-4{stroke:#f6978f;}.cls-14,.cls-15,.cls-18,.cls-19,.cls-20,.cls-23,.cls-25,.cls-4,.cls-5,.cls-6{stroke-miterlimit:3.86;}.cls-19,.cls-20,.cls-23,.cls-4,.cls-5,.cls-6{stroke-width:0.5px;}.cls-4,.cls-5{stroke-dasharray:4 2;}.cls-15,.cls-19,.cls-20,.cls-5{stroke:#ed1846;}.cls-18,.cls-6{stroke:#231f20;}.cls-7{clip-path:url(#clip-path-2);}.cls-8{fill:url(#linear-gradient-2);}.cls-9{clip-path:url(#clip-path-3);}.cls-10{fill:url(#linear-gradient-3);}.cls-11{clip-path:url(#clip-path-4);}.cls-12,.cls-14{stroke:#fff;}.cls-12,.cls-13{stroke-linecap:round;stroke-linejoin:round;}.cls-12,.cls-15{stroke-width:0.75px;}.cls-13,.cls-25{stroke:#00aeef;}.cls-14{stroke-width:0.4px;}.cls-16,.cls-17,.cls-22{fill:#231f20;}.cls-17{font-size:8px;}.cls-17,.cls-22{font-family:TimesNewRomanPSMT, Times New Roman;}.cls-18{stroke-width:0.3px;}.cls-20{stroke-dasharray:3.8 1.7;}.cls-21{fill:#ed1846;}.cls-22{font-size:6px;}.cls-23{stroke:#939598;stroke-dasharray:3.9 1.7;}.cls-24{fill:#00aeef;}.cls-25{stroke-width:0.25px;}</style><clipPath id="clip-path" transform="translate(-0.22 0.01)"><path class="cls-1" d="M50.14,148.23l41.27,41.52V165.27l-14.63,2.88c0-.1-.44-26.09-26.64-74.4Z"/></clipPath><linearGradient id="linear-gradient" x1="-75" y1="754.5" x2="-74" y2="754.5" gradientTransform="matrix(0, -57.89, -57.89, 0, 43747.35, -4149.94)" gradientUnits="userSpaceOnUse"><stop offset="0" stop-color="#edf7f3"/><stop offset="1" stop-color="#b2ded3"/></linearGradient><clipPath id="clip-path-2" transform="translate(-0.22 0.01)"><path class="cls-1" d="M76.78,168.15h0m-15.6-51.6c13.59,30.06,15.63,51.51,15.6,51.6l31.92-6.48q-.77-5.56-1.87-10.93a188.64,188.64,0,0,0-14.7-43.07Z"/></clipPath><linearGradient id="linear-gradient-2" x1="-75" y1="754.5" x2="-74" y2="754.5" gradientTransform="matrix(0, 107.58, 107.58, 0, -81082.46, 8129.71)" gradientUnits="userSpaceOnUse"><stop offset="0" stop-color="#a7a9ac"/><stop offset="0.51" stop-color="#e6e7e8"/><stop offset="1" stop-color="#a7a9ac"/></linearGradient><clipPath id="clip-path-3" transform="translate(-0.22 0.01)"><path class="cls-1" d="M37.66,76a241.15,241.15,0,0,1,23.52,40.56l30.95-8.88a213.31,213.31,0,0,0-28.79-45.6Z"/></clipPath><linearGradient id="linear-gradient-3" y1="754.51" y2="754.51" gradientTransform="matrix(0, 107.58, 107.58, 0, -81105.99, 8133.95)" xlink:href="#linear-gradient-2"/><clipPath id="clip-path-4" transform="translate(-0.22 0.01)"><rect class="cls-1" width="161.33" height="232"/></clipPath></defs><g id="Layer_2" data-name="Layer 2"><g id="Layer_1-2" data-name="Layer 1"><g class="cls-2"><rect class="cls-3" x="20.33" y="95.78" width="100.9" height="91.94" transform="translate(-84.52 109.3) rotate(-51.64)"/></g><line class="cls-4" x1="74.96" y1="159.52" x2="64.56" y2="162.4"/><line class="cls-5" x1="120" y1="147.04" x2="106.61" y2="150.75"/><line class="cls-6" x1="106.32" y1="133.36" x2="102.73" y2="134.34"/><g class="cls-7"><rect class="cls-8" x="51.67" y="101.02" width="66.54" height="73.78" transform="translate(-45.25 41.27) rotate(-21.74)"/></g><g class="cls-9"><rect class="cls-10" x="29.5" y="53.92" width="70.78" height="70.78" transform="translate(-28.68 30.39) rotate(-21.74)"/></g><g class="cls-11"><path class="cls-12" d="M91.18,164.79c-8.65-50.56-40.45-95.36-40.56-95.28" transform="translate(-0.22 0.01)"/><path class="cls-13" d="M91.18,164.79c-8.65-50.56-40.45-95.36-40.56-95.28" transform="translate(-0.22 0.01)"/><line class="cls-14" x1="41.04" y1="47.2" x2="112.56" y2="185.92"/><line class="cls-15" x1="41.04" y1="47.2" x2="112.56" y2="185.92"/><line class="cls-6" x1="106.32" y1="76.48" x2="106.32" y2="23.86"/><polygon class="cls-16" points="108.07 25.26 106.32 21.76 104.57 25.26 106.32 23.86 108.07 25.26"/><line class="cls-6" x1="49.68" y1="148.24" x2="6.83" y2="159.7"/><polygon class="cls-16" points="7.73 157.65 4.8 160.24 8.63 161.03 6.83 159.7 7.73 157.65"/></g><text class="cls-17" transform="translate(0 163.12)">x</text><text class="cls-17" transform="translate(104.64 19.12)">z</text><g class="cls-11"><path class="cls-6" d="M106.54,133.35,148.45,173M50.14,148.23V98.31" transform="translate(-0.22 0.01)"/><polygon class="cls-16" points="146.02 173.26 149.76 174.4 148.43 170.72 148.24 172.96 146.02 173.26"/></g><text class="cls-17" transform="translate(151.44 178.24)">y</text><g class="cls-11"><path class="cls-18" d="M75.1,201l15.84-34.8M55.18,186.15l22.56-9.6M54.7,171l9.6-8.16" transform="translate(-0.22 0.01)"/><line class="cls-19" x1="64.56" y1="126.53" x2="64.56" y2="162.4"/><line class="cls-20" x1="64.56" y1="93.22" x2="64.56" y2="124.57"/><line class="cls-5" x1="78" y1="166.04" x2="78" y2="120.65"/><line class="cls-19" x1="78" y1="176.08" x2="78" y2="168"/><path class="cls-18" d="M27.82,98.31l15.84-18M69.27,29.86,50.14,47.19" transform="translate(-0.22 0.01)"/><line class="cls-6" x1="49.92" y1="67.84" x2="49.92" y2="38.74"/><polygon class="cls-16" points="51.67 40.14 49.92 36.64 48.17 40.14 49.92 38.74 51.67 40.14"/><line class="cls-18" x1="41.31" y1="57.02" x2="43.44" y2="53.2"/><path class="cls-6" d="M87.1,185l17.49,17.94M50.38,148.71l31.44,31.44m24.72-46.8V89.43" transform="translate(-0.22 0.01)"/><polygon class="cls-16" points="102.14 203.12 105.84 204.4 104.65 200.67 104.37 202.9 102.14 203.12"/><line class="cls-18" x1="82.32" y1="81.28" x2="66.28" y2="91.76"/><path class="cls-21" d="M62.91,162.47a1.51,1.51,0,0,1,1.68-1.68,1.53,1.53,0,0,1,1.68,1.68,1.62,1.62,0,0,1-1.68,1.68,1.6,1.6,0,0,1-1.68-1.68" transform="translate(-0.22 0.01)"/><path class="cls-19" d="M62.91,162.47a1.51,1.51,0,0,1,1.68-1.68,1.53,1.53,0,0,1,1.68,1.68,1.62,1.62,0,0,1-1.68,1.68A1.6,1.6,0,0,1,62.91,162.47Z" transform="translate(-0.22 0.01)"/></g><text class="cls-17" transform="translate(85.13 83.42)">P</text><text class="cls-17" transform="translate(90.02 83.42)">(</text><text class="cls-17" transform="translate(92.68 83.42)">x</text><text class="cls-22" transform="translate(96.23 85.42)">0</text><text class="cls-17" transform="translate(99.23 83.42)">, </text><text class="cls-17" transform="translate(103.23 83.42)">y</text><text class="cls-22" transform="translate(106.79 85.42)">0</text><text class="cls-17" transform="translate(109.79 83.42)">,</text><text class="cls-17" transform="translate(111.79 83.42)"><tspan xml:space="preserve"> f</tspan></text><text class="cls-17" transform="translate(116.01 83.42)">(</text><text class="cls-17" transform="translate(118.67 83.42)">x</text><text class="cls-22" transform="translate(122.23 85.42)">0</text><text class="cls-17" transform="translate(125.23 83.42)">, </text><text class="cls-17" transform="translate(129.23 83.42)">y</text><text class="cls-22" transform="translate(132.78 85.42)">0</text><text class="cls-17" transform="translate(135.78 83.42)">))</text><text class="cls-17" transform="translate(123.99 144.48)">y</text><text class="cls-22" transform="translate(127.54 146.49)">0</text><text class="cls-17" transform="translate(40.06 145.14)">x</text><text class="cls-22" transform="translate(43.61 147.14)">0</text><text class="cls-17" transform="translate(27.98 174.53)">(</text><text class="cls-17" transform="translate(30.64 174.53)">x</text><text class="cls-22" transform="translate(34.19 176.53)">0</text><text class="cls-17" transform="translate(37.19 174.53)">, </text><text class="cls-17" transform="translate(41.19 174.53)">y</text><text class="cls-22" transform="translate(44.75 176.53)">0</text><text class="cls-17" transform="translate(47.75 174.53)">)</text><text class="cls-17" transform="translate(16.98 189.88)">(</text><text class="cls-17" transform="translate(19.64 189.88)">x</text><text class="cls-22" transform="translate(23.19 191.88)">0</text><text class="cls-17" transform="translate(26.19 189.88)">, </text><text class="cls-17" transform="translate(30.19 189.88)">y</text><text class="cls-22" transform="translate(33.75 191.88)">0 </text><text class="cls-17" transform="translate(38.25 189.88)">+</text><text class="cls-17" transform="translate(44.91 190.38)"> </text><text class="cls-17" transform="translate(46.91 189.88)">k</text><text class="cls-17" transform="translate(50.46 189.88)">)</text><text class="cls-17" transform="translate(2.95 207.62)">The curve </text><text class="cls-17" transform="translate(37.16 207.62)">z</text><text class="cls-17" transform="translate(40.27 207.62)"> </text><text class="cls-17" transform="translate(42.27 207.62)">=</text><text class="cls-17" transform="translate(48.93 207.62)"> </text><text class="cls-17" transform="translate(50.93 207.62)">f</text><text class="cls-17" transform="translate(53.16 207.62)">(</text><text class="cls-17" transform="translate(55.82 207.62)">x</text><text class="cls-22" transform="translate(59.37 209.62)">0</text><text class="cls-17" transform="translate(62.37 207.62)">, </text><text class="cls-17" transform="translate(66.37 207.62)">y</text><text class="cls-17" transform="translate(69.93 207.62)">)</text><text class="cls-17" transform="translate(35.26 217.22)">in the plane</text><text class="cls-17" transform="translate(51.82 226.82)">x</text><text class="cls-17" transform="translate(55.37 226.82)"> </text><text class="cls-17" transform="translate(57.37 226.82)">=</text><text class="cls-17" transform="translate(64.04 226.82)"> </text><text class="cls-17" transform="translate(66.04 226.82)">x</text><text class="cls-22" transform="translate(69.59 228.82)">0</text><text class="cls-17" transform="translate(88.07 212.09)">Horizontal axis</text><text class="cls-17" transform="translate(88.07 221.69)">in the plane </text><text class="cls-17" transform="translate(127.4 221.69)">x</text><text class="cls-17" transform="translate(130.95 221.69)"> </text><text class="cls-17" transform="translate(132.95 221.69)">=</text><text class="cls-17" transform="translate(139.61 221.69)"> </text><text class="cls-17" transform="translate(141.61 221.69)">x</text><text class="cls-22" transform="translate(145.16 223.69)">0</text><text class="cls-17" transform="translate(0.55 105.63)"> </text><text class="cls-17" transform="translate(2.55 105.63)">z</text><text class="cls-17" transform="translate(5.66 105.63)"> </text><text class="cls-17" transform="translate(7.66 105.63)">=</text><text class="cls-17" transform="translate(14.32 105.63)"> </text><text class="cls-17" transform="translate(16.32 105.63)">f</text><text class="cls-17" transform="translate(18.55 105.63)">(</text><text class="cls-17" transform="translate(21.21 105.63)">x</text><text class="cls-17" transform="translate(24.76 105.63)">, </text><text class="cls-17" transform="translate(28.76 105.63)">y</text><text class="cls-17" transform="translate(32.31 105.63)">)</text><text class="cls-17" transform="translate(4.59 64.07)">Tangent line</text><g class="cls-11"><text class="cls-17" transform="translate(47.07 6.65)">Vertical axis</text></g><text class="cls-17" transform="translate(50.39 16.25)">in the plane</text><text class="cls-17" transform="translate(66.95 25.85)">x</text><text class="cls-17" transform="translate(70.51 25.85)"> </text><text class="cls-17" transform="translate(72.51 25.85)">=</text><text class="cls-17" transform="translate(79.17 25.85)"> </text><text class="cls-17" transform="translate(81.17 25.85)">x</text><text class="cls-22" transform="translate(84.72 27.85)">0</text><g class="cls-11"><line class="cls-23" x1="102.31" y1="134.42" x2="50.93" y2="147.95"/><path class="cls-24" d="M66.53,92.69a1.75,1.75,0,1,1-1.75-1.75,1.75,1.75,0,0,1,1.75,1.75" transform="translate(-0.22 0.01)"/><circle class="cls-25" cx="64.56" cy="92.7" r="1.75"/></g><text class="cls-17" transform="translate(108.3 133.36)">0</text></g></g></svg>