<svg xmlns="http://www.w3.org/2000/svg" xmlns:xlink="http://www.w3.org/1999/xlink" viewBox="0 0 242.22 202.54"><defs><style>.cls-1,.cls-15,.cls-16,.cls-17,.cls-19,.cls-20,.cls-21,.cls-22,.cls-26,.cls-27,.cls-29{fill:none;}.cls-2{clip-path:url(#clip-path);}.cls-3{fill:url(#radial-gradient);}.cls-4{clip-path:url(#clip-path-2);}.cls-5{fill:url(#linear-gradient);}.cls-6{clip-path:url(#clip-path-3);}.cls-7{fill:url(#linear-gradient-2);}.cls-8{clip-path:url(#clip-path-4);}.cls-9{fill:url(#linear-gradient-3);}.cls-10{clip-path:url(#clip-path-5);}.cls-11{fill:url(#linear-gradient-4);}.cls-12{clip-path:url(#clip-path-6);}.cls-13{fill:url(#linear-gradient-5);}.cls-14{clip-path:url(#clip-path-7);}.cls-15,.cls-19{stroke:#fff;}.cls-15,.cls-16,.cls-17,.cls-19,.cls-20,.cls-21,.cls-22,.cls-26,.cls-29{stroke-miterlimit:3.86;}.cls-15,.cls-20{stroke-width:0.75px;}.cls-16,.cls-26{stroke:#00aeef;}.cls-17,.cls-22{stroke:#231f20;}.cls-17,.cls-21{stroke-width:0.5px;}.cls-18,.cls-23,.cls-24{fill:#231f20;}.cls-19,.cls-27{stroke-width:0.4px;}.cls-20,.cls-29{stroke:#ed1846;}.cls-21{stroke:#939598;stroke-dasharray:4 2;}.cls-22{stroke-width:0.3px;}.cls-23{font-size:8px;}.cls-23,.cls-24{font-family:TimesNewRomanPSMT, Times New Roman;}.cls-24{font-size:6px;}.cls-25{fill:#00aeef;}.cls-26,.cls-29{stroke-width:0.25px;}.cls-27{stroke:#b0aa97;}.cls-28{fill:#ed1846;}</style><clipPath id="clip-path" transform="translate(-0.22 -0.39)"><path class="cls-1" d="M32.21,159.68c2.1,1.66,17.85,11.66,20.64,12l61.2-16.08L139.73,181c5.33.05,38.83-8.45,42-9.36,1.83-14.59-9.17-84.09-41-128.4C43.31,76.09,34.06,148.84,32.21,159.68"/></clipPath><radialGradient id="radial-gradient" cx="-300.57" cy="551.21" r="1" gradientTransform="matrix(79.08, 0, 0, -79.08, 23876.89, 43704.25)" gradientUnits="userSpaceOnUse"><stop offset="0" stop-color="#e3f2e7"/><stop offset="1" stop-color="#87b996"/></radialGradient><clipPath id="clip-path-2" transform="translate(-0.22 -0.39)"><path class="cls-1" d="M114.05,155.84s6.14,6.31,12.41,12.62c6.58,6.62,13.31,13.24,13.27,12.58.08-29.45-17.42-79.7-25-92.64Z"/></clipPath><linearGradient id="linear-gradient" x1="-300.57" y1="551.2" x2="-299.57" y2="551.2" gradientTransform="matrix(25.68, 0, 0, -25.68, 7832.56, 14289.84)" gradientUnits="userSpaceOnUse"><stop offset="0" stop-color="#e3d6c9"/><stop offset="1" stop-color="#a4b88f"/></linearGradient><clipPath id="clip-path-3" transform="translate(-0.22 -0.39)"><path class="cls-1" d="M114.53,88.4c8.54,18,16.73,39.59,21.46,61.75l19.58-4.87.48-75.36A162.63,162.63,0,0,0,114.53,88.4"/></clipPath><linearGradient id="linear-gradient-2" x1="-300.57" y1="551.19" x2="-299.57" y2="551.19" gradientTransform="matrix(-59.04, 0, 0, 59.04, -17577.49, -32429.98)" gradientUnits="userSpaceOnUse"><stop offset="0" stop-color="#fff1eb"/><stop offset="1" stop-color="#cc8d7b"/></linearGradient><clipPath id="clip-path-4" transform="translate(-0.22 -0.39)"><path class="cls-1" d="M99.89,62.48l.48,35.76a133.68,133.68,0,0,1,14.16-10.08A181.61,181.61,0,0,0,99.89,62.48Z"/></clipPath><linearGradient id="linear-gradient-3" x1="-300.57" y1="551.19" x2="-299.57" y2="551.19" gradientTransform="matrix(0, -92.81, -92.81, 0, 51260.04, -27739.76)" xlink:href="#linear-gradient-2"/><clipPath id="clip-path-5" transform="translate(-0.22 -0.39)"><path class="cls-1" d="M52.85,171.68l61.2-16.08.48-67.44c-36.27,22.28-57.8,55-61.68,83.52"/></clipPath><linearGradient id="linear-gradient-4" x1="-300.57" y1="551.21" x2="-299.57" y2="551.21" gradientTransform="matrix(0, -47.77, -47.77, 0, 26417.2, -14186.53)" xlink:href="#linear-gradient"/><clipPath id="clip-path-6" transform="translate(-0.22 -0.39)"><path class="cls-1" d="M100.37,98.24v42.48l13.68,15.12.48-67.68a126.1,126.1,0,0,0-14.16,10.08"/></clipPath><linearGradient id="linear-gradient-5" x1="-300.57" y1="551.23" x2="-299.57" y2="551.23" gradientTransform="matrix(0, -92.8, -92.8, 0, 51261.71, -27737.53)" xlink:href="#linear-gradient-2"/><clipPath id="clip-path-7" transform="translate(-0.22 -0.39)"><rect class="cls-1" width="245.89" height="202.89"/></clipPath></defs><g id="Layer_2" data-name="Layer 2"><g id="Layer_1-2" data-name="Layer 1"><g class="cls-2"><rect class="cls-3" x="32" y="42.89" width="151.34" height="137.81"/></g><g class="cls-4"><rect class="cls-5" x="113.84" y="88.01" width="25.75" height="93.31"/></g><g class="cls-6"><rect class="cls-7" x="109.46" y="67.55" width="51.67" height="84.97" transform="translate(-13.46 18.27) rotate(-7.52)"/></g><g class="cls-8"><rect class="cls-9" x="96.38" y="61.36" width="21.67" height="38" transform="translate(-14.43 23.33) rotate(-11.84)"/></g><g class="cls-10"><rect class="cls-11" x="33.63" y="78.03" width="100.12" height="103.78" transform="translate(-62.63 79.17) rotate(-38.19)"/></g><g class="cls-12"><rect class="cls-13" x="93.58" y="87.43" width="27.75" height="69.15" transform="translate(-22.97 24.26) rotate(-11.84)"/></g><g class="cls-14"><path class="cls-15" d="M52.85,171.68c5.21-38.09,42-83.84,103.44-102" transform="translate(-0.22 -0.39)"/><path class="cls-16" d="M52.85,171.68c5.21-38.09,42-83.84,103.44-102" transform="translate(-0.22 -0.39)"/><line class="cls-17" x1="29.76" y1="159.6" x2="5.81" y2="166.05"/><path class="cls-18" d="M5,166.71a8,8,0,0,1,3.84.83l0-.17-2.45-1L8,164.24l0-.18A8,8,0,0,1,5,166.71" transform="translate(-0.22 -0.39)"/><path class="cls-19" d="M93.65,45.68l76.08,152.64M17.57,145.76l160.08-96" transform="translate(-0.22 -0.39)"/><path class="cls-20" d="M93.65,45.68l76.08,152.64M17.57,145.76l160.08-96" transform="translate(-0.22 -0.39)"/><line class="cls-17" x1="182" y1="171.77" x2="204.78" y2="194.78"/><path class="cls-18" d="M205.73,195.92a8.07,8.07,0,0,1-1.18-3.75l-.13.12.33,2.64-2.63-.36-.13.13a8,8,0,0,1,3.74,1.22" transform="translate(-0.22 -0.39)"/><path class="cls-21" d="M140.45,130.16,32.5,159.36m108-29.2,40.08,40.08" transform="translate(-0.22 -0.39)"/><line class="cls-17" x1="114.32" y1="85.85" x2="114.32" y2="38.81"/><line class="cls-22" x1="71.26" y1="70.07" x2="102.9" y2="67.14"/><line class="cls-17" x1="72.8" y1="43.37" x2="94.88" y2="50.33"/><line class="cls-22" x1="187.04" y1="112.73" x2="169.76" y2="124.01"/><line class="cls-17" x1="140.48" y1="41.93" x2="140.48" y2="11.78"/><path class="cls-18" d="M140.69,11.12a8,8,0,0,1-1.8,3.5h.18l1.62-2.1,1.62,2.1h.18a8,8,0,0,1-1.8-3.5" transform="translate(-0.22 -0.39)"/><path class="cls-22" d="M123.89,189.44l8.64-27.12m-42,27.12,22.75-31.89M51.17,188.72l15.12-31M171,77.8l-23.82-5.08" transform="translate(-0.22 -0.39)"/></g><text class="cls-23" transform="translate(0 170.16)">x</text><g class="cls-14"><line class="cls-21" x1="140.24" y1="129.77" x2="140.48" y2="44.29"/></g><text class="cls-23" transform="translate(206.96 200.09)">y</text><text class="cls-23" transform="translate(139.04 6.65)">z</text><text class="cls-23" transform="translate(9.32 31.54)">This tangent line</text><text class="cls-23" transform="translate(9.32 41.14)">has slope </text><text class="cls-23" transform="translate(40.87 41.14)">f</text><text class="cls-24" transform="translate(43.09 43.14)">y</text><text class="cls-23" transform="translate(45.75 41.14)">(</text><text class="cls-23" transform="translate(48.42 41.14)">x</text><text class="cls-24" transform="translate(51.97 43.14)">0</text><text class="cls-23" transform="translate(54.97 41.14)">,</text><text class="cls-23" transform="translate(56.97 41.14)"><tspan xml:space="preserve"> y</tspan></text><text class="cls-24" transform="translate(62.52 43.14)">0</text><text class="cls-23" transform="translate(65.52 41.14)">).</text><text class="cls-23" transform="translate(179.92 42.97)">This tangent line</text><text class="cls-23" transform="translate(179.92 52.57)">has slope </text><text class="cls-23" transform="translate(211.48 52.57)">f</text><text class="cls-24" transform="translate(213.7 54.57)">x</text><text class="cls-23" transform="translate(216.36 52.57)">(</text><text class="cls-23" transform="translate(219.02 52.57)">x</text><text class="cls-24" transform="translate(222.58 54.57)">0</text><text class="cls-23" transform="translate(225.58 52.57)">,</text><text class="cls-23" transform="translate(227.58 52.57)"><tspan xml:space="preserve"> y</tspan></text><text class="cls-24" transform="translate(233.13 54.57)">0</text><text class="cls-23" transform="translate(236.13 52.57)">).</text><text class="cls-23" transform="translate(172.59 75.68)">The curve </text><text class="cls-23" transform="translate(206.79 75.68)">z</text><text class="cls-23" transform="translate(209.9 75.68)"> </text><text class="cls-23" transform="translate(211.9 75.68)">=</text><text class="cls-23" transform="translate(218.57 75.68)"> </text><text class="cls-23" transform="translate(220.57 75.68)">f</text><text class="cls-23" transform="translate(222.79 75.68)">(</text><text class="cls-23" transform="translate(225.46 75.68)">x</text><text class="cls-23" transform="translate(229.01 75.68)">,</text><text class="cls-23" transform="translate(231.01 75.68)"><tspan xml:space="preserve"> y</tspan></text><text class="cls-24" transform="translate(236.56 77.68)">0</text><text class="cls-23" transform="translate(239.56 75.68)">)</text><text class="cls-23" transform="translate(172.58 85.28)">in the plane </text><text class="cls-23" transform="translate(211.91 85.28)">y</text><text class="cls-23" transform="translate(215.46 85.28)"> </text><text class="cls-23" transform="translate(217.46 85.28)">=</text><text class="cls-23" transform="translate(224.13 85.28)"> </text><text class="cls-23" transform="translate(226.13 85.28)">y</text><text class="cls-24" transform="translate(229.68 87.28)">0</text><text class="cls-23" transform="translate(189.11 113.57)">z</text><text class="cls-23" transform="translate(192.22 113.57)"> </text><text class="cls-23" transform="translate(194.22 113.57)">=</text><text class="cls-23" transform="translate(200.88 113.57)"><tspan xml:space="preserve">  </tspan></text><text class="cls-23" transform="translate(204.88 113.57)">f</text><text class="cls-23" transform="translate(207.11 113.57)">(</text><text class="cls-23" transform="translate(209.77 113.57)">x</text><text class="cls-23" transform="translate(213.32 113.57)">,</text><text class="cls-23" transform="translate(215.32 113.57)"><tspan xml:space="preserve"> y</tspan></text><text class="cls-23" transform="translate(220.87 113.57)">)</text><text class="cls-23" transform="translate(114.87 195.46)">x </text><text class="cls-23" transform="translate(120.43 195.46)">=</text><text class="cls-24" transform="translate(127.09 195.46)"> </text><text class="cls-23" transform="translate(128.59 195.46)">x</text><text class="cls-24" transform="translate(132.14 197.46)">0</text><text class="cls-23" transform="translate(41.02 194.69)">y </text><text class="cls-23" transform="translate(46.57 194.69)">=</text><text class="cls-24" transform="translate(53.24 194.69)"> </text><text class="cls-23" transform="translate(54.74 194.69)">y</text><text class="cls-24" transform="translate(58.29 196.69)">0</text><text class="cls-23" transform="translate(77.76 196.6)">(</text><text class="cls-23" transform="translate(80.42 196.6)">x</text><text class="cls-24" transform="translate(83.97 198.6)">0</text><text class="cls-23" transform="translate(86.97 196.6)">,</text><text class="cls-24" transform="translate(88.97 196.6)"> </text><text class="cls-23" transform="translate(90.47 196.6)">y</text><text class="cls-24" transform="translate(94.02 198.6)">0</text><text class="cls-23" transform="translate(97.02 196.6)">)</text><text class="cls-23" transform="translate(6.84 64.16)">The curve </text><text class="cls-23" transform="translate(41.05 64.16)">z</text><text class="cls-23" transform="translate(44.16 64.16)"> </text><text class="cls-23" transform="translate(46.16 64.16)">=</text><text class="cls-23" transform="translate(52.82 64.16)"> </text><text class="cls-23" transform="translate(54.82 64.16)">f</text><text class="cls-23" transform="translate(57.05 64.16)">(</text><text class="cls-23" transform="translate(59.71 64.16)">x</text><text class="cls-24" transform="translate(63.26 66.17)">0</text><text class="cls-23" transform="translate(66.26 64.17)">,</text><text class="cls-23" transform="translate(68.26 64.17)"><tspan xml:space="preserve"> y</tspan></text><text class="cls-23" transform="translate(73.82 64.17)">)</text><text class="cls-23" transform="translate(6.84 73.77)">in the plane </text><text class="cls-23" transform="translate(46.17 73.77)">x </text><text class="cls-23" transform="translate(51.72 73.77)">=</text><text class="cls-24" transform="translate(58.38 73.77)"> </text><text class="cls-23" transform="translate(59.88 73.77)">x</text><text class="cls-24" transform="translate(63.44 75.77)">0</text><text class="cls-23" transform="translate(76.33 35.45)"> </text><text class="cls-23" transform="translate(78.33 35.45)">P</text><text class="cls-23" transform="translate(83.22 35.45)">(</text><text class="cls-23" transform="translate(85.89 35.45)">x</text><text class="cls-24" transform="translate(89.44 37.45)">0</text><text class="cls-23" transform="translate(92.44 35.45)">,</text><text class="cls-23" transform="translate(94.44 35.45)"><tspan xml:space="preserve"> y</tspan></text><text class="cls-24" transform="translate(99.99 37.45)">0</text><text class="cls-23" transform="translate(102.99 35.45)">, </text><text class="cls-23" transform="translate(106.99 35.45)">f</text><text class="cls-23" transform="translate(109.21 35.45)">(</text><text class="cls-23" transform="translate(111.88 35.45)">x</text><text class="cls-24" transform="translate(115.43 37.45)">0</text><text class="cls-23" transform="translate(118.43 35.45)">,</text><text class="cls-23" transform="translate(120.43 35.45)"><tspan xml:space="preserve"> y</tspan></text><text class="cls-24" transform="translate(125.98 37.45)">0</text><text class="cls-23" transform="translate(128.98 35.45)">))</text><g class="cls-14"><path class="cls-25" d="M116.28,88a1.75,1.75,0,1,1-1.75-1.75A1.75,1.75,0,0,1,116.28,88" transform="translate(-0.22 -0.39)"/><circle class="cls-26" cx="114.32" cy="87.59" r="1.75"/><line class="cls-27" x1="113.84" y1="155.21" x2="135.78" y2="149.76"/><path class="cls-28" d="M115.8,155.6a1.75,1.75,0,1,1-1.75-1.75,1.75,1.75,0,0,1,1.75,1.75" transform="translate(-0.22 -0.39)"/><circle class="cls-29" cx="113.84" cy="155.21" r="1.75"/><path class="cls-15" d="M139.73,180.8c-1.17-41.71-23.67-96-39.84-118.32" transform="translate(-0.22 -0.39)"/><path class="cls-16" d="M139.73,180.8c-1.17-41.71-23.67-96-39.84-118.32" transform="translate(-0.22 -0.39)"/></g></g></g></svg>