<svg xmlns="http://www.w3.org/2000/svg" xmlns:xlink="http://www.w3.org/1999/xlink" viewBox="0 0 208.07 193.46"><defs><style>.cls-1,.cls-10,.cls-11,.cls-12,.cls-13,.cls-14,.cls-16,.cls-18,.cls-20,.cls-24,.cls-26,.cls-7,.cls-8,.cls-9{fill:none;}.cls-2{clip-path:url(#clip-path);}.cls-3{fill:url(#linear-gradient);}.cls-4{clip-path:url(#clip-path-2);}.cls-5{fill:url(#linear-gradient-2);}.cls-6{clip-path:url(#clip-path-3);}.cls-7,.cls-9{stroke:#fff;}.cls-7,.cls-8{stroke-linecap:round;stroke-linejoin:round;}.cls-10,.cls-7{stroke-width:0.75px;}.cls-26,.cls-8{stroke:#00aeef;}.cls-10,.cls-11,.cls-12,.cls-13,.cls-14,.cls-16,.cls-18,.cls-20,.cls-24,.cls-26,.cls-9{stroke-miterlimit:3.86;}.cls-9{stroke-width:0.4px;}.cls-10,.cls-11,.cls-12,.cls-13,.cls-24{stroke:#ed1846;}.cls-11,.cls-12,.cls-13,.cls-14,.cls-16,.cls-20{stroke-width:0.5px;}.cls-11,.cls-24{stroke-dasharray:4 2;}.cls-13{stroke-dasharray:3.8 1.7;}.cls-14,.cls-18{stroke:#231f20;}.cls-15,.cls-17,.cls-22{fill:#231f20;}.cls-16,.cls-20{stroke:#939598;}.cls-16{stroke-dasharray:4 1.9;}.cls-17{font-size:8px;}.cls-17,.cls-22{font-family:TimesNewRomanPSMT, Times New Roman;}.cls-18{stroke-width:0.3px;}.cls-19{letter-spacing:-0.07em;}.cls-20{stroke-dasharray:4 2.2;}.cls-21{letter-spacing:-0.01em;}.cls-22{font-size:6px;}.cls-23{fill:#ed1846;}.cls-24,.cls-26{stroke-width:0.25px;}.cls-25{fill:#00aeef;}</style><clipPath id="clip-path" transform="translate(0 -0.19)"><path class="cls-1" d="M76.07,129l-14.16-5.52V164l84.72-22.8V82.92C96.74,99.27,76.14,129,76.07,129"/></clipPath><linearGradient id="linear-gradient" x1="-340.82" y1="757.1" x2="-339.82" y2="757.1" gradientTransform="matrix(84.72, 0, 0, -84.72, 28935.9, 64264.95)" gradientUnits="userSpaceOnUse"><stop offset="0" stop-color="#edf7f3"/><stop offset="1" stop-color="#b2ded3"/></linearGradient><clipPath id="clip-path-2" transform="translate(0 -0.19)"><path class="cls-1" d="M84,80.76c-14.65,9.61-29.51,22-37.54,36.53L76.1,129h0c.14-.38,10.74-15.31,34.28-29.47a170.94,170.94,0,0,1,44.17-19L139.19,54.84c-.05,0-28.55,8.63-55.2,25.92"/></clipPath><linearGradient id="linear-gradient-2" x1="-340.82" y1="757.12" x2="-339.82" y2="757.12" gradientTransform="matrix(109.84, 0, 0, -109.84, 37490.99, 83256.57)" gradientUnits="userSpaceOnUse"><stop offset="0" stop-color="#a7a9ac"/><stop offset="0.1" stop-color="#b9babd"/><stop offset="0.27" stop-color="#d2d3d5"/><stop offset="0.43" stop-color="#e1e2e3"/><stop offset="0.56" stop-color="#e6e7e8"/><stop offset="0.75" stop-color="#cdcfd0"/><stop offset="1" stop-color="#a7a9ac"/></linearGradient><clipPath id="clip-path-3" transform="translate(0 -0.19)"><rect class="cls-1" width="212.33" height="191.5"/></clipPath></defs><g id="Layer_2" data-name="Layer 2"><g id="Layer_1-2" data-name="Layer 1"><g class="cls-2"><rect class="cls-3" x="61.91" y="82.73" width="84.72" height="81.12"/></g><g class="cls-4"><rect class="cls-5" x="35.2" y="28.94" width="130.6" height="125.98" transform="translate(-35.52 84.66) rotate(-39.47)"/></g><g class="cls-6"><path class="cls-7" d="M61.43,123.24c29-40.49,81.65-54.88,84.81-55.65" transform="translate(0 -0.19)"/><path class="cls-8" d="M61.43,123.24c29-40.49,81.65-54.88,84.81-55.65" transform="translate(0 -0.19)"/><line class="cls-9" x1="20.87" y1="133.37" x2="168.23" y2="47.69"/><line class="cls-10" x1="20.87" y1="133.37" x2="168.23" y2="47.69"/><line class="cls-11" x1="106.55" y1="100.09" x2="106.55" y2="84.81"/><line class="cls-12" x1="106.55" y1="151.13" x2="106.55" y2="101.96"/><line class="cls-11" x1="93.83" y1="138.41" x2="106.55" y2="151.13"/><line class="cls-13" x1="79.91" y1="122.22" x2="79.91" y2="102.89"/><line class="cls-12" x1="79.91" y1="159.05" x2="79.91" y2="124.4"/><path class="cls-14" d="M146.87,141.24l23,23m-23-15.55V82.92" transform="translate(0 -0.19)"/><polygon class="cls-15" points="167.64 164.29 171.35 165.53 170.11 161.82 169.87 164.04 167.64 164.29"/><line class="cls-14" x1="131.75" y1="55.85" x2="131.75" y2="11.39"/><polygon class="cls-15" points="133.5 12.79 131.75 9.29 130 12.79 131.75 11.39 133.5 12.79"/><line class="cls-16" x1="131.75" y1="125.69" x2="146.09" y2="140.38"/><line class="cls-14" x1="59.51" y1="145.13" x2="21.46" y2="155.15"/><polygon class="cls-15" points="22.37 153.1 19.43 155.69 23.26 156.49 21.46 155.15 22.37 153.1"/><line class="cls-16" x1="131.75" y1="125.69" x2="131.75" y2="57.38"/></g><text class="cls-17" transform="translate(14.63 158.57)">x</text><text class="cls-17" transform="translate(172.55 167.93)">y</text><text class="cls-17" transform="translate(130.07 6.65)">z</text><text class="cls-17" transform="translate(132.95 126.17)">0</text><g class="cls-6"><line class="cls-18" x1="81.11" y1="57.53" x2="105.3" y2="82.84"/></g><text class="cls-17" transform="translate(148.79 65.21)"> </text><g class="cls-6"><line class="cls-14" x1="146.87" y1="66.89" x2="146.87" y2="26.51"/><polygon class="cls-15" points="148.62 27.91 146.87 24.41 145.12 27.91 146.87 26.51 148.62 27.91"/><path class="cls-18" d="M77.27,169.08l2.64-9.36m31.2,1.44-4.56-9.6m50.88-83L149,76.44" transform="translate(0 -0.19)"/></g><text class="cls-17" transform="translate(1.19 107.21)"><tspan class="cls-19">T</tspan><tspan x="4.33" y="0">angent line</tspan></text><g class="cls-6"><path class="cls-18" d="M69.59,106.92l2.88,2.64M47,87.24l20.64,18m-20.4,75.84L44.63,168.6M19.91,110.52l7.2,19.2" transform="translate(0 -0.19)"/><line class="cls-20" x1="131.75" y1="125.69" x2="61.82" y2="144.47"/><line class="cls-14" x1="155.75" y1="138.65" x2="36.58" y2="170.51"/><polygon class="cls-15" points="37.48 168.46 34.55 171.05 38.38 171.84 36.58 170.51 37.48 168.46"/></g><text class="cls-17" transform="translate(0 73.36)">The cur<tspan class="cls-21" x="24.65" y="0">v</tspan><tspan x="28.54" y="0">e </tspan></text><text class="cls-17" transform="translate(34.09 73.36)">z</text><text class="cls-17" transform="translate(37.2 73.36)"> </text><text class="cls-17" transform="translate(39.2 73.36)">=</text><text class="cls-17" transform="translate(45.86 73.36)"> </text><text class="cls-17" transform="translate(47.86 73.36)">f</text><text class="cls-17" transform="translate(50.09 73.36)">(</text><text class="cls-17" transform="translate(52.75 73.36)">x</text><text class="cls-17" transform="translate(56.31 73.36)">, </text><text class="cls-17" transform="translate(60.31 73.36)">y</text><text class="cls-22" transform="translate(63.86 75.36)">0</text><text class="cls-17" transform="translate(66.86 73.36)">)</text><text class="cls-17" transform="translate(0 82.96)">in the plane </text><text class="cls-17" transform="translate(39.33 82.96)">y</text><text class="cls-17" transform="translate(42.88 82.96)"> </text><text class="cls-17" transform="translate(44.88 82.96)">=</text><text class="cls-17" transform="translate(51.54 82.96)"> </text><text class="cls-17" transform="translate(53.54 82.96)">y</text><text class="cls-22" transform="translate(57.1 84.96)">0</text><text class="cls-17" transform="translate(52.44 51.97)">P</text><text class="cls-17" transform="translate(57.32 51.97)">(</text><text class="cls-17" transform="translate(59.99 51.97)">x</text><text class="cls-22" transform="translate(63.54 53.97)">0</text><text class="cls-17" transform="translate(66.54 51.97)">, </text><text class="cls-17" transform="translate(70.54 51.97)">y</text><text class="cls-22" transform="translate(74.09 53.97)">0</text><text class="cls-17" transform="translate(77.09 51.97)">,</text><text class="cls-17" transform="translate(79.09 51.97)"><tspan xml:space="preserve"> f</tspan></text><text class="cls-17" transform="translate(83.31 51.97)">(</text><text class="cls-17" transform="translate(85.98 51.97)">x</text><text class="cls-22" transform="translate(89.53 53.97)">0</text><text class="cls-17" transform="translate(92.53 51.97)">, </text><text class="cls-17" transform="translate(96.53 51.97)">y</text><text class="cls-22" transform="translate(100.08 53.97)">0</text><text class="cls-17" transform="translate(103.08 51.97)">))</text><text class="cls-17" transform="translate(156.2 27.18)">Vertical axis in</text><text class="cls-17" transform="translate(156.2 36.78)">the plane </text><text class="cls-17" transform="translate(187.31 36.78)">y</text><text class="cls-17" transform="translate(190.86 36.78)"> </text><text class="cls-17" transform="translate(192.86 36.78)">=</text><text class="cls-17" transform="translate(199.52 36.78)"> </text><text class="cls-17" transform="translate(201.52 36.78)">y</text><text class="cls-22" transform="translate(205.07 38.78)">0</text><text class="cls-17" transform="translate(156.04 65.58)">z</text><text class="cls-17" transform="translate(159.15 65.58)"> </text><text class="cls-17" transform="translate(161.15 65.58)">=</text><text class="cls-17" transform="translate(167.82 65.58)"> </text><text class="cls-17" transform="translate(169.82 65.58)">f</text><text class="cls-17" transform="translate(172.04 65.58)">(</text><text class="cls-17" transform="translate(174.7 65.58)">x</text><text class="cls-17" transform="translate(178.26 65.58)">, </text><text class="cls-17" transform="translate(182.26 65.58)">y</text><text class="cls-17" transform="translate(185.81 65.58)">)</text><text class="cls-17" transform="translate(154.21 144.91)">y</text><text class="cls-22" transform="translate(157.76 146.91)">0</text><text class="cls-17" transform="translate(81.52 132.07)">x</text><text class="cls-22" transform="translate(85.07 134.07)">0</text><text class="cls-17" transform="translate(7.69 189.62)">Horizontal axis in the plane </text><text class="cls-17" transform="translate(98.12 189.62)">y</text><text class="cls-17" transform="translate(101.68 189.62)"> </text><text class="cls-17" transform="translate(103.68 189.62)">=</text><text class="cls-17" transform="translate(110.34 189.62)"> </text><text class="cls-17" transform="translate(112.34 189.62)">y</text><g class="cls-6"><text class="cls-22" transform="translate(115.89 191.62)">0</text></g><text class="cls-17" transform="translate(61.57 177.01)">(</text><text class="cls-17" transform="translate(64.24 177.01)">x</text><text class="cls-22" transform="translate(67.79 179.01)">0</text><text class="cls-22" transform="translate(70.79 177.01)"> </text><text class="cls-17" transform="translate(72.29 177.01)">+</text><text class="cls-17" transform="translate(78.95 177.01)"> </text><text class="cls-17" transform="translate(80.95 177.01)">h</text><text class="cls-17" transform="translate(84.95 177.01)">,</text><text class="cls-22" transform="translate(86.95 177.01)"> </text><text class="cls-17" transform="translate(88.45 177.01)"> </text><text class="cls-17" transform="translate(90.45 177.01)">y</text><text class="cls-22" transform="translate(94.01 179.01)">0</text><text class="cls-17" transform="translate(97.01 177.01)">)</text><text class="cls-17" transform="translate(102.85 167.84)">(</text><text class="cls-17" transform="translate(105.51 167.84)">x</text><text class="cls-22" transform="translate(109.06 169.84)">0</text><text class="cls-17" transform="translate(112.06 167.84)">, </text><text class="cls-17" transform="translate(116.06 167.84)">y</text><text class="cls-22" transform="translate(119.61 169.84)">0</text><text class="cls-17" transform="translate(122.61 167.84)">)</text><g class="cls-6"><path class="cls-23" d="M108.3,151.56a1.75,1.75,0,1,1-1.75-1.75,1.75,1.75,0,0,1,1.75,1.75" transform="translate(0 -0.19)"/><circle class="cls-24" cx="106.55" cy="151.37" r="1.75"/><path class="cls-25" d="M108.3,84.36a1.75,1.75,0,1,1-1.75-1.75,1.75,1.75,0,0,1,1.75,1.75" transform="translate(0 -0.19)"/><circle class="cls-26" cx="106.55" cy="84.17" r="1.75"/><line class="cls-18" x1="155.46" y1="30.04" x2="147.86" y2="32.89"/></g></g></g></svg>