<?xml version="1.0" encoding="utf-8"?>
<!-- Generator: Adobe Illustrator 26.0.0, SVG Export Plug-In . SVG Version: 6.00 Build 0)  -->
<svg version="1.1" id="Layer_1" xmlns="http://www.w3.org/2000/svg" xmlns:xlink="http://www.w3.org/1999/xlink" x="0px" y="0px"
	 viewBox="0 0 453 299" style="enable-background:new 0 0 453 299;" xml:space="preserve">
<style type="text/css">
	.st0{clip-path:url(#SVGID_00000034774915658180624940000008279902649135017096_);}
	.st1{clip-path:url(#SVGID_00000025427173523651511110000011968735198529952657_);}
	.st2{fill-rule:evenodd;clip-rule:evenodd;fill:#8ED1C6;}
	.st3{fill:none;stroke:#E21F26;stroke-width:2.4;stroke-linejoin:round;}
	.st4{fill-rule:evenodd;clip-rule:evenodd;}
	.st5{fill:none;stroke:#F69999;stroke-width:2.4;stroke-linejoin:round;}
	.st6{fill:none;stroke:#1F78B4;stroke-width:2.4;stroke-linejoin:round;}
	.st7{fill-rule:evenodd;clip-rule:evenodd;fill:#1F78B4;}
</style>
<g id="Layer_2_00000007415620484817040240000005770474005297011336_">
	<g id="Layer_1-2">
		<g>
			<defs>
				<rect id="SVGID_1_" x="-159" y="-40.7" width="800" height="600"/>
			</defs>
			<clipPath id="SVGID_00000107584736656034046620000003147417807312684703_">
				<use xlink:href="#SVGID_1_"  style="overflow:visible;"/>
			</clipPath>
			<g style="clip-path:url(#SVGID_00000107584736656034046620000003147417807312684703_);">
				<g>
					<defs>
						<rect id="SVGID_00000035507514021496354430000018211608769623884204_" x="602" y="-32.1" width="30.9" height="10.5"/>
					</defs>
					<clipPath id="SVGID_00000165940400266964705030000014800690806719547017_">
						<use xlink:href="#SVGID_00000035507514021496354430000018211608769623884204_"  style="overflow:visible;"/>
					</clipPath>
					<g style="clip-path:url(#SVGID_00000165940400266964705030000014800690806719547017_);">
						
							<text transform="matrix(1 0 0 1 603 -22.7223)" style="fill:#808080; font-family:'ArialMT'; font-size:11.96px; letter-spacing:3;">9</text>
						
							<text transform="matrix(1 0 0 1 612.6 -22.7223)" style="fill:#808080; font-family:'ArialMT'; font-size:11.96px; letter-spacing:3;">-</text>
						<text transform="matrix(1 0 0 1 619.75 -22.7223)" style="fill:#808080; font-family:'ArialMT'; font-size:11.96px;">10</text>
					</g>
				</g>
				<polygon class="st2" points="70.6,199.2 62.4,114.1 103.5,55.5 319.9,65.4 362.7,154 284.7,227.9 111.7,244.3 				"/>
				<polygon class="st3" points="70.6,199.2 62.4,114.1 103.5,55.5 319.9,65.4 362.7,154 284.7,227.9 111.7,244.3 				"/>
				<path class="st4" d="M76,199.2c0-3-2.4-5.4-5.4-5.4s-5.4,2.4-5.4,5.4c0,3,2.4,5.4,5.4,5.4h0C73.6,204.6,76,202.1,76,199.2"/>
				<path class="st4" d="M67.8,114.1c0-3-2.4-5.4-5.4-5.4s-5.4,2.4-5.4,5.4c0,3,2.4,5.4,5.4,5.4h0C65.4,119.5,67.8,117.1,67.8,114.1
					"/>
				<path class="st4" d="M108.9,55.5c0-3-2.4-5.4-5.4-5.4s-5.4,2.4-5.4,5.4s2.4,5.4,5.4,5.4l0,0C106.4,60.9,108.9,58.5,108.9,55.5
					C108.9,55.5,108.9,55.5,108.9,55.5"/>
				<path class="st4" d="M216.9,60.4c0-3-2.4-5.4-5.4-5.4s-5.4,2.4-5.4,5.4s2.4,5.4,5.4,5.4l0,0C214.5,65.8,216.9,63.4,216.9,60.4"
					/>
				<path class="st4" d="M131.7,134.6c0-3-2.4-5.4-5.4-5.4s-5.4,2.4-5.4,5.4c0,3,2.4,5.4,5.4,5.4l0,0
					C129.3,140,131.7,137.6,131.7,134.6"/>
				<path class="st4" d="M368.1,154c0-3-2.4-5.4-5.4-5.4c-3,0-5.4,2.4-5.4,5.4s2.4,5.4,5.4,5.4S368.1,157,368.1,154L368.1,154"/>
				<path class="st4" d="M290.1,227.9c0-3-2.4-5.4-5.4-5.4c-3,0-5.4,2.4-5.4,5.4c0,3,2.4,5.4,5.4,5.4l0,0
					C287.7,233.3,290.1,230.9,290.1,227.9"/>
				<path class="st4" d="M325.3,65.4c0-3-2.4-5.4-5.4-5.4s-5.4,2.4-5.4,5.4s2.4,5.4,5.4,5.4l0,0C322.9,70.8,325.3,68.4,325.3,65.4"
					/>
				<path class="st4" d="M239.7,171.6c0-3-2.4-5.4-5.4-5.4s-5.4,2.4-5.4,5.4c0,3,2.4,5.4,5.4,5.4l0,0
					C237.2,177,239.7,174.6,239.7,171.6"/>
				<path class="st4" d="M270.1,152.3c0-3-2.4-5.4-5.4-5.4s-5.4,2.4-5.4,5.4c0,3,2.4,5.4,5.4,5.4l0,0
					C267.7,157.7,270.1,155.3,270.1,152.3"/>
				<path class="st4" d="M117.1,244.3c0-3-2.4-5.4-5.4-5.4c-3,0-5.4,2.4-5.4,5.4s2.4,5.4,5.4,5.4c0,0,0,0,0,0
					C114.7,249.7,117.1,247.3,117.1,244.3C117.1,244.3,117.1,244.3,117.1,244.3"/>
				<path class="st5" d="M47.4,158.8c-1-36.5-35.2-67-20.3-96.3S105.8,5,146.9,6s59.2,31.1,98.6,31.5s100-28.9,143.4-4.3
					s69.6,103.2,40.1,156.1s-114.8,80.1-198.2,90.9s-165.2,5.4-189.9-18.6S48.3,195.3,47.4,158.8z"/>
				<line class="st6" x1="44.2" y1="54.9" x2="68.9" y2="76.6"/>
				<polygon class="st7" points="68.9,76.6 60.9,62.9 54.3,70.4 				"/>
				<polygon class="st6" points="68.9,76.6 60.9,62.9 54.3,70.4 				"/>
				<line class="st6" x1="150.4" y1="15.6" x2="149.8" y2="47.8"/>
				<polygon class="st7" points="149.8,47.8 155.1,32.9 145.1,32.7 				"/>
				<polygon class="st6" points="149.8,47.8 155.1,32.9 145.1,32.7 				"/>
				<line class="st6" x1="51.3" y1="259.6" x2="81.2" y2="231.4"/>
				<polygon class="st7" points="81.2,231.4 66.8,238.1 73.7,245.3 				"/>
				<polygon class="st6" points="81.2,231.4 66.8,238.1 73.7,245.3 				"/>
				<line class="st6" x1="206.7" y1="275.4" x2="202" y2="246.7"/>
				<polygon class="st7" points="202,246.7 199.5,262.3 209.3,260.7 				"/>
				<polygon class="st6" points="202,246.7 199.5,262.3 209.3,260.7 				"/>
				<line class="st6" x1="369.1" y1="227.3" x2="337.5" y2="198.6"/>
				<polygon class="st7" points="337.5,198.6 345.2,212.3 352,205 				"/>
				<polygon class="st6" points="337.5,198.6 345.2,212.3 352,205 				"/>
				<line class="st6" x1="358" y1="31.4" x2="339.8" y2="50.8"/>
				<polygon class="st7" points="339.8,50.8 353.7,43.3 346.5,36.4 				"/>
				<polygon class="st6" points="339.8,50.8 353.7,43.3 346.5,36.4 				"/>
				<line class="st6" x1="420.2" y1="94.8" x2="378.5" y2="109.4"/>
				<polygon class="st7" points="378.5,109.4 394.3,109.1 391,99.7 				"/>
				<polygon class="st6" points="378.5,109.4 394.3,109.1 391,99.7 				"/>
				<line class="st6" x1="421.3" y1="174.5" x2="389.1" y2="161"/>
				<polygon class="st7" points="389.1,161 401,171.4 404.9,162.2 				"/>
				<polygon class="st6" points="389.1,161 401,171.4 404.9,162.2 				"/>
				<path class="st4" d="M190.8,110.2c0-3-2.4-5.4-5.4-5.4s-5.4,2.4-5.4,5.4c0,3,2.4,5.4,5.4,5.4l0,0
					C188.4,115.6,190.8,113.2,190.8,110.2"/>
				<path class="st4" d="M181.8,210.5c0-3-2.4-5.4-5.4-5.4c-3,0-5.4,2.4-5.4,5.4c0,3,2.4,5.4,5.4,5.4
					C179.4,215.9,181.8,213.5,181.8,210.5C181.8,210.5,181.8,210.5,181.8,210.5"/>
			</g>
		</g>
	</g>
</g>
</svg>
