<svg xmlns="http://www.w3.org/2000/svg" xmlns:xlink="http://www.w3.org/1999/xlink" viewBox="0 0 134.29 125.87"><defs><style>.cls-1{fill:none;}.cls-13,.cls-14,.cls-16,.cls-17,.cls-2{fill:#231f20;}.cls-2,.cls-3{fill-rule:evenodd;}.cls-12,.cls-3{fill:#ed1c29;}.cls-4{fill:#c7d2ec;}.cls-5{fill:#b1dbb7;}.cls-6{fill:#91c2b0;}.cls-7{fill:#7f9fd3;}.cls-8{fill:#6a91cb;}.cls-9{fill:#5c96b7;}.cls-10{fill:#4b8eb3;}.cls-11{clip-path:url(#clip-path);}.cls-13,.cls-14{font-size:8px;}.cls-13,.cls-17{font-family:TimesNewRomanPSMT, Times New Roman;}.cls-14{font-family:TimesNewRomanPS-BoldMT, Times New Roman;font-weight:700;}.cls-15{fill:#939598;}.cls-17{font-size:8.5px;}</style><clipPath id="clip-path" transform="translate(0.03 0.01)"><rect class="cls-1" width="134.26" height="127.11"/></clipPath></defs><g id="Layer_2" data-name="Layer 2"><g id="Layer_1-2" data-name="Layer 1"><polygon class="cls-2" points="53.78 5.7 52.18 6.75 53.81 2.5 55.38 6.78 53.78 5.7"/><polygon class="cls-2" points="122.82 91.72 122 89.98 125.98 92.21 121.52 93.15 122.82 91.72"/><polygon class="cls-2" points="17.95 120.61 19.86 120.84 15.88 123.05 17.42 118.76 17.95 120.61"/><polygon class="cls-3" points="57.68 87.48 55.37 85.75 62.2 85.89 56.96 90.28 57.68 87.48"/><polygon class="cls-4" points="79.55 75.53 117.84 42.79 72.41 18.47 33.54 51.19 79.55 75.53"/><polygon class="cls-5" points="33.46 50.96 20.85 5.45 61.75 27.3 57.2 31.11 57.28 31.2 55.75 32.49 55.67 32.39 51.06 36.24 51.16 36.35 49.63 37.64 49.53 37.52 44.93 41.37 45.04 41.51 43.51 42.79 43.39 42.65 38.79 46.5 38.92 46.66 37.39 47.95 37.25 47.78 33.46 50.96"/><polygon class="cls-6" points="79.55 75.53 79.55 75.53 33.67 51.23 37.48 48.05 37.39 47.95 38.92 46.66 39.01 46.77 43.62 42.92 43.51 42.79 45.04 41.51 45.15 41.64 49.75 37.79 49.63 37.64 51.16 36.35 51.29 36.51 55.89 32.66 55.75 32.49 57.28 31.2 57.43 31.38 62.03 27.53 61.92 27.39 67.44 30.34 79.55 75.53"/><path class="cls-7" d="M61.82,27.35l-.1-.06.05,0,.07.08ZM33.51,51.17,33.36,51l.06,0,0,.18.06,0h0m.08.1-.07-.09.1.06,0,0" transform="translate(0.03 0.01)"/><path class="cls-8" d="M61.89,27.38l-.07,0,0,0ZM33.62,51.24l-.1-.06h0l.11.06,0,0" transform="translate(0.03 0.01)"/><path class="cls-9" d="M57.25,31.19l-.08-.09,4.55-3.81.1.06Zm-6.12,5.16-.1-.12,4.61-3.85.08.1-4.59,3.87M45,41.5l-.12-.14,4.61-3.85.1.12L45,41.5m-6.12,5.15-.13-.16,4.6-3.85.12.15-4.59,3.86m-5.36,4.51-.06,0,0-.18,3.8-3.18.14.17-3.83,3.22" transform="translate(0.03 0.01)"/><path class="cls-10" d="M57.39,31.36l-.14-.17,4.57-3.84.07,0,.11.14ZM51.26,36.5l-.13-.16,4.59-3.86.14.17-4.6,3.85m-6.14,5.13L45,41.5l4.59-3.87.12.15-4.6,3.85M39,46.76l-.09-.11,4.59-3.87.1.13L39,46.76m-5.34,4.46-.11-.06,3.83-3.22.09.1-3.81,3.18" transform="translate(0.03 0.01)"/><g class="cls-11"><path class="cls-12" d="M30.12,93.89c15.44-1.65,31.61-5.48,45.72-15.19S102,53.41,109.22,28.36l-.67-.2c-7.19,24.94-19.13,40.35-33.11,50s-30,13.43-45.39,15.07Z" transform="translate(0.03 0.01)"/></g><text class="cls-13" transform="translate(120.88 98.26)">y</text><g class="cls-11"><text class="cls-13" transform="translate(10.97 123.42)">x</text><text class="cls-13" transform="translate(47.96 6.65)">z</text></g><text class="cls-14" transform="translate(96.84 68.93)">T</text><text class="cls-14" transform="translate(58.12 74.78)">N</text><text class="cls-14" transform="translate(63.98 49.54)">B</text><g class="cls-11"><text class="cls-13" transform="translate(82.09 20.83)">osculating plane</text><text class="cls-13" transform="translate(0.03 33.08)">normal</text><text class="cls-13" transform="translate(0.03 42.68)">plane</text><path class="cls-15" d="M54,23.61h-.4v6H54Zm0,8h-.4v6H54Zm0,8h-.4v6H54Zm0,8h-.4v6H54Zm0,8h-.4v6H54Z" transform="translate(0.03 0.01)"/><polygon class="cls-2" points="70.36 41.1 69.12 42.58 69.46 38.03 72.19 41.68 70.36 41.1"/><polygon class="cls-2" points="57.03 63.58 57.26 65.49 54.18 62.13 58.71 62.64 57.03 63.58"/><polygon class="cls-2" points="99.52 58.58 97.66 58.1 101.9 56.44 99.79 60.48 99.52 58.58"/><polyline class="cls-16" points="54.03 23.37 54.03 4.57 53.63 4.57 53.63 23.37"/><polyline class="cls-16" points="54.03 80.93 54.03 61.62 53.63 61.62 53.63 80.93"/><polyline class="cls-16" points="53.8 81.13 123.41 91.91 123.47 91.51 53.86 80.73"/><polyline class="cls-16" points="53.68 80.8 17.22 121.08 17.52 121.35 53.98 81.06"/><polyline class="cls-16" points="79.88 75.91 100.64 58.18 99.98 57.42 79.23 75.14"/><polyline class="cls-16" points="79.79 75.08 56.09 62.49 55.62 63.38 79.32 75.97"/><polyline class="cls-16" points="80.04 75.4 70.77 40.74 69.81 41 79.07 75.65"/><path class="cls-12" d="M78.45,75.47a1.13,1.13,0,1,1,1.12,1.12,1.13,1.13,0,0,1-1.12-1.12" transform="translate(0.03 0.01)"/><path class="cls-12" d="M78.45,75.47h.37a.75.75,0,1,1,.75.75.75.75,0,0,1-.75-.75h-.75a1.5,1.5,0,1,0,1.5-1.5,1.5,1.5,0,0,0-1.5,1.5Z" transform="translate(0.03 0.01)"/></g><text class="cls-17" transform="translate(80.33 82.91)">P</text></g></g></svg>