<svg version="1.1" xmlns="http://www.w3.org/2000/svg" viewBox="0 0 548.4539067436522 181.1233819531485" width="548.4539067436522" height="181.1233819531485">
  <!-- svg-source:excalidraw -->
  
  <defs>
    <style class="style-fonts">
      @font-face {
        font-family: "Virgil";
        src: url("https://excalidraw.com/Virgil.woff2");
      }
      @font-face {
        font-family: "Cascadia";
        src: url("https://excalidraw.com/Cascadia.woff2");
      }
    </style>
  </defs>
  <g stroke-linecap="round" transform="translate(66.05119868933616 131.02234858732027) rotate(0 63.84506627980568 20.05051668291412)"><path d="M1.2 0.59 C43.35 -2.57, 88.94 -0.87, 128.84 0.25 M-0.6 0.89 C44.83 0.47, 87.47 0.09, 128 -0.37 M125.94 0.11 C127.34 8.65, 129.23 21.3, 127.28 39.27 M127.5 0.41 C127.56 9.66, 126.8 19.78, 127.43 41.02 M128.21 40.64 C102.98 39.19, 74.82 40.24, -0.78 40.44 M127.94 39.55 C101.14 38.11, 75.93 39.12, -0.2 39.3 M-1.68 41.96 C1.22 29.66, 0.8 22.16, -1.1 1.29 M-0.77 40.46 C1.03 23.84, -0.01 7.64, -0.63 0.37" stroke="#000000" stroke-width="1" fill="none"></path></g><g transform="translate(108.89626496914161 141.07286527023462) rotate(0 21 10)"><text x="21" y="14" font-family="Virgil, Segoe UI Emoji" font-size="16px" fill="#000000" text-anchor="middle" style="white-space: pre;" direction="ltr">FF00</text></g><g stroke-linecap="round" transform="translate(66.05119868933616 89.80730727275295) rotate(0 63.84506627980568 20.05051668291412)"><path d="M-0.4 0.39 C43.2 1.08, 85.02 0.45, 128.29 -1.2 M-0.81 0.47 C50 -1.45, 98.82 -1.44, 127.79 -0.88 M129.38 1.72 C127.23 11.43, 126.42 23.74, 129.61 39.72 M126.95 0.64 C127.45 14.6, 126.77 27.2, 128.03 40.36 M127.69 39.81 C85.14 39.59, 42.28 40.72, -1.9 40.61 M128.6 40.33 C96.16 38.3, 64.43 38.63, -0.49 39.26 M0.61 41.39 C-1.31 25.63, 1.64 7.83, -0.71 -1.54 M-0.17 39.1 C-0.98 27.02, 0.52 13.54, -0.02 0.84" stroke="#000000" stroke-width="1" fill="none"></path></g><g transform="translate(109.39626496914161 99.8578239556673) rotate(0 20.5 10)"><text x="20.5" y="14" font-family="Virgil, Segoe UI Emoji" font-size="16px" fill="#000000" text-anchor="middle" style="white-space: pre;" direction="ltr">FF04</text></g><g stroke-linecap="round" transform="translate(66.05119868933616 50.09099473326114) rotate(0 63.84506627980568 20.05051668291412)"><path d="M0.91 -0.39 C41.36 -1.36, 83.32 1.21, 129.39 -1.63 M-0.56 -0.36 C44.46 -0.41, 88.78 0.36, 127.12 0.84 M126.46 -0.77 C129.53 15.08, 128.43 31, 127.86 38.63 M126.76 -0.16 C127.93 14.84, 127.86 30.02, 127.02 40.1 M125.82 41.58 C89.37 40.83, 53.75 39.89, -1.56 41.91 M127.09 39.62 C85.92 38.24, 46.06 39.6, -0.41 40.41 M1.85 39.35 C-0.49 23.95, 0.93 12.63, -1.05 -0.33 M0.87 40.44 C0.23 32.91, 0.96 24.92, -0.45 0.44" stroke="#000000" stroke-width="1" fill="none"></path></g><g transform="translate(116.39626496914161 60.14151141617549) rotate(0 13.5 10)"><text x="13.5" y="14" font-family="Virgil, Segoe UI Emoji" font-size="16px" fill="#000000" text-anchor="middle" style="white-space: pre;" direction="ltr">163</text></g><g stroke-linecap="round" transform="translate(66.05119868933616 10) rotate(0 63.84506627980568 20.05051668291412)"><path d="M1.78 1.37 C37.54 -0.86, 72.62 1.38, 126.96 -1.12 M0.06 -0.11 C33.17 1.96, 68.33 0.91, 127.28 -0.61 M128.51 0.06 C128.24 9.01, 129.35 20.45, 129.52 38.24 M127.96 0.86 C127.16 11.37, 127.68 22.36, 127.86 39.16 M126.6 39.68 C78.4 42.24, 32.7 40.02, -1.6 38.9 M128.62 40.61 C95.05 39.33, 63.88 38.48, 0.64 41.02 M0.71 41.86 C-0.91 29.25, -1.85 17.81, 0.75 1.74 M0.71 40.99 C-0.44 27.15, -0.36 13.57, 0.84 -0.21" stroke="#000000" stroke-width="1" fill="none"></path></g><g transform="translate(118.39626496914161 20.05051668291435) rotate(0 11.5 10)"><text x="11.5" y="14" font-family="Virgil, Segoe UI Emoji" font-size="16px" fill="#000000" text-anchor="middle" style="white-space: pre;" direction="ltr">42</text></g><g transform="translate(10.5 20.212045123489133) rotate(0 21 10)"><text x="21" y="14" font-family="Virgil, Segoe UI Emoji" font-size="16px" fill="#000000" text-anchor="middle" style="white-space: pre;" direction="ltr">FF00</text></g><g transform="translate(11 59.55367546921252) rotate(0 20.5 10)"><text x="20.5" y="14" font-family="Virgil, Segoe UI Emoji" font-size="16px" fill="#000000" text-anchor="middle" style="white-space: pre;" direction="ltr">FF04</text></g><g transform="translate(10 100.39403459001096) rotate(0 21.5 10)"><text x="21.5" y="14" font-family="Virgil, Segoe UI Emoji" font-size="16px" fill="#000000" text-anchor="middle" style="white-space: pre;" direction="ltr">FF08</text></g><g transform="translate(11 140.48502932327165) rotate(0 20.5 10)"><text x="20.5" y="14" font-family="Virgil, Segoe UI Emoji" font-size="16px" fill="#000000" text-anchor="middle" style="white-space: pre;" direction="ltr">FF0C</text></g><g transform="translate(223.08283392238582 20.212045123489133) rotate(0 5.5 10)"><text x="5.5" y="14" font-family="Virgil, Segoe UI Emoji" font-size="16px" fill="#000000" text-anchor="middle" style="white-space: pre;" direction="ltr">x</text></g><g transform="translate(223.58283392238582 59.55367546921252) rotate(0 5 10)"><text x="5" y="14" font-family="Virgil, Segoe UI Emoji" font-size="16px" fill="#000000" text-anchor="middle" style="white-space: pre;" direction="ltr">y</text></g><g transform="translate(221.58283392238582 100.39403459001096) rotate(0 7 10)"><text x="7" y="14" font-family="Virgil, Segoe UI Emoji" font-size="16px" fill="#000000" text-anchor="middle" style="white-space: pre;" direction="ltr">p1</text></g><g transform="translate(218.08283392238582 140.48502932327165) rotate(0 10.5 10)"><text x="10.5" y="14" font-family="Virgil, Segoe UI Emoji" font-size="16px" fill="#000000" text-anchor="middle" style="white-space: pre;" direction="ltr">p2</text></g><g stroke-linecap="round" transform="translate(365.4222715106025 131.02234858732027) rotate(0 63.84506627980568 20.05051668291412)"><path d="M0.22 0.66 C28.03 1.46, 56.46 -0.98, 125.91 -0.95 M-0.52 -0.45 C42.59 -0.67, 85.68 0.48, 128.02 0.32 M127.35 -1.96 C126.58 10.82, 126.71 23.99, 126.28 41.46 M128.39 0.12 C127.99 8.87, 126.87 17.53, 126.84 39.14 M127.16 39.87 C81.07 40.79, 32.47 42.17, -1.09 39.82 M128.67 39.5 C89.71 39.5, 53.48 40.25, 0.81 39.87 M0.55 41.28 C-1.81 30.88, 0.66 18.3, 0.66 -0.96 M0.51 39.14 C-0.32 28.94, 0.53 19.79, -0.12 -0.3" stroke="#000000" stroke-width="1" fill="none"></path></g><g transform="translate(408.26733779040796 141.07286527023462) rotate(0 21 10)"><text x="21" y="14" font-family="Virgil, Segoe UI Emoji" font-size="16px" fill="#000000" text-anchor="middle" style="white-space: pre;" direction="ltr">FF00</text></g><g stroke-linecap="round" transform="translate(365.4222715106025 89.80730727275295) rotate(0 63.84506627980568 20.05051668291412)"><path d="M0.2 0.88 C43.57 -1.41, 84.54 -0.98, 128.82 1.03 M1 -0.04 C36.53 -1.27, 74.01 -1.47, 128.27 0.06 M129.67 0.22 C128.92 12.36, 129.32 24.53, 126.19 39.51 M126.85 0.51 C127.12 13.64, 128.56 28.25, 128.69 40.46 M128.65 40.13 C97.64 40.5, 68.21 40.18, 1.86 39.72 M126.8 39.79 C84.39 39.08, 40.55 40.71, 0.66 40.66 M0.77 40.47 C0.56 22.76, 1.05 8.9, -0.37 0.77 M-0.43 39.59 C0.99 24.51, 1.09 8.32, 0.18 -0.21" stroke="#000000" stroke-width="1" fill="none"></path></g><g transform="translate(408.76733779040796 99.8578239556673) rotate(0 20.5 10)"><text x="20.5" y="14" font-family="Virgil, Segoe UI Emoji" font-size="16px" fill="#000000" text-anchor="middle" style="white-space: pre;" direction="ltr">FF04</text></g><g stroke-linecap="round" transform="translate(365.4222715106025 50.09099473326114) rotate(0 63.84506627980568 20.05051668291412)"><path d="M1.78 0.94 C37.29 0.31, 71.35 0.39, 129 1.27 M-0.57 0.23 C35.66 1.53, 69.48 0.91, 127.8 -0.05 M128.7 -0.89 C129.14 13.96, 126.8 28.25, 128.98 39.41 M126.69 -0.7 C128.76 12.45, 127.36 24.18, 127.45 39.37 M127.65 39.36 C84.27 39.03, 37.61 40.87, 1.32 39.52 M127.99 39.23 C84 40.38, 42.08 40.72, -0.28 40.39 M-0.03 40.52 C1.61 23.2, 0.16 9.25, 0.59 0.92 M0.98 40.96 C0.65 31.61, 0.04 20.38, -0.59 0.3" stroke="#000000" stroke-width="1" fill="none"></path></g><g transform="translate(415.76733779040796 60.14151141617549) rotate(0 13.5 10)"><text x="13.5" y="14" font-family="Virgil, Segoe UI Emoji" font-size="16px" fill="#000000" text-anchor="middle" style="white-space: pre;" direction="ltr">163</text></g><g stroke-linecap="round" transform="translate(365.4222715106025 10) rotate(0 63.84506627980568 20.05051668291412)"><path d="M0.35 -0.61 C30.71 1, 65.74 -1.66, 125.72 -1 M0.42 -0.87 C47.74 1.42, 95.76 0.79, 127.45 0.84 M126.33 1.62 C128.08 11.95, 128.13 21.14, 126.58 38.87 M128.24 -0.42 C126.76 15.97, 126.86 31.52, 128.38 39.48 M129.53 38.82 C79.63 39.42, 34.56 38.99, 1.03 40.79 M126.78 39.71 C87.34 40.21, 45.64 41.57, -0.05 39.65 M1.4 40.52 C-0.09 29.14, -0.72 17.23, -0.27 -1.47 M-0.91 40.22 C-0.06 29.02, 0.67 15.48, 0.98 0.92" stroke="#000000" stroke-width="1" fill="none"></path></g><g transform="translate(417.76733779040796 20.05051668291435) rotate(0 11.5 10)"><text x="11.5" y="14" font-family="Virgil, Segoe UI Emoji" font-size="16px" fill="#000000" text-anchor="middle" style="white-space: pre;" direction="ltr">42</text></g><g transform="translate(522.4539067436522 20.212045123489133) rotate(0 5.5 10)"><text x="5.5" y="14" font-family="Virgil, Segoe UI Emoji" font-size="16px" fill="#000000" text-anchor="middle" style="white-space: pre;" direction="ltr">x</text></g><g transform="translate(522.9539067436522 59.55367546921252) rotate(0 5 10)"><text x="5" y="14" font-family="Virgil, Segoe UI Emoji" font-size="16px" fill="#000000" text-anchor="middle" style="white-space: pre;" direction="ltr">y</text></g><g transform="translate(520.9539067436522 100.39403459001096) rotate(0 7 10)"><text x="7" y="14" font-family="Virgil, Segoe UI Emoji" font-size="16px" fill="#000000" text-anchor="middle" style="white-space: pre;" direction="ltr">p1</text></g><g transform="translate(517.4539067436522 140.48502932327165) rotate(0 10.5 10)"><text x="10.5" y="14" font-family="Virgil, Segoe UI Emoji" font-size="16px" fill="#000000" text-anchor="middle" style="white-space: pre;" direction="ltr">p2</text></g><g stroke-linecap="round"><g transform="translate(406.758502368416 151.76622523966626) rotate(0 -45.26508980730887 -59.835890206178874)"><path d="M-0.22 0 C-3.75 -0.11, -9.28 -0.61, -20.23 -0.78 C-31.17 -0.95, -54.8 -1.26, -65.88 -1.03 C-76.95 -0.8, -82.81 4.12, -86.65 0.59 C-90.5 -2.94, -88.84 -3.96, -88.92 -22.21 C-89 -40.46, -87.33 -92.73, -87.12 -108.92 C-86.91 -125.11, -92.95 -117.38, -87.68 -119.34 C-82.41 -121.3, -63.37 -120.58, -55.5 -120.7 C-47.63 -120.82, -42.64 -120.19, -40.46 -120.06 M-1.8 -1.05 C-5.5 -0.97, -9.91 0.32, -20.78 0.55 C-31.64 0.78, -56.02 0.67, -67 0.33 C-77.98 0, -83.33 2.24, -86.66 -1.46 C-89.99 -5.16, -86.62 -3.8, -86.99 -21.87 C-87.36 -39.95, -88.81 -93.51, -88.88 -109.9 C-88.95 -126.29, -92.86 -118.37, -87.43 -120.2 C-82.01 -122.03, -64.01 -120.65, -56.36 -120.87 C-48.71 -121.09, -43.91 -121.61, -41.54 -121.52" stroke="#000000" stroke-width="1" fill="none"></path></g><g transform="translate(406.758502368416 151.76622523966626) rotate(0 -45.26508980730887 -59.835890206178874)"><path d="M-48.2 -118.49 C-45.91 -120.31, -43.09 -121.17, -40.97 -121.82 M-48.42 -118.66 C-46.18 -119.6, -44 -120.5, -41.8 -121.52" stroke="#000000" stroke-width="1" fill="none"></path></g><g transform="translate(406.758502368416 151.76622523966626) rotate(0 -45.26508980730887 -59.835890206178874)"><path d="M-48.31 -123.37 C-45.98 -123.34, -43.12 -122.35, -40.97 -121.82 M-48.53 -123.54 C-46.22 -123.06, -44.01 -122.53, -41.8 -121.52" stroke="#000000" stroke-width="1" fill="none"></path></g></g><g stroke-linecap="round"><g transform="translate(407.1331845621844 110.17650173133006) rotate(0 -32.95125348778333 -20.599124996431556)"><path d="M-0.38 0.6 C-4.84 0.6, -17.65 -0.85, -26.13 -1.1 C-34.61 -1.36, -44.52 -0.77, -51.25 -0.91 C-57.99 -1.05, -64.1 1.33, -66.53 -1.95 C-68.97 -5.23, -66.21 -14.56, -65.84 -20.59 C-65.47 -26.63, -66.43 -34.84, -64.33 -38.15 C-62.23 -41.45, -56.98 -39.98, -53.24 -40.42 C-49.5 -40.86, -43.8 -40.83, -41.89 -40.77 M1.62 -0.13 C-2.51 0.07, -14.82 -0.19, -23.76 -0.15 C-32.69 -0.1, -44.93 0.31, -51.97 0.12 C-59.02 -0.07, -63.49 2.08, -66.01 -1.28 C-68.52 -4.63, -67.04 -13.78, -67.06 -20 C-67.08 -26.21, -68.46 -34.94, -66.12 -38.56 C-63.78 -42.19, -57.43 -41.36, -53.01 -41.74 C-48.59 -42.13, -41.77 -41.03, -39.62 -40.88" stroke="#000000" stroke-width="1" fill="none"></path></g><g transform="translate(407.1331845621844 110.17650173133006) rotate(0 -32.95125348778333 -20.599124996431556)"><path d="M-44.8 -39.84 C-43.64 -39.96, -41.43 -40.22, -40 -40.65 M-45.27 -39.52 C-43.44 -39.93, -41.59 -40.21, -39.71 -40.66" stroke="#000000" stroke-width="1" fill="none"></path></g><g transform="translate(407.1331845621844 110.17650173133006) rotate(0 -32.95125348778333 -20.599124996431556)"><path d="M-44.39 -43.67 C-43.41 -42.42, -41.35 -41.33, -40 -40.65 M-44.85 -43.35 C-43.13 -42.48, -41.42 -41.48, -39.71 -40.66" stroke="#000000" stroke-width="1" fill="none"></path></g></g></svg>