<svg version="1.1" xmlns="http://www.w3.org/2000/svg" viewBox="0 0 618.6311675368761 260.4747519468433" width="618.6311675368761" height="260.4747519468433">
  <!-- svg-source:excalidraw -->
  
  <defs>
    <style class="style-fonts">
      @font-face {
        font-family: "Virgil";
        src: url("https://excalidraw.com/Virgil.woff2");
      }
      @font-face {
        font-family: "Cascadia";
        src: url("https://excalidraw.com/Cascadia.woff2");
      }
    </style>
  </defs>
  <g stroke-linecap="round"><g transform="translate(604.2260480971327 94.4947884158164) rotate(0 0 30.059307782627116)"><path d="M0 0 C0 10.02, 0 50.1, 0 60.12 M0 0 C0 10.02, 0 50.1, 0 60.12" stroke="#000000" stroke-width="1" fill="none"></path></g></g><g transform="translate(121.16705201075274 108.52253490564067) rotate(0 2.6366045236209175 46.40743774724706)" stroke="none"><path fill="#000000" d="M 4.92,-1.64 Q 4.92,-1.64 5.80,1.09 6.69,3.83 7.43,6.68 8.17,9.52 8.80,11.87 9.44,14.22 10.02,16.81 10.61,19.40 11.15,22.39 11.69,25.37 12.13,27.79 12.58,30.20 12.92,33.85 13.25,37.50 13.39,40.02 13.52,42.53 13.57,45.89 13.62,49.25 13.68,52.02 13.74,54.79 13.80,57.27 13.85,59.76 13.50,62.47 13.15,65.19 13.12,67.56 13.10,69.93 13.16,72.57 13.21,75.21 12.22,78.34 11.24,81.48 10.80,83.85 10.36,86.23 9.54,89.04 8.72,91.86 7.35,94.32 5.97,96.78 -0.31,96.17 -6.60,95.57 -7.67,91.31 -8.73,87.06 -8.47,82.86 -8.21,78.66 -8.17,75.79 -8.13,72.92 -8.00,71.96 -7.87,70.99 -7.43,70.12 -7.00,69.24 -6.31,68.55 -5.61,67.87 -4.74,67.43 -3.86,67.00 -2.90,66.87 -1.93,66.74 -0.97,66.93 -0.01,67.11 0.82,67.59 1.67,68.08 2.32,68.80 2.97,69.53 3.36,70.43 3.74,71.33 3.82,72.30 3.90,73.27 3.66,74.22 3.42,75.16 2.89,75.99 2.37,76.81 1.61,77.42 0.84,78.03 -0.06,78.36 -0.98,78.70 -1.95,78.72 -2.93,78.75 -3.86,78.46 -4.80,78.17 -5.59,77.60 -6.38,77.03 -6.95,76.23 -7.51,75.44 -7.80,74.51 -8.08,73.57 -8.05,72.60 -8.03,71.62 -7.69,70.71 -7.35,69.79 -6.74,69.03 -6.12,68.27 -5.30,67.75 -4.48,67.22 -3.53,66.99 -2.58,66.76 -1.61,66.84 -0.64,66.92 0.25,67.31 1.14,67.69 1.87,68.35 2.59,69.00 3.07,69.85 3.55,70.70 3.73,71.66 3.92,72.62 3.92,72.62 3.92,72.62 4.10,75.48 4.28,78.34 5.22,83.78 6.16,89.23 0.84,89.21 -4.46,89.19 -4.34,86.80 -4.22,84.42 -3.31,82.41 -2.40,80.40 -1.48,77.67 -0.56,74.94 -0.48,72.32 -0.41,69.70 -0.23,67.39 -0.06,65.08 0.42,62.42 0.91,59.76 0.96,57.27 1.01,54.79 1.07,52.03 1.13,49.27 1.17,45.96 1.21,42.65 1.27,40.29 1.33,37.93 1.28,35.17 1.23,32.40 0.94,29.43 0.66,26.46 0.52,24.06 0.39,21.67 -0.13,19.23 -0.65,16.79 -1.21,14.44 -1.77,12.09 -2.41,9.58 -3.05,7.08 -3.99,4.36 -4.92,1.64 -5.04,1.02 -5.17,0.41 -5.14,-0.20 -5.12,-0.83 -4.94,-1.43 -4.77,-2.03 -4.45,-2.57 -4.14,-3.11 -3.71,-3.56 -3.27,-4.02 -2.75,-4.35 -2.22,-4.68 -1.62,-4.88 -1.03,-5.08 -0.41,-5.13 0.21,-5.18 0.82,-5.08 1.44,-4.98 2.02,-4.73 2.59,-4.49 3.09,-4.11 3.59,-3.74 3.99,-3.25 4.38,-2.77 4.65,-2.20 4.92,-1.64 4.92,-1.64 L 4.92,-1.64 Z"></path></g><g transform="translate(123.4627951321363 108.08837422756142) rotate(0 242.5841862023699 -5.800929718405769)" stroke="none"><path fill="#000000" d="M -4.57,-0.76 Q -4.57,-0.76 -4.36,-2.65 -4.15,-4.54 -2.56,-7.63 -0.96,-10.71 0.92,-13.54 2.81,-16.38 4.92,-19.16 7.03,-21.95 9.97,-24.97 12.92,-27.99 15.32,-30.49 17.72,-33.00 19.50,-35.21 21.28,-37.42 22.82,-39.00 24.36,-40.59 26.17,-42.62 27.98,-44.65 31.39,-47.11 34.81,-49.56 37.30,-51.08 39.79,-52.60 41.76,-53.92 43.72,-55.24 46.37,-56.56 49.01,-57.88 51.43,-59.19 53.85,-60.50 55.99,-61.54 58.14,-62.58 61.44,-64.47 64.73,-66.35 67.23,-67.32 69.72,-68.29 73.05,-70.01 76.37,-71.73 78.85,-72.71 81.33,-73.69 84.42,-74.97 87.51,-76.26 90.01,-76.73 92.51,-77.20 96.84,-78.00 101.17,-78.81 103.55,-79.04 105.92,-79.28 108.52,-79.36 111.12,-79.44 113.48,-79.93 115.84,-80.43 119.69,-80.83 123.54,-81.22 128.40,-81.17 133.26,-81.12 137.10,-81.59 140.94,-82.06 145.31,-82.22 149.68,-82.38 153.50,-82.74 157.33,-83.10 162.89,-83.75 168.45,-84.40 172.31,-85.02 176.17,-85.63 180.10,-85.93 184.02,-86.24 187.67,-86.67 191.33,-87.10 194.40,-88.17 197.47,-89.24 201.19,-90.07 204.92,-90.90 208.14,-91.86 211.36,-92.82 214.33,-93.64 217.31,-94.46 219.89,-95.42 222.47,-96.38 226.18,-97.34 229.89,-98.30 233.51,-98.79 237.13,-99.29 240.19,-99.56 243.24,-99.84 245.25,-100.56 247.27,-101.28 249.47,-101.75 251.67,-102.22 256.42,-102.11 261.17,-102.00 266.14,-101.85 271.11,-101.71 274.43,-101.79 277.74,-101.87 283.20,-101.41 288.66,-100.96 294.29,-100.41 299.93,-99.86 303.49,-99.74 307.05,-99.62 311.58,-98.49 316.11,-97.36 320.90,-96.27 325.70,-95.18 329.82,-94.40 333.94,-93.61 337.82,-93.03 341.70,-92.45 346.22,-91.20 350.75,-89.95 354.49,-88.88 358.23,-87.82 362.64,-87.04 367.05,-86.26 372.34,-85.29 377.64,-84.32 381.03,-84.06 384.42,-83.80 389.09,-82.63 393.76,-81.46 396.24,-81.23 398.72,-81.01 400.86,-80.68 403.00,-80.35 405.58,-79.98 408.17,-79.62 412.18,-78.69 416.18,-77.77 419.17,-77.05 422.15,-76.33 424.57,-75.45 426.99,-74.57 430.22,-72.44 433.45,-70.31 435.64,-68.27 437.83,-66.23 438.93,-63.89 440.03,-61.55 441.92,-58.46 443.80,-55.36 445.23,-53.42 446.66,-51.49 448.40,-49.64 450.14,-47.80 451.86,-46.43 453.57,-45.07 455.23,-43.65 456.89,-42.22 459.18,-40.48 461.47,-38.73 463.86,-37.53 466.25,-36.34 468.85,-35.33 471.44,-34.32 475.02,-32.82 478.61,-31.32 480.67,-28.84 482.73,-26.36 484.23,-23.78 485.72,-21.20 486.53,-19.16 487.34,-17.12 488.24,-14.95 489.13,-12.78 489.88,-9.35 490.64,-5.92 491.17,-3.72 491.71,-1.52 491.82,1.87 491.94,5.28 491.05,8.96 490.15,12.63 487.34,16.83 484.53,21.03 482.51,24.61 480.50,28.20 478.14,30.33 475.79,32.46 474.04,33.73 472.30,35.00 468.18,37.27 464.06,39.54 460.62,40.84 457.19,42.13 452.36,43.56 447.53,44.98 443.64,45.91 439.74,46.84 436.36,47.80 432.99,48.76 427.49,49.62 422.00,50.48 418.20,51.53 414.40,52.59 411.96,53.34 409.52,54.09 406.26,54.69 402.99,55.28 400.04,56.06 397.08,56.85 394.63,57.36 392.18,57.87 388.44,58.72 384.70,59.58 380.73,60.52 376.77,61.46 373.79,62.14 370.80,62.83 368.33,63.28 365.86,63.72 362.82,64.55 359.78,65.38 355.62,65.99 351.45,66.60 348.76,67.02 346.07,67.43 343.63,67.67 341.18,67.91 337.90,68.17 334.62,68.44 332.18,69.36 329.74,70.29 326.62,71.33 323.50,72.37 319.80,73.12 316.10,73.87 309.44,75.23 302.77,76.59 299.69,77.28 296.61,77.98 292.52,78.69 288.43,79.40 284.74,80.53 281.05,81.66 277.99,82.40 274.94,83.13 270.88,83.59 266.83,84.05 262.17,84.73 257.51,85.42 254.71,86.20 251.90,86.97 247.98,87.29 244.05,87.60 240.29,87.72 236.53,87.84 234.35,88.07 232.17,88.30 230.02,88.47 227.86,88.64 223.99,89.30 220.11,89.96 215.84,90.63 211.57,91.31 205.98,91.34 200.39,91.37 195.53,91.08 190.68,90.80 186.19,90.57 181.71,90.35 177.68,90.25 173.65,90.14 169.21,90.00 164.77,89.86 159.54,89.76 154.32,89.66 149.98,89.58 145.63,89.51 141.44,88.89 137.24,88.27 133.98,87.84 130.72,87.41 127.80,87.02 124.87,86.62 121.41,85.80 117.95,84.99 114.06,84.49 110.17,84.00 105.90,83.30 101.62,82.60 97.44,81.23 93.25,79.87 88.75,78.76 84.24,77.65 81.08,76.30 77.93,74.95 74.88,73.81 71.84,72.67 69.08,71.55 66.32,70.43 62.21,68.37 58.10,66.31 55.54,64.87 52.98,63.44 50.54,61.65 48.10,59.85 46.21,57.86 44.31,55.86 41.76,53.76 39.22,51.66 36.65,49.73 34.09,47.80 32.53,46.35 30.97,44.89 28.21,43.73 25.46,42.56 22.29,40.77 19.13,38.99 17.05,37.24 14.97,35.49 13.00,34.05 11.03,32.61 8.75,30.50 6.46,28.39 5.94,27.46 5.41,26.53 5.21,25.49 5.00,24.44 5.15,23.38 5.29,22.32 5.76,21.37 6.24,20.41 6.99,19.66 7.74,18.90 8.70,18.43 9.65,17.95 10.71,17.81 11.77,17.66 12.82,17.86 13.86,18.06 14.79,18.58 15.72,19.11 16.44,19.90 17.15,20.70 17.57,21.68 17.99,22.66 18.08,23.72 18.17,24.78 17.91,25.82 17.66,26.85 17.08,27.75 16.51,28.65 15.68,29.32 14.85,29.99 13.85,30.36 12.85,30.73 11.78,30.76 10.71,30.79 9.69,30.48 8.67,30.16 7.81,29.54 6.94,28.92 6.31,28.06 5.69,27.19 5.38,26.17 5.06,25.15 5.09,24.08 5.12,23.02 5.49,22.01 5.85,21.01 6.52,20.18 7.19,19.35 8.09,18.77 8.99,18.20 10.02,17.94 11.06,17.68 12.12,17.77 13.18,17.85 14.16,18.27 15.14,18.69 15.94,19.41 16.73,20.12 16.73,20.12 16.73,20.12 16.82,20.69 16.92,21.26 18.92,22.71 20.92,24.16 23.73,26.56 26.54,28.97 28.42,30.18 30.31,31.38 32.28,32.27 34.26,33.16 37.44,35.44 40.62,37.72 42.79,39.18 44.96,40.64 47.39,43.03 49.81,45.41 52.39,48.02 54.97,50.62 57.18,52.56 59.40,54.51 61.53,56.03 63.65,57.56 66.85,59.49 70.05,61.41 72.49,62.45 74.94,63.48 78.45,64.55 81.96,65.62 84.22,66.62 86.49,67.62 89.52,68.27 92.56,68.92 95.31,69.88 98.06,70.84 101.09,72.13 104.12,73.42 106.29,74.10 108.47,74.78 111.98,75.73 115.49,76.68 117.62,77.24 119.75,77.79 122.98,78.65 126.21,79.51 129.04,80.19 131.87,80.88 135.01,81.58 138.16,82.27 141.90,82.86 145.64,83.45 149.98,83.38 154.32,83.30 159.54,83.20 164.77,83.10 169.21,82.96 173.65,82.82 177.67,82.71 181.70,82.59 186.18,82.36 190.66,82.13 195.49,81.82 200.31,81.51 203.78,81.34 207.25,81.16 211.15,81.13 215.05,81.09 217.32,80.79 219.59,80.50 221.73,80.49 223.86,80.48 227.92,80.39 231.98,80.30 234.14,80.42 236.30,80.55 239.90,80.43 243.50,80.31 246.90,80.07 250.30,79.83 253.31,79.29 256.33,78.75 261.08,77.77 265.84,76.78 269.66,76.17 273.48,75.56 276.13,75.19 278.77,74.83 282.78,73.38 286.78,71.94 290.81,70.86 294.85,69.79 298.03,69.14 301.21,68.49 305.44,67.41 309.68,66.34 311.94,65.78 314.20,65.23 317.37,64.47 320.53,63.72 323.57,62.64 326.60,61.56 330.09,60.36 333.57,59.16 337.09,58.70 340.61,58.25 342.76,58.21 344.91,58.18 347.32,57.96 349.73,57.74 353.28,56.84 356.84,55.95 362.53,54.43 368.23,52.91 371.45,51.98 374.67,51.06 376.97,50.63 379.27,50.20 382.69,49.81 386.12,49.41 390.45,48.82 394.78,48.23 398.09,47.34 401.41,46.44 404.35,45.92 407.29,45.40 409.44,44.98 411.60,44.55 415.76,42.83 419.92,41.11 424.59,39.72 429.27,38.34 432.69,36.86 436.11,35.38 440.46,34.29 444.81,33.21 447.01,32.64 449.22,32.07 452.87,30.69 456.52,29.31 459.24,28.26 461.96,27.22 464.86,24.92 467.76,22.62 469.56,20.56 471.36,18.49 472.47,16.22 473.59,13.95 475.95,9.76 478.30,5.57 478.21,2.36 478.11,-0.83 477.62,-3.40 477.13,-5.97 476.23,-8.31 475.33,-10.64 474.55,-12.76 473.78,-14.87 473.04,-17.62 472.31,-20.37 470.13,-20.93 467.96,-21.49 465.69,-22.53 463.43,-23.58 460.33,-25.19 457.24,-26.80 454.52,-28.57 451.80,-30.34 449.25,-32.50 446.69,-34.65 444.02,-37.19 441.35,-39.73 439.37,-42.20 437.39,-44.67 436.10,-46.42 434.82,-48.17 432.55,-51.13 430.28,-54.08 429.14,-57.32 428.00,-60.57 426.73,-62.46 425.45,-64.34 422.52,-65.49 419.58,-66.64 417.16,-67.39 414.74,-68.14 412.80,-69.53 410.85,-70.93 408.74,-71.30 406.63,-71.67 402.07,-73.00 397.51,-74.33 394.95,-75.02 392.39,-75.71 388.05,-76.69 383.71,-77.68 380.18,-78.22 376.66,-78.76 371.37,-79.65 366.09,-80.55 361.30,-81.31 356.51,-82.08 352.89,-83.22 349.26,-84.37 345.01,-85.47 340.76,-86.56 336.84,-87.21 332.92,-87.86 328.68,-88.56 324.45,-89.26 319.56,-90.22 314.67,-91.17 310.68,-92.02 306.69,-92.87 303.06,-93.11 299.43,-93.35 293.85,-93.66 288.27,-93.97 283.03,-94.10 277.79,-94.23 274.49,-94.27 271.19,-94.30 266.29,-94.05 261.40,-93.81 255.49,-93.34 249.59,-92.87 246.68,-92.23 243.78,-91.58 240.95,-91.50 238.12,-91.41 235.04,-91.07 231.96,-90.72 228.48,-89.70 224.99,-88.68 222.04,-87.83 219.10,-86.98 216.20,-86.40 213.31,-85.83 209.86,-84.92 206.40,-84.02 202.99,-83.32 199.58,-82.62 195.84,-81.51 192.10,-80.40 188.30,-80.00 184.50,-79.59 180.87,-79.36 177.24,-79.12 173.31,-78.45 169.38,-77.79 163.75,-76.86 158.13,-75.93 154.17,-75.43 150.22,-74.93 146.28,-74.48 142.34,-74.03 138.04,-73.08 133.75,-72.13 129.45,-71.59 125.14,-71.05 121.71,-70.29 118.29,-69.54 114.92,-68.75 111.56,-67.96 107.27,-67.70 102.97,-67.43 98.55,-66.47 94.12,-65.50 91.50,-64.91 88.88,-64.31 85.31,-63.09 81.74,-61.87 79.32,-60.55 76.91,-59.24 73.34,-57.95 69.77,-56.65 67.62,-55.52 65.46,-54.39 62.19,-52.87 58.93,-51.36 56.30,-49.87 53.68,-48.37 51.59,-47.37 49.50,-46.36 47.47,-45.08 45.44,-43.79 41.29,-41.25 37.14,-38.71 35.16,-37.31 33.18,-35.92 30.55,-33.87 27.92,-31.82 25.89,-29.50 23.87,-27.18 21.58,-24.73 19.29,-22.29 16.93,-19.37 14.56,-16.45 12.72,-13.84 10.89,-11.22 8.13,-6.97 5.36,-2.72 4.97,-0.98 4.57,0.76 4.41,1.29 4.26,1.83 3.97,2.31 3.69,2.80 3.30,3.20 2.91,3.60 2.44,3.90 1.97,4.19 1.44,4.37 0.90,4.54 0.35,4.59 -0.20,4.63 -0.75,4.54 -1.30,4.45 -1.82,4.22 -2.33,4.00 -2.78,3.67 -3.22,3.33 -3.57,2.89 -3.93,2.46 -4.16,1.95 -4.40,1.45 -4.51,0.90 -4.62,0.35 -4.60,-0.20 -4.57,-0.76 -4.57,-0.76 L -4.57,-0.76 Z"></path></g><g transform="translate(118.00275578455148 196.6843812110028) rotate(0 244.16633431547052 -8.965081101695546)" stroke="none"><path fill="#000000" d="M 1.69,-4.22 Q 1.69,-4.22 3.25,-3.73 4.81,-3.24 7.86,-1.43 10.90,0.36 12.50,1.89 14.09,3.41 15.81,4.82 17.53,6.22 19.78,8.12 22.03,10.02 24.02,11.80 26.02,13.58 29.26,15.81 32.50,18.03 35.60,19.99 38.71,21.95 41.23,23.28 43.75,24.60 45.59,25.97 47.44,27.34 49.95,28.53 52.46,29.72 57.25,30.28 62.05,30.85 65.79,31.89 69.53,32.93 74.93,33.81 80.34,34.69 83.83,35.27 87.32,35.86 91.03,36.35 94.75,36.85 97.79,36.71 100.83,36.58 103.40,37.30 105.96,38.02 108.17,38.12 110.38,38.23 112.87,38.19 115.35,38.15 119.43,38.17 123.50,38.18 126.29,38.12 129.08,38.06 132.11,38.45 135.14,38.83 138.39,39.20 141.64,39.56 144.02,39.66 146.40,39.76 149.85,39.81 153.29,39.86 156.53,40.33 159.78,40.80 163.66,41.32 167.53,41.84 170.98,42.82 174.42,43.81 176.89,43.94 179.36,44.07 181.98,44.09 184.60,44.11 188.09,44.45 191.57,44.80 196.69,45.47 201.81,46.14 204.45,46.37 207.08,46.61 209.71,46.73 212.35,46.85 214.57,47.19 216.80,47.53 219.50,47.60 222.21,47.68 224.42,47.72 226.62,47.76 228.79,47.77 230.95,47.78 233.38,47.82 235.82,47.86 238.67,47.94 241.52,48.03 245.16,47.96 248.79,47.89 251.30,47.80 253.81,47.70 256.00,47.59 258.18,47.47 262.24,47.48 266.30,47.48 268.58,47.52 270.86,47.55 274.28,47.29 277.71,47.02 280.37,46.90 283.04,46.78 285.79,46.41 288.55,46.04 290.83,45.84 293.12,45.64 295.55,45.38 297.99,45.12 300.53,44.97 303.08,44.82 306.08,44.65 309.08,44.47 311.29,43.61 313.49,42.75 315.76,42.25 318.03,41.75 320.65,41.07 323.26,40.40 325.90,39.78 328.55,39.16 331.28,38.73 334.01,38.31 337.43,38.02 340.84,37.74 345.14,37.37 349.44,37.01 351.67,36.52 353.90,36.03 356.51,35.58 359.12,35.14 361.40,35.01 363.69,34.89 367.92,34.45 372.15,34.02 375.27,33.87 378.38,33.72 380.99,33.27 383.60,32.82 387.26,31.69 390.92,30.57 393.03,30.01 395.15,29.46 397.67,28.95 400.18,28.45 403.88,27.82 407.57,27.19 409.76,26.68 411.94,26.17 414.76,25.39 417.59,24.62 420.46,23.11 423.33,21.60 425.49,21.20 427.64,20.81 431.16,19.97 434.68,19.12 436.92,18.64 439.16,18.15 441.27,17.62 443.38,17.09 447.66,15.48 451.94,13.87 454.31,12.76 456.68,11.65 459.98,10.44 463.29,9.22 465.12,7.63 466.95,6.04 469.13,4.27 471.31,2.50 473.74,-0.45 476.16,-3.42 476.50,-6.02 476.84,-8.62 476.37,-11.38 475.90,-14.13 475.02,-16.84 474.14,-19.55 473.60,-23.57 473.07,-27.59 473.03,-30.89 473.00,-34.18 472.59,-36.46 472.18,-38.74 472.05,-41.51 471.93,-44.28 471.91,-47.85 471.89,-51.41 472.90,-55.18 473.92,-58.95 475.40,-60.83 476.87,-62.72 478.18,-65.38 479.48,-68.05 480.65,-71.31 481.82,-74.57 482.45,-75.54 483.08,-76.50 483.98,-77.21 484.88,-77.93 485.96,-78.31 487.04,-78.70 488.19,-78.72 489.34,-78.75 490.44,-78.40 491.53,-78.05 492.46,-77.38 493.39,-76.70 494.05,-75.76 494.72,-74.82 495.05,-73.72 495.37,-72.62 495.33,-71.47 495.29,-70.32 494.89,-69.25 494.48,-68.17 493.76,-67.28 493.03,-66.39 492.06,-65.78 491.08,-65.17 489.96,-64.90 488.85,-64.63 487.70,-64.73 486.56,-64.84 485.51,-65.30 484.45,-65.76 483.60,-66.54 482.75,-67.31 482.20,-68.31 481.64,-69.32 481.43,-70.45 481.22,-71.58 481.39,-72.72 481.55,-73.86 482.07,-74.88 482.59,-75.91 483.41,-76.71 484.23,-77.52 485.26,-78.02 486.30,-78.52 487.44,-78.67 488.58,-78.82 489.70,-78.59 490.83,-78.36 491.83,-77.79 492.82,-77.22 493.58,-76.35 494.34,-75.49 494.79,-74.43 495.24,-73.37 495.32,-72.23 495.40,-71.08 495.12,-69.97 494.83,-68.85 494.83,-68.86 494.83,-68.86 493.65,-66.39 492.47,-63.92 490.93,-60.57 489.38,-57.21 487.58,-54.28 485.79,-51.34 485.80,-47.94 485.81,-44.53 485.94,-41.70 486.06,-38.87 486.50,-34.90 486.93,-30.93 487.05,-28.38 487.16,-25.84 487.92,-23.40 488.68,-20.97 489.60,-16.85 490.52,-12.74 490.90,-9.27 491.28,-5.80 491.07,-3.62 490.87,-1.43 488.83,2.36 486.79,6.17 484.95,7.76 483.10,9.36 481.47,11.37 479.84,13.38 478.03,15.04 476.21,16.70 474.12,18.50 472.04,20.29 468.93,21.64 465.83,23.00 463.50,23.79 461.18,24.58 458.03,25.68 454.88,26.78 451.04,28.59 447.21,30.40 444.97,30.92 442.74,31.45 440.05,32.02 437.36,32.58 435.11,33.03 432.85,33.47 430.52,33.87 428.19,34.26 426.26,35.46 424.33,36.65 421.57,37.45 418.80,38.25 415.62,38.98 412.44,39.72 408.80,40.32 405.16,40.92 401.36,41.82 397.56,42.72 395.29,43.07 393.01,43.43 390.81,44.05 388.60,44.67 385.95,45.23 383.29,45.78 379.53,46.15 375.76,46.51 372.74,46.67 369.72,46.83 367.07,47.26 364.42,47.70 361.50,47.90 358.58,48.10 355.99,48.93 353.41,49.77 349.77,49.99 346.13,50.22 342.22,50.66 338.31,51.10 335.74,51.55 333.17,51.99 331.02,52.05 328.86,52.10 326.47,52.62 324.08,53.15 321.10,53.75 318.13,54.35 315.81,55.25 313.49,56.14 310.20,56.48 306.92,56.82 303.29,57.01 299.65,57.20 295.35,57.74 291.04,58.28 288.93,58.64 286.83,59.01 283.19,59.17 279.56,59.34 275.21,59.68 270.86,60.02 268.58,60.05 266.30,60.09 263.80,60.16 261.30,60.23 258.88,60.12 256.45,60.02 254.17,59.89 251.89,59.77 248.83,59.67 245.77,59.57 243.64,59.55 241.52,59.53 238.65,59.62 235.79,59.70 233.34,59.73 230.89,59.75 228.69,59.75 226.49,59.74 222.15,59.63 217.81,59.51 214.93,58.96 212.04,58.42 209.24,58.41 206.44,58.41 203.42,58.33 200.41,58.26 197.49,58.08 194.58,57.90 190.74,57.52 186.90,57.14 184.10,57.06 181.31,56.99 177.93,56.74 174.55,56.50 171.91,55.97 169.26,55.45 167.10,54.79 164.94,54.12 161.71,53.66 158.48,53.20 153.89,53.07 149.31,52.93 146.37,52.81 143.43,52.70 140.33,52.25 137.24,51.80 133.97,51.62 130.70,51.44 128.58,50.95 126.46,50.47 122.88,50.43 119.30,50.39 115.95,50.31 112.61,50.24 109.49,49.94 106.37,49.65 103.43,48.70 100.49,47.75 98.00,47.55 95.50,47.35 92.90,46.47 90.30,45.59 88.16,45.26 86.02,44.94 82.62,44.54 79.23,44.14 73.30,43.43 67.36,42.73 63.83,42.16 60.29,41.59 55.73,40.74 51.17,39.89 47.57,38.27 43.97,36.65 41.69,34.54 39.41,32.43 36.83,30.96 34.25,29.49 31.06,27.72 27.87,25.96 23.43,23.69 19.00,21.43 17.21,19.79 15.42,18.15 13.04,16.28 10.65,14.41 8.62,12.66 6.58,10.91 3.91,8.29 1.24,5.66 -0.22,4.94 -1.69,4.22 -2.17,3.96 -2.65,3.70 -3.05,3.32 -3.46,2.95 -3.76,2.50 -4.06,2.04 -4.25,1.52 -4.43,1.00 -4.49,0.46 -4.55,-0.08 -4.47,-0.62 -4.40,-1.16 -4.19,-1.67 -3.99,-2.18 -3.67,-2.63 -3.35,-3.08 -2.93,-3.43 -2.51,-3.79 -2.02,-4.03 -1.53,-4.28 -1.00,-4.40 -0.46,-4.52 0.08,-4.51 0.63,-4.50 1.16,-4.36 1.69,-4.22 1.69,-4.22 L 1.69,-4.22 Z"></path></g><g stroke-linecap="round"><g transform="translate(369.02479488335666 109.57722306482128) rotate(0 113.38175809583481 0)"><path d="M0 0 C37.79 0, 188.97 0, 226.76 0" stroke="#000000" stroke-width="4.5" fill="none" stroke-dasharray="8 12"></path></g></g><g stroke-linecap="round"><g transform="translate(75.81430242268652 103.24897823540778) rotate(0 0 48.5168720027732)"><path d="M0 0 C0 16.17, 0 80.86, 0 97.03" stroke="#000000" stroke-width="4.5" fill="none" stroke-dasharray="8 12"></path></g></g><g transform="translate(462.8943585370307 25.04136746113977) rotate(0 23.26679112250531 40.26944617356742)"><text x="0" y="55.53889234713493" font-family="Virgil, Segoe UI Emoji" font-size="64.43111387770794px" fill="#000000" text-anchor="start" style="white-space: pre;" direction="ltr">R</text></g><g transform="translate(10 105.62147792384894) rotate(0 26.84629744904487 40.26944617356742)"><text x="0" y="55.53889234713493" font-family="Virgil, Segoe UI Emoji" font-size="64.43111387770794px" fill="#000000" text-anchor="start" style="white-space: pre;" direction="ltr">D</text></g><g transform="translate(371.1341712017165 90.59237270225049) rotate(0 1.0546881591808415 11.074515357221458)" stroke="none"><path fill="#c92a2a" d="M 0,2.57 Q 0,2.57 -1.51,2.55 -3.03,2.53 -4.28,2.55 -5.53,2.56 -6.48,4.04 -7.44,5.52 -7.49,6.88 -7.54,8.23 -7.59,9.49 -7.64,10.75 -7.65,11.90 -7.67,13.06 -6.87,13.89 -6.07,14.72 -5.04,15.38 -4.02,16.05 -2.27,17.07 -0.52,18.08 1.11,18.46 2.75,18.84 4.10,18.87 5.45,18.89 6.81,17.77 8.18,16.65 8.57,15.50 8.97,14.35 9.22,13.18 9.48,12.01 9.58,10.35 9.68,8.68 9.73,7.44 9.77,6.19 4.53,4.30 -0.71,2.42 -1.07,2.24 -1.44,2.06 -1.74,1.78 -2.03,1.49 -2.21,1.13 -2.40,0.77 -2.46,0.36 -2.52,-0.03 -2.45,-0.43 -2.38,-0.84 -2.18,-1.19 -1.98,-1.55 -1.68,-1.83 -1.38,-2.11 -1.01,-2.27 -0.63,-2.44 -0.23,-2.48 0.17,-2.51 0.57,-2.42 0.96,-2.33 1.31,-2.11 1.66,-1.90 1.92,-1.58 2.18,-1.27 2.32,-0.88 2.47,-0.50 2.49,-0.09 2.50,0.31 2.39,0.70 2.27,1.09 2.04,1.42 1.80,1.76 1.47,2.00 1.14,2.24 0.76,2.37 0.37,2.49 -0.03,2.49 -0.44,2.48 -0.83,2.34 -1.21,2.21 -1.53,1.96 -1.85,1.70 -2.08,1.36 -2.30,1.02 -2.41,0.63 -2.51,0.23 -2.48,-0.17 -2.45,-0.57 -2.30,-0.95 -2.14,-1.33 -1.87,-1.64 -1.60,-1.94 -1.25,-2.15 -0.89,-2.36 -0.49,-2.44 -0.09,-2.52 0.30,-2.47 0.71,-2.42 0.71,-2.42 0.71,-2.42 6.57,-0.77 12.43,0.88 13.55,2.12 14.68,3.36 15.07,4.77 15.47,6.17 15.47,7.57 15.47,8.98 15.24,11.06 15.00,13.14 14.70,14.72 14.39,16.31 12.92,19.17 11.46,22.03 10.24,23.33 9.02,24.63 7.17,25.00 5.31,25.36 3.82,25.29 2.33,25.22 0.79,25.09 -0.73,24.96 -2.01,24.24 -3.30,23.51 -4.62,22.58 -5.95,21.65 -6.83,21.02 -7.70,20.40 -9.38,19.77 -11.06,19.15 -11.83,18.16 -12.61,17.18 -12.99,15.09 -13.38,12.99 -13.36,11.80 -13.35,10.61 -13.33,9.20 -13.32,7.79 -13.21,6.63 -13.10,5.47 -12.42,3.70 -11.74,1.94 -10.97,0.35 -10.20,-1.23 -7.86,-1.90 -5.53,-2.56 -4.28,-2.55 -3.03,-2.53 -1.51,-2.55 0,-2.57 0.30,-2.54 0.61,-2.50 0.90,-2.39 1.19,-2.28 1.45,-2.10 1.70,-1.92 1.91,-1.69 2.12,-1.46 2.26,-1.18 2.41,-0.91 2.48,-0.61 2.55,-0.31 2.55,0.00 2.55,0.31 2.48,0.61 2.41,0.91 2.26,1.18 2.12,1.46 1.91,1.69 1.70,1.92 1.45,2.10 1.19,2.28 0.90,2.39 0.61,2.50 0.30,2.54 -0.00,2.57 -0.00,2.57 L 0,2.57 Z"></path></g><g transform="translate(369.02479488335666 89.53768454306987) rotate(0 1.581916364440076 5.800958686988565)" stroke="none"><path fill="#c92a2a" d="M -0.50,-2.51 Q -0.50,-2.51 1.07,-2.78 2.66,-3.06 3.94,-2.84 5.23,-2.62 6.38,-1.61 7.54,-0.59 8.24,1.14 8.95,2.88 9.02,4.23 9.10,5.57 9.12,6.70 9.15,7.82 9.14,9.21 9.12,10.60 9.15,10.88 9.17,11.17 9.13,11.51 9.09,11.85 8.97,12.17 8.85,12.49 8.66,12.78 8.47,13.06 8.21,13.29 7.95,13.52 7.65,13.68 7.35,13.84 7.01,13.93 6.68,14.01 6.33,14.02 5.99,14.02 5.66,13.94 5.32,13.86 5.02,13.70 4.71,13.54 4.45,13.31 4.19,13.09 4.00,12.80 3.80,12.52 3.67,12.20 3.55,11.88 3.51,11.54 3.46,11.20 2.36,9.12 1.26,7.04 0.81,5.89 0.35,4.74 0.11,4.54 -0.12,4.34 -0.20,4.02 -0.28,3.71 -0.28,3.39 -0.28,3.07 -0.20,2.76 -0.12,2.45 0.01,2.16 0.16,1.88 0.37,1.63 0.59,1.39 0.85,1.21 1.12,1.03 1.42,0.91 1.72,0.80 2.04,0.76 2.35,0.72 2.67,0.75 2.99,0.79 3.29,0.91 3.59,1.02 3.86,1.20 4.12,1.38 4.34,1.62 4.55,1.86 4.70,2.15 4.85,2.43 4.81,3.53 4.77,4.63 4.68,5.95 4.59,7.27 3.91,8.27 3.23,9.27 2.87,9.37 2.51,9.47 2.22,9.67 1.92,9.86 1.58,9.97 1.25,10.09 0.90,10.12 0.54,10.15 0.19,10.10 -0.14,10.04 -0.47,9.91 -0.80,9.77 -1.08,9.56 -1.37,9.35 -1.59,9.08 -1.82,8.81 -1.97,8.49 -2.13,8.17 -2.20,7.82 -2.28,7.48 -2.26,7.12 -2.25,6.77 -2.16,6.43 -2.06,6.09 -1.89,5.78 -1.71,5.47 -1.47,5.22 -1.23,4.96 -2.09,4.14 -2.95,3.33 -2.95,2.96 -2.95,2.60 -2.86,2.24 -2.77,1.89 -2.60,1.57 -2.43,1.24 -2.19,0.97 -1.94,0.70 -1.64,0.49 -1.34,0.29 -1.00,0.16 -0.66,0.03 -0.29,-0.00 0.06,-0.04 0.42,-0.00 0.78,0.04 1.12,0.17 1.46,0.30 1.76,0.51 2.06,0.72 2.30,0.99 2.54,1.27 2.71,1.59 2.88,1.91 2.96,2.27 3.05,2.62 2.34,3.46 1.64,4.29 1.23,5.53 0.83,6.78 0.73,7.14 0.64,7.49 0.46,7.81 0.28,8.13 0.03,8.40 -0.21,8.67 -0.52,8.87 -0.82,9.07 -1.17,9.20 -1.52,9.32 -1.88,9.36 -2.25,9.39 -2.61,9.34 -2.97,9.29 -3.32,9.15 -3.66,9.01 -3.95,8.79 -4.25,8.58 -4.49,8.30 -4.73,8.02 -4.89,7.69 -5.05,7.36 -5.13,7.00 -5.21,6.64 -5.20,6.27 -5.19,5.91 -3.83,2.53 -2.47,-0.85 -2.27,-1.22 -2.07,-1.59 -1.76,-1.88 -1.45,-2.17 -1.06,-2.34 -0.68,-2.52 -0.26,-2.56 0.15,-2.61 0.57,-2.51 0.98,-2.42 1.34,-2.20 1.70,-1.98 1.97,-1.65 2.25,-1.33 2.40,-0.94 2.55,-0.54 2.57,-0.12 2.59,0.29 2.48,0.70 2.36,1.11 2.12,1.46 1.88,1.81 1.54,2.06 1.21,2.31 0.80,2.45 0.40,2.58 -0.01,2.58 -0.43,2.57 -0.83,2.44 -1.24,2.30 -1.57,2.04 -1.91,1.78 -2.14,1.43 -2.38,1.08 -2.49,0.67 -2.60,0.26 -2.57,-0.15 -2.55,-0.57 -2.39,-0.97 -2.23,-1.36 -1.95,-1.68 -1.68,-2.00 -1.31,-2.22 -0.95,-2.43 -0.53,-2.52 -0.12,-2.61 0.29,-2.56 0.71,-2.51 1.09,-2.33 1.48,-2.15 1.78,-1.86 2.09,-1.56 2.28,-1.19 2.48,-0.81 2.55,-0.40 2.61,0.01 2.54,0.43 2.47,0.85 2.47,0.85 2.47,0.85 1.65,3.81 0.83,6.78 0.73,7.13 0.64,7.49 0.46,7.81 0.28,8.13 0.03,8.40 -0.21,8.67 -0.52,8.87 -0.82,9.07 -1.17,9.20 -1.52,9.32 -1.88,9.35 -2.25,9.39 -2.61,9.34 -2.97,9.29 -3.32,9.15 -3.66,9.01 -3.95,8.79 -4.25,8.58 -4.49,8.30 -4.73,8.02 -4.89,7.69 -5.05,7.36 -5.13,7.00 -5.21,6.64 -5.20,6.27 -5.19,5.91 -4.07,4.62 -2.95,3.33 -2.95,2.96 -2.95,2.60 -2.86,2.24 -2.77,1.89 -2.60,1.57 -2.43,1.24 -2.19,0.97 -1.94,0.70 -1.64,0.49 -1.34,0.29 -1.00,0.16 -0.66,0.03 -0.30,-0.00 0.06,-0.04 0.42,-0.00 0.78,0.04 1.12,0.17 1.46,0.30 1.76,0.51 2.06,0.72 2.30,0.99 2.54,1.27 2.71,1.59 2.88,1.91 2.96,2.27 3.05,2.62 3.09,3.75 3.13,4.88 2.82,7.18 2.51,9.47 2.22,9.67 1.92,9.86 1.58,9.97 1.25,10.09 0.90,10.12 0.54,10.15 0.20,10.10 -0.14,10.04 -0.47,9.91 -0.80,9.77 -1.08,9.56 -1.37,9.35 -1.59,9.08 -1.82,8.81 -1.97,8.49 -2.13,8.17 -2.20,7.82 -2.28,7.48 -2.26,7.12 -2.25,6.77 -2.16,6.43 -2.06,6.09 -1.89,5.78 -1.71,5.47 -1.47,5.22 -1.23,4.96 -0.67,4.65 -0.12,4.34 -0.20,4.03 -0.27,3.71 -0.28,3.39 -0.28,3.07 -0.20,2.76 -0.12,2.45 0.01,2.16 0.16,1.88 0.37,1.63 0.59,1.39 0.85,1.21 1.12,1.03 1.42,0.91 1.72,0.80 2.04,0.76 2.35,0.72 2.67,0.75 2.99,0.79 3.29,0.91 3.59,1.02 3.86,1.20 4.12,1.38 4.34,1.62 4.55,1.86 4.70,2.15 4.85,2.43 5.33,3.53 5.80,4.62 6.72,6.81 7.64,9.01 8.41,10.08 9.17,11.16 9.13,11.51 9.09,11.85 8.97,12.17 8.85,12.49 8.66,12.78 8.47,13.06 8.21,13.29 7.95,13.52 7.65,13.68 7.35,13.84 7.01,13.93 6.68,14.01 6.33,14.02 5.99,14.02 5.66,13.94 5.32,13.86 5.02,13.70 4.71,13.54 4.45,13.31 4.19,13.09 4.00,12.80 3.80,12.52 3.67,12.20 3.55,11.88 3.51,11.54 3.46,11.20 3.48,10.92 3.50,10.64 3.47,9.28 3.44,7.92 3.43,6.86 3.42,5.79 3.41,3.82 3.40,1.85 1.95,2.18 0.50,2.51 0.19,2.53 -0.11,2.55 -0.41,2.50 -0.72,2.45 -1.00,2.33 -1.28,2.21 -1.53,2.02 -1.78,1.84 -1.97,1.60 -2.17,1.36 -2.30,1.08 -2.43,0.80 -2.49,0.49 -2.55,0.19 -2.54,-0.11 -2.52,-0.42 -2.43,-0.71 -2.35,-1.01 -2.19,-1.28 -2.04,-1.54 -1.82,-1.76 -1.61,-1.99 -1.35,-2.15 -1.08,-2.31 -0.79,-2.41 -0.50,-2.51 -0.50,-2.51 L -0.50,-2.51 Z"></path></g><g transform="translate(351.0946326799658 75.82644878789733) rotate(0 -12.129261453567779 9.492396212702715)" stroke="none"><path fill="#c92a2a" d="M 0,2.28 Q 0,2.28 -1.21,2.33 -2.42,2.37 -4.57,2.68 -6.71,2.99 -7.78,3.37 -8.84,3.75 -9.60,4.58 -10.35,5.41 -12.30,6.53 -14.24,7.65 -15.48,8.63 -16.71,9.60 -17.39,10.53 -18.08,11.45 -18.64,12.43 -19.21,13.42 -20.28,14.44 -21.36,15.46 -21.51,17.29 -21.66,19.12 -21.75,19.53 -21.84,19.94 -22.06,20.30 -22.28,20.66 -22.60,20.93 -22.92,21.20 -23.31,21.36 -23.70,21.51 -24.12,21.54 -24.53,21.56 -24.94,21.45 -25.34,21.33 -25.69,21.10 -26.04,20.86 -26.29,20.53 -26.55,20.19 -26.68,19.80 -26.81,19.40 -26.81,18.98 -26.81,18.56 -26.68,18.16 -26.55,17.76 -26.29,17.43 -26.04,17.10 -25.69,16.86 -25.34,16.62 -24.94,16.51 -24.53,16.40 -24.11,16.42 -23.69,16.45 -23.30,16.60 -22.92,16.76 -22.60,17.03 -22.28,17.30 -22.06,17.66 -21.84,18.02 -21.75,18.43 -21.66,18.84 -21.71,19.26 -21.75,19.67 -21.93,20.06 -22.11,20.44 -22.40,20.74 -22.68,21.05 -23.06,21.24 -23.43,21.44 -23.84,21.51 -24.25,21.57 -24.67,21.51 -25.08,21.44 -25.45,21.24 -25.82,21.04 -26.11,20.74 -26.40,20.43 -26.58,20.05 -26.75,19.67 -26.80,19.26 -26.84,18.84 -26.84,18.84 -26.84,18.84 -26.35,16.22 -25.85,13.61 -24.47,12.24 -23.09,10.87 -22.31,9.74 -21.54,8.62 -20.48,7.43 -19.43,6.24 -18.01,5.09 -16.58,3.94 -15.13,2.92 -13.67,1.90 -12.14,0.54 -10.60,-0.81 -9.12,-1.29 -7.65,-1.77 -5.03,-2.07 -2.42,-2.37 -1.21,-2.33 0,-2.28 0.27,-2.25 0.54,-2.22 0.80,-2.12 1.06,-2.02 1.29,-1.86 1.51,-1.71 1.70,-1.50 1.88,-1.30 2.01,-1.05 2.13,-0.81 2.20,-0.54 2.27,-0.27 2.27,0.00 2.27,0.27 2.20,0.54 2.13,0.81 2.01,1.05 1.88,1.30 1.70,1.50 1.51,1.71 1.29,1.86 1.06,2.02 0.80,2.12 0.54,2.22 0.27,2.25 -0.00,2.28 -0.00,2.28 L 0,2.28 Z"></path></g><g transform="translate(336.32853495411655 119.06964824610691) rotate(0 7.383048862924625 4.218868511052392)" stroke="none"><path fill="#c92a2a" d="M 2.47,-0.61 Q 2.47,-0.61 2.76,0.53 3.05,1.69 3.89,2.66 4.72,3.63 6.39,3.89 8.05,4.14 9.31,4.61 10.57,5.08 12.85,5.35 15.14,5.61 15.58,5.75 16.02,5.88 16.39,6.15 16.77,6.41 17.04,6.79 17.31,7.16 17.44,7.60 17.58,8.04 17.57,8.50 17.56,8.96 17.40,9.39 17.24,9.83 16.96,10.19 16.67,10.54 16.28,10.79 15.89,11.04 15.45,11.16 15.00,11.27 14.54,11.23 14.08,11.20 13.66,11.02 13.24,10.84 12.89,10.53 12.55,10.22 12.32,9.82 12.09,9.42 12.00,8.97 11.92,8.52 11.98,8.06 12.04,7.61 12.24,7.19 12.44,6.78 12.77,6.45 13.09,6.13 13.51,5.92 13.92,5.71 14.37,5.65 14.83,5.59 15.28,5.67 15.73,5.76 16.14,5.98 16.54,6.21 16.85,6.55 17.15,6.89 17.34,7.31 17.52,7.74 17.56,8.20 17.60,8.65 17.49,9.10 17.38,9.55 17.13,9.94 16.89,10.33 16.53,10.62 16.17,10.91 15.74,11.07 15.31,11.23 14.85,11.24 14.39,11.25 14.39,11.25 14.39,11.25 11.56,10.84 8.73,10.43 6.66,9.67 4.59,8.92 3.28,8.54 1.97,8.16 0.69,6.66 -0.57,5.16 -1.21,4.16 -1.84,3.15 -2.15,1.88 -2.47,0.61 -2.51,0.31 -2.54,0.00 -2.51,-0.29 -2.47,-0.60 -2.36,-0.88 -2.26,-1.17 -2.08,-1.43 -1.91,-1.68 -1.68,-1.88 -1.45,-2.09 -1.18,-2.23 -0.91,-2.38 -0.61,-2.45 -0.31,-2.52 -0.00,-2.53 0.29,-2.53 0.59,-2.45 0.89,-2.38 1.16,-2.24 1.44,-2.10 1.67,-1.89 1.90,-1.69 2.07,-1.44 2.25,-1.19 2.36,-0.90 2.47,-0.61 2.47,-0.61 L 2.47,-0.61 Z"></path></g><g transform="translate(361.64174602043204 138.0544986086777) rotate(0 2.6367203979507394 0)" stroke="none"><path fill="#c92a2a" d="M 0,-2.24 Q 0,-2.24 1.51,-2.25 3.03,-2.26 3.30,-2.23 3.57,-2.19 3.82,-2.10 4.08,-2.00 4.30,-1.84 4.53,-1.69 4.71,-1.49 4.89,-1.28 5.02,-1.04 5.14,-0.80 5.21,-0.53 5.27,-0.27 5.27,0.00 5.27,0.27 5.21,0.53 5.14,0.80 5.02,1.04 4.89,1.28 4.71,1.49 4.53,1.69 4.30,1.84 4.08,2.00 3.82,2.10 3.57,2.19 3.30,2.23 3.03,2.26 1.51,2.26 0,2.26 -0.36,2.20 -0.72,2.14 -1.04,1.97 -1.36,1.80 -1.62,1.53 -1.87,1.27 -2.02,0.93 -2.18,0.60 -2.22,0.24 -2.26,-0.12 -2.18,-0.48 -2.10,-0.83 -1.91,-1.15 -1.72,-1.46 -1.44,-1.70 -1.16,-1.93 -0.82,-2.07 -0.48,-2.21 -0.12,-2.23 0.24,-2.25 0.59,-2.15 0.95,-2.05 1.25,-1.84 1.55,-1.64 1.77,-1.35 2.00,-1.06 2.11,-0.71 2.23,-0.36 2.23,0.00 2.23,0.36 2.11,0.71 1.99,1.06 1.77,1.35 1.55,1.64 1.25,1.84 0.95,2.05 0.59,2.15 0.24,2.25 -0.12,2.23 -0.48,2.21 -0.82,2.07 -1.16,1.93 -1.44,1.70 -1.72,1.46 -1.91,1.15 -2.10,0.83 -2.18,0.47 -2.26,0.12 -2.22,-0.24 -2.18,-0.60 -2.02,-0.93 -1.87,-1.27 -1.62,-1.53 -1.36,-1.80 -1.04,-1.97 -0.72,-2.14 -0.36,-2.20 0.00,-2.26 0.00,-2.26 0,-2.26 1.51,-2.26 3.03,-2.26 3.30,-2.23 3.57,-2.19 3.82,-2.10 4.08,-2.00 4.30,-1.84 4.53,-1.69 4.71,-1.49 4.89,-1.28 5.02,-1.04 5.14,-0.80 5.21,-0.53 5.27,-0.27 5.27,-0.00 5.27,0.27 5.21,0.53 5.14,0.80 5.02,1.04 4.89,1.28 4.71,1.49 4.53,1.69 4.30,1.84 4.08,2.00 3.82,2.10 3.57,2.19 3.30,2.23 3.03,2.26 1.51,2.25 0,2.24 -0.26,2.21 -0.53,2.17 -0.78,2.08 -1.04,1.98 -1.26,1.83 -1.48,1.67 -1.66,1.47 -1.84,1.27 -1.97,1.03 -2.09,0.79 -2.16,0.53 -2.22,0.27 -2.22,-0.00 -2.22,-0.27 -2.16,-0.53 -2.09,-0.79 -1.97,-1.03 -1.84,-1.27 -1.66,-1.47 -1.48,-1.67 -1.26,-1.83 -1.04,-1.98 -0.78,-2.08 -0.53,-2.17 -0.26,-2.21 0.00,-2.24 0.00,-2.24 L 0,-2.24 Z"></path></g><g transform="translate(392.228397882649 138.0544986086777) rotate(0 7.9103929425155 -1.5820322387708075)" stroke="none"><path fill="#c92a2a" d="M 0,-2.58 Q 0,-2.58 1.21,-2.60 2.42,-2.61 3.56,-2.54 4.69,-2.48 6.04,-3.19 7.38,-3.90 8.65,-4.16 9.92,-4.41 11.20,-4.54 12.49,-4.67 13.74,-5.31 14.99,-5.95 15.46,-6.01 15.93,-6.06 16.39,-5.97 16.85,-5.88 17.25,-5.64 17.66,-5.40 17.97,-5.05 18.28,-4.70 18.46,-4.26 18.64,-3.83 18.68,-3.36 18.71,-2.89 18.59,-2.44 18.47,-1.98 18.22,-1.59 17.96,-1.19 17.59,-0.90 17.22,-0.61 16.78,-0.46 16.33,-0.30 15.86,-0.29 15.39,-0.28 14.94,-0.43 14.50,-0.57 14.12,-0.85 13.74,-1.13 13.47,-1.51 13.20,-1.90 13.06,-2.35 12.93,-2.80 12.95,-3.27 12.97,-3.74 13.13,-4.18 13.30,-4.62 13.60,-4.98 13.90,-5.34 14.30,-5.59 14.70,-5.84 15.15,-5.95 15.61,-6.06 16.08,-6.01 16.55,-5.97 16.98,-5.78 17.41,-5.59 17.75,-5.27 18.10,-4.95 18.33,-4.54 18.55,-4.13 18.64,-3.67 18.72,-3.21 18.65,-2.74 18.58,-2.27 18.37,-1.86 18.16,-1.44 17.82,-1.11 17.48,-0.78 17.06,-0.58 16.64,-0.37 16.64,-0.37 16.64,-0.37 15.05,0.24 13.46,0.86 12.33,1.01 11.20,1.16 8.61,1.82 6.03,2.48 4.22,2.54 2.42,2.61 1.21,2.60 0,2.58 -0.30,2.54 -0.61,2.50 -0.90,2.39 -1.20,2.28 -1.45,2.11 -1.71,1.93 -1.92,1.70 -2.12,1.46 -2.27,1.19 -2.41,0.91 -2.49,0.61 -2.56,0.31 -2.56,-0.00 -2.56,-0.31 -2.49,-0.61 -2.41,-0.91 -2.27,-1.19 -2.12,-1.46 -1.92,-1.70 -1.71,-1.93 -1.45,-2.11 -1.20,-2.28 -0.90,-2.39 -0.61,-2.50 -0.30,-2.54 0.00,-2.58 0.00,-2.58 L 0,-2.58 Z"></path></g><g transform="translate(417.5416089489645 123.28851675715941) rotate(0 0.527344079589966 -14.238637771928438)" stroke="none"><path fill="#c92a2a" d="M -2.47,0 Q -2.47,0 -2.32,-2.12 -2.17,-4.25 -1.86,-5.97 -1.55,-7.69 -1.48,-8.84 -1.41,-9.99 -1.41,-11.06 -1.41,-12.14 -1.43,-14.55 -1.45,-16.97 -1.53,-18.53 -1.62,-20.09 -1.67,-21.97 -1.73,-23.85 -1.79,-26.16 -1.86,-28.47 -1.78,-28.94 -1.70,-29.40 -1.48,-29.82 -1.26,-30.24 -0.92,-30.56 -0.58,-30.89 -0.15,-31.08 0.27,-31.28 0.74,-31.33 1.21,-31.38 1.67,-31.28 2.13,-31.18 2.53,-30.94 2.94,-30.69 3.24,-30.33 3.55,-29.98 3.72,-29.54 3.90,-29.10 3.92,-28.63 3.95,-28.16 3.82,-27.70 3.70,-27.25 3.43,-26.86 3.17,-26.47 2.79,-26.18 2.41,-25.90 1.97,-25.75 1.52,-25.60 1.05,-25.60 0.58,-25.60 0.13,-25.75 -0.31,-25.90 -0.68,-26.18 -1.06,-26.47 -1.32,-26.86 -1.59,-27.25 -1.71,-27.70 -1.84,-28.16 -1.81,-28.63 -1.79,-29.10 -1.61,-29.54 -1.44,-29.98 -1.13,-30.34 -0.83,-30.69 -0.42,-30.94 -0.02,-31.18 0.43,-31.28 0.89,-31.38 1.36,-31.33 1.83,-31.28 2.26,-31.08 2.69,-30.88 3.03,-30.56 3.37,-30.24 3.59,-29.82 3.81,-29.40 3.89,-28.94 3.97,-28.47 3.97,-28.47 3.97,-28.47 3.90,-26.16 3.84,-23.85 3.78,-21.96 3.72,-20.08 3.62,-18.50 3.53,-16.93 3.51,-15.54 3.49,-14.15 3.42,-13.03 3.36,-11.91 3.25,-10.71 3.14,-9.52 2.95,-8.17 2.76,-6.82 2.47,-5.53 2.17,-4.23 2.32,-2.11 2.47,0 2.44,0.29 2.40,0.59 2.30,0.87 2.19,1.15 2.02,1.39 1.85,1.64 1.63,1.84 1.40,2.04 1.14,2.17 0.87,2.31 0.58,2.38 0.29,2.46 -0.00,2.46 -0.29,2.46 -0.58,2.38 -0.87,2.31 -1.14,2.17 -1.40,2.04 -1.63,1.84 -1.85,1.64 -2.02,1.39 -2.19,1.15 -2.30,0.87 -2.40,0.59 -2.44,0.29 -2.47,-0.00 -2.47,-0.00 L -2.47,0 Z"></path></g><g transform="translate(418.5962971081444 84.26412787283698) rotate(0 -12.656605533157745 -5.800929718405769)" stroke="none"><path fill="#c92a2a" d="M -2.11,1.58 Q -2.11,1.58 -2.99,0.36 -3.87,-0.85 -4.97,-1.61 -6.08,-2.37 -7.48,-2.81 -8.89,-3.26 -10.20,-3.69 -11.51,-4.11 -13.13,-4.20 -14.75,-4.28 -15.98,-4.72 -17.20,-5.15 -19.06,-5.71 -20.92,-6.26 -21.96,-7.18 -23.00,-8.11 -24.39,-8.26 -25.79,-8.41 -26.29,-8.57 -26.79,-8.73 -27.20,-9.04 -27.62,-9.35 -27.92,-9.78 -28.22,-10.21 -28.37,-10.71 -28.51,-11.21 -28.49,-11.73 -28.47,-12.25 -28.28,-12.74 -28.09,-13.23 -27.76,-13.63 -27.42,-14.03 -26.98,-14.30 -26.54,-14.58 -26.03,-14.70 -25.52,-14.82 -25.00,-14.76 -24.48,-14.71 -24.01,-14.50 -23.53,-14.29 -23.15,-13.93 -22.76,-13.58 -22.51,-13.12 -22.26,-12.66 -22.17,-12.15 -22.08,-11.63 -22.16,-11.12 -22.24,-10.60 -22.48,-10.14 -22.72,-9.67 -23.09,-9.31 -23.47,-8.95 -23.94,-8.72 -24.41,-8.50 -24.93,-8.44 -25.45,-8.37 -25.96,-8.48 -26.47,-8.59 -26.92,-8.85 -27.37,-9.11 -27.71,-9.51 -28.05,-9.90 -28.25,-10.38 -28.45,-10.87 -28.48,-11.39 -28.52,-11.91 -28.38,-12.41 -28.25,-12.92 -27.96,-13.35 -27.68,-13.79 -27.26,-14.11 -26.85,-14.43 -26.36,-14.60 -25.87,-14.77 -25.34,-14.78 -24.82,-14.79 -24.82,-14.79 -24.82,-14.79 -22.85,-14.40 -20.88,-14.02 -19.85,-13.45 -18.82,-12.88 -17.59,-12.09 -16.36,-11.31 -15.35,-10.85 -14.35,-10.39 -12.66,-10.23 -10.97,-10.07 -9.39,-9.48 -7.81,-8.89 -6.59,-8.27 -5.38,-7.65 -3.49,-6.62 -1.59,-5.59 -0.68,-4.79 0.23,-4.00 1.17,-2.79 2.11,-1.58 2.27,-1.31 2.43,-1.03 2.52,-0.72 2.61,-0.42 2.62,-0.10 2.64,0.21 2.57,0.52 2.51,0.84 2.37,1.12 2.23,1.41 2.03,1.66 1.83,1.91 1.57,2.10 1.32,2.29 1.02,2.42 0.73,2.54 0.41,2.59 0.10,2.64 -0.21,2.62 -0.53,2.59 -0.83,2.49 -1.13,2.39 -1.40,2.22 -1.67,2.05 -1.89,1.81 -2.11,1.58 -2.11,1.58 L -2.11,1.58 Z"></path></g><g transform="translate(350.03994452078587 64.22458935108534) rotate(0 -8.437737022105466 5.273556670233006)" stroke="none"><path fill="#c92a2a" d="M 0,2.59 Q 0,2.59 -1.46,2.55 -2.92,2.52 -4.30,3.03 -5.68,3.54 -6.64,4.04 -7.60,4.53 -8.50,5.63 -9.41,6.72 -11.54,8.34 -13.66,9.96 -13.99,10.98 -14.31,12.00 -14.61,12.37 -14.91,12.74 -15.31,13.00 -15.71,13.25 -16.18,13.37 -16.64,13.48 -17.12,13.44 -17.59,13.40 -18.03,13.21 -18.46,13.02 -18.82,12.70 -19.17,12.38 -19.41,11.97 -19.64,11.55 -19.73,11.08 -19.82,10.61 -19.75,10.14 -19.68,9.67 -19.47,9.24 -19.26,8.82 -18.92,8.48 -18.58,8.14 -18.15,7.93 -17.73,7.72 -17.25,7.66 -16.78,7.60 -16.31,7.69 -15.85,7.78 -15.43,8.02 -15.02,8.25 -14.70,8.61 -14.38,8.96 -14.20,9.40 -14.01,9.84 -13.97,10.32 -13.93,10.79 -14.05,11.25 -14.17,11.72 -14.43,12.12 -14.68,12.52 -15.06,12.81 -15.43,13.11 -15.88,13.27 -16.32,13.44 -16.80,13.45 -17.28,13.46 -17.73,13.32 -18.19,13.18 -18.57,12.90 -18.96,12.62 -19.24,12.23 -19.51,11.84 -19.65,11.39 -19.79,10.93 -19.78,10.45 -19.76,9.98 -19.60,9.53 -19.43,9.08 -19.43,9.08 -19.43,9.08 -18.06,7.13 -16.69,5.18 -15.41,4.30 -14.14,3.41 -12.49,1.67 -10.84,-0.06 -9.34,-0.90 -7.85,-1.73 -6.63,-1.76 -5.41,-1.79 -4.27,-2.15 -3.13,-2.52 -1.56,-2.55 0,-2.59 0.31,-2.55 0.62,-2.51 0.91,-2.40 1.20,-2.29 1.46,-2.11 1.72,-1.94 1.92,-1.70 2.13,-1.47 2.28,-1.19 2.42,-0.92 2.50,-0.61 2.57,-0.31 2.57,0.00 2.57,0.31 2.50,0.61 2.42,0.92 2.28,1.19 2.13,1.47 1.92,1.70 1.72,1.94 1.46,2.12 1.20,2.29 0.91,2.40 0.62,2.51 0.31,2.55 -0.00,2.59 -0.00,2.59 L 0,2.59 Z"></path></g><g transform="translate(317.34368459154575 57.8962865845067) rotate(0 -12.656489658827013 3.6914954628796295)" stroke="none"><path fill="#c92a2a" d="M 0.73,2.20 Q 0.73,2.20 -1.08,2.72 -2.91,3.24 -4.59,4.52 -6.27,5.80 -9.07,6.56 -11.87,7.31 -13.04,7.68 -14.21,8.04 -16.22,8.19 -18.23,8.34 -19.65,8.44 -21.06,8.54 -22.54,8.98 -24.03,9.43 -24.39,9.58 -24.75,9.73 -25.14,9.76 -25.53,9.78 -25.91,9.69 -26.28,9.59 -26.61,9.37 -26.94,9.16 -27.18,8.85 -27.42,8.55 -27.55,8.18 -27.69,7.81 -27.69,7.42 -27.70,7.03 -27.58,6.66 -27.46,6.28 -27.23,5.97 -27.00,5.65 -26.68,5.43 -26.36,5.20 -25.99,5.09 -25.61,4.98 -25.22,4.99 -24.83,5.01 -24.46,5.15 -24.10,5.29 -23.80,5.53 -23.49,5.78 -23.29,6.11 -23.08,6.45 -22.99,6.83 -22.90,7.21 -22.93,7.60 -22.97,7.98 -23.13,8.34 -23.28,8.70 -23.55,8.99 -23.81,9.28 -24.15,9.47 -24.50,9.65 -24.88,9.72 -25.27,9.79 -25.65,9.74 -26.04,9.68 -26.39,9.50 -26.74,9.33 -27.01,9.05 -27.28,8.77 -27.45,8.42 -27.63,8.06 -27.67,7.68 -27.72,7.29 -27.65,6.91 -27.57,6.52 -27.37,6.18 -27.18,5.85 -26.88,5.59 -26.59,5.33 -26.59,5.33 -26.59,5.33 -23.94,4.62 -21.29,3.90 -19.97,3.86 -18.65,3.83 -17.07,3.65 -15.49,3.46 -13.94,3.06 -12.39,2.65 -11.13,2.59 -9.87,2.53 -8.52,1.86 -7.18,1.18 -5.77,0.18 -4.36,-0.82 -2.55,-1.51 -0.73,-2.20 -0.46,-2.25 -0.18,-2.31 0.09,-2.30 0.37,-2.29 0.64,-2.21 0.91,-2.13 1.15,-1.99 1.39,-1.85 1.59,-1.66 1.79,-1.46 1.94,-1.23 2.09,-0.99 2.18,-0.72 2.27,-0.46 2.29,-0.18 2.32,0.09 2.27,0.37 2.23,0.64 2.12,0.90 2.01,1.16 1.84,1.38 1.67,1.60 1.45,1.78 1.24,1.96 0.98,2.08 0.73,2.20 0.73,2.20 L 0.73,2.20 Z"></path></g><g transform="translate(284.647656410968 74.77170269155135) rotate(0 0 12.129203516402072)" stroke="none"><path fill="#c92a2a" d="M 2.48,0 Q 2.48,0 2.41,1.81 2.34,3.63 2.36,5.01 2.38,6.39 2.41,7.59 2.45,8.78 2.40,10.50 2.35,12.22 2.44,14.30 2.53,16.38 2.59,18.35 2.65,20.33 2.69,22.29 2.73,24.25 2.65,24.69 2.58,25.13 2.38,25.52 2.17,25.91 1.85,26.21 1.53,26.51 1.13,26.70 0.73,26.88 0.29,26.93 -0.14,26.98 -0.57,26.89 -1.01,26.79 -1.38,26.56 -1.76,26.33 -2.05,26.00 -2.34,25.66 -2.50,25.25 -2.66,24.84 -2.69,24.40 -2.71,23.96 -2.59,23.53 -2.47,23.11 -2.23,22.74 -1.98,22.38 -1.63,22.11 -1.27,21.84 -0.86,21.70 -0.44,21.56 0.00,21.56 0.44,21.56 0.86,21.70 1.27,21.84 1.63,22.11 1.98,22.38 2.23,22.74 2.47,23.11 2.59,23.53 2.71,23.96 2.69,24.40 2.66,24.84 2.50,25.25 2.33,25.66 2.05,26.00 1.76,26.34 1.38,26.56 1.01,26.79 0.57,26.89 0.14,26.98 -0.29,26.93 -0.73,26.88 -1.13,26.70 -1.53,26.51 -1.85,26.21 -2.17,25.91 -2.38,25.52 -2.58,25.12 -2.65,24.69 -2.73,24.25 -2.73,24.25 -2.73,24.25 -2.69,22.29 -2.65,20.33 -2.59,18.35 -2.53,16.38 -2.44,14.30 -2.35,12.22 -2.40,10.50 -2.45,8.78 -2.41,7.59 -2.38,6.39 -2.36,5.01 -2.34,3.63 -2.41,1.81 -2.48,0 -2.45,-0.29 -2.41,-0.59 -2.30,-0.87 -2.20,-1.15 -2.03,-1.40 -1.86,-1.65 -1.63,-1.84 -1.41,-2.04 -1.14,-2.18 -0.88,-2.32 -0.59,-2.39 -0.29,-2.47 0.00,-2.47 0.30,-2.47 0.59,-2.39 0.88,-2.32 1.14,-2.18 1.41,-2.04 1.63,-1.84 1.86,-1.64 2.03,-1.40 2.20,-1.15 2.30,-0.87 2.41,-0.59 2.45,-0.29 2.48,0.00 2.48,0.00 L 2.48,0 Z"></path></g><g transform="translate(286.7570327293288 118.01496008692652) rotate(0 6.855588909003018 9.492425181285512)" stroke="none"><path fill="#c92a2a" d="M 2.07,-1.24 Q 2.07,-1.24 2.93,0.30 3.80,1.84 4.31,2.92 4.81,3.99 6.00,6.50 7.19,9.01 8.38,10.22 9.56,11.43 10.50,12.62 11.45,13.80 13.42,15.39 15.39,16.98 15.66,17.30 15.94,17.62 16.09,18.02 16.25,18.41 16.28,18.83 16.30,19.25 16.19,19.66 16.08,20.06 15.84,20.41 15.61,20.76 15.27,21.02 14.94,21.28 14.54,21.42 14.14,21.55 13.72,21.55 13.30,21.56 12.90,21.42 12.49,21.29 12.16,21.04 11.82,20.78 11.58,20.43 11.34,20.09 11.23,19.68 11.11,19.27 11.14,18.85 11.16,18.43 11.31,18.04 11.47,17.65 11.74,17.32 12.01,17.00 12.37,16.78 12.73,16.56 13.14,16.47 13.55,16.38 13.97,16.42 14.39,16.46 14.78,16.64 15.16,16.81 15.47,17.10 15.78,17.39 15.98,17.76 16.17,18.14 16.24,18.55 16.31,18.97 16.25,19.39 16.18,19.80 15.99,20.18 15.79,20.55 15.48,20.84 15.18,21.13 14.80,21.31 14.42,21.49 14.00,21.54 13.58,21.59 13.16,21.50 12.75,21.41 12.39,21.19 12.03,20.98 12.03,20.98 12.03,20.98 9.10,18.09 6.17,15.21 4.79,13.89 3.42,12.58 2.78,10.47 2.13,8.36 0.98,6.29 -0.16,4.21 -1.11,2.73 -2.07,1.24 -2.19,0.97 -2.30,0.71 -2.36,0.42 -2.41,0.13 -2.39,-0.15 -2.37,-0.44 -2.28,-0.72 -2.20,-0.99 -2.04,-1.24 -1.89,-1.49 -1.69,-1.70 -1.48,-1.90 -1.23,-2.05 -0.98,-2.20 -0.70,-2.29 -0.42,-2.37 -0.13,-2.39 0.15,-2.41 0.44,-2.35 0.72,-2.30 0.99,-2.18 1.25,-2.06 1.48,-1.88 1.71,-1.70 1.89,-1.47 2.07,-1.24 2.07,-1.24 L 2.07,-1.24 Z"></path></g><g transform="translate(339.4928311803196 154.92997265288773) rotate(0 4.746212590643154 1.0546881591805004)" stroke="none"><path fill="#c92a2a" d="M 1.01,-2.02 Q 1.01,-2.02 2.23,-1.44 3.46,-0.86 5.12,-0.70 6.79,-0.53 7.63,-0.53 8.47,-0.53 8.78,-0.47 9.08,-0.40 9.36,-0.27 9.64,-0.13 9.88,0.06 10.13,0.26 10.31,0.51 10.50,0.76 10.62,1.04 10.74,1.33 10.79,1.64 10.83,1.95 10.81,2.26 10.78,2.57 10.68,2.86 10.58,3.16 10.41,3.42 10.24,3.68 10.02,3.90 9.79,4.11 9.52,4.27 9.25,4.42 8.95,4.51 8.65,4.59 8.34,4.60 8.02,4.61 3.75,3.36 -0.52,2.12 -0.84,1.98 -1.17,1.84 -1.43,1.60 -1.70,1.37 -1.87,1.06 -2.05,0.75 -2.11,0.40 -2.18,0.06 -2.13,-0.28 -2.09,-0.63 -1.93,-0.95 -1.77,-1.27 -1.52,-1.52 -1.27,-1.77 -0.96,-1.93 -0.64,-2.08 -0.29,-2.13 0.05,-2.18 0.40,-2.11 0.75,-2.05 1.05,-1.87 1.36,-1.70 1.60,-1.44 1.84,-1.17 1.98,-0.85 2.12,-0.53 2.14,-0.17 2.17,0.17 2.09,0.51 2.00,0.86 1.81,1.15 1.62,1.45 1.35,1.67 1.07,1.90 0.74,2.02 0.41,2.14 0.06,2.15 -0.29,2.16 -0.63,2.06 -0.96,1.95 -1.25,1.75 -1.54,1.54 -1.75,1.26 -1.95,0.97 -2.06,0.63 -2.16,0.29 -2.15,-0.05 -2.14,-0.40 -2.02,-0.74 -1.90,-1.07 -1.68,-1.34 -1.46,-1.62 -1.16,-1.81 -0.86,-2.00 -0.52,-2.09 -0.17,-2.17 0.17,-2.15 0.52,-2.12 0.52,-2.12 0.52,-2.12 4.50,-1.32 8.47,-0.53 8.78,-0.47 9.08,-0.40 9.36,-0.27 9.64,-0.13 9.88,0.06 10.12,0.26 10.31,0.51 10.50,0.76 10.62,1.04 10.74,1.33 10.79,1.64 10.83,1.95 10.81,2.26 10.78,2.57 10.68,2.86 10.58,3.16 10.41,3.42 10.24,3.68 10.02,3.90 9.79,4.11 9.52,4.27 9.25,4.42 8.95,4.51 8.65,4.59 8.34,4.60 8.02,4.61 7.19,4.52 6.36,4.42 3.87,3.86 1.38,3.29 0.18,2.66 -1.01,2.02 -1.24,1.87 -1.47,1.72 -1.65,1.52 -1.84,1.32 -1.97,1.08 -2.10,0.84 -2.17,0.58 -2.24,0.31 -2.25,0.04 -2.25,-0.22 -2.19,-0.49 -2.13,-0.76 -2.01,-1.00 -1.89,-1.25 -1.71,-1.45 -1.53,-1.66 -1.31,-1.82 -1.09,-1.98 -0.83,-2.08 -0.58,-2.19 -0.31,-2.22 -0.04,-2.26 0.22,-2.24 0.49,-2.21 0.75,-2.12 1.01,-2.02 1.01,-2.02 L 1.01,-2.02 Z"></path></g><g transform="translate(383.79066086054445 158.09415300476007) rotate(0 15.82078588503009 0)" stroke="none"><path fill="#c92a2a" d="M 0,-1.96 Q 0,-1.96 1.51,-2.00 3.03,-2.04 5.29,-2.15 7.55,-2.27 9.32,-2.23 11.09,-2.19 13.36,-2.07 15.63,-1.96 18.11,-1.87 20.59,-1.78 22.55,-1.76 24.51,-1.74 26.56,-1.70 28.61,-1.66 30.12,-1.73 31.64,-1.80 31.92,-1.75 32.21,-1.70 32.47,-1.57 32.73,-1.43 32.93,-1.22 33.13,-1.01 33.25,-0.74 33.37,-0.48 33.41,-0.19 33.44,0.09 33.38,0.38 33.31,0.66 33.16,0.91 33.01,1.16 32.79,1.35 32.57,1.54 32.30,1.65 32.02,1.76 31.73,1.77 31.44,1.79 31.16,1.71 30.88,1.63 30.64,1.47 30.40,1.30 30.22,1.07 30.04,0.84 29.95,0.56 29.86,0.29 29.86,-0.00 29.86,-0.29 29.95,-0.56 30.04,-0.84 30.22,-1.07 30.40,-1.30 30.64,-1.47 30.88,-1.63 31.16,-1.71 31.44,-1.79 31.73,-1.77 32.02,-1.76 32.30,-1.65 32.57,-1.54 32.79,-1.35 33.01,-1.16 33.16,-0.91 33.31,-0.66 33.38,-0.38 33.44,-0.09 33.41,0.19 33.37,0.48 33.25,0.74 33.13,1.01 32.93,1.22 32.73,1.43 32.47,1.57 32.21,1.70 31.92,1.75 31.64,1.80 31.64,1.80 31.64,1.80 30.12,1.73 28.61,1.66 26.56,1.70 24.51,1.74 22.55,1.76 20.59,1.78 18.11,1.87 15.63,1.96 13.36,2.07 11.09,2.19 9.32,2.23 7.55,2.27 5.29,2.15 3.03,2.04 1.51,2.00 0,1.96 -0.23,1.93 -0.47,1.90 -0.69,1.82 -0.91,1.73 -1.10,1.60 -1.30,1.47 -1.45,1.29 -1.61,1.11 -1.72,0.90 -1.83,0.69 -1.89,0.46 -1.94,0.23 -1.94,-0.00 -1.94,-0.23 -1.89,-0.46 -1.83,-0.69 -1.72,-0.90 -1.61,-1.11 -1.45,-1.29 -1.30,-1.47 -1.10,-1.60 -0.91,-1.73 -0.69,-1.82 -0.46,-1.90 -0.23,-1.93 0.00,-1.96 0.00,-1.96 L 0,-1.96 Z"></path></g><g transform="translate(427.0340341302508 154.92997265288773) rotate(0 11.601801499645262 -3.6915244314623124)" stroke="none"><path fill="#c92a2a" d="M -0.48,-1.95 Q -0.48,-1.95 0.70,-2.32 1.90,-2.68 3.15,-2.89 4.40,-3.11 7.22,-4.08 10.04,-5.05 12.85,-5.61 15.67,-6.18 17.58,-6.93 19.50,-7.68 20.99,-8.37 22.48,-9.05 22.77,-9.12 23.05,-9.19 23.35,-9.17 23.64,-9.15 23.91,-9.03 24.18,-8.91 24.40,-8.71 24.62,-8.52 24.77,-8.26 24.91,-8.00 24.97,-7.71 25.02,-7.42 24.98,-7.13 24.94,-6.84 24.81,-6.58 24.68,-6.31 24.47,-6.10 24.26,-5.90 23.99,-5.77 23.73,-5.64 23.44,-5.60 23.15,-5.56 22.86,-5.61 22.57,-5.67 22.31,-5.81 22.05,-5.96 21.86,-6.18 21.66,-6.40 21.55,-6.67 21.43,-6.94 21.41,-7.24 21.38,-7.53 21.45,-7.82 21.53,-8.10 21.69,-8.35 21.85,-8.60 22.08,-8.78 22.31,-8.97 22.58,-9.07 22.86,-9.17 23.15,-9.18 23.45,-9.18 23.73,-9.10 24.01,-9.01 24.25,-8.84 24.49,-8.66 24.66,-8.42 24.83,-8.18 24.92,-7.90 25.00,-7.62 25.00,-7.33 24.99,-7.03 24.88,-6.75 24.78,-6.48 24.60,-6.25 24.41,-6.02 24.16,-5.86 23.91,-5.70 23.91,-5.70 23.92,-5.70 22.39,-5.10 20.86,-4.50 18.70,-3.50 16.54,-2.51 14.04,-1.82 11.53,-1.14 9.55,-0.23 7.57,0.66 5.26,1.06 2.94,1.47 1.71,1.71 0.48,1.95 0.24,1.98 0.00,2.01 -0.23,1.99 -0.47,1.96 -0.70,1.87 -0.93,1.79 -1.13,1.65 -1.33,1.51 -1.49,1.33 -1.65,1.15 -1.77,0.93 -1.88,0.72 -1.94,0.48 -2.00,0.24 -2.00,0.00 -2.00,-0.23 -1.94,-0.47 -1.89,-0.70 -1.77,-0.92 -1.66,-1.14 -1.50,-1.32 -1.34,-1.50 -1.14,-1.64 -0.94,-1.78 -0.71,-1.87 -0.48,-1.95 -0.48,-1.95 L -0.48,-1.95 Z"></path></g><g transform="translate(462.8943585370307 139.10930264218928) rotate(0 6.328244829413052 -10.547171277631264)" stroke="none"><path fill="#c92a2a" d="M -1.88,-0.94 Q -1.88,-0.94 -1.31,-2.17 -0.75,-3.40 -0.23,-4.55 0.28,-5.69 1.58,-7.68 2.87,-9.67 4.05,-11.21 5.22,-12.75 6.61,-15.04 7.99,-17.32 9.50,-19.75 11.00,-22.18 11.22,-22.42 11.44,-22.65 11.72,-22.80 12.00,-22.96 12.32,-23.01 12.63,-23.07 12.95,-23.02 13.26,-22.97 13.55,-22.82 13.83,-22.68 14.05,-22.45 14.28,-22.22 14.41,-21.93 14.55,-21.64 14.59,-21.32 14.63,-21.00 14.56,-20.69 14.50,-20.38 14.33,-20.10 14.17,-19.82 13.93,-19.61 13.69,-19.41 13.39,-19.28 13.10,-19.16 12.78,-19.14 12.46,-19.12 12.15,-19.20 11.84,-19.29 11.57,-19.46 11.31,-19.64 11.11,-19.89 10.91,-20.14 10.81,-20.45 10.70,-20.75 10.70,-21.07 10.70,-21.39 10.80,-21.69 10.89,-22.00 11.09,-22.25 11.28,-22.51 11.54,-22.69 11.80,-22.88 12.11,-22.96 12.42,-23.05 12.74,-23.04 13.06,-23.03 13.36,-22.91 13.65,-22.79 13.90,-22.59 14.15,-22.39 14.31,-22.11 14.48,-21.84 14.55,-21.53 14.63,-21.22 14.59,-20.90 14.56,-20.58 14.43,-20.29 14.30,-20.00 14.30,-20.00 14.30,-20.00 12.72,-17.77 11.14,-15.54 9.77,-12.95 8.40,-10.36 7.39,-9.00 6.39,-7.64 5.38,-5.64 4.38,-3.64 3.77,-2.54 3.17,-1.44 2.53,-0.25 1.88,0.94 1.74,1.15 1.60,1.36 1.41,1.53 1.23,1.71 1.00,1.83 0.78,1.95 0.54,2.02 0.29,2.08 0.04,2.09 -0.21,2.09 -0.46,2.04 -0.70,1.98 -0.93,1.87 -1.16,1.75 -1.35,1.59 -1.54,1.42 -1.69,1.22 -1.84,1.01 -1.94,0.77 -2.03,0.54 -2.07,0.29 -2.10,0.04 -2.08,-0.21 -2.05,-0.46 -1.96,-0.70 -1.88,-0.94 -1.88,-0.94 L -1.88,-0.94 Z"></path></g><g transform="translate(479.7696008325802 104.30366639458839) rotate(0 0.527344079589966 -11.074486388639002)" stroke="none"><path fill="#c92a2a" d="M -2.29,-0.57 Q -2.29,-0.57 -2.02,-1.79 -1.75,-3.01 -1.69,-4.56 -1.63,-6.12 -1.51,-9.01 -1.39,-11.90 -1.26,-13.93 -1.14,-15.97 -1.16,-17.44 -1.18,-18.91 -1.24,-20.53 -1.30,-22.15 -1.24,-22.52 -1.18,-22.90 -1.00,-23.24 -0.82,-23.57 -0.54,-23.84 -0.26,-24.10 0.07,-24.26 0.42,-24.42 0.80,-24.46 1.18,-24.50 1.55,-24.42 1.92,-24.33 2.25,-24.14 2.58,-23.94 2.83,-23.65 3.07,-23.36 3.21,-23.00 3.35,-22.65 3.37,-22.27 3.39,-21.89 3.29,-21.52 3.19,-21.15 2.98,-20.84 2.76,-20.52 2.46,-20.29 2.15,-20.06 1.79,-19.94 1.43,-19.82 1.05,-19.82 0.67,-19.82 0.30,-19.94 -0.05,-20.06 -0.35,-20.29 -0.65,-20.52 -0.87,-20.84 -1.08,-21.16 -1.18,-21.52 -1.29,-21.89 -1.26,-22.27 -1.24,-22.65 -1.10,-23.01 -0.96,-23.36 -0.71,-23.65 -0.47,-23.94 -0.14,-24.14 0.18,-24.34 0.55,-24.42 0.92,-24.50 1.30,-24.46 1.68,-24.42 2.03,-24.26 2.38,-24.10 2.65,-23.83 2.93,-23.57 3.11,-23.23 3.29,-22.89 3.35,-22.52 3.41,-22.14 3.41,-22.14 3.41,-22.14 3.34,-20.53 3.28,-18.91 3.26,-17.43 3.23,-15.96 3.35,-13.92 3.47,-11.87 3.52,-8.84 3.58,-5.82 3.27,-3.82 2.96,-1.83 2.63,-0.63 2.29,0.57 2.19,0.84 2.09,1.10 1.92,1.34 1.76,1.57 1.55,1.76 1.33,1.95 1.08,2.08 0.83,2.21 0.55,2.28 0.27,2.35 -0.00,2.34 -0.29,2.34 -0.56,2.27 -0.84,2.21 -1.09,2.07 -1.35,1.94 -1.56,1.75 -1.77,1.56 -1.93,1.32 -2.09,1.09 -2.19,0.82 -2.29,0.55 -2.33,0.27 -2.36,-0.00 -2.33,-0.29 -2.29,-0.57 -2.29,-0.57 L -2.29,-0.57 Z"></path></g><g transform="translate(458.6753741516477 65.27927751026596) rotate(0 -18.45750628298083 -6.328273797996076)" stroke="none"><path fill="#c92a2a" d="M -1.11,1.48 Q -1.11,1.48 -2.35,0.61 -3.58,-0.25 -5.84,-1.25 -8.10,-2.26 -10.08,-2.92 -12.06,-3.58 -15.16,-4.86 -18.26,-6.13 -23.69,-7.57 -29.12,-9.00 -33.20,-10.08 -37.29,-11.17 -37.52,-11.26 -37.74,-11.36 -37.93,-11.53 -38.11,-11.70 -38.23,-11.91 -38.35,-12.13 -38.40,-12.37 -38.44,-12.62 -38.41,-12.86 -38.37,-13.11 -38.26,-13.33 -38.15,-13.55 -37.97,-13.73 -37.80,-13.90 -37.57,-14.01 -37.35,-14.12 -37.11,-14.15 -36.86,-14.18 -36.62,-14.14 -36.37,-14.09 -36.16,-13.96 -35.94,-13.84 -35.78,-13.66 -35.61,-13.47 -35.52,-13.24 -35.42,-13.01 -35.40,-12.77 -35.38,-12.52 -35.44,-12.28 -35.50,-12.04 -35.64,-11.83 -35.77,-11.62 -35.97,-11.47 -36.16,-11.31 -36.40,-11.23 -36.63,-11.14 -36.88,-11.14 -37.13,-11.13 -37.36,-11.21 -37.60,-11.28 -37.80,-11.43 -38.00,-11.57 -38.14,-11.78 -38.29,-11.98 -38.36,-12.22 -38.43,-12.45 -38.42,-12.70 -38.41,-12.95 -38.33,-13.18 -38.24,-13.41 -38.08,-13.61 -37.93,-13.80 -37.72,-13.93 -37.51,-14.06 -37.27,-14.12 -37.03,-14.18 -36.78,-14.16 -36.53,-14.14 -36.53,-14.14 -36.53,-14.14 -32.43,-13.13 -28.32,-12.13 -22.67,-10.75 -17.02,-9.36 -14.02,-8.28 -11.02,-7.20 -8.64,-6.60 -6.26,-6.00 -4.71,-5.25 -3.15,-4.50 -2.21,-3.94 -1.26,-3.38 -0.07,-2.43 1.11,-1.48 1.27,-1.32 1.43,-1.17 1.55,-0.98 1.67,-0.79 1.74,-0.58 1.81,-0.37 1.83,-0.14 1.85,0.07 1.81,0.29 1.77,0.51 1.69,0.71 1.60,0.92 1.47,1.10 1.33,1.28 1.16,1.42 0.99,1.56 0.78,1.66 0.58,1.75 0.36,1.80 0.15,1.84 -0.07,1.83 -0.29,1.82 -0.50,1.76 -0.72,1.70 -0.91,1.59 -1.11,1.48 -1.11,1.48 L -1.11,1.48 Z"></path></g><g transform="translate(393.28308604183076 45.23973898851432) rotate(0 -19.512194442160762 -1.5820901759359458)" stroke="none"><path fill="#c92a2a" d="M 0,1.76 Q 0,1.76 -2.12,1.70 -4.24,1.64 -6.36,1.60 -8.47,1.56 -10.89,1.52 -13.30,1.49 -16.82,1.16 -20.33,0.83 -23.28,0.68 -26.24,0.54 -29.44,-0.14 -32.64,-0.83 -35.94,-1.20 -39.25,-1.58 -39.50,-1.66 -39.74,-1.74 -39.95,-1.89 -40.16,-2.04 -40.31,-2.25 -40.46,-2.46 -40.53,-2.71 -40.60,-2.96 -40.59,-3.22 -40.58,-3.48 -40.49,-3.72 -40.40,-3.96 -40.24,-4.16 -40.07,-4.36 -39.85,-4.49 -39.64,-4.63 -39.38,-4.69 -39.13,-4.75 -38.88,-4.73 -38.62,-4.70 -38.38,-4.60 -38.15,-4.50 -37.96,-4.32 -37.77,-4.15 -37.64,-3.92 -37.52,-3.69 -37.47,-3.44 -37.42,-3.19 -37.46,-2.93 -37.50,-2.68 -37.62,-2.44 -37.73,-2.21 -37.92,-2.03 -38.10,-1.85 -38.33,-1.74 -38.57,-1.63 -38.82,-1.60 -39.08,-1.56 -39.33,-1.62 -39.59,-1.67 -39.81,-1.80 -40.03,-1.93 -40.20,-2.12 -40.37,-2.31 -40.47,-2.55 -40.57,-2.79 -40.59,-3.05 -40.61,-3.31 -40.54,-3.56 -40.48,-3.81 -40.34,-4.02 -40.20,-4.24 -39.99,-4.40 -39.79,-4.56 -39.55,-4.64 -39.30,-4.73 -39.05,-4.73 -38.79,-4.74 -38.79,-4.74 -38.79,-4.74 -35.42,-4.14 -32.06,-3.53 -29.08,-2.90 -26.11,-2.27 -23.09,-2.15 -20.08,-2.04 -16.69,-1.76 -13.30,-1.49 -10.89,-1.52 -8.47,-1.56 -6.36,-1.60 -4.24,-1.64 -2.12,-1.70 0,-1.76 0.21,-1.74 0.42,-1.71 0.62,-1.64 0.82,-1.56 0.99,-1.44 1.17,-1.32 1.31,-1.16 1.45,-1.00 1.55,-0.81 1.65,-0.62 1.70,-0.42 1.75,-0.21 1.75,0.00 1.75,0.21 1.70,0.42 1.65,0.62 1.55,0.81 1.45,1.00 1.31,1.16 1.17,1.32 0.99,1.44 0.82,1.56 0.62,1.64 0.42,1.71 0.21,1.74 -0.00,1.76 -0.00,1.76 L 0,1.76 Z"></path></g><g transform="translate(319.4530609099056 46.29442714769516) rotate(0 -7.382932988592984 3.6914954628796295)" stroke="none"><path fill="#c92a2a" d="M 0.91,2.29 Q 0.91,2.29 -0.60,2.87 -2.13,3.44 -4.36,4.58 -6.60,5.72 -8.39,6.41 -10.19,7.11 -11.65,8.32 -13.12,9.54 -13.50,9.74 -13.89,9.95 -14.32,10.02 -14.76,10.09 -15.19,10.02 -15.62,9.95 -16.01,9.74 -16.40,9.54 -16.70,9.22 -17.00,8.90 -17.19,8.50 -17.37,8.11 -17.42,7.67 -17.47,7.23 -17.38,6.81 -17.28,6.38 -17.06,6.00 -16.83,5.62 -16.50,5.34 -16.16,5.06 -15.75,4.89 -15.35,4.73 -14.91,4.71 -14.47,4.68 -14.05,4.80 -13.62,4.92 -13.26,5.16 -12.90,5.41 -12.63,5.76 -12.37,6.11 -12.22,6.52 -12.08,6.94 -12.08,7.38 -12.08,7.81 -12.22,8.23 -12.36,8.65 -12.63,9.00 -12.89,9.35 -13.26,9.59 -13.62,9.84 -14.04,9.96 -14.47,10.07 -14.90,10.05 -15.34,10.03 -15.75,9.87 -16.16,9.70 -16.49,9.42 -16.83,9.14 -17.05,8.76 -17.28,8.38 -17.37,7.96 -17.47,7.53 -17.42,7.09 -17.38,6.65 -17.19,6.26 -17.01,5.86 -16.71,5.54 -16.40,5.22 -16.40,5.22 -16.40,5.22 -14.32,3.73 -12.24,2.24 -10.37,1.68 -8.50,1.11 -7.34,0.65 -6.19,0.18 -5.06,-0.41 -3.93,-1.02 -2.42,-1.65 -0.91,-2.29 -0.63,-2.37 -0.34,-2.45 -0.04,-2.45 0.25,-2.46 0.54,-2.39 0.83,-2.32 1.10,-2.19 1.36,-2.06 1.59,-1.86 1.82,-1.67 1.99,-1.43 2.17,-1.18 2.28,-0.91 2.39,-0.63 2.43,-0.33 2.47,-0.04 2.44,0.25 2.41,0.54 2.31,0.82 2.21,1.11 2.04,1.35 1.88,1.60 1.66,1.80 1.44,2.01 1.18,2.15 0.91,2.29 0.91,2.29 L 0.91,2.29 Z"></path></g></svg>