<svg version="1.1" xmlns="http://www.w3.org/2000/svg" viewBox="0 0 315.65346735310777 283.79720648684065" width="315.65346735310777" height="283.79720648684065">
  <!-- svg-source:excalidraw -->
  
  <defs>
    <style>
      @font-face {
        font-family: "Virgil";
        src: url("https://excalidraw.com/Virgil.woff2");
      }
      @font-face {
        font-family: "Cascadia";
        src: url("https://excalidraw.com/Cascadia.woff2");
      }
    </style>
  </defs>
  <rect x="0" y="0" width="315.65346735310777" height="283.79720648684065" fill="#ffffff"></rect><g stroke-linecap="round"><g transform="translate(10 273.79720648684065) rotate(0 147.82673367655389 0)"><path d="M0 0 C49.28 0, 246.38 0, 295.65 0 M0 0 C49.28 0, 246.38 0, 295.65 0" stroke="#000000" stroke-width="2" fill="none"></path></g></g><g stroke-linecap="round"><g transform="translate(10 273.79720648684065) rotate(0 0 -131.89860324342033)"><path d="M0 0 C0 -43.97, 0 -219.83, 0 -263.8 M0 0 C0 -43.97, 0 -219.83, 0 -263.8" stroke="#000000" stroke-width="2" fill="none"></path></g></g><g stroke-linecap="round"><g transform="translate(10 273.79720648684065) rotate(0 20 -90)"><path d="M0 0 C6.67 -30, 33.33 -150, 40 -180 M0 0 C6.67 -30, 33.33 -150, 40 -180" stroke="#000000" stroke-width="2" fill="none"></path></g><g transform="translate(10 273.79720648684065) rotate(0 20 -90)"><path d="M43.9 -150.25 C42.84 -158.32, 41.79 -166.38, 40 -180 M43.9 -150.25 C42.85 -158.26, 41.8 -166.26, 40 -180" stroke="#000000" stroke-width="2" fill="none"></path></g><g transform="translate(10 273.79720648684065) rotate(0 20 -90)"><path d="M23.87 -154.71 C28.24 -161.56, 32.61 -168.42, 40 -180 M23.87 -154.71 C28.21 -161.51, 32.55 -168.32, 40 -180" stroke="#000000" stroke-width="2" fill="none"></path></g></g><g stroke-linecap="round"><g transform="translate(10 273.79720648684065) rotate(0 70 -100)"><path d="M0 0 C23.33 -33.33, 116.67 -166.67, 140 -200 M0 0 C23.33 -33.33, 116.67 -166.67, 140 -200" stroke="#000000" stroke-width="2" fill="none"></path></g><g transform="translate(10 273.79720648684065) rotate(0 70 -100)"><path d="M132.24 -171.02 C133.88 -177.15, 135.52 -183.28, 140 -200 M132.24 -171.02 C133.97 -177.48, 135.7 -183.93, 140 -200" stroke="#000000" stroke-width="2" fill="none"></path></g><g transform="translate(10 273.79720648684065) rotate(0 70 -100)"><path d="M115.43 -182.79 C120.62 -186.43, 125.82 -190.07, 140 -200 M115.43 -182.79 C120.9 -186.62, 126.38 -190.46, 140 -200" stroke="#000000" stroke-width="2" fill="none"></path></g></g><g stroke-linecap="round"><g transform="translate(10 273.79720648684065) rotate(0 80 -40)"><path d="M0 0 C26.67 -13.33, 133.33 -66.67, 160 -80 M0 0 C26.67 -13.33, 133.33 -66.67, 160 -80" stroke="#000000" stroke-width="2" fill="none"></path></g><g transform="translate(10 273.79720648684065) rotate(0 80 -40)"><path d="M139.37 -58.22 C143.95 -63.05, 148.53 -67.89, 160 -80 M139.37 -58.22 C146.54 -65.78, 153.7 -73.35, 160 -80" stroke="#000000" stroke-width="2" fill="none"></path></g><g transform="translate(10 273.79720648684065) rotate(0 80 -40)"><path d="M130.2 -76.57 C136.81 -77.33, 143.43 -78.09, 160 -80 M130.2 -76.57 C140.55 -77.76, 150.9 -78.95, 160 -80" stroke="#000000" stroke-width="2" fill="none"></path></g></g><g stroke-linecap="round"><g transform="translate(50 93.79720648682473) rotate(0 60 40)"><path d="M0 0 C20.49 -4.1, 40.97 -8.19, 100 -20 M100 -20 C106.55 19.28, 113.09 58.56, 120 100 M120 100 C88.44 73.7, 56.88 47.4, 0 0" stroke="#000000" stroke-width="2.5" fill="none" stroke-dasharray="8 10"></path></g></g><g transform="translate(164.6423170159378 43.65655499279569) rotate(0 5.5 10.5)"><text x="0" y="14" font-family="Virgil, Segoe UI Emoji" font-size="16px" fill="#000000" text-anchor="start" style="white-space: pre;" direction="ltr">u</text></g><g transform="translate(190 193.79720648682724) rotate(0 5 10.5)"><text x="0" y="14" font-family="Virgil, Segoe UI Emoji" font-size="16px" fill="#000000" text-anchor="start" style="white-space: pre;" direction="ltr">v</text></g><g transform="translate(37.49090655305008 66.37639132768913) rotate(0 6 10.5)"><text x="0" y="14" font-family="Virgil, Segoe UI Emoji" font-size="16px" fill="#000000" text-anchor="start" style="white-space: pre;" direction="ltr">w</text></g></svg>