<svg version="1.1" xmlns="http://www.w3.org/2000/svg" viewBox="0 0 560 303.7972064868409" width="560" height="303.7972064868409">
  <!-- svg-source:excalidraw -->
  
  <defs>
    <style>
      @font-face {
        font-family: "Virgil";
        src: url("https://excalidraw.com/Virgil.woff2");
      }
      @font-face {
        font-family: "Cascadia";
        src: url("https://excalidraw.com/Cascadia.woff2");
      }
    </style>
  </defs>
  <rect x="0" y="0" width="560" height="303.7972064868409" fill="#ffffff"></rect><g stroke-linecap="round"><g transform="translate(10 293.7972064868409) rotate(0 147.82673367655389 0)"><path d="M0 0 C49.28 0, 246.38 0, 295.65 0 M0 0 C49.28 0, 246.38 0, 295.65 0" stroke="#000000" stroke-width="2" fill="none"></path></g></g><g stroke-linecap="round"><g transform="translate(10 293.7972064868409) rotate(0 0 -131.89860324342033)"><path d="M0 0 C0 -43.97, 0 -219.83, 0 -263.8 M0 0 C0 -43.97, 0 -219.83, 0 -263.8" stroke="#000000" stroke-width="2" fill="none"></path></g></g><g stroke-linecap="round"><g transform="translate(10 293.7972064868409) rotate(0 40 -61.89860324342044)"><path d="M0 0 C13.33 -20.63, 66.67 -103.16, 80 -123.8 M0 0 C13.33 -20.63, 66.67 -103.16, 80 -123.8" stroke="#000000" stroke-width="2" fill="none"></path></g><g transform="translate(10 293.7972064868409) rotate(0 40 -61.89860324342044)"><path d="M73.32 -94.55 C74.68 -100.5, 76.04 -106.45, 80 -123.8 M73.32 -94.55 C74.96 -101.73, 76.6 -108.9, 80 -123.8" stroke="#000000" stroke-width="2" fill="none"></path></g><g transform="translate(10 293.7972064868409) rotate(0 40 -61.89860324342044)"><path d="M56.08 -105.69 C60.95 -109.37, 65.82 -113.06, 80 -123.8 M56.08 -105.69 C61.95 -110.13, 67.82 -114.58, 80 -123.8" stroke="#000000" stroke-width="2" fill="none"></path></g></g><g stroke-linecap="round"><g transform="translate(10 293.7972064868409) rotate(0 70 -31.89860324342044)"><path d="M0 0 C23.33 -10.63, 116.67 -53.16, 140 -63.8 M0 0 C23.33 -10.63, 116.67 -53.16, 140 -63.8" stroke="#000000" stroke-width="2" fill="none"></path></g><g transform="translate(10 293.7972064868409) rotate(0 70 -31.89860324342044)"><path d="M118.6 -42.77 C124.26 -48.33, 129.92 -53.9, 140 -63.8 M118.6 -42.77 C124.17 -48.24, 129.73 -53.7, 140 -63.8" stroke="#000000" stroke-width="2" fill="none"></path></g><g transform="translate(10 293.7972064868409) rotate(0 70 -31.89860324342044)"><path d="M110.09 -61.44 C118 -62.07, 125.92 -62.69, 140 -63.8 M110.09 -61.44 C117.87 -62.06, 125.64 -62.67, 140 -63.8" stroke="#000000" stroke-width="2" fill="none"></path></g></g><g transform="translate(170 230) rotate(0 5 10.5)"><text x="0" y="14" font-family="Virgil, Segoe UI Emoji" font-size="16px" fill="#000000" text-anchor="start" style="white-space: pre;" direction="ltr">v</text></g><g transform="translate(50 150) rotate(0 6 10.5)"><text x="0" y="14" font-family="Virgil, Segoe UI Emoji" font-size="16px" fill="#000000" text-anchor="start" style="white-space: pre;" direction="ltr">w</text></g><g stroke-linecap="round"><g transform="translate(10 290) rotate(0 90 -140)"><path d="M0 0 C52.67 -81.93, 105.34 -163.87, 180 -280" stroke="#000000" stroke-width="2.5" fill="none" stroke-dasharray="8 10"></path></g></g><g stroke-linecap="round"><g transform="translate(10 290) rotate(0 270 -120)"><path d="M0 0 C142.73 -63.44, 285.47 -126.87, 540 -240" stroke="#000000" stroke-width="2.5" fill="none" stroke-dasharray="8 10"></path></g></g></svg>