<svg version="1.1" xmlns="http://www.w3.org/2000/svg" viewBox="0 0 949.1049138054038 280.0941506559727" width="949.1049138054038" height="280.0941506559727">
  <!-- svg-source:excalidraw -->
  
  <defs>
    <style>
      @font-face {
        font-family: "Virgil";
        src: url("https://excalidraw.com/Virgil.woff2");
      }
      @font-face {
        font-family: "Cascadia";
        src: url("https://excalidraw.com/Cascadia.woff2");
      }
    </style>
  </defs>
  <rect x="0" y="0" width="949.1049138054038" height="280.0941506559727" fill="#ffffff"></rect><g transform="translate(108.4149425523749 144.4274941618321) rotate(0 39.5 12.5)"><text x="0" y="18" font-family="Virgil, Segoe UI Emoji" font-size="20px" fill="#000000" text-anchor="start" style="white-space: pre;" direction="ltr">Program</text></g><g transform="translate(108.4149425523749 193.09418117355085) rotate(0 56 12.5)"><text x="0" y="18" font-family="Virgil, Segoe UI Emoji" font-size="20px" fill="#000000" text-anchor="start" style="white-space: pre;" direction="ltr">Interpreter</text></g><g transform="translate(108.4149425523749 237.09418117355085) rotate(0 37 12.5)"><text x="0" y="18" font-family="Virgil, Segoe UI Emoji" font-size="20px" fill="#000000" text-anchor="start" style="white-space: pre;" direction="ltr">Machine</text></g><g stroke-linecap="round" transform="translate(90.7483165758124 134.09415065597273) rotate(0 68.66665649414062 22.333328247070312)"><path d="M0.54 0.08 C27.17 -0.58, 56.57 -0.26, 135.34 -0.88 M0.81 -0.34 C52.01 1.23, 102.08 2.18, 137.66 -0.31 M136.51 -0.06 C139.53 13.73, 138.84 28.93, 137.94 46.36 M137.11 0.45 C136.98 18.16, 137.09 35.49, 137.06 45.42 M139.33 45.93 C86.98 44.94, 32.69 44.53, 1.94 44.82 M137.6 44.49 C93.93 45.49, 52.39 44.79, -0.39 45.66 M1.63 44.82 C-2.14 35.26, 0.04 22.41, -0.63 0.78 M-0.78 43.91 C0.43 35.43, -0.39 25.45, -0.63 0.96" stroke="#000000" stroke-width="1" fill="none"></path></g><g stroke-linecap="round" transform="translate(90.7483165758124 180.76080715011335) rotate(0 68.66665649414062 22.333328247070312)"><path d="M-1.53 -1.15 C25.83 -0.82, 54.67 1.44, 137.33 1.35 M0.76 -0.69 C44.04 1.47, 87.82 1.29, 137.9 0.7 M137.23 -0.67 C136.08 10.26, 137.89 25.03, 138.49 43.39 M137.71 -0.49 C137 14.14, 137.12 26.33, 136.37 45.44 M137.33 45.71 C109.35 46.88, 83.11 45.77, 1.78 46.28 M137.7 43.86 C85.36 43.28, 35.16 42.67, -0.9 44.73 M0.55 45.67 C-0.63 27.14, -1.25 8.43, 0.56 1.27 M0.64 44.44 C-1.36 29.61, -0.91 12.1, 0.38 -0.34" stroke="#000000" stroke-width="1" fill="none"></path></g><g stroke-linecap="round" transform="translate(90.7483165758124 225.4274941618321) rotate(0 68.66665649414062 22.333328247070312)"><path d="M0.38 0.2 C31.88 0.81, 65.62 -0.29, 135.47 0.9 M-0.49 -0.53 C33.72 -0.97, 64.7 -1.37, 137.77 0.38 M137.08 0.09 C136.31 10.08, 139.22 19.54, 138.68 46.18 M138.23 -0.76 C138.4 13.3, 136.86 27.77, 138.05 45.58 M137.25 45.33 C94.59 45.63, 54.73 42.81, -1.31 46.59 M137.37 45.63 C100.27 45.33, 62.58 46.03, -0.73 43.82 M0.28 46.38 C0.94 26.32, -1.57 8.69, -1.8 0.43 M-0.88 45.26 C-0.92 32.55, 0.32 21.44, 0.13 0.6" stroke="#000000" stroke-width="1" fill="none"></path></g><g transform="translate(344.4149425523749 144.4274941618321) rotate(0 39.5 12.5)"><text x="0" y="18" font-family="Virgil, Segoe UI Emoji" font-size="20px" fill="#000000" text-anchor="start" style="white-space: pre;" direction="ltr">Program</text></g><g stroke-linecap="round" transform="translate(326.7483165758124 134.09415065597273) rotate(0 68.66665649414062 22.333328247070312)"><path d="M1.29 1.27 C55.35 -1.12, 105.85 -1.15, 136.46 1.92 M-0.2 0.41 C31.49 1.79, 62.15 2.24, 137.62 0.72 M137.55 0.31 C137.45 8.78, 138.15 18.4, 137.33 43.72 M137.68 0.73 C138.5 12.12, 136.69 25.15, 137.05 44.37 M139.11 42.99 C87.87 44.87, 37.81 45.35, 0.43 44.85 M136.54 43.68 C94.9 46.22, 51.26 46.28, 0.43 43.86 M1.2 45.4 C0.38 33.97, -0.33 23.47, -0.72 -1.75 M0.9 44.8 C0.24 32.92, 0.82 20.95, -0.7 -0.89" stroke="#000000" stroke-width="1" fill="none"></path></g><g transform="translate(555.7483165758124 144.4274941618321) rotate(0 38.5 12.5)"><text x="0" y="18" font-family="Virgil, Segoe UI Emoji" font-size="20px" fill="#000000" text-anchor="start" style="white-space: pre;" direction="ltr">Compiler</text></g><g stroke-linecap="round" transform="translate(538.0816905992499 134.09415065597273) rotate(0 68.66665649414062 22.333328247070312)"><path d="M1.74 1.5 C26.94 -1.45, 55.48 -0.44, 135.67 1.25 M-0.32 -0.58 C27.16 -0.11, 55.39 0.66, 137.3 0.11 M137.08 -0.39 C138.74 12.5, 136.27 20.7, 135.37 42.76 M137.79 -0.68 C135.98 13.25, 137.75 26.89, 138.01 44.62 M136.21 46.43 C103.14 45.9, 73.46 44.57, 1.62 44.72 M138.02 45.56 C95.43 44.07, 52.1 45.17, 0.51 45.59 M0.3 44.06 C-0.93 33.67, 1.6 21.4, 1.79 1.94 M-0.63 45.28 C0.23 28.05, 0.38 12.03, -0.48 -0.02" stroke="#000000" stroke-width="1" fill="none"></path></g><g transform="translate(555.7483165758124 191.09415065597273) rotate(0 37 12.5)"><text x="0" y="18" font-family="Virgil, Segoe UI Emoji" font-size="20px" fill="#000000" text-anchor="start" style="white-space: pre;" direction="ltr">Machine</text></g><g stroke-linecap="round" transform="translate(538.0816905992499 180.76080715011335) rotate(0 68.66665649414062 22.333328247070312)"><path d="M0.14 0.04 C49.81 1.92, 100.96 -0.26, 137.1 -0.65 M0.22 0.49 C33.23 0.49, 65.9 1.21, 137.44 -0.13 M135.89 -0.46 C135.6 10.63, 137.65 23.2, 135.88 45.58 M138.16 -0.31 C137.6 10.32, 136.3 19.9, 137.75 44.1 M138.87 44 C85.65 45.17, 30.86 44.38, 0.37 46.04 M136.39 44.91 C84.33 44.43, 29.74 44.04, -0.97 44.82 M1.84 43.19 C1.95 34.56, 1.66 18.81, -1.99 -1.25 M-0.01 45.57 C-0.41 28.49, -0.71 11.82, -0.16 -0.48" stroke="#000000" stroke-width="1" fill="none"></path></g><g transform="translate(786.4150035875311 144.4274941618321) rotate(0 58.5 12.5)"><text x="0" y="18" font-family="Virgil, Segoe UI Emoji" font-size="20px" fill="#000000" text-anchor="start" style="white-space: pre;" direction="ltr">Binary Code</text></g><g stroke-linecap="round" transform="translate(768.7483776109686 134.09415065597273) rotate(0 85.1782680972176 22.333328247070312)"><path d="M-0.05 -0.45 C57.68 -1.58, 111.73 -2, 171.77 1.1 M0.77 -0.99 C54.63 1.16, 110.27 0.39, 169.43 -0.15 M172.17 0.83 C172.3 13.86, 168.79 24.22, 171.59 45.1 M169.64 -0.63 C169.79 11.49, 169.66 24.37, 171.21 44.36 M169.94 43.03 C120.84 41.57, 76.53 42.79, 1.32 44.54 M169.67 44.93 C124.35 44.09, 77.24 45.11, 0.07 44.72 M-1.41 45.48 C1.75 30.2, 0.75 11.91, 0.25 1.73 M0.33 44.64 C0.52 29.68, -0.62 14.44, 0.41 0.6" stroke="#000000" stroke-width="1" fill="none"></path></g><g transform="translate(786.4150035875311 191.09415065597273) rotate(0 37 12.5)"><text x="0" y="18" font-family="Virgil, Segoe UI Emoji" font-size="20px" fill="#000000" text-anchor="start" style="white-space: pre;" direction="ltr">Machine</text></g><g stroke-linecap="round" transform="translate(768.7483776109686 180.76080715011335) rotate(0 84.93181872443495 22.333328247070312)"><path d="M-1.46 -1.7 C53.98 -2.69, 105.11 -1.02, 171.58 0.63 M-0.9 0.21 C43.79 1.45, 89.12 -0.15, 170.45 -0.6 M170.13 1.2 C171.17 7.42, 171.89 19.72, 169.68 46.19 M169.1 -0.58 C169.19 8.26, 169.71 18.43, 169.86 45.34 M171.38 43.29 C115.55 45.08, 60.73 44.73, 1.13 46.06 M169.81 44.33 C123.1 42.13, 77.66 43.41, 0.58 44.03 M0.76 43.69 C-0.45 33.31, -0.2 18.02, -1.92 1.55 M0 45.19 C0.2 36.6, 1 26.98, 0.89 0.81" stroke="#000000" stroke-width="1" fill="none"></path></g><g stroke-linecap="round"><g transform="translate(468.7483165758124 155.4274941618321) rotate(0 34.498089185403614 0.744684108413594)"><path d="M0.02 1.15 C11.51 1.09, 56.82 -0.03, 68.27 -0.03 M-1.43 0.71 C10.48 0.82, 58.92 1.71, 70.43 1.49" stroke="#000000" stroke-width="1" fill="none"></path></g><g transform="translate(468.7483165758124 155.4274941618321) rotate(0 34.498089185403614 0.744684108413594)"><path d="M44.12 9.9 C48.96 8.15, 57.73 8.4, 71.56 3.01 M41.35 12.08 C49.94 9.5, 57.35 5.06, 70.28 1.89" stroke="#000000" stroke-width="1" fill="none"></path></g><g transform="translate(468.7483165758124 155.4274941618321) rotate(0 34.498089185403614 0.744684108413594)"><path d="M44.18 -10.62 C49.06 -7.4, 57.82 -2.18, 71.56 3.01 M41.41 -8.44 C49.89 -5.33, 57.28 -4.09, 70.28 1.89" stroke="#000000" stroke-width="1" fill="none"></path></g></g><g stroke-linecap="round"><g transform="translate(679.4149425523749 157.4274941618321) rotate(0 39.77467481506062 0.14932183474297744)"><path d="M0.53 1.05 C13.59 0.92, 64.9 -0.58, 77.89 -0.75 M-0.65 0.56 C12.83 0.56, 67.15 0.25, 80.19 0.39" stroke="#000000" stroke-width="1" fill="none"></path></g><g transform="translate(679.4149425523749 157.4274941618321) rotate(0 39.77467481506062 0.14932183474297744)"><path d="M53.74 9.32 C58.2 7.46, 66.98 3.49, 81.13 -0.17 M52.86 9.85 C62.15 6.7, 69.79 4.36, 80.55 1.11" stroke="#000000" stroke-width="1" fill="none"></path></g><g transform="translate(679.4149425523749 157.4274941618321) rotate(0 39.77467481506062 0.14932183474297744)"><path d="M53.77 -11.2 C58.22 -7.63, 67 -6.18, 81.13 -0.17 M52.89 -10.67 C62.11 -7.17, 69.75 -2.86, 80.55 1.11" stroke="#000000" stroke-width="1" fill="none"></path></g></g><g transform="translate(10 10) rotate(0 129.5 45.5)"><text x="0" y="31.5" font-family="Virgil, Segoe UI Emoji" font-size="36px" fill="#000000" text-anchor="start" style="white-space: pre;" direction="ltr">Interpreter</text><text x="0" y="77" font-family="Virgil, Segoe UI Emoji" font-size="36px" fill="#000000" text-anchor="start" style="white-space: pre;" direction="ltr">Implementation</text></g><g transform="translate(473.6471159644102 10) rotate(0 129.5 45.5)"><text x="0" y="31.5" font-family="Virgil, Segoe UI Emoji" font-size="36px" fill="#000000" text-anchor="start" style="white-space: pre;" direction="ltr">Compiler way</text><text x="0" y="77" font-family="Virgil, Segoe UI Emoji" font-size="36px" fill="#000000" text-anchor="start" style="white-space: pre;" direction="ltr">Implementation</text></g></svg>