<?xml version="1.0" encoding="utf-8"?>
<!-- Generator: Adobe Illustrator 17.1.0, SVG Export Plug-In . SVG Version: 6.00 Build 0)  -->
<!DOCTYPE svg PUBLIC "-//W3C//DTD SVG 1.1//EN" "http://www.w3.org/Graphics/SVG/1.1/DTD/svg11.dtd">
<svg version="1.1" id="Layer_2" xmlns="http://www.w3.org/2000/svg" xmlns:xlink="http://www.w3.org/1999/xlink" x="0px" y="0px"
	 viewBox="0 0 480 480" style="enable-background:new 0 0 480 480;" width="480" height="480" xml:space="preserve">
<style type="text/css">
	.st0{fill:none;stroke:#000;stroke-width:2;stroke-linecap:round;}
	.st1{fill:#74932E;fill-opacity:0.8;}
	.st2{fill:#E9C936;fill-opacity:0.8;}
	.st3{fill:#E75252;fill-opacity:0.8;}
	.st4{fill:#fff;}
	.st5{opacity:0.4;fill:#fff;}
</style>
<line class="st0" x1="53.5" y1="346.4" x2="224.1" y2="247.7"/>
<line class="st0" x1="430.7" y1="318.9" x2="224.1" y2="247.7"/>
<line class="st0" x1="224.1" y1="18.7" x2="224.1" y2="247.7"/>
<line class="st0" x1="224.1" y1="18.7" x2="15.9" y2="73.2"/>
<line class="st0" x1="224.1" y1="18.7" x2="466.1" y2="57"/>
<polygon class="st1" points="165,356.2 248.2,308.6 226.7,203.1 "/>
<polygon class="st2" points="353.2,389.1 248.2,308.6 226.7,203.1 230.8,203.1 355.9,378.2 "/>
<polygon class="st1" points="315.8,108.8 320.4,33.9 285.1,97 "/>
<polygon id="red" class="st3" points="349.4,400.2 72.5,334.2 176.9,30.8 466.1,57 "/>
<polygon id="amber" class="st2" points="285.1,97 341.5,118.7 355.9,378.2 228.2,199.4 "/>
<polygon id="green" class="st1" points="228.2,199.4 165,356.2 120.7,380.4 94.5,94 320.4,33.9 "/>
<polygon id="amber_1_" class="st2" points="228.2,199.4 202.6,65.2 285.1,97 "/>
<line class="st0" x1="466.1" y1="57" x2="430.7" y2="318.9"/>
<line class="st0" x1="466.1" y1="57" x2="291.3" y2="144.5"/>
<line class="st0" x1="291.3" y1="144.5" x2="281" y2="469.7"/>
<line class="st0" x1="430.7" y1="318.9" x2="281" y2="469.7"/>
<line class="st0" x1="53.5" y1="346.4" x2="281" y2="469.7"/>
<line class="st0" x1="15.9" y1="73.2" x2="53.5" y2="346.4"/>
<line class="st0" x1="15.9" y1="73.2" x2="291.3" y2="144.5"/>
<polygon class="st2" points="202.6,65.2 140.2,40.7 149.5,79.4 "/>
<polygon class="st2" points="358.7,391.4 353.2,389.1 356.1,380.4 "/>
<polyline class="st4" points="228.2,199.4 226.7,203.1 230.8,203.1 "/>
<g>
	<circle class="st5" cx="228.3" cy="201.5" r="4.1"/>
</g>
</svg>
