<svg id="Layer_1" data-name="Layer 1" xmlns="http://www.w3.org/2000/svg" viewBox="0 0 78.63 46.35"><defs><style>.cls-1{fill:gray;}.cls-2{fill:none;stroke:#231f20;stroke-miterlimit:10;}.cls-3{font-size:6px;fill:#231f20;font-family:Roboto-Bold, Roboto;font-weight:700;}</style></defs><path class="cls-1" d="M65.9,2.21a22.68,22.68,0,1,1-16.13,38.6A22.68,22.68,0,0,0,49.77,9,22.56,22.56,0,0,1,65.9,2.21Z" transform="translate(-10.45 -1.71)"/><path class="cls-1" d="M33.63,2.21A22.6,22.6,0,0,1,49.77,9a22.66,22.66,0,0,0,0,31.85A22.68,22.68,0,1,1,33.63,2.21Z" transform="translate(-10.45 -1.71)"/><path class="cls-2" d="M49.77,9A22.68,22.68,0,1,1,33.63,2.21,22.62,22.62,0,0,1,49.77,9Z" transform="translate(-10.45 -1.71)"/><path class="cls-2" d="M49.77,9a22.66,22.66,0,1,1-6.54,15.92A22.56,22.56,0,0,1,49.77,9Z" transform="translate(-10.45 -1.71)"/><text class="cls-3" transform="translate(14.16 15.07)">1</text><text class="cls-3" transform="translate(14.16 32.07)">2</text><text class="cls-3" transform="translate(59.87 15.07)">4</text><text class="cls-3" transform="translate(37.5 24.74)">3</text><text class="cls-3" transform="translate(59.87 32.07)">5</text></svg>