<?xml version="1.0" encoding="UTF-8" standalone="no"?>
<!-- Created with Inkscape (http://www.inkscape.org/) -->
<svg
   xmlns:svg="http://www.w3.org/2000/svg"
   xmlns="http://www.w3.org/2000/svg"
   version="1.0"
   width="365.66818"
   height="255.97897"
   id="svg2">
  <desc
     id="desc4">Produced by GNUPLOT 4.2 patchlevel 4  </desc>
  <defs
     id="defs6">
    <marker
       refX="0"
       refY="0"
       orient="auto"
       id="Arrow1Mstart"
       style="overflow:visible">
      <path
         d="M 0,0 L 5,-5 L -12.5,0 L 5,5 L 0,0 z"
         transform="matrix(0.4,0,0,0.4,4,0)"
         id="path5830"
         style="fill-rule:evenodd;stroke:#000000;stroke-width:1pt;marker-start:none" />
    </marker>
    <marker
       refX="0"
       refY="0"
       orient="auto"
       id="Arrow1Mend"
       style="overflow:visible">
      <path
         d="M 0,0 L 5,-5 L -12.5,0 L 5,5 L 0,0 z"
         transform="matrix(-0.4,0,0,-0.4,-4,0)"
         id="path5833"
         style="fill-rule:evenodd;stroke:#000000;stroke-width:1pt;marker-start:none" />
    </marker>
  </defs>
  <g
     transform="translate(-157.20247,-74.496803)"
     id="layer2"
     style="display:inline">
    <path
       d="M 394.3,217.2 L 406.1,212.3 L 406.1,212.3 M 382.5,221.1 L 394.3,217.2 M 370.7,224 L 382.5,221.1 M 358.9,226 L 370.7,224 M 347.1,227 L 358.9,226 M 335.3,227 L 347.1,227 M 323.5,226 L 335.3,227 M 311.7,224.1 L 323.5,226 M 282.1,254.1 L 284.7,252.3 M 284.7,252.3 L 287.2,249.6 M 289.8,245.8 L 292.4,241.1 M 292.4,241.1 L 294.9,235.4 L 297.5,228.8 M 287.2,249.6 L 289.8,245.8 M 297.5,228.8 L 300,221.1 M 300.01657,221.12763 L 311.7,224.1 M 300.04834,221.14046 L 277,294.4 L 277,294.4 L 229.7,280.7 L 196.4,255.2 L 183.6,223.11606 L 183.6,183.425 L 183.58438,183.31562 L 193.88067,150.70276 L 225.19609,124.09219 L 271.29805,108.87266 L 322.99805,108.03164 L 370.3,121.8 L 403.6625,147.2375 L 416.45142,179.54858 L 416.44285,219.30311 L 406.1,251.8221 L 300.04834,221.14046 z M 406.1,251.41219 L 406.1,211.91219 M 320.5,124.6 L 323,108.1 M 274.5,125.3 L 271.3,108.9 M 362.5,136.7 L 320.5,124.6 M 317.9,140.1 L 320.5,124.6 M 274.5,125.3 L 320.5,124.6 M 277.7,140.7 L 274.5,125.3 M 233.5,138.8 L 274.5,125.3 M 354.7,150.7 L 317.9,140.1 M 315.3,154.6 L 317.9,140.1 M 277.7,140.7 L 317.9,140.1 M 280.9,155.1 L 277.7,140.7 M 241.8,152.5 L 277.7,140.7 M 346.8,163.7 L 315.3,154.6 M 312.8,168.1 L 315.3,154.6 M 280.9,155.1 L 315.3,154.6 M 284.1,168.6 L 280.9,155.1 M 250.1,165.3 L 280.9,155.1 M 339,175.7 L 312.8,168.1 M 310.2,180.7 L 312.8,168.1 M 284.1,168.6 L 312.8,168.1 M 362.5,136.7 L 370.28438,121.83516 M 287.3,181 L 284.1,168.6 M 258.4,177 L 284.1,168.6 M 392.1,159.4 L 362.5,136.7 M 354.7,150.7 L 362.5,136.7 M 380.6,170.6 L 354.7,150.7 M 346.8,163.7 L 354.7,150.7 M 233.5,138.8 L 225.21562,124.12734 M 241.8,152.5 L 233.5,138.8 M 205.7,162.4 L 233.5,138.8 M 250.1,165.3 L 241.8,152.5 M 217.5,173.2 L 241.8,152.5 M 369.1,180.7 L 346.8,163.7 M 339,175.7 L 346.8,163.7 M 331.2,186.8 L 310.2,180.7 M 307.6,192.3 L 310.2,180.7 M 287.3,181 L 310.2,180.7 M 290.5,192.5 L 287.3,181 M 266.8,187.8 L 287.3,181 M 258.4,177 L 250.1,165.3 M 229.3,183 L 250.1,165.3 M 357.5,189.9 L 339,175.7 M 331.2,186.8 L 339,175.7 M 266.8,187.8 L 258.4,177 M 241.1,191.8 L 258.4,177 M 323.4,196.8 L 307.6,192.3 M 305.1,202.9 L 307.6,192.3 M 290.5,192.5 L 307.6,192.3 M 293.7,203 L 290.5,192.5 M 275.1,197.6 L 290.5,192.5 M 346,198.1 L 331.2,186.8 M 323.4,196.8 L 331.2,186.8 M 275.1,197.6 L 266.8,187.8 M 252.9,199.6 L 266.8,187.8 M 334.5,205.3 L 323.4,196.8 M 315.6,205.9 L 323.4,196.8 M 283.4,206.4 L 275.1,197.6 M 264.7,206.5 L 275.1,197.6 M 315.6,205.9 L 305.1,202.9 M 302.5,212.5 L 305.1,202.9 M 293.7,203 L 305.1,202.9 M 296.9,212.6 L 293.7,203 M 283.4,206.4 L 293.7,203 M 291.7,214.8 L 291,214.2 M 323,211.6 L 315.6,205.9 M 307.8,214 L 315.6,205.9 M 291.7,214.3 L 283.4,206.4 M 276.5,212.3 L 283.4,206.4 M 377.6,202.3 L 369.1,180.7 M 357.5,189.9 L 369.1,180.7 M 380.6,170.6 L 369.1,180.7 M 364.7,207.9 L 357.5,189.9 M 346,198.1 L 357.5,189.9 M 390.5,195.7 L 380.6,170.6 M 392.1,159.4 L 380.6,170.6 M 351.7,212.5 L 346,198.1 M 334.5,205.3 L 346,198.1 M 252.9,199.6 L 241.1,191.8 M 235.3,209.9 L 241.1,191.8 M 229.3,183 L 241.1,191.8 M 403.5,188.1 L 392.1,159.4 M 403.61563,147.28438 L 392.06875,159.43516 M 338.8,216.1 L 334.5,205.3 M 323,211.6 L 334.5,205.3 M 264.7,206.5 L 252.9,199.6 M 248.3,214.1 L 252.9,199.6 M 222.4,204.8 L 229.3,183 M 217.5,173.2 L 229.3,183 M 307.8,214 L 302.5,212.5 M 300,221.1 L 302.5,212.5 M 296.9,212.6 L 302.5,212.5 M 300,221.1 L 296.9,212.6 M 291.7,214.3 L 296.9,212.6 M 276.5,212.3 L 264.7,206.5 M 261.2,217.3 L 264.7,206.5 M 209.5,198.6 L 217.5,173.2 M 205.7,162.4 L 217.5,173.2 M 311.5,216.8 L 307.8,214 M 300,221.1 L 307.8,214 M 325.8,218.8 L 323,211.6 M 311.5,216.8 L 323,211.6 M 300,221.1 L 291.7,214.3 M 288.3,217.2 L 291.7,214.3 M 288.3,217.2 L 276.5,212.3 M 274.2,219.6 L 276.5,212.3 M 196.5,191.5 L 205.7,162.4 M 193.9221,150.74972 L 205.7,162.4 M 312.9,220.4 L 311.5,216.8 M 300,221.1 L 311.5,216.8 M 300,221.1 L 288.3,217.2 M 287.1,220.9 L 288.3,217.2 M 311.9,224.1 L 311.9,224 M 312.9,220.4 L 300,221.1 M 287.1,220.9 L 300,221.1 M 288.5,224.4 L 300,221.1 M 292.2,227.3 L 300,221.1 M 311.7,224.1 L 312.9,220.4 M 325.8,218.8 L 312.9,220.4 M 288.5,224.4 L 287.1,220.9 M 274.2,219.6 L 287.1,220.9 M 323.5,226 L 325.8,218.8 M 338.8,216.1 L 325.8,218.8 M 277,226.8 L 274.2,219.6 M 261.2,217.3 L 274.2,219.6 M 335.3,227 L 338.8,216.1 M 351.7,212.5 L 338.8,216.1 M 265.5,228.1 L 261.2,217.3 M 248.3,214.1 L 261.2,217.3 M 292.2,227.3 L 288.5,224.4 M 277,226.8 L 288.5,224.4 M 347.1,227 L 351.7,212.5 M 364.7,207.9 L 351.7,212.5 M 254,228.5 L 248.3,214.1 M 235.3,209.9 L 248.3,214.1 M 297.5,228.8 L 292.2,227.3 M 284.4,232.3 L 292.2,227.3 M 358.9,226 L 364.7,207.9 M 377.6,202.3 L 364.7,207.9 M 284.4,232.3 L 277,226.8 M 265.5,228.1 L 277,226.8 M 242.5,227.9 L 235.3,209.9 M 222.4,204.8 L 235.3,209.9 M 370.7,224 L 377.6,202.3 M 390.5,195.7 L 377.6,202.3 M 230.9,226.3 L 222.4,204.8 M 209.5,198.6 L 222.4,204.8 M 276.6,236.5 L 265.5,228.1 M 254,228.5 L 265.5,228.1 M 294.9,235.4 L 284.4,232.3 M 276.6,236.5 L 284.4,232.3 M 262.1,242.5 L 261.8,242.2 M 382.5,221.1 L 390.5,195.7 M 403.5,188.1 L 390.5,195.7 M 219.4,223.7 L 209.5,198.6 M 196.5,191.5 L 209.5,198.6 M 248.2,244.4 L 248,244.2 M 394.3,217.2 L 403.5,188.1 M 416.34858,179.61714 L 403.5,188.1 M 268.8,239.7 L 254,228.5 M 242.5,227.9 L 254,228.5 M 292.4,241.1 L 276.6,236.5 M 268.8,239.7 L 276.6,236.5 M 207.9,220.2 L 196.5,191.5 M 183.7875,183.3625 L 196.5,191.5 M 406.1,212.3 L 416.38286,179.68569 M 261,242 L 242.5,227.9 M 230.9,226.3 L 242.5,227.9 M 196.4,215.6 L 183.76016,183.47187 M 289.8,245.8 L 268.8,239.7 M 261,242 L 268.8,239.7 M 253.2,243.2 L 230.9,226.3 M 219.4,223.7 L 230.9,226.3 M 287.2,249.6 L 261,242 M 253.2,243.2 L 261,242 M 245.3,243.5 L 219.4,223.7 M 207.9,220.2 L 219.4,223.7 M 284.7,252.3 L 253.2,243.2 M 245.3,243.5 L 253.2,243.2 M 237.5,242.8 L 207.9,220.2 M 196.4,215.6 L 207.9,220.2 M 196.4,215.6 L 196.3375,255.25 M 229.7,241.1 L 196.4,215.6 M 229.7,241.1 L 196.4,215.6 M 282.1,254.1 L 245.3,243.5 M 237.5,242.8 L 245.3,243.5 M 277,254.8 L 278.8,254.7 L 282.1,254.1 M 278.8,254.7 L 237.5,242.8 M 229.7,241.1 L 237.5,242.8 M 229.7,241.1 L 229.7,280.67187 M 277,254.8 L 229.7,241.1 M 277,254.84419 L 277,294.40312 M 394.3,217.2 L 394.44902,248.42879 M 382.5,221.1 L 382.68635,245.02527 M 370.7,224 L 370.96733,241.63438 M 358.9,226 L 359.21509,238.23387 M 347.1,227 L 347.14409,234.74113 M 335.3,227 L 335.17304,231.27731 M 323.5,226 L 323.44361,227.88341 M 278.8,254.7 L 278.76186,288.88545 M 284.7,252.3 L 284.69443,270.31669 M 294.9,235.4 L 294.8798,238.43682 M 289.8,245.8 L 289.75406,254.48021 M 282.1,254.1 L 282.0636,278.55109 M 287.2,249.6 L 287.21916,262.41436 M 292.4,241.1 L 292.39087,246.22707"
       id="path20901"
       style="fill:#ffffff;fill-opacity:1;fill-rule:nonzero;stroke:#ff0000;stroke-width:1;stroke-linecap:butt;stroke-linejoin:miter" />
  </g>
  <g
     transform="translate(-157.20247,-74.496803)"
     id="layer1"
     style="display:inline">
    <path
       d="M 300,175.8 L 300.15029,221.94033"
       id="path4190"
       style="stroke:#000000;stroke-width:1.5;stroke-linecap:butt;stroke-linejoin:miter;marker-start:url(#Arrow1Mstart);marker-end:none;stroke-miterlimit:4;stroke-dasharray:none" />
    <path
       d="M 299.74155,221.30544 L 416.41712,255.38344"
       id="path5049"
       style="fill:none;fill-rule:evenodd;stroke:#000000;stroke-width:1.5;stroke-linecap:butt;stroke-linejoin:miter;marker-end:url(#Arrow1Mend);stroke-miterlimit:4;stroke-dasharray:none;stroke-opacity:1" />
    <path
       d="M 300.16359,221.14195 L 311.7,224.1 L 323.5,226 L 335.3,227 L 347.1,227 L 358.9,226 L 370.7,224 L 382.5,221.1 L 394.3,217.2 L 406.1,212.3"
       id="path10276"
       style="fill:none;fill-rule:evenodd;stroke:#000000;stroke-width:1.5;stroke-linecap:butt;stroke-linejoin:miter;stroke-miterlimit:4;stroke-dasharray:none;stroke-opacity:1" />
    <g
       transform="translate(205.92708,103.54525)"
       id="g11364">
      <g
         transform="matrix(0.6857143,0,0,-0.6857143,-120,450)"
         id="g11366"
         xml:space="preserve"
         style="font-style:normal;font-variant:normal;font-weight:normal;font-stretch:normal;letter-spacing:normal;word-spacing:normal;text-anchor:start;fill:none;fill-opacity:1;stroke:#000000;stroke-linecap:butt;stroke-linejoin:miter;stroke-miterlimit:10.43299961;stroke-dasharray:none;stroke-dashoffset:0;stroke-opacity:1"><path
           d="M 472.64,421.04 L 472.67,421.17 L 472.7,421.32 L 472.75,421.49 L 472.79,421.67 L 472.85,421.86 L 472.91,422.07 L 472.97,422.28 L 473.04,422.51 L 473.12,422.74 L 473.21,422.98 L 473.31,423.23 L 473.41,423.47 L 473.52,423.72 L 473.64,423.97 L 473.77,424.22 L 473.91,424.47 L 474.06,424.71 L 474.21,424.95 L 474.38,425.18 L 474.56,425.4 L 474.74,425.62 L 474.94,425.82 L 475.15,426.01 L 475.37,426.19 L 475.6,426.35 L 475.85,426.49 L 475.97,426.56 L 476.1,426.62 L 476.23,426.67 L 476.37,426.72 L 476.51,426.77 L 476.65,426.81 L 476.79,426.84 L 476.94,426.87 L 477.09,426.89 L 477.25,426.91 L 477.41,426.92 L 477.57,426.92 C 477.82,426.92 479.02,426.92 480.06,426.27 C 478.66,426.02 477.67,424.78 477.67,423.59 C 477.67,422.79 478.21,421.84 479.56,421.84 C 480.66,421.84 482.25,422.74 482.25,424.73 C 482.25,427.32 479.31,428.02 477.62,428.02 C 474.73,428.02 472.98,425.38 472.39,424.23 C 471.14,427.52 468.45,428.02 467.01,428.02 C 461.83,428.02 458.99,421.59 458.99,420.35 C 458.99,419.85 459.49,419.85 459.59,419.85 C 459.98,419.85 460.13,419.95 460.23,420.39 C 461.93,425.68 465.21,426.92 466.91,426.92 C 467.86,426.92 469.6,426.47 469.6,423.59 C 469.6,422.04 468.75,418.7 466.91,411.73 C 466.11,408.64 464.37,406.55 462.18,406.55 C 461.88,406.55 460.73,406.55 459.69,407.2 C 460.93,407.45 462.03,408.49 462.03,409.89 C 462.03,411.23 460.93,411.63 460.18,411.63 C 458.69,411.63 457.45,410.33 457.45,408.74 C 457.45,406.45 459.93,405.45 462.13,405.45 C 465.41,405.45 467.21,408.94 467.36,409.24 C 467.96,407.39 469.75,405.45 472.74,405.45 C 477.87,405.45 480.71,411.88 480.71,413.12 C 480.71,413.62 480.26,413.62 480.11,413.62 C 479.66,413.62 479.56,413.42 479.46,413.07 C 477.82,407.74 474.43,406.55 472.84,406.55 C 470.89,406.55 470.1,408.14 470.1,409.84 C 470.1,410.93 470.39,412.03 470.95,414.22 L 472.64,421.04 z"
           id="path11368"
           style="fill:#000000;stroke-width:0" /></g>    </g>
    <g
       transform="translate(-11.57368,10.06612)"
       id="g12508">
      <path
         d="M 437.43654,182.97845 L 440.37825,182.97845 C 441.05711,182.97845 441.39997,182.97845 441.39997,182.29959 C 441.39997,181.92245 441.05711,181.92245 440.47425,181.92245 L 437.64225,181.92245 C 438.0194,179.94073 437.98511,180.00931 438.3554,178.02759 C 438.49254,177.30759 438.97254,174.88702 439.17825,174.47559 C 439.48682,173.83102 440.06968,173.31673 440.78282,173.31673 C 440.91997,173.31673 441.8114,173.31673 442.46282,173.93388 C 440.95425,174.06416 440.6114,175.26416 440.6114,175.77159 C 440.6114,176.56016 441.22854,176.97159 441.87997,176.97159 C 442.76454,176.97159 443.75882,176.21731 443.75882,174.92131 C 443.75882,173.35102 442.18854,172.56245 440.78282,172.56245 C 439.62397,172.56245 437.47082,173.17959 436.44911,176.56016 C 436.2434,177.28016 436.14054,177.61616 435.31768,181.92245 L 432.96568,181.92245 C 432.31425,181.92245 431.93711,181.92245 431.93711,182.57388 C 431.93711,182.97845 432.24568,182.97845 432.89711,182.97845 L 435.15311,182.97845 L 432.58854,196.47331 C 431.9714,199.78531 431.38854,202.89845 429.6194,202.89845 C 429.48225,202.89845 428.62511,202.89845 427.97368,202.28131 C 429.54397,202.17845 429.85254,200.95102 429.85254,200.43673 C 429.85254,199.64816 429.24225,199.24359 428.59082,199.24359 C 427.70625,199.24359 426.71197,199.99102 426.71197,201.28702 C 426.71197,202.82988 428.21368,203.64588 429.6194,203.64588 C 431.4914,203.64588 432.86282,201.62988 433.47311,200.33388 C 434.57025,198.18073 435.35197,194.04588 435.38625,193.81273 L 437.43654,182.97845 z"
         id="path12102"
         style="font-style:normal;font-variant:normal;font-weight:normal;font-stretch:normal;letter-spacing:normal;word-spacing:normal;text-anchor:start;fill:#000000;fill-opacity:1;stroke:#000000;stroke-width:0;stroke-linecap:butt;stroke-linejoin:miter;stroke-miterlimit:10.43299961;stroke-dasharray:none;stroke-dashoffset:0;stroke-opacity:1" />
      <path
         d="M 456.09482,204.84588 L 456.09482,204.82531 L 456.09482,204.80473 L 456.08797,204.79788 L 456.08797,204.78416 L 456.08797,204.77731 L 456.08111,204.76359 L 456.08111,204.74988 L 456.07425,204.74302 L 456.0674,204.72931 L 456.06054,204.71559 L 456.05368,204.69502 L 456.04682,204.68131 L 456.03311,204.66759 L 456.0194,204.64702 L 456.00568,204.62645 L 455.99197,204.60588 L 455.9714,204.58531 L 455.95082,204.55788 L 455.94397,204.54416 L 455.93025,204.53045 L 455.91654,204.51673 L 455.90282,204.50302 L 455.88911,204.48931 L 455.8754,204.46873 L 455.86168,204.45502 L 455.84797,204.44131 L 455.83425,204.42073 L 455.81368,204.40702 L 455.79997,204.38645 L 455.7794,204.36588 L 455.76568,204.34531 L 455.74511,204.32473 L 455.72454,204.30416 L 455.70397,204.28359 L 455.6834,204.26302 L 455.66282,204.24245 L 455.6354,204.21502 L 455.61482,204.19445 L 455.5874,204.16702 L 455.56682,204.14645 L 455.5394,204.11902 L 455.51197,204.09159 C 451.23997,199.78531 450.14968,193.33273 450.14968,188.10759 C 450.14968,182.16245 451.44568,176.21731 455.64911,171.94531 C 456.09482,171.54073 456.09482,171.47216 456.09482,171.36931 C 456.09482,171.12931 455.95768,171.02645 455.75197,171.02645 C 455.40911,171.02645 452.33711,173.35102 450.32111,177.69159 C 448.5794,181.44245 448.16797,185.23445 448.16797,188.10759 C 448.16797,190.76816 448.54511,194.90302 450.42397,198.76359 C 452.47425,202.96016 455.40911,205.18188 455.75197,205.18188 C 455.95768,205.18188 456.09482,205.07902 456.09482,204.84588 z"
         id="path12104"
         style="font-style:normal;font-variant:normal;font-weight:normal;font-stretch:normal;letter-spacing:normal;word-spacing:normal;text-anchor:start;fill:#000000;fill-opacity:1;stroke:#000000;stroke-width:0;stroke-linecap:butt;stroke-linejoin:miter;stroke-miterlimit:10.43299961;stroke-dasharray:none;stroke-dashoffset:0;stroke-opacity:1" />
      <path
         d="M 469.91197,186.33159 L 469.93254,186.24245 L 469.95311,186.13959 L 469.9874,186.02302 L 470.01482,185.89959 L 470.05597,185.76931 L 470.09711,185.62531 L 470.13825,185.48131 L 470.18625,185.32359 L 470.24111,185.16588 L 470.30282,185.00131 L 470.3714,184.82988 L 470.43997,184.66531 L 470.5154,184.49388 L 470.59768,184.32245 L 470.68682,184.15102 L 470.78282,183.97959 L 470.88568,183.81502 L 470.98854,183.65045 L 471.10511,183.49273 L 471.22854,183.34188 L 471.35197,183.19102 L 471.48911,183.05388 L 471.63311,182.92359 L 471.78397,182.80016 L 471.94168,182.69045 L 472.11311,182.59445 L 472.1954,182.54645 L 472.28454,182.50531 L 472.37368,182.47102 L 472.46968,182.43673 L 472.56568,182.40245 L 472.66168,182.37502 L 472.75768,182.35445 L 472.86054,182.33388 L 472.9634,182.32016 L 473.07311,182.30645 L 473.18282,182.29959 L 473.29254,182.29959 C 473.46397,182.29959 474.28682,182.29959 474.99997,182.74531 C 474.03997,182.91673 473.36111,183.76702 473.36111,184.58302 C 473.36111,185.13159 473.73825,185.78302 474.65711,185.78302 C 475.4114,185.78302 476.50168,185.16588 476.50168,183.80131 C 476.50168,182.02531 474.48568,181.54531 473.32682,181.54531 C 471.34511,181.54531 470.14511,183.35559 469.74054,184.14416 C 468.89025,181.88816 467.03882,181.54531 466.0514,181.54531 C 462.4994,181.54531 460.55197,185.95445 460.55197,186.80473 C 460.55197,187.14759 460.89482,187.14759 460.9634,187.14759 C 461.23082,187.14759 461.33368,187.07902 461.40225,186.77731 C 462.56797,183.14988 464.82397,182.29959 465.98282,182.29959 C 466.6274,182.29959 467.8274,182.60816 467.8274,184.58302 C 467.8274,185.64588 467.24454,187.93616 465.98282,192.71559 C 465.43425,194.83445 464.24111,196.26759 462.7394,196.26759 C 462.53368,196.26759 461.74511,196.26759 461.03197,195.82188 C 461.88225,195.65045 462.63654,194.93731 462.63654,193.97731 C 462.63654,193.05845 461.88225,192.78416 461.36797,192.78416 C 460.34625,192.78416 459.49597,193.67559 459.49597,194.76588 C 459.49597,196.33616 461.19654,197.02188 462.70511,197.02188 C 464.95425,197.02188 466.18854,194.62873 466.28454,194.42302 C 466.70282,195.69159 467.93025,197.02188 469.98054,197.02188 C 473.49825,197.02188 475.44568,192.61273 475.44568,191.76245 C 475.44568,191.41959 475.13711,191.41959 475.03425,191.41959 C 474.72568,191.41959 474.65711,191.55673 474.58854,191.79673 C 473.46397,195.45159 471.1394,196.26759 470.04911,196.26759 C 468.71882,196.26759 468.17025,195.17731 468.17025,194.01159 C 468.17025,193.26416 468.37597,192.50988 468.75311,191.00816 L 469.91197,186.33159 z"
         id="path12106"
         style="font-style:normal;font-variant:normal;font-weight:normal;font-stretch:normal;letter-spacing:normal;word-spacing:normal;text-anchor:start;fill:#000000;fill-opacity:1;stroke:#000000;stroke-width:0;stroke-linecap:butt;stroke-linejoin:miter;stroke-miterlimit:10.43299961;stroke-dasharray:none;stroke-dashoffset:0;stroke-opacity:1" />
      <path
         d="M 487.57597,188.10759 L 487.56911,187.85388 L 487.56911,187.58645 L 487.56225,187.31902 L 487.5554,187.03788 L 487.52797,186.46188 L 487.48682,185.85845 L 487.42511,185.22759 L 487.35654,184.58302 L 487.26054,183.91102 L 487.15082,183.22531 L 487.01368,182.52588 L 486.85597,181.81273 L 486.67082,181.09273 L 486.46511,180.36588 L 486.22511,179.63902 L 485.95768,178.90531 L 485.80682,178.54188 L 485.65597,178.17159 L 485.4914,177.80816 L 485.31997,177.44473 C 483.26968,173.24816 480.33482,171.02645 479.99197,171.02645 C 479.78625,171.02645 479.64911,171.16359 479.64911,171.36931 C 479.64911,171.47216 479.64911,171.54073 480.29368,172.15788 C 483.64682,175.53159 485.59425,180.96931 485.59425,188.10759 C 485.59425,193.94988 484.32568,199.95673 480.09482,204.26302 C 479.64911,204.67445 479.64911,204.73616 479.64911,204.84588 C 479.64911,205.04473 479.78625,205.18188 479.99197,205.18188 C 480.33482,205.18188 483.40682,202.86416 485.42282,198.52359 C 487.16454,194.76588 487.57597,190.97388 487.57597,188.10759 z"
         id="path12108"
         style="font-style:normal;font-variant:normal;font-weight:normal;font-stretch:normal;letter-spacing:normal;word-spacing:normal;text-anchor:start;fill:#000000;fill-opacity:1;stroke:#000000;stroke-width:0;stroke-linecap:butt;stroke-linejoin:miter;stroke-miterlimit:10.43299961;stroke-dasharray:none;stroke-dashoffset:0;stroke-opacity:1" />
    </g>
  </g>
</svg>
