<svg version="1.1" xmlns="http://www.w3.org/2000/svg" viewBox="0 0 366.04142093205655 247.52801680686662" width="366.04142093205655" height="247.52801680686662">
  <!-- svg-source:excalidraw -->
  
  <defs>
    <style>
      @font-face {
        font-family: "Virgil";
        src: url("https://excalidraw.com/Virgil.woff2");
      }
      @font-face {
        font-family: "Cascadia";
        src: url("https://excalidraw.com/Cascadia.woff2");
      }
    </style>
  </defs>
  <rect x="0" y="0" width="366.04142093205655" height="247.52801680686662" fill="#ffffff"></rect><g stroke-linecap="round" transform="translate(130.03640138910123 33.84464124356555) rotate(0 15.147829997202734 15.147829997202734)"><path d="M21.33 0.88 C24.42 1.96, 28.08 5.73, 29.48 8.64 C30.88 11.54, 30.75 15.05, 29.72 18.31 C28.68 21.57, 25.93 26.13, 23.25 28.21 C20.56 30.29, 16.82 31.27, 13.58 30.79 C10.34 30.32, 6.08 27.73, 3.8 25.36 C1.52 22.99, -0.03 19.74, -0.09 16.57 C-0.15 13.39, 1.42 9.14, 3.45 6.31 C5.49 3.48, 8.83 0.21, 12.13 -0.43 C15.42 -1.07, 21.11 1.71, 23.22 2.44 C25.34 3.18, 24.96 3.64, 24.81 3.98 M19.33 1.51 C22.62 2.26, 27.87 5.04, 29.65 7.79 C31.43 10.54, 30.77 14.97, 30.01 18.02 C29.24 21.07, 27.53 24.08, 25.07 26.08 C22.62 28.07, 18.7 30.03, 15.3 29.97 C11.89 29.92, 7.22 27.97, 4.65 25.76 C2.07 23.55, 0.28 19.76, -0.13 16.71 C-0.54 13.66, 0.42 10, 2.2 7.46 C3.98 4.93, 7.79 2.78, 10.55 1.49 C13.31 0.19, 17.26 -0.24, 18.75 -0.3 C20.23 -0.36, 19.5 0.79, 19.47 1.14" stroke="#000000" stroke-width="1" fill="none"></path></g><g stroke-linecap="round" transform="translate(54.161712242258545 76.55928105956559) rotate(0 15.147829997202734 15.147829997202734)"><path d="M17.52 -0.21 C20.68 -0.08, 24.18 1.33, 26.24 3.85 C28.3 6.36, 29.72 11.4, 29.88 14.9 C30.05 18.4, 29.19 22.41, 27.22 24.86 C25.25 27.31, 21.24 28.9, 18.06 29.58 C14.88 30.27, 10.84 30.38, 8.12 28.97 C5.41 27.55, 2.9 24.28, 1.77 21.09 C0.64 17.89, 0.61 12.98, 1.34 9.81 C2.08 6.64, 3.58 3.76, 6.18 2.05 C8.78 0.33, 15.01 -0.32, 16.95 -0.48 C18.9 -0.64, 17.64 0.78, 17.85 1.1 M21.05 1.06 C24.17 1.73, 26.22 4.77, 27.75 7.34 C29.27 9.9, 30.6 13.35, 30.21 16.44 C29.82 19.53, 27.95 23.78, 25.42 25.89 C22.89 28.01, 18.32 29.13, 15.03 29.14 C11.73 29.16, 8.04 27.78, 5.65 25.97 C3.25 24.16, 1.2 21.14, 0.67 18.28 C0.13 15.41, 1.23 11.82, 2.43 8.79 C3.62 5.75, 5.07 1.42, 7.84 0.07 C10.6 -1.28, 17.24 0.6, 19 0.67 C20.76 0.74, 18.52 0.12, 18.38 0.49" stroke="#000000" stroke-width="1" fill="none"></path></g><g stroke-linecap="round" transform="translate(202.81989949662784 76.55928105956559) rotate(0 15.147829997202734 15.147829997202734)"><path d="M10.4 -0.23 C13.12 -1.24, 17.35 0.14, 20.37 1.6 C23.38 3.06, 26.96 5.84, 28.48 8.56 C30.01 11.27, 30.19 14.77, 29.51 17.9 C28.82 21.04, 26.77 25.31, 24.4 27.38 C22.02 29.45, 18.37 30.64, 15.26 30.33 C12.15 30.03, 8.37 27.79, 5.73 25.56 C3.09 23.33, 0.14 20.12, -0.58 16.94 C-1.3 13.75, -0.57 9.15, 1.39 6.46 C3.35 3.76, 9.06 1.81, 11.18 0.76 C13.3 -0.29, 13.83 0.06, 14.1 0.15 M18.42 0.83 C21.22 1.18, 25.28 3, 27.24 5.46 C29.21 7.92, 30.53 12.43, 30.21 15.58 C29.89 18.72, 27.59 22.1, 25.32 24.32 C23.06 26.53, 19.66 28.35, 16.64 28.89 C13.62 29.44, 9.74 29.04, 7.21 27.58 C4.68 26.12, 2.69 23.36, 1.46 20.12 C0.23 16.88, -1.22 11.2, -0.19 8.13 C0.85 5.06, 4.74 3.05, 7.67 1.68 C10.61 0.31, 15.78 -0.04, 17.43 -0.08 C19.07 -0.11, 17.53 1.02, 17.53 1.47" stroke="#000000" stroke-width="1" fill="none"></path></g><g stroke-linecap="round" transform="translate(129.75538402189022 207.23235681246115) rotate(180 15.147829997202734 15.147829997202734)"><path d="M13.82 -0.74 C16.82 -0.86, 22.07 1.88, 24.75 4.05 C27.42 6.22, 29.35 9.28, 29.87 12.29 C30.39 15.31, 29.26 19.28, 27.89 22.14 C26.52 24.99, 24.56 28.31, 21.66 29.42 C18.75 30.53, 13.75 29.84, 10.48 28.81 C7.22 27.79, 3.68 25.9, 2.07 23.27 C0.46 20.64, 0.22 16.21, 0.82 13.03 C1.42 9.85, 3.24 6.47, 5.66 4.18 C8.09 1.89, 13.41 -0.12, 15.39 -0.7 C17.36 -1.27, 17.35 0.34, 17.52 0.73 M10.4 0.7 C13.45 -0.41, 16.98 -0.11, 20.12 1.05 C23.25 2.22, 27.38 4.87, 29.23 7.71 C31.09 10.55, 31.83 15.19, 31.24 18.09 C30.65 21, 28.3 23.25, 25.68 25.14 C23.06 27.03, 18.55 28.85, 15.52 29.43 C12.5 30.01, 9.96 30.32, 7.54 28.59 C5.12 26.87, 1.94 22.69, 1.02 19.08 C0.1 15.46, 0.53 9.97, 2.01 6.9 C3.49 3.83, 8.76 1.73, 9.9 0.65 C11.04 -0.43, 9.1 -0.08, 8.84 0.45" stroke="#000000" stroke-width="1" fill="none"></path></g><g stroke-linecap="round" transform="translate(205.63007316873427 164.51771699646133) rotate(180 15.147829997202734 15.147829997202734)"><path d="M17.99 -0.2 C20.97 0.13, 24.38 1.86, 26.27 4.5 C28.16 7.14, 29.37 12.34, 29.33 15.66 C29.29 18.98, 27.93 22.12, 26.02 24.42 C24.1 26.72, 20.98 28.74, 17.83 29.45 C14.68 30.16, 9.92 30.08, 7.11 28.67 C4.31 27.26, 2.17 24.18, 0.99 21.01 C-0.19 17.84, -0.92 12.67, 0.04 9.66 C1 6.65, 3.1 4.44, 6.74 2.95 C10.37 1.46, 19.08 0.53, 21.88 0.72 C24.68 0.91, 23.77 3.87, 23.53 4.1 M13.69 0.29 C16.68 -0.28, 21.83 -0.07, 24.6 1.84 C27.36 3.75, 29.6 8.23, 30.26 11.74 C30.93 15.24, 30.12 20.02, 28.6 22.86 C27.08 25.7, 24.12 27.52, 21.16 28.78 C18.19 30.03, 13.91 30.96, 10.82 30.39 C7.74 29.81, 4.54 28.3, 2.62 25.34 C0.7 22.38, -1.07 16.33, -0.68 12.64 C-0.29 8.94, 2.66 5.12, 4.98 3.16 C7.3 1.19, 11.96 1.19, 13.26 0.85 C14.56 0.52, 12.46 0.87, 12.76 1.17" stroke="#000000" stroke-width="1" fill="none"></path></g><g stroke-linecap="round" transform="translate(56.97188591436361 164.51771699646065) rotate(180 15.147829997202734 15.147829997202734)"><path d="M17.67 0.82 C20.7 0.97, 23.9 2.58, 26.05 4.78 C28.2 6.98, 30.57 10.63, 30.59 14.04 C30.61 17.44, 28.34 22.38, 26.19 25.2 C24.04 28.02, 20.6 30.47, 17.7 30.97 C14.81 31.47, 11.65 30.04, 8.82 28.21 C5.99 26.38, 1.96 22.82, 0.74 20 C-0.49 17.18, 0.44 14.27, 1.49 11.28 C2.55 8.28, 4.09 3.66, 7.07 2.02 C10.06 0.39, 17.01 1.6, 19.42 1.48 C21.82 1.37, 21.53 1.3, 21.5 1.33 M20.25 1.46 C22.98 1.93, 26.52 3.45, 28.16 6.23 C29.8 9.01, 30.52 14.6, 30.11 18.11 C29.7 21.62, 28 25.23, 25.7 27.31 C23.39 29.38, 19.71 30.69, 16.28 30.55 C12.85 30.41, 7.64 28.69, 5.11 26.46 C2.58 24.23, 1.45 20.42, 1.11 17.17 C0.76 13.91, 1.51 9.62, 3.06 6.93 C4.61 4.23, 7.25 2.19, 10.39 1.02 C13.54 -0.14, 20.24 -0.11, 21.92 -0.05 C23.6 0.01, 20.57 1.16, 20.47 1.39" stroke="#000000" stroke-width="1" fill="none"></path></g><g stroke-linecap="round"><g transform="translate(69.69753519344204 105.63366214891835) rotate(0 -0.3995598953761146 29.82771083047578)"><path d="M-1.08 1.17 C-1.01 10.8, -0.24 47.9, -0.26 57.36 M0.55 0.74 C0.5 10.61, -1.43 49.71, -1.35 58.91" stroke="#000000" stroke-width="1" fill="none"></path></g></g><g stroke-linecap="round"><g transform="translate(219.47979191665308 105.63366214891835) rotate(0 -0.569430790418437 28.016096639185662)"><path d="M-0.07 -0.11 C-0.11 9.15, 0.37 46.68, 0.45 56.27 M-1.57 -1.21 C-1.78 8.1, -0.5 47.25, -0.26 57.25" stroke="#000000" stroke-width="4" fill="none"></path></g></g><g stroke-linecap="round"><g transform="translate(80.09517778023155 79.78006436554983) rotate(0 23.564665660515402 -13.579444797390579)"><path d="M-0.84 0.72 C7.33 -3.92, 39.97 -22.96, 47.97 -27.88 M0.92 0.05 C9.04 -4.4, 38.95 -21.77, 47.08 -26.47" stroke="#000000" stroke-width="1" fill="none"></path></g></g><g stroke-linecap="round"><g transform="translate(159.06105796638985 50.835275542865475) rotate(0 24.259182578018 14.809138034724128)"><path d="M-1.06 -0.9 C7.3 3.78, 41 23.97, 49.58 28.9 M0.59 1.24 C8.82 6.06, 40.29 25.73, 48.51 30.52" stroke="#000000" stroke-width="4" fill="none"></path></g></g><g stroke-linecap="round"><g transform="translate(82.62433408512607 190.21988967928723) rotate(0 24.347074254307017 14.205039075612603)"><path d="M-0.89 0.21 C7.15 5.21, 39.21 24.33, 47.39 29.13 M0.85 -0.72 C9.32 4.05, 41.83 22.97, 49.58 27.64" stroke="#000000" stroke-width="1" fill="none"></path></g></g><g stroke-linecap="round"><g transform="translate(158.7800405991793 219.7267132363927) rotate(0 26.0371470413927 -14.835272087911221)"><path d="M-0.81 -0.77 C7.51 -5.65, 41.82 -24.54, 50.74 -29.31 M0.96 1.43 C9.58 -3.79, 44.3 -25.62, 52.88 -31.1" stroke="#000000" stroke-width="1" fill="none"></path></g></g><g stroke-linecap="round"><g transform="translate(76.44195200649483 103.66654057844471) rotate(0 30.252181914631592 52.49321177068191)"><path d="M0.28 -0.13 C10.68 17.45, 51.31 88.51, 61.53 106.23 M-1.03 -1.25 C9.23 15.92, 50.02 86.85, 60.28 104.41" stroke="#000000" stroke-width="1" fill="none"></path></g></g><g stroke-linecap="round"><g transform="translate(81.78128198349441 99.17026270307633) rotate(0 62.92081175382236 37.68199618575852)"><path d="M0.4 -0.15 C21.45 12.5, 105.51 62.68, 126.7 75.17 M-0.86 -1.27 C20.03 11.63, 104.51 63.78, 125.88 76.63" stroke="#000000" stroke-width="1" fill="none"></path></g></g><g stroke-linecap="round"><g transform="translate(81.21924724907376 167.45748293523457) rotate(0 29.035021160488668 -52.48105684017912)"><path d="M-0.37 -1.14 C9.2 -18.65, 48.91 -86.93, 58.44 -104 M1.64 0.87 C11.02 -16.47, 48.33 -88.13, 57.92 -105.83" stroke="#000000" stroke-width="4" fill="none"></path></g></g><g stroke-linecap="round"><g transform="translate(83.74840355396827 91.86381115560266) rotate(0 58.55856110034847 -0.1503970471970888)"><path d="M-0.15 0.31 C19.84 0, 98.98 -0.48, 118.8 -0.61 M-1.68 -0.58 C18.21 -0.27, 97.74 0.17, 117.67 0.31" stroke="#000000" stroke-width="1" fill="none"></path></g></g><g stroke-linecap="round"><g transform="translate(152.5976585205476 60.95190076244444) rotate(0 29.977754432189613 53.078595818807685)"><path d="M-0.78 0.42 C9.26 18.27, 50.61 89.23, 60.74 106.56 M1.01 -0.41 C10.84 17.19, 49.48 87.43, 59.72 105.03" stroke="#000000" stroke-width="4" fill="none"></path></g></g><g transform="translate(10 10) rotate(0 39.5 12.5)"><text x="0" y="18" font-family="Virgil, Segoe UI Emoji" font-size="20px" fill="#000000" text-anchor="start" style="white-space: pre;" direction="ltr">Graph H</text></g><g transform="translate(245.04142093205655 73.73238529119226) rotate(0 55.5 12.5)"><text x="0" y="18" font-family="Virgil, Segoe UI Emoji" font-size="20px" fill="#000000" text-anchor="start" style="white-space: pre;" direction="ltr">subgraph G</text></g><g transform="translate(245.04142093205655 101.54453831464434) rotate(0 51 10)"><text x="0" y="14" font-family="Virgil, Segoe UI Emoji" font-size="16px" fill="#000000" text-anchor="start" style="white-space: pre;" direction="ltr">shown darker</text></g></svg>