<svg version="1.1" xmlns="http://www.w3.org/2000/svg" viewBox="0 0 380 240" width="380" height="240">
  <!-- svg-source:excalidraw -->
  
  <defs>
    <style>
      @font-face {
        font-family: "Virgil";
        src: url("https://excalidraw.com/Virgil.woff2");
      }
      @font-face {
        font-family: "Cascadia";
        src: url("https://excalidraw.com/Cascadia.woff2");
      }
    </style>
  </defs>
  <rect x="0" y="0" width="380" height="240" fill="#ffffff"></rect><g stroke-linecap="round"><g stroke-opacity="0.4" fill-opacity="0.4" transform="translate(30 50) rotate(0 0 20)"><path d="M0 0 C0 9.45, 0 18.91, 0 40" stroke="#000000" stroke-width="1.5" fill="none" stroke-dasharray="8 9"></path></g></g><g stroke-linecap="round"><g stroke-opacity="0.4" fill-opacity="0.4" transform="translate(10 70) rotate(0 180 0)"><path d="M0 0 C118.85 0, 237.69 0, 360 0" stroke="#000000" stroke-width="1.5" fill="none" stroke-dasharray="8 9"></path></g></g><g stroke-linecap="round"><g stroke-opacity="0.4" fill-opacity="0.4" transform="translate(350 50) rotate(0 0 20)"><path d="M0 0 C0 10.7, 0 21.39, 0 40" stroke="#000000" stroke-width="1.5" fill="none" stroke-dasharray="8 9"></path></g></g><g stroke-linecap="round"><g stroke-opacity="0.4" fill-opacity="0.4" transform="translate(50 50) rotate(0 -20 20)"><path d="M0 0 C-14.56 14.56, -29.12 29.12, -40 40" stroke="#000000" stroke-width="1.5" fill="none" stroke-dasharray="8 9"></path></g></g><g stroke-linecap="round"><g stroke-opacity="0.4" fill-opacity="0.4" transform="translate(370 50) rotate(0 -20 20)"><path d="M0 0 C-9.05 9.05, -18.11 18.11, -40 40" stroke="#000000" stroke-width="1.5" fill="none" stroke-dasharray="8 9"></path></g></g><g transform="translate(150 10) rotate(0 45.5 18)"><text x="0" y="25" font-family="Virgil, Segoe UI Emoji" font-size="28px" fill="#000000" text-anchor="start" style="white-space: pre;" direction="ltr">100 ft</text></g><g stroke-linecap="round"><g transform="translate(30 130) rotate(0 160 0)"><path d="M0 0 C102.16 0, 204.31 0, 320 0 M0 0 C98.81 0, 197.62 0, 320 0" stroke="#000000" stroke-width="4" fill="none"></path></g></g><g transform="translate(186.21977864894916 119.52247622153413) rotate(0 7.003395329614477 8.882355052193873)" stroke="none"><path fill="#c92a2a" d="M 1.61,-1.73 Q 1.61,-1.73 3.01,-0.27 4.41,1.17 5.98,2.95 7.55,4.73 8.76,6.18 9.97,7.63 10.83,8.59 11.69,9.55 12.97,11.36 14.25,13.17 15.18,14.87 16.10,16.57 16.23,16.94 16.37,17.30 16.38,17.69 16.39,18.08 16.28,18.45 16.16,18.83 15.94,19.14 15.71,19.46 15.39,19.69 15.08,19.92 14.70,20.03 14.33,20.15 13.94,20.14 13.55,20.13 13.19,19.99 12.82,19.86 12.52,19.62 12.21,19.37 12.00,19.04 11.79,18.72 11.70,18.34 11.60,17.96 11.63,17.57 11.66,17.18 11.82,16.82 11.97,16.47 12.23,16.18 12.49,15.88 12.83,15.69 13.17,15.50 13.55,15.43 13.93,15.35 14.32,15.40 14.71,15.46 15.05,15.63 15.40,15.80 15.68,16.08 15.96,16.35 16.13,16.70 16.30,17.05 16.36,17.43 16.41,17.82 16.34,18.20 16.26,18.59 16.07,18.93 15.88,19.27 15.59,19.53 15.30,19.79 14.94,19.94 14.59,20.10 14.20,20.13 13.81,20.16 13.43,20.07 13.05,19.97 12.72,19.76 12.40,19.56 12.15,19.25 11.91,18.95 11.91,18.95 11.91,18.95 11.03,17.14 10.16,15.32 9.33,13.72 8.50,12.12 7.77,11.11 7.05,10.10 5.91,8.76 4.77,7.42 3.12,5.87 1.47,4.32 -0.07,3.02 -1.61,1.73 -1.80,1.51 -1.98,1.29 -2.11,1.03 -2.23,0.78 -2.29,0.50 -2.35,0.22 -2.35,-0.06 -2.34,-0.34 -2.26,-0.62 -2.19,-0.89 -2.05,-1.14 -1.91,-1.39 -1.71,-1.60 -1.52,-1.81 -1.28,-1.96 -1.04,-2.12 -0.77,-2.22 -0.50,-2.31 -0.22,-2.34 0.06,-2.36 0.34,-2.32 0.62,-2.28 0.89,-2.17 1.15,-2.06 1.38,-1.90 1.61,-1.73 1.61,-1.73 L 1.61,-1.73 Z"></path></g><g transform="translate(201.251456429585 119.52247622153413) rotate(0 -9.223984092662818 7.686653410552367)" stroke="none"><path fill="#c92a2a" d="M 1.46,1.91 Q 1.46,1.91 -0.68,3.37 -2.83,4.83 -4.34,5.88 -5.84,6.93 -6.91,7.80 -7.98,8.66 -9.00,9.52 -10.01,10.39 -11.12,11.34 -12.24,12.28 -14.42,14.64 -16.60,17.00 -16.91,17.25 -17.22,17.50 -17.59,17.64 -17.97,17.78 -18.36,17.79 -18.76,17.81 -19.14,17.69 -19.52,17.58 -19.85,17.35 -20.17,17.12 -20.41,16.79 -20.64,16.47 -20.76,16.09 -20.88,15.71 -20.87,15.32 -20.86,14.92 -20.72,14.54 -20.59,14.17 -20.34,13.86 -20.09,13.55 -19.76,13.33 -19.43,13.12 -19.04,13.02 -18.66,12.92 -18.26,12.95 -17.86,12.98 -17.50,13.14 -17.13,13.29 -16.83,13.55 -16.54,13.82 -16.34,14.16 -16.14,14.51 -16.06,14.90 -15.99,15.29 -16.04,15.68 -16.09,16.08 -16.26,16.43 -16.44,16.79 -16.72,17.07 -17.00,17.36 -17.35,17.54 -17.71,17.71 -18.10,17.77 -18.50,17.83 -18.89,17.75 -19.28,17.68 -19.63,17.49 -19.97,17.29 -20.24,17.00 -20.51,16.70 -20.67,16.34 -20.83,15.97 -20.86,15.58 -20.89,15.18 -20.80,14.79 -20.71,14.41 -20.49,14.07 -20.28,13.74 -20.28,13.74 -20.28,13.74 -17.71,11.27 -15.13,8.81 -13.97,7.86 -12.80,6.90 -11.69,6.07 -10.58,5.23 -9.42,4.41 -8.26,3.59 -6.84,2.52 -5.41,1.45 -3.43,-0.23 -1.46,-1.91 -1.21,-2.06 -0.95,-2.21 -0.68,-2.29 -0.40,-2.37 -0.11,-2.39 0.17,-2.40 0.46,-2.34 0.74,-2.29 1.01,-2.16 1.27,-2.04 1.50,-1.86 1.72,-1.68 1.90,-1.45 2.07,-1.21 2.19,-0.95 2.31,-0.68 2.35,-0.39 2.40,-0.11 2.38,0.17 2.36,0.46 2.27,0.74 2.18,1.01 2.03,1.26 1.87,1.51 1.66,1.71 1.46,1.91 1.46,1.91 L 1.46,1.91 Z"></path></g><g stroke-linecap="round" transform="translate(230 190) rotate(0 20 20)"><path d="M0 0 L40 0 L40 40 L0 40" stroke="none" stroke-width="0" fill="#868e96"></path><path d="M0 0 C15.78 0, 31.55 0, 40 0 M0 0 C9.83 0, 19.67 0, 40 0 M40 0 C40 8.42, 40 16.85, 40 40 M40 0 C40 11.35, 40 22.7, 40 40 M40 40 C30.95 40, 21.89 40, 0 40 M40 40 C31.08 40, 22.15 40, 0 40 M0 40 C0 29.84, 0 19.68, 0 0 M0 40 C0 28.11, 0 16.23, 0 0" stroke="#000000" stroke-width="4" fill="none"></path></g><g stroke-linecap="round" transform="translate(90 190) rotate(0 20 20)"><path d="M40 20 C40 21.16, 39.9 22.33, 39.7 23.47 C39.5 24.61, 39.19 25.75, 38.79 26.84 C38.4 27.93, 37.9 29, 37.32 30 C36.74 31, 36.07 31.97, 35.32 32.86 C34.58 33.74, 33.74 34.58, 32.86 35.32 C31.97 36.07, 31 36.74, 30 37.32 C29 37.9, 27.93 38.4, 26.84 38.79 C25.75 39.19, 24.61 39.5, 23.47 39.7 C22.33 39.9, 21.16 40, 20 40 C18.84 40, 17.67 39.9, 16.53 39.7 C15.39 39.5, 14.25 39.19, 13.16 38.79 C12.07 38.4, 11 37.9, 10 37.32 C9 36.74, 8.03 36.07, 7.14 35.32 C6.26 34.58, 5.42 33.74, 4.68 32.86 C3.93 31.97, 3.26 31, 2.68 30 C2.1 29, 1.6 27.93, 1.21 26.84 C0.81 25.75, 0.5 24.61, 0.3 23.47 C0.1 22.33, 0 21.16, 0 20 C0 18.84, 0.1 17.67, 0.3 16.53 C0.5 15.39, 0.81 14.25, 1.21 13.16 C1.6 12.07, 2.1 11, 2.68 10 C3.26 9, 3.93 8.03, 4.68 7.14 C5.42 6.26, 6.26 5.42, 7.14 4.68 C8.03 3.93, 9 3.26, 10 2.68 C11 2.1, 12.07 1.6, 13.16 1.21 C14.25 0.81, 15.39 0.5, 16.53 0.3 C17.67 0.1, 18.84 0, 20 0 C21.16 0, 22.33 0.1, 23.47 0.3 C24.61 0.5, 25.75 0.81, 26.84 1.21 C27.93 1.6, 29 2.1, 30 2.68 C31 3.26, 31.97 3.93, 32.86 4.68 C33.74 5.42, 34.58 6.26, 35.32 7.14 C36.07 8.03, 36.74 9, 37.32 10 C37.9 11, 38.4 12.07, 38.79 13.16 C39.19 14.25, 39.5 15.39, 39.7 16.53 C39.9 17.67, 39.95 19.42, 40 20 C40.05 20.58, 40.05 19.42, 40 20" stroke="none" stroke-width="0" fill="#868e96"></path><path d="M40 20 C40 21.16, 39.9 22.33, 39.7 23.47 C39.5 24.61, 39.19 25.75, 38.79 26.84 C38.4 27.93, 37.9 29, 37.32 30 C36.74 31, 36.07 31.97, 35.32 32.86 C34.58 33.74, 33.74 34.58, 32.86 35.32 C31.97 36.07, 31 36.74, 30 37.32 C29 37.9, 27.93 38.4, 26.84 38.79 C25.75 39.19, 24.61 39.5, 23.47 39.7 C22.33 39.9, 21.16 40, 20 40 C18.84 40, 17.67 39.9, 16.53 39.7 C15.39 39.5, 14.25 39.19, 13.16 38.79 C12.07 38.4, 11 37.9, 10 37.32 C9 36.74, 8.03 36.07, 7.14 35.32 C6.26 34.58, 5.42 33.74, 4.68 32.86 C3.93 31.97, 3.26 31, 2.68 30 C2.1 29, 1.6 27.93, 1.21 26.84 C0.81 25.75, 0.5 24.61, 0.3 23.47 C0.1 22.33, 0 21.16, 0 20 C0 18.84, 0.1 17.67, 0.3 16.53 C0.5 15.39, 0.81 14.25, 1.21 13.16 C1.6 12.07, 2.1 11, 2.68 10 C3.26 9, 3.93 8.03, 4.68 7.14 C5.42 6.26, 6.26 5.42, 7.14 4.68 C8.03 3.93, 9 3.26, 10 2.68 C11 2.1, 12.07 1.6, 13.16 1.21 C14.25 0.81, 15.39 0.5, 16.53 0.3 C17.67 0.1, 18.84 0, 20 0 C21.16 0, 22.33 0.1, 23.47 0.3 C24.61 0.5, 25.75 0.81, 26.84 1.21 C27.93 1.6, 29 2.1, 30 2.68 C31 3.26, 31.97 3.93, 32.86 4.68 C33.74 5.42, 34.58 6.26, 35.32 7.14 C36.07 8.03, 36.74 9, 37.32 10 C37.9 11, 38.4 12.07, 38.79 13.16 C39.19 14.25, 39.5 15.39, 39.7 16.53 C39.9 17.67, 39.95 19.42, 40 20 C40.05 20.58, 40.05 19.42, 40 20" stroke="#000000" stroke-width="4" fill="none"></path></g><g stroke-linecap="round"><g transform="translate(110 150) rotate(0 1.0063533184211337 10.572830755263567)"><path d="M0.17 3.82 C0.54 4.05, 0 8.45, 2.18 18.82 M0.55 1.27 C0.46 8.26, -1.07 13.03, 0.62 19.88" stroke="#000000" stroke-width="1" fill="none"></path></g><g transform="translate(110 150) rotate(0 1.0063533184211337 10.572830755263567)"><path d="M-3.95 12.94 C-2.68 12.78, -1.89 14.71, 1.72 19.28 M-3.76 11.66 C-2.1 14.82, -1.18 16.78, 0.94 19.81" stroke="#000000" stroke-width="1" fill="none"></path></g><g transform="translate(110 150) rotate(0 1.0063533184211337 10.572830755263567)"><path d="M2.83 12.01 C2.53 12.08, 1.78 14.23, 1.72 19.28 M3.02 10.74 C2.21 14.12, 0.67 16.42, 0.94 19.81" stroke="#000000" stroke-width="1" fill="none"></path></g></g><g stroke-linecap="round"><g transform="translate(270 150) rotate(0 -0.28632541559636593 10.184495650231838)"><path d="M-0.63 -1.65 C2.28 3.37, 0.12 17.38, -1.41 22.02 M0.83 -0.45 C-0.5 8.06, -1.59 14.11, 0.27 20.5" stroke="#000000" stroke-width="1" fill="none"></path></g><g transform="translate(270 150) rotate(0 -0.28632541559636593 10.184495650231838)"><path d="M-4.95 10.96 C-1.86 12.99, -1.3 19.56, -0.44 21.5 M-4.22 11.56 C-3.25 15.37, -2.15 17.97, 0.4 20.74" stroke="#000000" stroke-width="1" fill="none"></path></g><g transform="translate(270 150) rotate(0 -0.28632541559636593 10.184495650231838)"><path d="M1.8 9.84 C2.63 12.31, 0.93 19.26, -0.44 21.5 M2.53 10.44 C1.25 14.64, 0.08 17.61, 0.4 20.74" stroke="#000000" stroke-width="1" fill="none"></path></g></g></svg>