<?xml version="1.0" encoding="UTF-8" standalone="no"?>
<!-- Created with Inkscape (http://www.inkscape.org/) -->
<svg
   xmlns:dc="http://purl.org/dc/elements/1.1/"
   xmlns:cc="http://web.resource.org/cc/"
   xmlns:rdf="http://www.w3.org/1999/02/22-rdf-syntax-ns#"
   xmlns:svg="http://www.w3.org/2000/svg"
   xmlns="http://www.w3.org/2000/svg"
   xmlns:sodipodi="http://sodipodi.sourceforge.net/DTD/sodipodi-0.dtd"
   xmlns:inkscape="http://www.inkscape.org/namespaces/inkscape"
   width="1089"
   height="1089"
   id="svg2247"
   sodipodi:version="0.32"
   inkscape:version="0.45.1"
   version="1.0"
   sodipodi:docbase="C:\Documents and Settings\Jim\Desktop\Wikipedia\System of Linear Equations"
   sodipodi:docname="Three Intersecting Lines.svg"
   inkscape:output_extension="org.inkscape.output.svg.inkscape">
  <sodipodi:namedview
     id="base"
     pagecolor="#ffffff"
     bordercolor="#666666"
     borderopacity="1.0"
     gridtolerance="10000"
     guidetolerance="10"
     objecttolerance="10"
     inkscape:pageopacity="0.0"
     inkscape:pageshadow="2"
     inkscape:zoom="0.35"
     inkscape:cx="375"
     inkscape:cy="420.07627"
     inkscape:document-units="px"
     inkscape:current-layer="layer1"
     inkscape:window-width="1024"
     inkscape:window-height="708"
     inkscape:window-x="-4"
     inkscape:window-y="30" />
  <defs
     id="defs2249" />
  <metadata
     id="metadata2252">
    <rdf:RDF>
      <cc:Work
         rdf:about="">
        <dc:format>image/svg+xml</dc:format>
        <dc:type
           rdf:resource="http://purl.org/dc/dcmitype/StillImage" />
      </cc:Work>
    </rdf:RDF>
  </metadata>
  <g
     inkscape:label="Layer 1"
     id="layer1"
     transform="translate(190.21429,420.70925)"
     inkscape:groupmode="layer">
    <path
       style="fill:#000000;fill-rule:nonzero;stroke:none;stroke-linecap:round;stroke-linejoin:round"
       d="M 27.285714,663.79075 L 27.285714,-392.20925 L 33.285714,-392.20925 L 33.285714,663.79075 L 27.285714,663.79075 z M 30.285714,-392.20925 L 10.285714,-376.20925 L 30.285714,-416.20925 L 50.285714,-376.20925 L 30.285714,-392.20925 z "
       sodipodi:nodetypes="cccccccccc"
       id="path15" />
    <path
       style="fill:#000000;fill-rule:nonzero;stroke:none;stroke-linecap:round;stroke-linejoin:round"
       id="path17"
       d="M -185.71429,444.79075 L 870.28571,444.79075 L 870.28571,450.79075 L -185.71429,450.79075 L -185.71429,444.79075 z M 870.28571,447.79075 L 854.28571,427.79075 L 894.28571,447.79075 L 854.28571,467.79075 L 870.28571,447.79075 z " />
    <path
       style="fill:none;fill-rule:nonzero;stroke:#ff0000;stroke-width:9px;stroke-linecap:butt;stroke-linejoin:round"
       d="M -185.71429,411.79075 L 894.28571,-128.20925"
       sodipodi:nodetypes="cc"
       id="path19" />
    <path
       style="fill:none;fill-rule:nonzero;stroke:#3366ff;stroke-width:9px;stroke-linecap:butt;stroke-linejoin:round"
       id="path21"
       d="M -185.71429,-143.20925 L 894.28571,504.79075" />
    <path
       style="fill:none;fill-rule:nonzero;stroke:#00c000;stroke-width:9px;stroke-linecap:butt;stroke-linejoin:round"
       id="path23"
       d="M 696.28571,663.79075 L -113.71429,-416.20925" />
    <path
       style="fill:#000000;fill-rule:nonzero;stroke:none;stroke-linecap:round;stroke-linejoin:round"
       id="path25"
       d="M 318.28571,177.79075 L 325.28571,176.79075 L 331.28571,172.79075 L 335.28571,166.79075 L 336.28571,159.79075 L 335.28571,152.79075 L 331.28571,146.79075 L 325.28571,142.79075 L 318.28571,141.79075 L 311.28571,142.79075 L 305.28571,146.79075 L 301.28571,152.79075 L 300.28571,159.79075 L 301.28571,166.79075 L 305.28571,172.79075 L 311.28571,176.79075 L 318.28571,177.79075 z " />
    <g
       id="g2290"
       transform="matrix(0.6000014,0.7999989,-0.7999989,0.6000014,-66.126756,-719.77737)">
      <g
         style="font-style:normal;font-variant:normal;font-weight:normal;font-stretch:normal;letter-spacing:normal;word-spacing:normal;text-anchor:start;fill:none;fill-opacity:1;fill-rule:evenodd;stroke:#000000;stroke-linecap:butt;stroke-linejoin:miter;stroke-miterlimit:10.43299961;stroke-dasharray:none;stroke-dashoffset:0;stroke-opacity:1"
         id="g2292"
         xml:space="preserve"
         transform="matrix(1.5557143,0,0,-1.5557143,-272.25,816.75)"><path
           style="fill:#000000;stroke-width:0"
           id="path2294"
           d="M 457.39,414.22 L 470.64,414.22 L 470.64,409.89 C 470.64,408.09 470.55,407.54 466.86,407.54 L 465.81,407.54 L 465.81,406 C 467.86,406.15 470.45,406.15 472.54,406.15 C 474.63,406.15 477.27,406.15 479.31,406 L 479.31,407.54 L 478.27,407.54 C 474.58,407.54 474.48,408.09 474.48,409.89 L 474.48,414.22 L 479.46,414.22 L 479.46,415.76 L 474.48,415.76 L 474.48,438.43 C 474.48,439.43 474.48,439.72 473.68,439.72 C 473.23,439.72 473.09,439.72 472.69,439.13 L 457.39,415.76 L 458.79,415.76 L 470.95,434.34 L 470.95,415.76 L 458.79,415.76 L 457.39,415.76 L 457.39,414.22 z " /><path
           style="fill:#000000;stroke-width:0"
           id="path2296"
           d="M 496.64,421.04 L 496.67,421.17 L 496.7,421.32 L 496.75,421.49 L 496.79,421.67 L 496.85,421.86 L 496.91,422.07 L 496.97,422.28 L 497.04,422.51 L 497.12,422.74 L 497.21,422.98 L 497.31,423.23 L 497.41,423.47 L 497.52,423.72 L 497.64,423.97 L 497.77,424.22 L 497.91,424.47 L 498.06,424.71 L 498.21,424.95 L 498.38,425.18 L 498.56,425.4 L 498.74,425.62 L 498.94,425.82 L 499.15,426.01 L 499.37,426.19 L 499.6,426.35 L 499.85,426.49 L 499.97,426.56 L 500.1,426.62 L 500.23,426.67 L 500.37,426.72 L 500.51,426.77 L 500.65,426.81 L 500.79,426.84 L 500.94,426.87 L 501.09,426.89 L 501.25,426.91 L 501.41,426.92 L 501.57,426.92 C 501.82,426.92 503.02,426.92 504.06,426.27 C 502.66,426.02 501.67,424.78 501.67,423.59 C 501.67,422.79 502.21,421.84 503.56,421.84 C 504.66,421.84 506.25,422.74 506.25,424.73 C 506.25,427.32 503.31,428.02 501.62,428.02 C 498.73,428.02 496.98,425.38 496.39,424.23 C 495.14,427.52 492.45,428.02 491.01,428.02 C 485.83,428.02 482.99,421.59 482.99,420.35 C 482.99,419.85 483.49,419.85 483.59,419.85 C 483.98,419.85 484.13,419.95 484.23,420.39 C 485.93,425.68 489.21,426.92 490.91,426.92 C 491.86,426.92 493.6,426.47 493.6,423.59 C 493.6,422.04 492.75,418.7 490.91,411.73 C 490.11,408.64 488.37,406.55 486.18,406.55 C 485.88,406.55 484.73,406.55 483.69,407.2 C 484.93,407.45 486.03,408.49 486.03,409.89 C 486.03,411.23 484.93,411.63 484.18,411.63 C 482.69,411.63 481.45,410.33 481.45,408.74 C 481.45,406.45 483.93,405.45 486.13,405.45 C 489.41,405.45 491.21,408.94 491.36,409.24 C 491.96,407.39 493.75,405.45 496.74,405.45 C 501.87,405.45 504.71,411.88 504.71,413.13 C 504.71,413.62 504.26,413.62 504.11,413.62 C 503.66,413.62 503.56,413.42 503.46,413.07 C 501.82,407.74 498.43,406.55 496.84,406.55 C 494.89,406.55 494.1,408.14 494.1,409.84 C 494.1,410.93 494.39,412.03 494.95,414.22 L 496.64,421.04 z " /><path
           style="fill:#000000;stroke-width:0"
           id="path2298"
           d="M 540.38,417.46 L 554.27,417.46 C 554.97,417.46 555.91,417.46 555.91,418.45 C 555.91,419.45 554.97,419.45 554.27,419.45 L 540.38,419.45 L 540.38,433.4 C 540.38,434.09 540.38,435.04 539.38,435.04 C 538.38,435.04 538.38,434.09 538.38,433.4 L 538.38,419.45 L 524.43,419.45 C 523.73,419.45 522.79,419.45 522.79,418.45 C 522.79,417.46 523.73,417.46 524.43,417.46 L 538.38,417.46 L 538.38,403.51 C 538.38,402.81 538.38,401.87 539.38,401.87 C 540.38,401.87 540.38,402.81 540.38,403.51 L 540.38,417.46 z " /><path
           style="fill:#000000;stroke-width:0"
           id="path2300"
           d="M 584.45,423.54 L 584.82,423.67 L 585.2,423.81 L 585.56,423.97 L 585.92,424.14 L 586.27,424.32 L 586.61,424.51 L 586.94,424.71 L 587.26,424.92 L 587.57,425.14 L 587.87,425.37 L 588.17,425.61 L 588.45,425.86 L 588.72,426.12 L 588.98,426.39 L 589.23,426.66 L 589.46,426.95 L 589.69,427.24 L 589.9,427.54 L 590.1,427.84 L 590.29,428.15 L 590.46,428.47 L 590.62,428.8 L 590.77,429.13 L 590.9,429.46 L 591.02,429.8 L 591.12,430.15 L 591.21,430.5 L 591.29,430.85 L 591.34,431.21 L 591.38,431.57 L 591.41,431.93 L 591.42,432.3 C 591.42,436.39 587.03,439.18 582.25,439.18 C 577.22,439.18 573.44,436.19 573.44,432.4 C 573.44,430.76 574.53,429.81 575.98,429.81 C 577.52,429.81 578.52,430.91 578.52,432.35 C 578.52,434.84 576.18,434.84 575.43,434.84 C 576.97,437.28 580.26,437.93 582.05,437.93 C 584.1,437.93 586.84,436.84 586.84,432.35 C 586.84,431.75 586.74,428.86 585.44,426.67 C 583.95,424.28 582.25,424.13 581.01,424.08 C 580.61,424.03 579.41,423.93 579.07,423.93 C 578.67,423.88 578.32,423.83 578.32,423.34 C 578.32,422.79 578.67,422.79 579.52,422.79 L 581.71,422.79 C 585.79,422.79 587.63,419.4 587.63,414.52 C 587.63,407.74 584.2,406.3 582,406.3 C 579.86,406.3 576.13,407.14 574.38,410.09 C 576.13,409.84 577.67,410.93 577.67,412.82 C 577.67,414.62 576.33,415.61 574.88,415.61 C 573.69,415.61 572.09,414.92 572.09,412.73 C 572.09,408.19 576.73,404.9 582.16,404.9 C 588.23,404.9 592.77,409.44 592.77,414.52 C 592.77,418.6 589.63,422.49 584.45,423.54 z " /><path
           style="fill:#000000;stroke-width:0"
           id="path2302"
           d="M 619.21,424.98 L 619.22,425.01 L 619.23,425.04 L 619.24,425.07 L 619.25,425.1 L 619.26,425.16 L 619.28,425.21 L 619.29,425.27 L 619.3,425.31 L 619.32,425.36 L 619.33,425.4 L 619.34,425.44 L 619.35,425.48 L 619.35,425.52 L 619.36,425.56 L 619.37,425.59 L 619.37,425.62 L 619.38,425.65 L 619.39,425.68 L 619.39,425.71 L 619.39,425.74 L 619.4,425.77 L 619.4,425.79 L 619.4,425.85 L 619.41,425.9 L 619.41,425.95 L 619.41,426 L 619.41,426.03 L 619.41,426.06 L 619.41,426.09 L 619.41,426.13 C 619.41,427.02 618.71,427.47 617.97,427.47 C 617.47,427.47 616.67,427.17 616.22,426.42 C 616.12,426.18 615.72,424.63 615.52,423.73 C 615.18,422.44 614.82,421.09 614.53,419.75 L 612.28,410.78 C 612.09,410.04 609.95,406.55 606.66,406.55 C 604.12,406.55 603.57,408.74 603.57,410.58 C 603.57,412.88 604.41,415.96 606.11,420.35 C 606.91,422.39 607.1,422.94 607.1,423.93 C 607.1,426.18 605.51,428.02 603.02,428.02 C 598.29,428.02 596.45,420.79 596.45,420.35 C 596.45,419.85 596.94,419.85 597.04,419.85 C 597.54,419.85 597.59,419.95 597.84,420.75 C 599.18,425.43 601.18,426.92 602.87,426.92 C 603.27,426.92 604.12,426.92 604.12,425.33 C 604.12,424.08 603.62,422.79 603.27,421.84 C 601.28,416.56 600.38,413.72 600.38,411.38 C 600.38,406.95 603.52,405.45 606.46,405.45 C 608.4,405.45 610.09,406.3 611.49,407.7 C 610.84,405.1 610.24,402.66 608.25,400.02 C 606.96,398.33 605.06,396.88 602.77,396.88 C 602.07,396.88 599.83,397.04 598.98,398.98 C 599.78,398.98 600.43,398.98 601.13,399.57 C 601.63,400.02 602.13,400.67 602.13,401.62 C 602.13,403.16 600.78,403.36 600.28,403.36 C 599.13,403.36 597.49,402.56 597.49,400.12 C 597.49,397.63 599.68,395.79 602.77,395.79 C 607.9,395.79 613.03,400.32 614.43,405.95 L 619.21,424.98 z " /><path
           style="fill:#000000;stroke-width:0"
           id="path2304"
           d="M 669.22,422.29 L 669.36,422.29 L 669.51,422.29 L 669.66,422.3 L 669.73,422.3 L 669.8,422.3 L 669.87,422.31 L 669.95,422.32 L 670.02,422.33 L 670.09,422.34 L 670.15,422.36 L 670.22,422.37 L 670.29,422.39 L 670.35,422.41 L 670.41,422.44 L 670.47,422.47 L 670.52,422.5 L 670.58,422.53 L 670.63,422.57 L 670.67,422.61 L 670.72,422.66 L 670.75,422.71 L 670.77,422.74 L 670.79,422.76 L 670.81,422.79 L 670.82,422.82 L 670.84,422.85 L 670.85,422.89 L 670.86,422.92 L 670.87,422.96 L 670.88,422.99 L 670.89,423.03 L 670.9,423.07 L 670.9,423.11 L 670.91,423.15 L 670.91,423.19 L 670.91,423.24 L 670.91,423.29 C 670.91,424.28 669.97,424.28 669.27,424.28 L 639.43,424.28 C 638.73,424.28 637.79,424.28 637.79,423.29 C 637.79,422.29 638.73,422.29 639.48,422.29 L 669.22,422.29 z " /><path
           style="fill:#000000;stroke-width:0"
           id="path2306"
           d="M 669.27,412.63 L 669.4,412.63 L 669.54,412.63 L 669.68,412.63 L 669.75,412.64 L 669.82,412.64 L 669.89,412.65 L 669.96,412.66 L 670.03,412.67 L 670.1,412.68 L 670.16,412.69 L 670.23,412.71 L 670.29,412.73 L 670.35,412.75 L 670.41,412.77 L 670.47,412.8 L 670.53,412.83 L 670.58,412.87 L 670.63,412.91 L 670.67,412.95 L 670.72,412.99 L 670.74,413.02 L 670.76,413.05 L 670.77,413.07 L 670.79,413.1 L 670.81,413.13 L 670.82,413.16 L 670.84,413.19 L 670.85,413.22 L 670.86,413.26 L 670.87,413.29 L 670.88,413.33 L 670.89,413.37 L 670.9,413.41 L 670.9,413.45 L 670.91,413.49 L 670.91,413.53 L 670.91,413.58 L 670.91,413.62 C 670.91,414.62 669.97,414.62 669.22,414.62 L 639.48,414.62 C 638.73,414.62 637.79,414.62 637.79,413.62 C 637.79,412.63 638.73,412.63 639.43,412.63 L 669.27,412.63 z " /><path
           style="fill:#000000;stroke-width:0"
           id="path2308"
           d="M 710.71,436.34 L 710.75,436.39 L 710.79,436.44 L 710.83,436.49 L 710.86,436.54 L 710.89,436.59 L 710.92,436.63 L 710.95,436.67 L 710.97,436.71 L 710.99,436.75 L 711.01,436.79 L 711.03,436.83 L 711.05,436.87 L 711.07,436.92 L 711.08,436.96 L 711.09,437 L 711.1,437.04 L 711.11,437.08 L 711.12,437.13 L 711.13,437.18 L 711.14,437.23 L 711.14,437.28 L 711.15,437.33 L 711.15,437.39 L 711.15,437.45 L 711.16,437.51 L 711.16,437.58 L 711.16,437.65 L 711.16,437.73 L 711.16,437.81 L 711.16,437.89 L 711.16,437.98 L 711.16,438.03 L 711.16,438.08 L 699.05,438.08 C 692.98,438.08 692.88,438.73 692.68,439.67 L 691.43,439.67 L 689.79,429.41 L 691.03,429.41 C 691.18,430.21 691.63,433.35 692.28,433.95 C 692.63,434.24 696.52,434.24 697.16,434.24 L 707.47,434.24 C 706.93,433.45 702.99,428.02 701.9,426.38 C 697.41,419.65 695.77,412.73 695.77,407.64 C 695.77,407.14 695.77,404.9 698.06,404.9 C 700.35,404.9 700.35,407.14 700.35,407.64 L 700.35,410.18 C 700.35,412.93 700.5,415.66 700.9,418.36 C 701.1,419.5 701.79,423.79 703.98,426.87 L 710.71,436.34 z " /></g>    </g>
    <g
       id="g2350"
       transform="matrix(0.8943886,-0.4472908,0.4472908,0.8943886,39.028395,54.78024)">
      <g
         style="font-style:normal;font-variant:normal;font-weight:normal;font-stretch:normal;letter-spacing:normal;word-spacing:normal;text-anchor:start;fill:none;fill-opacity:1;fill-rule:evenodd;stroke:#000000;stroke-linecap:butt;stroke-linejoin:miter;stroke-miterlimit:10.43299961;stroke-dasharray:none;stroke-dashoffset:0;stroke-opacity:1"
         id="g2352"
         xml:space="preserve"
         transform="matrix(1.5557143,0,0,-1.5557143,-272.25,816.75)"><path
           style="fill:#000000;stroke-width:0"
           id="path2354"
           d="M 472.64,421.04 L 472.67,421.17 L 472.7,421.32 L 472.75,421.49 L 472.79,421.67 L 472.85,421.86 L 472.91,422.07 L 472.97,422.28 L 473.04,422.51 L 473.12,422.74 L 473.21,422.98 L 473.31,423.23 L 473.41,423.47 L 473.52,423.72 L 473.64,423.97 L 473.77,424.22 L 473.91,424.47 L 474.06,424.71 L 474.21,424.95 L 474.38,425.18 L 474.56,425.4 L 474.74,425.62 L 474.94,425.82 L 475.15,426.01 L 475.37,426.19 L 475.6,426.35 L 475.85,426.49 L 475.97,426.56 L 476.1,426.62 L 476.23,426.67 L 476.37,426.72 L 476.51,426.77 L 476.65,426.81 L 476.79,426.84 L 476.94,426.87 L 477.09,426.89 L 477.25,426.91 L 477.41,426.92 L 477.57,426.92 C 477.82,426.92 479.02,426.92 480.06,426.27 C 478.66,426.02 477.67,424.78 477.67,423.59 C 477.67,422.79 478.21,421.84 479.56,421.84 C 480.66,421.84 482.25,422.74 482.25,424.73 C 482.25,427.32 479.31,428.02 477.62,428.02 C 474.73,428.02 472.98,425.38 472.39,424.23 C 471.14,427.52 468.45,428.02 467.01,428.02 C 461.83,428.02 458.99,421.59 458.99,420.35 C 458.99,419.85 459.49,419.85 459.59,419.85 C 459.98,419.85 460.13,419.95 460.23,420.39 C 461.93,425.68 465.21,426.92 466.91,426.92 C 467.86,426.92 469.6,426.47 469.6,423.59 C 469.6,422.04 468.75,418.7 466.91,411.73 C 466.11,408.64 464.37,406.55 462.18,406.55 C 461.88,406.55 460.73,406.55 459.69,407.2 C 460.93,407.45 462.03,408.49 462.03,409.89 C 462.03,411.23 460.93,411.63 460.18,411.63 C 458.69,411.63 457.45,410.33 457.45,408.74 C 457.45,406.45 459.93,405.45 462.13,405.45 C 465.41,405.45 467.21,408.94 467.36,409.24 C 467.96,407.39 469.75,405.45 472.74,405.45 C 477.87,405.45 480.71,411.88 480.71,413.13 C 480.71,413.62 480.26,413.62 480.11,413.62 C 479.66,413.62 479.56,413.42 479.46,413.07 C 477.82,407.74 474.43,406.55 472.84,406.55 C 470.89,406.55 470.1,408.14 470.1,409.84 C 470.1,410.93 470.39,412.03 470.95,414.22 L 472.64,421.04 z " /><path
           style="fill:#000000;stroke-width:0"
           id="path2356"
           d="M 527.93,417.46 L 528.06,417.46 L 528.2,417.46 L 528.34,417.46 L 528.41,417.47 L 528.48,417.47 L 528.55,417.48 L 528.62,417.49 L 528.69,417.5 L 528.75,417.51 L 528.82,417.52 L 528.88,417.54 L 528.95,417.56 L 529.01,417.58 L 529.07,417.61 L 529.13,417.63 L 529.18,417.67 L 529.23,417.7 L 529.28,417.74 L 529.33,417.78 L 529.37,417.83 L 529.39,417.85 L 529.41,417.88 L 529.43,417.9 L 529.45,417.93 L 529.46,417.96 L 529.48,417.99 L 529.49,418.02 L 529.51,418.06 L 529.52,418.09 L 529.53,418.12 L 529.54,418.16 L 529.55,418.2 L 529.55,418.24 L 529.56,418.28 L 529.56,418.32 L 529.57,418.36 L 529.57,418.41 L 529.57,418.45 C 529.57,419.45 528.63,419.45 527.93,419.45 L 500.78,419.45 C 500.08,419.45 499.13,419.45 499.13,418.45 C 499.13,417.46 500.08,417.46 500.78,417.46 L 527.93,417.46 z " /><path
           style="fill:#000000;stroke-width:0"
           id="path2358"
           d="M 567.37,414.67 L 566.12,414.67 C 565.87,413.17 565.52,410.98 565.02,410.23 C 564.68,409.84 561.39,409.84 560.29,409.84 L 551.33,409.84 L 556.6,414.96 C 564.38,421.84 567.37,424.53 567.37,429.51 C 567.37,435.19 562.88,439.18 556.8,439.18 C 551.18,439.18 547.49,434.59 547.49,430.16 C 547.49,427.37 549.98,427.37 550.13,427.37 C 550.98,427.37 552.72,427.97 552.72,430.01 C 552.72,431.3 551.82,432.6 550.08,432.6 C 549.68,432.6 549.58,432.6 549.43,432.55 C 550.58,435.79 553.27,437.63 556.16,437.63 C 560.69,437.63 562.83,433.6 562.83,429.51 C 562.83,425.53 560.34,421.59 557.6,418.5 L 548.04,407.84 C 547.49,407.3 547.49,407.2 547.49,406 L 565.97,406 L 567.37,414.67 z " /><path
           style="fill:#000000;stroke-width:0"
           id="path2360"
           d="M 594.21,424.98 L 594.22,425.01 L 594.23,425.04 L 594.24,425.07 L 594.25,425.1 L 594.26,425.16 L 594.28,425.21 L 594.29,425.27 L 594.3,425.31 L 594.32,425.36 L 594.33,425.4 L 594.34,425.44 L 594.35,425.48 L 594.35,425.52 L 594.36,425.56 L 594.37,425.59 L 594.37,425.62 L 594.38,425.65 L 594.39,425.68 L 594.39,425.71 L 594.39,425.74 L 594.4,425.77 L 594.4,425.79 L 594.4,425.85 L 594.41,425.9 L 594.41,425.95 L 594.41,426 L 594.41,426.03 L 594.41,426.06 L 594.41,426.09 L 594.41,426.13 C 594.41,427.02 593.71,427.47 592.97,427.47 C 592.47,427.47 591.67,427.17 591.22,426.42 C 591.12,426.18 590.72,424.63 590.52,423.73 C 590.18,422.44 589.82,421.09 589.53,419.75 L 587.28,410.78 C 587.09,410.04 584.95,406.55 581.66,406.55 C 579.12,406.55 578.57,408.74 578.57,410.58 C 578.57,412.88 579.41,415.96 581.11,420.35 C 581.91,422.39 582.1,422.94 582.1,423.93 C 582.1,426.18 580.51,428.02 578.02,428.02 C 573.29,428.02 571.45,420.79 571.45,420.35 C 571.45,419.85 571.94,419.85 572.04,419.85 C 572.54,419.85 572.59,419.95 572.84,420.75 C 574.18,425.43 576.18,426.92 577.87,426.92 C 578.27,426.92 579.12,426.92 579.12,425.33 C 579.12,424.08 578.62,422.79 578.27,421.84 C 576.28,416.56 575.38,413.72 575.38,411.38 C 575.38,406.95 578.52,405.45 581.46,405.45 C 583.4,405.45 585.09,406.3 586.49,407.7 C 585.84,405.1 585.24,402.66 583.25,400.02 C 581.96,398.33 580.06,396.88 577.77,396.88 C 577.07,396.88 574.83,397.04 573.98,398.98 C 574.78,398.98 575.43,398.98 576.13,399.57 C 576.63,400.02 577.13,400.67 577.13,401.62 C 577.13,403.16 575.78,403.36 575.28,403.36 C 574.13,403.36 572.49,402.56 572.49,400.12 C 572.49,397.63 574.68,395.79 577.77,395.79 C 582.9,395.79 588.03,400.32 589.43,405.95 L 594.21,424.98 z " /><path
           style="fill:#000000;stroke-width:0"
           id="path2362"
           d="M 644.22,422.29 L 644.36,422.29 L 644.51,422.29 L 644.66,422.3 L 644.73,422.3 L 644.8,422.3 L 644.87,422.31 L 644.95,422.32 L 645.02,422.33 L 645.09,422.34 L 645.15,422.36 L 645.22,422.37 L 645.29,422.39 L 645.35,422.41 L 645.41,422.44 L 645.47,422.47 L 645.52,422.5 L 645.58,422.53 L 645.63,422.57 L 645.67,422.61 L 645.72,422.66 L 645.75,422.71 L 645.77,422.74 L 645.79,422.76 L 645.81,422.79 L 645.82,422.82 L 645.84,422.85 L 645.85,422.89 L 645.86,422.92 L 645.87,422.96 L 645.88,422.99 L 645.89,423.03 L 645.9,423.07 L 645.9,423.11 L 645.91,423.15 L 645.91,423.19 L 645.91,423.24 L 645.91,423.29 C 645.91,424.28 644.97,424.28 644.27,424.28 L 614.43,424.28 C 613.73,424.28 612.79,424.28 612.79,423.29 C 612.79,422.29 613.73,422.29 614.48,422.29 L 644.22,422.29 z " /><path
           style="fill:#000000;stroke-width:0"
           id="path2364"
           d="M 644.27,412.63 L 644.4,412.63 L 644.54,412.63 L 644.68,412.63 L 644.75,412.64 L 644.82,412.64 L 644.89,412.65 L 644.96,412.66 L 645.03,412.67 L 645.1,412.68 L 645.16,412.69 L 645.23,412.71 L 645.29,412.73 L 645.35,412.75 L 645.41,412.77 L 645.47,412.8 L 645.53,412.83 L 645.58,412.87 L 645.63,412.91 L 645.67,412.95 L 645.72,412.99 L 645.74,413.02 L 645.76,413.05 L 645.77,413.07 L 645.79,413.1 L 645.81,413.13 L 645.82,413.16 L 645.84,413.19 L 645.85,413.22 L 645.86,413.26 L 645.87,413.29 L 645.88,413.33 L 645.89,413.37 L 645.9,413.41 L 645.9,413.45 L 645.91,413.49 L 645.91,413.53 L 645.91,413.58 L 645.91,413.62 C 645.91,414.62 644.97,414.62 644.22,414.62 L 614.48,414.62 C 613.73,414.62 612.79,414.62 612.79,413.62 C 612.79,412.63 613.73,412.63 614.43,412.63 L 644.27,412.63 z " /><path
           style="fill:#000000;stroke-width:0"
           id="path2366"
           d="M 694.93,417.46 L 695.06,417.46 L 695.2,417.46 L 695.34,417.46 L 695.41,417.47 L 695.48,417.47 L 695.55,417.48 L 695.62,417.49 L 695.69,417.5 L 695.75,417.51 L 695.82,417.52 L 695.88,417.54 L 695.95,417.56 L 696.01,417.58 L 696.07,417.61 L 696.13,417.63 L 696.18,417.67 L 696.23,417.7 L 696.28,417.74 L 696.33,417.78 L 696.37,417.83 L 696.39,417.85 L 696.41,417.88 L 696.43,417.9 L 696.45,417.93 L 696.46,417.96 L 696.48,417.99 L 696.49,418.02 L 696.51,418.06 L 696.52,418.09 L 696.53,418.12 L 696.54,418.16 L 696.55,418.2 L 696.55,418.24 L 696.56,418.28 L 696.56,418.32 L 696.57,418.36 L 696.57,418.41 L 696.57,418.45 C 696.57,419.45 695.63,419.45 694.93,419.45 L 667.78,419.45 C 667.08,419.45 666.13,419.45 666.13,418.45 C 666.13,417.46 667.08,417.46 667.78,417.46 L 694.93,417.46 z " /><path
           style="fill:#000000;stroke-width:0"
           id="path2368"
           d="M 715.65,437.88 L 715.65,437.93 L 715.64,437.99 L 715.64,438.04 L 715.64,438.09 L 715.64,438.14 L 715.64,438.19 L 715.64,438.23 L 715.64,438.28 L 715.64,438.32 L 715.64,438.36 L 715.64,438.4 L 715.64,438.44 L 715.64,438.48 L 715.63,438.52 L 715.63,438.55 L 715.63,438.59 L 715.62,438.62 L 715.62,438.65 L 715.61,438.71 L 715.6,438.76 L 715.58,438.81 L 715.57,438.86 L 715.55,438.9 L 715.53,438.94 L 715.5,438.98 L 715.47,439.01 L 715.44,439.03 L 715.41,439.06 L 715.37,439.08 L 715.32,439.1 L 715.3,439.11 L 715.27,439.12 L 715.25,439.12 L 715.22,439.13 L 715.19,439.14 L 715.16,439.14 L 715.13,439.15 L 715.1,439.15 L 715.07,439.16 L 715.03,439.16 L 714.99,439.16 L 714.96,439.16 L 714.92,439.17 L 714.88,439.17 L 714.84,439.17 L 714.79,439.17 L 714.75,439.17 L 714.7,439.17 L 714.65,439.18 L 714.6,439.18 L 714.55,439.18 L 714.5,439.18 C 711.41,435.99 707.03,435.99 705.43,435.99 L 705.43,434.44 C 706.43,434.44 709.37,434.44 711.96,435.74 L 711.96,409.93 C 711.96,408.14 711.81,407.54 707.33,407.54 L 705.73,407.54 L 705.73,406 C 707.48,406.15 711.81,406.15 713.8,406.15 C 715.79,406.15 720.13,406.15 721.87,406 L 721.87,407.54 L 720.28,407.54 C 715.79,407.54 715.65,408.09 715.65,409.93 L 715.65,437.88 z " /></g>    </g>
    <g
       id="g2430"
       transform="matrix(0.8575267,0.5144395,-0.5144395,0.8575267,205.25638,-163.44477)">
      <g
         style="font-style:normal;font-variant:normal;font-weight:normal;font-stretch:normal;letter-spacing:normal;word-spacing:normal;text-anchor:start;fill:none;fill-opacity:1;fill-rule:evenodd;stroke:#000000;stroke-linecap:butt;stroke-linejoin:miter;stroke-miterlimit:10.43299961;stroke-dasharray:none;stroke-dashoffset:0;stroke-opacity:1"
         id="g2432"
         xml:space="preserve"
         transform="matrix(1.5557143,0,0,-1.5557143,-272.25,816.75)"><path
           style="fill:#000000;stroke-width:0"
           id="path2434"
           d="M 470.45,423.54 L 470.82,423.67 L 471.2,423.81 L 471.56,423.97 L 471.92,424.14 L 472.27,424.32 L 472.61,424.51 L 472.94,424.71 L 473.26,424.92 L 473.57,425.14 L 473.87,425.37 L 474.17,425.61 L 474.45,425.86 L 474.72,426.12 L 474.98,426.39 L 475.23,426.66 L 475.46,426.95 L 475.69,427.24 L 475.9,427.54 L 476.1,427.84 L 476.29,428.15 L 476.46,428.47 L 476.62,428.8 L 476.77,429.13 L 476.9,429.46 L 477.02,429.8 L 477.12,430.15 L 477.21,430.5 L 477.29,430.85 L 477.34,431.21 L 477.38,431.57 L 477.41,431.93 L 477.42,432.3 C 477.42,436.39 473.04,439.18 468.25,439.18 C 463.22,439.18 459.44,436.19 459.44,432.4 C 459.44,430.76 460.53,429.81 461.98,429.81 C 463.52,429.81 464.52,430.91 464.52,432.35 C 464.52,434.84 462.18,434.84 461.43,434.84 C 462.97,437.28 466.26,437.93 468.05,437.93 C 470.1,437.93 472.84,436.84 472.84,432.35 C 472.84,431.75 472.74,428.86 471.44,426.67 C 469.95,424.28 468.25,424.13 467.01,424.08 C 466.61,424.03 465.41,423.93 465.07,423.93 C 464.67,423.88 464.32,423.83 464.32,423.34 C 464.32,422.79 464.67,422.79 465.52,422.79 L 467.71,422.79 C 471.79,422.79 473.63,419.4 473.63,414.52 C 473.63,407.74 470.2,406.3 468,406.3 C 465.86,406.3 462.13,407.14 460.38,410.09 C 462.13,409.84 463.67,410.93 463.67,412.82 C 463.67,414.62 462.33,415.61 460.88,415.61 C 459.69,415.61 458.09,414.92 458.09,412.73 C 458.09,408.19 462.73,404.9 468.16,404.9 C 474.23,404.9 478.77,409.44 478.77,414.52 C 478.77,418.6 475.63,422.49 470.45,423.54 z " /><path
           style="fill:#000000;stroke-width:0"
           id="path2436"
           d="M 496.64,421.04 L 496.67,421.17 L 496.7,421.32 L 496.75,421.49 L 496.79,421.67 L 496.85,421.86 L 496.91,422.07 L 496.97,422.28 L 497.04,422.51 L 497.12,422.74 L 497.21,422.98 L 497.31,423.23 L 497.41,423.47 L 497.52,423.72 L 497.64,423.97 L 497.77,424.22 L 497.91,424.47 L 498.06,424.71 L 498.21,424.95 L 498.38,425.18 L 498.56,425.4 L 498.74,425.62 L 498.94,425.82 L 499.15,426.01 L 499.37,426.19 L 499.6,426.35 L 499.85,426.49 L 499.97,426.56 L 500.1,426.62 L 500.23,426.67 L 500.37,426.72 L 500.51,426.77 L 500.65,426.81 L 500.79,426.84 L 500.94,426.87 L 501.09,426.89 L 501.25,426.91 L 501.41,426.92 L 501.57,426.92 C 501.82,426.92 503.02,426.92 504.06,426.27 C 502.66,426.02 501.67,424.78 501.67,423.59 C 501.67,422.79 502.21,421.84 503.56,421.84 C 504.66,421.84 506.25,422.74 506.25,424.73 C 506.25,427.32 503.31,428.02 501.62,428.02 C 498.73,428.02 496.98,425.38 496.39,424.23 C 495.14,427.52 492.45,428.02 491.01,428.02 C 485.83,428.02 482.99,421.59 482.99,420.35 C 482.99,419.85 483.49,419.85 483.59,419.85 C 483.98,419.85 484.13,419.95 484.23,420.39 C 485.93,425.68 489.21,426.92 490.91,426.92 C 491.86,426.92 493.6,426.47 493.6,423.59 C 493.6,422.04 492.75,418.7 490.91,411.73 C 490.11,408.64 488.37,406.55 486.18,406.55 C 485.88,406.55 484.73,406.55 483.69,407.2 C 484.93,407.45 486.03,408.49 486.03,409.89 C 486.03,411.23 484.93,411.63 484.18,411.63 C 482.69,411.63 481.45,410.33 481.45,408.74 C 481.45,406.45 483.93,405.45 486.13,405.45 C 489.41,405.45 491.21,408.94 491.36,409.24 C 491.96,407.39 493.75,405.45 496.74,405.45 C 501.87,405.45 504.71,411.88 504.71,413.13 C 504.71,413.62 504.26,413.62 504.11,413.62 C 503.66,413.62 503.56,413.42 503.46,413.07 C 501.82,407.74 498.43,406.55 496.84,406.55 C 494.89,406.55 494.1,408.14 494.1,409.84 C 494.1,410.93 494.39,412.03 494.95,414.22 L 496.64,421.04 z " /><path
           style="fill:#000000;stroke-width:0"
           id="path2438"
           d="M 540.38,417.46 L 554.27,417.46 C 554.97,417.46 555.91,417.46 555.91,418.45 C 555.91,419.45 554.97,419.45 554.27,419.45 L 540.38,419.45 L 540.38,433.4 C 540.38,434.09 540.38,435.04 539.38,435.04 C 538.38,435.04 538.38,434.09 538.38,433.4 L 538.38,419.45 L 524.43,419.45 C 523.73,419.45 522.79,419.45 522.79,418.45 C 522.79,417.46 523.73,417.46 524.43,417.46 L 538.38,417.46 L 538.38,403.51 C 538.38,402.81 538.38,401.87 539.38,401.87 C 540.38,401.87 540.38,402.81 540.38,403.51 L 540.38,417.46 z " /><path
           style="fill:#000000;stroke-width:0"
           id="path2440"
           d="M 592.37,416.01 L 592.36,416.56 L 592.32,417.11 L 592.26,417.65 L 592.18,418.18 L 592.08,418.71 L 591.95,419.22 L 591.81,419.72 L 591.64,420.22 L 591.46,420.7 L 591.26,421.17 L 591.03,421.63 L 590.79,422.07 L 590.53,422.5 L 590.25,422.91 L 589.96,423.31 L 589.65,423.69 L 589.33,424.05 L 588.99,424.4 L 588.63,424.73 L 588.26,425.03 L 587.88,425.32 L 587.48,425.59 L 587.07,425.83 L 586.65,426.05 L 586.22,426.25 L 585.77,426.42 L 585.32,426.57 L 584.85,426.7 L 584.38,426.79 L 583.89,426.86 L 583.4,426.91 L 582.9,426.92 C 580.51,426.92 578.37,426.13 576.57,424.38 L 576.57,434.09 C 577.57,433.8 579.22,433.45 580.81,433.45 C 586.94,433.45 590.42,437.98 590.42,438.63 C 590.42,438.93 590.27,439.18 589.93,439.18 C 589.88,439.18 589.78,439.18 589.53,439.03 C 588.53,438.58 586.09,437.58 582.75,437.58 C 580.76,437.58 578.47,437.93 576.13,438.98 C 575.73,439.13 575.63,439.13 575.53,439.13 C 575.03,439.13 575.03,438.73 575.03,437.93 L 575.03,423.18 C 575.03,422.29 575.03,421.89 575.73,421.89 C 576.08,421.89 576.18,422.04 576.38,422.34 C 576.93,423.14 578.77,425.82 582.8,425.82 C 585.39,425.82 586.64,423.54 587.03,422.64 C 587.83,420.79 587.93,418.85 587.93,416.36 C 587.93,414.62 587.93,411.63 586.74,409.54 C 585.54,407.59 583.7,406.3 581.41,406.3 C 577.77,406.3 574.93,408.94 574.09,411.88 C 574.23,411.83 574.38,411.78 574.93,411.78 C 576.57,411.78 577.42,413.02 577.42,414.22 C 577.42,415.41 576.57,416.66 574.93,416.66 C 574.23,416.66 572.49,416.31 572.49,414.02 C 572.49,409.73 575.93,404.9 581.51,404.9 C 587.28,404.9 592.37,409.69 592.37,416.01 z " /><path
           style="fill:#000000;stroke-width:0"
           id="path2442"
           d="M 619.21,424.98 L 619.22,425.01 L 619.23,425.04 L 619.24,425.07 L 619.25,425.1 L 619.26,425.16 L 619.28,425.21 L 619.29,425.27 L 619.3,425.31 L 619.32,425.36 L 619.33,425.4 L 619.34,425.44 L 619.35,425.48 L 619.35,425.52 L 619.36,425.56 L 619.37,425.59 L 619.37,425.62 L 619.38,425.65 L 619.39,425.68 L 619.39,425.71 L 619.39,425.74 L 619.4,425.77 L 619.4,425.79 L 619.4,425.85 L 619.41,425.9 L 619.41,425.95 L 619.41,426 L 619.41,426.03 L 619.41,426.06 L 619.41,426.09 L 619.41,426.13 C 619.41,427.02 618.71,427.47 617.97,427.47 C 617.47,427.47 616.67,427.17 616.22,426.42 C 616.12,426.18 615.72,424.63 615.52,423.73 C 615.18,422.44 614.82,421.09 614.53,419.75 L 612.28,410.78 C 612.09,410.04 609.95,406.55 606.66,406.55 C 604.12,406.55 603.57,408.74 603.57,410.58 C 603.57,412.88 604.41,415.96 606.11,420.35 C 606.91,422.39 607.1,422.94 607.1,423.93 C 607.1,426.18 605.51,428.02 603.02,428.02 C 598.29,428.02 596.45,420.79 596.45,420.35 C 596.45,419.85 596.94,419.85 597.04,419.85 C 597.54,419.85 597.59,419.95 597.84,420.75 C 599.18,425.43 601.18,426.92 602.87,426.92 C 603.27,426.92 604.12,426.92 604.12,425.33 C 604.12,424.08 603.62,422.79 603.27,421.84 C 601.28,416.56 600.38,413.72 600.38,411.38 C 600.38,406.95 603.52,405.45 606.46,405.45 C 608.4,405.45 610.09,406.3 611.49,407.7 C 610.84,405.1 610.24,402.66 608.25,400.02 C 606.96,398.33 605.06,396.88 602.77,396.88 C 602.07,396.88 599.83,397.04 598.98,398.98 C 599.78,398.98 600.43,398.98 601.13,399.57 C 601.63,400.02 602.13,400.67 602.13,401.62 C 602.13,403.16 600.78,403.36 600.28,403.36 C 599.13,403.36 597.49,402.56 597.49,400.12 C 597.49,397.63 599.68,395.79 602.77,395.79 C 607.9,395.79 613.03,400.32 614.43,405.95 L 619.21,424.98 z " /><path
           style="fill:#000000;stroke-width:0"
           id="path2444"
           d="M 669.22,422.29 L 669.36,422.29 L 669.51,422.29 L 669.66,422.3 L 669.73,422.3 L 669.8,422.3 L 669.87,422.31 L 669.95,422.32 L 670.02,422.33 L 670.09,422.34 L 670.15,422.36 L 670.22,422.37 L 670.29,422.39 L 670.35,422.41 L 670.41,422.44 L 670.47,422.47 L 670.52,422.5 L 670.58,422.53 L 670.63,422.57 L 670.67,422.61 L 670.72,422.66 L 670.75,422.71 L 670.77,422.74 L 670.79,422.76 L 670.81,422.79 L 670.82,422.82 L 670.84,422.85 L 670.85,422.89 L 670.86,422.92 L 670.87,422.96 L 670.88,422.99 L 670.89,423.03 L 670.9,423.07 L 670.9,423.11 L 670.91,423.15 L 670.91,423.19 L 670.91,423.24 L 670.91,423.29 C 670.91,424.28 669.97,424.28 669.27,424.28 L 639.43,424.28 C 638.73,424.28 637.79,424.28 637.79,423.29 C 637.79,422.29 638.73,422.29 639.48,422.29 L 669.22,422.29 z " /><path
           style="fill:#000000;stroke-width:0"
           id="path2446"
           d="M 669.27,412.63 L 669.4,412.63 L 669.54,412.63 L 669.68,412.63 L 669.75,412.64 L 669.82,412.64 L 669.89,412.65 L 669.96,412.66 L 670.03,412.67 L 670.1,412.68 L 670.16,412.69 L 670.23,412.71 L 670.29,412.73 L 670.35,412.75 L 670.41,412.77 L 670.47,412.8 L 670.53,412.83 L 670.58,412.87 L 670.63,412.91 L 670.67,412.95 L 670.72,412.99 L 670.74,413.02 L 670.76,413.05 L 670.77,413.07 L 670.79,413.1 L 670.81,413.13 L 670.82,413.16 L 670.84,413.19 L 670.85,413.22 L 670.86,413.26 L 670.87,413.29 L 670.88,413.33 L 670.89,413.37 L 670.9,413.41 L 670.9,413.45 L 670.91,413.49 L 670.91,413.53 L 670.91,413.58 L 670.91,413.62 C 670.91,414.62 669.97,414.62 669.22,414.62 L 639.48,414.62 C 638.73,414.62 637.79,414.62 637.79,413.62 C 637.79,412.63 638.73,412.63 639.43,412.63 L 669.27,412.63 z " /><path
           style="fill:#000000;stroke-width:0"
           id="path2448"
           d="M 702.39,424.03 L 702.72,424.21 L 703.05,424.39 L 703.37,424.57 L 703.68,424.76 L 703.98,424.95 L 704.28,425.15 L 704.57,425.35 L 704.85,425.55 L 705.12,425.76 L 705.38,425.98 L 705.63,426.2 L 705.88,426.42 L 706.11,426.64 L 706.33,426.88 L 706.55,427.11 L 706.75,427.35 L 706.94,427.59 L 707.13,427.84 L 707.3,428.09 L 707.46,428.35 L 707.61,428.61 L 707.74,428.88 L 707.87,429.15 L 707.98,429.42 L 708.08,429.7 L 708.17,429.98 L 708.24,430.26 L 708.31,430.55 L 708.35,430.85 L 708.39,431.15 L 708.41,431.45 L 708.42,431.75 C 708.42,436.34 703.98,439.18 699.45,439.18 L 699.4,437.93 C 703.04,437.93 706.23,435.34 706.23,431.75 C 706.23,428.91 704.28,426.52 701.3,424.78 L 695.12,428.77 C 692.83,430.26 692.63,431.95 692.63,432.8 C 692.63,435.84 695.87,437.93 699.4,437.93 L 699.45,439.18 C 694.47,439.18 690.44,435.49 690.44,430.86 C 690.44,429.96 690.53,427.72 692.63,425.38 C 693.18,424.78 695.02,423.54 696.27,422.69 L 697.41,421.94 C 698.8,421.09 701.15,419.6 703.54,418.05 C 704.93,417.11 707.27,415.61 707.27,412.57 C 707.27,408.89 703.54,406.3 699.45,406.3 C 695.17,406.3 691.58,409.39 691.58,413.52 C 691.58,416.41 693.18,419.6 697.41,421.94 L 697.41,421.94 L 696.27,422.69 C 693.38,421.24 689.09,418.45 689.09,413.52 C 689.09,408.24 694.17,404.9 699.4,404.9 C 705.03,404.9 709.77,409.04 709.77,414.37 C 709.77,416.16 709.22,418.4 707.32,420.5 C 706.38,421.54 705.58,422.04 702.39,424.03 z " /></g>    </g>
    <g
       id="g2530"
       transform="translate(-240.00001,100)">
      <g
         id="g2532"
         transform="matrix(1.5557143,0,0,-1.5557143,-272.25,816.75)"
         style="font-style:normal;font-variant:normal;font-weight:normal;font-stretch:normal;letter-spacing:normal;word-spacing:normal;text-anchor:start;fill:none;fill-opacity:1;fill-rule:evenodd;stroke:#000000;stroke-linecap:butt;stroke-linejoin:miter;stroke-miterlimit:10.43299961;stroke-dasharray:none;stroke-dashoffset:0;stroke-opacity:1"
         xml:space="preserve"><path
           id="path2534"
           d="M 472.49,394.04 L 472.49,394.07 L 472.49,394.1 L 472.48,394.11 L 472.48,394.13 L 472.48,394.14 L 472.47,394.16 L 472.47,394.18 L 472.46,394.19 L 472.45,394.21 L 472.44,394.23 L 472.43,394.26 L 472.42,394.28 L 472.4,394.3 L 472.38,394.33 L 472.36,394.36 L 472.34,394.39 L 472.31,394.42 L 472.28,394.46 L 472.27,394.48 L 472.25,394.5 L 472.23,394.52 L 472.21,394.54 L 472.19,394.56 L 472.17,394.59 L 472.15,394.61 L 472.13,394.63 L 472.11,394.66 L 472.08,394.68 L 472.06,394.71 L 472.03,394.74 L 472.01,394.77 L 471.98,394.8 L 471.95,394.83 L 471.92,394.86 L 471.89,394.89 L 471.86,394.92 L 471.82,394.96 L 471.79,394.99 L 471.75,395.03 L 471.72,395.06 L 471.68,395.1 L 471.64,395.14 C 465.41,401.42 463.82,410.83 463.82,418.45 C 463.82,427.12 465.71,435.79 471.84,442.02 C 472.49,442.61 472.49,442.71 472.49,442.86 C 472.49,443.21 472.29,443.36 471.99,443.36 C 471.49,443.36 467.01,439.97 464.07,433.64 C 461.53,428.17 460.93,422.64 460.93,418.45 C 460.93,414.57 461.48,408.54 464.22,402.91 C 467.21,396.79 471.49,393.55 471.99,393.55 C 472.29,393.55 472.49,393.7 472.49,394.04 z "
           style="fill:#000000;stroke-width:0" /><path
           id="path2536"
           d="M 489.64,437.88 L 489.64,437.93 L 489.64,437.99 L 489.64,438.04 L 489.64,438.09 L 489.64,438.14 L 489.64,438.19 L 489.64,438.23 L 489.64,438.28 L 489.64,438.32 L 489.64,438.36 L 489.64,438.4 L 489.64,438.44 L 489.64,438.48 L 489.63,438.52 L 489.63,438.55 L 489.63,438.59 L 489.62,438.62 L 489.62,438.65 L 489.61,438.71 L 489.6,438.76 L 489.58,438.81 L 489.57,438.86 L 489.55,438.9 L 489.53,438.94 L 489.5,438.98 L 489.47,439.01 L 489.44,439.03 L 489.41,439.06 L 489.37,439.08 L 489.32,439.1 L 489.3,439.11 L 489.27,439.12 L 489.25,439.12 L 489.22,439.13 L 489.19,439.14 L 489.16,439.14 L 489.13,439.15 L 489.1,439.15 L 489.07,439.16 L 489.03,439.16 L 488.99,439.16 L 488.96,439.16 L 488.92,439.17 L 488.88,439.17 L 488.84,439.17 L 488.79,439.17 L 488.75,439.17 L 488.7,439.17 L 488.65,439.18 L 488.6,439.18 L 488.55,439.18 L 488.5,439.18 C 485.41,435.99 481.03,435.99 479.43,435.99 L 479.43,434.44 C 480.43,434.44 483.37,434.44 485.96,435.74 L 485.96,409.93 C 485.96,408.14 485.81,407.54 481.33,407.54 L 479.73,407.54 L 479.73,406 C 481.48,406.15 485.81,406.15 487.8,406.15 C 489.79,406.15 494.13,406.15 495.87,406 L 495.87,407.54 L 494.28,407.54 C 489.79,407.54 489.64,408.09 489.64,409.93 L 489.64,437.88 z "
           style="fill:#000000;stroke-width:0" /><path
           id="path2538"
           d="M 510.11,406.05 L 510.11,406.36 L 510.1,406.65 L 510.08,406.94 L 510.06,407.22 L 510.02,407.49 L 509.99,407.75 L 509.94,408.01 L 509.89,408.25 L 509.83,408.49 L 509.76,408.72 L 509.69,408.94 L 509.62,409.15 L 509.53,409.35 L 509.44,409.54 L 509.35,409.72 L 509.25,409.9 L 509.14,410.06 L 509.03,410.21 L 508.91,410.36 L 508.79,410.49 L 508.66,410.62 L 508.53,410.73 L 508.39,410.83 L 508.24,410.93 L 508.09,411.01 L 507.94,411.08 L 507.78,411.14 L 507.62,411.19 L 507.45,411.23 L 507.28,411.26 L 507.11,411.28 L 506.93,411.28 C 505.28,411.28 504.29,410.04 504.29,408.64 C 504.29,407.3 505.28,406 506.93,406 C 507.52,406 508.17,406.2 508.67,406.65 C 508.82,406.75 508.87,406.8 508.92,406.8 C 508.96,406.8 509.02,406.75 509.02,406.05 C 509.02,402.36 507.27,399.38 505.63,397.73 C 505.08,397.18 505.08,397.08 505.08,396.93 C 505.08,396.59 505.33,396.39 505.58,396.39 C 506.13,396.39 510.11,400.22 510.11,406.05 z "
           style="fill:#000000;stroke-width:0" /><path
           id="path2540"
           d="M 536.65,437.88 L 536.65,437.93 L 536.64,437.99 L 536.64,438.04 L 536.64,438.09 L 536.64,438.14 L 536.64,438.19 L 536.64,438.23 L 536.64,438.28 L 536.64,438.32 L 536.64,438.36 L 536.64,438.4 L 536.64,438.44 L 536.64,438.48 L 536.63,438.52 L 536.63,438.55 L 536.63,438.59 L 536.62,438.62 L 536.62,438.65 L 536.61,438.71 L 536.6,438.76 L 536.58,438.81 L 536.57,438.86 L 536.55,438.9 L 536.53,438.94 L 536.5,438.98 L 536.47,439.01 L 536.44,439.03 L 536.41,439.06 L 536.37,439.08 L 536.32,439.1 L 536.3,439.11 L 536.27,439.12 L 536.25,439.12 L 536.22,439.13 L 536.19,439.14 L 536.16,439.14 L 536.13,439.15 L 536.1,439.15 L 536.07,439.16 L 536.03,439.16 L 535.99,439.16 L 535.96,439.16 L 535.92,439.17 L 535.88,439.17 L 535.84,439.17 L 535.79,439.17 L 535.75,439.17 L 535.7,439.17 L 535.65,439.18 L 535.6,439.18 L 535.55,439.18 L 535.5,439.18 C 532.41,435.99 528.03,435.99 526.43,435.99 L 526.43,434.44 C 527.43,434.44 530.37,434.44 532.96,435.74 L 532.96,409.93 C 532.96,408.14 532.81,407.54 528.33,407.54 L 526.73,407.54 L 526.73,406 C 528.48,406.15 532.81,406.15 534.8,406.15 C 536.79,406.15 541.13,406.15 542.87,406 L 542.87,407.54 L 541.28,407.54 C 536.79,407.54 536.65,408.09 536.65,409.93 L 536.65,437.88 z "
           style="fill:#000000;stroke-width:0" /><path
           id="path2542"
           d="M 561.4,418.45 L 561.39,418.82 L 561.39,419.21 L 561.38,419.6 L 561.37,420.01 L 561.33,420.85 L 561.27,421.73 L 561.18,422.65 L 561.08,423.59 L 560.94,424.57 L 560.78,425.57 L 560.58,426.59 L 560.35,427.63 L 560.08,428.68 L 559.78,429.74 L 559.43,430.8 L 559.04,431.87 L 558.82,432.4 L 558.6,432.94 L 558.36,433.47 L 558.11,434 C 555.12,440.12 550.84,443.36 550.34,443.36 C 550.04,443.36 549.84,443.16 549.84,442.86 C 549.84,442.71 549.84,442.61 550.78,441.71 C 555.67,436.79 558.51,428.86 558.51,418.45 C 558.51,409.93 556.66,401.17 550.49,394.89 C 549.84,394.29 549.84,394.2 549.84,394.04 C 549.84,393.75 550.04,393.55 550.34,393.55 C 550.84,393.55 555.32,396.93 558.26,403.26 C 560.8,408.74 561.4,414.27 561.4,418.45 z "
           style="fill:#000000;stroke-width:0" /></g>    </g>
  </g>
</svg>
