<svg version="1.1" xmlns="http://www.w3.org/2000/svg" viewBox="0 0 441.3533417051433 446.2952172007149" width="441.3533417051433" height="446.2952172007149">
  <!-- svg-source:excalidraw -->
  
  <defs>
    <style>
      @font-face {
        font-family: "Virgil";
        src: url("https://excalidraw.com/Virgil.woff2");
      }
      @font-face {
        font-family: "Cascadia";
        src: url("https://excalidraw.com/Cascadia.woff2");
      }
    </style>
  </defs>
  <rect x="0" y="0" width="441.3533417051433" height="446.2952172007149" fill="#ffffff"></rect><g stroke-linecap="round"><g transform="translate(11.986762947007946 114.85161793469388) rotate(0 129.9027511493415 20.16550512180777)"><path d="M1.92 -0.77 C13.36 10.24, 27.95 30.92, 37.19 37.03 M1.9 -1.97 C11.33 9.28, 24.7 23.29, 39.8 39.23 M37.98 40.88 C111.03 40.91, 182.41 39.84, 259.15 42.3 M39.52 38.86 C104.25 41.03, 166.68 40.82, 261 38.72 M257.93 37.33 C251.89 31.22, 235.59 18.88, 222.24 1.74 M261.79 38.44 C246.15 25.12, 232.21 11.09, 219.81 1.2 M222.91 2.07 C156.78 -3.15, 89.29 -3.31, -1.99 2.59 M220.96 0.22 C136.5 2.44, 52.41 0.42, -1.63 0.19" stroke="#000000" stroke-width="1" fill="none"></path></g></g><g stroke-linecap="round"><g transform="translate(13.029579795899053 117.11002946424594) rotate(0 20.86429153068434 158.52951969276882)"><path d="M-0.41 -2.09 C2.24 87.63, -0.26 180.64, 1 276.18 M0.71 0.91 C2.44 97.05, 0.47 191.68, -2.01 278.01 M-1.11 277.01 C4.94 289.73, 19.49 298.24, 38.67 318.36 M0.52 278.3 C10.47 289.78, 21.81 299.82, 40.82 316.3 M41.82 319.15 C43.92 240.82, 45.41 161.4, 40.05 38.09 M40.36 317.33 C41.27 248.85, 39.79 181.19, 39.61 40.85" stroke="#000000" stroke-width="1" fill="none"></path></g></g><g stroke-linecap="round"><g transform="translate(271.98676294700795 154.85161793469388) rotate(0 -109.56442654671628 140.50350624599736)"><path d="M-0.69 -0.44 C-2.85 96.35, 0.37 189.61, -1.31 281.04 M1.06 1.04 C4.21 109.9, 3.56 223.7, 0.28 281.44 M-0.17 281.15 C-71.96 276.84, -143.79 281.98, -222.24 280.05 M-0.94 278.8 C-58.15 279.12, -114.59 278.01, -218.32 281.29" stroke="#000000" stroke-width="1" fill="none"></path></g></g><g stroke-linecap="round" transform="translate(91.98676294700795 194.85161793469388) rotate(0 20 20)"><path d="M0.53 -3.33 C11.92 -3.24, 25.45 0.96, 37.82 -2.33 M-0.15 1.53 C7.04 0.62, 17.19 0.98, 39.53 -1.23 M40.18 -3.54 C36.07 17.24, 41.51 33.83, 42.03 43.96 M39.17 1.38 C39.1 10.33, 38.89 23.54, 40.39 38.71 M43.87 36.04 C33.93 39.67, 21.49 37.25, -1.41 43.98 M41.65 40.71 C29.88 40.01, 17.93 39.6, -1.89 38.52 M1.33 37.5 C-1.68 25.82, 0.11 5.75, 2.81 -3.07 M1.59 38.4 C1 27.43, -1.12 13.62, 0.46 0.74" stroke="#000000" stroke-width="1" fill="none"></path></g><g stroke-linecap="round" transform="translate(211.98676294700795 194.85161793469388) rotate(0 20 20)"><path d="M-3.33 -1.42 C9.42 -1.32, 26.99 -2.29, 37.67 -3.6 M1.53 -1.36 C11 0.46, 22.16 -0.41, 38.77 1.98 M36.46 -3.47 C41.64 11.67, 42.27 21.45, 43.96 39.17 M41.38 -0.15 C39.03 7.9, 41.08 16.91, 38.71 38.01 M36.04 41.94 C25.14 38.29, 8.27 39.36, 3.98 38.95 M40.71 40.83 C28.27 40.5, 16.28 38.77, -1.48 41.75 M-2.5 37.9 C1.65 29.78, -2.93 22.97, -3.07 2.01 M-1.6 40.31 C1.17 29.63, 1.37 23.35, 0.74 1.58" stroke="#000000" stroke-width="1" fill="none"></path></g><g stroke-linecap="round" transform="translate(91.98676294700795 274.8516179346939) rotate(0 20 20)"><path d="M-0.31 3.05 C5.69 0.83, 17.59 1.55, 39.06 -2.47 M0.09 -1.77 C14.21 0.3, 32.89 0.61, 41.02 1.98 M38.33 2.76 C38.95 9.49, 38.53 24.75, 40.78 37.43 M41.93 -1.98 C41.46 7.82, 39.25 14.62, 39.3 41.99 M43.31 41.42 C30.72 39.86, 17.77 39.03, -3.78 37.05 M40.66 38.75 C23.46 40.31, 8.87 38.03, 1.41 38.46 M3.18 36.8 C1.32 28.87, -2.93 15.27, 0.93 1.49 M1.96 40.24 C0.17 26.68, 0.13 9.47, -1.25 -0.15" stroke="#000000" stroke-width="1" fill="none"></path></g><g stroke-linecap="round" transform="translate(211.98676294700795 274.8516179346939) rotate(0 20 20)"><path d="M3.05 -2.71 C11.21 0.85, 22.73 -0.88, 37.53 3.95 M-1.77 -1.74 C10.35 0.95, 20.38 0.98, 41.98 -0.42 M42.76 -0.3 C38.2 7.54, 42.28 17.3, 37.43 36.02 M38.02 0.97 C39.87 13.22, 38.66 28.21, 41.99 39.48 M41.42 41.67 C28.13 40.33, 15.72 36.88, -2.95 43.49 M38.75 38.95 C30.73 40.11, 18.52 41.67, -1.54 41 M-3.2 40.63 C2.61 27.82, 3.02 23.82, 1.49 3.17 M0.24 40.85 C2.3 25.42, 0.25 7.98, -0.15 -0.64" stroke="#000000" stroke-width="1" fill="none"></path></g><g stroke-linecap="round" transform="translate(91.98676294700795 354.8516179346939) rotate(0 20 20)"><path d="M3.71 2.74 C17.11 -1.81, 27.47 0.82, 41.33 1.36 M-0.71 -1.97 C7.9 0.8, 15.92 -0.5, 38.2 -0.6 M37.29 0.41 C40.73 11.05, 38.99 17.36, 43.95 37.71 M38.26 0.64 C41.02 14.7, 41.05 29.46, 39.58 38.13 M39.7 38.32 C27.92 42.96, 18.06 37.98, -3.98 42.46 M40.97 39.8 C26.4 37.8, 14.59 41.2, -0.52 39.79 M1.67 39.7 C-0.99 26.06, -4.44 11.43, 3.49 -2.08 M-1.05 40.65 C-0.42 28.06, 1.14 17.86, 1 -1.72" stroke="#000000" stroke-width="1" fill="none"></path></g><g stroke-linecap="round" transform="translate(211.98676294700795 354.8516179346939) rotate(0 20 20)"><path d="M1.13 -1.28 C14.22 4.07, 32.88 -2.69, 36.79 -1.25 M-0.12 0.94 C9.96 -1.24, 23.56 -0.59, 39.36 1.61 M43.25 -3.84 C38.53 12.21, 42.26 18.85, 37.99 36.97 M38.25 0.26 C38.6 11.91, 38.3 24.63, 40.13 38.91 M37.92 39.69 C33.39 37.05, 21.08 40.55, 1.13 39.06 M40.87 40.09 C28.7 37.8, 21.58 40.52, 0.96 41.02 M-0.64 38.33 C2.93 23.74, -1.51 7.36, 2.41 0.78 M0.18 41.93 C-1.18 31.54, 0.6 19.9, -1.41 -0.7" stroke="#000000" stroke-width="1" fill="none"></path></g><g stroke-linecap="round" transform="translate(251.98676294700795 114.85161793469388) rotate(0 10 10)"><path d="M17.29 2.99 C19.23 3.89, 20.79 3.61, 21.4 5.72 C22 7.83, 22.23 13.76, 20.91 15.66 C19.59 17.57, 15.79 16.51, 13.49 17.14 C11.19 17.78, 9.24 19.78, 7.1 19.49 C4.96 19.2, 2.13 17.25, 0.65 15.4 C-0.83 13.55, -1.92 10.75, -1.78 8.4 C-1.65 6.05, -0.32 3.02, 1.47 1.31 C3.26 -0.4, 6.12 -2.64, 8.96 -1.88 C11.8 -1.12, 16.86 3.05, 18.52 5.86 C20.17 8.67, 18.88 14.43, 18.87 14.99 M15.7 5.74 C16.77 7.86, 19.56 11.91, 20.21 13.77 C20.87 15.63, 21.69 16.28, 19.64 16.89 C17.58 17.5, 10.15 17.54, 7.9 17.45 C5.65 17.36, 7.41 17.57, 6.15 16.33 C4.9 15.1, 1.08 11.46, 0.36 10.04 C-0.37 8.62, 1.32 9.01, 1.82 7.83 C2.31 6.65, 1.74 4.14, 3.32 2.96 C4.91 1.77, 9.21 0.89, 11.32 0.74 C13.42 0.59, 15.03 1.8, 15.94 2.06 C16.85 2.31, 16.04 2.08, 16.77 2.26" stroke="none" stroke-width="0" fill="#fab005"></path><path d="M2.43 3.26 C3.35 1.8, 5.96 -0.82, 8.35 -1.04 C10.74 -1.26, 15.14 0.22, 16.77 1.94 C18.4 3.66, 18.05 6.99, 18.14 9.28 C18.23 11.57, 18.33 13.88, 17.32 15.66 C16.3 17.43, 13.53 19.55, 12.07 19.93 C10.61 20.3, 10.25 18.45, 8.54 17.92 C6.84 17.4, 3.57 18.05, 1.86 16.78 C0.15 15.51, -2.15 12.64, -1.72 10.3 C-1.29 7.96, 3.08 3.92, 4.44 2.76 C5.8 1.61, 6.58 3.03, 6.42 3.36 M12.43 -0.22 C13.94 -0.6, 14.34 1.07, 15.44 2.95 C16.54 4.83, 19 8.5, 19.02 11.05 C19.04 13.59, 16.7 16.31, 15.57 18.24 C14.45 20.17, 13.93 22.63, 12.27 22.62 C10.61 22.61, 7.63 19.76, 5.6 18.19 C3.57 16.62, 1.06 14.81, 0.08 13.18 C-0.89 11.56, -0.75 10.33, -0.26 8.42 C0.23 6.52, 0.7 2.98, 3.05 1.76 C5.39 0.54, 12 1.09, 13.82 1.11 C15.65 1.13, 14.68 1.85, 13.99 1.88" stroke="#000000" stroke-width="1" fill="none"></path></g><g stroke-linecap="round"><g transform="translate(271.98676294700795 154.85161793469388) rotate(0 79.17843310250896 18.326900340221215)"><path d="M0.29 0.94 C13.44 -22.1, 52.39 -169, 78.9 -139.14 C105.41 -109.28, 146.01 127.1, 159.37 180.12 M-1.01 0.39 C12.49 -22.91, 54.49 -171, 81.04 -140.81 C107.58 -110.62, 145.31 128.1, 158.27 181.51" stroke="#000000" stroke-width="1" fill="none"></path></g><g transform="translate(271.98676294700795 154.85161793469388) rotate(0 79.17843310250896 18.326900340221215)"><path d="M144.27 154.02 C148.67 162.54, 152.16 169.75, 156.62 180.55 M142.41 156.32 C145.95 161.63, 150.27 167.11, 158.31 180.56" stroke="#000000" stroke-width="1" fill="none"></path></g><g transform="translate(271.98676294700795 154.85161793469388) rotate(0 79.17843310250896 18.326900340221215)"><path d="M164.4 150.02 C162.67 159.8, 160.05 168.22, 156.62 180.55 M162.54 152.32 C161.68 158.38, 161.56 164.74, 158.31 180.56" stroke="#000000" stroke-width="1" fill="none"></path></g></g><g transform="translate(201.674989420859 74.8514466630329) rotate(0 47.5 18)"><text x="0" y="25" font-family="Virgil, Segoe UI Emoji" font-size="28px" fill="#000000" text-anchor="start" style="white-space: pre;" direction="ltr">pumpkin</text></g></svg>