<svg xmlns="http://www.w3.org/2000/svg" xmlns:xlink="http://www.w3.org/1999/xlink" viewBox="0 0 126.96 152.26"><defs><style>.cls-1,.cls-12,.cls-14,.cls-16,.cls-18,.cls-20,.cls-3,.cls-7,.cls-8,.cls-9{fill:none;}.cls-2{fill:#d0d1d3;}.cls-3{stroke:#a7a9ac;}.cls-12,.cls-14,.cls-16,.cls-18,.cls-20,.cls-3,.cls-7,.cls-8,.cls-9{stroke-miterlimit:3.86;}.cls-20,.cls-3,.cls-7{stroke-width:0.5px;}.cls-4{clip-path:url(#clip-path);}.cls-5{fill:#b1cac7;}.cls-6{fill:#e2c8ae;}.cls-16,.cls-18,.cls-7{stroke:#231f20;}.cls-8{stroke:#fff;stroke-width:0.75px;}.cls-9{stroke:#00aeef;}.cls-10{fill:#fff;}.cls-11{fill:#00aeef;}.cls-12,.cls-20{stroke:#ffcf01;}.cls-13{fill:#ffcf01;}.cls-14{stroke:#ed1846;}.cls-15{fill:#ed1846;}.cls-17,.cls-19{fill:#231f20;}.cls-18{stroke-width:0.3px;}.cls-19{font-size:8px;font-family:Roboto-Regular, Roboto;}.cls-20{stroke-dasharray:4 2;}</style><clipPath id="clip-path" transform="translate(0)"><rect class="cls-1" y="0.2" width="126.96" height="152.06"/></clipPath></defs><g id="Layer_2" data-name="Layer 2"><g id="Layer_1-2" data-name="Layer 1"><path class="cls-2" d="M47.89,20.76c1.62-.92,4.32,1,6,4.08,2,3,2.12,6.3.48,7.2l-33.6,19.2c-1.76,1.2-4.56-.5-6.24-3.6-1.92-3.1-2.12-6.4-.24-7.68" transform="translate(0)"/><path class="cls-3" d="M21.73,50.76c1.38-.72,1.58-4.12-.48-7.2-1.64-3-4.64-4.82-6-4.08m7.68,10.8c1.58-1,1.78-4.44-.24-7.44C21,39.74,18,37.94,16.45,39m7.92,10.32c1.44-.88,1.54-4.08-.24-7.44-1.82-2.94-4.72-4.64-6.48-3.84M25.57,48.6c1.54-.86,1.64-4.16-.24-7.2s-4.82-4.86-6.24-4.08m7.68,10.56c1.64-.94,1.84-4.34-.24-7.44-1.62-3-4.62-4.8-6.24-3.84m7.92,10.56c1.4-.82,1.7-4.22-.24-7.44-1.86-3-4.86-4.68-6.24-3.84m7.68,10.56c1.6-.9,1.7-4.3-.24-7.44-1.76-3.06-4.66-4.76-6.24-3.84m7.68,10.56c1.8-1,1.8-4.38,0-7.44s-4.7-4.84-6.48-3.84m7.92,10.32c1.46-.72,1.76-4.12-.24-7.2-1.8-3.12-4.8-4.82-6.24-4.08M33.49,44c1.52-.9,1.42-4.1-.48-7.2-1.6-3.1-4.5-5-6-4.08m7.68,10.56c1.62-1,1.62-4.18-.24-7.44-1.64-2.94-4.54-4.74-6.24-3.84M36.13,42.6c1.48-.86,1.48-4.16-.24-7.44-1.88-3-4.78-4.72-6.48-3.84m7.92,10.56c1.68-.94,1.58-4.24-.24-7.44-1.78-3-4.58-4.8-6.48-3.84m7.92,10.32c1.58-.78,1.58-3.88,0-7.2-1.92-3.08-4.72-4.58-6.48-3.84M40,40.44c1.44-1.1,1.44-4.2-.24-7.44-1.92-3.06-4.72-4.86-6.48-3.84M52.93,33c1.58-1.16,1.38-4.26-.24-7.68-1.88-2.88-4.68-4.58-6.48-3.6m5.28,12c1.62-1,1.52-4.18-.48-7.2-1.8-3.08-4.5-5.08-6-4.08m4.8,12.24c1.7-1.14,1.7-4.24-.24-7.44-1.66-3.1-4.56-4.9-6.24-3.84m5.28,12c1.5-1,1.4-4.16-.48-7.2-1.62-3.16-4.52-5.06-6-4.08m4.8,12c1.68-.78,1.58-4-.24-7.2S42.11,24,40.45,25.08m5.28,12c1.48-1,1.38-4.14-.48-7.2-1.74-3.24-4.44-5-6.24-4.08M43.81,38c1.8-1.1,1.8-4.3,0-7.44s-4.6-4.86-6.24-3.84m5,12c1.7-.92,1.6-4.12-.48-7.2-1.62-3.22-4.32-5-6-4.08m4.8,12.24c1.88-1,1.88-4.38,0-7.44-1.72-3.14-4.62-4.74-6.24-3.84m13.2-7.68c1.62-.92,4.32,1,6,4.08,2,3,2.12,6.3.48,7.2l-33.6,19.2c-1.76,1.2-4.56-.5-6.24-3.6-1.92-3.1-2.12-6.4-.24-7.68Z" transform="translate(0)"/><g class="cls-4"><path class="cls-5" d="M8.77,36.84c3.44-2.1,9.34.8,12.72,6.72,3.32,6.08,3.22,12.48-.24,14.64l-.72.24-4.8,2.88c-3.92,2-9.82-.88-13-7C-.89,48.44-.49,42,3.49,39.72l4.8-2.64" transform="translate(0)"/><path class="cls-3" d="M13.57,60.12c-3.22,1.89-8.11-.67-11-5.76C-.29,49.48-.07,44,3,42.12c3.23-1.8,8.12.76,11,5.76S16.66,58.37,13.57,60.12ZM8.77,36.84c3.44-2.1,9.34.8,12.72,6.72,3.32,6.08,3.22,12.48-.24,14.64l-.72.24-4.8,2.88c-3.92,2-9.82-.88-13-7C-.89,48.44-.49,42,3.49,39.72l4.8-2.64Z" transform="translate(0)"/></g><path class="cls-5" d="M9,36.84c2.5-1.5,5.8-.7,8.64,1.68v.24l-4.08,2.16h-.24c-4.22,1.22-6.22.52-9.12-1-.4,0,.3.08,0-.24L4,39.48l4.08-2.16" transform="translate(0)"/><path class="cls-3" d="M9,36.84c2.5-1.5,5.8-.7,8.64,1.68v.24l-4.08,2.16h-.24c-4.22,1.22-6.22.52-9.12-1-.4,0,.3.08,0-.24L4,39.48l4.08-2.16Z" transform="translate(0)"/><path class="cls-5" d="M23.65,49.8c.76,3.84-.14,7-2.4,8.4l-1.2.72L16,61.32h-.24c-.42-.18-.22-.48,0-.72,0-4.56,0-4.76,3.6-8.4l.24-.24" transform="translate(0)"/><path class="cls-3" d="M23.65,49.8c.76,3.84-.14,7-2.4,8.4l-1.2.72L16,61.32h-.24c-.42-.18-.22-.48,0-.72,0-4.56,0-4.76,3.6-8.4l.24-.24Z" transform="translate(0)"/><path class="cls-5" d="M17.17,38.52a15.7,15.7,0,0,1,4.32,5,15,15,0,0,1,2.16,6.24l-5.28,2.88,1.2-.72-.24.24a12,12,0,0,1-5-4.56c-1.28-2-2.28-4.2-2.16-6l1-.72,4.32-2.16" transform="translate(0)"/><path class="cls-3" d="M7.57,60.12c1.6.64,2.37,1.4,4.08,1.68a6.7,6.7,0,0,0,4.8-1m.72-22.32a15.7,15.7,0,0,1,4.32,5,15,15,0,0,1,2.16,6.24l-5.28,2.88,1.2-.72-.24.24a12,12,0,0,1-5-4.56c-1.28-2-2.28-4.2-2.16-6l1-.72,4.32-2.16Z" transform="translate(0)"/><path class="cls-6" d="M110.53,111.24c1.38-.6,2.28-2.5,2.4-4.8a15,15,0,0,0-6.72-11.76.93.93,0,0,1-.48-.48l-71-36.72c-1.58-.44-6.08-6.84-8.88-10.56A29.64,29.64,0,0,0,15.73,36.6C11.21,33.34,7.61,32,4.93,32.76L8.77,30.6c2.54-.76,6.54.14,11,3.36,6.6,4.28,8.3,8.88,9.6,11,2.8,3.54,7.3,9.94,8.88,10.32l71,36.72c.18.4.38.5.48.48a15.2,15.2,0,0,1,6.72,11.76c-.12,2.36-1.12,4-2.64,4.56" transform="translate(0)"/><g class="cls-4"><path class="cls-3" d="M110.53,111.24c1.38-.6,2.28-2.5,2.4-4.8a15,15,0,0,0-6.72-11.76.93.93,0,0,1-.48-.48l-71-36.72c-1.58-.44-6.08-6.84-8.88-10.56A29.64,29.64,0,0,0,15.73,36.6C11.21,33.34,7.61,32,4.93,32.76L8.77,30.6c2.54-.76,6.54.14,11,3.36,6.6,4.28,8.3,8.88,9.6,11,2.8,3.54,7.3,9.94,8.88,10.32l71,36.72c.18.4.38.5.48.48a15.2,15.2,0,0,1,6.72,11.76c-.12,2.36-1.12,4-2.64,4.56Z" transform="translate(0)"/><line class="cls-7" x1="115.33" y1="109.8" x2="126.85" y2="115.32"/></g><path class="cls-6" d="M10.69,62c7.12,6.4,10.22,6.5,12.24,6.24a8.51,8.51,0,0,0,4.8-2.88c2.38-1.66,4.08,1,7.44,2.16l69.6,42,.24.24c.4.14.6.44,1,.72,3.64,2,6.84.42,7-4.08a14.82,14.82,0,0,0-6.72-11.52,1.49,1.49,0,0,1-.48-.48l-71-36.72c-1.58-.48-6.08-6.88-8.88-10.56a31.22,31.22,0,0,0-10.08-11C7.31,30,2.51,32.94,1.81,37.56c-.3,3,.5,1.88.48,1.92l10.8,1.44L19.33,52.2l-1,7a5.26,5.26,0,0,1-2.88,2.4,15.19,15.19,0,0,1-4.8.48" transform="translate(0)"/><path class="cls-3" d="M10.69,62c7.12,6.4,10.22,6.5,12.24,6.24a8.51,8.51,0,0,0,4.8-2.88c2.38-1.66,4.08,1,7.44,2.16l69.6,42,.24.24c.4.14.6.44,1,.72,3.64,2,6.84.42,7-4.08a14.82,14.82,0,0,0-6.72-11.52,1.49,1.49,0,0,1-.48-.48l-71-36.72c-1.58-.48-6.08-6.88-8.88-10.56a31.22,31.22,0,0,0-10.08-11C7.31,30,2.51,32.94,1.81,37.56c-.3,3,.5,1.88.48,1.92l10.8,1.44L19.33,52.2l-1,7a5.26,5.26,0,0,1-2.88,2.4A15.19,15.19,0,0,1,10.69,62Z" transform="translate(0)"/><line class="cls-8" x1="8.53" y1="51" x2="102.38" y2="102.36"/><line class="cls-9" x1="8.53" y1="51" x2="102.38" y2="102.36"/><polyline class="cls-10" points="99.75 103.55 104.77 103.68 101.95 99.52 102.4 102.38"/><polyline class="cls-11" points="99.42 103.6 105.01 103.8 101.82 99.21 102.38 102.36"/><path class="cls-7" d="M105.73,104.28l6.48,3.6m-14.16-7.44-3.6,6.48,6.72,3.6" transform="translate(0)"/><path class="cls-8" d="M105,104V148.8M105,104,87,138.58" transform="translate(0)"/><line class="cls-12" x1="105.01" y1="104.04" x2="86.96" y2="138.58"/><polyline class="cls-13" points="85.67 135.66 85.57 141.25 90.1 137.97 86.96 138.59"/><line class="cls-8" x1="8.53" y1="51" x2="67.61" y2="16.75"/><line class="cls-14" x1="8.53" y1="51" x2="67.61" y2="16.75"/><polyline class="cls-15" points="67.14 19.91 70.21 15.24 64.63 15.59 67.61 16.75"/><line class="cls-9" x1="105.01" y1="104.04" x2="105.01" y2="148.8"/><polyline class="cls-11" points="102.51 146.8 105.01 151.8 107.51 146.8 105.01 148.8"/><line class="cls-16" x1="74.05" y1="12.84" x2="82.25" y2="8.1"/><polyline class="cls-17" points="81.77 11.27 84.85 6.6 79.27 6.94 82.25 8.11"/><line class="cls-18" x1="53.41" y1="7.08" x2="61.81" y2="17.4"/><text class="cls-19" transform="translate(73.57 6.84)">n</text><text class="cls-19" transform="translate(53.89 87.72)">r</text><text class="cls-19" transform="translate(108.37 139.32)">F</text><path class="cls-17" d="M105.52,121.51a8,8,0,0,1,2.27,3.21l.08-.16-1.11-2.41,2.61-.47.08-.16a8,8,0,0,1-3.93,0" transform="translate(0)"/><path class="cls-17" d="M119.06,112.15a8,8,0,0,1-1.41,3.68l.18,0,1.38-2.27,1.84,1.91.18,0a8.1,8.1,0,0,1-2.17-3.28" transform="translate(0)"/><line class="cls-18" x1="75.97" y1="122.28" x2="90.13" y2="128.04"/><polyline class="cls-7" points="92.05 144.36 95.89 138.12 89.41 134.28"/><line class="cls-20" x1="85.57" y1="141.24" x2="105.25" y2="152.04"/><text class="cls-19" transform="translate(28.19 7.32)">Torque</text><path class="cls-7" d="M119.21,113.5a8.36,8.36,0,0,1-12.54,8.59" transform="translate(0)"/><text class="cls-19" transform="translate(7.57 112.33)">Component of </text><text class="cls-19" transform="translate(60.8 112.33)">F</text><text class="cls-19" transform="translate(5.95 121.93)">perpendicular to </text><text class="cls-19" transform="translate(67.01 121.93)">r</text><text class="cls-19" transform="translate(70.56 121.93)">.</text><text class="cls-19" transform="translate(3.97 131.74)">Its length is </text><text class="cls-19" transform="translate(47.19 131.74)">|F|=sinθ</text><text class="cls-19" transform="translate(116.65 129.58) scale(1 1.02)">θ</text></g></g></svg>