<svg xmlns="http://www.w3.org/2000/svg" xmlns:xlink="http://www.w3.org/1999/xlink" viewBox="0 0 153.99 109.23"><defs><style>.cls-1,.cls-4,.cls-5{fill:none;}.cls-2,.cls-6,.cls-8{fill:#231f20;}.cls-3{clip-path:url(#clip-path);}.cls-4,.cls-5{stroke:#231f20;stroke-miterlimit:10;}.cls-4{stroke-width:0.5px;}.cls-5{stroke-width:0.75px;}.cls-6,.cls-8{font-size:8px;}.cls-6{font-family:TimesNewRomanPS-ItalicMT, Times New Roman;font-style:italic;}.cls-7{letter-spacing:-0.16em;}.cls-8{font-family:TimesNewRomanPSMT, Times New Roman;}.cls-9{letter-spacing:-0.1em;}</style><clipPath id="clip-path" transform="translate(0 -0.01)"><rect class="cls-1" width="153.99" height="109.24"/></clipPath></defs><g id="Layer_2" data-name="Layer 2"><g id="Layer_1-2" data-name="Layer 1"><path class="cls-2" d="M83.4,94.62a1.34,1.34,0,1,1-1.34-1.35,1.34,1.34,0,0,1,1.34,1.35" transform="translate(0 -0.01)"/><g class="cls-3"><path class="cls-4" d="M95.65,61.29A47.7,47.7,0,1,1,47.94,13.6,47.69,47.69,0,0,1,95.65,61.29Z" transform="translate(0 -0.01)"/></g><polyline class="cls-2" points="84.32 32.51 81.68 27.56 86.44 30.52 84.32 32.51"/><polyline class="cls-2" points="19.65 24.5 14.68 27.1 17.69 22.36 19.65 24.5"/><polyline class="cls-2" points="5.25 79.38 6.47 84.86 2.68 80.72 5.25 79.38"/><polyline class="cls-2" points="62.8 105.21 68.35 104.41 63.94 107.88 62.8 105.21"/><line class="cls-5" x1="82.06" y1="94.63" x2="136.15" y2="39.17"/><polyline class="cls-2" points="136.54 41.11 139.63 35.6 134.2 38.83 136.54 41.11"/><line class="cls-5" x1="82.06" y1="94.63" x2="112.1" y2="63.86"/><polyline class="cls-2" points="112.49 65.8 115.58 60.3 110.16 63.52 112.49 65.8"/><line class="cls-4" x1="134.29" y1="60.31" x2="43.38" y2="60.31"/><polyline class="cls-2" points="133.29 58.85 138.72 60.31 133.29 61.76 133.29 58.85"/><line class="cls-4" x1="47.95" y1="6.74" x2="47.95" y2="66.97"/><polyline class="cls-2" points="46.5 7.73 47.95 2.31 49.4 7.73 46.5 7.73"/><text class="cls-6" transform="translate(105.22 82.25)"><tspan class="cls-7">α</tspan><tspan x="2.92" y="0">´</tspan></text><text class="cls-8" transform="translate(110.8 82.25)">(</text><text class="cls-6" transform="translate(113.46 82.25)">t</text><text class="cls-8" transform="translate(115.69 82.25)">)</text><text class="cls-6" transform="translate(140.59 45.5)"><tspan class="cls-9">β</tspan><tspan x="3.19" y="0">´</tspan></text><text class="cls-8" transform="translate(146.44 45.5)">(</text><text class="cls-6" transform="translate(149.1 45.5)">t</text><text class="cls-8" transform="translate(151.33 45.5)">)</text><text class="cls-6" transform="translate(140.59 62.22)">x</text><text class="cls-6" transform="translate(40.5 6.65)">y</text><text class="cls-8" transform="translate(41.71 67.79)">0</text></g></g></svg>