<svg xmlns="http://www.w3.org/2000/svg" xmlns:xlink="http://www.w3.org/1999/xlink" viewBox="0 0 147.52 156.7"><defs><style>.cls-1,.cls-10,.cls-12,.cls-13,.cls-15,.cls-3,.cls-7,.cls-8{fill:none;}.cls-2,.cls-6{font-size:8px;}.cls-11,.cls-2,.cls-5,.cls-6{fill:#231f20;}.cls-2{font-family:TimesNewRomanPS-BoldMT, Times New Roman;font-weight:700;}.cls-10,.cls-12,.cls-3{stroke:#231f20;}.cls-10,.cls-12,.cls-13,.cls-15,.cls-3,.cls-7,.cls-8{stroke-miterlimit:3.86;}.cls-13,.cls-3{stroke-width:0.5px;}.cls-4{fill:#fff;}.cls-11,.cls-6{font-family:TimesNewRomanPSMT, Times New Roman;}.cls-7,.cls-8{stroke:#ec1846;}.cls-12,.cls-7{stroke-width:0.4px;}.cls-9{fill:#ed1846;}.cls-11{font-size:6px;}.cls-13{stroke:#fff;}.cls-14{clip-path:url(#clip-path);}.cls-15{stroke:#00aeef;}.cls-16{clip-path:url(#clip-path-2);}.cls-17{fill:url(#linear-gradient);}.cls-18{clip-path:url(#clip-path-3);}.cls-19{fill:url(#linear-gradient-2);}.cls-20{clip-path:url(#clip-path-4);}.cls-21{fill:url(#linear-gradient-3);}.cls-22{clip-path:url(#clip-path-5);}.cls-23{fill:url(#linear-gradient-4);}</style><clipPath id="clip-path" transform="translate(0)"><rect class="cls-1" y="0.01" width="147.07" height="155.12"/></clipPath><clipPath id="clip-path-2" transform="translate(0)"><path class="cls-1" d="M80.57,55.39a57.33,57.33,0,0,1-15.72,2.32v2a60.07,60.07,0,0,0,16.3-2.4l-.09,1.47a15.49,15.49,0,0,1,3.41-3.5,15.12,15.12,0,0,1-4.77-1.05"/></clipPath><linearGradient id="linear-gradient" x1="-30" y1="225.34" x2="-29" y2="225.34" gradientTransform="matrix(20.56, 0, 0, -20.56, 681.72, 4690.94)" gradientUnits="userSpaceOnUse"><stop offset="0" stop-color="#d4effc"/><stop offset="0.01" stop-color="#d4effc"/><stop offset="1" stop-color="#00aeef"/></linearGradient><clipPath id="clip-path-3" transform="translate(0)"><path class="cls-1" d="M56,38.53a14.94,14.94,0,0,1,4.16,2.56l-.43-1.39a97.24,97.24,0,0,1,12.47,1.5l.37-2a94.66,94.66,0,0,0-12.76-1.53l.56-1.37A15.31,15.31,0,0,1,56,38.53"/></clipPath><linearGradient id="linear-gradient-2" y1="225.29" y2="225.29" gradientTransform="matrix(0, -16.5, -16.5, 0, 3782.6, -448.12)" xlink:href="#linear-gradient"/><clipPath id="clip-path-4" transform="translate(0)"><path class="cls-1" d="M51.55,114.81c-5,1.06-10.22,2-15.62,2.68l.26,2c5.46-.72,10.77-1.63,15.79-2.71l-.19,1.46A15.05,15.05,0,0,1,55.46,115a15.3,15.3,0,0,1-4.69-1.41"/></clipPath><linearGradient id="linear-gradient-3" y1="225.33" y2="225.33" gradientTransform="matrix(20.23, 0, 0, -20.23, 642.66, 4674.06)" xlink:href="#linear-gradient"/><clipPath id="clip-path-5" transform="translate(0)"><path class="cls-1" d="M101.4,53a15,15,0,0,1,1.19,4.74l.66-1.28a21.13,21.13,0,0,1,4.91,9.42l2-.44a23.08,23.08,0,0,0-5.41-10.36l1.36-.59A15.17,15.17,0,0,1,101.4,53"/></clipPath><linearGradient id="linear-gradient-4" y1="225.36" y2="225.36" gradientTransform="matrix(0, -14.84, -14.84, 0, 3450.91, -378.84)" xlink:href="#linear-gradient"/></defs><g id="Layer_2" data-name="Layer 2"><g id="Layer_1-2" data-name="Layer 1"><text class="cls-2" transform="translate(135.41 87.91)">||v||</text><polyline class="cls-3" points="138.61 118.65 53.28 95.21 53.28 56.9"/><rect class="cls-4" x="51.29" y="56.2" width="3.78" height="3.58"/><line class="cls-3" x1="53.28" y1="95.21" x2="9.28" y2="146.65"/><polyline class="cls-4" points="27.56 121.76 32.05 116.67 38.38 115.87 34.18 121 27.73 121.84"/><polyline class="cls-5" points="55.03 12.07 53.28 8.57 51.53 12.07 53.28 10.67"/><polyline class="cls-5" points="136.8 119.97 140.63 119.21 137.72 116.59 138.61 118.65"/><text class="cls-6" transform="translate(143.52 121.85)">y</text><text class="cls-6" transform="translate(52.08 6.65)">z</text><text class="cls-6" transform="translate(47.36 96.45)">0</text><text class="cls-6" transform="translate(3.6 154.25)">x</text><text class="cls-6" transform="translate(80.16 91.37)">r</text><text class="cls-6" transform="translate(65.76 122.81)">s</text><text class="cls-6" transform="translate(137.37 30.68)">v</text><polyline class="cls-5" points="8.86 144.45 7.92 148.25 11.52 146.73 9.28 146.65"/><polygon class="cls-7" points="102.57 95.72 128.01 59.96 130.65 61.88 129.21 53.48 121.05 54.92 123.93 57.08 98.49 92.84 102.57 95.72"/><line class="cls-8" x1="100.41" y1="94.28" x2="143.8" y2="32.89"/><path class="cls-9" d="M145.53,30.44l-4.93,2.64A3.34,3.34,0,0,1,144.68,36" transform="translate(0)"/><line class="cls-10" x1="53.28" y1="95.21" x2="95.97" y2="94.56"/><path class="cls-5" d="M99,94.52l-5-2.43a3.34,3.34,0,0,1,.07,5" transform="translate(0)"/><line class="cls-3" x1="11.28" y1="117.77" x2="11.28" y2="123.77"/><text class="cls-6" transform="translate(2.49 131.31)">P</text><text class="cls-6" transform="translate(7.37 131.31)">(</text><text class="cls-6" transform="translate(10.04 131.31)">t</text><text class="cls-11" transform="translate(12.66 133.31)">0</text><text class="cls-6" transform="translate(15.96 131.31)">)</text><text class="cls-2" transform="translate(119.23 81.83)">T</text><text class="cls-6" transform="translate(126.56 81.83)">=</text><text class="cls-2" transform="translate(138.41 77.93)">v</text><line class="cls-12" x1="136.31" y1="79.68" x2="144.46" y2="79.68"/><polyline class="cls-4" points="79.25 104.7 85.25 101.82 91.25 103.5 85.73 106.62"/><path class="cls-13" d="M94.56,47.94C83.86,41.63,69.56,39,59,38.58q-1.78-.09-3.48-.06l-4.78.33c-20.33,2.5-26,18.11,11.38,19.89,20.9,1,39.4-10.21,57.12-24.24" transform="translate(0)"/><g class="cls-14"><path class="cls-15" d="M94.56,47.94C83.86,41.63,69.56,39,59,38.58q-1.78-.09-3.48-.06l-4.78.33c-20.33,2.5-26,18.11,11.38,19.89,20.9,1,39.4-10.21,57.12-24.24" transform="translate(0)"/><path class="cls-13" d="M99.36,51.3c6.5,4.93,10.4,11.13,10.32,20.16C109.76,100.73,64.76,121,0,120.66" transform="translate(0)"/><path class="cls-15" d="M99.36,51.3c6.5,4.93,10.4,11.13,10.32,20.16C109.76,100.73,64.76,121,0,120.66" transform="translate(0)"/></g><g class="cls-16"><rect class="cls-17" x="64.54" y="52.67" width="20.26" height="8.6" transform="translate(-8.28 12.91) rotate(-9.37)"/></g><g class="cls-18"><rect class="cls-19" x="61.12" y="30.29" width="6.38" height="16.95" transform="translate(19.75 99.21) rotate(-84.68)"/></g><g class="cls-20"><rect class="cls-21" x="35.55" y="111.81" width="20.29" height="9.43" transform="translate(-20.9 10.54) rotate(-10.73)"/></g><g class="cls-22"><rect class="cls-23" x="98.58" y="51.64" width="14.36" height="15.55" transform="translate(-15.24 68) rotate(-33.38)"/></g><line class="cls-3" x1="53.28" y1="56.14" x2="53.28" y2="10.67"/></g></g></svg>