<svg xmlns="http://www.w3.org/2000/svg" xmlns:xlink="http://www.w3.org/1999/xlink" viewBox="0 0 145.64 73.34"><defs><style>.cls-1,.cls-10,.cls-11,.cls-12,.cls-3,.cls-6,.cls-7,.cls-8{fill:none;}.cls-2{fill:#fbd2ca;}.cls-3,.cls-8{stroke:#ed1846;}.cls-3,.cls-6,.cls-8{stroke-linecap:round;stroke-linejoin:round;}.cls-11,.cls-3,.cls-6,.cls-8{stroke-width:0.5px;}.cls-4{fill:#fdd7c6;}.cls-5{clip-path:url(#clip-path);}.cls-10,.cls-6{stroke:#231f20;}.cls-7{stroke:#a7a9ac;}.cls-10,.cls-11,.cls-12,.cls-7{stroke-miterlimit:3.86;}.cls-8{stroke-dasharray:5 2;}.cls-9{font-size:8px;}.cls-16,.cls-9{fill:#231f20;font-family:Roboto-Regular, Roboto;}.cls-10{stroke-width:0.3px;}.cls-11{stroke:#fff;}.cls-12{stroke:#00aeef;}.cls-13{fill:#fff;}.cls-14{fill:#00aeef;}.cls-15{fill:#bee1c9;}.cls-16{font-size:6px;}</style><clipPath id="clip-path"><rect class="cls-1" width="145.64" height="73.34"/></clipPath></defs><g id="Layer_2" data-name="Layer 2"><g id="Layer_1-2" data-name="Layer 1"><polyline class="cls-2" points="49.64 51 96.68 51 96.68 48.36 101 52.68 96.68 57.24 96.68 54.6 49.64 54.6"/><polygon class="cls-3" points="49.64 51 96.68 51 96.68 48.36 101 52.68 96.68 57.24 96.68 54.6 49.64 54.6 49.64 51"/><path class="cls-4" d="M130.79,10.55a4.69,4.69,0,0,0-2.49,2.8A11.29,11.29,0,0,1,126.74,16a15.43,15.43,0,0,1-3.12,1.87l-.1,0a7.78,7.78,0,0,1-.37,1.21,10.56,10.56,0,0,1-1.25,2.8c-.56.84-1.66.84-2.65.94a1.78,1.78,0,0,1-1.87-.94v-.15a2.94,2.94,0,0,1-2.81.47,1.88,1.88,0,0,1-1.25-1.85,3.66,3.66,0,0,1-2.81-.65c-.65-.47-.86-.92-.65-1.5l0,0-.3,0a2.39,2.39,0,0,1-1.72-1.4,3.52,3.52,0,0,1,.31-2.34c.37-.59.62-1.82,1.09-2.81A4,4,0,0,1,111,9.3a23.35,23.35,0,0,1,2.81-1.87,41,41,0,0,1,5.61-2.66c1.94-.79,4.22-1.7,5.47-2.34A10.54,10.54,0,0,0,128.14.25"/><g class="cls-5"><line class="cls-6" x1="67.46" y1="41.59" x2="111.14" y2="14.91"/><line class="cls-7" y1="72.84" x2="145.64" y2="72.84"/></g><line class="cls-8" x1="101.48" y1="52.2" x2="101.48" y2="22.68"/><text class="cls-9" transform="translate(61.64 62.52)">v</text><path class="cls-6" d="M123.46,19.13c.61.71.61,1.43,1.25,2.8.79,1.49,1.7,3.37,4.68,3.9m-5.77-7.95A15.43,15.43,0,0,0,126.74,16a11.29,11.29,0,0,0,1.56-2.66,4.69,4.69,0,0,1,2.49-2.8M114.73,7.43a13.91,13.91,0,0,0-2,1.87A13.32,13.32,0,0,0,111.45,11c-.38.38-1.68,1.29-1.72,1.88s-.22,1.23.47,1.71,2.63.11,3.28-.31a6.16,6.16,0,0,0,1.71-1.56c.3-.69.43-1,.47-.94a5.15,5.15,0,0,1,2.81-.46c.92.26,6,.52,7.64-1.1m-8.73,11.7a1.78,1.78,0,0,0,1.87.94c1-.1,2.09-.1,2.65-.94a10.56,10.56,0,0,0,1.25-2.8,3.31,3.31,0,0,0,.31-2.34c-.36-.72-.75-1.17-1.4-1.1m-8.74,4.68a1.89,1.89,0,0,0,1.25,1.88,2.94,2.94,0,0,0,2.81-.47,13.09,13.09,0,0,0,2.18-2,9.12,9.12,0,0,0,1.56-2.5c.42-1,.93-1.11.78-1.71s-.11-1.22-1.09-1.25m-10.92,3.9c-.25.61,0,1.07.62,1.56a3.68,3.68,0,0,0,3,.62c1-.27,1.49-.53,2.49-.78A5.25,5.25,0,0,0,118.16,18c.71-.92.91-1.31,1.56-2a3.61,3.61,0,0,0,.93-2.5c-.09-.49-.22-.62-.78-.94s-.8-.59-1.87-.31m10.14-12a10.54,10.54,0,0,1-3.27,2.18c-1.25.64-3.53,1.55-5.47,2.34a41,41,0,0,0-5.61,2.66A23.35,23.35,0,0,0,111,9.3a4,4,0,0,0-1.72,2.34c-.47,1-.72,2.22-1.09,2.81a3.52,3.52,0,0,0-.31,2.34,2.39,2.39,0,0,0,1.72,1.4,8.63,8.63,0,0,0,3-.31,23.17,23.17,0,0,1,2.65-.78,2.42,2.42,0,0,0,1.56-1.25c.63-.88,1.34-1.34,1.41-2s-.07-1.58-.78-1.71-.59-.59-1.41-.32"/><path class="cls-10" d="M122.06,17.88c.26.14.78.27.78.31m-4.68.94.78.31m-.32-.63.47.32m-2.65-2,.62.62m-.15-.93.47.46m-2.81-2.65c-.12.63,0,.76.47,1.09m6.86,1.41c.55-.05,1.2-.44,1.4.47m-3.12-1.72a4.62,4.62,0,0,1,.78.94m-1.56-3.9c-.4.65-.92.91-.46,1.4a5.5,5.5,0,0,0,.93,1.09m-3.12-3.27c-.35.58-.87,1-.47,1.56s1,1.23.94,1.24m6.86-3a2.2,2.2,0,0,1-1.87.94m5.31-3.28a5.38,5.38,0,0,0,1.56-1.4c.32-.78,1.16-1.24,1.71-1.72m-19,4.84c.68.06,1.26-.26.78.62a1.84,1.84,0,0,1-2,1.25"/><line class="cls-11" x1="49.4" y1="52.68" x2="76.4" y2="52.68"/><line class="cls-12" x1="49.4" y1="52.68" x2="76.4" y2="52.68"/><path class="cls-13" d="M79.35,52.68l-4.9-2.45a3.27,3.27,0,0,1,0,4.9"/><path class="cls-14" d="M79.4,52.68l-5-2.5a3.34,3.34,0,0,1,0,5"/><line class="cls-12" x1="49.4" y1="52.68" x2="98.44" y2="22.57"/><path class="cls-14" d="M101,21l-5.57.48A3.34,3.34,0,0,1,98,25.75"/><rect class="cls-15" x="13.88" y="52.68" width="35.28" height="19.44"/><rect class="cls-6" x="13.88" y="52.68" width="35.28" height="19.44"/><text class="cls-9" transform="translate(43.19 34.12)">F</text><text class="cls-9" transform="translate(47.64 34.12)">orce</text><text class="cls-9" transform="translate(63.4 34.12)">=</text><text class="cls-9" transform="translate(72.07 34.12)">u</text><text class="cls-9" transform="translate(81.91 63.25)">proj</text><text class="cls-16" transform="translate(94.8 65.25)">v</text><text class="cls-9" transform="translate(99.3 63.25)">u</text></g></g></svg>