<svg xmlns="http://www.w3.org/2000/svg" xmlns:xlink="http://www.w3.org/1999/xlink" viewBox="0 0 153 145.81"><defs><style>.cls-1,.cls-2,.cls-4,.cls-7,.cls-8,.cls-9{fill:none;}.cls-2,.cls-4{stroke:#00aeef;}.cls-2,.cls-4,.cls-7,.cls-8,.cls-9{stroke-miterlimit:3.86;}.cls-3{fill:#00aeef;}.cls-4{stroke-width:1.5px;}.cls-5{font-size:8px;fill:#231f20;font-family:Roboto-Regular, Roboto;}.cls-6{clip-path:url(#clip-path);}.cls-7{stroke:#231f20;}.cls-7,.cls-8,.cls-9{stroke-width:0.5px;}.cls-8,.cls-9{stroke:#ed1846;}.cls-9{stroke-dasharray:4 1;}</style><clipPath id="clip-path"><rect class="cls-1" y="0.2" width="153" height="145.18"/></clipPath></defs><g id="Layer_2" data-name="Layer 2"><g id="Layer_1-2" data-name="Layer 1"><line class="cls-2" x1="72.48" y1="133.8" x2="17.72" y2="90.78"/><path class="cls-3" d="M15.36,88.92,17.75,94a3.33,3.33,0,0,1,3.09-3.93"/><line class="cls-4" x1="72.48" y1="133.8" x2="138.24" y2="133.8"/><path class="cls-3" d="M141.24,133.8l-5-2.5a3.34,3.34,0,0,1,0,5"/><text class="cls-5" transform="translate(8.64 87)">Q</text><text class="cls-5" transform="translate(70.08 143.64)">P</text><g class="cls-6"><line class="cls-7" y1="133.8" x2="153" y2="133.8"/></g><text class="cls-5" transform="translate(43.2 107.4)">u</text><polygon class="cls-8" points="72.72 131.88 19.68 131.88 19.68 129.24 15.36 133.81 19.68 138.13 19.68 135.48 72.72 135.48 72.72 131.88"/><text class="cls-5" transform="translate(138.12 143.64)">S</text><text class="cls-5" transform="translate(99.72 130.44)">v</text><text class="cls-5" transform="translate(13.2 143.64)">R</text><line class="cls-9" x1="15.12" y1="89.16" x2="15.12" y2="133.8"/><polyline class="cls-7" points="15.12 127.81 9.12 127.81 9.12 133.81"/><line class="cls-2" x1="57.72" y1="53.64" x2="112.72" y2="10.61"/><path class="cls-3" d="M115.08,8.76,109.6,9.88a3.33,3.33,0,0,1,3.08,3.93"/><line class="cls-4" x1="57.72" y1="53.64" x2="138.24" y2="53.64"/><path class="cls-3" d="M141.24,53.64l-5-2.5a3.34,3.34,0,0,1,0,5"/><text class="cls-5" transform="translate(117 6.84)">Q</text><text class="cls-5" transform="translate(55.32 63.48)">P</text><g class="cls-6"><line class="cls-7" y1="53.64" x2="153" y2="53.64"/></g><text class="cls-5" transform="translate(83.16 27.72)">u</text><polygon class="cls-8" points="57.96 51.96 110.76 51.96 110.76 49.32 115.32 53.64 110.76 58.2 110.76 55.56 57.96 55.56 57.96 51.96"/><text class="cls-5" transform="translate(138.12 63.48)">S</text><text class="cls-5" transform="translate(126.6 50.76)">v</text><text class="cls-5" transform="translate(112.44 63.48)">R</text><line class="cls-9" x1="115.32" y1="9" x2="115.32" y2="53.64"/><polyline class="cls-7" points="115.32 47.64 121.32 47.64 121.32 53.64"/></g></g></svg>