<svg xmlns="http://www.w3.org/2000/svg" viewBox="0 0 155.58 140.24"><defs><style>.cls-1,.cls-7{font-size:8px;}.cls-1,.cls-4,.cls-7{fill:#231f20;}.cls-1{font-family:TimesNewRomanPSMT, Times New Roman;}.cls-10,.cls-11,.cls-12,.cls-13,.cls-15,.cls-2,.cls-3,.cls-9{fill:none;stroke-miterlimit:3.86;}.cls-2,.cls-3,.cls-9{stroke:#231f20;}.cls-3{stroke-width:0.5px;}.cls-5{fill:#ffcb05;}.cls-6{fill:#ed1846;}.cls-7{font-family:TimesNewRomanPS-BoldMT, Times New Roman;font-weight:700;}.cls-8{letter-spacing:0.25em;}.cls-9{stroke-width:0.4px;}.cls-10{stroke:#ffca04;}.cls-11{stroke:#fff;stroke-width:0.75px;}.cls-12,.cls-15{stroke:#00aeef;}.cls-13{stroke:#ec1846;}.cls-14{fill:#00acee;}.cls-15{stroke-width:0.25px;}</style></defs><g id="Layer_2" data-name="Layer 2"><g id="Layer_1-2" data-name="Layer 1"><text class="cls-1" transform="translate(20.83 107.05)">O</text><line class="cls-2" x1="108.1" y1="47.28" x2="29.03" y2="104.98"/><text class="cls-1" transform="translate(151.58 107.21)">y</text><text class="cls-1" transform="translate(26.99 6.65)">z</text><line class="cls-3" x1="28.67" y1="117.29" x2="28.67" y2="11.39"/><polyline class="cls-4" points="30.42 12.79 28.67 9.29 26.92 12.79 28.67 11.39"/><line class="cls-3" x1="28.67" y1="105.29" x2="147.56" y2="105.29"/><polyline class="cls-4" points="146.16 107.04 149.66 105.29 146.16 103.54 147.56 105.29"/><path class="cls-5" d="M136.27,41l-5.47-1.14a3.35,3.35,0,0,1,1.28,4.83"/><path class="cls-6" d="M96.7,29.38l-5.56.54a3.35,3.35,0,0,1,2.65,4.24"/><path class="cls-4" d="M5,132.83l5.21-2a3.34,3.34,0,0,1-3.69-3.37"/><line class="cls-3" x1="29.17" y1="104.79" x2="7.83" y2="129.96"/><text class="cls-1" transform="translate(0 137.79)">x</text><text class="cls-1" transform="translate(61.17 47.62)">P</text><text class="cls-1" transform="translate(10.07 91.83)">C</text><text class="cls-1" transform="translate(109.5 39.62)">Q</text><text class="cls-7" transform="translate(96.38 19.56)">r</text><text class="cls-1" transform="translate(100.33 19.56)">(</text><text class="cls-1" transform="translate(102.99 19.56)">t</text><text class="cls-1" transform="translate(107.22 19.56)"><tspan class="cls-8">+</tspan><tspan x="6.51" y="0">Δ</tspan></text><text class="cls-1" transform="translate(122.02 19.56)">t</text><text class="cls-1" transform="translate(124.24 19.56)">)</text><text class="cls-1" transform="translate(128.9 19.56)">−</text><text class="cls-7" transform="translate(137.57 19.56)">r</text><text class="cls-1" transform="translate(141.52 19.56)">(</text><text class="cls-1" transform="translate(144.18 19.56)">t</text><text class="cls-1" transform="translate(146.41 19.56)">)</text><text class="cls-7" transform="translate(60.92 64.58)">r</text><text class="cls-1" transform="translate(64.87 64.58)">(</text><text class="cls-1" transform="translate(67.54 64.58)">t</text><text class="cls-1" transform="translate(69.76 64.58)">)</text><text class="cls-7" transform="translate(69.42 36.16)">r</text><text class="cls-1" transform="translate(72.97 36.16)">′</text><text class="cls-1" transform="translate(75.63 36.16)">(</text><text class="cls-1" transform="translate(78.3 36.16)">t</text><text class="cls-1" transform="translate(80.52 36.16)">)</text><text class="cls-7" transform="translate(73.41 78.95)">r</text><text class="cls-1" transform="translate(77.36 78.95)">(</text><text class="cls-1" transform="translate(80.02 78.95)">t</text><text class="cls-1" transform="translate(84.25 78.95)"><tspan class="cls-8">+</tspan><tspan x="6.51" y="0">Δ</tspan></text><text class="cls-1" transform="translate(99.05 78.95)">t</text><text class="cls-1" transform="translate(101.27 78.95)">)</text><line class="cls-9" x1="97.01" y1="22.71" x2="148.34" y2="22.71"/><text class="cls-1" transform="translate(119.54 29.84)">Δ</text><text class="cls-1" transform="translate(125.67 29.84)">t</text><line class="cls-10" x1="65.88" y1="50.19" x2="133.17" y2="41.88"/><path class="cls-11" d="M8.74,97.83c3.33-1,12.92-3.1,47.33-41.33,9-10,26.67-16,35.33-16s23.34,1.33,40.67,18.66"/><path class="cls-12" d="M8.74,97.83c3.33-1,12.92-3.1,47.33-41.33,9-10,26.67-16,35.33-16s23.34,1.33,40.67,18.66"/><line class="cls-11" x1="65.4" y1="49.5" x2="94.4" y2="30.83"/><line class="cls-13" x1="65.4" y1="49.5" x2="94.4" y2="30.83"/><line class="cls-2" x1="29.03" y1="104.98" x2="63.32" y2="54.09"/><line class="cls-3" x1="124.57" y1="31.83" x2="121.07" y2="41.83"/><path class="cls-14" d="M66.87,50.17a1.75,1.75,0,1,1-1.75-1.75,1.76,1.76,0,0,1,1.75,1.75"/><circle class="cls-15" cx="65.12" cy="50.17" r="1.75"/><path class="cls-4" d="M64.77,51.2l-4.53,3.27a3.34,3.34,0,0,1,4.43,2.32"/><path class="cls-14" d="M112.92,44.58a1.75,1.75,0,1,1-1.75-1.75,1.75,1.75,0,0,1,1.75,1.75"/><circle class="cls-15" cx="111.17" cy="44.58" r="1.75"/><path class="cls-4" d="M110.06,45.12,104.79,47a3.33,3.33,0,0,1,3.59,3.47"/></g></g></svg>