<svg xmlns="http://www.w3.org/2000/svg" xmlns:xlink="http://www.w3.org/1999/xlink" viewBox="0 0 265.91 110.24"><defs><style>.cls-1,.cls-12,.cls-14,.cls-3,.cls-6,.cls-9{fill:none;}.cls-2{clip-path:url(#clip-path);}.cls-3{stroke:#231f20;stroke-width:0.5px;}.cls-4,.cls-5{fill:#231f20;}.cls-5{font-size:8px;font-family:Roboto-Regular, Roboto;}.cls-6{stroke:#00acee;}.cls-7{clip-path:url(#clip-path-2);}.cls-8{fill:url(#linear-gradient);}.cls-14,.cls-9{stroke:#00aeef;}.cls-10{clip-path:url(#clip-path-3);}.cls-11{fill:url(#linear-gradient-2);}.cls-12{stroke:#ec1846;}.cls-13{fill:#00acee;}.cls-14{stroke-width:0.25px;}.cls-15{letter-spacing:9.26em;}.cls-16{letter-spacing:0.05em;}.cls-17{fill:#ec1846;}</style><clipPath id="clip-path"><rect class="cls-1" y="2.2" width="265.68" height="107.61"/></clipPath><clipPath id="clip-path-2"><path class="cls-1" d="M35.06,57.54l1.24.74A26.45,26.45,0,0,1,25.82,63.6l.44,1.95a28.43,28.43,0,0,0,11.32-5.73l.49,1.4a15.22,15.22,0,0,1,1.8-4.55,15.26,15.26,0,0,1-4.81.87"/></clipPath><linearGradient id="linear-gradient" x1="-267" y1="431.81" x2="-266" y2="431.81" gradientTransform="matrix(14.05, 0, 0, -14.05, 3776.63, 6127.12)" gradientUnits="userSpaceOnUse"><stop offset="0" stop-color="#d4effc"/><stop offset="1" stop-color="#00aeef"/></linearGradient><clipPath id="clip-path-3"><path class="cls-1" d="M176.19,76.2l1.19.81a69.86,69.86,0,0,1-12,6.77l.79,1.83a70.49,70.49,0,0,0,12.38-7l.4,1.43a15.3,15.3,0,0,1,2.1-4.42,15.35,15.35,0,0,1-4.86.56"/></clipPath><linearGradient id="linear-gradient-2" x1="-267" y1="431.82" x2="-266" y2="431.82" gradientTransform="matrix(17.78, 0, 0, -17.78, 4910.94, 7756.62)" xlink:href="#linear-gradient"/></defs><g id="Layer_2" data-name="Layer 2"><g id="Layer_1-2" data-name="Layer 1"><g class="cls-2"><path class="cls-3" d="M9.3,80.31V11.6M0,71.46H107.86"/></g><polyline class="cls-4" points="106.46 73.21 109.96 71.46 106.46 69.71 107.86 71.46"/><text class="cls-5" transform="translate(111.9 73.37)">x</text><polyline class="cls-4" points="11.05 13 9.3 9.5 7.55 13 9.3 11.6"/><text class="cls-5" transform="translate(7.35 6.84)">y</text><path class="cls-3" d="M159.53,80.31V11.6m-9.3,59.86H258.09"/><polyline class="cls-4" points="256.69 73.21 260.19 71.46 256.69 69.71 258.09 71.46"/><text class="cls-5" transform="translate(262.13 73.37)">y</text><polyline class="cls-4" points="161.28 13 159.53 9.5 157.78 13 159.53 11.6"/><text class="cls-5" transform="translate(157.8 6.84)">z</text><path class="cls-6" d="M15.23,63.23S27.1,71.4,43.64,52.72s18.3-27.25,38.15-30.95,22,21.8,4.28,26.28M15.23,63.23S27.1,71.4,43.64,52.72s18.3-27.25,38.15-30.95,22,21.8,4.28,26.28"/><g class="cls-7"><rect class="cls-8" x="25.82" y="56.67" width="14.05" height="8.88"/></g><path class="cls-9" d="M155,88.14s22.38-3.31,40.68-27.44,8.75-52.36-6-45.93-8.36,30.16,11.29,31.91l.55,0m3.11,0c18.12-1.18,33.52-22.22,33.52-22.22"/><g class="cls-10"><rect class="cls-11" x="163.93" y="72.27" width="18.57" height="16.71" transform="translate(-16.53 102.99) rotate(-31.68)"/></g><path class="cls-12" d="M185.86,17.08,173.05,29.75m-115.39,6L79.07,13.21"/><line class="cls-3" x1="166.63" y1="64.78" x2="133.54" y2="95.56"/><text class="cls-5" transform="translate(3.21 79.14)">0</text><text class="cls-5" transform="translate(153.47 69.1)">0</text><polyline class="cls-4" points="133.32 93.33 132.04 97.03 135.77 95.83 133.54 95.56"/><text class="cls-5" transform="translate(128.07 102.26)">x</text><path class="cls-13" d="M59.41,35.79A1.75,1.75,0,1,1,57.66,34a1.76,1.76,0,0,1,1.75,1.75"/><circle class="cls-14" cx="57.66" cy="35.79" r="1.75"/><path class="cls-13" d="M187.61,17.08a1.75,1.75,0,1,1-1.75-1.75,1.75,1.75,0,0,1,1.75,1.75"/><circle class="cls-14" cx="185.86" cy="17.08" r="1.75"/><text class="cls-5" transform="translate(63.6 22.96)">v</text><text class="cls-5" transform="translate(173.81 22.49)">v</text><text class="cls-5" transform="translate(26.01 108.07)"><tspan xml:space="preserve">(a)  two dimension</tspan><tspan class="cls-15" x="66.16" y="0">s</tspan><tspan class="cls-16" x="144.32" y="0">(</tspan><tspan x="147.45" y="0" xml:space="preserve">b)  three dimensions</tspan></text><path class="cls-17" d="M171.13,31.59l5.31-1.78a3.34,3.34,0,0,1-3.54-3.53"/><path class="cls-17" d="M81.28,11l-1.77,5.3A3.35,3.35,0,0,0,76,12.75"/></g></g></svg>