<svg width="1329" height="904" xmlns="http://www.w3.org/2000/svg" xmlns:xlink="http://www.w3.org/1999/xlink" xml:space="preserve" overflow="hidden"><defs><clipPath id="clip0"><rect x="946" y="425" width="1329" height="904"/></clipPath></defs><g clip-path="url(#clip0)" transform="translate(-946 -425)"><text font-family="Calibri,Calibri_MSFontService,sans-serif" font-weight="400" font-size="48" transform="matrix(1 0 0 1 1528.14 1229)">2 column vectors<tspan font-size="48" x="0" y="58">with</tspan><tspan font-size="48" x="97.3959" y="58">3 numbers</tspan><tspan font-size="48" x="403.435" y="-5">3 row vectors</tspan><tspan font-size="48" x="403.435" y="53">w</tspan>ith<tspan font-size="48" x="500.831" y="53">2 numbers</tspan><tspan font-size="48" x="-285.924" y="1">6 numbers</tspan><tspan font-size="48" x="-549.411" y="2">1 matrix</tspan></text><path d="M1322 673C1304.88 673 1291 671.844 1291 670.417L1291 434.583C1291 433.157 1304.88 432 1322 432" stroke="#000000" stroke-width="2.29167" stroke-miterlimit="8" fill="none" fill-rule="evenodd"/><path d="M29.9999 241C13.4314 241 2.3012e-14 239.881-7.67065e-15 238.5L0 2.49987C-3.06826e-14 1.11923 13.4314-1.91766e-15 29.9999-3.83531e-15" stroke="#000000" stroke-width="2.29167" stroke-miterlimit="8" fill="none" fill-rule="evenodd" transform="matrix(-1 0 0 1 1465 432)"/><path d="M1322 483.5C1322 474.94 1329.39 468 1338.5 468 1347.61 468 1355 474.94 1355 483.5 1355 492.06 1347.61 499 1338.5 499 1329.39 499 1322 492.06 1322 483.5Z" fill="#00B0F0" fill-rule="evenodd"/><path d="M1322 556.5C1322 547.94 1329.39 541 1338.5 541 1347.61 541 1355 547.94 1355 556.5 1355 565.06 1347.61 572 1338.5 572 1329.39 572 1322 565.06 1322 556.5Z" fill="#00B0F0" fill-rule="evenodd"/><path d="M1322 629C1322 620.716 1329.39 614 1338.5 614 1347.61 614 1355 620.716 1355 629 1355 637.284 1347.61 644 1338.5 644 1329.39 644 1322 637.284 1322 629Z" fill="#00B0F0" fill-rule="evenodd"/><path d="M1397 483.5C1397 474.94 1404.39 468 1413.5 468 1422.61 468 1430 474.94 1430 483.5 1430 492.06 1422.61 499 1413.5 499 1404.39 499 1397 492.06 1397 483.5Z" fill="#00B0F0" fill-rule="evenodd"/><path d="M1397 556.5C1397 547.94 1404.39 541 1413.5 541 1422.61 541 1430 547.94 1430 556.5 1430 565.06 1422.61 572 1413.5 572 1404.39 572 1397 565.06 1397 556.5Z" fill="#00B0F0" fill-rule="evenodd"/><path d="M1397 629C1397 620.716 1404.39 614 1413.5 614 1422.61 614 1430 620.716 1430 629 1430 637.284 1422.61 644 1413.5 644 1404.39 644 1397 637.284 1397 629Z" fill="#00B0F0" fill-rule="evenodd"/><rect x="1008" y="445" width="148" height="213" fill="#D0CECE"/><path d="M1026 672C1008.88 672 995 670.844 995 669.417L995 433.583C995 432.157 1008.88 431 1026 431" stroke="#000000" stroke-width="2.29167" stroke-miterlimit="8" fill="none" fill-rule="evenodd"/><path d="M30.9999 241C13.8791 241 1.53413e-14 239.843-1.1506e-14 238.417L0 2.58316C-3.06827e-14 1.15652 13.8791-1.91766e-15 30.9999-3.83531e-15" stroke="#000000" stroke-width="2.29167" stroke-miterlimit="8" fill="none" fill-rule="evenodd" transform="matrix(-1 0 0 1 1169 431)"/><path d="M1202.72 560.163 1252.65 560.163 1252.65 565.553 1202.72 565.553ZM1202.72 543.344 1252.65 543.344 1252.65 548.734 1202.72 548.734Z" fill-rule="evenodd"/><text fill="#000000" fill-opacity="0" font-family="Arial,Arial_MSFontService,sans-serif" font-size="22.209" x="1202.72" y="562.777">=</text><path d="M1507.15 555.923 1557.08 555.923 1557.08 561.313 1507.15 561.313ZM1507.15 539.104 1557.08 539.104 1557.08 544.495 1507.15 544.495Z" fill-rule="evenodd"/><text fill="#000000" fill-opacity="0" font-family="Arial,Arial_MSFontService,sans-serif" font-size="22.209" x="1507.15" y="558.537">=</text><path d="M1804.65 546.382 1854.58 546.382 1854.58 551.772 1804.65 551.772ZM1804.65 529.563 1854.58 529.563 1854.58 534.953 1804.65 534.953Z" fill-rule="evenodd"/><text fill="#000000" fill-opacity="0" font-family="Arial,Arial_MSFontService,sans-serif" font-size="22.209" x="1804.65" y="548.996">=</text><rect x="1625" y="444" width="48.0001" height="212" fill="#2EB77C" fill-opacity="0.701961"/><rect x="1699" y="444" width="47.9998" height="212" fill="#2EB77C" fill-opacity="0.701961"/><path d="M1629 670C1611.88 670 1598 668.843 1598 667.417L1598 432.583C1598 431.157 1611.88 430 1629 430" stroke="#000000" stroke-width="2.29167" stroke-miterlimit="8" fill="none" fill-rule="evenodd"/><path d="M30.9999 240C13.8791 240 1.90971e-14 238.843-1.14583e-14 237.417L0 2.5832C-3.05554e-14 1.15654 13.8791-1.9097e-15 30.9999-3.8194e-15" stroke="#000000" stroke-width="2.29167" stroke-miterlimit="8" fill="none" fill-rule="evenodd" transform="matrix(-1 0 0 1 1772 430)"/><path d="M1922 667C1904.88 667 1891 665.843 1891 664.417L1891 428.583C1891 427.156 1904.88 426 1922 426" stroke="#000000" stroke-width="2.29167" stroke-miterlimit="8" fill="none" fill-rule="evenodd"/><path d="M29.9999 241C13.4314 241 2.3012e-14 239.881-7.67065e-15 238.5L0 2.49987C-3.06826e-14 1.11923 13.4314-1.91766e-15 29.9999-3.83531e-15" stroke="#000000" stroke-width="2.29167" stroke-miterlimit="8" fill="none" fill-rule="evenodd" transform="matrix(-1 0 0 1 2065 426)"/><rect x="1904" y="444" width="143" height="51.9999" fill="#E11F5B" fill-opacity="0.788235"/><rect x="1904" y="522" width="143" height="51.9999" fill="#E11F5B" fill-opacity="0.788235"/><rect x="1905" y="600" width="143" height="52.0002" fill="#E11F5B" fill-opacity="0.788235"/><rect x="1018" y="817" width="148" height="213" fill="#D0CECE"/><rect x="1911" y="904" width="142" height="48.9998" fill="#E11F5B" fill-opacity="0.45098"/><rect x="1915" y="807" width="142" height="48.9998" fill="#E11F5B" fill-opacity="0.45098"/><rect x="1911" y="997" width="142" height="49.0001" fill="#E11F5B" fill-opacity="0.45098"/><rect x="1617" y="798" width="57.0001" height="265" fill="#2EB77C" fill-opacity="0.380392"/><rect x="1703" y="794" width="51.0002" height="269" fill="#2EB77C" fill-opacity="0.380392"/><path d="M1316 833.5C1316 822.73 1324.73 814 1335.5 814 1346.27 814 1355 822.73 1355 833.5 1355 844.269 1346.27 853 1335.5 853 1324.73 853 1316 844.269 1316 833.5Z" fill="#00B0F0" fill-rule="evenodd" fill-opacity="0.568627"/><path d="M1316 923.5C1316 912.73 1324.73 904 1335.5 904 1346.27 904 1355 912.73 1355 923.5 1355 934.269 1346.27 943 1335.5 943 1324.73 943 1316 934.269 1316 923.5Z" fill="#00B0F0" fill-rule="evenodd" fill-opacity="0.568627"/><path d="M1316 1013.5C1316 1002.73 1324.73 994 1335.5 994 1346.27 994 1355 1002.73 1355 1013.5 1355 1024.27 1346.27 1033 1335.5 1033 1324.73 1033 1316 1024.27 1316 1013.5Z" fill="#00B0F0" fill-rule="evenodd" fill-opacity="0.568627"/><path d="M1391 833.5C1391 822.73 1399.73 814 1410.5 814 1421.27 814 1430 822.73 1430 833.5 1430 844.269 1421.27 853 1410.5 853 1399.73 853 1391 844.269 1391 833.5Z" fill="#00B0F0" fill-rule="evenodd" fill-opacity="0.568627"/><path d="M1391 923.5C1391 912.73 1399.73 904 1410.5 904 1421.27 904 1430 912.73 1430 923.5 1430 934.269 1421.27 943 1410.5 943 1399.73 943 1391 934.269 1391 923.5Z" fill="#00B0F0" fill-rule="evenodd" fill-opacity="0.568627"/><path d="M1391 1013.5C1391 1002.73 1399.73 994 1410.5 994 1421.27 994 1430 1002.73 1430 1013.5 1430 1024.27 1421.27 1033 1410.5 1033 1399.73 1033 1391 1024.27 1391 1013.5Z" fill="#00B0F0" fill-rule="evenodd" fill-opacity="0.568627"/><path d="M1104.74 900.792 1090.31 926.324 1106.16 926.324 1105.47 913.275C1105.39 911.491 1105.32 909.262 1105.27 906.588 1105.21 903.913 1105.18 901.981 1105.18 900.792ZM1104.98 892.241 1111.1 892.241 1114.02 937.429C1114.15 939.563 1114.4 941.232 1114.75 942.434 1115.1 943.636 1115.58 944.528 1116.19 945.109 1116.8 945.69 1117.68 946.061 1118.84 946.223L1118.4 948.209 1101.54 948.209 1101.98 946.223C1103.58 946.088 1104.77 945.467 1105.55 944.359 1106.33 943.251 1106.72 941.306 1106.72 938.523 1106.72 937.469 1106.68 936.321 1106.6 935.078L1106.32 929.85 1088.49 929.85 1086.26 933.822C1085.2 935.686 1084.43 937.287 1083.95 938.624 1083.46 939.962 1083.22 941.144 1083.22 942.171 1083.22 944.44 1084.58 945.791 1087.31 946.223L1086.87 948.209 1070.29 948.209 1070.74 946.223C1071.57 946.115 1072.36 945.784 1073.11 945.23 1073.85 944.677 1074.64 943.839 1075.48 942.718 1076.32 941.596 1077.49 939.739 1079 937.145Z" fill-rule="evenodd"/><text fill="#000000" fill-opacity="0" font-family="Arial,Arial_MSFontService,sans-serif" font-size="55.9683" x="1070.29" y="941.213">ğ´</text><path d="M1207.71 930.215 1257.64 930.215 1257.64 935.605 1207.71 935.605ZM1207.71 913.396 1257.64 913.396 1257.64 918.786 1207.71 918.786Z" fill-rule="evenodd"/><text fill="#000000" fill-opacity="0" font-family="Arial,Arial_MSFontService,sans-serif" font-size="22.209" x="1207.71" y="932.829">=</text><path d="M1449.53 801.442 1471.58 801.442 1471.58 1047.61 1449.53 1047.61 1449.53 1043.63 1463.23 1043.63 1463.23 805.414 1449.53 805.414ZM1295.7 801.442 1317.75 801.442 1317.75 805.414 1304.05 805.414 1304.05 1043.63 1317.75 1043.63 1317.75 1047.61 1295.7 1047.61Z" fill-rule="evenodd"/><path d="M1345.55 799.451 1347.78 799.451C1347.62 802.045 1347.54 805.638 1347.54 810.232L1347.54 844.842C1347.54 846.409 1347.63 847.591 1347.8 848.388 1347.98 849.185 1348.29 849.834 1348.73 850.333 1349.18 850.833 1349.82 851.225 1350.66 851.509 1351.5 851.792 1352.55 852.008 1353.82 852.157 1355.09 852.306 1356.76 852.407 1358.84 852.461L1358.84 855.42 1328.9 855.42 1328.9 852.461C1331.89 852.326 1334.04 852.144 1335.32 851.914 1336.6 851.684 1337.58 851.34 1338.26 850.88 1338.93 850.421 1339.43 849.773 1339.74 848.935 1340.05 848.098 1340.2 846.733 1340.2 844.842L1340.2 811.974C1340.2 810.893 1340.01 810.103 1339.63 809.603 1339.26 809.104 1338.7 808.854 1337.97 808.854 1337.11 808.854 1335.88 809.299 1334.29 810.191 1332.69 811.083 1330.72 812.312 1328.37 813.879L1326.59 810.758Z" fill-rule="evenodd"/><text fill="#000000" fill-opacity="0" font-family="Arial,Arial_MSFontService,sans-serif" font-size="55.9683" x="1326.59" y="848.424">1</text><path d="M1427.53 808.975 1411.68 834.143 1411.68 834.71 1427.53 834.71 1427.53 824.619C1427.53 822.079 1427.57 819.235 1427.65 816.088 1427.73 812.94 1427.82 810.569 1427.93 808.975ZM1428.7 799.816 1434.5 799.816 1434.5 834.71 1435.35 834.71C1436.91 834.71 1438.04 834.595 1438.71 834.366 1439.39 834.136 1439.95 833.731 1440.39 833.15 1440.84 832.569 1441.25 831.617 1441.63 830.293L1444.71 830.293 1444.22 838.641 1434.5 838.641 1434.5 845.288C1434.5 847.098 1434.56 848.422 1434.68 849.259 1434.8 850.097 1435 850.759 1435.29 851.245 1435.57 851.732 1435.99 852.137 1436.54 852.461 1437.1 852.785 1437.99 853.109 1439.24 853.434L1439.24 855.42 1422.78 855.42 1422.78 853.434C1424.46 853.001 1425.58 852.522 1426.15 851.995 1426.71 851.468 1427.09 850.718 1427.26 849.746 1427.44 848.773 1427.53 847.287 1427.53 845.288L1427.53 838.641 1404.99 838.641 1404.99 835.602Z" fill-rule="evenodd"/><text fill="#000000" fill-opacity="0" font-family="Arial,Arial_MSFontService,sans-serif" font-size="55.6035" x="1404.99" y="848.469">4</text><path d="M1342.67 896.183C1347.7 896.183 1351.5 897.284 1354.06 899.486 1356.63 901.688 1357.91 904.882 1357.91 909.07 1357.91 910.502 1357.77 911.819 1357.49 913.022 1357.2 914.224 1356.76 915.413 1356.15 916.588 1355.54 917.763 1354.72 919.026 1353.7 920.377 1352.67 921.728 1351.54 923.099 1350.29 924.491 1349.05 925.882 1346.9 928.199 1343.85 931.441 1338.72 936.872 1334.95 941.614 1332.54 945.666L1347.82 945.666C1349.15 945.666 1350.21 945.585 1351.02 945.423 1351.83 945.261 1352.48 944.991 1352.97 944.613 1353.45 944.234 1353.84 943.741 1354.12 943.133 1354.41 942.526 1354.77 941.587 1355.2 940.317L1358.64 940.317 1357.95 952.151 1324.6 952.151 1324.6 950.206C1325.76 947.369 1327.33 944.464 1329.3 941.492 1331.27 938.52 1334.07 935.021 1337.69 930.996 1340.82 927.537 1343.08 924.916 1344.46 923.133 1345.97 921.188 1347.1 919.506 1347.84 918.088 1348.58 916.669 1349.12 915.332 1349.44 914.075 1349.77 912.819 1349.93 911.556 1349.93 910.286 1349.93 908.26 1349.6 906.47 1348.96 904.916 1348.31 903.363 1347.31 902.14 1345.98 901.248 1344.64 900.357 1342.96 899.911 1340.93 899.911 1335.88 899.911 1332.48 902.721 1330.72 908.341L1325.82 908.341 1325.82 900.56C1329.08 899.019 1332.14 897.905 1334.99 897.216 1337.84 896.527 1340.4 896.183 1342.67 896.183Z" fill-rule="evenodd"/><text fill="#000000" fill-opacity="0" font-family="Arial,Arial_MSFontService,sans-serif" font-size="55.9683" x="1324.6" y="945.155">2</text><path d="M1436.52 894.156 1439.68 894.156 1439.08 903.559 1415.77 903.559 1415.77 921.35C1417.18 920.756 1418.7 920.31 1420.35 920.013 1422 919.715 1423.65 919.567 1425.3 919.567 1428.51 919.567 1431.36 920.222 1433.85 921.532 1436.33 922.843 1438.25 924.707 1439.6 927.125 1440.95 929.543 1441.63 932.346 1441.63 935.535 1441.63 939.155 1440.87 942.262 1439.36 944.856 1437.85 947.45 1435.66 949.422 1432.79 950.773 1429.93 952.124 1426.54 952.799 1422.62 952.799 1417.95 952.799 1413.06 951.84 1407.95 949.922L1407.95 941.33 1412.85 941.33C1413.66 944.086 1414.89 946.112 1416.52 947.409 1418.16 948.706 1420.27 949.354 1422.86 949.354 1426.46 949.354 1429.17 948.274 1431.01 946.112 1432.85 943.951 1433.77 940.722 1433.77 936.426 1433.77 933.562 1433.28 931.191 1432.31 929.314 1431.33 927.436 1430.02 926.078 1428.38 925.241 1426.73 924.403 1424.81 923.984 1422.62 923.984 1420.78 923.984 1419.2 924.099 1417.88 924.329 1416.56 924.558 1415.14 924.916 1413.62 925.403L1410.38 923.498 1410.38 896.831 1432.71 896.831C1433.63 896.831 1434.29 896.757 1434.7 896.608 1435.1 896.459 1435.43 896.23 1435.67 895.919 1435.91 895.608 1436.2 895.021 1436.52 894.156Z" fill-rule="evenodd"/><text fill="#000000" fill-opacity="0" font-family="Arial,Arial_MSFontService,sans-serif" font-size="58.6431" x="1407.95" y="945.469">5</text><path d="M1342.51 992.914C1345.57 992.914 1348.24 993.387 1350.54 994.332 1352.83 995.278 1354.59 996.636 1355.81 998.405 1357.02 1000.17 1357.63 1002.29 1357.63 1004.75 1357.63 1007.04 1357.17 1009.06 1356.25 1010.81 1355.33 1012.55 1354.04 1014.07 1352.38 1015.37 1350.72 1016.66 1348.56 1017.93 1345.92 1019.18L1345.92 1019.54C1347.56 1019.84 1349.15 1020.34 1350.68 1021.06 1352.21 1021.78 1353.56 1022.7 1354.75 1023.84 1355.94 1024.97 1356.89 1026.33 1357.61 1027.91 1358.32 1029.49 1358.68 1031.29 1358.68 1033.32 1358.68 1036.45 1358 1039.24 1356.64 1041.67 1355.27 1044.1 1353.18 1046.02 1350.37 1047.42 1347.56 1048.83 1344.15 1049.53 1340.12 1049.53 1337.8 1049.53 1335.29 1049.27 1332.6 1048.74 1329.92 1048.21 1327.45 1047.52 1325.21 1046.65L1325.21 1038.06 1330.07 1038.06C1331.02 1040.87 1332.27 1042.91 1333.82 1044.18 1335.37 1045.45 1337.49 1046.09 1340.16 1046.09 1343.67 1046.09 1346.33 1045.13 1348.13 1043.21 1349.92 1041.29 1350.82 1038.45 1350.82 1034.7 1350.82 1030.75 1349.63 1027.74 1347.25 1025.66 1344.88 1023.58 1341.39 1022.54 1336.8 1022.54L1333.15 1022.54 1333.15 1018.97C1336.8 1018.76 1339.87 1018.05 1342.37 1016.87 1344.87 1015.68 1346.73 1014.15 1347.94 1012.29 1349.16 1010.42 1349.77 1008.33 1349.77 1006 1349.77 1003.01 1348.97 1000.7 1347.38 999.074 1345.78 997.453 1343.46 996.642 1340.4 996.642 1337.87 996.642 1335.8 997.331 1334.2 998.709 1332.61 1000.09 1331.43 1002.19 1330.68 1005.03L1325.82 1005.03 1325.82 997.331C1328.95 995.845 1331.88 994.738 1334.61 994.008 1337.34 993.279 1339.97 992.914 1342.51 992.914Z" fill-rule="evenodd"/><text fill="#000000" fill-opacity="0" font-family="Arial,Arial_MSFontService,sans-serif" font-size="56.6167" x="1325.21" y="1042.45">3</text><path d="M1426.71 1019.7C1425.39 1019.7 1424.11 1019.85 1422.88 1020.15 1421.66 1020.45 1420.5 1020.88 1419.42 1021.45 1418.34 1022.01 1417.29 1022.73 1416.26 1023.59 1415.93 1023.89 1415.69 1024.2 1415.53 1024.53 1415.26 1025.04 1415.08 1025.67 1415 1026.43 1414.92 1027.19 1414.88 1028.46 1414.88 1030.24 1414.88 1035.4 1415.75 1039.33 1417.47 1042.03 1419.2 1044.73 1421.82 1046.09 1425.34 1046.09 1427.36 1046.09 1429.07 1045.73 1430.44 1045.03 1431.82 1044.33 1432.94 1043.36 1433.79 1042.13 1434.64 1040.9 1435.25 1039.46 1435.61 1037.8 1435.97 1036.14 1436.16 1034.33 1436.16 1032.39 1436.16 1028.39 1435.33 1025.27 1433.69 1023.05 1432.04 1020.82 1429.71 1019.7 1426.71 1019.7ZM1437.13 992.914 1438.79 995.143 1438.79 997.129C1434.63 997.129 1430.94 998.02 1427.73 999.803 1424.51 1001.59 1421.84 1004.21 1419.72 1007.67 1417.6 1011.12 1416.11 1015.23 1415.25 1019.99L1415.65 1020.15C1417.92 1018.53 1420.16 1017.34 1422.36 1016.58 1424.56 1015.83 1426.94 1015.45 1429.51 1015.45 1432.56 1015.45 1435.16 1016.12 1437.31 1017.45 1439.46 1018.79 1441.07 1020.67 1442.16 1023.09 1443.24 1025.5 1443.78 1028.33 1443.78 1031.58 1443.78 1035.09 1443.1 1038.19 1441.75 1040.88 1440.4 1043.57 1438.31 1045.68 1435.49 1047.22 1432.67 1048.76 1429.19 1049.53 1425.05 1049.53 1419.14 1049.53 1414.67 1047.69 1411.66 1044.02 1408.65 1040.34 1407.14 1034.93 1407.14 1027.77 1407.14 1022.96 1407.9 1018.46 1409.41 1014.27 1410.92 1010.08 1413.07 1006.43 1415.85 1003.31 1418.64 1000.19 1421.86 997.73 1425.54 995.933 1429.21 994.136 1433.08 993.13 1437.13 992.914Z" fill-rule="evenodd"/><text fill="#000000" fill-opacity="0" font-family="Arial,Arial_MSFontService,sans-serif" font-size="56.6167" x="1407.14" y="1042.45">6</text><path d="M1509.57 930.215 1559.5 930.215 1559.5 935.605 1509.57 935.605ZM1509.57 913.396 1559.5 913.396 1559.5 918.786 1509.57 918.786Z" fill-rule="evenodd"/><text fill="#000000" fill-opacity="0" font-family="Arial,Arial_MSFontService,sans-serif" font-size="22.209" x="1509.57" y="932.829">=</text><path d="M1751.39 801.442 1773.43 801.442 1773.43 1047.61 1751.39 1047.61 1751.39 1043.63 1765.08 1043.63 1765.08 805.414 1751.39 805.414ZM1597.56 801.442 1619.61 801.442 1619.61 805.414 1605.91 805.414 1605.91 1043.63 1619.61 1043.63 1619.61 1047.61 1597.56 1047.61Z" fill-rule="evenodd"/><path d="M1647.41 799.451 1649.64 799.451C1649.48 802.045 1649.4 805.638 1649.4 810.232L1649.4 844.842C1649.4 846.409 1649.48 847.591 1649.66 848.388 1649.84 849.185 1650.15 849.834 1650.59 850.333 1651.04 850.833 1651.68 851.225 1652.52 851.509 1653.35 851.792 1654.41 852.008 1655.68 852.157 1656.95 852.306 1658.62 852.407 1660.7 852.461L1660.7 855.42 1630.75 855.42 1630.75 852.461C1633.75 852.326 1635.89 852.144 1637.18 851.914 1638.46 851.684 1639.44 851.34 1640.12 850.88 1640.79 850.421 1641.28 849.773 1641.59 848.935 1641.91 848.098 1642.06 846.733 1642.06 844.842L1642.06 811.974C1642.06 810.893 1641.87 810.103 1641.49 809.603 1641.11 809.104 1640.56 808.854 1639.83 808.854 1638.97 808.854 1637.74 809.299 1636.14 810.191 1634.55 811.083 1632.58 812.312 1630.23 813.879L1628.44 810.758Z" fill-rule="evenodd"/><text fill="#000000" fill-opacity="0" font-family="Arial,Arial_MSFontService,sans-serif" font-size="55.9683" x="1628.44" y="848.424">1</text><path d="M1729.38 808.975 1713.54 834.143 1713.54 834.71 1729.38 834.71 1729.38 824.619C1729.38 822.079 1729.42 819.235 1729.51 816.088 1729.59 812.94 1729.68 810.569 1729.79 808.975ZM1730.56 799.816 1736.35 799.816 1736.35 834.71 1737.21 834.71C1738.77 834.71 1739.89 834.595 1740.57 834.366 1741.24 834.136 1741.81 833.731 1742.25 833.15 1742.7 832.569 1743.11 831.617 1743.49 830.293L1746.57 830.293 1746.08 838.641 1736.35 838.641 1736.35 845.288C1736.35 847.098 1736.41 848.422 1736.54 849.259 1736.66 850.097 1736.86 850.759 1737.14 851.245 1737.43 851.732 1737.85 852.137 1738.4 852.461 1738.95 852.785 1739.85 853.109 1741.1 853.434L1741.1 855.42 1724.64 855.42 1724.64 853.434C1726.32 853.001 1727.44 852.522 1728.01 851.995 1728.57 851.468 1728.94 850.718 1729.12 849.746 1729.3 848.773 1729.38 847.287 1729.38 845.288L1729.38 838.641 1706.85 838.641 1706.85 835.602Z" fill-rule="evenodd"/><text fill="#000000" fill-opacity="0" font-family="Arial,Arial_MSFontService,sans-serif" font-size="55.6035" x="1706.85" y="848.469">4</text><path d="M1644.53 896.183C1649.56 896.183 1653.35 897.284 1655.92 899.486 1658.49 901.688 1659.77 904.882 1659.77 909.07 1659.77 910.502 1659.63 911.819 1659.35 913.022 1659.06 914.224 1658.62 915.413 1658.01 916.588 1657.4 917.763 1656.58 919.026 1655.56 920.377 1654.53 921.728 1653.39 923.099 1652.15 924.491 1650.91 925.882 1648.76 928.199 1645.71 931.441 1640.57 936.872 1636.81 941.614 1634.4 945.666L1649.68 945.666C1651 945.666 1652.07 945.585 1652.88 945.423 1653.69 945.261 1654.34 944.991 1654.83 944.613 1655.31 944.234 1655.7 943.741 1655.98 943.133 1656.27 942.526 1656.62 941.587 1657.06 940.317L1660.5 940.317 1659.81 952.151 1626.46 952.151 1626.46 950.206C1627.62 947.369 1629.19 944.464 1631.16 941.492 1633.13 938.52 1635.93 935.021 1639.55 930.996 1642.68 927.537 1644.94 924.916 1646.32 923.133 1647.83 921.188 1648.96 919.506 1649.7 918.088 1650.44 916.669 1650.98 915.332 1651.3 914.075 1651.63 912.819 1651.79 911.556 1651.79 910.286 1651.79 908.26 1651.46 906.47 1650.81 904.916 1650.17 903.363 1649.17 902.14 1647.84 901.248 1646.5 900.357 1644.82 899.911 1642.79 899.911 1637.74 899.911 1634.33 902.721 1632.58 908.341L1627.67 908.341 1627.67 900.56C1630.94 899.019 1634 897.905 1636.85 897.216 1639.7 896.527 1642.26 896.183 1644.53 896.183Z" fill-rule="evenodd"/><text fill="#000000" fill-opacity="0" font-family="Arial,Arial_MSFontService,sans-serif" font-size="55.9683" x="1626.46" y="945.155">2</text><path d="M1738.38 894.156 1741.54 894.156 1740.93 903.559 1717.63 903.559 1717.63 921.35C1719.04 920.756 1720.56 920.31 1722.21 920.013 1723.86 919.715 1725.51 919.567 1727.15 919.567 1730.37 919.567 1733.22 920.222 1735.71 921.532 1738.19 922.843 1740.11 924.707 1741.46 927.125 1742.81 929.543 1743.49 932.346 1743.49 935.535 1743.49 939.155 1742.73 942.262 1741.22 944.856 1739.7 947.45 1737.52 949.422 1734.65 950.773 1731.79 952.124 1728.4 952.799 1724.48 952.799 1719.81 952.799 1714.92 951.84 1709.81 949.922L1709.81 941.33 1714.71 941.33C1715.52 944.086 1716.75 946.112 1718.38 947.409 1720.01 948.706 1722.13 949.354 1724.72 949.354 1728.32 949.354 1731.03 948.274 1732.87 946.112 1734.71 943.951 1735.62 940.722 1735.62 936.426 1735.62 933.562 1735.14 931.191 1734.17 929.314 1733.19 927.436 1731.88 926.078 1730.23 925.241 1728.59 924.403 1726.67 923.984 1724.48 923.984 1722.64 923.984 1721.06 924.099 1719.74 924.329 1718.41 924.558 1717 924.916 1715.48 925.403L1712.24 923.498 1712.24 896.831 1734.57 896.831C1735.49 896.831 1736.15 896.757 1736.56 896.608 1736.96 896.459 1737.29 896.23 1737.53 895.919 1737.77 895.608 1738.06 895.021 1738.38 894.156Z" fill-rule="evenodd"/><text fill="#000000" fill-opacity="0" font-family="Arial,Arial_MSFontService,sans-serif" font-size="58.6431" x="1709.81" y="945.469">5</text><path d="M1644.37 992.914C1647.42 992.914 1650.1 993.387 1652.4 994.332 1654.69 995.278 1656.45 996.636 1657.66 998.405 1658.88 1000.17 1659.49 1002.29 1659.49 1004.75 1659.49 1007.04 1659.03 1009.06 1658.11 1010.81 1657.19 1012.55 1655.9 1014.07 1654.24 1015.37 1652.58 1016.66 1650.42 1017.93 1647.78 1019.18L1647.78 1019.54C1649.42 1019.84 1651.01 1020.34 1652.54 1021.06 1654.06 1021.78 1655.42 1022.7 1656.61 1023.84 1657.8 1024.97 1658.75 1026.33 1659.47 1027.91 1660.18 1029.49 1660.54 1031.29 1660.54 1033.32 1660.54 1036.45 1659.86 1039.24 1658.49 1041.67 1657.13 1044.1 1655.04 1046.02 1652.23 1047.42 1649.42 1048.83 1646.01 1049.53 1641.98 1049.53 1639.66 1049.53 1637.15 1049.27 1634.46 1048.74 1631.77 1048.21 1629.31 1047.52 1627.07 1046.65L1627.07 1038.06 1631.93 1038.06C1632.87 1040.87 1634.12 1042.91 1635.68 1044.18 1637.23 1045.45 1639.35 1046.09 1642.02 1046.09 1645.53 1046.09 1648.19 1045.13 1649.98 1043.21 1651.78 1041.29 1652.68 1038.45 1652.68 1034.7 1652.68 1030.75 1651.49 1027.74 1649.11 1025.66 1646.73 1023.58 1643.25 1022.54 1638.66 1022.54L1635.01 1022.54 1635.01 1018.97C1638.66 1018.76 1641.73 1018.05 1644.23 1016.87 1646.73 1015.68 1648.59 1014.15 1649.8 1012.29 1651.02 1010.42 1651.63 1008.33 1651.63 1006 1651.63 1003.01 1650.83 1000.7 1649.23 999.074 1647.64 997.453 1645.32 996.642 1642.26 996.642 1639.72 996.642 1637.66 997.331 1636.06 998.709 1634.47 1000.09 1633.29 1002.19 1632.54 1005.03L1627.67 1005.03 1627.67 997.331C1630.81 995.845 1633.74 994.738 1636.47 994.008 1639.2 993.279 1641.83 992.914 1644.37 992.914Z" fill-rule="evenodd"/><text fill="#000000" fill-opacity="0" font-family="Arial,Arial_MSFontService,sans-serif" font-size="56.6167" x="1627.07" y="1042.45">3</text><path d="M1728.57 1019.7C1727.25 1019.7 1725.97 1019.85 1724.74 1020.15 1723.51 1020.45 1722.36 1020.88 1721.28 1021.45 1720.2 1022.01 1719.14 1022.73 1718.12 1023.59 1717.79 1023.89 1717.55 1024.2 1717.39 1024.53 1717.12 1025.04 1716.94 1025.67 1716.86 1026.43 1716.78 1027.19 1716.74 1028.46 1716.74 1030.24 1716.74 1035.4 1717.6 1039.33 1719.33 1042.03 1721.06 1044.73 1723.68 1046.09 1727.19 1046.09 1729.22 1046.09 1730.92 1045.73 1732.3 1045.03 1733.68 1044.33 1734.79 1043.36 1735.64 1042.13 1736.5 1040.9 1737.1 1039.46 1737.47 1037.8 1737.83 1036.14 1738.02 1034.33 1738.02 1032.39 1738.02 1028.39 1737.19 1025.27 1735.54 1023.05 1733.9 1020.82 1731.57 1019.7 1728.57 1019.7ZM1738.99 992.914 1740.65 995.143 1740.65 997.129C1736.49 997.129 1732.8 998.02 1729.59 999.803 1726.37 1001.59 1723.7 1004.21 1721.58 1007.67 1719.46 1011.12 1717.97 1015.23 1717.1 1019.99L1717.51 1020.15C1719.78 1018.53 1722.01 1017.34 1724.22 1016.58 1726.42 1015.83 1728.8 1015.45 1731.37 1015.45 1734.42 1015.45 1737.02 1016.12 1739.17 1017.45 1741.32 1018.79 1742.93 1020.67 1744.01 1023.09 1745.09 1025.5 1745.63 1028.33 1745.63 1031.58 1745.63 1035.09 1744.96 1038.19 1743.61 1040.88 1742.26 1043.57 1740.17 1045.68 1737.35 1047.22 1734.52 1048.76 1731.05 1049.53 1726.91 1049.53 1720.99 1049.53 1716.53 1047.69 1713.52 1044.02 1710.5 1040.34 1709 1034.93 1709 1027.77 1709 1022.96 1709.75 1018.46 1711.27 1014.27 1712.78 1010.08 1714.93 1006.43 1717.71 1003.31 1720.49 1000.19 1723.72 997.73 1727.4 995.933 1731.07 994.136 1734.94 993.13 1738.99 992.914Z" fill-rule="evenodd"/><text fill="#000000" fill-opacity="0" font-family="Arial,Arial_MSFontService,sans-serif" font-size="56.6167" x="1709" y="1042.45">6</text><path d="M1807.42 930.215 1857.35 930.215 1857.35 935.605 1807.42 935.605ZM1807.42 913.396 1857.35 913.396 1857.35 918.786 1807.42 918.786Z" fill-rule="evenodd"/><text fill="#000000" fill-opacity="0" font-family="Arial,Arial_MSFontService,sans-serif" font-size="22.209" x="1807.42" y="932.829">=</text><path d="M2049.23 801.442 2071.28 801.442 2071.28 1047.61 2049.23 1047.61 2049.23 1043.63 2062.93 1043.63 2062.93 805.414 2049.23 805.414ZM1895.41 801.442 1917.46 801.442 1917.46 805.414 1903.76 805.414 1903.76 1043.63 1917.46 1043.63 1917.46 1047.61 1895.41 1047.61Z" fill-rule="evenodd"/><path d="M1945.26 799.451 1947.49 799.451C1947.33 802.045 1947.24 805.638 1947.24 810.232L1947.24 844.842C1947.24 846.409 1947.33 847.591 1947.51 848.388 1947.68 849.185 1947.99 849.834 1948.44 850.333 1948.89 850.833 1949.53 851.225 1950.36 851.509 1951.2 851.792 1952.26 852.008 1953.53 852.157 1954.8 852.306 1956.47 852.407 1958.55 852.461L1958.55 855.42 1928.6 855.42 1928.6 852.461C1931.6 852.326 1933.74 852.144 1935.03 851.914 1936.31 851.684 1937.29 851.34 1937.96 850.88 1938.64 850.421 1939.13 849.773 1939.44 848.935 1939.75 848.098 1939.91 846.733 1939.91 844.842L1939.91 811.974C1939.91 810.893 1939.72 810.103 1939.34 809.603 1938.96 809.104 1938.41 808.854 1937.68 808.854 1936.81 808.854 1935.59 809.299 1933.99 810.191 1932.4 811.083 1930.43 812.312 1928.07 813.879L1926.29 810.758Z" fill-rule="evenodd"/><text fill="#000000" fill-opacity="0" font-family="Arial,Arial_MSFontService,sans-serif" font-size="55.9683" x="1926.29" y="848.424">1</text><path d="M2027.23 808.975 2011.39 834.143 2011.39 834.71 2027.23 834.71 2027.23 824.619C2027.23 822.079 2027.27 819.235 2027.35 816.088 2027.43 812.94 2027.53 810.569 2027.64 808.975ZM2028.41 799.816 2034.2 799.816 2034.2 834.71 2035.05 834.71C2036.62 834.71 2037.74 834.595 2038.42 834.366 2039.09 834.136 2039.65 833.731 2040.1 833.15 2040.54 832.569 2040.96 831.617 2041.33 830.293L2044.41 830.293 2043.93 838.641 2034.2 838.641 2034.2 845.288C2034.2 847.098 2034.26 848.422 2034.38 849.259 2034.51 850.097 2034.71 850.759 2034.99 851.245 2035.28 851.732 2035.69 852.137 2036.25 852.461 2036.8 852.785 2037.7 853.109 2038.94 853.434L2038.94 855.42 2022.49 855.42 2022.49 853.434C2024.16 853.001 2025.29 852.522 2025.85 851.995 2026.42 851.468 2026.79 850.718 2026.97 849.746 2027.14 848.773 2027.23 847.287 2027.23 845.288L2027.23 838.641 2004.7 838.641 2004.7 835.602Z" fill-rule="evenodd"/><text fill="#000000" fill-opacity="0" font-family="Arial,Arial_MSFontService,sans-serif" font-size="55.6035" x="2004.7" y="848.469">4</text><path d="M1942.38 896.183C1947.41 896.183 1951.2 897.284 1953.77 899.486 1956.34 901.688 1957.62 904.882 1957.62 909.07 1957.62 910.502 1957.48 911.819 1957.19 913.022 1956.91 914.224 1956.46 915.413 1955.86 916.588 1955.25 917.763 1954.43 919.026 1953.4 920.377 1952.38 921.728 1951.24 923.099 1950 924.491 1948.76 925.882 1946.61 928.199 1943.56 931.441 1938.42 936.872 1934.65 941.614 1932.25 945.666L1947.53 945.666C1948.85 945.666 1949.92 945.585 1950.73 945.423 1951.54 945.261 1952.19 944.991 1952.67 944.613 1953.16 944.234 1953.55 943.741 1953.83 943.133 1954.11 942.526 1954.47 941.587 1954.9 940.317L1958.35 940.317 1957.66 952.151 1924.31 952.151 1924.31 950.206C1925.47 947.369 1927.03 944.464 1929.01 941.492 1930.98 938.52 1933.78 935.021 1937.4 930.996 1940.53 927.537 1942.79 924.916 1944.16 923.133 1945.68 921.188 1946.8 919.506 1947.55 918.088 1948.29 916.669 1948.82 915.332 1949.15 914.075 1949.47 912.819 1949.64 911.556 1949.64 910.286 1949.64 908.26 1949.31 906.47 1948.66 904.916 1948.01 903.363 1947.02 902.14 1945.68 901.248 1944.35 900.357 1942.66 899.911 1940.64 899.911 1935.59 899.911 1932.18 902.721 1930.43 908.341L1925.52 908.341 1925.52 900.56C1928.79 899.019 1931.85 897.905 1934.7 897.216 1937.55 896.527 1940.11 896.183 1942.38 896.183Z" fill-rule="evenodd"/><text fill="#000000" fill-opacity="0" font-family="Arial,Arial_MSFontService,sans-serif" font-size="55.9683" x="1924.31" y="945.155">2</text><path d="M2036.23 894.156 2039.39 894.156 2038.78 903.559 2015.48 903.559 2015.48 921.35C2016.88 920.756 2018.41 920.31 2020.06 920.013 2021.71 919.715 2023.35 919.567 2025 919.567 2028.22 919.567 2031.07 920.222 2033.55 921.532 2036.04 922.843 2037.96 924.707 2039.31 927.125 2040.66 929.543 2041.33 932.346 2041.33 935.535 2041.33 939.155 2040.58 942.262 2039.07 944.856 2037.55 947.45 2035.36 949.422 2032.5 950.773 2029.64 952.124 2026.25 952.799 2022.33 952.799 2017.65 952.799 2012.76 951.84 2007.66 949.922L2007.66 941.33 2012.56 941.33C2013.37 944.086 2014.59 946.112 2016.23 947.409 2017.86 948.706 2019.98 949.354 2022.57 949.354 2026.16 949.354 2028.88 948.274 2030.72 946.112 2032.55 943.951 2033.47 940.722 2033.47 936.426 2033.47 933.562 2032.99 931.191 2032.01 929.314 2031.04 927.436 2029.73 926.078 2028.08 925.241 2026.43 924.403 2024.52 923.984 2022.33 923.984 2020.49 923.984 2018.91 924.099 2017.59 924.329 2016.26 924.558 2014.84 924.916 2013.33 925.403L2010.09 923.498 2010.09 896.831 2032.42 896.831C2033.34 896.831 2034 896.757 2034.4 896.608 2034.81 896.459 2035.13 896.23 2035.38 895.919 2035.62 895.608 2035.9 895.021 2036.23 894.156Z" fill-rule="evenodd"/><text fill="#000000" fill-opacity="0" font-family="Arial,Arial_MSFontService,sans-serif" font-size="58.6431" x="2007.66" y="945.469">5</text><path d="M1942.22 992.914C1945.27 992.914 1947.95 993.387 1950.24 994.332 1952.54 995.278 1954.3 996.636 1955.51 998.405 1956.73 1000.17 1957.34 1002.29 1957.34 1004.75 1957.34 1007.04 1956.88 1009.06 1955.96 1010.81 1955.04 1012.55 1953.75 1014.07 1952.09 1015.37 1950.43 1016.66 1948.27 1017.93 1945.62 1019.18L1945.62 1019.54C1947.27 1019.84 1948.86 1020.34 1950.38 1021.06 1951.91 1021.78 1953.27 1022.7 1954.46 1023.84 1955.65 1024.97 1956.6 1026.33 1957.32 1027.91 1958.03 1029.49 1958.39 1031.29 1958.39 1033.32 1958.39 1036.45 1957.71 1039.24 1956.34 1041.67 1954.98 1044.1 1952.89 1046.02 1950.08 1047.42 1947.27 1048.83 1943.85 1049.53 1939.83 1049.53 1937.5 1049.53 1935 1049.27 1932.31 1048.74 1929.62 1048.21 1927.16 1047.52 1924.91 1046.65L1924.91 1038.06 1929.78 1038.06C1930.72 1040.87 1931.97 1042.91 1933.53 1044.18 1935.08 1045.45 1937.19 1046.09 1939.87 1046.09 1943.38 1046.09 1946.03 1045.13 1947.83 1043.21 1949.63 1041.29 1950.53 1038.45 1950.53 1034.7 1950.53 1030.75 1949.34 1027.74 1946.96 1025.66 1944.58 1023.58 1941.1 1022.54 1936.5 1022.54L1932.86 1022.54 1932.86 1018.97C1936.5 1018.76 1939.58 1018.05 1942.08 1016.87 1944.58 1015.68 1946.43 1014.15 1947.65 1012.29 1948.87 1010.42 1949.47 1008.33 1949.47 1006 1949.47 1003.01 1948.68 1000.7 1947.08 999.074 1945.49 997.453 1943.16 996.642 1940.11 996.642 1937.57 996.642 1935.5 997.331 1933.91 998.709 1932.32 1000.09 1931.14 1002.19 1930.38 1005.03L1925.52 1005.03 1925.52 997.331C1928.66 995.845 1931.59 994.738 1934.32 994.008 1937.04 993.279 1939.68 992.914 1942.22 992.914Z" fill-rule="evenodd"/><text fill="#000000" fill-opacity="0" font-family="Arial,Arial_MSFontService,sans-serif" font-size="56.6167" x="1924.91" y="1042.45">3</text><path d="M2026.42 1019.7C2025.1 1019.7 2023.82 1019.85 2022.59 1020.15 2021.36 1020.45 2020.21 1020.88 2019.13 1021.45 2018.05 1022.01 2016.99 1022.73 2015.96 1023.59 2015.64 1023.89 2015.4 1024.2 2015.24 1024.53 2014.97 1025.04 2014.79 1025.67 2014.71 1026.43 2014.63 1027.19 2014.59 1028.46 2014.59 1030.24 2014.59 1035.4 2015.45 1039.33 2017.18 1042.03 2018.91 1044.73 2021.53 1046.09 2025.04 1046.09 2027.07 1046.09 2028.77 1045.73 2030.15 1045.03 2031.53 1044.33 2032.64 1043.36 2033.49 1042.13 2034.34 1040.9 2034.95 1039.46 2035.32 1037.8 2035.68 1036.14 2035.86 1034.33 2035.86 1032.39 2035.86 1028.39 2035.04 1025.27 2033.39 1023.05 2031.74 1020.82 2029.42 1019.7 2026.42 1019.7ZM2036.84 992.914 2038.5 995.143 2038.5 997.129C2034.34 997.129 2030.65 998.02 2027.43 999.803 2024.22 1001.59 2021.55 1004.21 2019.43 1007.67 2017.31 1011.12 2015.82 1015.23 2014.95 1019.99L2015.36 1020.15C2017.63 1018.53 2019.86 1017.34 2022.06 1016.58 2024.27 1015.83 2026.65 1015.45 2029.22 1015.45 2032.27 1015.45 2034.87 1016.12 2037.02 1017.45 2039.17 1018.79 2040.78 1020.67 2041.86 1023.09 2042.94 1025.5 2043.48 1028.33 2043.48 1031.58 2043.48 1035.09 2042.81 1038.19 2041.46 1040.88 2040.11 1043.57 2038.02 1045.68 2035.19 1047.22 2032.37 1048.76 2028.89 1049.53 2024.76 1049.53 2018.84 1049.53 2014.38 1047.69 2011.36 1044.02 2008.35 1040.34 2006.85 1034.93 2006.85 1027.77 2006.85 1022.96 2007.6 1018.46 2009.12 1014.27 2010.63 1010.08 2012.78 1006.43 2015.56 1003.31 2018.34 1000.19 2021.57 997.73 2025.25 995.933 2028.92 994.136 2032.78 993.13 2036.84 992.914Z" fill-rule="evenodd"/><text fill="#000000" fill-opacity="0" font-family="Arial,Arial_MSFontService,sans-serif" font-size="56.6167" x="2006.85" y="1042.45">6</text></g></svg>