<svg xmlns="http://www.w3.org/2000/svg" xmlns:xlink="http://www.w3.org/1999/xlink" viewBox="0 0 120.46 31.56"><defs><style>.cls-1,.cls-2,.cls-5,.cls-9{fill:none;}.cls-2,.cls-5{stroke:#231f20;}.cls-2{stroke-miterlimit:3.86;stroke-width:0.35px;}.cls-3,.cls-6{fill:#231f20;}.cls-4{clip-path:url(#clip-path);}.cls-5,.cls-9{stroke-linejoin:round;}.cls-5{stroke-width:0.5px;}.cls-6{font-size:8.5px;font-family:TimesNewRomanPSMT, Times New Roman;}.cls-7{letter-spacing:0.05em;}.cls-8{letter-spacing:0.04em;}.cls-9{stroke:#ed1c29;stroke-width:0.8px;}.cls-10{fill:#fff;}</style><clipPath id="clip-path" transform="translate(0 0)"><rect class="cls-1" width="120.46" height="31.84"/></clipPath></defs><g id="Layer_2" data-name="Layer 2"><g id="Layer_1-2" data-name="Layer 1"><line class="cls-2" x1="2.68" y1="25.81" x2="45.73" y2="25.81"/><polygon class="cls-3" points="0.28 25.81 3.44 27.01 2.68 25.81 3.44 24.61 0.28 25.81"/><polygon class="cls-3" points="48.14 25.81 44.98 27.01 45.73 25.81 44.98 24.6 48.14 25.81"/><g class="cls-4"><path class="cls-2" d="M51.09,1.3c1.37.05,1.59,1.27,1.64,2.8V7.28c.06,1.53-.08,2.75,1.29,2.8-1.37.05-1.23,1.28-1.29,2.8v3.69c0,1.53-.29,2.91-1.66,3" transform="translate(0 0)"/><line class="cls-5" x1="48.23" y1="1.11" x2="48.23" y2="19.91"/></g><text class="cls-6" transform="translate(56.23 11.96)"><tspan class="cls-7">u</tspan><tspan x="4.67" y="0">(</tspan></text><text class="cls-6" transform="translate(63.63 11.96)">x, <tspan class="cls-8" x="8.5" y="0">t</tspan><tspan x="11.24" y="0">)</tspan></text><g class="cls-4"><line class="cls-5" x1="0.23" y1="19.91" x2="120.23" y2="19.91"/><path class="cls-9" d="M120.23,19.91c-35.5-25-82.5-27-120,0" transform="translate(0 0)"/><rect class="cls-10" x="21.13" y="21.56" width="8" height="10"/></g><g class="cls-4"><text class="cls-6" transform="translate(23.12 27.91)">x</text><path class="cls-2" d="M48.23,21.91v8m-48-8v8" transform="translate(0 0)"/></g></g></g></svg>