<svg version="1.1" xmlns="http://www.w3.org/2000/svg" viewBox="0 0 852.6602765630678 460.40786696037935" width="852.6602765630678" height="460.40786696037935">
  <!-- svg-source:excalidraw -->
  
  <defs>
    <style class="style-fonts">
      @font-face {
        font-family: "Virgil";
        src: url("https://excalidraw.com/Virgil.woff2");
      }
      @font-face {
        font-family: "Cascadia";
        src: url("https://excalidraw.com/Cascadia.woff2");
      }
    </style>
  </defs>
  <g stroke-linecap="round" transform="translate(135.92636180259342 116.99236226627727) rotate(0 52.70029727996257 25.52022583955238)"><path d="M12.76 0 M12.76 0 C30.43 -1.48, 52.09 -1.59, 92.64 0 M12.76 0 C36.54 -0.79, 60.97 -0.39, 92.64 0 M92.64 0 C100.72 -1.25, 106.84 3.71, 105.4 12.76 M92.64 0 C101.42 -0.13, 105.01 5.12, 105.4 12.76 M105.4 12.76 C106.88 21.85, 104.99 32.83, 105.4 38.28 M105.4 12.76 C105.08 18.22, 106.24 23.79, 105.4 38.28 M105.4 38.28 C106.71 46.04, 100.55 52.86, 92.64 51.04 M105.4 38.28 C105.01 48.96, 101.16 50.63, 92.64 51.04 M92.64 51.04 C65.11 50.56, 42.29 52.64, 12.76 51.04 M92.64 51.04 C61.55 50.61, 30.54 51.3, 12.76 51.04 M12.76 51.04 C4.67 51.46, -1.85 44.85, 0 38.28 M12.76 51.04 C5.9 49.58, 1.31 44.95, 0 38.28 M0 38.28 C0.59 30.74, -0.53 22.09, 0 12.76 M0 38.28 C-0.25 27.65, 0.15 18.38, 0 12.76 M0 12.76 C0.92 5.23, 3.59 -0.75, 12.76 0 M0 12.76 C0.48 3.4, 5.02 -1.08, 12.76 0" stroke="#000000" stroke-width="2" fill="none"></path></g><g stroke-linecap="round"><g transform="translate(188.62664483593198 116.57740086606282) rotate(0 0.5273920875761178 27.18061887089175)"><path d="M-0.57 0.7 C-0.81 9.64, -0.8 44.08, -0.63 52.77 M1.33 0.02 C1.42 9.24, 1.99 45.31, 1.74 54.34" stroke="#000000" stroke-width="2" fill="none"></path></g></g><g stroke-linecap="round"><g transform="translate(242.1568791629461 142.51258098251765) rotate(0 -52.67116138011693 0.4007712007687587)"><path d="M-0.63 0.07 C-18.18 -0.03, -88.11 0.29, -105.83 0.14 M1.23 -0.94 C-16.38 -0.88, -88.95 1.58, -106.58 1.74" stroke="#000000" stroke-width="2" fill="none"></path></g></g><g transform="translate(142.81392818973382 120.78140141172298) rotate(0 20.5 10)"><text x="20.5" y="14" font-family="Virgil, Segoe UI Emoji" font-size="16px" fill="#000000" text-anchor="middle" style="white-space: pre;" direction="ltr">data</text></g><g transform="translate(196.25062171050467 120.78140141172298) rotate(0 18 10)"><text x="18" y="14" font-family="Virgil, Segoe UI Emoji" font-size="16px" fill="#000000" text-anchor="middle" style="white-space: pre;" direction="ltr">next</text></g><g stroke-linecap="round" transform="translate(189.04162048276976 142.92755662935542) rotate(0 25.72770653965972 11.826442645981956)"><path d="M1.57 1.37 C1.57 1.37, 1.57 1.37, 1.57 1.37 M1.57 1.37 C1.57 1.37, 1.57 1.37, 1.57 1.37 M4.99 9.64 C6.61 7.91, 8.17 5.82, 10.24 3.6 M4.99 9.64 C6.65 7.93, 8.03 6.33, 10.24 3.6 M3.81 23.19 C10.13 17.92, 12.5 13.07, 20.87 3.56 M3.81 23.19 C7.78 18.68, 13.41 13.65, 20.87 3.56 M13.78 23.91 C19.14 15.5, 27.24 8.9, 31.5 3.53 M13.78 23.91 C20.37 16.9, 25.91 10.2, 31.5 3.53 M24.41 23.87 C30.34 18.34, 34.56 11.54, 41.47 4.25 M24.41 23.87 C30.78 15.64, 37.75 8.64, 41.47 4.25 M35.04 23.84 C40.1 17.52, 46.01 10.98, 52.1 4.21 M35.04 23.84 C39.15 18.31, 43.21 14.02, 52.1 4.21 M45.67 23.8 C47.59 20.37, 50.7 17.14, 52.23 16.26 M45.67 23.8 C48.28 21.09, 49.91 18.57, 52.23 16.26" stroke="#ced4da" stroke-width="1" fill="none"></path><path d="M5.91 0 M5.91 0 C23.13 0.16, 38.57 -0.05, 45.54 0 M5.91 0 C17.95 -0.88, 27.74 -0.83, 45.54 0 M45.54 0 C47.82 -1.69, 52.55 2.57, 51.46 5.91 M45.54 0 C47.76 1.35, 49.43 2.17, 51.46 5.91 M51.46 5.91 C50.24 7.91, 51.2 9.84, 51.46 17.74 M51.46 5.91 C51.1 9.59, 51.39 14.16, 51.46 17.74 M51.46 17.74 C52.1 21.09, 48.36 21.99, 45.54 23.65 M51.46 17.74 C51.23 19.72, 48.03 23.14, 45.54 23.65 M45.54 23.65 C32.93 24.43, 15.13 24.97, 5.91 23.65 M45.54 23.65 C35.66 23.58, 26.82 24.31, 5.91 23.65 M5.91 23.65 C0.49 24.4, -1.6 20.36, 0 17.74 M5.91 23.65 C0.03 22.55, -0.11 19.93, 0 17.74 M0 17.74 C0.44 14.58, -0.86 10.52, 0 5.91 M0 17.74 C0.41 14.05, 0.06 9.34, 0 5.91 M0 5.91 C-1.59 1.9, 0.1 -0.79, 5.91 0 M0 5.91 C0.1 0.08, 3.03 0.84, 5.91 0" stroke="#000000" stroke-width="2" fill="none"></path></g><g transform="translate(149.33683821227805 147.21889981176173) rotate(0 12.5 10)"><text x="12.5" y="14" font-family="Virgil, Segoe UI Emoji" font-size="16px" fill="#000000" text-anchor="middle" style="white-space: pre;" direction="ltr">20</text></g><g stroke-linecap="round" transform="translate(293.76453012092725 116.99236226627727) rotate(0 52.70029727996257 25.52022583955238)"><path d="M12.76 0 M12.76 0 C34.49 -0.34, 57.19 -0.91, 92.64 0 M12.76 0 C40.39 -0.15, 66.54 -1.1, 92.64 0 M92.64 0 C102.34 -1.54, 106.88 3.49, 105.4 12.76 M92.64 0 C99.99 -0.52, 106.9 3.45, 105.4 12.76 M105.4 12.76 C107.12 21.75, 107.19 31.42, 105.4 38.28 M105.4 12.76 C106.08 19.1, 104.97 27.78, 105.4 38.28 M105.4 38.28 C106.51 48.52, 102.74 51.6, 92.64 51.04 M105.4 38.28 C104.89 45.29, 100.32 51.13, 92.64 51.04 M92.64 51.04 C65.07 51.74, 40.12 51.44, 12.76 51.04 M92.64 51.04 C74.09 51.37, 57.67 50.81, 12.76 51.04 M12.76 51.04 C4.04 52.75, 1.46 45.35, 0 38.28 M12.76 51.04 C4.1 49.22, 0.76 46.27, 0 38.28 M0 38.28 C-0.88 29.87, -0.87 21.28, 0 12.76 M0 38.28 C-0.23 31.32, -0.49 25.54, 0 12.76 M0 12.76 C1.52 3.88, 6.22 -1.14, 12.76 0 M0 12.76 C-1.21 4.43, 2.14 0.52, 12.76 0" stroke="#000000" stroke-width="2" fill="none"></path></g><g stroke-linecap="round"><g transform="translate(346.4648131542658 116.57740086606282) rotate(0 -0.6903207810239564 26.003785983491753)"><path d="M0.14 -0.07 C-0.04 8.85, -0.32 44.17, -0.2 53.15 M-1.24 -1.15 C-1.67 7.43, -1.55 42.39, -1.26 51.27" stroke="#000000" stroke-width="2" fill="none"></path></g></g><g stroke-linecap="round"><g transform="translate(399.9950474812799 142.51258098251765) rotate(0 -53.051124231503536 0.3864980555248394)"><path d="M-0.2 0.45 C-17.79 0.66, -87.85 1.1, -105.39 1.15 M-1.77 -0.36 C-19.46 -0.45, -88.56 -0.22, -105.9 -0.36" stroke="#000000" stroke-width="2" fill="none"></path></g></g><g transform="translate(300.65209650806764 120.78140141172298) rotate(0 20.5 10)"><text x="20.5" y="14" font-family="Virgil, Segoe UI Emoji" font-size="16px" fill="#000000" text-anchor="middle" style="white-space: pre;" direction="ltr">data</text></g><g transform="translate(354.0887900288385 120.78140141172298) rotate(0 18 10)"><text x="18" y="14" font-family="Virgil, Segoe UI Emoji" font-size="16px" fill="#000000" text-anchor="middle" style="white-space: pre;" direction="ltr">next</text></g><g stroke-linecap="round" transform="translate(346.8797888011036 142.92755662935542) rotate(0 25.72770653965972 11.826442645981956)"><path d="M1.57 1.37 C1.57 1.37, 1.57 1.37, 1.57 1.37 M1.57 1.37 C1.57 1.37, 1.57 1.37, 1.57 1.37 M4.99 9.64 C7.11 8.02, 7.63 6.56, 10.24 3.6 M4.99 9.64 C6.17 8.3, 7.99 6.78, 10.24 3.6 M3.81 23.19 C8.92 15.06, 16.77 8.75, 20.87 3.56 M3.81 23.19 C10.18 16.42, 15.51 9.96, 20.87 3.56 M13.78 23.91 C19.91 18.14, 24.34 11.11, 31.5 3.53 M13.78 23.91 C20.4 15.39, 27.62 8.1, 31.5 3.53 M24.41 23.87 C29.47 17.56, 35.38 11.01, 41.47 4.25 M24.41 23.87 C28.52 18.34, 32.58 14.05, 41.47 4.25 M35.04 23.84 C40.36 15.24, 48.07 7.07, 52.1 4.21 M35.04 23.84 C41.55 16.95, 46.08 10.45, 52.1 4.21 M45.67 23.8 C49.15 20.86, 51.74 17.84, 52.23 16.26 M45.67 23.8 C47.88 21.21, 49 19.09, 52.23 16.26" stroke="#ced4da" stroke-width="1" fill="none"></path><path d="M5.91 0 M5.91 0 C15.1 -1.72, 24.27 -1.98, 45.54 0 M5.91 0 C17.27 -0.73, 30 0.09, 45.54 0 M45.54 0 C47.89 0.86, 51.31 0.98, 51.46 5.91 M45.54 0 C48.15 -1.47, 51.23 2.49, 51.46 5.91 M51.46 5.91 C50.43 9.73, 50.41 13.03, 51.46 17.74 M51.46 5.91 C51.82 9.68, 51.7 11.9, 51.46 17.74 M51.46 17.74 C52.57 20.3, 48.18 25.24, 45.54 23.65 M51.46 17.74 C49.76 20.8, 48.49 24.45, 45.54 23.65 M45.54 23.65 C35.26 21.65, 26.66 23.24, 5.91 23.65 M45.54 23.65 C36.66 23.67, 28.64 22.57, 5.91 23.65 M5.91 23.65 C3.82 24.8, 1.2 19.86, 0 17.74 M5.91 23.65 C3.86 25.75, 0.5 21.88, 0 17.74 M0 17.74 C-0.46 15.19, -0.97 13.07, 0 5.91 M0 17.74 C0.31 13.39, -0.53 9.68, 0 5.91 M0 5.91 C-0.06 3.9, 3.66 -1.69, 5.91 0 M0 5.91 C-1.14 1.34, 0.38 0.87, 5.91 0" stroke="#000000" stroke-width="2" fill="none"></path></g><g transform="translate(307.6750065306119 147.21889981176173) rotate(0 12 10)"><text x="12" y="14" font-family="Virgil, Segoe UI Emoji" font-size="16px" fill="#000000" text-anchor="middle" style="white-space: pre;" direction="ltr">30</text></g><g stroke-linecap="round"><g transform="translate(258.58372455847666 155.41090299392954) rotate(0 18.73025322144008 -0.30792783368372056)"><path d="M0.89 -0.46 C6.63 -0.35, 29.22 -0.28, 35.17 -0.27 M-0.1 -1.74 C5.98 -1.37, 31.51 0.72, 37.56 1.13" stroke="#000000" stroke-width="1" fill="none"></path></g><g transform="translate(258.58372455847666 155.41090299392954) rotate(0 18.73025322144008 -0.30792783368372056)"><path d="M19.66 5.06 C26.17 5.26, 32.14 3.53, 36.89 0.59 M20.35 5.81 C27.28 3.63, 34.36 1.24, 37.13 1.68" stroke="#000000" stroke-width="1" fill="none"></path></g><g transform="translate(258.58372455847666 155.41090299392954) rotate(0 18.73025322144008 -0.30792783368372056)"><path d="M20.58 -7.14 C26.67 -2.55, 32.31 0.11, 36.89 0.59 M21.27 -6.4 C27.82 -3.79, 34.54 -1.41, 37.13 1.68" stroke="#000000" stroke-width="1" fill="none"></path></g></g><g transform="translate(24.315490369807776 147.21889981176173) rotate(0 13.5 10)"><text x="13.5" y="14" font-family="Virgil, Segoe UI Emoji" font-size="16px" fill="#000000" text-anchor="middle" style="white-space: pre;" direction="ltr">list</text></g><g stroke-linecap="round"><g transform="translate(58.7568064326033 156.0662108483075) rotate(0 30.501481261675735 -0.4151739208772369)"><path d="M0.78 -0.42 C11.09 -0.45, 51.38 -0.7, 61.27 -0.45 M-0.27 -1.68 C10.01 -1.52, 50.83 0.69, 60.74 0.85" stroke="#000000" stroke-width="1" fill="none"></path></g><g transform="translate(58.7568064326033 156.0662108483075) rotate(0 30.501481261675735 -0.4151739208772369)"><path d="M31.48 11.35 C38.58 6.97, 48.26 4.93, 62.62 0.86 M32.8 9.17 C39.73 8.15, 48.83 5.81, 61.53 1.13" stroke="#000000" stroke-width="1" fill="none"></path></g><g transform="translate(58.7568064326033 156.0662108483075) rotate(0 30.501481261675735 -0.4151739208772369)"><path d="M32.26 -9.16 C39.11 -8.42, 48.61 -5.34, 62.62 0.86 M33.57 -11.34 C40.34 -6.57, 49.22 -3.12, 61.53 1.13" stroke="#000000" stroke-width="1" fill="none"></path></g></g><g stroke-linecap="round"><g transform="translate(346.9101475360576 168.50447872917766) rotate(0 24.32466476531613 -12.424657372461638)"><path d="M0.79 -0.45 C8.81 -4.19, 40.86 -19.12, 48.91 -22.85 M-0.26 -1.73 C7.5 -5.74, 39.7 -20.6, 47.78 -24.4" stroke="#000000" stroke-width="1" fill="none"></path></g></g><g transform="translate(147.90512425963152 31.298341518661573) rotate(0 21 10)"><text x="21" y="14" font-family="Virgil, Segoe UI Emoji" font-size="16px" fill="#000000" text-anchor="middle" style="white-space: pre;" direction="ltr">front</text></g><g stroke-linecap="round"><g transform="translate(167.09582990979197 58.277715796394205) rotate(0 -0.884183495927573 25.858948293668732)"><path d="M-0.2 1.13 C-0.14 9.22, -0.07 41.56, 0.01 49.61 M-1.77 0.68 C-1.84 9.47, -1.17 42.72, -0.94 51.04" stroke="#000000" stroke-width="1" fill="none"></path></g><g transform="translate(167.09582990979197 58.277715796394205) rotate(0 -0.884183495927573 25.858948293668732)"><path d="M-8.11 27.84 C-7.69 34.58, -5.51 41.63, -2.67 50.06 M-9.2 28.11 C-6.81 35.49, -3.68 44.57, -0.73 51.25" stroke="#000000" stroke-width="1" fill="none"></path></g><g transform="translate(167.09582990979197 58.277715796394205) rotate(0 -0.884183495927573 25.858948293668732)"><path d="M8.93 27.45 C4.74 34.26, 2.32 41.42, -2.67 50.06 M7.84 27.72 C4.07 35.39, 1.04 44.61, -0.73 51.25" stroke="#000000" stroke-width="1" fill="none"></path></g></g><g stroke-linecap="round" transform="translate(135.92636180259342 364.16482069533936) rotate(0 52.70029727996257 25.520225839552268)"><path d="M12.76 0 M12.76 0 C34.54 0.35, 56.78 -1.76, 92.64 0 M12.76 0 C34.93 0.78, 58.24 0.31, 92.64 0 M92.64 0 C102.53 -0.34, 105.33 3.28, 105.4 12.76 M92.64 0 C100.92 1.11, 106.31 4.48, 105.4 12.76 M105.4 12.76 C105.64 23.81, 103.61 32.11, 105.4 38.28 M105.4 12.76 C106.32 19.55, 106.25 25.24, 105.4 38.28 M105.4 38.28 C104.94 45.3, 101.04 49.07, 92.64 51.04 M105.4 38.28 C107.61 47.73, 101.23 50.63, 92.64 51.04 M92.64 51.04 C76.07 51.28, 60.72 52.76, 12.76 51.04 M92.64 51.04 C62 50.13, 29.82 50.42, 12.76 51.04 M12.76 51.04 C4 49.73, 1.61 45.42, 0 38.28 M12.76 51.04 C2.47 51.6, 0.12 48.34, 0 38.28 M0 38.28 C-1.2 29.18, 0.59 19.88, 0 12.76 M0 38.28 C1 31.99, 0.31 25.21, 0 12.76 M0 12.76 C1.88 3.1, 3.76 1.9, 12.76 0 M0 12.76 C-0.03 2.94, 3.3 -0.6, 12.76 0" stroke="#000000" stroke-width="2" fill="none"></path></g><g stroke-linecap="round"><g transform="translate(188.62664483593198 363.7498592951249) rotate(0 0.021791524719446898 25.99885261902591)"><path d="M-0.35 0.24 C-0.29 8.84, -0.47 42.97, -0.44 51.68 M1.66 -0.68 C1.6 8.03, -1.17 43.61, -1.62 52.68" stroke="#000000" stroke-width="2" fill="none"></path></g></g><g stroke-linecap="round"><g transform="translate(242.1568791629461 389.6850394115802) rotate(0 -53.50687895592773 -0.21514376331106178)"><path d="M0.24 -0.44 C-17.65 -0.41, -89.48 -0.18, -107.25 -0.17 M-1.09 -1.71 C-18.63 -1.46, -87.38 0.86, -105.08 1.28" stroke="#000000" stroke-width="2" fill="none"></path></g></g><g transform="translate(142.81392818973382 367.95385984078507) rotate(0 20.5 10)"><text x="20.5" y="14" font-family="Virgil, Segoe UI Emoji" font-size="16px" fill="#000000" text-anchor="middle" style="white-space: pre;" direction="ltr">data</text></g><g transform="translate(196.25062171050467 367.95385984078507) rotate(0 18 10)"><text x="18" y="14" font-family="Virgil, Segoe UI Emoji" font-size="16px" fill="#000000" text-anchor="middle" style="white-space: pre;" direction="ltr">next</text></g><g stroke-linecap="round" transform="translate(189.04162048276976 390.10001505841797) rotate(0 25.72770653965972 11.826442645981842)"><path d="M1.57 1.37 C1.57 1.37, 1.57 1.37, 1.57 1.37 M1.57 1.37 C1.57 1.37, 1.57 1.37, 1.57 1.37 M4.99 9.64 C7.58 6.84, 8.59 5.61, 10.24 3.6 M4.99 9.64 C6.68 7.68, 8.62 5.85, 10.24 3.6 M3.81 23.19 C8.61 15.6, 14.38 8.88, 20.87 3.56 M3.81 23.19 C10.3 14.5, 17.75 8.47, 20.87 3.56 M13.78 23.91 C20.32 19.41, 25.95 10.4, 31.5 3.53 M13.78 23.91 C20.43 15.93, 26.84 9.04, 31.5 3.53 M24.41 23.87 C28.62 20.64, 34.31 15.79, 41.47 4.25 M24.41 23.87 C28.75 20.14, 31.9 14.65, 41.47 4.25 M35.04 23.84 C41.71 17.25, 49.45 7.98, 52.1 4.21 M35.04 23.84 C38.98 18.02, 43.99 13.28, 52.1 4.21 M45.67 23.8 C47.22 22.14, 49.8 20.32, 52.23 16.26 M45.67 23.8 C47.03 21.21, 49.19 19.12, 52.23 16.26" stroke="#ced4da" stroke-width="1" fill="none"></path><path d="M5.91 0 M5.91 0 C17.64 2.19, 25.3 -0.64, 45.54 0 M5.91 0 C14.38 0.03, 24.62 0.92, 45.54 0 M45.54 0 C48.13 -0.81, 50.79 3.23, 51.46 5.91 M45.54 0 C48.17 -0.76, 50.54 4.04, 51.46 5.91 M51.46 5.91 C51.73 8.77, 52.4 14.71, 51.46 17.74 M51.46 5.91 C51.55 9.04, 51.61 11.79, 51.46 17.74 M51.46 17.74 C51.41 21.12, 48.05 24.62, 45.54 23.65 M51.46 17.74 C51.15 23.27, 48.65 22.45, 45.54 23.65 M45.54 23.65 C31.66 25.7, 20.17 25.75, 5.91 23.65 M45.54 23.65 C31.38 24.4, 14.73 24, 5.91 23.65 M5.91 23.65 C2.49 22.63, -1.91 19.87, 0 17.74 M5.91 23.65 C1.73 23.48, -0.46 22.7, 0 17.74 M0 17.74 C-0.8 12.56, -0.02 8.96, 0 5.91 M0 17.74 C0.27 14.43, -0.23 11.07, 0 5.91 M0 5.91 C1.84 1.5, 1.08 -1.57, 5.91 0 M0 5.91 C1.59 3.89, 0.95 -0.62, 5.91 0" stroke="#000000" stroke-width="2" fill="none"></path></g><g transform="translate(149.80580604986153 394.39135824082337) rotate(0 12.5 10)"><text x="12.5" y="14" font-family="Virgil, Segoe UI Emoji" font-size="16px" fill="#000000" text-anchor="middle" style="white-space: pre;" direction="ltr">20</text></g><g stroke-linecap="round" transform="translate(293.76453012092725 364.16482069533936) rotate(0 52.70029727996257 25.520225839552268)"><path d="M12.76 0 M12.76 0 C41.65 -1.23, 67.98 0.3, 92.64 0 M12.76 0 C36.7 -1.47, 60.55 -0.13, 92.64 0 M92.64 0 C103.13 1.75, 104.04 2.55, 105.4 12.76 M92.64 0 C103.18 1.52, 104.19 2.19, 105.4 12.76 M105.4 12.76 C106.02 21.58, 105.8 26.02, 105.4 38.28 M105.4 12.76 C105.71 19.06, 105.77 24.42, 105.4 38.28 M105.4 38.28 C103.44 46.65, 101.76 49.8, 92.64 51.04 M105.4 38.28 C103.88 47.15, 101.93 49.61, 92.64 51.04 M92.64 51.04 C63.9 49.15, 34.82 50.78, 12.76 51.04 M92.64 51.04 C71.58 51.16, 50.84 51.48, 12.76 51.04 M12.76 51.04 C4.01 51.71, 1.75 45.89, 0 38.28 M12.76 51.04 C3.44 52.47, 0.45 47.33, 0 38.28 M0 38.28 C0.52 29.39, -0.89 18.45, 0 12.76 M0 38.28 C0.2 34.09, 0.81 27.93, 0 12.76 M0 12.76 C-1.65 4.64, 4.79 0.25, 12.76 0 M0 12.76 C1.07 3.29, 4.01 -0.01, 12.76 0" stroke="#000000" stroke-width="2" fill="none"></path></g><g stroke-linecap="round"><g transform="translate(346.4648131542658 363.7498592951249) rotate(0 -0.37691202344717567 27.087162234820426)"><path d="M-1.12 0.65 C-0.99 9.25, -0.32 43.89, -0.2 52.69 M0.5 -0.05 C0.53 9.27, -0.93 45.63, -1.25 54.23" stroke="#000000" stroke-width="2" fill="none"></path></g></g><g stroke-linecap="round"><g transform="translate(399.9950474812799 389.6850394115802) rotate(0 -54.0141966639319 -0.21862176939953315)"><path d="M-0.2 -0.01 C-17.79 0.01, -88.99 0.95, -106.66 0.76 M-1.77 -1.06 C-19.45 -1.43, -90.3 -1.06, -107.83 -0.96" stroke="#000000" stroke-width="2" fill="none"></path></g></g><g transform="translate(300.65209650806764 367.95385984078507) rotate(0 20.5 10)"><text x="20.5" y="14" font-family="Virgil, Segoe UI Emoji" font-size="16px" fill="#000000" text-anchor="middle" style="white-space: pre;" direction="ltr">data</text></g><g transform="translate(354.0887900288385 367.95385984078507) rotate(0 18 10)"><text x="18" y="14" font-family="Virgil, Segoe UI Emoji" font-size="16px" fill="#000000" text-anchor="middle" style="white-space: pre;" direction="ltr">next</text></g><g stroke-linecap="round" transform="translate(346.8797888011036 390.10001505841797) rotate(0 25.72770653965972 11.826442645981842)"><path d="M1.57 1.37 C1.57 1.37, 1.57 1.37, 1.57 1.37 M1.57 1.37 C1.57 1.37, 1.57 1.37, 1.57 1.37 M4.99 9.64 C6.43 7.57, 7.11 7.16, 10.24 3.6 M4.99 9.64 C6.88 7.64, 8.28 5.33, 10.24 3.6 M3.81 23.19 C9.88 17.49, 13.97 11.32, 20.87 3.56 M3.81 23.19 C7.31 17.82, 12.01 13.9, 20.87 3.56 M13.78 23.91 C18.47 17.99, 23.54 13.53, 31.5 3.53 M13.78 23.91 C19.16 17.81, 25.62 10.62, 31.5 3.53 M24.41 23.87 C30.93 16.94, 35.53 8.08, 41.47 4.25 M24.41 23.87 C28.11 20.8, 32.19 15.84, 41.47 4.25 M35.04 23.84 C38.96 20.45, 41.59 15.04, 52.1 4.21 M35.04 23.84 C40.2 17.08, 45.94 12.62, 52.1 4.21 M45.67 23.8 C48.11 22.81, 49.19 20.77, 52.23 16.26 M45.67 23.8 C46.66 22.71, 48.15 20.64, 52.23 16.26" stroke="#ced4da" stroke-width="1" fill="none"></path><path d="M5.91 0 M5.91 0 C17.05 2.2, 29.99 -1.02, 45.54 0 M5.91 0 C16.38 0.24, 28.31 0.24, 45.54 0 M45.54 0 C49.74 -0.03, 50.79 1.4, 51.46 5.91 M45.54 0 C50.85 1.97, 49.88 2.43, 51.46 5.91 M51.46 5.91 C51.44 9.58, 52.09 11.45, 51.46 17.74 M51.46 5.91 C51.17 8.23, 51.34 11.53, 51.46 17.74 M51.46 17.74 C49.64 23.2, 49.09 24.69, 45.54 23.65 M51.46 17.74 C53.07 20.28, 47.92 23.44, 45.54 23.65 M45.54 23.65 C34.07 23.28, 21.6 22.86, 5.91 23.65 M45.54 23.65 C33.03 24.12, 19.95 24.29, 5.91 23.65 M5.91 23.65 C3.32 24.95, 0.65 21.65, 0 17.74 M5.91 23.65 C2.08 23.67, -0.38 19.71, 0 17.74 M0 17.74 C-0.6 14.56, -0.37 12.09, 0 5.91 M0 17.74 C-0.31 12.75, 0.33 9.02, 0 5.91 M0 5.91 C-0.83 0.64, 3.48 -0.09, 5.91 0 M0 5.91 C1.71 0.67, 2.8 -1.76, 5.91 0" stroke="#000000" stroke-width="2" fill="none"></path></g><g transform="translate(307.6750065306119 394.39135824082337) rotate(0 12 10)"><text x="12" y="14" font-family="Virgil, Segoe UI Emoji" font-size="16px" fill="#000000" text-anchor="middle" style="white-space: pre;" direction="ltr">30</text></g><g stroke-linecap="round"><g transform="translate(258.58372455847666 402.58336142299163) rotate(0 17.385077280021278 -0.6196876022977449)"><path d="M-0.05 0.27 C5.8 0.19, 30.44 -1.29, 36.31 -1.51 M-1.54 -0.63 C4.1 -0.5, 29.7 -0.58, 35.64 -0.47" stroke="#000000" stroke-width="1" fill="none"></path></g><g transform="translate(258.58372455847666 402.58336142299163) rotate(0 17.385077280021278 -0.6196876022977449)"><path d="M19.2 6.35 C24.15 2.28, 31.54 1.2, 35.48 1.07 M18.59 4.88 C24.05 2.88, 30.3 2.22, 35.67 -0.63" stroke="#000000" stroke-width="1" fill="none"></path></g><g transform="translate(258.58372455847666 402.58336142299163) rotate(0 17.385077280021278 -0.6196876022977449)"><path d="M19.27 -5.89 C24.09 -5.08, 31.45 -1.29, 35.48 1.07 M18.66 -7.35 C24.19 -5.47, 30.42 -2.24, 35.67 -0.63" stroke="#000000" stroke-width="1" fill="none"></path></g></g><g transform="translate(24.315490369807776 394.39135824082337) rotate(0 13.5 10)"><text x="13.5" y="14" font-family="Virgil, Segoe UI Emoji" font-size="16px" fill="#000000" text-anchor="middle" style="white-space: pre;" direction="ltr">list</text></g><g stroke-linecap="round"><g transform="translate(58.7568064326033 403.2386692773691) rotate(0 30.095189891749442 -0.2066115813329361)"><path d="M-0.59 -0.49 C9.45 -0.35, 50.43 -0.22, 60.78 -0.1 M1.3 -1.79 C11.16 -1.37, 49.99 0.81, 59.98 1.38" stroke="#000000" stroke-width="1" fill="none"></path></g><g transform="translate(58.7568064326033 403.2386692773691) rotate(0 30.095189891749442 -0.2066115813329361)"><path d="M30.45 10.52 C41.05 8.91, 51.47 5.79, 58.47 0.92 M32.22 10.45 C37.78 8.19, 43.31 6.93, 60.81 1.44" stroke="#000000" stroke-width="1" fill="none"></path></g><g transform="translate(58.7568064326033 403.2386692773691) rotate(0 30.095189891749442 -0.2066115813329361)"><path d="M31.6 -9.97 C41.64 -4.52, 51.66 -0.59, 58.47 0.92 M33.37 -10.04 C38.66 -7.69, 43.94 -4.33, 60.81 1.44" stroke="#000000" stroke-width="1" fill="none"></path></g></g><g stroke-linecap="round"><g transform="translate(346.9101475360576 415.67693715823975) rotate(0 24.75650034133264 -11.899587884752236)"><path d="M-0.82 -1.02 C7.37 -5.05, 42.09 -19.15, 50.33 -23.15 M0.96 1.06 C8.98 -2.8, 42.17 -20.64, 49.94 -24.86" stroke="#000000" stroke-width="1" fill="none"></path></g></g><g transform="translate(147.90512425963152 233.91405684636266) rotate(0 21 10)"><text x="21" y="14" font-family="Virgil, Segoe UI Emoji" font-size="16px" fill="#000000" text-anchor="middle" style="white-space: pre;" direction="ltr">front</text></g><g stroke-linecap="round" transform="translate(293.76453012092725 250.19343050334282) rotate(0 52.70029727996257 25.52022583955238)"><path d="M12.76 0 M12.76 0 C41.28 -0.17, 72.71 0.82, 92.64 0 M12.76 0 C37.46 0.91, 62.7 -0.1, 92.64 0 M92.64 0 C100.17 -0.81, 105.89 4.08, 105.4 12.76 M92.64 0 C103.12 0.4, 107.22 2.52, 105.4 12.76 M105.4 12.76 C103.24 21.75, 106.03 26.97, 105.4 38.28 M105.4 12.76 C105.99 20.03, 104.96 27.91, 105.4 38.28 M105.4 38.28 C106.46 48.67, 102.41 50.16, 92.64 51.04 M105.4 38.28 C107.33 45.49, 101.47 50.42, 92.64 51.04 M92.64 51.04 C68.31 50.13, 47.2 51.78, 12.76 51.04 M92.64 51.04 C62.54 50.93, 34.35 51.82, 12.76 51.04 M12.76 51.04 C5.86 50.32, -0.48 48.24, 0 38.28 M12.76 51.04 C6.42 52.06, 0.57 47.71, 0 38.28 M0 38.28 C2.05 28.2, -1 17.35, 0 12.76 M0 38.28 C-0.57 32.22, -0.25 24.66, 0 12.76 M0 12.76 C1.37 5.23, 3.75 0.88, 12.76 0 M0 12.76 C1.91 2.34, 2.12 -0.24, 12.76 0" stroke="#000000" stroke-width="2" fill="none"></path></g><g stroke-linecap="round"><g transform="translate(346.4648131542658 249.77846910312815) rotate(0 0.3657652560664246 25.972011565240223)"><path d="M-0.58 -0.12 C-0.45 8.75, 0.46 44.17, 0.58 53.17 M1.31 -1.23 C1.35 7.28, 0.25 42.4, -0.06 51.3" stroke="#000000" stroke-width="2" fill="none"></path></g></g><g stroke-linecap="round"><g transform="translate(399.9950474812799 275.71364921958343) rotate(0 -53.289309587464686 0.7783823560567953)"><path d="M-0.12 0.58 C-17.74 0.7, -88.27 0.39, -105.76 0.12 M-1.64 -0.16 C-19.37 0.22, -89.2 1.73, -106.46 1.72" stroke="#000000" stroke-width="2" fill="none"></path></g></g><g transform="translate(300.65209650806764 253.98246964878854) rotate(0 20.5 10)"><text x="20.5" y="14" font-family="Virgil, Segoe UI Emoji" font-size="16px" fill="#000000" text-anchor="middle" style="white-space: pre;" direction="ltr">data</text></g><g transform="translate(354.0887900288385 253.98246964878854) rotate(0 18 10)"><text x="18" y="14" font-family="Virgil, Segoe UI Emoji" font-size="16px" fill="#000000" text-anchor="middle" style="white-space: pre;" direction="ltr">next</text></g><g stroke-linecap="round" transform="translate(346.8797888011036 276.1286248664212) rotate(0 25.72770653965972 11.826442645981842)"><path d="M1.57 1.37 C1.57 1.37, 1.57 1.37, 1.57 1.37 M1.57 1.37 C1.57 1.37, 1.57 1.37, 1.57 1.37 M4.99 9.64 C6.42 7.16, 8.23 5.05, 10.24 3.6 M4.99 9.64 C6.97 6.88, 9.33 5.18, 10.24 3.6 M3.81 23.19 C10.14 18.92, 15.57 10.15, 20.87 3.56 M3.81 23.19 C10.2 15.51, 16.36 8.9, 20.87 3.56 M13.78 23.91 C18.15 20.5, 23.99 15.47, 31.5 3.53 M13.78 23.91 C18.27 20, 21.57 14.33, 31.5 3.53 M24.41 23.87 C31.08 17.28, 38.82 8.01, 41.47 4.25 M24.41 23.87 C28.35 18.06, 33.36 13.31, 41.47 4.25 M35.04 23.84 C39.18 19.3, 45.35 14.49, 52.1 4.21 M35.04 23.84 C38.81 17.38, 44.23 11.94, 52.1 4.21 M45.67 23.8 C48.21 22.87, 48.7 19.55, 52.23 16.26 M45.67 23.8 C46.77 22.02, 48.78 20.7, 52.23 16.26" stroke="#ced4da" stroke-width="1" fill="none"></path><path d="M5.91 0 M5.91 0 C16.37 -1.01, 23.66 -0.67, 45.54 0 M5.91 0 C21.63 0.72, 35.91 1.29, 45.54 0 M45.54 0 C51.09 -0.89, 51.78 2.1, 51.46 5.91 M45.54 0 C49.78 0.39, 51.98 1.31, 51.46 5.91 M51.46 5.91 C52 9.27, 52.24 12.52, 51.46 17.74 M51.46 5.91 C51.98 8.4, 51.97 11.58, 51.46 17.74 M51.46 17.74 C53.21 23.26, 51.44 24.55, 45.54 23.65 M51.46 17.74 C53.4 22.98, 47.66 24.03, 45.54 23.65 M45.54 23.65 C30.82 23.07, 19.57 22.87, 5.91 23.65 M45.54 23.65 C31.46 23.31, 17.7 23.97, 5.91 23.65 M5.91 23.65 C2.46 23.75, 0.83 23.14, 0 17.74 M5.91 23.65 C3.2 24.8, -0.7 23.77, 0 17.74 M0 17.74 C-0.9 13.92, 1.01 7.95, 0 5.91 M0 17.74 C-0.37 15.1, -0.39 11.31, 0 5.91 M0 5.91 C1.44 3.95, 2.3 1.88, 5.91 0 M0 5.91 C1.12 2.35, 0.37 -2.11, 5.91 0" stroke="#000000" stroke-width="2" fill="none"></path></g><g transform="translate(310.6750065306119 280.4199680488264) rotate(0 9 10.000000000000114)"><text x="9" y="14" font-family="Virgil, Segoe UI Emoji" font-size="16px" fill="#000000" text-anchor="middle" style="white-space: pre;" direction="ltr">10</text></g><g transform="translate(149.90512425963152 279.40880003270127) rotate(0 19 10)"><text x="19" y="14" font-family="Virgil, Segoe UI Emoji" font-size="16px" fill="#000000" text-anchor="middle" style="white-space: pre;" direction="ltr">temp</text></g><g stroke-linecap="round"><g transform="translate(198.228250550118 242.95830996118548) rotate(0 43.991968170123755 9.609043443835617)"><path d="M-0.98 0.98 C13.84 4.3, 74.27 15.92, 88.96 18.76 M0.71 0.45 C15.46 3.56, 73.7 14.03, 88.52 17.2" stroke="#c92a2a" stroke-width="1" fill="none"></path></g><g transform="translate(198.228250550118 242.95830996118548) rotate(0 43.991968170123755 9.609043443835617)"><path d="M60.53 23.49 C69.66 19.33, 77.36 18.12, 90.05 15.59 M59.41 22.35 C66.86 21.52, 72.92 19.95, 88.45 16.45" stroke="#c92a2a" stroke-width="1" fill="none"></path></g><g transform="translate(198.228250550118 242.95830996118548) rotate(0 43.991968170123755 9.609043443835617)"><path d="M64.46 3.34 C72.21 5.24, 78.73 10.11, 90.05 15.59 M63.34 2.21 C69.9 6.15, 75.02 9.37, 88.45 16.45" stroke="#c92a2a" stroke-width="1" fill="none"></path></g></g><g stroke-linecap="round"><g transform="translate(192.9170372401427 282.49942687063685) rotate(0 46.93374906658755 -7.115783234246123)"><path d="M-0.31 -0.58 C15.35 -3.39, 78.55 -13.42, 94.17 -15.97 M1.73 1.73 C17.21 -1, 77.48 -11.93, 93.17 -14.68" stroke="#000000" stroke-width="1" fill="none"></path></g><g transform="translate(192.9170372401427 282.49942687063685) rotate(0 46.93374906658755 -7.115783234246123)"><path d="M66.26 0.21 C74.57 -5.78, 82.99 -7.79, 91.83 -15.53 M67.56 1.18 C73.04 -3.2, 79.34 -5.71, 93.04 -15.26" stroke="#000000" stroke-width="1" fill="none"></path></g><g transform="translate(192.9170372401427 282.49942687063685) rotate(0 46.93374906658755 -7.115783234246123)"><path d="M62.66 -19.99 C72.27 -19.53, 81.84 -15.09, 91.83 -15.53 M63.95 -19.02 C70.12 -18.95, 77.22 -17, 93.04 -15.26" stroke="#000000" stroke-width="1" fill="none"></path></g></g><g stroke-linecap="round"><g transform="translate(374.89594557568626 299.85310474574885) rotate(0 -106.56214095228484 32.252529580025566)"><path d="M0.19 -0.72 C0.47 2.65, 5.87 15.32, 1.18 20.85 C-3.52 26.39, -7.3 30.92, -27.97 32.49 C-48.65 34.06, -95.8 31.16, -122.86 30.28 C-149.91 29.39, -175.02 27.6, -190.31 27.18 C-205.6 26.76, -210.76 21.41, -214.57 27.75 C-218.38 34.09, -213.05 58.93, -213.16 65.22 M-1.16 1.52 C-0.99 4.93, 4.98 16.9, 0.36 21.77 C-4.27 26.63, -8.45 29.21, -28.9 30.71 C-49.35 32.21, -95.25 31.26, -122.35 30.78 C-149.45 30.3, -176.24 28.48, -191.48 27.81 C-206.71 27.14, -209.76 20.74, -213.77 26.75 C-217.78 32.77, -215.67 57.46, -215.55 63.89" stroke="#000000" stroke-width="1" fill="none"></path></g><g transform="translate(374.89594557568626 299.85310474574885) rotate(0 -106.56214095228484 32.252529580025566)"><path d="M-223.86 46.93 C-222.62 50.62, -217.21 56.4, -217.34 64.8 M-221.81 46.58 C-221.17 52.65, -218.21 57.6, -215.73 63.55" stroke="#000000" stroke-width="1" fill="none"></path></g><g transform="translate(374.89594557568626 299.85310474574885) rotate(0 -106.56214095228484 32.252529580025566)"><path d="M-211.03 46.37 C-213.15 50.22, -211.1 56.16, -217.34 64.8 M-208.98 46.02 C-212.67 52.28, -214.04 57.43, -215.73 63.55" stroke="#000000" stroke-width="1" fill="none"></path></g></g><g stroke-linecap="round" transform="translate(10 10) rotate(0 230.28781280134467 220.20393348018968)"><path d="M0.29 -0.19 C94.24 -1.53, 188.63 -1.11, 461.35 0.3 M459.7 -0.79 C459.38 142.75, 458.47 286.33, 459.9 440.78 M459.85 440.37 C311.02 441.25, 162.72 441.07, -0.91 440.71 M-0.28 441.02 C0.56 285.95, 1.04 130.71, -0.98 0.85" stroke="#495057" stroke-width="1.5" fill="none" stroke-dasharray="8 9"></path></g><g stroke-linecap="round"><g transform="translate(10.938064494789614 209.33263451801395) rotate(0 229.16086219496833 0.3507005844264768)"><path d="M-0.43 1.02 C76.09 0.87, 381.99 -0.17, 458.75 -0.32" stroke="#495057" stroke-width="1.5" fill="none" stroke-dasharray="8 9"></path></g></g><g transform="translate(504.6602765630678 43.959501012211376) rotate(0 162.5 50)"><text x="0" y="14" font-family="Virgil, Segoe UI Emoji" font-size="16px" fill="#495057" text-anchor="start" style="white-space: pre;" direction="ltr">ListNode* list = ...;</text><text x="0" y="34" font-family="Virgil, Segoe UI Emoji" font-size="16px" fill="#495057" text-anchor="start" style="white-space: pre;" direction="ltr">void addFront(ListNode* front, int value)</text><text x="0" y="54" font-family="Virgil, Segoe UI Emoji" font-size="16px" fill="#495057" text-anchor="start" style="white-space: pre;" direction="ltr">{</text><text x="0" y="74" font-family="Virgil, Segoe UI Emoji" font-size="16px" fill="#495057" text-anchor="start" style="white-space: pre;" direction="ltr">    //...</text><text x="0" y="94" font-family="Virgil, Segoe UI Emoji" font-size="16px" fill="#495057" text-anchor="start" style="white-space: pre;" direction="ltr">}</text></g><g transform="translate(504.6602765630678 235.3188288613087) rotate(0 169 59.999999999999886)"><text x="0" y="14" font-family="Virgil, Segoe UI Emoji" font-size="16px" fill="#495057" text-anchor="start" style="white-space: pre;" direction="ltr">void addFront(ListNode* front, int value)</text><text x="0" y="34" font-family="Virgil, Segoe UI Emoji" font-size="16px" fill="#495057" text-anchor="start" style="white-space: pre;" direction="ltr">{</text><text x="0" y="54" font-family="Virgil, Segoe UI Emoji" font-size="16px" fill="#495057" text-anchor="start" style="white-space: pre;" direction="ltr">    ListNode* temp = new ListNode(value);</text><text x="0" y="74" font-family="Virgil, Segoe UI Emoji" font-size="16px" fill="#495057" text-anchor="start" style="white-space: pre;" direction="ltr">    temp-&gt;next = front;</text><text x="0" y="94" font-family="Virgil, Segoe UI Emoji" font-size="16px" fill="#495057" text-anchor="start" style="white-space: pre;" direction="ltr">    front = temp;</text><text x="0" y="114" font-family="Virgil, Segoe UI Emoji" font-size="16px" fill="#495057" text-anchor="start" style="white-space: pre;" direction="ltr">}</text></g></svg>