<svg version="1.1" xmlns="http://www.w3.org/2000/svg" xmlns:xlink="http://www.w3.org/1999/xlink" width="320" height="320"><defs/><g transform="scale(2,2)"><g id="background-fa54b12d"><rect fill="white" stroke="none" x="0" y="0" width="160" height="160" class="dcg-svg-background"/></g><g id="background-images-fa54b12d"/><g id="graphpaper-fa54b12d"><g id="grid-fa54b12d"><g><path fill="none" stroke="rgb(0,0,0)" class="dcg-svg-minor-gridline" paint-order="fill stroke markers" d=" M 16.5 0 L 16.5 160" stroke-opacity="0.2" stroke-miterlimit="10" stroke-dasharray=""/><path fill="none" stroke="rgb(0,0,0)" class="dcg-svg-minor-gridline" paint-order="fill stroke markers" d=" M 32.5 0 L 32.5 160" stroke-opacity="0.2" stroke-miterlimit="10" stroke-dasharray=""/><path fill="none" stroke="rgb(0,0,0)" class="dcg-svg-minor-gridline" paint-order="fill stroke markers" d=" M 48.5 0 L 48.5 160" stroke-opacity="0.2" stroke-miterlimit="10" stroke-dasharray=""/><path fill="none" stroke="rgb(0,0,0)" class="dcg-svg-minor-gridline" paint-order="fill stroke markers" d=" M 64.5 0 L 64.5 160" stroke-opacity="0.2" stroke-miterlimit="10" stroke-dasharray=""/><path fill="none" stroke="rgb(0,0,0)" class="dcg-svg-minor-gridline" paint-order="fill stroke markers" d=" M 96.5 0 L 96.5 160" stroke-opacity="0.2" stroke-miterlimit="10" stroke-dasharray=""/><path fill="none" stroke="rgb(0,0,0)" class="dcg-svg-minor-gridline" paint-order="fill stroke markers" d=" M 112.5 0 L 112.5 160" stroke-opacity="0.2" stroke-miterlimit="10" stroke-dasharray=""/><path fill="none" stroke="rgb(0,0,0)" class="dcg-svg-minor-gridline" paint-order="fill stroke markers" d=" M 128.5 0 L 128.5 160" stroke-opacity="0.2" stroke-miterlimit="10" stroke-dasharray=""/><path fill="none" stroke="rgb(0,0,0)" class="dcg-svg-minor-gridline" paint-order="fill stroke markers" d=" M 144.5 0 L 144.5 160" stroke-opacity="0.2" stroke-miterlimit="10" stroke-dasharray=""/><path fill="none" stroke="rgb(0,0,0)" class="dcg-svg-minor-gridline" paint-order="fill stroke markers" d=" M 0 144.5 L 160 144.5" stroke-opacity="0.2" stroke-miterlimit="10" stroke-dasharray=""/><path fill="none" stroke="rgb(0,0,0)" class="dcg-svg-minor-gridline" paint-order="fill stroke markers" d=" M 0 128.5 L 160 128.5" stroke-opacity="0.2" stroke-miterlimit="10" stroke-dasharray=""/><path fill="none" stroke="rgb(0,0,0)" class="dcg-svg-minor-gridline" paint-order="fill stroke markers" d=" M 0 112.5 L 160 112.5" stroke-opacity="0.2" stroke-miterlimit="10" stroke-dasharray=""/><path fill="none" stroke="rgb(0,0,0)" class="dcg-svg-minor-gridline" paint-order="fill stroke markers" d=" M 0 96.5 L 160 96.5" stroke-opacity="0.2" stroke-miterlimit="10" stroke-dasharray=""/><path fill="none" stroke="rgb(0,0,0)" class="dcg-svg-minor-gridline" paint-order="fill stroke markers" d=" M 0 64.5 L 160 64.5" stroke-opacity="0.2" stroke-miterlimit="10" stroke-dasharray=""/><path fill="none" stroke="rgb(0,0,0)" class="dcg-svg-minor-gridline" paint-order="fill stroke markers" d=" M 0 48.5 L 160 48.5" stroke-opacity="0.2" stroke-miterlimit="10" stroke-dasharray=""/><path fill="none" stroke="rgb(0,0,0)" class="dcg-svg-minor-gridline" paint-order="fill stroke markers" d=" M 0 32.5 L 160 32.5" stroke-opacity="0.2" stroke-miterlimit="10" stroke-dasharray=""/><path fill="none" stroke="rgb(0,0,0)" class="dcg-svg-minor-gridline" paint-order="fill stroke markers" d=" M 0 16.5 L 160 16.5" stroke-opacity="0.2" stroke-miterlimit="10" stroke-dasharray=""/><path fill="none" stroke="rgb(0,0,0)" class="dcg-svg-major-gridline" paint-order="fill stroke markers" d=" M 0 160 L 160 160" stroke-opacity="0.2500000000000001" stroke-miterlimit="10" stroke-dasharray=""/><path fill="none" stroke="rgb(0,0,0)" class="dcg-svg-major-gridline" paint-order="fill stroke markers" d=" M 0 0 L 160 0" stroke-opacity="0.2500000000000001" stroke-miterlimit="10" stroke-dasharray=""/></g></g><g id="axis-fa54b12d"><g id="yaxis-fa54b12d"><title>Y axis</title><g><path fill="none" stroke="rgb(0,0,0)" class="dcg-svg-axis-line" paint-order="fill stroke markers" d=" M 80 0 L 80 160" stroke-opacity="0.9" stroke-miterlimit="10" stroke-width="1.5" stroke-dasharray=""/></g></g><g id="xaxis-fa54b12d"><title>X axis</title><g><path fill="none" stroke="rgb(0,0,0)" class="dcg-svg-axis-line" paint-order="fill stroke markers" d=" M 0 80 L 160 80" stroke-opacity="0.9" stroke-miterlimit="10" stroke-width="1.5" stroke-dasharray=""/></g></g><g><g class="dcg-svg-axis-value"><text fill="none" stroke="#ffffff" font-family="Arial" font-size="10px" font-style="normal" font-weight="normal" text-decoration="normal" x="72" y="92.72" text-anchor="middle" stroke-miterlimit="2" stroke-width="3" stroke-dasharray="">0</text><text fill="#000000" stroke="none" font-family="Arial" font-size="10px" font-style="normal" font-weight="normal" text-decoration="normal" x="72" y="92.72" text-anchor="middle">0</text></g><g class="dcg-svg-axis-value dcg-svg-offcenter-axis-value"><text fill="none" stroke="#ffffff" font-family="Arial" font-size="10px" font-style="normal" font-weight="normal" text-decoration="normal" x="10.5" y="92.72" text-anchor="middle" stroke-miterlimit="2" stroke-width="3" stroke-dasharray="">-10</text><text fill="#000000" stroke="none" font-family="Arial" font-size="10px" font-style="normal" font-weight="normal" text-decoration="normal" x="10.5" y="92.72" text-anchor="middle">-10</text></g><g class="dcg-svg-axis-value dcg-svg-offcenter-axis-value"><text fill="none" stroke="#ffffff" font-family="Arial" font-size="10px" font-style="normal" font-weight="normal" text-decoration="normal" x="151" y="92.72" text-anchor="middle" stroke-miterlimit="2" stroke-width="3" stroke-dasharray="">10</text><text fill="#000000" stroke="none" font-family="Arial" font-size="10px" font-style="normal" font-weight="normal" text-decoration="normal" x="151" y="92.72" text-anchor="middle">10</text></g><g class="dcg-svg-axis-value dcg-svg-offcenter-axis-value"><text fill="none" stroke="#ffffff" font-family="Arial" font-size="10px" font-style="normal" font-weight="normal" text-decoration="normal" x="67.5" y="154.72" text-anchor="middle" stroke-miterlimit="2" stroke-width="3" stroke-dasharray="">-10</text><text fill="#000000" stroke="none" font-family="Arial" font-size="10px" font-style="normal" font-weight="normal" text-decoration="normal" x="67.5" y="154.72" text-anchor="middle">-10</text></g><g class="dcg-svg-axis-value dcg-svg-offcenter-axis-value"><text fill="none" stroke="#ffffff" font-family="Arial" font-size="10px" font-style="normal" font-weight="normal" text-decoration="normal" x="69" y="10.72" text-anchor="middle" stroke-miterlimit="2" stroke-width="3" stroke-dasharray="">10</text><text fill="#000000" stroke="none" font-family="Arial" font-size="10px" font-style="normal" font-weight="normal" text-decoration="normal" x="69" y="10.72" text-anchor="middle">10</text></g></g></g></g><g id="expressions-fa54b12d"><g id="sketch-fa54b12d"><title>Expression 1</title><path fill="#c74440" stroke="none" paint-order="stroke fill markers" d="" fill-opacity="0.4"/><g><path fill="none" stroke="#c74440" class="dcg-svg-curve" paint-order="fill stroke markers" d=" M 0 79.27272727272727 L 0 79.27272727272727 L 20.5859375 79.0506431799745 L 34.6484375 78.80041001610778 L 44.6484375 78.52369796359704 L 52.0703125 78.21874320504458 L 57.6953125 77.88811549368394 L 62.109375 77.52806276403138 L 65.625 77.13966480446928 L 68.4765625 76.7218887555022 L 70.8203125 76.27467030468395 L 72.7734375 75.79681888147768 L 74.4140625 75.28924669350201 L 75.859375 74.72844272844273 L 77.109375 74.12338593974175 L 78.203125 73.46730462519936 L 79.1796875 72.74402125775022 L 80.0390625 71.96074582924436 L 80.78125 71.13419913419914 L 81.4453125 70.23599523241955 L 82.03125 69.27748691099477 L 82.5390625 68.28040057224607 L 83.0078125 67.17996870109546 L 83.4765625 65.85146804835924 L 83.90625 64.36641221374046 L 84.296875 62.71729957805907 L 84.6484375 60.9044289044289 L 85 58.66666666666667 L 85.3125 56.18604651162791 L 85.625 53.05263157894737 L 85.8984375 49.54646840148699 L 86.171875 44.99145299145299 L 86.40625 39.84313725490196 L 86.640625 32.91954022988506 L 86.8359375 25.020134228187914 L 87.03125 13.935483870967744 L 87.1875 1.2307692307692264 L 87.24357604980469 -5.5" stroke-linecap="round" stroke-linejoin="round" stroke-miterlimit="10" stroke-width="2.5" stroke-opacity="0.9" stroke-dasharray=""/></g><g><path fill="none" stroke="#c74440" class="dcg-svg-curve" paint-order="fill stroke markers" d=" M 88.75646018981934 165.5 L 88.75646018981934 165.5 L 88.90625 150.6206896551724 L 89.1015625 138.09929078014184 L 89.3359375 127.90643274853801 L 89.5703125 120.75621890547264 L 89.84375 114.71186440677965 L 90.1171875 110.22878228782288 L 90.4296875 106.34083601286173 L 90.7421875 103.33903133903134 L 91.09375 100.68686868686869 L 91.484375 98.3677130044843 L 91.875 96.51612903225806 L 92.3046875 94.86751361161524 L 92.7734375 93.40752864157119 L 93.2421875 92.20864381520119 L 93.75 91.13043478260869 L 94.296875 90.1637717121588 L 94.921875 89.24604966139955 L 95.5859375 88.43666323377961 L 96.3671875 87.64892623716153 L 97.265625 86.90725126475547 L 98.3203125 86.20136260408782 L 99.4921875 85.56900067980965 L 100.78125 85.00733496332518 L 102.265625 84.48630887185104 L 103.984375 84.0039100684262 L 105.9765625 83.56019122120817 L 108.3203125 83.14955786236064 L 111.1328125 82.76663289429247 L 114.5703125 82.40870332255218 L 118.7890625 82.07866023851814 L 124.0625 81.77469670710572 L 130.8203125 81.49461777047983 L 139.609375 81.24008477141992 L 151.328125 81.0106094251172 L 160 80.88888888888889" stroke-linecap="round" stroke-linejoin="round" stroke-miterlimit="10" stroke-width="2.5" stroke-opacity="0.9" stroke-dasharray=""/></g></g><g id="sketch-fa54b12d"><title>Expression 2</title><path fill="#2d70b3" stroke="none" paint-order="stroke fill markers" d="" fill-opacity="0.4"/><g><path fill="none" stroke="#2d70b3" class="dcg-svg-curve" paint-order="fill stroke markers" d=" M 88 160 L 88 155.6 M 88 152.79999999999998 L 88 148.39999999999998 M 88 145.59999999999997 L 88 141.19999999999996 M 88 138.39999999999995 L 88 133.99999999999994 M 88 131.19999999999993 L 88 126.79999999999993 M 88 123.99999999999993 L 88 119.59999999999992 M 88 116.79999999999993 L 88 112.39999999999992 M 88 109.59999999999992 L 88 105.19999999999992 M 88 102.39999999999992 L 88 97.99999999999991 M 88 95.19999999999992 L 88 90.79999999999991 M 88 87.99999999999991 L 88 83.59999999999991 M 88 80.79999999999991 L 88 76.3999999999999 M 88 73.59999999999991 L 88 69.1999999999999 M 88 66.3999999999999 L 88 61.99999999999991 M 88 59.19999999999991 L 88 54.79999999999991 M 88 51.999999999999915 L 88 47.599999999999916 M 88 44.79999999999992 L 88 40.39999999999992 M 88 37.59999999999992 L 88 33.199999999999925 M 88 30.399999999999924 L 88 25.999999999999922 M 88 23.19999999999992 L 88 18.79999999999992 M 88 15.999999999999918 L 88 11.599999999999918 M 88 8.799999999999917 L 88 4.399999999999917 M 88 1.5999999999999166 L 88 0" stroke-linecap="round" stroke-linejoin="round" stroke-miterlimit="10" stroke-opacity="0.9" stroke-dasharray=""/></g></g><g id="sketch-fa54b12d"><title>"x" equals 1</title></g></g><g id="labels-fa54b12d"><g transform="rotate(0,0,0) translate(88,64)"><g class="dcg-svg-label"><g transform="translate(-8.150459289550781,-5.932868957519531)"><g><text fill="none" stroke="#FFF" font-family="arial, sans-serif" font-size="9.9px" font-style="normal" font-weight="400" text-decoration="normal" x="0" y="9.594652416992187" text-anchor="start" stroke-linecap="round" stroke-linejoin="round" stroke-miterlimit="2" stroke-width="3" stroke-opacity="0.9" stroke-dasharray="">x=1</text></g></g><g transform="translate(-8.150459289550781,-5.932868957519531)"><g><text fill="rgb(56, 140, 70)" stroke="none" font-family="arial, sans-serif" font-size="9.9px" font-style="normal" font-weight="400" text-decoration="normal" x="0" y="9.594652416992187" text-anchor="start" fill-opacity="0.9">x=1</text></g></g></g></g></g></g></svg>