<svg version="1.1" xmlns="http://www.w3.org/2000/svg" xmlns:xlink="http://www.w3.org/1999/xlink" width="320" height="320"><defs/><g transform="scale(2,2)"><g id="background-11728e53"><rect fill="white" stroke="none" x="0" y="0" width="160" height="160" class="dcg-svg-background"/></g><g id="background-images-11728e53"/><g id="graphpaper-11728e53"><g id="grid-11728e53"><g><path fill="none" stroke="rgb(0,0,0)" class="dcg-svg-minor-gridline" paint-order="fill stroke markers" d=" M 16.5 0 L 16.5 160" stroke-opacity="0.2" stroke-miterlimit="10" stroke-dasharray=""/><path fill="none" stroke="rgb(0,0,0)" class="dcg-svg-minor-gridline" paint-order="fill stroke markers" d=" M 32.5 0 L 32.5 160" stroke-opacity="0.2" stroke-miterlimit="10" stroke-dasharray=""/><path fill="none" stroke="rgb(0,0,0)" class="dcg-svg-minor-gridline" paint-order="fill stroke markers" d=" M 48.5 0 L 48.5 160" stroke-opacity="0.2" stroke-miterlimit="10" stroke-dasharray=""/><path fill="none" stroke="rgb(0,0,0)" class="dcg-svg-minor-gridline" paint-order="fill stroke markers" d=" M 64.5 0 L 64.5 160" stroke-opacity="0.2" stroke-miterlimit="10" stroke-dasharray=""/><path fill="none" stroke="rgb(0,0,0)" class="dcg-svg-minor-gridline" paint-order="fill stroke markers" d=" M 96.5 0 L 96.5 160" stroke-opacity="0.2" stroke-miterlimit="10" stroke-dasharray=""/><path fill="none" stroke="rgb(0,0,0)" class="dcg-svg-minor-gridline" paint-order="fill stroke markers" d=" M 112.5 0 L 112.5 160" stroke-opacity="0.2" stroke-miterlimit="10" stroke-dasharray=""/><path fill="none" stroke="rgb(0,0,0)" class="dcg-svg-minor-gridline" paint-order="fill stroke markers" d=" M 128.5 0 L 128.5 160" stroke-opacity="0.2" stroke-miterlimit="10" stroke-dasharray=""/><path fill="none" stroke="rgb(0,0,0)" class="dcg-svg-minor-gridline" paint-order="fill stroke markers" d=" M 144.5 0 L 144.5 160" stroke-opacity="0.2" stroke-miterlimit="10" stroke-dasharray=""/><path fill="none" stroke="rgb(0,0,0)" class="dcg-svg-minor-gridline" paint-order="fill stroke markers" d=" M 0 106.5 L 160 106.5" stroke-opacity="0.2" stroke-miterlimit="10" stroke-dasharray=""/><path fill="none" stroke="rgb(0,0,0)" class="dcg-svg-minor-gridline" paint-order="fill stroke markers" d=" M 0 80.5 L 160 80.5" stroke-opacity="0.2" stroke-miterlimit="10" stroke-dasharray=""/><path fill="none" stroke="rgb(0,0,0)" class="dcg-svg-minor-gridline" paint-order="fill stroke markers" d=" M 0 53.5 L 160 53.5" stroke-opacity="0.2" stroke-miterlimit="10" stroke-dasharray=""/><path fill="none" stroke="rgb(0,0,0)" class="dcg-svg-minor-gridline" paint-order="fill stroke markers" d=" M 0 26.5 L 160 26.5" stroke-opacity="0.2" stroke-miterlimit="10" stroke-dasharray=""/><path fill="none" stroke="rgb(0,0,0)" class="dcg-svg-major-gridline" paint-order="fill stroke markers" d=" M 0 0 L 160 0" stroke-opacity="0.2500000000000001" stroke-miterlimit="10" stroke-dasharray=""/></g></g><g id="axis-11728e53"><g id="yaxis-11728e53"><title>Y axis</title><g><path fill="none" stroke="rgb(0,0,0)" class="dcg-svg-axis-line" paint-order="fill stroke markers" d=" M 80 0 L 80 160" stroke-opacity="0.9" stroke-miterlimit="10" stroke-width="1.5" stroke-dasharray=""/></g></g><g id="xaxis-11728e53"><title>X axis</title><g><path fill="none" stroke="rgb(0,0,0)" class="dcg-svg-axis-line" paint-order="fill stroke markers" d=" M 0 133 L 160 133" stroke-opacity="0.9" stroke-miterlimit="10" stroke-width="1.5" stroke-dasharray=""/></g></g><g><g class="dcg-svg-axis-value"><text fill="none" stroke="#ffffff" font-family="Arial" font-size="10px" font-style="normal" font-weight="normal" text-decoration="normal" x="72.21923828125" y="146.05333333333334" text-anchor="middle" stroke-miterlimit="2" stroke-width="3" stroke-dasharray="">0</text><text fill="#000000" stroke="none" font-family="Arial" font-size="10px" font-style="normal" font-weight="normal" text-decoration="normal" x="72.21923828125" y="146.05333333333334" text-anchor="middle">0</text></g><g class="dcg-svg-axis-value dcg-svg-offcenter-axis-value"><text fill="none" stroke="#ffffff" font-family="Arial" font-size="10px" font-style="normal" font-weight="normal" text-decoration="normal" x="10.2265625" y="146.05333333333334" text-anchor="middle" stroke-miterlimit="2" stroke-width="3" stroke-dasharray="">-10</text><text fill="#000000" stroke="none" font-family="Arial" font-size="10px" font-style="normal" font-weight="normal" text-decoration="normal" x="10.2265625" y="146.05333333333334" text-anchor="middle">-10</text></g><g class="dcg-svg-axis-value dcg-svg-offcenter-axis-value"><text fill="none" stroke="#ffffff" font-family="Arial" font-size="10px" font-style="normal" font-weight="normal" text-decoration="normal" x="151.4384765625" y="146.05333333333334" text-anchor="middle" stroke-miterlimit="2" stroke-width="3" stroke-dasharray="">10</text><text fill="#000000" stroke="none" font-family="Arial" font-size="10px" font-style="normal" font-weight="normal" text-decoration="normal" x="151.4384765625" y="146.05333333333334" text-anchor="middle">10</text></g><g class="dcg-svg-axis-value dcg-svg-offcenter-axis-value"><text fill="none" stroke="#ffffff" font-family="Arial" font-size="10px" font-style="normal" font-weight="normal" text-decoration="normal" x="69.4384765625" y="10.72" text-anchor="middle" stroke-miterlimit="2" stroke-width="3" stroke-dasharray="">10</text><text fill="#000000" stroke="none" font-family="Arial" font-size="10px" font-style="normal" font-weight="normal" text-decoration="normal" x="69.4384765625" y="10.72" text-anchor="middle">10</text></g></g></g></g><g id="expressions-11728e53"><g id="sketch-11728e53"><title>Expression 1</title><path fill="#c74440" stroke="none" paint-order="stroke fill markers" d="" fill-opacity="0.4"/><g><path fill="none" stroke="#c74440" class="dcg-svg-curve" paint-order="fill stroke markers" d=" M 54.19342959770115 -5.5 L 54.19342959770115 -5.5 L 55.234375 5.554962158203125 L 56.640625 19.654083251953125 L 58.0078125 32.57160186767578 L 59.3359375 44.37427520751953 L 60.625 55.126953125 L 61.875 64.892578125 L 63.0859375 73.73218536376953 L 64.2578125 81.70490264892578 L 65.390625 88.86795043945312 L 66.484375 95.27664184570312 L 67.5390625 100.98438262939453 L 68.59375 106.2286376953125 L 69.609375 110.84060668945312 L 70.5859375 114.86988067626953 L 71.5234375 118.36414337158203 L 72.421875 121.36917114257812 L 73.28125 123.9288330078125 L 74.140625 126.18077596028645 L 74.9609375 128.04330190022787 L 75.78125 129.62544759114584 L 76.5234375 130.81531524658203 L 77.1875 131.68538411458334 L 77.8125 132.33642578125 L 78.3984375 132.79895782470703 L 78.9453125 133.10159047444662 L 79.453125 133.27102661132812 L 79.9609375 133.33301544189453 L 80.46875 133.28755696614584 L 80.9765625 133.13465118408203 L 81.484375 132.87429809570312 L 82.03125 132.4737548828125 L 82.578125 131.94859822591147 L 83.1640625 131.24764760335287 L 83.7890625 130.34229278564453 L 84.4921875 129.12921905517578 L 85.234375 127.62527465820312 L 86.0546875 125.69599151611328 L 86.875 123.486328125 L 87.734375 120.87071736653645 L 88.59375 117.9473876953125 L 89.4921875 114.56216176350911 L 90.4296875 110.67117055257161 L 91.40625 106.2286376953125 L 92.421875 101.18687947591145 L 93.4765625 95.49630482991536 L 94.53125 89.34224446614583 L 95.625 82.470703125 L 96.7578125 74.82827504475911 L 97.9296875 66.35964711507161 L 99.140625 57.007598876953125 L 100.390625 46.713002522786454 L 101.6796875 35.41482289632161 L 103.0078125 23.05011749267578 L 104.375 9.554036458333314 L 105.78125 -5.140177408854186 L 105.81383290346352 -5.5" stroke-linecap="round" stroke-linejoin="round" stroke-miterlimit="10" stroke-width="2.5" stroke-opacity="0.9" stroke-dasharray=""/></g></g></g><g id="labels-11728e53"/></g></svg>