<svg version="1.1" xmlns="http://www.w3.org/2000/svg" xmlns:xlink="http://www.w3.org/1999/xlink" width="800" height="800"><defs/><g transform="scale(2,2)"><g id="background-ac5103ed"><rect fill="white" stroke="none" x="0" y="0" width="400" height="400" class="dcg-svg-background"/></g><g id="background-images-ac5103ed"/><g id="graphpaper-ac5103ed"><g id="grid-ac5103ed"><g><path fill="none" stroke="rgb(0,0,0)" class="dcg-svg-minor-gridline" paint-order="fill stroke markers" d=" M 17.5 0 L 17.5 400" stroke-opacity="0.2" stroke-miterlimit="10" stroke-dasharray=""/><path fill="none" stroke="rgb(0,0,0)" class="dcg-svg-minor-gridline" paint-order="fill stroke markers" d=" M 39.5 0 L 39.5 400" stroke-opacity="0.2" stroke-miterlimit="10" stroke-dasharray=""/><path fill="none" stroke="rgb(0,0,0)" class="dcg-svg-minor-gridline" paint-order="fill stroke markers" d=" M 61.5 0 L 61.5 400" stroke-opacity="0.2" stroke-miterlimit="10" stroke-dasharray=""/><path fill="none" stroke="rgb(0,0,0)" class="dcg-svg-minor-gridline" paint-order="fill stroke markers" d=" M 83.5 0 L 83.5 400" stroke-opacity="0.2" stroke-miterlimit="10" stroke-dasharray=""/><path fill="none" stroke="rgb(0,0,0)" class="dcg-svg-minor-gridline" paint-order="fill stroke markers" d=" M 105.5 0 L 105.5 400" stroke-opacity="0.2" stroke-miterlimit="10" stroke-dasharray=""/><path fill="none" stroke="rgb(0,0,0)" class="dcg-svg-minor-gridline" paint-order="fill stroke markers" d=" M 127.5 0 L 127.5 400" stroke-opacity="0.2" stroke-miterlimit="10" stroke-dasharray=""/><path fill="none" stroke="rgb(0,0,0)" class="dcg-svg-minor-gridline" paint-order="fill stroke markers" d=" M 149.5 0 L 149.5 400" stroke-opacity="0.2" stroke-miterlimit="10" stroke-dasharray=""/><path fill="none" stroke="rgb(0,0,0)" class="dcg-svg-minor-gridline" paint-order="fill stroke markers" d=" M 171.5 0 L 171.5 400" stroke-opacity="0.2" stroke-miterlimit="10" stroke-dasharray=""/><path fill="none" stroke="rgb(0,0,0)" class="dcg-svg-minor-gridline" paint-order="fill stroke markers" d=" M 193.5 0 L 193.5 400" stroke-opacity="0.2" stroke-miterlimit="10" stroke-dasharray=""/><path fill="none" stroke="rgb(0,0,0)" class="dcg-svg-minor-gridline" paint-order="fill stroke markers" d=" M 215.5 0 L 215.5 400" stroke-opacity="0.2" stroke-miterlimit="10" stroke-dasharray=""/><path fill="none" stroke="rgb(0,0,0)" class="dcg-svg-minor-gridline" paint-order="fill stroke markers" d=" M 237.5 0 L 237.5 400" stroke-opacity="0.2" stroke-miterlimit="10" stroke-dasharray=""/><path fill="none" stroke="rgb(0,0,0)" class="dcg-svg-minor-gridline" paint-order="fill stroke markers" d=" M 259.5 0 L 259.5 400" stroke-opacity="0.2" stroke-miterlimit="10" stroke-dasharray=""/><path fill="none" stroke="rgb(0,0,0)" class="dcg-svg-minor-gridline" paint-order="fill stroke markers" d=" M 281.5 0 L 281.5 400" stroke-opacity="0.2" stroke-miterlimit="10" stroke-dasharray=""/><path fill="none" stroke="rgb(0,0,0)" class="dcg-svg-minor-gridline" paint-order="fill stroke markers" d=" M 325.5 0 L 325.5 400" stroke-opacity="0.2" stroke-miterlimit="10" stroke-dasharray=""/><path fill="none" stroke="rgb(0,0,0)" class="dcg-svg-minor-gridline" paint-order="fill stroke markers" d=" M 347.5 0 L 347.5 400" stroke-opacity="0.2" stroke-miterlimit="10" stroke-dasharray=""/><path fill="none" stroke="rgb(0,0,0)" class="dcg-svg-minor-gridline" paint-order="fill stroke markers" d=" M 369.5 0 L 369.5 400" stroke-opacity="0.2" stroke-miterlimit="10" stroke-dasharray=""/><path fill="none" stroke="rgb(0,0,0)" class="dcg-svg-minor-gridline" paint-order="fill stroke markers" d=" M 391.5 0 L 391.5 400" stroke-opacity="0.2" stroke-miterlimit="10" stroke-dasharray=""/><path fill="none" stroke="rgb(0,0,0)" class="dcg-svg-minor-gridline" paint-order="fill stroke markers" d=" M 0 388.5 L 400 388.5" stroke-opacity="0.2" stroke-miterlimit="10" stroke-dasharray=""/><path fill="none" stroke="rgb(0,0,0)" class="dcg-svg-minor-gridline" paint-order="fill stroke markers" d=" M 0 366.5 L 400 366.5" stroke-opacity="0.2" stroke-miterlimit="10" stroke-dasharray=""/><path fill="none" stroke="rgb(0,0,0)" class="dcg-svg-minor-gridline" paint-order="fill stroke markers" d=" M 0 344.5 L 400 344.5" stroke-opacity="0.2" stroke-miterlimit="10" stroke-dasharray=""/><path fill="none" stroke="rgb(0,0,0)" class="dcg-svg-minor-gridline" paint-order="fill stroke markers" d=" M 0 322.5 L 400 322.5" stroke-opacity="0.2" stroke-miterlimit="10" stroke-dasharray=""/><path fill="none" stroke="rgb(0,0,0)" class="dcg-svg-minor-gridline" paint-order="fill stroke markers" d=" M 0 300.5 L 400 300.5" stroke-opacity="0.2" stroke-miterlimit="10" stroke-dasharray=""/><path fill="none" stroke="rgb(0,0,0)" class="dcg-svg-minor-gridline" paint-order="fill stroke markers" d=" M 0 278.5 L 400 278.5" stroke-opacity="0.2" stroke-miterlimit="10" stroke-dasharray=""/><path fill="none" stroke="rgb(0,0,0)" class="dcg-svg-minor-gridline" paint-order="fill stroke markers" d=" M 0 234.5 L 400 234.5" stroke-opacity="0.2" stroke-miterlimit="10" stroke-dasharray=""/><path fill="none" stroke="rgb(0,0,0)" class="dcg-svg-minor-gridline" paint-order="fill stroke markers" d=" M 0 212.5 L 400 212.5" stroke-opacity="0.2" stroke-miterlimit="10" stroke-dasharray=""/><path fill="none" stroke="rgb(0,0,0)" class="dcg-svg-minor-gridline" paint-order="fill stroke markers" d=" M 0 190.5 L 400 190.5" stroke-opacity="0.2" stroke-miterlimit="10" stroke-dasharray=""/><path fill="none" stroke="rgb(0,0,0)" class="dcg-svg-minor-gridline" paint-order="fill stroke markers" d=" M 0 168.5 L 400 168.5" stroke-opacity="0.2" stroke-miterlimit="10" stroke-dasharray=""/><path fill="none" stroke="rgb(0,0,0)" class="dcg-svg-minor-gridline" paint-order="fill stroke markers" d=" M 0 146.5 L 400 146.5" stroke-opacity="0.2" stroke-miterlimit="10" stroke-dasharray=""/><path fill="none" stroke="rgb(0,0,0)" class="dcg-svg-minor-gridline" paint-order="fill stroke markers" d=" M 0 124.5 L 400 124.5" stroke-opacity="0.2" stroke-miterlimit="10" stroke-dasharray=""/><path fill="none" stroke="rgb(0,0,0)" class="dcg-svg-minor-gridline" paint-order="fill stroke markers" d=" M 0 102.5 L 400 102.5" stroke-opacity="0.2" stroke-miterlimit="10" stroke-dasharray=""/><path fill="none" stroke="rgb(0,0,0)" class="dcg-svg-minor-gridline" paint-order="fill stroke markers" d=" M 0 80.5 L 400 80.5" stroke-opacity="0.2" stroke-miterlimit="10" stroke-dasharray=""/><path fill="none" stroke="rgb(0,0,0)" class="dcg-svg-minor-gridline" paint-order="fill stroke markers" d=" M 0 58.5 L 400 58.5" stroke-opacity="0.2" stroke-miterlimit="10" stroke-dasharray=""/><path fill="none" stroke="rgb(0,0,0)" class="dcg-svg-minor-gridline" paint-order="fill stroke markers" d=" M 0 36.5 L 400 36.5" stroke-opacity="0.2" stroke-miterlimit="10" stroke-dasharray=""/><path fill="none" stroke="rgb(0,0,0)" class="dcg-svg-minor-gridline" paint-order="fill stroke markers" d=" M 0 14.5 L 400 14.5" stroke-opacity="0.2" stroke-miterlimit="10" stroke-dasharray=""/><path fill="none" stroke="rgb(0,0,0)" class="dcg-svg-major-gridline" paint-order="fill stroke markers" d=" M 39.5 0 L 39.5 400" stroke-opacity="0.2500000000000001" stroke-miterlimit="10" stroke-dasharray=""/><path fill="none" stroke="rgb(0,0,0)" class="dcg-svg-major-gridline" paint-order="fill stroke markers" d=" M 127.5 0 L 127.5 400" stroke-opacity="0.2500000000000001" stroke-miterlimit="10" stroke-dasharray=""/><path fill="none" stroke="rgb(0,0,0)" class="dcg-svg-major-gridline" paint-order="fill stroke markers" d=" M 215.5 0 L 215.5 400" stroke-opacity="0.2500000000000001" stroke-miterlimit="10" stroke-dasharray=""/><path fill="none" stroke="rgb(0,0,0)" class="dcg-svg-major-gridline" paint-order="fill stroke markers" d=" M 391.5 0 L 391.5 400" stroke-opacity="0.2500000000000001" stroke-miterlimit="10" stroke-dasharray=""/><path fill="none" stroke="rgb(0,0,0)" class="dcg-svg-major-gridline" paint-order="fill stroke markers" d=" M 0 344 L 400 344" stroke-opacity="0.2500000000000001" stroke-miterlimit="10" stroke-dasharray=""/><path fill="none" stroke="rgb(0,0,0)" class="dcg-svg-major-gridline" paint-order="fill stroke markers" d=" M 0 168 L 400 168" stroke-opacity="0.2500000000000001" stroke-miterlimit="10" stroke-dasharray=""/><path fill="none" stroke="rgb(0,0,0)" class="dcg-svg-major-gridline" paint-order="fill stroke markers" d=" M 0 80 L 400 80" stroke-opacity="0.2500000000000001" stroke-miterlimit="10" stroke-dasharray=""/></g></g><g id="axis-ac5103ed"><g id="yaxis-ac5103ed"><title>Y axis</title><g><path fill="none" stroke="rgb(0,0,0)" class="dcg-svg-axis-line" paint-order="fill stroke markers" d=" M 303 0 L 303 400" stroke-opacity="0.9" stroke-miterlimit="10" stroke-width="1.5" stroke-dasharray=""/></g></g><g id="xaxis-ac5103ed"><title>X axis</title><g><path fill="none" stroke="rgb(0,0,0)" class="dcg-svg-axis-line" paint-order="fill stroke markers" d=" M 0 256 L 400 256" stroke-opacity="0.9" stroke-miterlimit="10" stroke-width="1.5" stroke-dasharray=""/></g></g><g><g class="dcg-svg-axis-value"><text fill="none" stroke="#ffffff" font-family="Arial" font-size="14px" font-style="normal" font-weight="normal" text-decoration="normal" x="294.24687581776135" y="272.1024772693043" text-anchor="middle" stroke-miterlimit="2" stroke-width="3" stroke-dasharray="">0</text><text fill="#000000" stroke="none" font-family="Arial" font-size="14px" font-style="normal" font-weight="normal" text-decoration="normal" x="294.24687581776135" y="272.1024772693043" text-anchor="middle">0</text></g><g class="dcg-svg-axis-value"><text fill="none" stroke="#ffffff" font-family="Arial" font-size="14px" font-style="normal" font-weight="normal" text-decoration="normal" x="36.89791358462293" y="272.1024772693043" text-anchor="middle" stroke-miterlimit="2" stroke-width="3" stroke-dasharray="">-6</text><text fill="#000000" stroke="none" font-family="Arial" font-size="14px" font-style="normal" font-weight="normal" text-decoration="normal" x="36.89791358462293" y="272.1024772693043" text-anchor="middle">-6</text></g><g class="dcg-svg-axis-value"><text fill="none" stroke="#ffffff" font-family="Arial" font-size="14px" font-style="normal" font-weight="normal" text-decoration="normal" x="124.86823823525239" y="272.1024772693043" text-anchor="middle" stroke-miterlimit="2" stroke-width="3" stroke-dasharray="">-4</text><text fill="#000000" stroke="none" font-family="Arial" font-size="14px" font-style="normal" font-weight="normal" text-decoration="normal" x="124.86823823525239" y="272.1024772693043" text-anchor="middle">-4</text></g><g class="dcg-svg-axis-value"><text fill="none" stroke="#ffffff" font-family="Arial" font-size="14px" font-style="normal" font-weight="normal" text-decoration="normal" x="212.83856288588186" y="272.1024772693043" text-anchor="middle" stroke-miterlimit="2" stroke-width="3" stroke-dasharray="">-2</text><text fill="#000000" stroke="none" font-family="Arial" font-size="14px" font-style="normal" font-weight="normal" text-decoration="normal" x="212.83856288588186" y="272.1024772693043" text-anchor="middle">-2</text></g><g class="dcg-svg-axis-value"><text fill="none" stroke="#ffffff" font-family="Arial" font-size="14px" font-style="normal" font-weight="normal" text-decoration="normal" x="391.11026687464084" y="272.1024772693043" text-anchor="middle" stroke-miterlimit="2" stroke-width="3" stroke-dasharray="">2</text><text fill="#000000" stroke="none" font-family="Arial" font-size="14px" font-style="normal" font-weight="normal" text-decoration="normal" x="391.11026687464084" y="272.1024772693043" text-anchor="middle">2</text></g><g class="dcg-svg-axis-value"><text fill="none" stroke="#ffffff" font-family="Arial" font-size="14px" font-style="normal" font-weight="normal" text-decoration="normal" x="291.91582113026135" y="348.0728019199338" text-anchor="middle" stroke-miterlimit="2" stroke-width="3" stroke-dasharray="">-2</text><text fill="#000000" stroke="none" font-family="Arial" font-size="14px" font-style="normal" font-weight="normal" text-decoration="normal" x="291.91582113026135" y="348.0728019199338" text-anchor="middle">-2</text></g><g class="dcg-svg-axis-value"><text fill="none" stroke="#ffffff" font-family="Arial" font-size="14px" font-style="normal" font-weight="normal" text-decoration="normal" x="294.24687581776135" y="172.1321526186748" text-anchor="middle" stroke-miterlimit="2" stroke-width="3" stroke-dasharray="">2</text><text fill="#000000" stroke="none" font-family="Arial" font-size="14px" font-style="normal" font-weight="normal" text-decoration="normal" x="294.24687581776135" y="172.1321526186748" text-anchor="middle">2</text></g><g class="dcg-svg-axis-value"><text fill="none" stroke="#ffffff" font-family="Arial" font-size="14px" font-style="normal" font-weight="normal" text-decoration="normal" x="294.24687581776135" y="84.16182796804536" text-anchor="middle" stroke-miterlimit="2" stroke-width="3" stroke-dasharray="">4</text><text fill="#000000" stroke="none" font-family="Arial" font-size="14px" font-style="normal" font-weight="normal" text-decoration="normal" x="294.24687581776135" y="84.16182796804536" text-anchor="middle">4</text></g></g></g></g><g id="expressions-ac5103ed"><g id="sketch-ac5103ed"><title>Expression 1</title><path fill="#c74440" stroke="none" paint-order="stroke fill markers" d="" fill-opacity="0.4"/><path fill="#c74440" stroke="none" paint-order="stroke fill markers" d="" fill-opacity="0.4"/><path fill="#c74440" stroke="none" paint-order="stroke fill markers" d="" fill-opacity="0.4"/><path fill="#c74440" stroke="none" paint-order="stroke fill markers" d="" fill-opacity="0.4"/><path fill="#c74440" stroke="none" paint-order="stroke fill markers" d="" fill-opacity="0.4"/><path fill="#c74440" stroke="none" paint-order="stroke fill markers" d="" fill-opacity="0.4"/><path fill="#c74440" stroke="none" paint-order="stroke fill markers" d="" fill-opacity="0.4"/><path fill="#c74440" stroke="none" paint-order="stroke fill markers" d="" fill-opacity="0.4"/><path fill="#c74440" stroke="none" paint-order="stroke fill markers" d="" fill-opacity="0.4"/><path fill="#c74440" stroke="none" paint-order="stroke fill markers" d="" fill-opacity="0.4"/><path fill="#c74440" stroke="none" paint-order="stroke fill markers" d="" fill-opacity="0.4"/><path fill="#c74440" stroke="none" paint-order="stroke fill markers" d="" fill-opacity="0.4"/><path fill="#c74440" stroke="none" paint-order="stroke fill markers" d="" fill-opacity="0.4"/><path fill="#c74440" stroke="none" paint-order="stroke fill markers" d="" fill-opacity="0.4"/><path fill="#c74440" stroke="none" paint-order="stroke fill markers" d="" fill-opacity="0.4"/><path fill="#c74440" stroke="none" paint-order="stroke fill markers" d="" fill-opacity="0.4"/><path fill="#c74440" stroke="none" paint-order="stroke fill markers" d="" fill-opacity="0.4"/><path fill="#c74440" stroke="none" paint-order="stroke fill markers" d="" fill-opacity="0.4"/><path fill="#c74440" stroke="none" paint-order="stroke fill markers" d="" fill-opacity="0.4"/><path fill="#c74440" stroke="none" paint-order="stroke fill markers" d="" fill-opacity="0.4"/><path fill="#c74440" stroke="none" paint-order="stroke fill markers" d="" fill-opacity="0.4"/><g><path fill="none" stroke="#c74440" class="dcg-svg-curve" paint-order="fill stroke markers" d=" M 0 258.5289541575035 L 0 258.5289541575035 L 14.257812500000016 259.38443573516054 L 26.464843749999986 260.3727916663871 L 37.20703125 261.5009715522466 L 46.77734375000003 262.7664904845176 L 55.371093750000014 264.16296279187964 L 63.28124999999999 265.71322865138507 L 70.5078125 267.39506427863375 L 77.24609375 269.23278375999786 L 83.59375000000003 271.2414081531121 L 89.55078125 273.40919417591573 L 95.21484374999999 275.7612850254219 L 100.68359375000001 278.3385234011105 L 105.95703125000001 281.14636788417687 L 111.03515624999999 284.187726454886 L 116.01562499999999 287.53185400425986 L 120.89843750000003 291.1993275608238 L 125.48828125000003 295.03846606457165 L 129.8828125 299.10932780613336 L 133.984375 303.29382823862903 L 137.890625 307.6587141357953 L 141.69921875 312.3044801466775 L 145.41015625000003 317.2349930200705 L 149.02343750000003 322.45248696285347 L 152.5390625 327.95739937199045 L 155.95703125 333.7482130754736 L 159.27734375000003 339.8213078237601 L 162.50000000000003 346.17082385502675 L 165.72265625000003 353.0030153758779 L 168.9453125 360.354574258119 L 172.07031250000003 368.0166594569642 L 175.1953125 376.24291431635345 L 178.3203125 385.07487940880964 L 181.34765625000003 394.2505224851858 L 184.37500000000003 404.07993293972135 L 184.7832744112612 405.5" stroke-linecap="round" stroke-linejoin="round" stroke-miterlimit="10" stroke-width="2.5" stroke-opacity="0.9" stroke-dasharray=""/></g><g><path fill="none" stroke="#c74440" class="dcg-svg-curve" paint-order="fill stroke markers" d=" M 0 258.3055064686836 L 0 258.3055064686836 L 14.941406249999979 259.11899771420764 L 27.63671875000001 260.06406543842786 L 38.76953125000002 261.14977087138374 L 48.63281249999998 262.37025908928524 L 57.519531249999964 263.73060084168355 L 65.625 265.2352947758742 L 73.046875 266.87868345022775 L 79.98046875000001 268.6858160210686 L 86.42578125000003 270.6413433949762 L 92.48046875000003 272.75861399041855 L 98.2421875 275.06291866066096 L 103.71093750000003 277.5476993197018 L 108.98437500000003 280.25481315555476 L 114.0625 283.18706382549396 L 119.04296875 286.4112217204072 L 123.92578125 289.9471256735908 L 128.61328125000003 293.7315620895703 L 133.10546875 297.7570598704684 L 137.30468750000003 301.91056157242383 L 141.30859375 306.2577877773225 L 145.11718750000003 310.77684352330084 L 148.82812500000003 315.5728798451763 L 152.44140625 320.6480700132802 L 155.95703125 326.0028394948567 L 159.37500000000003 331.63571249778397 L 162.69531250000003 337.5431675124851 L 166.015625 343.9138220572296 L 169.23828125 350.57444153347444 L 172.4609375 357.7413858620075 L 175.5859375 365.2110584770571 L 178.71093750000003 373.23073315476233 L 181.8359375 381.84090728831757 L 184.86328125000003 390.786128861083 L 187.890625 400.3687002093358 L 189.40389389462518 405.5" stroke-linecap="round" stroke-linejoin="round" stroke-miterlimit="10" stroke-width="2.5" stroke-opacity="0.9" stroke-dasharray=""/></g><g><path fill="none" stroke="#c74440" class="dcg-svg-curve" paint-order="fill stroke markers" d=" M 0 258.0820587798637 L 0 258.0820587798637 L 15.820312499999998 258.85583489600106 L 29.199218749999993 259.7663913970184 L 40.72265625 260.806252589691 L 50.97656249999999 261.9907534183502 L 60.156249999999986 263.31271599784293 L 68.45703125 264.770404473322 L 76.07421875000001 266.3729964795172 L 83.10546875000001 268.1200148032966 L 89.64843750000003 270.0166831629922 L 95.80078125 272.076769255224 L 101.66015625000001 274.3256321181019 L 107.22656250000003 276.75818567197695 L 112.59765625000001 279.41601347255687 L 117.77343750000001 282.3032933206382 L 122.75390625000001 285.4214957826455 L 127.63671875 288.84119939878457 L 132.421875 292.581743904152 L 136.91406250000003 296.483605173926 L 141.2109375 300.6078146664099 L 145.31250000000003 304.93876939773634 L 149.21875 309.4564229463483 L 152.9296875 314.1362237688754 L 156.54296875000003 319.0884129370104 L 160.05859375000003 324.31340560648323 L 163.4765625 329.8097617520891 L 166.89453125 335.75025795720296 L 170.21484375 341.98033168307535 L 173.4375 348.4939717031922 L 176.66015625 355.50276353806237 L 179.78515625000003 362.80760337406946 L 182.91015625 370.650308413041 L 186.03515625 379.07048239483396 L 189.16015625 388.1106451360505 L 192.18750000000003 397.5025874498408 L 194.59388361373416 405.5" stroke-linecap="round" stroke-linejoin="round" stroke-miterlimit="10" stroke-width="2.5" stroke-opacity="0.9" stroke-dasharray=""/></g><g><path fill="none" stroke="#c74440" class="dcg-svg-curve" paint-order="fill stroke markers" d=" M 0 257.85861109104377 L 0 257.85861109104377 L 16.796875000000007 258.585980735236 L 30.859375000000004 259.449255565189 L 42.968749999999986 260.4491104044241 L 53.613281250000014 261.58663950481633 L 63.08593749999997 262.85839190577155 L 71.6796875 264.27469386822247 L 79.49218749999999 265.82578821303537 L 86.71875 267.52772275502247 L 93.45703124999999 269.3874040539214 L 99.80468749999999 271.42003267774913 L 105.76171875000003 273.61372500538874 L 111.42578125000003 275.9939247096934 L 116.89453125 278.60196258417625 L 122.07031250000001 281.38758860161795 L 127.1484375 284.4584676103408 L 132.03125000000003 287.7651053827594 L 136.81640625000003 291.3819760649109 L 141.40625 295.24120383702217 L 145.80078125000003 299.33336739770743 L 149.90234375 303.53976429267067 L 153.80859375000003 307.9274905651135 L 157.6171875 312.597566727884 L 161.328125 317.55387976352324 L 164.84375000000003 322.65118614454684 L 168.35937500000003 328.1726320255349 L 171.77734375 333.9808378777473 L 175.09765625 340.07217257857195 L 178.3203125 346.440758766958 L 181.54296875 353.2934701140653 L 184.765625 360.66710869218656 L 187.890625 368.3522062226621 L 191.015625 376.603167842677 L 194.14062500000003 385.46165888784464 L 197.16796875000003 394.664860120508 L 200.1953125 404.52379225840275 L 200.47513533244285 405.5" stroke-linecap="round" stroke-linejoin="round" stroke-miterlimit="10" stroke-width="2.5" stroke-opacity="0.9" stroke-dasharray=""/></g><g><path fill="none" stroke="#c74440" class="dcg-svg-curve" paint-order="fill stroke markers" d=" M 0 257.63516340222384 L 0 257.63516340222384 L 18.066406249999982 258.3161397308348 L 33.0078125 259.13393228917613 L 45.70312499999999 260.0839970332633 L 56.738281250000014 261.16461836127144 L 66.60156250000001 262.3888388326592 L 75.48828125 263.7533405107115 L 83.59375000000003 265.262635799589 L 91.01562499999999 266.91104995720343 L 97.94921875 268.7237087402099 L 104.39453124999999 270.68521611765357 L 110.44921875000001 272.8089613274719 L 116.2109375 275.12031256237 L 121.67968750000001 277.61269168171657 L 126.95312500000001 280.328083872824 L 132.03125000000003 283.26930136655153 L 137.01171875000003 286.5033187376704 L 141.89453125 290.05003548663757 L 146.58203125000003 293.846044710777 L 150.97656250000003 297.7916177915704 L 155.17578125 301.9485813228453 L 159.17968750000003 306.2994308211034 L 162.98828125 310.82225307563294 L 166.69921875 315.62228676174425 L 170.31250000000003 320.7017069611294 L 173.828125 326.06093949564803 L 177.24609375 331.69850734314593 L 180.56640625000003 337.6108860589652 L 183.88671875 343.98685036888384 L 187.109375 350.65302128809026 L 190.33203125000003 357.8259390674098 L 193.45703125 365.3018374489383 L 196.58203125000003 373.32819630469976 L 199.70703125 381.9455467813507 L 202.73437500000003 390.8982239500284 L 205.76171875000003 400.4887821076846 L 207.23834362960702 405.5" stroke-linecap="round" stroke-linejoin="round" stroke-miterlimit="10" stroke-width="2.5" stroke-opacity="0.9" stroke-dasharray=""/></g><g><path fill="none" stroke="#c74440" class="dcg-svg-curve" paint-order="fill stroke markers" d=" M 0 257.4117157134039 L 0 257.4117157134039 L 19.628906250000004 258.0401185071728 L 35.54687500000003 258.8012997685812 L 49.02343749999997 259.70002179547026 L 60.64453125000001 260.72984136586206 L 70.8984375 261.8942815417811 L 80.078125 263.1938554225062 L 88.4765625 264.6453767261268 L 96.19140625 266.24639985884306 L 103.32031250000003 267.99742799953526 L 109.96093749999999 269.90461880678464 L 116.2109375 271.9826733468591 L 122.07031250000001 274.2181282209569 L 127.63671875 276.63617860022947 L 133.0078125 279.2781601142627 L 138.18359375000003 282.148225655306 L 143.1640625 285.24783702209146 L 148.04687500000003 288.64715195714507 L 152.83203125 292.3653948897545 L 157.32421875000003 296.2439927969686 L 161.62109374999997 300.34361326025265 L 165.72265625000003 304.64874632259114 L 169.62890625 309.13946508158483 L 173.33984375 313.79136437309506 L 176.953125 318.7140279983883 L 180.46875 323.90786863798655 L 183.88671875 329.37145485228723 L 187.30468750000003 335.2765331100549 L 190.625 341.4694623928426 L 193.84765625000003 347.9442673137862 L 197.07031250000003 354.9112718952694 L 200.1953125 362.1725594043746 L 203.3203125 369.9685052999126 L 206.4453125 378.3384771995166 L 209.57031250000003 387.32474141156763 L 212.59765625000003 396.66068784439744 L 215.27331607658328 405.5" stroke-linecap="round" stroke-linejoin="round" stroke-miterlimit="10" stroke-width="2.5" stroke-opacity="0.9" stroke-dasharray=""/></g><g><path fill="none" stroke="#c74440" class="dcg-svg-curve" paint-order="fill stroke markers" d=" M 0 257.188268024584 L 0 257.188268024584 L 21.77734375 257.7608957273235 L 39.06249999999999 258.4668065316033 L 53.515624999999986 259.3118633055517 L 65.82031249999999 260.2858580458751 L 76.66015624999999 261.4013152442958 L 86.328125 262.6567210112995 L 95.01953125000001 264.04670072060094 L 102.92968750000003 265.57406037797364 L 110.25390625 267.25535421479447 L 117.08984375000001 269.09834019420543 L 123.43750000000001 271.08609271927867 L 129.4921875 273.2689981828825 L 135.15625 275.60182177169423 L 140.62500000000003 278.1579485803418 L 145.89843750000003 280.9427924758008 L 150.97656250000003 283.9592376174817 L 155.95703125 287.275971591772 L 160.83984375 290.9134028695188 L 165.52734375000003 294.8065027869342 L 169.92187500000003 298.85299196228004 L 174.0234375 303.01243946486886 L 178.02734375 307.4646749558958 L 181.8359375 312.09289061108797 L 185.54687500000003 317.00477743778373 L 189.16015625 322.20256120267743 L 192.67578125 327.6866776503741 L 196.09375000000003 333.4556153403015 L 199.4140625 339.50576769916876 L 202.73437500000003 346.030308389787 L 205.95703125 352.8518182507062 L 209.1796875 360.1918834779889 L 212.3046875 367.84198953541005 L 215.42968750000003 376.0553832130461 L 218.55468750000003 384.87354013760165 L 221.58203125 394.03483772926774 L 224.609375 403.8488805789159 L 225.08482112711124 405.5" stroke-linecap="round" stroke-linejoin="round" stroke-miterlimit="10" stroke-width="2.5" stroke-opacity="0.9" stroke-dasharray=""/></g><g><path fill="none" stroke="#c74440" class="dcg-svg-curve" paint-order="fill stroke markers" d=" M 0 256.9648203357641 L 0 256.9648203357641 L 24.804687500000014 257.47265318585846 L 43.945312500000036 258.11500852728557 L 59.570312500000014 258.8914898750188 L 72.85156250000001 259.80691462750997 L 84.37499999999999 260.85891279513066 L 94.53125000000003 262.04445845113395 L 103.61328125 263.36317320277124 L 111.91406250000001 264.8313416418101 L 119.53124999999999 266.4454553867778 L 126.56250000000001 268.2050337936472 L 133.10546875 270.115338136359 L 139.2578125 272.1902350935594 L 145.11718750000003 274.4552660206365 L 150.68359375 276.90530827187763 L 156.0546875 279.58224436546175 L 161.23046875 282.4902821382326 L 166.21093750000003 285.6309027291635 L 171.09375 289.07519209862727 L 175.87890625000003 292.84262902358194 L 180.37109375 296.7725424901115 L 184.66796875 300.92640273851555 L 188.67187500000003 305.17983831807004 L 192.57812500000003 309.71988022543394 L 196.2890625 314.4228729679644 L 199.90234375000003 319.39960394447644 L 203.41796874999997 324.65049036810757 L 206.83593750000003 330.17408507724923 L 210.15625000000003 335.9669348799589 L 213.4765625 342.2139980959826 L 216.69921875000003 348.7454008951355 L 219.92187500000003 355.77330579432737 L 223.04687500000003 363.09806602131397 L 226.17187500000003 370.96215821650276 L 229.29687500000003 379.4052941196518 L 232.421875 388.47010949944314 L 235.44921875 397.8876637591691 L 237.73350544460124 405.5" stroke-linecap="round" stroke-linejoin="round" stroke-miterlimit="10" stroke-width="2.5" stroke-opacity="0.9" stroke-dasharray=""/></g><g><path fill="none" stroke="#c74440" class="dcg-svg-curve" paint-order="fill stroke markers" d=" M 0 256.74137264694417 L 0 256.74137264694417 L 29.785156250000007 257.1740957203637 L 51.757812499999986 257.7440661192238 L 69.14062500000004 258.44664838366646 L 83.59375000000003 259.2838634460659 L 95.99609374999999 260.2576092142359 L 106.83593749999999 261.3651718106722 L 116.50390625 262.6116924955111 L 125.19531249999997 263.99183468116144 L 133.203125 265.52886403911384 L 140.52734375 267.20196911087044 L 147.36328125 269.03597880138307 L 153.71093750000003 271.01404995007977 L 159.76562500000003 273.18632354220006 L 165.52734375000003 275.55049002811927 L 170.99609375 278.09982095420145 L 176.26953125 280.8772608851888 L 181.34765625000003 283.88568631248063 L 186.328125 287.1936022052449 L 191.2109375 290.8213627750598 L 195.8984375 294.7041122475112 L 200.29296875000003 298.7398431673807 L 204.49218750000003 302.9917948895782 L 208.49609375 307.4420629465287 L 212.3046875 312.0682334023572 L 216.01562500000003 316.9779496759584 L 219.62890625000003 322.1734365504649 L 223.14453125000003 327.65512957792686 L 226.56250000000003 333.42151798567477 L 229.8828125 339.4689967941554 L 233.20312500000003 345.9906543031194 L 236.42578125000003 352.8091497522941 L 239.64843750000003 360.1459714192394 L 242.77343750000003 367.7926969098922 L 245.89843750000003 376.0024611050723 L 249.02343750000003 384.8167213034866 L 252.05078125 393.9739705358278 L 255.07812500000003 403.78367657930994 L 255.5725653594063 405.5" stroke-linecap="round" stroke-linejoin="round" stroke-miterlimit="10" stroke-width="2.5" stroke-opacity="0.9" stroke-dasharray=""/></g><g><path fill="none" stroke="#c74440" class="dcg-svg-curve" paint-order="fill stroke markers" d=" M 0 256.51792495812424 L 0 256.51792495812424 L 40.23437499999998 256.8522231287525 L 67.18750000000003 257.3238254773073 L 87.59765625000001 257.93161504712646 L 104.00390625000003 258.67172774898916 L 117.77343750000001 259.545579275721 L 129.6875 260.5569928876016 L 140.13671875 261.7000037997567 L 149.51171875 262.98412969623075 L 158.0078125 264.4095251013003 L 165.82031250000003 265.98682624896605 L 173.046875 267.7175161423987 L 179.6875 269.579090648847 L 185.93750000000003 271.60744215940764 L 191.89453125000003 273.828314893382 L 197.55859375 276.23800587789304 L 202.9296875 278.8282726924185 L 208.10546875 281.6421589694381 L 213.18359375 284.7441921378995 L 218.06640625 288.0843758497923 L 222.8515625 291.7379397936011 L 227.44140625 295.6363195473235 L 231.73828125000003 299.6735805637825 L 235.83984375 303.91322812113816 L 239.74609375 308.33563842568697 L 243.5546875 313.0426305356952 L 247.16796875 317.9011904327337 L 250.68359375000003 323.0273960327878 L 254.1015625 328.4198345366948 L 257.51953125 334.24801590270374 L 260.83984375 340.36029985075743 L 264.0625 346.7507888064536 L 267.28515625 353.6270679184682 L 270.5078125 361.02606582835136 L 273.6328125 368.73759385658366 L 276.7578125 377.0169320875294 L 279.88281250000006 385.90588915173834 L 282.91015625 395.14074192669773 L 285.9375 405.0335807889666 L 286.0707374379419 405.5" stroke-linecap="round" stroke-linejoin="round" stroke-miterlimit="10" stroke-width="2.5" stroke-opacity="0.9" stroke-dasharray=""/></g><g><path fill="none" stroke="#c74440" class="dcg-svg-curve" paint-order="fill stroke markers" d=" M 0 256.2944772693043 L 0 256.2944772693043 L 400 256.2944772693043" stroke-linecap="round" stroke-linejoin="round" stroke-miterlimit="10" stroke-width="2.5" stroke-opacity="0.9" stroke-dasharray=""/></g><g><path fill="none" stroke="#c74440" class="dcg-svg-curve" paint-order="fill stroke markers" d=" M 0 256.0710295804844 L 0 256.0710295804844 L 40.23437499999998 255.73673140985613 L 67.18750000000003 255.2651290613013 L 87.59765625000001 254.65733949148213 L 104.00390625000003 253.9172267896195 L 117.77343750000001 253.04337526288757 L 129.6875 252.03196165100704 L 140.13671875 250.8889507388519 L 149.51171875 249.60482484237787 L 158.0078125 248.17942943730833 L 165.82031250000003 246.60212828964254 L 173.046875 244.87143839620987 L 179.6875 243.0098638897616 L 185.93750000000003 240.98151237920098 L 191.89453125000003 238.7606396452266 L 197.55859375 236.35094866071557 L 202.9296875 233.76068184619012 L 208.10546875 230.9467955691705 L 213.18359375 227.8447624007091 L 218.06640625 224.50457868881634 L 222.8515625 220.85101474500752 L 227.44140625 216.9526349912851 L 231.73828125000003 212.91537397482614 L 235.83984375 208.67572641747046 L 239.74609375 204.25331611292168 L 243.5546875 199.54632400291345 L 247.16796875 194.68776410587495 L 250.68359375000003 189.56155850582078 L 254.1015625 184.16912000191383 L 257.51953125 178.34093863590485 L 260.83984375 172.2286546878512 L 264.0625 165.83816573215503 L 267.28515625 158.9618866201404 L 270.5078125 151.56288871025725 L 273.6328125 143.85136068202496 L 276.7578125 135.5720224510792 L 279.88281250000006 126.68306538687034 L 282.91015625 117.44821261191089 L 285.9375 107.55537374964206 L 288.96484375 96.95766708991164 L 291.9921875 85.60487058636721 L 295.01953125 73.44318385647915 L 298.04687500000006 60.41497322399238 L 300.9765625 46.92386151577773 L 303.90625 32.5035556276481 L 306.8359375 17.09005773328198 L 309.765625 0.6149621851913025 L 310.78295159326393 -5.5" stroke-linecap="round" stroke-linejoin="round" stroke-miterlimit="10" stroke-width="2.5" stroke-opacity="0.9" stroke-dasharray=""/></g><g><path fill="none" stroke="#c74440" class="dcg-svg-curve" paint-order="fill stroke markers" d=" M 0 255.84758189166448 L 0 255.84758189166448 L 29.785156250000007 255.4148588182449 L 51.757812499999986 254.8448884193848 L 69.14062500000004 254.1423061549422 L 83.59375000000003 253.30509109254277 L 95.99609374999999 252.33134532437273 L 106.83593749999999 251.2237827279364 L 116.50390625 249.97726204309757 L 125.19531249999997 248.59711985744724 L 133.203125 247.06009049949478 L 140.52734375 245.3869854277382 L 147.36328125 243.55297573722558 L 153.71093750000003 241.57490458852888 L 159.76562500000003 239.40263099640856 L 165.52734375000003 237.03846451048938 L 170.99609375 234.48913358440717 L 176.26953125 231.71169365341987 L 181.34765625000003 228.70326822612802 L 186.328125 225.39535233336377 L 191.2109375 221.76759176354884 L 195.8984375 217.8848422910974 L 200.29296875000003 213.84911137122793 L 204.49218750000003 209.59715964903037 L 208.49609375 205.1468915920799 L 212.3046875 200.52072113625147 L 216.01562500000003 195.61100486265022 L 219.62890625000003 190.41551798814376 L 223.14453125000003 184.9338249606818 L 226.56250000000003 179.16743655293385 L 229.8828125 173.11995774445325 L 233.20312500000003 166.59830023548923 L 236.42578125000003 159.7798047863145 L 239.64843750000003 152.44298311936927 L 242.77343750000003 144.7962576287164 L 245.89843750000003 136.58649343353625 L 249.02343750000003 127.77223323512203 L 252.05078125 118.61498400278083 L 255.07812500000003 108.80527795929873 L 258.10546875 98.29662735714328 L 261.1328125 87.0392321825392 L 264.16015625 74.97974415548379 L 267.18750000000006 62.06101391469292 L 270.1171875 48.68327251003683 L 273.046875 34.384145253535394 L 275.9765625 19.100172113909707 L 278.90625 2.7635222791034835 L 280.29267622760244 -5.5" stroke-linecap="round" stroke-linejoin="round" stroke-miterlimit="10" stroke-width="2.5" stroke-opacity="0.9" stroke-dasharray=""/></g><g><path fill="none" stroke="#c74440" class="dcg-svg-curve" paint-order="fill stroke markers" d=" M 0 255.62413420284454 L 0 255.62413420284454 L 24.804687500000014 255.11630135275018 L 43.945312500000036 254.47394601132302 L 59.570312500000014 253.6974646635898 L 72.85156250000001 252.78203991109865 L 84.37499999999999 251.73004174347798 L 94.53125000000003 250.54449608747467 L 103.61328125 249.22578133583735 L 111.91406250000001 247.75761289679852 L 119.53124999999999 246.14349915183087 L 126.56250000000001 244.38392074496142 L 133.10546875 242.47361640224963 L 139.2578125 240.39871944504918 L 145.11718750000003 238.13368851797213 L 150.68359375 235.68364626673096 L 156.0546875 233.00671017314687 L 161.23046875 230.09867240037605 L 166.21093750000003 226.9580518094451 L 171.09375 223.51376243998135 L 175.87890625000003 219.7463255150267 L 180.37109375 215.81641204849714 L 184.66796875 211.66255180009304 L 188.67187500000003 207.4091162205386 L 192.57812500000003 202.86907431317468 L 196.2890625 198.16608157064422 L 199.90234375000003 193.1893505941322 L 203.41796874999997 187.93846417050105 L 206.83593750000003 182.41486946135936 L 210.15625000000003 176.62201965864975 L 213.4765625 170.37495644262603 L 216.69921875000003 163.8435536434731 L 219.92187500000003 156.81564874428125 L 223.04687500000003 149.4908885172947 L 226.17187500000003 141.62679632210586 L 229.29687500000003 133.1836604189569 L 232.421875 124.11884503916548 L 235.44921875 114.70129077943955 L 238.47656250000003 104.61273289568356 L 241.50390625 93.80536217426902 L 244.53125000000003 82.22796298046029 L 247.55859375000003 69.82567054986833 L 250.48828125000003 56.982716337734644 L 253.41796875 43.25520949829138 L 256.34765625000006 28.58222687183894 L 259.27734375 12.898649243775765 L 262.20703125 -3.8651276567733817 L 262.47433591500004 -5.5" stroke-linecap="round" stroke-linejoin="round" stroke-miterlimit="10" stroke-width="2.5" stroke-opacity="0.9" stroke-dasharray=""/></g><g><path fill="none" stroke="#c74440" class="dcg-svg-curve" paint-order="fill stroke markers" d=" M 0 255.40068651402464 L 0 255.40068651402464 L 21.77734375 254.82805881128516 L 39.06249999999999 254.12214800700534 L 53.515624999999986 253.27709123305695 L 65.82031249999999 252.3030964927335 L 76.66015624999999 251.1876392943128 L 86.328125 249.9322335273091 L 95.01953125000001 248.54225381800768 L 102.92968750000003 247.01489416063498 L 110.25390625 245.33360032381412 L 117.08984375000001 243.49061434440316 L 123.43750000000001 241.50286181932995 L 129.4921875 239.3199563557261 L 135.15625 236.98713276691439 L 140.62500000000003 234.43100595826687 L 145.89843750000003 231.64616206280783 L 150.97656250000003 228.62971692112694 L 155.95703125 225.3129829468366 L 160.83984375 221.67555166908983 L 165.52734375000003 217.78245175167442 L 169.92187500000003 213.73596257632857 L 174.0234375 209.57651507373976 L 178.02734375 205.12427958271283 L 181.8359375 200.49606392752065 L 185.54687500000003 195.5841771008249 L 189.16015625 190.3863933359312 L 192.67578125 184.90227688823452 L 196.09375000000003 179.13333919830714 L 199.4140625 173.08318683943986 L 202.73437500000003 166.5586461488216 L 205.95703125 159.73713628790244 L 209.1796875 152.39707106061974 L 212.3046875 144.74696500319857 L 215.42968750000003 136.53357132556243 L 218.55468750000003 127.71541440100697 L 221.58203125 118.55411680934088 L 224.609375 108.74007395969272 L 227.63671875000003 98.22677755260429 L 230.66406250000003 86.96440555804338 L 233.69140625 74.89958611108585 L 236.71875 61.975144585092664 L 239.64843750000003 48.591488969434124 L 242.578125 34.28604016333895 L 245.50781250000003 18.995310080267643 L 248.4375 2.65143792061059 L 249.80451673842606 -5.5" stroke-linecap="round" stroke-linejoin="round" stroke-miterlimit="10" stroke-width="2.5" stroke-opacity="0.9" stroke-dasharray=""/></g><g><path fill="none" stroke="#c74440" class="dcg-svg-curve" paint-order="fill stroke markers" d=" M 0 255.1772388252047 L 0 255.1772388252047 L 19.628906250000004 254.54883603143583 L 35.54687500000003 253.7876547700274 L 49.02343749999997 252.88893274313835 L 60.64453125000001 251.8591131727466 L 70.8984375 250.69467299682756 L 80.078125 249.39509911610241 L 88.4765625 247.9435778124818 L 96.19140625 246.34255467976556 L 103.32031250000003 244.59152653907339 L 109.96093749999999 242.68433573182398 L 116.2109375 240.6062811917496 L 122.07031250000001 238.37082631765173 L 127.63671875 235.95277593837918 L 133.0078125 233.31079442434594 L 138.18359375000003 230.44072888330263 L 143.1640625 227.34111751651716 L 148.04687500000003 223.94180258146358 L 152.83203125 220.22355964885415 L 157.32421875000003 216.34496174164 L 161.62109374999997 212.245341278356 L 165.72265625000003 207.9402082160175 L 169.62890625 203.44948945702382 L 173.33984375 198.79759016551355 L 176.953125 193.87492654022032 L 180.46875 188.68108590062207 L 183.88671875 183.2174996863214 L 187.30468750000003 177.31242142855368 L 190.625 171.11949214576603 L 193.84765625000003 164.6446872248224 L 197.07031250000003 157.67768264333927 L 200.1953125 150.416395134234 L 203.3203125 142.62044923869604 L 206.4453125 134.25047733909207 L 209.57031250000003 125.26421312704105 L 212.59765625000003 115.92826669421117 L 215.625 105.92713122000055 L 218.65234375 95.2134117815744 L 221.67968750000003 83.7363365533368 L 224.70703125000003 71.44151620157515 L 227.734375 58.27068613589989 L 230.66406250000003 44.631887630228164 L 233.59375000000003 30.053723083669922 L 236.5234375 14.471494087607766 L 239.453125 -2.1839538400288916 L 239.99883110688108 -5.5" stroke-linecap="round" stroke-linejoin="round" stroke-miterlimit="10" stroke-width="2.5" stroke-opacity="0.9" stroke-dasharray=""/></g><g><path fill="none" stroke="#c74440" class="dcg-svg-curve" paint-order="fill stroke markers" d=" M 0 254.95379113638478 L 0 254.95379113638478 L 18.066406249999982 254.27281480777384 L 33.0078125 253.4550222494325 L 45.70312499999999 252.50495750534532 L 56.738281250000014 251.42433617733718 L 66.60156250000001 250.2001157059494 L 75.48828125 248.83561402789715 L 83.59375000000003 247.32631873901963 L 91.01562499999999 245.67790458140516 L 97.94921875 243.86524579839877 L 104.39453124999999 241.90373842095505 L 110.44921875000001 239.77999321113674 L 116.2109375 237.46864197623864 L 121.67968750000001 234.97626285689202 L 126.95312500000001 232.2608706657846 L 132.03125000000003 229.3196531720571 L 137.01171875000003 226.08563580093823 L 141.89453125 222.53891905197105 L 146.58203125000003 218.74290982783162 L 150.97656250000003 214.79733674703823 L 155.17578125 210.6403732157633 L 159.17968750000003 206.28952371750523 L 162.98828125 201.7667014629757 L 166.69921875 196.96666777686437 L 170.31250000000003 191.8872475774792 L 173.828125 186.52801504296065 L 177.24609375 180.89044719546268 L 180.56640625000003 174.97806847964344 L 183.88671875 168.6021041697248 L 187.109375 161.93593325051833 L 190.33203125000003 154.7630154711988 L 193.45703125 147.28711708967035 L 196.58203125000003 139.26075823390886 L 199.70703125 130.64340775725793 L 202.73437500000003 121.69073058858027 L 205.76171875000003 112.10017243092409 L 208.7890625 101.82628406854803 L 211.81640625 90.82037801517606 L 214.84375 79.03029778622971 L 217.87109375000003 66.40017073163784 L 220.80078125 53.32128677826114 L 223.73046875000003 39.341600644004075 L 226.66015625000003 24.39906998855912 L 229.58984375 8.427379333661577 L 231.9799272730342 -5.5" stroke-linecap="round" stroke-linejoin="round" stroke-miterlimit="10" stroke-width="2.5" stroke-opacity="0.9" stroke-dasharray=""/></g><g><path fill="none" stroke="#c74440" class="dcg-svg-curve" paint-order="fill stroke markers" d=" M 0 254.73034344756485 L 0 254.73034344756485 L 16.796875000000007 254.00297380337264 L 30.859375000000004 253.1396989734196 L 42.968749999999986 252.13984413418447 L 53.613281250000014 251.00231503379229 L 63.08593749999997 249.7305626328371 L 71.6796875 248.31426067038615 L 79.49218749999999 246.76316632557325 L 86.71875 245.06123178358618 L 93.45703124999999 243.2015504846873 L 99.80468749999999 241.16892186085948 L 105.76171875000003 238.97522953321987 L 111.42578125000003 236.59502982891524 L 116.89453125 233.9869919544324 L 122.07031250000001 231.2013659369907 L 127.1484375 228.13048692826783 L 132.03125000000003 224.82384915584922 L 136.81640625000003 221.20697847369777 L 141.40625 217.34775070158642 L 145.80078125000003 213.2555871409012 L 149.90234375 209.04919024593798 L 153.80859375000003 204.66146397349513 L 157.6171875 199.9913878107246 L 161.328125 195.03507477508538 L 164.84375000000003 189.93776839406178 L 168.35937500000003 184.4163225130737 L 171.77734375 178.6081166608613 L 175.09765625 172.51678196003667 L 178.3203125 166.14819577165062 L 181.54296875 159.29548442454328 L 184.765625 151.92184584642206 L 187.890625 144.23674831594647 L 191.015625 135.9857866959316 L 194.14062500000003 127.12729565076404 L 197.16796875000003 117.9240944181006 L 200.1953125 108.06516228020587 L 203.22265625 97.50377820934125 L 206.25000000000003 86.18989229023896 L 209.27734375000003 74.06988853584608 L 212.3046875 61.08633080361926 L 215.23437500000003 47.64145854320719 L 218.16406250000003 33.270576823806834 L 221.09375 17.90990716530115 L 224.0234375 1.4912783737770496 L 225.19055417605267 -5.5" stroke-linecap="round" stroke-linejoin="round" stroke-miterlimit="10" stroke-width="2.5" stroke-opacity="0.9" stroke-dasharray=""/></g><g><path fill="none" stroke="#c74440" class="dcg-svg-curve" paint-order="fill stroke markers" d=" M 0 254.50689575874495 L 0 254.50689575874495 L 15.820312499999998 253.73311964260756 L 29.199218749999993 252.82256314159022 L 40.72265625 251.78270194891763 L 50.97656249999999 250.59820112025838 L 60.156249999999986 249.27623854076566 L 68.45703125 247.81855006528662 L 76.07421875000001 246.2159580590914 L 83.10546875000001 244.46893973531203 L 89.64843750000003 242.57227137561645 L 95.80078125 240.5121852833846 L 101.66015625000001 238.2633224205067 L 107.22656250000003 235.8307688666317 L 112.59765625000001 233.17294106605175 L 117.77343750000001 230.28566121797041 L 122.75390625000001 227.16745875596317 L 127.63671875 223.74775513982408 L 132.421875 220.0072106344566 L 136.91406250000003 216.10534936468264 L 141.2109375 211.98113987219872 L 145.31250000000003 207.65018514087228 L 149.21875 203.13253159226034 L 152.9296875 198.4527307697332 L 156.54296875000003 193.5005416015982 L 160.05859375000003 188.27554893212536 L 163.4765625 182.7791927865195 L 166.89453125 176.83869658140566 L 170.21484375 170.60862285553327 L 173.4375 164.09498283541643 L 176.66015625 157.08619100054625 L 179.78515625000003 149.78135116453922 L 182.91015625 141.93864612556763 L 186.03515625 133.51847214377466 L 189.16015625 124.47830940255812 L 192.18750000000003 115.08636708876782 L 195.21484375000003 105.02524600993593 L 198.2421875 94.24726697419584 L 201.26953125000003 82.7013536326636 L 204.296875 70.33279043096172 L 207.2265625 57.52476386987877 L 210.15625000000003 43.83459030755881 L 213.0859375 29.201512270703574 L 216.01562500000003 13.560587642687892 L 218.9453125 -3.15759855184416 L 219.3293438983164 -5.5" stroke-linecap="round" stroke-linejoin="round" stroke-miterlimit="10" stroke-width="2.5" stroke-opacity="0.9" stroke-dasharray=""/></g><g><path fill="none" stroke="#c74440" class="dcg-svg-curve" paint-order="fill stroke markers" d=" M 0 254.28344806992502 L 0 254.28344806992502 L 14.941406249999979 253.46995682440098 L 27.63671875000001 252.52488910018073 L 38.76953125000002 251.43918366722488 L 48.63281249999998 250.21869544932343 L 57.519531249999964 248.85835369692506 L 65.625 247.3536597627344 L 73.046875 245.71027108838084 L 79.98046875000001 243.90313851754004 L 86.42578125000003 241.94761114363243 L 92.48046875000003 239.83034054819004 L 98.2421875 237.5260358779477 L 103.71093750000003 235.04125521890685 L 108.98437500000003 232.33414138305386 L 114.0625 229.40189071311462 L 119.04296875 226.17773281820143 L 123.92578125 222.64182886501783 L 128.61328125000003 218.85739244903834 L 133.10546875 214.83189466814022 L 137.30468750000003 210.67839296618482 L 141.30859375 206.3311667612861 L 145.11718750000003 201.8121110153078 L 148.82812500000003 197.01607469343227 L 152.44140625 191.94088452532847 L 155.95703125 186.58611504375193 L 159.37500000000003 180.95324204082468 L 162.69531250000003 175.0457870261235 L 166.015625 168.67513248137902 L 169.23828125 162.01451300513418 L 172.4609375 154.8475686766011 L 175.5859375 147.37789606155152 L 178.71093750000003 139.35822138384634 L 181.8359375 130.74804725029105 L 184.86328125000003 121.80282567752562 L 187.890625 112.22025432927285 L 190.91796875 101.95492183891514 L 193.94531250000003 90.95818126606201 L 196.97265625 79.17791956092748 L 200 66.55831060297481 L 202.9296875 53.490318461276615 L 205.85937499999997 39.52227430727112 L 208.7890625 24.592187468169925 L 211.71875 8.633797691804602 L 214.14627865910637 -5.5" stroke-linecap="round" stroke-linejoin="round" stroke-miterlimit="10" stroke-width="2.5" stroke-opacity="0.9" stroke-dasharray=""/></g><g><path fill="none" stroke="#c74440" class="dcg-svg-curve" paint-order="fill stroke markers" d=" M 0 254.0600003811051 L 0 254.0600003811051 L 14.257812500000016 253.20451880344805 L 26.464843749999986 252.2161628722215 L 37.20703125 251.08798298636205 L 46.77734375000003 249.82246405409103 L 55.371093750000014 248.42599174672895 L 63.28124999999999 246.87572588722352 L 70.5078125 245.1938902599749 L 77.24609375 243.35617077861076 L 83.59375000000003 241.3475463854965 L 89.55078125 239.17976036269292 L 95.21484374999999 236.82766951318675 L 100.68359375000001 234.25043113749814 L 105.95703125000001 231.44258665443175 L 111.03515624999999 228.40122808372263 L 116.01562499999999 225.0571005343488 L 120.89843750000003 221.38962697778481 L 125.48828125000003 217.55048847403697 L 129.8828125 213.47962673247523 L 133.984375 209.2951262999796 L 137.890625 204.9302404028133 L 141.69921875 200.2844743919311 L 145.41015625000003 195.3539615185382 L 149.02343750000003 190.1364675757552 L 152.5390625 184.6315551666182 L 155.95703125 178.84074146313503 L 159.27734375000003 172.76764671484852 L 162.50000000000003 166.41813068358186 L 165.72265625000003 159.58593916273068 L 168.9453125 152.2343802804896 L 172.07031250000003 144.57229508164443 L 175.1953125 136.34604022225523 L 178.3203125 127.51407512979898 L 181.34765625000003 118.33843205342282 L 184.37500000000003 108.50902159888727 L 187.40234375 97.97926264035874 L 190.42968749999997 86.69925513252787 L 193.45703125 74.61554363658104 L 196.484375 61.67086399732449 L 199.4140625 48.26625119464319 L 202.34375000000003 33.93840178480514 L 205.2734375 18.623728266601574 L 208.20312500000003 2.2542635786126652 L 209.50150149693073 -5.5" stroke-linecap="round" stroke-linejoin="round" stroke-miterlimit="10" stroke-width="2.5" stroke-opacity="0.9" stroke-dasharray=""/></g></g></g><g id="labels-ac5103ed"/></g></svg>